<svg xmlns="http://www.w3.org/2000/svg" width="576" height="576" viewBox="0 0 576 576">
  <g id="aggressive_hybrid_funds" transform="translate(-10847 15473)">
    <rect id="Rectangle_9833" data-name="Rectangle 9833" width="576" height="576" transform="translate(10847 -15473)" fill="none"/>
    <g id="Directing_the_arrow_up-cuate" data-name="Directing the arrow up-cuate" transform="translate(10674.169 -15488.66)">
      <g id="freepik--Floor--inject-71" transform="translate(172.831 570.357)">
        <path id="Path_34805" data-name="Path 34805" d="M59.29,466.253c184.508-.759,391.492-.771,576,0-184.508.771-391.492.759-576,0Z" transform="translate(-59.29 -465.679)" fill="#263238"/>
      </g>
      <g id="freepik--Arrow--inject-71" transform="translate(172.831 36.66)">
        <path id="Path_34835" data-name="Path 34835" d="M173.677,536.229c47.111-9.863,104.176-23.7,125.212-34.02C468.943,420.254,550.176,136.474,551.184,133.7H688.1c-1.02,2.712-17.155,49.163-85.45,178.837-42.221,77.053-103.326,128.418-175.4,170.614-81.454,47.648-188.917,60.1-253.45,63.072C173.795,543.113,173.677,539.4,173.677,536.229Z" transform="translate(-172.625 -12.983)" fill="#00a0ad"/>
        <g id="Group_18935" data-name="Group 18935" transform="translate(1.142 120.717)" opacity="0.1">
          <path id="Path_34836" data-name="Path 34836" d="M173.749,536.142c47.037-9.868,104.209-23.676,125.122-33.934C468.926,420.254,550.158,136.474,551.166,133.7H688.08c-1.02,2.712-17.155,49.163-85.45,178.837C560.409,389.59,499.3,440.954,427.227,483.151c-81.206,47.5-188.914,60.093-253.434,63.11C173.793,541.624,173.749,538.788,173.749,536.142Z" transform="translate(-173.749 -133.7)"/>
        </g>
        <path id="Path_34837" data-name="Path 34837" d="M519.581,122.27l31.809,14.219c-.871,2.314-43.254,220.685-172.915,325.5-64.236,51.923-112.146,75.794-204.488,84.325,0-16.914-1.155-27.362-1.155-40.742,44.939-5.441,84.658-15.873,122.482-35.609C459.16,384.492,519.332,122.9,519.581,122.27Z" transform="translate(-172.831 -15.772)" fill="#00a0ad"/>
        <path id="Path_34838" data-name="Path 34838" d="M451.57,122.27H599.133l21.16,14.219H483.379Z" transform="translate(-104.82 -15.772)" fill="#00a0ad"/>
        <path id="Path_34839" data-name="Path 34839" d="M567.454,48.77,663.4,170.1l-226.133-.61Z" transform="translate(-108.309 -33.705)" fill="#00a0ad"/>
        <g id="Group_18936" data-name="Group 18936" transform="translate(328.961 15.065)" opacity="0.1">
          <path id="Path_34840" data-name="Path 34840" d="M567.454,48.77,663.4,170.1l-226.133-.61Z" transform="translate(-437.27 -48.77)"/>
        </g>
        <path id="Path_34841" data-name="Path 34841" d="M443.721,172.442,410.83,157.377,541.014,36.66l32.891,15.065Z" transform="translate(-114.76 -36.66)" fill="#00a0ad"/>
      </g>
      <g id="freepik--speech-bubble--inject-71" transform="translate(638.96 157.309)">
        <path id="Path_34842" data-name="Path 34842" d="M678.68,145.718a45.4,45.4,0,0,1-75.886,28.714L580,177.769l11.312-19.646a45.419,45.419,0,1,1,87.236-12.406Z" transform="translate(-578.624 -95.156)" fill="#fff"/>
        <path id="Path_34843" data-name="Path 34843" d="M679.327,145.914a45.777,45.777,0,0,1-9.163,23.02,54.55,54.55,0,0,1-4.129,4.732,49.027,49.027,0,0,1-4.789,4.054,45.7,45.7,0,0,1-23.19,9.012,43.905,43.905,0,0,1-6.3.132,41.722,41.722,0,0,1-6.3-.66,45.871,45.871,0,0,1-22.455-11.086l.528.17-22.625,3.469-1.64.264.83-1.452,11.312-19.683v.773A45.946,45.946,0,0,1,648.35,97.667,46.436,46.436,0,0,1,665.865,108.4a45.7,45.7,0,0,1,13.462,37.519Zm0,0a45.038,45.038,0,0,0-70.305-41.742,46.87,46.87,0,0,0-13.594,14.819,44.72,44.72,0,0,0-5.75,19.212,45.25,45.25,0,0,0,3.186,19.8l.17.4-.207.377L581.382,178.38l-.811-1.207,22.7-3.186h.321l.226.207a44.7,44.7,0,0,0,21.738,11.2,39.912,39.912,0,0,0,6.165.754,45.672,45.672,0,0,0,6.222,0,44.571,44.571,0,0,0,12.123-2.658,42.779,42.779,0,0,0,10.954-5.92,50.716,50.716,0,0,0,4.789-4,48.694,48.694,0,0,0,4.129-4.695A45.663,45.663,0,0,0,679.327,145.914Z" transform="translate(-579.27 -95.352)" fill="#263238"/>
        <path id="Path_35652" data-name="Path 35652" d="M418.523,206.007c13.966,2.528,10.282,23.2-3.71,20.689S404.538,203.5,418.523,206.007Z" transform="translate(-335.391 -202.458) rotate(7)" fill="#e27e2b"/>
        <path id="Path_35653" data-name="Path 35653" d="M418.523,206.007c13.966,2.528,10.282,23.2-3.71,20.689S404.538,203.5,418.523,206.007Z" transform="translate(-335.391 -202.458) rotate(7)" opacity="0.1"/>
        <path id="Path_35654" data-name="Path 35654" d="M416.735,205.649c13.309,2.389,9.618,23.078-3.709,20.683S403.4,203.273,416.735,205.649Z" transform="translate(-334.93 -202.277) rotate(7)" fill="#e27e2b"/>
        <path id="Path_35655" data-name="Path 35655" d="M407.46,217.614a8.023,8.023,0,0,0,6.9,8.095c11.059,1.984,14.124-15.166,3.078-17.169h-.215c10.357,2.073,7.387,18.326-3.16,16.43a7.678,7.678,0,0,1-6.6-7.356Z" transform="translate(-335.803 -203.526) rotate(7)" fill="#e27e2b"/>
        <path id="Path_35656" data-name="Path 35656" d="M407.46,217.614a8.023,8.023,0,0,0,6.9,8.095c11.059,1.984,14.124-15.166,3.078-17.169h-.215c10.357,2.073,7.387,18.326-3.16,16.43a7.678,7.678,0,0,1-6.6-7.356Z" transform="translate(-335.803 -203.526) rotate(7)" opacity="0.1"/>
        <g id="Group_18947" data-name="Group 18947" transform="translate(6 3)">
          <path id="Path_35646" data-name="Path 35646" d="M425.82,206.13c22.1,4,16.27,36.71-5.87,32.74S403.69,202.16,425.82,206.13Z" transform="translate(-383.796 -190.365)" fill="#e27e2b"/>
          <path id="Path_35647" data-name="Path 35647" d="M425.82,206.13c22.1,4,16.27,36.71-5.87,32.74S403.69,202.16,425.82,206.13Z" transform="translate(-383.796 -190.702)" opacity="0.1"/>
          <path id="Path_35648" data-name="Path 35648" d="M423.75,205.76c21.06,3.78,15.22,36.52-5.87,32.73S402.65,202,423.75,205.76Z" transform="translate(-383.796 -190.365)" fill="#e27e2b"/>
          <path id="Path_35649" data-name="Path 35649" d="M407.46,222.9c.11,5.83,3.5,11.48,10.92,12.81,17.5,3.14,22.35-24,4.87-27.17h-.34c16.39,3.28,11.69,29-5,26a12.15,12.15,0,0,1-10.45-11.64Z" transform="translate(-383.796 -190.365)" fill="#e27e2b"/>
          <path id="Path_35650" data-name="Path 35650" d="M407.46,222.9c.11,5.83,3.5,11.48,10.92,12.81,17.5,3.14,22.35-24,4.87-27.17h-.34c16.39,3.28,11.69,29-5,26a12.15,12.15,0,0,1-10.45-11.64Z" transform="translate(-383.796 -190.365)" opacity="0.1"/>
          <path id="Path_35658" data-name="Path 35658" d="M-3.664-22.114H-7.019l-2.709-4.073a1.929,1.929,0,0,0-.637-.673,1.727,1.727,0,0,0-.888-.206h-2.566v-2.171h3.768q1.686,0,2.081-1.22h-5.849v-1.651h5.813q-.413-1.13-2.045-1.13h-3.768v-1.651H-3.682v1.651H-5.817a3.368,3.368,0,0,1,.52,1.13h1.615v1.651H-5.224a3.515,3.515,0,0,1-.933,2.027,3.93,3.93,0,0,1-2.009,1.094,2.808,2.808,0,0,1,1.05.449,3.28,3.28,0,0,1,.834.9Z" transform="translate(45.766 60.264)" fill="rgba(0,0,0,0.12)"/>
        </g>
        <g id="Group_18948" data-name="Group 18948" transform="matrix(0.819, 0.574, -0.574, 0.819, 57.356, 5.5)">
          <path id="Path_35646-2" data-name="Path 35646" d="M423.664,206.094c19.7,3.565,14.5,32.717-5.232,29.179S403.941,202.556,423.664,206.094Z" transform="translate(-383.938 -190.402)" fill="#e27e2b"/>
          <path id="Path_35647-2" data-name="Path 35647" d="M423.664,206.094c19.7,3.565,14.5,32.717-5.232,29.179S403.941,202.556,423.664,206.094Z" transform="translate(-383.938 -190.702)" opacity="0.1"/>
          <path id="Path_35648-2" data-name="Path 35648" d="M421.677,205.727c18.769,3.369,13.565,32.548-5.232,29.17S402.872,202.376,421.677,205.727Z" transform="translate(-383.796 -190.365)" fill="#e27e2b"/>
          <path id="Path_35649-2" data-name="Path 35649" d="M407.46,221.338a11.315,11.315,0,0,0,9.732,11.417c15.6,2.8,19.919-21.39,4.34-24.215h-.3c14.607,2.923,10.418,25.846-4.456,23.172a10.828,10.828,0,0,1-9.313-10.374Z" transform="translate(-384.097 -190.7)" fill="#e27e2b"/>
          <path id="Path_35650-2" data-name="Path 35650" d="M407.46,221.338a11.315,11.315,0,0,0,9.732,11.417c15.6,2.8,19.919-21.39,4.34-24.215h-.3c14.607,2.923,10.418,25.846-4.456,23.172a10.828,10.828,0,0,1-9.313-10.374Z" transform="translate(-384.097 -190.7)" opacity="0.1"/>
          <path id="Path_35659" data-name="Path 35659" d="M-5.225-24.078H-8.064l-2.293-3.447a1.632,1.632,0,0,0-.539-.569,1.462,1.462,0,0,0-.752-.175h-2.171v-1.837h3.188q1.427,0,1.761-1.032h-4.95v-1.4H-8.9q-.349-.957-1.731-.957h-3.188v-1.4H-5.24v1.4H-7.046a2.85,2.85,0,0,1,.44.957H-5.24v1.4H-6.545a2.975,2.975,0,0,1-.79,1.716,3.326,3.326,0,0,1-1.7.926,2.376,2.376,0,0,1,.888.38,2.776,2.776,0,0,1,.706.759Z" transform="translate(44.807 59.532)" fill="rgba(0,0,0,0.12)"/>
        </g>
        <path id="Path_35660" data-name="Path 35660" d="M-7.109-26.449H-9.326l-1.79-2.691a1.274,1.274,0,0,0-.421-.444,1.141,1.141,0,0,0-.587-.136h-1.695v-1.434h2.489q1.114,0,1.375-.806h-3.864v-1.09h3.84q-.273-.747-1.351-.747h-2.489v-1.09h6.7v1.09h-1.41a2.225,2.225,0,0,1,.344.747h1.067v1.09H-8.14a2.323,2.323,0,0,1-.616,1.339,2.6,2.6,0,0,1-1.328.723,1.855,1.855,0,0,1,.693.3,2.167,2.167,0,0,1,.551.593Z" transform="matrix(0.966, 0.259, -0.259, 0.966, 52.328, 95.076)" fill="rgba(0,0,0,0.12)"/>
      </g>
      <g id="freepik--Character--inject-71" transform="translate(529.089 192.994)">
        <path id="Path_34845" data-name="Path 34845" d="M468.714,465.457c2.226.719,65.642-.1,68.036-1.664.916-.581,1.339-9.849,1.526-21.017v-.355c0-2.3-5.909-40.971-5.909-40.971l-42.419.423,7.357,40.626v.689s-24.13,11.178-26.592,13.178S466.489,464.748,468.714,465.457Z" transform="translate(-467.695 -87.078)" fill="#ad6359"/>
        <path id="Path_34846" data-name="Path 34846" d="M538.277,442.957v.355c-.187,11.178-.611,20.426-1.527,21.017-2.393,1.556-65.81,2.383-68.026,1.664s-.354-7.1,2.068-9.091,26.592-13.168,26.592-13.168v-.709l-1.113-6.126h41.316C538.011,440.15,538.287,442.455,538.277,442.957Z" transform="translate(-467.696 -87.614)" fill="#ebebeb"/>
        <path id="Path_34847" data-name="Path 34847" d="M468.715,466.086c1.142.364,18.368.325,35.21,0,3.388-.069,6.756-.148,9.967-.236,12.006-.325,21.933-.827,22.849-1.428s1.33-9.563,1.517-20.545v-.827h-.049l-40.873.079v.7S473.206,455,470.743,457,466.489,465.377,468.715,466.086Z" transform="translate(-467.695 -87.707)" fill="#e27e2b"/>
        <path id="Path_34848" data-name="Path 34848" d="M469.427,463.929c10.686-.4,53.824-.985,64.421-.6.089,0,.089.069,0,.069-10.587.63-53.725.886-64.421.7C469.2,464.1,469.2,463.929,469.427,463.929Z" transform="translate(-467.719 -88.011)" fill="#263238"/>
        <path id="Path_34849" data-name="Path 34849" d="M493.186,443.3c4.2-.847,9.346-.266,12.606,2.689.128.118,0,.3-.177.256a58.367,58.367,0,0,0-12.41-2.413.266.266,0,1,1-.02-.532Z" transform="translate(-468.077 -87.705)" fill="#263238"/>
        <path id="Path_34850" data-name="Path 34850" d="M490.126,445.195c4.2-.837,9.356-.256,12.607,2.7.128.118,0,.3-.177.246a59.647,59.647,0,0,0-12.4-2.413.266.266,0,0,1-.03-.532Z" transform="translate(-468.03 -87.734)" fill="#263238"/>
        <path id="Path_34851" data-name="Path 34851" d="M487.066,447.095c4.2-.837,9.356-.256,12.606,2.7.128.108,0,.286-.177.246a59.644,59.644,0,0,0-12.4-2.413.266.266,0,0,1-.03-.532Z" transform="translate(-467.984 -87.763)" fill="#263238"/>
        <path id="Path_34852" data-name="Path 34852" d="M493,440h46.811s-14.429-94.549-14.064-96.4c.177-.985,65.564-99.207,65.564-99.207H542.589s-54.956,70.271-61.141,87.97C476.957,345.262,493,440,493,440Z" transform="translate(-467.891 -84.703)" fill="#222"/>
        <path id="Path_34853" data-name="Path 34853" d="M520.484,340.036c.68-2.738,2.246-5.161,3.683-7.554,3.26-5.387,59.438-83.242,60.226-84.523.059-.1.217-.049.167,0-2.226,4.678-57.734,80.553-61.181,87.773-1.31,2.758-2.443,5.308-2.383,8.4a88.863,88.863,0,0,0,.985,9.268q.611,4.658,1.231,9.3,1.261,9.307,2.61,18.585,2.728,18.644,5.663,37.278c.246,1.546.5,3.093.758,4.629,0,.148-.2.207-.227.059-2.226-12.419-4.393-24.839-6.274-37.317s-3.585-24.977-5.24-37.494A22.585,22.585,0,0,1,520.484,340.036Z" transform="translate(-468.487 -84.756)" fill="#455a64"/>
        <path id="Path_34854" data-name="Path 34854" d="M534.493,431.739c-6.894,0-4.924-.128-11.71-.049-3.349,0-25.321.3-28.434.985-.069,0-.069.148,0,.158,3.142.532,25.1-.167,28.453-.286,6.825-.227,4.865-.246,11.691-.561C534.621,431.995,534.621,431.739,534.493,431.739Z" transform="translate(-468.097 -87.535)" fill="#37474f"/>
        <path id="Path_34855" data-name="Path 34855" d="M688.512,464.858c-2.216.758-65.633,1.093-68.055-.424-.926-.571-1.517-9.849-1.9-20.988v-.355c-.089-2.295-15.906-40.557-15.906-40.557L644.1,402.2l15.354,40.183v.7s24.336,10.725,26.828,12.675S690.718,464.11,688.512,464.858Z" transform="translate(-469.735 -87.089)" fill="#ad6359"/>
        <path id="Path_34856" data-name="Path 34856" d="M688.709,465.356c-2.216.758-65.633,1.093-68.055-.423-.926-.571-1.517-9.849-1.9-20.988v-.355c0-.118-3.063-7.672-3.073-8.007l40.922-.443,3.063,7.78v.7S684,454.345,686.493,456.3,690.915,464.608,688.709,465.356Z" transform="translate(-469.932 -87.587)" fill="#ebebeb"/>
        <path id="Path_34857" data-name="Path 34857" d="M688.756,465.476c-2.216.758-65.632,1.093-68.055-.424-.926-.571-1.517-9.849-1.9-20.988v-.355l40.912-.67v.7s24.337,10.725,26.828,12.675S690.962,464.727,688.756,465.476Z" transform="translate(-469.98 -87.707)" fill="#e27e2b"/>
        <path id="Path_34858" data-name="Path 34858" d="M688.1,463.329c-10.7-.207-53.843,0-64.421.581-.089,0-.089.059,0,.069,10.588.433,53.735-.1,64.421-.483C688.327,463.5,688.327,463.329,688.1,463.329Z" transform="translate(-470.052 -88.012)" fill="#263238"/>
        <path id="Path_34859" data-name="Path 34859" d="M664.807,443.126c-4.206-.758-9.347-.089-12.547,2.955-.128.118,0,.3.177.256a58.837,58.837,0,0,1,12.36-2.649.281.281,0,1,0,.01-.561Z" transform="translate(-470.485 -87.703)" fill="#263238"/>
        <path id="Path_34860" data-name="Path 34860" d="M667.856,445c-4.215-.768-9.356-.1-12.557,2.955-.128.108.049.286.177.246a58.811,58.811,0,0,1,12.331-2.689.266.266,0,0,0,.049-.512Z" transform="translate(-470.531 -87.732)" fill="#263238"/>
        <path id="Path_34861" data-name="Path 34861" d="M670.947,446.816c-4.215-.768-9.356-.089-12.557,2.955-.118.118.049.286.187.246a58.593,58.593,0,0,1,12.35-2.64.281.281,0,1,0,.02-.561Z" transform="translate(-470.577 -87.759)" fill="#263238"/>
        <path id="Path_34862" data-name="Path 34862" d="M548.74,244.43s5.84,35.594,6.234,36.736c0,0,2.177.985,6.086,2.836L608.335,439.88l52.356.187L598.575,244.43Z" transform="translate(-468.92 -84.704)" fill="#222"/>
        <path id="Path_34863" data-name="Path 34863" d="M553.134,280.61a84.9,84.9,0,0,1,13.06,6.835.158.158,0,0,1-.138.276c-4.4-2.147-8.864-4.205-13.187-6.589a.3.3,0,0,1,.266-.522Z" transform="translate(-468.981 -85.251)" fill="#455a64"/>
        <path id="Path_34864" data-name="Path 34864" d="M554.847,259.909c.719,4.255,1.113,8.578,1.6,12.872l.355,3.093a5.911,5.911,0,0,0,.739,2.708c.926,1.438,2.58,2.108,4.087,2.768.167.069.1.345-.089.286a9.907,9.907,0,0,1-4.343-2.295c-1.369-1.448-1.33-3.644-1.536-5.505a119.553,119.553,0,0,1-.985-13.906C554.65,259.82,554.828,259.791,554.847,259.909Z" transform="translate(-469.01 -84.937)" fill="#455a64"/>
        <path id="Path_34865" data-name="Path 34865" d="M560.108,261.229c.148,3.073.492,6.146.749,9.2.128,1.517.236,3.024.325,4.54s.276,3.112.227,4.659a.094.094,0,0,1-.187,0c-.256-1.458-.286-2.955-.414-4.452s-.227-3.1-.315-4.658c-.177-3.093-.256-6.215-.542-9.307C560,261.13,560.1,261.14,560.108,261.229Z" transform="translate(-469.09 -84.957)" fill="#455a64"/>
        <path id="Path_34866" data-name="Path 34866" d="M566.9,291.249c3.624,8.864,42.35,135.52,42.773,136.623,0,.089-.108.138-.148.059-5.18-10.134-38.233-124.42-41.542-133.323L566.74,291.3C566.72,291.22,566.858,291.161,566.9,291.249Z" transform="translate(-469.193 -85.411)" fill="#455a64"/>
        <path id="Path_34867" data-name="Path 34867" d="M608.869,433.989c1.517-.207,3.083-.207,4.609-.315s3.063-.128,4.6-.167c3.073-.069,6.146-.108,9.218-.148q9.14-.1,18.3-.1c3.477,0,6.963.187,10.44.266a.089.089,0,1,1,0,.168c-3.063.128-6.136.315-9.209.433s-6.136.128-9.208.177c-6.195.089-12.38.187-18.565.167-1.723,0-3.437,0-5.161-.059a44.682,44.682,0,0,1-5.043-.246A.09.09,0,0,1,608.869,433.989Z" transform="translate(-469.828 -87.559)" fill="#455a64"/>
        <path id="Path_34868" data-name="Path 34868" d="M565.951,189.9c-9.76-8.214-23.923-27.419-26.424-34.737-3.23-9.425-7.633-41.365-4.186-44.763,1.911-1.871,24.287,2.955,25.38,5.634s-.591,30.295-.4,32.422,8.864,22.8,13.9,32.728C580.084,192.8,572.313,195.261,565.951,189.9Z" transform="translate(-468.699 -82.671)" fill="#ad6359"/>
        <path id="Path_34869" data-name="Path 34869" d="M534.458,119.429a9.375,9.375,0,0,1-.532-5.8c.857-3.093,3.28-6.254,2.836-8.2-.7-3.1-3.211-8.184-1.97-9.179,2.531-2.068,5.338-.276,8.263,5.555.758,1.517,1.763,5.269,2.836,5.545,1.871.492,2.955-2.768,3.418-5.8.916-5.909,1.054-14.557,5.052-15.354,1.517-.3,2.039,1.9,2.137,4.57.463-3.821,1.359-7.584,3.024-7.987a1.724,1.724,0,0,1,2.049,1.2,2.3,2.3,0,0,1,1.891-1.714c1.536-.128,2.482,1.31,3.053,3.27a1.261,1.261,0,0,1,1.1-.345c4.077.414,4.629,15.354,2.9,18.949a86.558,86.558,0,0,1-13.552,19.442C551.329,124.807,534.458,119.429,534.458,119.429Z" transform="translate(-468.693 -82.252)" fill="#ad6359"/>
        <path id="Path_34870" data-name="Path 34870" d="M554.748,107.991a18.635,18.635,0,0,0,2.521-7.781c.266-3.23-.345-6.461-.4-9.681,0-.089-.138-.079-.138,0,.108,1.576,0,3.171.089,4.747a34.872,34.872,0,0,1,0,4.649,18.478,18.478,0,0,1-2.167,8.037Z" transform="translate(-469.01 -82.376)" fill="#263238"/>
        <path id="Path_34871" data-name="Path 34871" d="M559.939,109.3a46.289,46.289,0,0,0,3.211-8.864c.719-3.349.246-6.806-.167-10.174q-.364-3.024-.877-6.047c0-.079-.148-.079-.138,0q.68,5.156,1.054,10.361a24.326,24.326,0,0,1-1.142,9.514c-.571,1.753-1.28,3.457-1.97,5.151C559.88,109.314,559.929,109.334,559.939,109.3Z" transform="translate(-469.089 -82.281)" fill="#263238"/>
        <path id="Path_34872" data-name="Path 34872" d="M565.349,109.5c1.369-2.649,2.58-4.924,2.955-7.948A41.922,41.922,0,0,0,568,91.134c-.256-1.861-.571-3.7-.916-5.555,0-.069-.148,0-.138,0a96.459,96.459,0,0,1,1.241,12.488,19.331,19.331,0,0,1-.62,5.909,35.866,35.866,0,0,1-2.275,5.476S565.339,109.512,565.349,109.5Z" transform="translate(-469.171 -82.302)" fill="#263238"/>
        <path id="Path_34873" data-name="Path 34873" d="M562.012,125.59l-29.172,3.7s4.215,22.958,6.264,28.374,20,29.734,27.409,34.471,12.8.985,8.864-9.849-12.922-31.418-13.394-33.644S562.012,125.59,562.012,125.59Z" transform="translate(-468.68 -82.907)" fill="#465a65"/>
        <path id="Path_34874" data-name="Path 34874" d="M571.112,171.479,551.9,176.886c-2.423-3.083-4.747-6.224-6.727-9.061l21.894-6.165C568.364,164.772,569.763,168.17,571.112,171.479Z" transform="translate(-468.866 -83.452)" fill="#37474f"/>
        <path id="Path_34875" data-name="Path 34875" d="M560.168,133.338c-3.94.67-20.436,2.846-24.031,3.083-.246,0-.315-.138-.059-.187a222.451,222.451,0,0,1,24.061-3.053C560.237,133.17,560.276,133.318,560.168,133.338Z" transform="translate(-468.727 -83.022)" fill="#263238"/>
        <path id="Path_34876" data-name="Path 34876" d="M566.656,192.729c-5.3-3.368-16-16.743-22.416-26.129l27.577,6.717c1.438,3.536,2.758,6.894,3.762,9.6C579.528,193.684,574.082,197.437,566.656,192.729Z" transform="translate(-468.852 -83.527)" opacity="0.1"/>
        <path id="Path_34877" data-name="Path 34877" d="M602.294,256.974s-69.326-1.29-69.454-1.428,9.238-60.078,18.5-76.821c3.477-6.3,15.581-5.84,20.121-2.3C582.813,185.255,602.481,252.946,602.294,256.974Z" transform="translate(-468.68 -83.637)" fill="#465a65"/>
        <path id="Path_34878" data-name="Path 34878" d="M599.994,247.873l-65.564-.985c.374-2.177.808-4.639,1.29-7.308l62.176.9C598.693,243.214,599.4,245.7,599.994,247.873Z" transform="translate(-468.704 -84.631)" fill="#37474f"/>
        <path id="Path_34879" data-name="Path 34879" d="M601.213,252.709l-67.563-.985c.118-.709.246-1.5.394-2.334l66.568.985C600.829,251.2,601.036,251.96,601.213,252.709Z" transform="translate(-468.692 -84.779)" fill="#37474f"/>
        <path id="Path_34880" data-name="Path 34880" d="M554.205,183.742c3.034.985,11.986-3.939,14.153-8.677.148-.325-.571-3.595-1.261-7.613-.4-2.433-.808-5.161-.985-7.672l-15.472,4.974a40.267,40.267,0,0,1,2.226,9.534,5.083,5.083,0,0,1,0,1.034v.177C552.639,177.478,550.709,182.649,554.205,183.742Z" transform="translate(-468.949 -83.424)" fill="#ad6359"/>
        <path id="Path_34881" data-name="Path 34881" d="M565.315,160c-.3,3.437-1.97,14.576-10.834,15.433a9.221,9.221,0,0,1-1.635,0v-.177a5.911,5.911,0,0,0,0-1.034,39.828,39.828,0,0,0-2.216-9.524Z" transform="translate(-468.949 -83.427)" fill="#263238"/>
        <path id="Path_34882" data-name="Path 34882" d="M572.078,146.335c.187,5.86-6.894,20.683-11.71,23.115-6.894,3.536-16.191,1.527-18.654-6.333-2.393-7.623,7.209-26.779,12.36-28.778C561.688,131.4,571.822,137.7,572.078,146.335Z" transform="translate(-468.808 -83.028)" fill="#ad6359"/>
        <path id="Path_34883" data-name="Path 34883" d="M567.38,160.865c-2.216,4.176-4.846,7.81-7,8.864-6.953,3.536-16.2,1.527-18.663-6.333-.857-2.738-.177-6.963,1.3-11.356.837,3.083,5.082,2.049,5.082,2.049l1.792.7c.847,3.654,6.441,4.924,9.849,4.028,2.472-.62,5.555-4.875,5.555-4.875Z" transform="translate(-468.809 -83.307)" fill="#263238" opacity="0.3"/>
        <path id="Path_34884" data-name="Path 34884" d="M568.133,159.167c-2.472-.138-2.955-2.492-3.181-4.087-.433-3.329,3.388-8.628,2.955-12.478a5.052,5.052,0,0,0-4.373-4.521c-2.039-.079-5.259,1.546-6.589.985s-.65-3.664-1.605-3.94c-2.088-.719-6.057,3.861-7.219,6.037,0,0,3.772-10.43,14.123-7.879,10.1,2.433,10.834,10.006,10.656,13.247C572.624,152.637,568.133,159.167,568.133,159.167Z" transform="translate(-468.911 -83.017)" fill="#263238"/>
        <path id="Path_34885" data-name="Path 34885" d="M554.1,151.78v.128c-.522.985-.985,2.177-.227,2.955v.049C552.847,154.213,553.438,152.617,554.1,151.78Z" transform="translate(-468.99 -83.303)" fill="#263238"/>
        <path id="Path_34886" data-name="Path 34886" d="M555.5,151.169c1.655.67.187,3.94-1.339,3.309S554.111,150.608,555.5,151.169Z" transform="translate(-468.993 -83.293)" fill="#263238"/>
        <path id="Path_34887" data-name="Path 34887" d="M548.415,149s-.108,0-.118.059c-.423.985-1.083,2.127-2.147,2.049v.059C547.322,151.521,548.179,150.054,548.415,149Z" transform="translate(-468.881 -83.261)" fill="#263238"/>
        <path id="Path_34888" data-name="Path 34888" d="M547.965,147.528c-1.576-.847-3.162,2.354-1.7,3.142S549.295,148.237,547.965,147.528Z" transform="translate(-468.874 -83.237)" fill="#263238"/>
        <path id="Path_34889" data-name="Path 34889" d="M558.424,148.964a13.773,13.773,0,0,1-1.438-.305,2.344,2.344,0,0,1-1.409-.581.768.768,0,0,1,0-.926,1.881,1.881,0,0,1,1.852-.443,2.718,2.718,0,0,1,1.723.985.808.808,0,0,1-.729,1.27Z" transform="translate(-469.021 -83.225)" fill="#263238"/>
        <path id="Path_34890" data-name="Path 34890" d="M547.373,145.316a13.447,13.447,0,0,0,1.359.542,2.364,2.364,0,0,0,1.5.3.759.759,0,0,0,.512-.768,1.862,1.862,0,0,0-1.29-1.389,2.708,2.708,0,0,0-1.97-.148.8.8,0,0,0-.108,1.467Z" transform="translate(-468.893 -83.181)" fill="#263238"/>
        <path id="Path_34891" data-name="Path 34891" d="M551.687,160.912a1.645,1.645,0,0,1-1.113.217,2.954,2.954,0,0,1-.985-.739h-.069a1.5,1.5,0,0,0,1.044,1.123,1.162,1.162,0,0,0,1.192-.542S551.736,160.9,551.687,160.912Z" transform="translate(-468.932 -83.433)" fill="#263238"/>
        <path id="Path_34892" data-name="Path 34892" d="M551.914,157.17a3.792,3.792,0,0,1-2.955.5,4.621,4.621,0,0,1-1.261-.5,1.682,1.682,0,0,1-.226-.128l-.207-.138a.275.275,0,0,1-.1-.315h0l.059-.1h0V156.4c.335-.788.985-1.97.985-1.97-.345,0-2.088,0-1.881-.384a56.382,56.382,0,0,1,6-9.849.108.108,0,0,1,.177.108c-1.527,3.211-3.595,6.136-5.171,9.337a6.578,6.578,0,0,1,1.842.236c.1.079-1.2,2.2-1.32,2.571a5.22,5.22,0,0,0,4.058.483C551.983,157.013,552.032,157.111,551.914,157.17Z" transform="translate(-468.884 -83.188)" fill="#263238"/>
        <path id="Path_34893" data-name="Path 34893" d="M548.35,157.18a4.471,4.471,0,0,0,1.074,1.97,1.97,1.97,0,0,0,1.083.571c.9.148,1.251-.581,1.389-1.28a4.424,4.424,0,0,0,.069-1.133,5.811,5.811,0,0,1-3.615-.128Z" transform="translate(-468.914 -83.385)" fill="#263238"/>
        <path id="Path_34894" data-name="Path 34894" d="M549.44,159.2a1.97,1.97,0,0,0,1.083.571c.9.148,1.251-.581,1.389-1.28A2.068,2.068,0,0,0,549.44,159.2Z" transform="translate(-468.931 -83.402)" fill="#ff9cbd"/>
        <path id="Path_34895" data-name="Path 34895" d="M552.609,157.211a4.609,4.609,0,0,1-1.182-6.4h0a4.6,4.6,0,1,1,2.2,6.894A4.925,4.925,0,0,1,552.609,157.211Zm-.68-6.057a3.989,3.989,0,1,0,5.545-.985,3.533,3.533,0,0,0-.877-.453,4,4,0,0,0-4.619,1.438Z" transform="translate(-468.949 -83.258)" fill="#263238"/>
        <path id="Path_34896" data-name="Path 34896" d="M543.835,152.709c-1.684-.857-2.117-3.388-.985-5.653a5.494,5.494,0,0,1,2.324-2.423,2.856,2.856,0,0,1,4.373,2.216,5.486,5.486,0,0,1-.591,3.309c-1.083,2.147-3.2,3.28-4.855,2.679Zm1.625-7.534a4.925,4.925,0,0,0-2.049,2.157c-.985,1.97-.68,4.127.7,4.836s3.319-.325,4.314-2.285a4.924,4.924,0,0,0,.532-2.955,2.462,2.462,0,0,0-1.231-1.891l-.217-.1A2.551,2.551,0,0,0,545.46,145.175Z" transform="translate(-468.822 -83.188)" fill="#263238"/>
        <path id="Path_34897" data-name="Path 34897" d="M551.293,151.358l.571-.236c-.354-.847-1.438-2.275-2.955-1.714l.207.581C550.476,149.477,551.264,151.279,551.293,151.358Z" transform="translate(-468.923 -83.265)" fill="#263238"/>
        <path id="Path_34898" data-name="Path 34898" d="M569.2,161.774h.64c0-.286-.059-2.827-1.182-3.644s-8.756-3.811-9.08-3.94l-.227.571c2.216.877,8.135,3.27,8.953,3.861S569.2,161.074,569.2,161.774Z" transform="translate(-469.081 -83.34)" fill="#263238"/>
        <path id="Path_34899" data-name="Path 34899" d="M564.577,156.43s4.984-3.989,6.894-2.068-2.866,8.421-5.83,8.637a2.837,2.837,0,0,1-3.211-2.541Z" transform="translate(-469.127 -83.334)" fill="#ad6359"/>
        <path id="Path_34900" data-name="Path 34900" d="M570.076,156.229v.079c-2.1.207-3.595,1.655-4.816,3.25a1.566,1.566,0,0,1,2.364.256s0,.108-.079.079a1.743,1.743,0,0,0-1.97.049,8.2,8.2,0,0,0-1.32,1.231.184.184,0,0,1-.3-.217h0C564.6,158.514,567.436,155.717,570.076,156.229Z" transform="translate(-469.15 -83.369)" fill="#263238"/>
        <path id="Path_34901" data-name="Path 34901" d="M555.738,194.791c-13.463-2.561-39.73-14.025-43.827-17.019-8.588-6.264-26.139-37.071-24.622-42.025.817-2.728,24.208-3.723,26.592-1.842s12.8,24.977,14.133,26.858,27.784,19.57,33.6,24.622C572.1,194.525,564.5,196.465,555.738,194.791Z" transform="translate(-467.99 -83.018)" fill="#ad6359"/>
        <path id="Path_34902" data-name="Path 34902" d="M512.264,141.806s4.924-8.864,7.879-14.773c1.635-3.309,3.94-9.248,4.018-12.232.138-4.462-2.167-23.214-6.727-22.751-4.127.414-.108,16.27-.108,16.27s-2.639-16.359-7.525-14.941,2.058,18.713,2.058,18.713-3.093-16.743-7.879-14.5c-3.624,1.7,1.773,17.728,1.773,17.728s-2.758-14.379-6.569-12.8c-4.205,1.753-.148,16.871-.148,16.871-8.992,5.673-12.6,9.642-11.819,16.743C487.287,137.305,512.264,141.806,512.264,141.806Z" transform="translate(-467.989 -82.4)" fill="#ad6359"/>
        <path id="Path_34903" data-name="Path 34903" d="M519.418,115.337c-.246-1.97-.473-3.94-.886-5.791s-.9-3.8-1.477-5.663A34.633,34.633,0,0,0,514.1,96.87c1.97,4.1,3.516,10.9,3.94,12.8s.926,3.782,1.339,5.683C519.359,115.405,519.418,115.386,519.418,115.337Z" transform="translate(-468.397 -82.473)" fill="#263238"/>
        <path id="Path_34904" data-name="Path 34904" d="M512.485,117.02c-.414-2.452-.739-4.924-1.261-7.347s-1.369-5.8-2.049-8.184c-.059-.177-.345-.177-.3,0,.591,2.4,1.29,5.909,1.852,8.3s1.221,4.806,1.694,7.239A.03.03,0,1,0,512.485,117.02Z" transform="translate(-468.318 -82.541)" fill="#263238"/>
        <path id="Path_34905" data-name="Path 34905" d="M506.776,119.569A55.146,55.146,0,0,0,504,108.489c-.059-.177-.148-.059-.1.128.985,3.674,1.8,6.54,2.758,10.972C506.657,119.657,506.785,119.647,506.776,119.569Z" transform="translate(-468.242 -82.647)" fill="#263238"/>
        <path id="Path_34906" data-name="Path 34906" d="M489.3,147.643l29.625-8.943s8.066,19.579,9.346,21.323,30,20.5,35.732,25.2,4.786,13.522-7.524,11.169c-10.617-2.029-39.4-13.788-44.773-17.383S489.3,147.643,489.3,147.643Z" transform="translate(-468.022 -83.105)" fill="#465a65"/>
        <path id="Path_34907" data-name="Path 34907" d="M550.935,175.989,539.915,191.52c-3.368-1.251-6.825-2.6-10.125-3.94l12.449-17.531C545.065,171.971,548.069,174.019,550.935,175.989Z" transform="translate(-468.634 -83.579)" fill="#37474f"/>
        <path id="Path_34908" data-name="Path 34908" d="M495.879,153.561c4.058-1.093,20.5-6.185,23.972-7.534.246-.089.246-.266,0-.2-12.242,2.955-20.062,6.293-23.992,7.574C495.741,153.433,495.78,153.591,495.879,153.561Z" transform="translate(-468.12 -83.213)" fill="#263238"/>
        <path id="Path_34909" data-name="Path 34909" d="M541.59,192.39a73.41,73.41,0,0,1,14.1,4.7,73.413,73.413,0,0,1-14.1-4.7Z" transform="translate(-468.812 -83.917)" fill="#263238"/>
        <path id="Path_34910" data-name="Path 34910" d="M550.79,195.51c1.074.591,2.551,1.32,3.565,1.97A4.816,4.816,0,0,1,550.79,195.51Z" transform="translate(-468.951 -83.964)" fill="#263238"/>
        <path id="Path_34911" data-name="Path 34911" d="M565.036,185.857a28.05,28.05,0,0,1-7.446-5.417A27.991,27.991,0,0,1,565.036,185.857Z" transform="translate(-469.054 -83.736)" fill="#263238"/>
      </g>
    </g>
  </g>
</svg>
