<svg xmlns="http://www.w3.org/2000/svg" width="25" height="26" viewBox="0 0 25 26">
  <g id="arrow_icon" transform="translate(0.221 0.224)">
    <rect id="Rectangle_3510" data-name="Rectangle 3510" width="25" height="26" transform="translate(-0.221 -0.224)" fill="none"/>
    <path id="Path_12460" data-name="Path 12460" d="M14.638,5.773h0a1.37,1.37,0,0,0,0,1.713l3.99,4.714H3.028A1.137,1.137,0,0,0,2,13.416H2a1.137,1.137,0,0,0,1.028,1.215h15.61l-3.99,4.714a1.37,1.37,0,0,0,0,1.713h0a.917.917,0,0,0,1.45,0l5.748-6.792a1.37,1.37,0,0,0,0-1.713l-5.759-6.78A.917.917,0,0,0,14.638,5.773Z" transform="translate(0 0)" fill="#fff"/>
  </g>
</svg>
