<svg xmlns="http://www.w3.org/2000/svg" width="576" height="576" viewBox="0 0 576 576">
  <g id="balanced_advantage" transform="translate(-17796 -5582)">
    <path id="Rectangle_8718" data-name="Rectangle 8718" d="M1,1V575H575V1H1M0,0H576V576H0Z" transform="translate(17796 5582)" fill="#707070" opacity="0"/>
    <g id="conservative_illustration" transform="translate(10261 6119.999)">
      <rect id="Rectangle_8307" data-name="Rectangle 8307" width="574" height="574" transform="translate(7536 -536.999)" fill="none"/>
      <g id="Warning-cuate" transform="translate(7536 -580.109)">
        <g id="freepik--Table--inject-16" transform="translate(1.444 561.698)">
          <path id="Path_27435" data-name="Path 27435" d="M51.69,441.532l71.559-.361,71.573-.115,143.146-.245,143.146.245,71.573.115,71.559.361-71.559.346-71.573.13-143.146.245-143.146-.245-71.573-.13Z" transform="translate(-51.69 -440.81)" fill="#263238"/>
        </g>
        <g id="freepik--character-2--inject-75" transform="translate(0 96.321)">
          <path id="Path_35305" data-name="Path 35305" d="M403.937,309.691C472.325,377.713,559.406,519.52,545.03,550.12,529.044,584.213,434.9,492.175,435.049,486.4c.11-4.371-35.41-93.281-62.188-157.774S387.018,292.864,403.937,309.691Z" transform="translate(-132.112 -115.143)" fill="#eb9481"/>
          <path id="Path_35306" data-name="Path 35306" d="M434.682,487.014c-3.146-9.511-51.323-126.607-65.224-163.682s-2.689-49.128,34.386-16.059,117.7,139.447,137.819,199.732c19.388,58.091-7.316,64.748-46.019,39.069C463.966,525.058,434.682,487.014,434.682,487.014Z" transform="translate(-132.367 -115.634)" fill="#465a65"/>
          <path id="Path_35307" data-name="Path 35307" d="M518,557.66a105.714,105.714,0,0,1-22.3-11.651c-31.734-21.016-61.017-59.06-61.017-59.06-3.146-9.511-51.323-126.607-65.224-163.682-7.847-20.888-7.7-33.819.53-35.228Z" transform="translate(-132.372 -115.569)" opacity="0.1"/>
          <path id="Path_35308" data-name="Path 35308" d="M522.871,585.958H269.84c.658-5.213,65.151-253.323,115.98-295.172,21.656-17.833,61.273-4.481,66.3-.329C500.9,330.659,526.584,582.922,522.871,585.958Z" transform="translate(-210.184 -120.784)" fill="#ebebeb"/>
          <path id="Path_35309" data-name="Path 35309" d="M357.98,331.151l10.078-20.321,17.3,17.6-4.243,15.218L365.3,345.454Z" transform="translate(-137.112 -96.675)" fill="#263238"/>
          <path id="Path_35310" data-name="Path 35310" d="M366.938,330.581,356,474.454l25.881,49.586,23.7-58.749L382.759,328.77Z" transform="translate(-138.753 -81.802)" fill="#263238"/>
          <path id="Path_35311" data-name="Path 35311" d="M522.871,581.862H269.84c.64-5.213,65.151-253.323,115.98-295.172,0,0,22.388,72.375,24.015,76.966s45.543,72.577,45.543,72.577,9.292-56.042,10.608-72.577c.439-5.487-8.359-64.474-9.785-73.382C502.312,340.647,526.474,578.917,522.871,581.862Z" transform="translate(-210.184 -116.688)" fill="#465a65"/>
          <path id="Path_35312" data-name="Path 35312" d="M373.079,368.45c0,47.464-1.463,97.58-3.969,145.044C369.2,465.938,370.555,415.877,373.079,368.45Z" transform="translate(-127.885 -48.905)" fill="#263238"/>
          <path id="Path_35313" data-name="Path 35313" d="M370.739,378.724a3.8,3.8,0,1,1-3.8-3.8,3.8,3.8,0,0,1,3.8,3.8Zm0,0a2.89,2.89,0,1,0-2.89,2.89A2.89,2.89,0,0,0,370.739,378.724Z" transform="translate(-132.842 -43.541)" fill="#263238"/>
          <path id="Path_35314" data-name="Path 35314" d="M369.88,397.735a3.8,3.8,0,1,1-3.8-3.541,3.8,3.8,0,0,1,3.8,3.541Zm0,0a2.89,2.89,0,1,0-1.37,2.694A2.89,2.89,0,0,0,369.88,397.735Z" transform="translate(-133.539 -27.562)" fill="#263238"/>
          <path id="Path_35315" data-name="Path 35315" d="M369.049,417.034a3.8,3.8,0,1,1-3.8-3.8,3.8,3.8,0,0,1,3.8,3.8Zm0,0a2.89,2.89,0,1,0-2.89,2.89,2.89,2.89,0,0,0,2.89-2.89Z" transform="translate(-134.243 -11.78)" fill="#263238"/>
          <path id="Path_35316" data-name="Path 35316" d="M368.2,436.2a3.8,3.8,0,1,1-3.8-3.8A3.8,3.8,0,0,1,368.2,436.2Zm0,0a2.89,2.89,0,1,0-2.89,2.89A2.89,2.89,0,0,0,368.2,436.2Z" transform="translate(-134.948 4.113)" fill="#263238"/>
          <path id="Path_35317" data-name="Path 35317" d="M380.666,309.691C312.278,377.713,225.2,519.52,239.573,550.12c15.931,34.094,110-57.944,110-63.724-.11-4.371,35.41-93.281,62.188-157.774S397.53,292.864,380.666,309.691Z" transform="translate(-236.582 -115.143)" fill="#eb9481"/>
          <path id="Path_35318" data-name="Path 35318" d="M350.764,487.014c3.146-9.511,51.323-126.607,65.224-163.682s2.689-49.128-34.386-16.059S263.829,446.72,243.71,507.006c-19.406,58.091,7.316,64.748,46.019,39.068C321.481,525.058,350.764,487.014,350.764,487.014Z" transform="translate(-237.224 -115.634)" fill="#465a65"/>
          <path id="Path_35319" data-name="Path 35319" d="M295.93,464.878c4.1-11.121,8.359-22.168,12.639-33.216s8.706-21.949,13.059-33.033l13.407-32.923,6.822-16.461c2.341-5.487,4.609-10.974,6.987-16.315-2.03,5.579-4.152,11.1-6.237,16.644l-6.4,16.571-13.06,33.033c-4.463,10.974-8.871,21.949-13.407,32.923S300.649,454.031,295.93,464.878Z" transform="translate(-188.554 -78.353)" fill="#263238"/>
          <path id="Path_35320" data-name="Path 35320" d="M319.5,354.047a65.634,65.634,0,0,1,4.7-8.011c.878-1.262,1.829-2.524,2.67-3.768s1.829-2.433,2.835-3.658a42.615,42.615,0,0,1-4.481,8.176,55.969,55.969,0,0,1-5.725,7.261Z" transform="translate(-169.014 -73.644)" fill="#263238"/>
          <path id="Path_35321" data-name="Path 35321" d="M548.906,472.163c-18.071,18.711-53.408,16.7-156.475,20.412-14.248.512-47.756-101.238-32.557-102.573,19.15-1.683,93.812-4.042,99.281-3.53C505.393,390.825,561.143,459.47,548.906,472.163Z" transform="translate(-138.75 -34.023)" fill="#eb9481"/>
          <path id="Path_35322" data-name="Path 35322" d="M548.906,472.163c-18.071,18.711-53.408,16.7-156.475,20.412-14.248.512-47.756-101.238-32.557-102.573,19.15-1.683,93.812-4.042,99.281-3.53C505.393,390.825,561.143,459.47,548.906,472.163Z" transform="translate(-138.75 -34.023)" opacity="0.1"/>
          <path id="Path_35323" data-name="Path 35323" d="M463.048,397.239s-38.1-8.267-63.267-12.492c-14.047-2.359-38.41-4.28-49.586-1.28-16.626,4.445-83.258,33.728-76.509,50.025,6.109,14.779,60.176-17.65,60.176-17.65s-57.45,27.893-46.824,44.318,66.833-28.314,66.833-28.314-58.383,29.978-44.757,45.178c10.316,11.486,63.5-26.174,63.5-26.174s-49.988,26.119-39.91,38.41c11.157,13.572,62.444-18.108,62.444-18.108,30.893,26.869,56.591,27.033,74.991,24.985C474.407,495.605,463.048,397.239,463.048,397.239Z" transform="translate(-207.392 -37.729)" fill="#eb9481"/>
          <path id="Path_35324" data-name="Path 35324" d="M463.048,397.239s-38.1-8.267-63.267-12.492c-14.047-2.359-38.41-4.28-49.586-1.28-16.626,4.445-83.258,33.728-76.509,50.025,6.109,14.779,60.176-17.65,60.176-17.65s-57.45,27.893-46.824,44.318,66.833-28.314,66.833-28.314-58.383,29.978-44.757,45.178c10.316,11.486,63.5-26.174,63.5-26.174s-49.988,26.119-39.91,38.41c11.157,13.572,62.444-18.108,62.444-18.108,30.893,26.869,56.591,27.033,74.991,24.985C474.407,495.605,463.048,397.239,463.048,397.239Z" transform="translate(-207.392 -37.729)" opacity="0.1"/>
          <path id="Path_35325" data-name="Path 35325" d="M345.066,394.517c-6.859,3.018-13.846,6.036-20.412,9.676s-13.023,7.5-19.223,11.724c-15.236,10.371-23.137,19.242-22.589,18.748,12.968-11.706,36.288-25.076,42.873-28.7s12.931-7.591,19.5-11.212A.14.14,0,0,0,345.066,394.517Z" transform="translate(-199.427 -27.306)" fill="#263238"/>
          <path id="Path_35326" data-name="Path 35326" d="M346.912,407.355c-8.615,4.262-17.3,8.158-25.716,12.8s-15.913,9.712-23.961,14.888c-.6.4-.2.6.439.238,8.249-4.865,16.224-8.706,24.509-13.462s16.461-9.822,24.838-14.248A.123.123,0,0,0,346.912,407.355Z" transform="translate(-187.719 -16.659)" fill="#263238"/>
          <path id="Path_35327" data-name="Path 35327" d="M349.84,417.25c-13.462,5.816-25.863,14.12-37.806,22.552-.6.421,0,.622.6.219,12.419-7.737,22.131-13.883,37.4-22.314C350.3,417.579,350.132,417.122,349.84,417.25Z" transform="translate(-175.411 -8.466)" fill="#263238"/>
          <path id="Path_35328" data-name="Path 35328" d="M364.61,387.362,436.656,498.77s89.623-4.792,106.3-25.424c10.974-13.59-43.9-86.2-95.422-87.136Z" transform="translate(-131.615 -34.181)" fill="#465a65"/>
          <path id="Path_35329" data-name="Path 35329" d="M467.635,411.63c-7.188-7.17-27.856-24.491-57.578-25.46a.22.22,0,1,0,0,.439c22.058,2.853,49.9,19.059,57.4,25.369C467.58,412.142,467.817,411.813,467.635,411.63Z" transform="translate(-94.132 -34.214)" fill="#263238"/>
          <path id="Path_35330" data-name="Path 35330" d="M446.65,483.577c-7.316-12.675-15.218-24.948-23.192-37.185s-15.931-24.546-24.217-36.581c-4.682-6.822-9.328-13.663-14.248-20.321-.128-.165-.457,0-.329.2,7.316,12.657,15.145,24.967,23.028,37.258s16.022,24.528,24.07,36.691c4.609,6.859,9.328,13.663,14.248,20.3C446.247,484.272,446.869,483.961,446.65,483.577Z" transform="translate(-115.014 -31.517)" fill="#263238"/>
          <path id="Path_35331" data-name="Path 35331" d="M365.008,386.887a122.666,122.666,0,0,1,17.01-1.134c5.688-.165,11.377-.22,17.065-.238,11.322,0,35.319-1.353,55.695,1.939.219,0-1.116.951-1.335.9-9.621-2.049-81.374.75-87.154.238a10.288,10.288,0,0,1,.439,1.262c0,.311-.274.622-.531.366-.64-.585-1.061-1.262-1.646-1.829a.823.823,0,0,1,.457-1.5Z" transform="translate(-131.958 -34.986)" fill="#263238"/>
          <path id="Path_35332" data-name="Path 35332" d="M499.366,438.82a73.869,73.869,0,0,1-11.322,3.2c-3.823.841-7.682,1.536-11.541,2.232q-11.6,1.939-23.284,3.658c-15.547,2.268-31.094,4.39-46.714,6.914l.329.146L401,447.545l5.359,7.828.091.146h.219c7.9-.238,15.766-.823,23.613-1.555s15.693-1.719,23.5-2.908,15.583-2.6,23.284-4.408c3.859-.914,7.682-1.939,11.468-3.146a53.771,53.771,0,0,0,10.828-4.682Z" transform="translate(-101.446 9.435)" fill="#263238"/>
          <path id="Path_35333" data-name="Path 35333" d="M391.479,350.042c-14.157,5.012-41.5-14.468-53.317-31.387-.8-1.152-.329-14.358-.494-30.435-.165-9.749-.549-20.613-1.628-30.49-.238-2.03,63.614,8.3,63.614,8.3s-3.841,21.382-1.829,38.593a22.154,22.154,0,0,0,.878,4.006,4.3,4.3,0,0,0,.165.658C400.917,316.863,405.142,345.177,391.479,350.042Z" transform="translate(-155.302 -140.917)" fill="#eb9481"/>
          <path id="Path_35334" data-name="Path 35334" d="M338.14,257.52c4.682,16.461,19.479,55.621,52.622,52.768a38.56,38.56,0,0,0,6.31-1.024,2.823,2.823,0,0,0-.165-.677,25.976,25.976,0,0,1-.878-3.987c-1.975-17.248,1.829-38.629,1.829-38.629S351.858,258.526,338.14,257.52Z" transform="translate(-153.56 -140.871)" fill="#263238"/>
          <path id="Path_35335" data-name="Path 35335" d="M328.079,232.66c-5.853,22.351,8.359,85.691,24.637,99.3,23.595,19.7,60.962,20.12,77.387-7.9,15.913-27.2-4.079-109.414-22.131-121.65C381.359,184.41,336.73,199.646,328.079,232.66Z" transform="translate(-163.015 -192.905)" fill="#eb9481"/>
          <path id="Path_35336" data-name="Path 35336" d="M359.219,235.753c0-.146-.293.293-.238.457,1.1,4.243,1.628,9.273-1.829,11.56-.11,0,0,.274,0,.219C361.725,246.27,360.938,239.594,359.219,235.753Z" transform="translate(-137.839 -158.941)" fill="#263238"/>
          <path id="Path_35337" data-name="Path 35337" d="M357.519,233.8c-6.987,1.024-4.426,14.907,2.049,13.956S363.372,232.938,357.519,233.8Z" transform="translate(-140.95 -160.57)" fill="#263238"/>
          <path id="Path_35338" data-name="Path 35338" d="M371.831,233.464c0-.183.366.146.4.311.658,4.335,2.14,9.145,6.292,9.877.128,0,.146.238,0,.256C373.66,244.109,371.758,237.653,371.831,233.464Z" transform="translate(-125.63 -160.859)" fill="#263238"/>
          <path id="Path_35339" data-name="Path 35339" d="M374.832,230.676c6.822-1.829,9.932,11.962,3.658,13.626S369.126,232.175,374.832,230.676Z" transform="translate(-125.632 -163.265)" fill="#263238"/>
          <path id="Path_35340" data-name="Path 35340" d="M352.928,235.573a54.744,54.744,0,0,0,5.725-.878,9.4,9.4,0,0,0,5.67-2.03,3,3,0,0,0,.183-3.658c-1.829-2.231-4.536-2.451-7.188-2.122a10.974,10.974,0,0,0-7.024,3.475,3.182,3.182,0,0,0,2.634,5.213Z" transform="translate(-144.095 -166.37)" fill="#263238"/>
          <path id="Path_35341" data-name="Path 35341" d="M381.595,228.189a51.19,51.19,0,0,1-5.78-.4A9.42,9.42,0,0,1,370,226.232a2.963,2.963,0,0,1-.475-3.658c1.536-2.378,4.317-2.817,6.987-2.707a10.755,10.755,0,0,1,7.316,2.89,3.183,3.183,0,0,1-2.231,5.432Z" transform="translate(-127.895 -172.1)" fill="#263238"/>
          <path id="Path_35342" data-name="Path 35342" d="M359.8,257.86c1.207.823,2.506,2.012,4.079,1.829a11.834,11.834,0,0,0,4.426-1.939c.128,0,.293,0,.22.183a5.889,5.889,0,0,1-5.012,3.347,4.7,4.7,0,0,1-4.1-3.182C359.311,257.9,359.621,257.75,359.8,257.86Z" transform="translate(-135.937 -140.681)" fill="#263238"/>
          <path id="Path_35343" data-name="Path 35343" d="M360.852,273.029a14.907,14.907,0,0,0,10.974,4.7,18.289,18.289,0,0,0,5.322-.732,5.487,5.487,0,0,0,.969-.293,6.933,6.933,0,0,0,.914-.329,1.079,1.079,0,0,0,.7-1.116h0a1.824,1.824,0,0,0-.11-.421h0l-.091-.384c-.512-3.311-1.829-8.286-1.829-8.286,1.335.366,8.011,2.012,7.591.293-3.493-14.157-7.316-29.9-13.846-43.257a.4.4,0,0,0-.768.256c2.817,13.755,8.03,26.905,11.084,40.66a25.608,25.608,0,0,0-7.316-.823c-.457.219,2.579,9.566,2.689,11.084a.386.386,0,0,1,0,.165c-5.487,1.738-9.932.823-16.023-1.92C360.816,272.444,360.541,272.736,360.852,273.029Z" transform="translate(-134.845 -169.549)" fill="#263238"/>
          <path id="Path_35344" data-name="Path 35344" d="M375.174,253.03a17.8,17.8,0,0,1-5.963,6.676,7.92,7.92,0,0,1-4.7,1.171c-3.658-.274-4.262-3.4-4.134-6.219a19.287,19.287,0,0,1,.786-4.408,22.844,22.844,0,0,0,14.01,2.78Z" transform="translate(-135.138 -146.899)" fill="#263238"/>
          <path id="Path_35345" data-name="Path 35345" d="M369.211,257.722a7.919,7.919,0,0,1-4.7,1.171c-3.658-.274-4.262-3.4-4.134-6.219C364.127,252.381,368.242,254.21,369.211,257.722Z" transform="translate(-135.138 -144.914)" fill="#ff98b9"/>
          <path id="Path_35346" data-name="Path 35346" d="M334.949,292.377c9.95.311,14.76-15.456,15.73-21.857s-7.59-32.118-5.194-41.922,10.974-17.028,19.132-16.626,20.613,8.048,26.137,6.146,3.9-14.486,7.847-15.437c8.67-2.122,21.949,16.461,25.863,25.5,0,0-5.633-40.349-51.067-33.691-41.428,6.054-47.665,37.276-48.214,50.354C324.14,269.88,334.949,292.377,334.949,292.377Z" transform="translate(-164.362 -193.744)" fill="#263238"/>
          <path id="Path_35347" data-name="Path 35347" d="M365.08,267.669a19.333,19.333,0,1,1,16.37-25.79h0a19.315,19.315,0,0,1-16.37,25.79Zm-3.42-35.941A16.754,16.754,0,1,0,379.018,242.7a16.754,16.754,0,0,0-17.358-10.974Z" transform="translate(-148.766 -164.445)" fill="#ebebeb"/>
          <path id="Path_35348" data-name="Path 35348" d="M387.119,262.329c-7.316.7-14.76-6.2-16.882-16.077a23.082,23.082,0,0,1,1.134-14.084,12.072,12.072,0,0,1,20.12-4.335,23.155,23.155,0,0,1,6.841,12.364c2.231,10.426-2.25,20.266-10,21.949a10.051,10.051,0,0,1-1.207.183ZM381.76,226.7a5.628,5.628,0,0,0-.969.146,10.243,10.243,0,0,0-7.042,6.383,20.394,20.394,0,0,0-.988,12.474c1.939,9.036,8.688,15.291,15.071,13.9s9.968-9.84,8.03-18.857a20.65,20.65,0,0,0-6.036-10.974,10.718,10.718,0,0,0-8.066-3.164Z" transform="translate(-127.457 -168.58)" fill="#ebebeb"/>
          <path id="Path_35349" data-name="Path 35349" d="M365.27,240.451l-2.03-1.573c2.341-3.036,8.286-7.7,13.956-3.75l-1.463,2.122C370.648,233.7,365.49,240.176,365.27,240.451Z" transform="translate(-132.751 -160.694)" fill="#ebebeb"/>
          <path id="Path_35350" data-name="Path 35350" d="M322.607,259.041l-2.487-.677c.311-1.171,3.237-11.432,8.688-13.572,5.085-1.975,34.88-5.908,36.343-6.072l.311,2.561c-9.913,1.171-31.789,4.39-35.721,5.926C326.156,248.615,323.376,256.224,322.607,259.041Z" transform="translate(-168.5 -156.458)" fill="#ebebeb"/>
          <path id="Path_35351" data-name="Path 35351" d="M348.645,250.438s-15.657-19.735-24.692-14.029,3.658,34.917,14.815,38.41a11.157,11.157,0,0,0,14.632-6.9Z" transform="translate(-167.87 -159.232)" fill="#eb9481"/>
          <path id="Path_35352" data-name="Path 35352" d="M324.709,240.47c-.165,0-.183.238,0,.293,7.883,2.652,12.364,9.548,15.657,16.772-2.469-2.707-5.67-4.079-9.328-1.116-.183.146,0,.457.238.384a6.859,6.859,0,0,1,7.7,1.957,33.322,33.322,0,0,1,3.987,5.89c.4.658,1.628.219,1.317-.549v-.183C343.768,254.1,335.318,240.818,324.709,240.47Z" transform="translate(-164.803 -155.007)" fill="#263238"/>
          <path id="Path_35353" data-name="Path 35353" d="M404.128,290.028,389.5,327.4,342.854,280.59l-13,15.218s45.818,74.57,46.092,71.187l15.126-32.228L413.4,356.953l-2.213-56.079Z" transform="translate(-160.433 -121.745)" fill="#ebebeb"/>
          <path id="Path_35354" data-name="Path 35354" d="M414.323,322.268c-.677-9.255-1.1-18.583-2.195-27.783a.321.321,0,0,0-.64,0c-1.829,8.944.988,44.3,1.006,52.786h-.11c-.933-.969-20.687-19.516-20.869-19.223-3.292,5.121-14.395,28.588-15.163,30.728-7.316-11.852-37.989-58.53-46.531-69.723a.329.329,0,0,0-.567.329c6.42,12.511,46.147,74.131,46.7,73.967.384.293,14.193-28.625,15.821-34.075,3.347,4.042,23.3,25,23.375,23.631a291.674,291.674,0,0,0-.823-30.637Z" transform="translate(-160.953 -114.844)" fill="#263238"/>
          <path id="Path_35355" data-name="Path 35355" d="M241.978,473.258c18.089,18.693,53.445,16.626,156.494,20.248,14.267.494,47.665-101.293,32.466-102.61-19.15-1.664-93.812-3.951-99.3-3.42C285.51,391.865,229.724,460.564,241.978,473.258Z" transform="translate(-234.707 -33.197)" fill="#eb9481"/>
          <path id="Path_35356" data-name="Path 35356" d="M329.269,398.244s38.1-8.3,63.248-12.566c14.047-2.378,38.41-4.3,49.586-1.335,16.626,4.445,83.295,33.654,76.564,49.97-6.091,14.76-60.194-17.6-60.194-17.6s57.487,27.82,46.878,44.263-66.87-28.241-66.87-28.241,58.4,29.9,44.793,45.123c-10.3,11.5-63.541-26.1-63.541-26.1s50.043,26.064,39.965,38.41c-11.139,13.572-62.462-18.053-62.462-18.053-30.856,26.905-56.573,27.107-74.881,25.058C317.928,496.629,329.269,398.244,329.269,398.244Z" transform="translate(-167.497 -36.979)" fill="#eb9481"/>
          <path id="Path_35357" data-name="Path 35357" d="M385.879,395.406c6.877,3.036,13.846,6.036,20.431,9.676s13.023,7.481,19.242,11.688c15.236,10.352,23.156,19.223,22.607,18.729-12.986-11.688-36.325-25.021-42.909-28.661s-12.95-7.554-19.516-11.176C385.568,395.571,385.714,395.333,385.879,395.406Z" transform="translate(-114.163 -26.568)" fill="#263238"/>
          <path id="Path_35358" data-name="Path 35358" d="M378.469,408.267c8.6,4.243,17.3,8.139,25.716,12.8s15.931,9.712,23.979,14.87c.6.4.2.6-.439.22-8.249-4.829-16.242-8.67-24.528-13.407s-16.461-9.822-24.838-14.23C378.213,408.4,378.341,408.194,378.469,408.267Z" transform="translate(-120.27 -15.907)" fill="#263238"/>
          <path id="Path_35359" data-name="Path 35359" d="M370.2,418.16c13.48,5.816,25.881,14.1,37.843,22.516.6.421,0,.622-.6.238-12.438-7.737-22.15-13.882-37.441-22.278C369.764,418.489,369.929,418.032,370.2,418.16Z" transform="translate(-127.24 -7.711)" fill="#263238"/>
          <path id="Path_35360" data-name="Path 35360" d="M419.457,388.271,347.484,499.751s-89.624-4.7-106.323-25.314c-10.974-13.59,43.9-86.258,95.33-87.227Z" transform="translate(-235.133 -33.352)" fill="#465a65"/>
          <path id="Path_35361" data-name="Path 35361" d="M261.24,412.727c7.17-7.17,27.838-24.528,57.56-25.607a.219.219,0,1,1,0,.439c-22.077,2.89-49.878,19.114-57.377,25.424C261.3,413.221,261.057,412.91,261.24,412.727Z" transform="translate(-217.369 -33.426)" fill="#263238"/>
          <path id="Path_35362" data-name="Path 35362" d="M284.166,484.607c7.316-12.694,15.181-24.966,23.156-37.221s15.913-24.564,24.18-36.581c4.682-6.822,9.31-13.663,14.23-20.321.128-.183.439,0,.329.2-7.316,12.657-15.126,24.985-22.991,37.276s-15.913,24.564-24.034,36.727c-4.609,6.877-9.328,13.681-14.23,20.339C284.569,485.3,283.91,484.973,284.166,484.607Z" transform="translate(-198.355 -30.7)" fill="#263238"/>
          <path id="Path_35363" data-name="Path 35363" d="M378.694,387.794a125.436,125.436,0,0,0-16.992-1.1c-5.688-.165-11.395-.22-17.083-.22-11.322,0-35.3-1.317-55.676,1.994-.238,0,1.1.951,1.317.9,9.621-2.067,81.374.658,87.154.146a10.208,10.208,0,0,0-.421,1.262c0,.293.256.622.53.366.64-.585,1.043-1.28,1.646-1.829a.841.841,0,0,0-.475-1.518Z" transform="translate(-194.371 -34.174)" fill="#263238"/>
          <path id="Path_35364" data-name="Path 35364" d="M247.9,439.86a73.874,73.874,0,0,0,11.322,3.2c3.823.841,7.682,1.518,11.56,2.213q11.6,1.939,23.266,3.658c15.565,2.25,31.094,4.371,46.714,6.877l-.311.146,5.908-7.426-5.341,7.847-.091.146h-.22c-7.9-.238-15.766-.8-23.631-1.536s-15.675-1.7-23.485-2.89-15.6-2.561-23.3-4.39c-3.859-.9-7.682-1.921-11.468-3.128a52.709,52.709,0,0,1-10.92-4.719Z" transform="translate(-228.374 10.298)" fill="#263238"/>
          <path id="Path_35365" data-name="Path 35365" d="M334.525,292.47c-.567,15.6-1.482,32.722-2.433,48.36l-.53-1.171,13.352,9.785,13.3,9.84.86.64c-1.829,9-3.493,18-5.4,26.96l-.6-1.738c17.98,15.053,35.758,30.381,53.042,46.293-18.857-13.992-37.148-28.643-55.329-43.531l-.8-.677c1.719-8.981,3.658-17.943,5.487-26.905l.658,1.738-13.133-10.1L329.934,341.8l-.6-.457v-.713c1.518-15.62,3.237-32.649,5.121-48.159Z" transform="translate(-160.864 -111.896)" fill="#263238"/>
          <path id="Path_35366" data-name="Path 35366" d="M376.573,294.48c6.53,15.4,12.657,30.966,18.638,46.586l.256.658-.366.658-7.609,13.608v-1.646l4.353,9.017c1.591,3.237,3.073,6.511,4.628,9.767l-.293.732c-7.865,18.839-16.022,37.55-24.93,55.914,6.6-19.315,13.956-38.41,21.619-57.268v1.445c-2.707-5.487-6.328-13.279-8.981-18.949l.457-.768,7.956-13.407-.11,1.3c-5.487-15.8-10.791-31.661-15.712-47.555Z" transform="translate(-126.11 -110.23)" fill="#263238"/>
        </g>
        <g id="freepik--Books--inject-75" transform="translate(251.615 247.541)">
          <path id="Path_35288" data-name="Path 35288" d="M623.639,301.69c0,15.3-18.21,29.408-39.44,29.408S544.78,317.419,544.78,301.69Z" transform="translate(-542.515 -136.463)" fill="#00a0ad"/>
          <path id="Path_35289" data-name="Path 35289" d="M623.639,301.69c0,15.3-18.21,29.408-39.44,29.408S544.78,317.419,544.78,301.69Z" transform="translate(-542.515 -136.463)" opacity="0.1"/>
          <rect id="Rectangle_9782" data-name="Rectangle 9782" width="83.347" height="5.351" transform="translate(0 159.876)" fill="#00a0ad"/>
          <path id="Path_35291" data-name="Path 35291" d="M734.419,324c0,15.3-18.21,29.429-39.441,29.429S655.56,339.75,655.56,324Z" transform="translate(-414.278 -158.104)" fill="#00a0ad"/>
          <path id="Path_35292" data-name="Path 35292" d="M734.419,324c0,15.3-18.21,29.429-39.441,29.429S655.56,339.75,655.56,324Z" transform="translate(-414.278 -158.104)" opacity="0.1"/>
          <rect id="Rectangle_9783" data-name="Rectangle 9783" width="83.347" height="5.351" transform="translate(239.038 160.567)" fill="#00a0ad"/>
          <path id="Path_35294" data-name="Path 35294" d="M248.479,64.223c-6.581-.777-10.249-5.07-17.455-8.954-10.464-5.631-51.307-15.1-69.388-17.39-7.163-.885-23.129,2.46-33.7.345s-23.992-11.37-30.961-13.312c-17.519-4.941-58.88-11.867-70.747-10.788-8.112.82-13.14,3.366-19.526,1.532C-3.677,12.765-1.929-2.36,11.448.316S28.126,6.379,45.753,9.593c7.616,1.4,53.81,5.221,66.626,7.789a74.116,74.116,0,0,1,18.6,5.653A74.136,74.136,0,0,1,150.4,24.977c12.838,2.568,56.9,16.851,64.49,18.512,17.476,3.819,21.9,1.963,35.233,4.639S259.18,65.539,248.479,64.223Z" transform="matrix(0.985, -0.174, 0.174, 0.985, 27.005, 63.218)" fill="#00a0ad"/>
          <path id="Path_35295" data-name="Path 35295" d="M248.479,64.223c-6.581-.777-10.249-5.07-17.455-8.954-10.464-5.631-51.307-15.1-69.388-17.39-7.163-.885-23.129,2.46-33.7.345s-23.992-11.37-30.961-13.312c-17.519-4.941-58.88-11.867-70.747-10.788-8.112.82-13.14,3.366-19.526,1.532C-3.677,12.765-1.929-2.36,11.448.316S28.126,6.379,45.753,9.593c7.616,1.4,53.81,5.221,66.626,7.789a74.116,74.116,0,0,1,18.6,5.653A74.136,74.136,0,0,1,150.4,24.977c12.838,2.568,56.9,16.851,64.49,18.512,17.476,3.819,21.9,1.963,35.233,4.639S259.18,65.539,248.479,64.223Z" transform="matrix(0.985, -0.174, 0.174, 0.985, 27.005, 63.218)" opacity="0.1"/>
          <rect id="Rectangle_9784" data-name="Rectangle 9784" width="168.269" height="28.911" transform="translate(75.947 282.685)" fill="#00a0ad"/>
          <rect id="Rectangle_9785" data-name="Rectangle 9785" width="168.269" height="28.911" transform="translate(75.947 282.685)" opacity="0.1"/>
          <rect id="Rectangle_9786" data-name="Rectangle 9786" width="150.814" height="7.12" transform="translate(84.663 275.565)" fill="#00a0ad"/>
          <rect id="Rectangle_9787" data-name="Rectangle 9787" width="150.814" height="7.12" transform="translate(84.663 275.565)" opacity="0.3"/>
          <path id="Path_35296" data-name="Path 35296" d="M635.725,473.231H614.99s-4.315-18.08-3.344-47.467S621.4,269.34,621.4,269.34h7.94s8.63,126.995,9.752,156.424S635.725,473.231,635.725,473.231Z" transform="translate(-465.276 -197.644)" fill="#00a0ad"/>
          <path id="Path_35297" data-name="Path 35297" d="M635.725,473.231H614.99s-4.315-18.08-3.344-47.467S621.4,269.34,621.4,269.34h7.94s8.63,126.995,9.752,156.424S635.725,473.231,635.725,473.231Z" transform="translate(-465.276 -197.644)" opacity="0.1"/>
          <path id="Path_35298" data-name="Path 35298" d="M627.887,284.191c0,10.68-2.654,13.614-2.654,13.614H617.6s-2.675-2.934-2.675-13.614,5.027-44.381,5.027-44.381h2.891S627.887,273.511,627.887,284.191Z" transform="translate(-461.322 -231.827)" fill="#00a0ad"/>
          <path id="Path_35299" data-name="Path 35299" d="M627.887,284.191c0,10.68-2.654,13.614-2.654,13.614H617.6s-2.675-2.934-2.675-13.614,5.027-44.381,5.027-44.381h2.891S627.887,273.511,627.887,284.191Z" transform="translate(-461.322 -231.827)" opacity="0.1"/>
          <path id="Path_35300" data-name="Path 35300" d="M633.279,274.05a9.99,9.99,0,1,1-9.99-9.99,9.99,9.99,0,0,1,9.99,9.99Z" transform="translate(-463.198 -203.756)" fill="#37474f"/>
          <path id="Path_35301" data-name="Path 35301" d="M630.186,244.093a7.961,7.961,0,1,1-2.324-5.644,7.983,7.983,0,0,1,2.324,5.644Z" transform="translate(-462.133 -236.11)" fill="#37474f"/>
          <g id="Group_18950" data-name="Group 18950" transform="translate(2.293 89.741)">
            <path id="Path_35761" data-name="Path 35761" d="M295.259,61.41,256.14,129.165h78.239Z" transform="translate(-256.14 -61.41)" fill="#e27e2b"/>
            <path id="Path_35762" data-name="Path 35762" d="M307.116,84.91,276.5,137.942h61.235Z" transform="translate(-267.996 -75.095)" fill="#fff"/>
            <path id="Path_35763" data-name="Path 35763" d="M81.44,91.57h5.491l-.37,20.246h-4.75Z" transform="translate(-45.064 -62.188)" fill="#e27e2b"/>
            <rect id="Rectangle_9836" data-name="Rectangle 9836" width="4.75" height="4.751" transform="translate(36.746 52.162)" fill="#e27e2b"/>
          </g>
          <path id="Path_35290" data-name="Path 35290" d="M612.218,345.783c-9.472-22.978-23.733-59.355-32.8-82.765h1.51c-4.013,10.356-12.126,31.134-16.182,41.469s-12.384,31.026-16.592,41.3c6.732-18.663,16.247-44.036,23.323-62.57.216-.6,8.825-23.021,8.63-22.762l.755,1.963c8.976,23.582,22.87,59.873,31.285,83.347Z" transform="translate(-538.602 -184.202)" fill="#dbdbdb"/>
          <path id="Path_35764" data-name="Path 35764" d="M35.386,27.008H19.129L6,7.274a9.345,9.345,0,0,0-3.086-3.26,8.37,8.37,0,0,0-4.3-1H-13.818V-7.5H4.438q8.172,0,10.084-5.911h-28.34v-8H14.348q-2-5.477-9.91-5.477H-13.818v-8H35.3v8H24.954a16.321,16.321,0,0,1,2.521,5.477H35.3v8H27.823A17.034,17.034,0,0,1,23.3-3.592a19.042,19.042,0,0,1-9.736,5.3,13.6,13.6,0,0,1,5.086,2.173,15.892,15.892,0,0,1,4.042,4.347Z" transform="translate(267.83 131.508)" fill="#e27e2b"/>
          <path id="Path_35293" data-name="Path 35293" d="M723,368.123c-9.45-22.957-23.733-59.333-32.773-82.743h1.51c-4.013,10.335-12.147,31.112-16.2,41.447s-12.384,31.048-16.592,41.3c6.753-18.642,16.246-44.036,23.345-62.57.194-.6,8.8-23,8.63-22.762l.755,1.985c8.975,23.561,22.849,59.851,31.263,83.326Z" transform="translate(-410.366 -205.809)" fill="#dbdbdb"/>
        </g>
      </g>
    </g>
  </g>
</svg>
