<svg xmlns="http://www.w3.org/2000/svg" width="26" height="26.02" viewBox="0 0 26 26.02">
  <g id="button_icons" transform="translate(-43 -19.996)">
    <g id="add_to_cart" transform="translate(43.221 20.22)">
      <rect id="Rectangle_3510" data-name="Rectangle 3510" width="26" height="26" transform="translate(-0.221 -0.224)" fill="none"/>
      <g id="east_black_24dp_1_" data-name="east_black_24dp (1)" transform="translate(0 -7)">
        <rect id="Rectangle_3510-2" data-name="Rectangle 3510" width="26" height="26" transform="translate(-0.221 6.795)" fill="none"/>
        <g id="shopping-cart-add" transform="translate(2.779 9.795)">
          <circle id="Ellipse_1005" data-name="Ellipse 1005" cx="1.5" cy="1.5" r="1.5" transform="translate(5 17)" fill="#fff"/>
          <circle id="Ellipse_1006" data-name="Ellipse 1006" cx="1.5" cy="1.5" r="1.5" transform="translate(13 17)" fill="#fff"/>
          <path id="Path_34660" data-name="Path 34660" d="M21.833,2.5H20.167V.833a.833.833,0,1,0-1.667,0V2.5H16.833a.833.833,0,0,0,0,1.667H18.5V5.833a.833.833,0,1,0,1.667,0V4.167h1.667a.833.833,0,1,0,0-1.667Z" transform="translate(-2.667 0)" fill="#fff"/>
          <path id="Path_34661" data-name="Path 34661" d="M18.142,8.1a.828.828,0,0,0-.968.672,2.5,2.5,0,0,1-2.46,2.057H4.515L3.732,4.167h7.1a.833.833,0,0,0,0-1.667h-7.3L3.5,2.207A2.5,2.5,0,0,0,1.018,0H.833a.833.833,0,0,0,0,1.667h.185a.833.833,0,0,1,.827.736l1.147,9.75a4.167,4.167,0,0,0,4.138,3.681h8.7a.833.833,0,0,0,0-1.667h-8.7A2.5,2.5,0,0,1,4.773,12.5h9.941a4.167,4.167,0,0,0,4.1-3.427.833.833,0,0,0-.673-.968Z" fill="#fff"/>
        </g>
      </g>
    </g>
    <g id="add_to_cart-2" data-name="add_to_cart" transform="translate(43.221 20.22)" opacity="0">
      <rect id="Rectangle_3510-3" data-name="Rectangle 3510" width="26" height="26" transform="translate(-0.221 -0.224)" fill="none"/>
      <g id="east_black_24dp_1_2" data-name="east_black_24dp (1)" transform="translate(0 -7)">
        <rect id="Rectangle_3510-4" data-name="Rectangle 3510" width="26" height="26" transform="translate(-0.221 6.795)" fill="none"/>
        <g id="tick_mark_icon" transform="translate(-20420.221 7933.788)">
          <path id="Rectangle_9670" data-name="Rectangle 9670" d="M10,1.8A8.2,8.2,0,1,0,18.2,10,8.209,8.209,0,0,0,10,1.8M10,0A10,10,0,1,1,0,10,10,10,0,0,1,10,0Z" transform="translate(20423 -7924)" fill="#fff"/>
          <path id="Union_29" data-name="Union 29" d="M2.938,8.445.266,5.773A.9.9,0,1,1,1.54,4.5L4.211,7.172a.1.1,0,0,0,.142,0L11.263.265a.9.9,0,1,1,1.274,1.273L5.628,8.445a1.9,1.9,0,0,1-2.69,0Z" transform="translate(20426.6 -7918.4)" fill="#fff"/>
        </g>
      </g>
    </g>
  </g>
</svg>
