<svg id="Group_18762" data-name="Group 18762" xmlns="http://www.w3.org/2000/svg" width="128" height="128" viewBox="0 0 128 128">
  <g id="image_black_24dp">
    <path id="Path_33068" data-name="Path 33068" d="M0,0H128V128H0Z" fill="none"/>
    <path id="Path_33069" data-name="Path 33069" d="M99,88.333V13.667A10.7,10.7,0,0,0,88.333,3H13.667A10.7,10.7,0,0,0,3,13.667V88.333A10.7,10.7,0,0,0,13.667,99H88.333A10.7,10.7,0,0,0,99,88.333ZM34.467,61.56l11.2,13.493L62.2,53.773a2.677,2.677,0,0,1,4.267.053l18.72,24.96a2.665,2.665,0,0,1-2.133,4.267H19.107a2.657,2.657,0,0,1-2.08-4.32l13.28-17.067A2.631,2.631,0,0,1,34.467,61.56Z" transform="translate(13 13)" fill="#b7c1c7"/>
  </g>
</svg>
