<svg xmlns="http://www.w3.org/2000/svg" width="64.251" height="64.252" viewBox="0 0 64.251 64.252">
  <g id="Group_17243" data-name="Group 17243" transform="translate(-5905.883 -4217.404)">
    <path id="Path_29566" data-name="Path 29566" d="M25.773,11.685H7.842A3.842,3.842,0,1,1,7.842,4H25.773a3.842,3.842,0,1,1,0,7.685ZM7.842,6.562a1.281,1.281,0,1,0,0,2.562H25.773a1.281,1.281,0,1,0,0-2.562Z" transform="translate(5913.029 4224.334)" fill="#e37e28" stroke="#e37e28" stroke-width="0.5"/>
    <path id="Path_29567" data-name="Path 29567" d="M25.01,12.808a1.282,1.282,0,0,1-.8-2.282l7.106-5.684a1.249,1.249,0,0,0,.41-1.427,1.248,1.248,0,0,0-1.209-.853H6.7a1.246,1.246,0,0,0-1.209.856A1.245,1.245,0,0,0,5.9,4.844L13,10.528a1.281,1.281,0,1,1-1.6,2L4.3,6.844A3.8,3.8,0,0,1,3.071,2.569,3.8,3.8,0,0,1,6.7,0H30.518a3.8,3.8,0,0,1,3.627,2.569,3.8,3.8,0,0,1-1.227,4.275l-7.106,5.684A1.294,1.294,0,0,1,25.01,12.808Z" transform="translate(5910.581 4217.654)" fill="#e37e28" stroke="#e37e28" stroke-width="0.5"/>
    <path id="Path_29568" data-name="Path 29568" d="M25.615,52.107H14.088C4.357,52.107,0,43.744,0,35.457,0,23.564,6.278,11.251,14.926,6.174A1.281,1.281,0,0,1,15.574,6H30.533a1.281,1.281,0,0,1,.648.174,27.547,27.547,0,0,1,9.239,9.406,1.281,1.281,0,0,1-2.18,1.345A25.242,25.242,0,0,0,30.18,8.562H15.927C8.166,13.311,2.562,24.553,2.562,35.457c0,6.5,3.02,14.088,11.527,14.088H25.615a1.281,1.281,0,1,1,0,2.562Z" transform="translate(5906.133 4229.298)" fill="#e37e28" stroke="#e37e28" stroke-width="0.5"/>
    <path id="Path_29569" data-name="Path 29569" d="M28.574,29.465C19.568,29.465,10,26.771,10,21.781a1.328,1.328,0,0,1,2.653,0c0,2.139,6.058,5.123,15.92,5.123s15.92-2.984,15.92-5.123a1.328,1.328,0,0,1,2.653,0C47.147,26.771,37.579,29.465,28.574,29.465Z" transform="translate(5922.737 4251.941)" fill="#e37e28" stroke="#e37e28" stroke-width="0.5"/>
    <path id="Path_29570" data-name="Path 29570" d="M28.574,26.465C19.568,26.465,10,23.771,10,18.781a1.328,1.328,0,0,1,2.653,0c0,2.139,6.058,5.123,15.92,5.123s15.92-2.984,15.92-5.123a1.328,1.328,0,0,1,2.653,0C47.147,23.771,37.579,26.465,28.574,26.465Z" transform="translate(5922.737 4247.256)" fill="#e37e28" stroke="#e37e28" stroke-width="0.5"/>
    <path id="Path_29571" data-name="Path 29571" d="M28.574,27.369C19.568,27.369,10,24.674,10,19.685S19.568,12,28.574,12s18.574,2.695,18.574,7.685S37.579,27.369,28.574,27.369Zm0-12.808c-9.863,0-15.92,2.984-15.92,5.123s6.058,5.123,15.92,5.123,15.92-2.984,15.92-5.123S38.436,14.562,28.574,14.562Z" transform="translate(5922.737 4237.909)" fill="#e37e28" stroke="#e37e28" stroke-width="0.5"/>
    <path id="Path_29572" data-name="Path 29572" d="M24.281,32.431A1.281,1.281,0,0,1,23,31.15V15.781a1.281,1.281,0,1,1,2.562,0V31.15A1.281,1.281,0,0,1,24.281,32.431Z" transform="translate(5944.323 4242.571)" fill="#e37e28" stroke="#e37e28" stroke-width="0.5"/>
    <path id="Path_29573" data-name="Path 29573" d="M11.281,32.431A1.281,1.281,0,0,1,10,31.15V15.781a1.281,1.281,0,1,1,2.562,0V31.15A1.281,1.281,0,0,1,11.281,32.431Z" transform="translate(5922.737 4242.571)" fill="#e37e28" stroke="#e37e28" stroke-width="0.5"/>
  </g>
</svg>
