<svg xmlns="http://www.w3.org/2000/svg" width="576" height="576" viewBox="0 0 576 576">
  <g id="conservative_hybrid_fund" transform="translate(-17796 -5582)">
    <path id="Rectangle_8718" data-name="Rectangle 8718" d="M1,1V575H575V1H1M0,0H576V576H0Z" transform="translate(17796 5582)" fill="#707070" opacity="0"/>
    <g id="conservative_illustration" transform="translate(10261 6119.999)">
      <rect id="Rectangle_8307" data-name="Rectangle 8307" width="574" height="574" transform="translate(7536 -536.999)" fill="none"/>
      <g id="Warning-cuate" transform="translate(7536 -526.504)">
        <g id="freepik--background-complete--inject-16" transform="translate(10.788 0)">
          <path id="Path_27349" data-name="Path 27349" d="M399.27,50.31h25.8l-1.739,95.084H401.009Z" transform="translate(82.796 -50.31)" fill="#ebebeb"/>
          <rect id="Rectangle_8300" data-name="Rectangle 8300" width="22.311" height="22.311" transform="translate(483.819 106.989)" fill="#ebebeb"/>
          <path id="Path_27350" data-name="Path 27350" d="M447.821,105.43l20.982,6.108-23.909,76.9-18.154-5.288Z" transform="translate(94.165 -27.496)" fill="#ebebeb"/>
          <rect id="Rectangle_8301" data-name="Rectangle 8301" width="18.89" height="18.89" transform="translate(518.087 165.354) rotate(16.23)" fill="#ebebeb"/>
          <path id="Path_27351" data-name="Path 27351" d="M262.69,85.464l16.712-7.9,27.967,62.155L292.9,146.558Z" transform="translate(26.267 -39.032)" fill="#ebebeb"/>
          <rect id="Rectangle_8302" data-name="Rectangle 8302" width="15.991" height="15.991" transform="translate(322.82 115.261) rotate(-25.27)" fill="#ebebeb"/>
        </g>
        <g id="freepik--Sign--inject-16" transform="translate(290.484 15.694)">
          <rect id="Rectangle_8303" data-name="Rectangle 8303" width="16.854" height="458.185" transform="translate(123.998 78.386)" fill="#dbdbdb"/>
          <path id="Path_27356" data-name="Path 27356" d="M388.565,61.41,256.14,290.771H520.99Z" transform="translate(-256.14 -61.41)" fill="#e27e2b"/>
          <path id="Path_27357" data-name="Path 27357" d="M380.138,84.91,276.5,264.432H483.79Z" transform="translate(-247.713 -51.684)" fill="#fff"/>
          <rect id="Rectangle_8305" data-name="Rectangle 8305" width="264.85" height="88.608" transform="translate(0 242.708)" fill="#e27e2b"/>
          <path id="Path_27359" data-name="Path 27359" d="M513.295,314.038H260.35V237.25H513.295Zm-251.531-1.414H511.881V238.664H261.764Z" transform="translate(-254.398 11.368)" fill="#fff"/>
          <text id="HIGH_RISK" data-name="HIGH RISK" transform="translate(130.517 300.812)" fill="#fff" font-size="41" font-family="Montserrat-Bold, Montserrat" font-weight="700"><tspan x="-111.499" y="0">HIGH RISK</tspan></text>
          <path id="Path_27439" data-name="Path 27439" d="M39.092,31.67H21.611L7.5,10.45A10.049,10.049,0,0,0,4.177,6.944,9,9,0,0,0-.45,5.869H-13.818V-5.442H5.813q8.787,0,10.844-6.357H-13.818v-8.6H16.469q-2.15-5.889-10.657-5.889H-13.818v-8.6H39v8.6H27.874A17.55,17.55,0,0,1,30.585-20.4H39v8.6H30.959A18.317,18.317,0,0,1,26.1-1.235a20.476,20.476,0,0,1-10.47,5.7A14.629,14.629,0,0,1,21.1,6.8a17.089,17.089,0,0,1,4.347,4.674Z" transform="translate(120.2 149.569)" fill="#e27e2b"/>
        </g>
        <g id="freepik--Character--inject-16" transform="translate(16.024 112.648)">
          <path id="Path_27383" data-name="Path 27383" d="M262.768,470.043H140.353c-1.018-3.945-1.994-7.819-2.969-11.636-1.117-4.4-2.22-8.681-3.266-12.852-.24-.933-.481-1.866-.721-2.828-.806-3.2-1.6-6.32-2.375-9.346-.467-1.838-.933-3.662-1.414-5.458s-.933-3.634-1.414-5.387c-.127-.467-.226-.933-.353-1.414s-.255-1.018-.382-1.513-.311-1.2-.467-1.81h0c-.17-.636-.325-1.258-.481-1.88l-.877-3.478c-.438-1.668-.848-3.323-1.258-4.92-.17-.693-.353-1.414-.523-2.078q-.438-1.682-.848-3.266c-.184-.721-.353-1.414-.523-2.093-.721-2.828-1.414-5.458-2.008-7.918-.184-.65-.325-1.287-.509-1.909-.255-1.075-.523-2.093-.763-3.082q-.255-.933-.467-1.824c-.551-2.107-1.046-4.03-1.414-5.726-.127-.438-.24-.877-.353-1.3-.269-1.117-.537-2.107-.749-3-.1-.354-.17-.693-.269-1s-.17-.679-.255-.976-.1-.438-.156-.622-.156-.594-.212-.834a1.952,1.952,0,0,0-.1-.368c-.184-.735-.269-1.1-.269-1.1H234.123s3.916,13.517,10.208,35.347c1.272,4.44,2.644,9.233,4.129,14.323C252.659,434.7,257.522,451.662,262.768,470.043Z" transform="translate(-40.113 -30.468)" fill="#37474f"/>
          <path id="Path_27384" data-name="Path 27384" d="M152.81,461.848h-3.054q-6.787-28.136-13.163-56.372c-1.032-4.567-2.036-9.148-3.04-13.743-.1-.438-.2-.848-.283-1.287,0-.226.3-.325.353-.1l.127.424q2.078,7.381,4.114,14.789Q145.613,433.627,152.81,461.848Z" transform="translate(-32.535 -22.273)" fill="#263238"/>
          <path id="Path_27385" data-name="Path 27385" d="M230.277,370.517l-5.246,26.327-4.326,21.59L213.367,455.2l-.749,3.761-1.258,6.292-.947,4.765H140.339l-2.955-11.636c-1.117-4.4-2.22-8.681-3.266-12.852-.24-.933-.481-1.866-.721-2.828-.806-3.2-1.6-6.32-2.375-9.346-.467-1.838-.933-3.662-1.414-5.458s-.933-3.634-1.414-5.387c-.127-.467-.226-.933-.353-1.414s-.255-1.018-.382-1.513-.311-1.2-.467-1.81h0c-.17-.636-.325-1.258-.481-1.88l-.877-3.478c-.438-1.668-.848-3.323-1.258-4.92-.184-.707-.353-1.414-.523-2.078q-.438-1.683-.848-3.266c-.184-.721-.353-1.414-.523-2.093-.721-2.828-1.414-5.458-2.008-7.918-.184-.65-.325-1.287-.509-1.909-.255-1.075-.523-2.093-.764-3.082q-.254-.933-.467-1.824c-.551-2.107-1.046-4.03-1.414-5.726-.127-.438-.24-.877-.353-1.3-.269-1.117-.537-2.107-.749-3-.1-.353-.17-.693-.269-1s-.17-.679-.254-.976-.1-.438-.156-.622-.156-.594-.212-.834a1.95,1.95,0,0,0-.1-.368c-.184-.735-.269-1.1-.269-1.1Z" transform="translate(-40.113 -30.481)" fill="#263238"/>
          <path id="Path_27386" data-name="Path 27386" d="M246.36,370.44h0c0,.65-.509,7.748-1.654,18.593-.325,3.167-.707,6.645-1.159,10.364-.693,5.882-1.569,12.372-2.644,19.229-1.824,11.962-4.242,25-7.31,37.751-1.1,4.6-2.319,9.148-3.605,13.6H76.17c1.81-23.442,3.478-44.651,4.793-61.363C82.8,385.1,83.989,370.44,83.989,370.44H246.36Z" transform="translate(-56.168 -30.46)" fill="#37474f"/>
          <path id="Path_27387" data-name="Path 27387" d="M204.388,381.51c-.184,5.5-.41,11-.763,16.472-.382,5.938-.919,11.877-1.7,17.8v.65c-.735,5.557-1.555,11.085-2.5,16.613-.891,5.147-1.541,10.7-3.818,15.468a15.1,15.1,0,0,1-3.591,4.85,10.618,10.618,0,0,1-4.92,2.545,4.993,4.993,0,0,1-.919.155h-.269a.354.354,0,0,1,.17.325,48.431,48.431,0,0,1-.212,5.557v.24c-.184,1.6-.481,3.181-.778,4.765h-2.644a.51.51,0,0,0,0-.1c.467-1.739.848-3.492,1.287-5.246s1.046-3.535,1.414-5.345a.269.269,0,0,1,.127-.17,8.215,8.215,0,0,1-7.946-4.991,14.21,14.21,0,0,1-.127-7.225c.481-3.153.947-6.292,1.414-9.445.9-5.8,2.064-11.509,3.082-17.264l.467-2.63c2.064-11.707,4.242-23.428,6.815-35.022.1-.495.2-.976.311-1.414a.286.286,0,1,1,.566.085c-.085.778-.156,1.569-.254,2.347-.452,4.454-.976,8.879-1.6,13.3-.749,5.2-1.258,10.42-1.994,15.623-.24,1.767-.495,3.535-.749,5.3-1.2,8.554-2.446,17.094-3.9,25.62-.679,3.959-3.139,11.042,2.545,12.273a5.84,5.84,0,0,0,3.86-.481,12.159,12.159,0,0,0,5.3-6.688,90.493,90.493,0,0,0,3.026-14.238q1.414-7.819,2.474-15.666h0c.933-6.532,1.895-13.036,2.913-19.554l1.569-9.968c.254-1.527.495-3.068.749-4.609A.3.3,0,0,1,204.388,381.51Z" transform="translate(-14.521 -27.391)" fill="#263238"/>
          <path id="Path_27388" data-name="Path 27388" d="M100.1,421.618a78.132,78.132,0,0,0,18.974-2.545c2.828-.735,5.656-1.654,8.483-2.573a22.043,22.043,0,0,0,7.649-3.846c4.242-3.719,6.32-9.572,8.2-14.775a141.384,141.384,0,0,0,4.977-17.956c0-.3.495-.2.509.085a69.38,69.38,0,0,1-2.587,20.374c-1.541,5.656-3.62,11.9-8.172,15.85-4.779,4.143-11.311,5.656-17.391,6.362a79.675,79.675,0,0,1-20.671-.3.34.34,0,1,1,.028-.679Z" transform="translate(-46.409 -26.61)" fill="#263238"/>
          <path id="Path_27389" data-name="Path 27389" d="M94.485,380.106q-.509,12.909-1.075,25.846-1.343,30.116-2.913,60.232H87.67q1.994-30.2,4.242-60.316.848-12.895,1.88-25.761A.347.347,0,1,1,94.485,380.106Z" transform="translate(-51.408 -26.609)" fill="#263238"/>
          <path id="Path_27390" data-name="Path 27390" d="M186.322,248.247c21.109,25.563,96.54,119.686,85.922,145.9C261.484,420.7,236.3,438.953,223.2,420.459,212.38,405.2,171.66,299.6,165.835,272.326,160.292,246.367,165.509,223.123,186.322,248.247Z" transform="translate(-19.912 -85.498)" fill="#d3766a"/>
          <path id="Path_27391" data-name="Path 27391" d="M182.478,341.418l78.428-15.553s-55.212-68.446-77.128-84c-24.672-17.49-28.278-1.046-23.64,27.33S182.478,341.418,182.478,341.418Z" transform="translate(-22.133 -86.653)" fill="#00a0ae"/>
          <path id="Path_27392" data-name="Path 27392" d="M260.9,325.851,182.471,341.4s-17.758-43.831-22.339-72.264-1.032-44.82,23.64-27.33c1.244.891,2.6,1.951,4.058,3.153l1.782,1.513h0c7.96,6.914,18.239,17.688,28.5,29.07l.566.622c8.087,9.006,16.161,18.381,23.046,26.5l2.828,3.436C254.24,317.593,260.9,325.851,260.9,325.851Z" transform="translate(-22.127 -86.681)" fill="#00a0ae"/>
          <path id="Path_27393" data-name="Path 27393" d="M202.387,315.324a25.18,25.18,0,0,0-1.682,7.07,26.106,26.106,0,0,0,3.422-6.348,25.111,25.111,0,0,0,1.7-7,25.592,25.592,0,0,0-3.436,6.278Zm-29.267-34.357a25.112,25.112,0,0,0-7.069-1.7,25.024,25.024,0,0,0,6.32,3.436,25.353,25.353,0,0,0,7.069,1.7,25.025,25.025,0,0,0-6.32-3.436Zm15.114-34.1a34.907,34.907,0,0,0-1.767-3.379h0l-1.8-1.485a28.788,28.788,0,0,0,1.866,5.656,24.486,24.486,0,0,0,3.747,6.15,25.237,25.237,0,0,0-2.05-6.942Zm53.883,57.588c-.212-.452-.424-.9-.65-1.343l-2.828-3.436a27.341,27.341,0,0,0,1.81,5.542,25.448,25.448,0,0,0,3.761,6.15,25.21,25.21,0,0,0-2.093-6.914Zm-27.147-31.9c-.4.283-.792.594-1.174.919a17.145,17.145,0,0,0,1.739-.3Z" transform="translate(-18.968 -83.62)" fill="#fff"/>
          <path id="Path_27394" data-name="Path 27394" d="M240.226,290.84c-2.828.113-27.316,4.6-32.618,5.656s-27.048,5.33-32.435,6.914a.2.2,0,0,0,0,.382c5.571-.537,27.5-4.751,32.93-5.74s29.593-5.967,32.166-6.886C240.551,291.066,240.424,290.84,240.226,290.84Z" transform="translate(-15.252 -63.405)" fill="#263238"/>
          <path id="Path_27395" data-name="Path 27395" d="M227.686,332.437l-45.244,8.978s-17.758-43.831-22.339-72.25c-3.379-20.94-2.333-35.347,8.356-34.485Z" transform="translate(-22.139 -86.664)" fill="#263238"/>
          <path id="Path_27396" data-name="Path 27396" d="M272.247,471.826,73.27,482.345s16.854-169.54,90.489-241.634c9.091-8.908,33.269-13.022,45.626-3.379,6.589,5.147,18.536,28.165,24.87,51.664S272.784,471.034,272.247,471.826Z" transform="translate(-57.368 -87.845)" fill="#00a0ae"/>
          <path id="Path_27397" data-name="Path 27397" d="M184.244,251.164a25.718,25.718,0,0,0-1.682,7A25.1,25.1,0,0,0,186,251.829a25.6,25.6,0,0,0,1.7-7,25.86,25.86,0,0,0-3.45,6.334Zm-22.891,90.743a24.715,24.715,0,0,0-1.7,7.069,27.67,27.67,0,0,0,5.118-13.333A25.674,25.674,0,0,0,161.354,341.908ZM146.8,438.179a25.125,25.125,0,0,0-1.7,6.985,27.669,27.669,0,0,0,5.118-13.333A25.335,25.335,0,0,0,146.8,438.179Zm92.313-124.648-.254.622a25.18,25.18,0,0,0-1.682,7.069,22.439,22.439,0,0,0,2.63-4.468h0C239.57,315.609,239.344,314.563,239.118,313.531ZM201.381,428.211a25.251,25.251,0,0,0-1.711,7.069,25.072,25.072,0,0,0,3.45-6.32,25.591,25.591,0,0,0,1.683-7,25.678,25.678,0,0,0-3.422,6.249ZM120.718,306.758a24.971,24.971,0,0,0-1.683,7,25.451,25.451,0,0,0,3.422-6.334,25.111,25.111,0,0,0,1.7-7.069,25.1,25.1,0,0,0-3.436,6.4ZM209.6,279.8a25.111,25.111,0,0,0-7.069-1.7,25.024,25.024,0,0,0,6.32,3.436,25.35,25.35,0,0,0,7.069,1.7,25.026,25.026,0,0,0-6.32-3.436Zm19.893,75.827a25.236,25.236,0,0,0-6.985-1.682,24.531,24.531,0,0,0,6.32,3.422,25.638,25.638,0,0,0,7,1.711,24.914,24.914,0,0,0-6.334-3.45Zm10.42,90.22a25.107,25.107,0,0,0-7.069-1.7,27.755,27.755,0,0,0,13.319,5.132,25.449,25.449,0,0,0-6.249-3.436ZM91,440.908a25.111,25.111,0,0,0-7.069-1.7,27.868,27.868,0,0,0,13.333,5.133A25.347,25.347,0,0,0,91,440.908Zm53.021-60.6a25,25,0,0,0-7.069-1.711,25.15,25.15,0,0,0,6.334,3.45,25.594,25.594,0,0,0,7.069,1.683,25.447,25.447,0,0,0-6.334-3.422Zm19.045-85.894a25.45,25.45,0,0,0-3.761-6.15,27.613,27.613,0,0,0,5.811,13.05A25.789,25.789,0,0,0,163.064,294.415Zm34.4,76.35a25.791,25.791,0,0,0-3.747-6.15,25.139,25.139,0,0,0,2.05,6.9,25.45,25.45,0,0,0,3.747,6.151,25.448,25.448,0,0,0-2.05-6.914Zm-81,41.5a25.14,25.14,0,0,0-3.761-6.136,25.789,25.789,0,0,0,2.05,6.9,24.883,24.883,0,0,0,3.761,6.136,25.281,25.281,0,0,0-2.05-6.914Zm13.46,60.444a25.339,25.339,0,0,0-3.747-6.151,24.518,24.518,0,0,0,2.05,6.9c.085.2.184.382.269.58l1.937-.1Zm105.5-72.646a25.112,25.112,0,0,0-6.15,3.733,27.742,27.742,0,0,0,13.05-5.783,24.035,24.035,0,0,0-6.9,1.979ZM176.581,461.4a25.449,25.449,0,0,0-6.15,3.747,25.448,25.448,0,0,0,6.9-2.05,24.952,24.952,0,0,0,6.15-3.761A24.691,24.691,0,0,0,176.581,461.4Zm-96.144,14c-.848.4-1.7.806-2.517,1.258l4.68-.24a21.948,21.948,0,0,0,4.736-3.082,25.452,25.452,0,0,0-6.942,2.064Zm36.945-128.961a25.7,25.7,0,0,0-6.15,3.747,27.91,27.91,0,0,0,13.064-5.8,25.239,25.239,0,0,0-6.956,2.05Zm54.081,60.062a25.663,25.663,0,0,0-6.15,3.761,24.754,24.754,0,0,0,6.914-2.05,25.326,25.326,0,0,0,6.15-3.761,25.724,25.724,0,0,0-6.956,2.05ZM195.5,313.927a25.449,25.449,0,0,0-6.15,3.747,27.91,27.91,0,0,0,13.064-5.8,25.237,25.237,0,0,0-7.027,2.05Zm-53.233-54.081c-.495.226-.976.453-1.414.707-.551.792-1.1,1.6-1.64,2.4a33.1,33.1,0,0,0,3.86-1.414,25.886,25.886,0,0,0,6.15-3.747,25.239,25.239,0,0,0-7.013,2.05Z" transform="translate(-55.444 -82.448)" fill="#fff"/>
          <path id="Path_27398" data-name="Path 27398" d="M141.621,262.322C85.7,328.224,47.484,432.371,67.335,447.669c22.523,17.377,105.731,31.671,138.787,34.541,10.251.891,11.806-84.042.806-83.787-13.333.311-63.187-9.812-64.516-9.827-2.828,0,24.3-86.247,32.152-120.011C185.494,221.518,162.617,237.579,141.621,262.322Z" transform="translate(-62.023 -85.109)" fill="#d3766a"/>
          <path id="Path_27399" data-name="Path 27399" d="M276,367.609c2.375,8.483-5.274,13.489-5.274,13.489a18.8,18.8,0,0,1,5.938,11.311c.693,7.72-11.113,12.188-11.113,12.188a23.2,23.2,0,0,1,4.355,12.951c-.085,7.451-11.311,13.658-11.311,13.658a20.332,20.332,0,0,1-3.337,13.8c-7.748,10.534-27.656,9.035-40.31,8.2s-51.183-16.6-58.153-18.635l7.946-79.687s57.828-12.442,72.575-9.36C249.739,348.154,273.323,358.107,276,367.609Z" transform="translate(-22.8 -40.976)" fill="#d3766a"/>
          <path id="Path_27400" data-name="Path 27400" d="M248.868,373.365c-12.541-5.924-26.157-7.833-39.589-10.505-.3,0-.382.424-.085.481,13.446,2.488,26.214,7.621,39.589,10.661a.339.339,0,0,0,.085-.636Z" transform="translate(-1.187 -33.597)" fill="#263238"/>
          <path id="Path_27401" data-name="Path 27401" d="M245.165,387.93a36.139,36.139,0,0,0-9.289-2.036c-3.323-.481-6.645-.919-9.982-1.287q-10.01-1.145-20.063-1.767c-.3,0-.4.438-.085.467,6.645.764,13.291,1.626,19.893,2.672q4.963.792,9.9,1.64a43.11,43.11,0,0,0,9.388,1.188.481.481,0,0,0,.24-.877Z" transform="translate(-2.617 -25.328)" fill="#263238"/>
          <path id="Path_27402" data-name="Path 27402" d="M239.116,407.287c-2.46-1.2-5.74-1.117-8.413-1.414-3.054-.283-6.094-.58-9.148-.891-6.08-.622-12.159-1.258-18.225-2.093-.3,0-.4.424-.085.467,6.15.877,12.287,1.852,18.451,2.672q4.539.622,9.077,1.174c2.587.325,5.769,1.018,8.328.353a.17.17,0,0,0,.014-.269Z" transform="translate(-3.652 -17.029)" fill="#263238"/>
          <path id="Path_27403" data-name="Path 27403" d="M155.5,344.986,76.32,333.463s51.607-71.2,72.688-87.859c23.725-18.748,28.122-2.517,25.026,26.058S155.5,344.986,155.5,344.986Z" transform="translate(-56.106 -85.456)" fill="#00a0ae"/>
          <path id="Path_27404" data-name="Path 27404" d="M140.55,256.05a25,25,0,0,0-6.207,3.747,27.91,27.91,0,0,0,13.064-5.8A25.238,25.238,0,0,0,140.55,256.05ZM161.4,290.62a25.448,25.448,0,0,0-3.761-6.15,27.613,27.613,0,0,0,5.811,13.05,25.79,25.79,0,0,0-2.05-6.9ZM83.075,314.43h0c-.382.523-.764,1.046-1.145,1.541h.1a25.632,25.632,0,0,0,7.069,1.711A24.558,24.558,0,0,0,83.075,314.43Zm35.983-11.467a24.969,24.969,0,0,0-1.683,7,25.452,25.452,0,0,0,3.422-6.334,25.111,25.111,0,0,0,1.7-7.069A25.1,25.1,0,0,0,119.059,302.963Z" transform="translate(-53.784 -78.653)" fill="#fff"/>
          <path id="Path_27405" data-name="Path 27405" d="M85.741,296.19c2.828,0,27.514,3.181,32.859,4s27.288,3.916,32.76,5.217a.2.2,0,1,1,0,.4c-5.585-.255-27.712-3.323-33.184-4.044s-29.861-4.425-32.519-5.2C85.43,296.487,85.543,296.19,85.741,296.19Z" transform="translate(-52.293 -61.191)" fill="#263238"/>
          <path id="Path_27406" data-name="Path 27406" d="M127.979,331.449c2.4.17,6.15.58,6.15.58,2.361-10.915,5.9-21.675,8.738-32.519s6.122-21.873,9.148-32.831a.132.132,0,0,1,.255.071q-1.979,9.459-4.044,18.875l.933-2.262c1.1-2.672,2.276-5.316,3.294-8.031a.19.19,0,0,1,.368.1,71.414,71.414,0,0,1-2.828,8.3c-.806,1.895-1.739,3.719-2.686,5.542-.82,3.591-1.626,7.2-2.545,10.774-2.828,10.986-5.09,23.386-8.738,34.117,0,0-5.528-1.287-8.243-2.234a.269.269,0,0,1,.2-.481Z" transform="translate(-34.851 -73.446)" fill="#263238"/>
          <path id="Path_27407" data-name="Path 27407" d="M181.349,280.32c-10.689,3.634-31.106-11.311-39.815-24.135-.58-.891-.1-10.816-.085-22.919,0-7.338-.2-15.553-.919-22.962-.156-1.527,47.8,6.872,47.8,6.872s-3.1,16.048-1.782,29.027a16.614,16.614,0,0,0,.622,3.026c0,.127.085.3.113.495C188.786,255.436,191.7,276.8,181.349,280.32Z" transform="translate(-29.53 -96.815)" fill="#d3766a"/>
          <path id="Path_27408" data-name="Path 27408" d="M182.136,250.434a28.474,28.474,0,0,0,4.765-.707,3.923,3.923,0,0,0-.113-.509,17.362,17.362,0,0,1-.608-3.026c-1.315-12.965,1.767-29.013,1.767-29.013s-38.91-6.829-46.517-7.069C143.65,218.593,154.537,252.47,182.136,250.434Z" transform="translate(-29.158 -96.819)" fill="#263238"/>
          <path id="Path_27409" data-name="Path 27409" d="M131.377,177.873c-3.747,16.967,8.809,64.2,21.449,73.961,18.381,14.139,46.446,13.39,57.969-8.2,11.184-20.94-6.264-82.189-20.219-90.857C170.047,140.023,136.919,152.79,131.377,177.873Z" transform="translate(-33.597 -122.622)" fill="#d3766a"/>
          <path id="Path_27410" data-name="Path 27410" d="M194.366,196.83h-.113c.919,11.891-.919,23.852-8.7,33.283a25.606,25.606,0,0,1-6.956,6.094.127.127,0,0,0,.127.212,33.367,33.367,0,0,0,6.688-4.793,29.69,29.69,0,0,0,5.09-6.546,36.676,36.676,0,0,0,4.977-17.575,53.391,53.391,0,0,0-1.117-10.675Z" transform="translate(-13.789 -102.315)" fill="#263238"/>
          <path id="Path_27411" data-name="Path 27411" d="M166.537,187.248c0-.127-.212.212-.17.339.862,3.153,1.414,6.928-1.287,8.681-.085,0,0,.212.071.17C168.544,195.1,167.88,190.09,166.537,187.248Z" transform="translate(-19.384 -106.293)" fill="#263238"/>
          <path id="Path_27412" data-name="Path 27412" d="M164.413,185.381c-5.231.863-3.125,11.24,1.711,10.435S168.782,184.659,164.413,185.381Z" transform="translate(-20.908 -107.069)" fill="#263238"/>
          <path id="Path_27413" data-name="Path 27413" d="M179.18,184.411c0-.127.283.1.311.226.523,3.238,1.668,6.857,4.793,7.352.1,0,.113.184,0,.2C180.636,192.329,179.166,187.55,179.18,184.411Z" transform="translate(-13.533 -107.471)" fill="#263238"/>
          <path id="Path_27414" data-name="Path 27414" d="M181.4,181.659c5.09-1.414,7.536,8.893,2.828,10.194S177.131,182.832,181.4,181.659Z" transform="translate(-13.535 -108.649)" fill="#263238"/>
          <path id="Path_27415" data-name="Path 27415" d="M168.457,182.925a43.167,43.167,0,0,1-3.747,2.192,7.069,7.069,0,0,1-4.242,1.5,2.248,2.248,0,0,1-1.838-2.036c0-2.121,1.414-3.563,3.2-4.623a8.144,8.144,0,0,1,5.726-1.3,2.389,2.389,0,0,1,.9,4.27Z" transform="translate(-22.039 -109.873)" fill="#263238"/>
          <path id="Path_27416" data-name="Path 27416" d="M185.222,176.581a40.2,40.2,0,0,1-4.341-.24,7.069,7.069,0,0,1-4.383-1.089,2.22,2.22,0,0,1-.424-2.63c1.117-1.8,3.2-2.163,5.2-2.121a8.186,8.186,0,0,1,5.5,2.064,2.4,2.4,0,0,1-1.555,4.015Z" transform="translate(-14.924 -113.214)" fill="#263238"/>
          <path id="Path_27417" data-name="Path 27417" d="M169.8,218.038c3.733-2.46,9.063-3.04,12.456-3.323.368-.127.551-.919.537-1.287h0c0-.113-1.612-6.73-1.612-6.73.976.254,5.952,1.414,5.656.085-2.828-10.42-5.995-22.014-11.028-31.784a.3.3,0,0,0-.566.2c2.347,10.138,6.433,19.794,8.95,29.918a18.987,18.987,0,0,0-5.429-.481c-.325.17,2.093,7.069,2.206,8.158,0,0-6.886-.58-11.467,3.888C168.254,217.811,168.014,219.211,169.8,218.038Z" transform="translate(-17.948 -111.434)" fill="#263238"/>
          <path id="Path_27418" data-name="Path 27418" d="M164.994,211.771c.919.566,1.909,1.414,3.082,1.287a8.483,8.483,0,0,0,3.238-1.541.113.113,0,0,1,.17.141,4.4,4.4,0,0,1-3.662,2.587,3.464,3.464,0,0,1-3.1-2.276C164.641,211.8,164.867,211.687,164.994,211.771Z" transform="translate(-19.524 -96.246)" fill="#263238"/>
          <path id="Path_27419" data-name="Path 27419" d="M177.264,201.89c-3.012.594-12.569,4.468-10.194,8.908,1.032,1.951,4.242.792,6.7-2.05A20.968,20.968,0,0,0,177.264,201.89Z" transform="translate(-18.701 -100.221)" fill="#263238"/>
          <path id="Path_27420" data-name="Path 27420" d="M172.541,208.458c-2.177,1.88-4.609,2.418-5.486.792a3.125,3.125,0,0,1,.354-3.436C169.246,205.5,173.163,205.192,172.541,208.458Z" transform="translate(-18.7 -98.673)" fill="#ff9abb"/>
          <path id="Path_27421" data-name="Path 27421" d="M207.724,176.128c-14.408,15.807-42.092,3.521-42.092,3.521a19.172,19.172,0,0,1-16.161,16.274s3.45,29.875-4.242,31.615c-11.707,2.672-24.63-36.125-22.778-44.778s11.311-12.979,11.311-12.979-.693-6.207,5.231-13.418c6.532-7.988,36-6.235,36-6.235a26.186,26.186,0,0,1,4.807-11.17,7.409,7.409,0,0,1,10.618-1.485,17.589,17.589,0,0,0-1.117,7.819c.622,8.837,7.578,7.2,5.656-.509a12.343,12.343,0,0,0-4.581-7.31c2.248-5.854,7.465-8.823,11.495-6.914C209.237,134.009,219.714,162.993,207.724,176.128Z" transform="translate(-37.086 -129.983)" fill="#263238"/>
          <path id="Path_27422" data-name="Path 27422" d="M147.019,199.534s-13.587-13.22-19.794-8.087S133.29,217.165,142,218.636a8.483,8.483,0,0,0,10.237-6.56Z" transform="translate(-35.736 -105.033)" fill="#d3766a"/>
          <path id="Path_27423" data-name="Path 27423" d="M129.346,195.223c-.127,0-.113.2,0,.226,6.15,1.216,10.166,5.938,13.3,11.014-2.093-1.8-4.623-2.5-7.069,0-.127.127,0,.339.212.269a5.175,5.175,0,0,1,5.938.707,25.238,25.238,0,0,1,3.549,4.016c.368.467,1.23,0,.933-.537a.579.579,0,0,1-.071-.127C144.885,203.551,137.292,194.46,129.346,195.223Z" transform="translate(-34.196 -102.999)" fill="#263238"/>
          <path id="Path_27424" data-name="Path 27424" d="M137.138,246.149a65.789,65.789,0,0,0,24.771,22.877,34.527,34.527,0,0,0,15.991,4.326,14.436,14.436,0,0,0,8.271-2.29,16.684,16.684,0,0,0,5.048-6.886,32.718,32.718,0,0,0,2.432-9.53,78.937,78.937,0,0,0,.481-11.127c0-.141.212-.127.212,0,.1,3.521.495,7.069.339,10.548a35.658,35.658,0,0,1-1.414,9.176,20.827,20.827,0,0,1-4.242,7.72,12.965,12.965,0,0,1-7.918,4,30.681,30.681,0,0,1-17.235-3.026,56.668,56.668,0,0,1-14.605-9.77,62.1,62.1,0,0,1-12.386-15.878C136.714,246.093,137.067,245.951,137.138,246.149Z" transform="translate(-31.058 -83.033)" fill="#263238"/>
          <path id="Path_27425" data-name="Path 27425" d="M211.9,410.161c10.505,20.417,37.921,5.542,43.831-9.346,13.983-34.966,18.282-108.488,14.464-142.322-1.23-10.887-70.793-.764-73.409,10.647C194.1,281.088,190.59,368.72,211.9,410.161Z" transform="translate(-7.086 -78.721)" fill="#d3766a"/>
          <path id="Path_27426" data-name="Path 27426" d="M272.111,301.208s2.828-22.043,4.482-41.427c.9-10.816-1.414-32.873-4.4-41.116-4.44-12.343-30.893-61.122-42.855-54.958-10.83,5.571,17.221,44.594,17.221,44.594s-24.828-41.879-36.634-32.76,25.747,48.977,25.747,48.977-26.468-42.417-37.157-31.106c-8.073,8.554,23.909,46.658,23.909,46.658s-23-36.337-31.7-27.9c-9.586,9.332,17.716,46.291,17.716,46.291-18.381,25.167-22.156,40.9-7.479,55.976C203.339,316.775,272.111,301.208,272.111,301.208Z" transform="translate(-9.599 -116.246)" fill="#d3766a"/>
          <path id="Path_27427" data-name="Path 27427" d="M246.427,218.037c-2.729-5.019-5.472-10.123-8.639-14.888s-6.518-9.417-10.123-13.87c-8.851-10.9-16.09-16.345-15.68-15.963,9.713,9.105,21.35,25.987,24.517,30.752s6.575,9.346,9.756,14.139C246.342,218.291,246.5,218.122,246.427,218.037Z" transform="translate(0.037 -112.055)" fill="#263238"/>
          <path id="Path_27428" data-name="Path 27428" d="M231.492,223.86c-3.775-6.264-7.3-12.612-11.311-18.72s-8.384-11.467-12.824-17.249c-.339-.438-.467-.113-.141.353,4.242,5.938,7.635,11.764,11.764,17.758s8.483,11.834,12.414,17.956C231.407,224.058,231.548,223.959,231.492,223.86Z" transform="translate(-2.008 -106.101)" fill="#263238"/>
          <path id="Path_27429" data-name="Path 27429" d="M221.1,230.5a168.9,168.9,0,0,0-19.5-27.953c-.353-.424-.467,0-.127.481,6.659,8.95,11.9,16.585,19.285,27.67C220.878,230.871,221.218,230.716,221.1,230.5Z" transform="translate(-4.388 -100.019)" fill="#263238"/>
          <path id="Path_27430" data-name="Path 27430" d="M208.9,183.652a20.5,20.5,0,0,1-1.2-6.306A8.4,8.4,0,0,1,209.819,172c.085-.1.24,0,.141.141-1.683,1.414-1.711,4.157-1.414,6.15a33.238,33.238,0,0,0,1.541,5.726,47.276,47.276,0,0,0,2.474,5.656,57.35,57.35,0,0,0,2.969,5.316h0a.085.085,0,0,1,0,.1h0a.1.1,0,0,1-.141,0,21.562,21.562,0,0,0-7.423-5.656,9.162,9.162,0,0,0-4.242-1.145,5.655,5.655,0,0,0-5.3,5.274,11.312,11.312,0,0,0,.778,4.03,84.6,84.6,0,0,0,3.422,8.766,50.983,50.983,0,0,0,2.3,4.666c.891,1.527,1.781,3,2.5,4.567,0,.1-.311.184-.382.127-.961-.806-7.72-7.352-11.778-7.692a5.019,5.019,0,0,0-5.175,2.729,10.137,10.137,0,0,0-.693,6.5,77.407,77.407,0,0,0,3.351,11.028c0,.113-.141.17-.184,0-1.06-2.616-3.365-8.229-4.086-10.958a9.982,9.982,0,0,1,.353-6.928,6.193,6.193,0,0,1,5.033-3.62,10.406,10.406,0,0,1,6.179,2.3,67.788,67.788,0,0,1,6.179,5.4c-.664-.961-3.563-6.009-4.326-7.55a71.216,71.216,0,0,1-3.987-9.544c-.976-2.828-1.23-5.981,1.06-8.342a7.069,7.069,0,0,1,7.96-1.216,18.381,18.381,0,0,1,5.656,3.775c-.41-.58-.806-1.188-1.159-1.81A34.6,34.6,0,0,1,208.9,183.652Z" transform="translate(-9.872 -112.608)" fill="#263238"/>
          <path id="Path_27431" data-name="Path 27431" d="M199.57,343.29c1.287,3.761,2.5,7.522,3.9,11.226s2.743,7.409,4.242,11.028a53.33,53.33,0,0,0,5.429,10.18,9.286,9.286,0,0,0,.848,1.06l.9.9a18.634,18.634,0,0,0,2.276,1.584,17.969,17.969,0,0,0,5.076,2.05,18.691,18.691,0,0,0,5.472.424,22.692,22.692,0,0,0,5.443-1.174,36.564,36.564,0,0,0,10.01-5.514c1.584-1.117,3.026-2.46,4.5-3.719a24.037,24.037,0,0,0,3.719-4.369,38.36,38.36,0,0,0,5.019-10.618,34.683,34.683,0,0,1-3.832,11.311,25.456,25.456,0,0,1-3.605,4.949,55.588,55.588,0,0,1-4.4,4.2,36.009,36.009,0,0,1-10.491,6.306,24.147,24.147,0,0,1-6.108,1.414,21.816,21.816,0,0,1-6.348-.424,20.88,20.88,0,0,1-5.854-2.446,20.571,20.571,0,0,1-2.587-1.852L212,378.623a11.414,11.414,0,0,1-.976-1.287,48.945,48.945,0,0,1-5.316-10.958,142.988,142.988,0,0,1-6.136-23.089Z" transform="translate(-5.094 -41.697)" fill="#263238"/>
        </g>
        <g id="freepik--Lines--inject-16" transform="translate(197.506 75.629)">
          <path id="Path_27432" data-name="Path 27432" d="M200.99,142.748,217.971,118.4l8.356,8.512,15.327-18.352,8.752,9.176-24.842,15.991-6.659-8.3Z" transform="translate(-185.989 -101.83)" fill="#455a64"/>
          <path id="Path_27433" data-name="Path 27433" d="M197.16,143.851l23.428-5.231.014,7.479,17.023,1.145.17,8-22.848-4.129,1.8-7.324Z" transform="translate(-187.574 -89.388)" fill="#455a64"/>
          <path id="Path_27434" data-name="Path 27434" d="M192.1,144.718l-1.725-22.552,8.031.976-.17-18.381,8.95-.961-5.076,23.81-7.14-1.343Z" transform="translate(-190.38 -103.8)" fill="#455a64"/>
        </g>
        <g id="freepik--Table--inject-16" transform="translate(1.414 552.124)">
          <path id="Path_27435" data-name="Path 27435" d="M51.69,441.517l70.086-.353,70.1-.113,140.2-.24,140.2.24,70.1.113,70.086.353-70.086.339-70.1.127-140.2.24-140.2-.24-70.1-.127Z" transform="translate(-51.69 -440.81)" fill="#263238"/>
        </g>
        <g id="freepik--speech-bubble--inject-16" transform="translate(0 38.175)">
          <path id="Path_27436" data-name="Path 27436" d="M50.69,127.689a50.151,50.151,0,0,0,80.069,40.3l24.588,6.278L145.11,151.371a50.179,50.179,0,1,0-94.42-23.683Z" transform="translate(-50.69 -77.226)" fill="#fff"/>
          <path id="Path_27437" data-name="Path 27437" d="M50.69,127.772A50.434,50.434,0,0,0,58.2,153.985a58.143,58.143,0,0,0,4,5.656,58.971,58.971,0,0,0,4.807,4.963,32.76,32.76,0,0,0,2.616,2.248l2.828,2.064c.933.679,1.965,1.2,2.941,1.824l1.414.877c.495.283,1.032.509,1.541.763l3.125,1.414,3.252,1.159a22.17,22.17,0,0,0,3.309.961c1.117.254,2.22.622,3.351.778a50.649,50.649,0,0,0,6.843.749,42.87,42.87,0,0,0,6.871-.1,50.278,50.278,0,0,0,13.347-3.125,50.9,50.9,0,0,0,11.962-6.659l.184-.141h.24l24.616,6.165-.721.862-10.279-22.778-.141-.3.17-.3a49.712,49.712,0,0,0,1.64-43.406,51.593,51.593,0,0,0-13.319-17.914,49.487,49.487,0,0,0-19.865-10.279,50.306,50.306,0,0,0-22.438-.608,50.985,50.985,0,0,0-20.445,9.417,50.306,50.306,0,0,0-19.356,39.49Zm0,0a50.514,50.514,0,1,1,100.994,1.923,49.6,49.6,0,0,1-5.981,22.1v-.608l10.18,22.919.523,1.174-1.244-.325L130.6,168.563l.424-.085a50.306,50.306,0,0,1-25.846,9.643,43.943,43.943,0,0,1-6.956,0,49.161,49.161,0,0,1-6.9-.834c-1.159-.17-2.262-.551-3.379-.82a24.579,24.579,0,0,1-3.337-1.018l-3.252-1.216c-1.046-.481-2.078-1-3.125-1.513-.523-.269-1.046-.495-1.555-.778l-1.414-.919c-.961-.622-1.994-1.174-2.927-1.866l-2.828-2.093a30.772,30.772,0,0,1-2.616-2.276,55.481,55.481,0,0,1-4.807-5.005,54.366,54.366,0,0,1-3.973-5.656A50.476,50.476,0,0,1,50.69,127.772Z" transform="translate(-50.69 -77.31)" fill="#263238"/>
          <path id="Path_27438" data-name="Path 27438" d="M81.44,91.57H93.175l-.792,43.265H82.232Z" transform="translate(-37.963 -71.407)" fill="#e27e2b"/>
          <rect id="Rectangle_8306" data-name="Rectangle 8306" width="10.152" height="10.152" transform="translate(44.269 68.843)" fill="#e27e2b"/>
        </g>
      </g>
    </g>
  </g>
</svg>
