<svg xmlns="http://www.w3.org/2000/svg" width="300" height="275.52" viewBox="0 0 300 275.52">
  <g id="Forms-cuate_2_" data-name="Forms-cuate (2)" transform="translate(-79.82 -110.16)">
    <g id="freepik--Form--inject-17" transform="translate(79.82 139.68)">
      <rect id="Rectangle_10572" data-name="Rectangle 10572" width="285.47" height="200.931" transform="translate(0.222 0.206)" fill="#fff"/>
      <path id="Path_50943" data-name="Path 50943" d="M365.488,259.817c-.048.063-285.526.079-285.589.127s0-201.018-.079-201.058V58.68h.2s285.526.143,285.526.119S365.488,259.754,365.488,259.817Zm0,0s-.19-201.319,0-200.844l-285.446.111.206-.2s.056,201.446-.206,200.8l285.47.127Z" transform="translate(-79.82 -58.68)" fill="#263238"/>
      <rect id="Rectangle_10573" data-name="Rectangle 10573" width="285.47" height="7.26" transform="translate(0.222 0.206)" fill="#263238"/>
      <path id="Path_50944" data-name="Path 50944" d="M97.685,63.128a1.467,1.467,0,1,1-1.459-1.458,1.466,1.466,0,0,1,1.459,1.458Z" transform="translate(-82.909 -59.3)" fill="#ffc727"/>
      <path id="Path_50945" data-name="Path 50945" d="M105.235,63.128a1.467,1.467,0,1,1-1.467-1.458,1.466,1.466,0,0,1,1.467,1.458Z" transform="translate(-84.471 -59.3)" fill="#fff"/>
      <path id="Path_50946" data-name="Path 50946" d="M112.755,63.128A1.467,1.467,0,1,1,111.3,61.67,1.466,1.466,0,0,1,112.755,63.128Z" transform="translate(-86.026 -59.3)" fill="#455a64"/>
      <rect id="Rectangle_10574" data-name="Rectangle 10574" width="285.391" height="23.77" transform="translate(0.222 7.458)" fill="#00a0ad"/>
      <path id="Path_50954" data-name="Path 50954" d="M112.69,115.681v-3a.277.277,0,0,1,.278-.277h1.666a.285.285,0,0,1,0,.563h-1.38v.927h1.19a.285.285,0,0,1,0,.571h-1.19v1.221a.285.285,0,0,1-.286.277A.277.277,0,0,1,112.69,115.681Z" transform="translate(-86.62 -69.822)" fill="#263238"/>
      <path id="Path_50955" data-name="Path 50955" d="M117.056,112.791a.278.278,0,1,1-.547,0v-.111a.278.278,0,0,1,.547,0Zm0,.919v1.981a.278.278,0,1,1-.547,0v-2.013a.278.278,0,1,1,.547,0Z" transform="translate(-87.409 -69.832)" fill="#263238"/>
      <path id="Path_50956" data-name="Path 50956" d="M119.872,113.923a.27.27,0,0,1-.27.269.508.508,0,0,0-.3.1.88.88,0,0,0-.238.246,1.632,1.632,0,0,0-.206.428v.967a.278.278,0,0,1-.278.269.27.27,0,0,1-.27-.269v-2.005a.262.262,0,0,1,.27-.262.27.27,0,0,1,.278.262h0a.643.643,0,0,1,.111-.1,1.079,1.079,0,0,1,.635-.2.254.254,0,0,1,.27.293Z" transform="translate(-87.783 -70.077)" fill="#263238"/>
      <path id="Path_50957" data-name="Path 50957" d="M120.985,115.535a.27.27,0,0,1,.381,0,.936.936,0,0,0,.563.222.666.666,0,0,0,.349-.1.2.2,0,0,0,.087-.151.063.063,0,0,0,0-.055l-.063-.055a1.016,1.016,0,0,0-.4-.143h0a1.936,1.936,0,0,1-.444-.135.793.793,0,0,1-.349-.293.642.642,0,0,1-.087-.325.713.713,0,0,1,.3-.555,1.047,1.047,0,0,1,.627-.19,1.3,1.3,0,0,1,.793.277.277.277,0,0,1,.079.38.27.27,0,0,1-.373.071.865.865,0,0,0-.468-.19.516.516,0,0,0-.309.1.143.143,0,0,0-.079.111.087.087,0,0,0,0,.048l.056.048a1.071,1.071,0,0,0,.373.119h0a1.762,1.762,0,0,1,.476.151.745.745,0,0,1,.365.3.6.6,0,0,1,.1.333.721.721,0,0,1-.317.587,1.182,1.182,0,0,1-.666.206,1.5,1.5,0,0,1-.9-.349.285.285,0,0,1-.079-.412Z" transform="translate(-88.324 -70.104)" fill="#263238"/>
      <path id="Path_50958" data-name="Path 50958" d="M125.464,113.662a.285.285,0,0,1-.286.285h-.127v1.419a.277.277,0,0,1,.278.285.27.27,0,0,1-.278.277.571.571,0,0,1-.571-.563v-1.419h-.143a.277.277,0,0,1-.278-.285.27.27,0,0,1,.278-.277h.143v-.737a.285.285,0,0,1,.286-.277.278.278,0,0,1,.286.277v.737h.127a.285.285,0,0,1,.286.277Z" transform="translate(-88.972 -69.816)" fill="#263238"/>
      <path id="Path_50959" data-name="Path 50959" d="M129.515,115.692a.278.278,0,0,1-.555,0v-2.956h0a.277.277,0,0,1,.111-.238.294.294,0,0,1,.389.063l1.642,2.275v-2.092a.278.278,0,0,1,.555,0V115.7a.278.278,0,0,1-.492.174h0l-1.626-2.259Z" transform="translate(-89.986 -69.832)" fill="#263238"/>
      <path id="Path_50960" data-name="Path 50960" d="M135.917,114.956v1a.27.27,0,0,1-.27.269.278.278,0,0,1-.27-.222,1.111,1.111,0,0,1-.674.222,1.166,1.166,0,0,1-.865-.373,1.323,1.323,0,0,1,0-1.791,1.159,1.159,0,0,1,1.539-.159.272.272,0,0,1,.539.055Zm-.539,0a.792.792,0,0,0-.2-.523.658.658,0,0,0-.476-.206.627.627,0,0,0-.476.206.792.792,0,0,0,0,1.046.651.651,0,0,0,.476.2.682.682,0,0,0,.476-.2.792.792,0,0,0,.2-.523Z" transform="translate(-90.923 -70.087)" fill="#263238"/>
      <path id="Path_50961" data-name="Path 50961" d="M139.94,114.72v1.221a.27.27,0,0,1-.27.269.277.277,0,0,1-.278-.269V114.72a.523.523,0,0,0-1.039,0v1.244h0a.309.309,0,0,1-.254.159h-.056a.262.262,0,0,1-.214-.262V114.72h0v-.793a.272.272,0,0,1,.516-.127,1.071,1.071,0,0,1,1.34.2,1.079,1.079,0,0,1,.793-.349,1.062,1.062,0,0,1,1.055,1.07v1.2a.278.278,0,0,1-.547,0v-1.2a.523.523,0,0,0-1.047,0Z" transform="translate(-91.821 -70.081)" fill="#263238"/>
      <path id="Path_50962" data-name="Path 50962" d="M143.69,114.956a1.261,1.261,0,0,1,1.245-1.276,1.221,1.221,0,0,1,1.229,1.181h0v.048a.246.246,0,0,1-.262.206h-1.626a.72.72,0,0,0,.666.563.841.841,0,0,0,.531-.127.294.294,0,0,1,.381,0,.238.238,0,0,1,0,.333,1.3,1.3,0,0,1-.912.333,1.269,1.269,0,0,1-1.253-1.26Zm.555-.254h1.443a.841.841,0,0,0-.793-.539.714.714,0,0,0-.65.563Z" transform="translate(-93.033 -70.087)" fill="#263238"/>
      <path id="Path_50963" data-name="Path 50963" d="M148.272,113.378l-.349.277a.2.2,0,0,1-.127.048.174.174,0,0,1-.167-.174.206.206,0,0,1,.119-.159l.444-.19-.444-.2a.168.168,0,1,1,.174-.277l.381.285-.048-.46a.162.162,0,1,1,.317,0l-.056.46.389-.285a.2.2,0,0,1,.127-.048.166.166,0,0,1,.048.325l-.444.2.444.19a.19.19,0,0,1,.119.166.167.167,0,0,1-.175.166.19.19,0,0,1-.119-.048l-.389-.285.056.46a.162.162,0,1,1-.317,0Z" transform="translate(-93.848 -69.809)" fill="#ffc727"/>
      <rect id="Rectangle_10575" data-name="Rectangle 10575" width="109.396" height="10.851" transform="translate(25.539 49.72)" fill="#ebebeb"/>
      <path id="Path_50964" data-name="Path 50964" d="M112.69,147.521v-3a.27.27,0,0,1,.278-.277h1.666a.278.278,0,0,1,.278.277.285.285,0,0,1-.278.285h-1.38v.935h1.19a.285.285,0,0,1,0,.563h-1.19v.919h1.38a.285.285,0,0,1,0,.563h-1.7a.277.277,0,0,1-.246-.262Z" transform="translate(-86.62 -76.425)" fill="#263238"/>
      <path id="Path_50965" data-name="Path 50965" d="M118.56,146.555v1.221a.27.27,0,0,1-.27.269.277.277,0,0,1-.278-.269v-1.221a.524.524,0,0,0-1.039,0v1.26h0a.309.309,0,0,1-.254.159h-.056a.277.277,0,0,1-.214-.269v-1.2h0v-.793a.27.27,0,0,1,.27-.277.254.254,0,0,1,.238.151,1.111,1.111,0,0,1,.547-.151,1.055,1.055,0,0,1,.793.357,1.039,1.039,0,0,1,.793-.357,1.062,1.062,0,0,1,1.055,1.07v1.2a.27.27,0,0,1-.539,0v-1.2a.525.525,0,1,0-1.047.055Z" transform="translate(-87.398 -76.672)" fill="#263238"/>
      <path id="Path_50966" data-name="Path 50966" d="M124.617,146.8v1a.27.27,0,0,1-.531.055,1.2,1.2,0,0,1-.682.214,1.182,1.182,0,0,1-.865-.373,1.323,1.323,0,0,1,0-1.791,1.182,1.182,0,0,1,.865-.38,1.206,1.206,0,0,1,.682.222.262.262,0,0,1,.262-.222.277.277,0,0,1,.27.277Zm-.539,0a.792.792,0,0,0-.2-.523.643.643,0,0,0-.476-.206.627.627,0,0,0-.476.206.825.825,0,0,0,0,1.054.651.651,0,0,0,.476.2.666.666,0,0,0,.476-.2A.792.792,0,0,0,124.078,146.8Z" transform="translate(-88.585 -76.691)" fill="#263238"/>
      <path id="Path_50967" data-name="Path 50967" d="M127.066,144.631a.278.278,0,1,1-.547,0v-.111a.278.278,0,0,1,.547,0Zm0,.919v1.989a.278.278,0,0,1-.547,0V145.55a.278.278,0,1,1,.547,0Z" transform="translate(-89.48 -76.436)" fill="#263238"/>
      <path id="Path_50968" data-name="Path 50968" d="M128.506,144.24a.285.285,0,0,1,.286.277v3a.286.286,0,0,1-.571,0v-3a.285.285,0,0,1,.286-.277Z" transform="translate(-89.833 -76.426)" fill="#263238"/>
      <path id="Path_50969" data-name="Path 50969" d="M130.344,145.228l-.381.277a.214.214,0,0,1-.127.048.174.174,0,0,1-.167-.166.182.182,0,0,1,.119-.159l.444-.2-.444-.2a.166.166,0,0,1,.056-.325.167.167,0,0,1,.119.056l.381.277-.048-.452a.166.166,0,0,1,.159-.2.159.159,0,0,1,.159.19l-.056.46.389-.277a.167.167,0,0,1,.127-.056.174.174,0,0,1,.167.166.166.166,0,0,1-.119.159l-.452.2.452.2a.166.166,0,0,1-.056.325.19.19,0,0,1-.119-.048l-.389-.277.056.452a.162.162,0,1,1-.317,0Z" transform="translate(-90.133 -76.415)" fill="#ffc727"/>
      <rect id="Rectangle_10576" data-name="Rectangle 10576" width="234.734" height="10.851" transform="translate(25.539 74.956)" fill="#ebebeb"/>
      <path id="Path_50970" data-name="Path 50970" d="M112.49,177.259a1.863,1.863,0,0,1,1.864-1.839,1.944,1.944,0,0,1,1.182.4.309.309,0,0,1,.048.412.3.3,0,0,1-.4.055,1.277,1.277,0,0,0-.793-.277,1.349,1.349,0,0,0-.912.365,1.244,1.244,0,0,0-.373.888,1.228,1.228,0,0,0,.373.88,1.309,1.309,0,0,0,.912.365,1.293,1.293,0,0,0,.793-.277.294.294,0,1,1,.357.468,1.944,1.944,0,0,1-1.182.4,1.863,1.863,0,0,1-1.864-1.831Z" transform="translate(-86.579 -82.892)" fill="#263238"/>
      <path id="Path_50971" data-name="Path 50971" d="M117.709,179.012a1.252,1.252,0,0,1-.349-.9,1.307,1.307,0,0,1,.349-.9,1.19,1.19,0,0,1,.872-.38,1.143,1.143,0,0,1,.857.38,1.276,1.276,0,0,1,.357.9,1.22,1.22,0,0,1-.357.9,1.15,1.15,0,0,1-.857.388,1.2,1.2,0,0,1-.872-.388Zm.206-.9a.792.792,0,0,0,.182.539.7.7,0,0,0,.484.19.674.674,0,0,0,.468-.19.792.792,0,0,0,.206-.539.729.729,0,0,0-.206-.531.714.714,0,0,0-.468-.19.738.738,0,0,0-.484.19.792.792,0,0,0-.182.531Z" transform="translate(-87.586 -83.187)" fill="#263238"/>
      <path id="Path_50972" data-name="Path 50972" d="M123.647,177.894v1.221a.27.27,0,0,1-.27.27.278.278,0,0,1-.27-.269v-1.221a.523.523,0,0,0-.531-.515.507.507,0,0,0-.508.515v1.221a.1.1,0,0,1,0,.048.271.271,0,0,1-.539-.048v-2.005a.27.27,0,0,1,.27-.269.262.262,0,0,1,.246.158.976.976,0,0,1,.539-.159,1.07,1.07,0,0,1,1.063,1.054Z" transform="translate(-88.448 -83.187)" fill="#263238"/>
      <path id="Path_50973" data-name="Path 50973" d="M126.534,176.85a.285.285,0,0,1-.286.277h-.127v1.419a.285.285,0,1,1,0,.571.563.563,0,0,1-.563-.571v-1.419h-.151a.277.277,0,0,1-.278-.277.27.27,0,0,1,.278-.277h.151v-.745a.285.285,0,0,1,.286-.277.277.277,0,0,1,.278.277v.745h.127a.285.285,0,0,1,.286.277Z" transform="translate(-89.193 -82.919)" fill="#263238"/>
      <path id="Path_50974" data-name="Path 50974" d="M129.917,178.116v1a.27.27,0,0,1-.27.269.278.278,0,0,1-.27-.222,1.166,1.166,0,0,1-.674.222,1.182,1.182,0,0,1-.865-.373,1.307,1.307,0,0,1-.349-.9,1.276,1.276,0,0,1,.349-.9,1.159,1.159,0,0,1,1.539-.159.278.278,0,0,1,.27-.222.27.27,0,0,1,.27.269Zm-.539,0a.792.792,0,0,0-.2-.523.619.619,0,0,0-.476-.214.611.611,0,0,0-.476.214.814.814,0,0,0,0,1.046.651.651,0,0,0,.476.2.667.667,0,0,0,.476-.2.792.792,0,0,0,.2-.523Z" transform="translate(-89.682 -83.187)" fill="#263238"/>
      <path id="Path_50975" data-name="Path 50975" d="M131.58,178.116a1.292,1.292,0,0,1,1.3-1.276,1.365,1.365,0,0,1,.793.277.285.285,0,0,1,.056.373.27.27,0,0,1-.381.055.849.849,0,0,0-.484-.166.737.737,0,1,0,0,1.466.849.849,0,0,0,.484-.166.278.278,0,0,1,.381.055.293.293,0,0,1-.056.38,1.412,1.412,0,0,1-.793.269A1.292,1.292,0,0,1,131.58,178.116Z" transform="translate(-90.528 -83.187)" fill="#263238"/>
      <path id="Path_50976" data-name="Path 50976" d="M136.554,176.85a.285.285,0,0,1-.286.277h-.127v1.419a.285.285,0,1,1,0,.571.563.563,0,0,1-.563-.571v-1.419h-.151a.277.277,0,0,1-.278-.277.27.27,0,0,1,.278-.277h.151v-.745a.285.285,0,0,1,.286-.277.277.277,0,0,1,.278.277v.745h.127A.285.285,0,0,1,136.554,176.85Z" transform="translate(-91.266 -82.919)" fill="#263238"/>
      <path id="Path_50977" data-name="Path 50977" d="M140.605,178.849a.285.285,0,0,1-.278.285.277.277,0,0,1-.278-.285v-2.925h0a.269.269,0,0,1,.111-.238.278.278,0,0,1,.389.063l1.642,2.275v-2.1a.278.278,0,0,1,.555,0v2.956a.285.285,0,0,1-.278.285.262.262,0,0,1-.206-.1h0l-1.658-2.346Z" transform="translate(-92.28 -82.937)" fill="#263238"/>
      <path id="Path_50978" data-name="Path 50978" d="M145.923,179.384a1.07,1.07,0,0,1-1.063-1.062v-1.213a.27.27,0,0,1,.539,0v1.213a.515.515,0,0,0,.523.523.531.531,0,0,0,.531-.523v-1.213a.27.27,0,0,1,.262-.269.285.285,0,0,1,.278.269v1.213A1.078,1.078,0,0,1,145.923,179.384Z" transform="translate(-93.275 -83.187)" fill="#263238"/>
      <path id="Path_50979" data-name="Path 50979" d="M151,177.88h0v1.213a.277.277,0,0,1-.27.269.285.285,0,0,1-.278-.269V177.88h0a.523.523,0,0,0-1.039,0v1.26h0a.278.278,0,0,1-.254.166h-.048a.277.277,0,0,1-.222-.262v-1.213h0v-.793a.27.27,0,0,1,.27-.269.254.254,0,0,1,.246.151,1.1,1.1,0,0,1,.547-.151,1.063,1.063,0,0,1,.793.349,1.024,1.024,0,0,1,.793-.349,1.062,1.062,0,0,1,1.063,1.062v1.213a.27.27,0,0,1-.27.269.277.277,0,0,1-.278-.269v-1.213a.524.524,0,0,0-1.039,0Z" transform="translate(-94.109 -83.172)" fill="#263238"/>
      <path id="Path_50980" data-name="Path 50980" d="M155,177.849h0v-2.021a.278.278,0,0,1,.555,0v.959a1.2,1.2,0,0,1,.682-.214,1.276,1.276,0,0,1,0,2.544,1.214,1.214,0,0,1-.69-.222.27.27,0,0,1-.27.222.278.278,0,0,1-.278-.277Zm.555,0a.713.713,0,0,0,.206.5.635.635,0,0,0,.476.214.651.651,0,0,0,.476-.214.681.681,0,0,0,.206-.5.689.689,0,0,0-.206-.515.643.643,0,0,0-.476-.206.627.627,0,0,0-.476.206.721.721,0,0,0-.23.515Z" transform="translate(-95.373 -82.919)" fill="#263238"/>
      <path id="Path_50981" data-name="Path 50981" d="M159,178.108a1.253,1.253,0,0,1,1.237-1.268,1.213,1.213,0,0,1,1.229,1.181h0a.119.119,0,0,1,0,.048.238.238,0,0,1-.262.2h-1.586a.642.642,0,0,0,.174.341.793.793,0,0,0,.484.23.849.849,0,0,0,.531-.135.278.278,0,0,1,.381,0,.23.23,0,0,1,0,.325,1.277,1.277,0,0,1-.912.341,1.261,1.261,0,0,1-1.277-1.26Zm.555-.246h1.436a.793.793,0,0,0-.753-.539.7.7,0,0,0-.69.539Z" transform="translate(-96.2 -83.187)" fill="#263238"/>
      <path id="Path_50982" data-name="Path 50982" d="M164.59,177.1a.278.278,0,0,1-.278.27.508.508,0,0,0-.3.1.88.88,0,0,0-.238.246,1.521,1.521,0,0,0-.206.428v.967a.278.278,0,0,1-.278.27.27.27,0,0,1-.27-.27V177.1a.27.27,0,0,1,.27-.269.277.277,0,0,1,.278.269h0a.681.681,0,0,1,.111-.1,1.135,1.135,0,0,1,.635-.2.27.27,0,0,1,.278.3Z" transform="translate(-97.032 -83.179)" fill="#263238"/>
      <path id="Path_50983" data-name="Path 50983" d="M166.5,176.54l-.381.277a.222.222,0,0,1-.127.055.174.174,0,0,1-.056-.333l.452-.19-.452-.2a.2.2,0,0,1-.111-.159.174.174,0,0,1,.167-.174.182.182,0,0,1,.127.055l.381.277-.048-.452a.159.159,0,0,1,.159-.19.151.151,0,0,1,.151.182l-.048.46.381-.277a.183.183,0,0,1,.127-.055.166.166,0,0,1,.167.174.182.182,0,0,1-.111.159l-.452.2.452.19a.172.172,0,0,1-.056.333.222.222,0,0,1-.127-.055l-.381-.277.048.452a.159.159,0,1,1-.309.008Z" transform="translate(-97.613 -82.911)" fill="#ffc727"/>
      <rect id="Rectangle_10577" data-name="Rectangle 10577" width="234.734" height="10.851" transform="translate(25.539 99.772)" fill="#ebebeb"/>
      <path id="Path_50984" data-name="Path 50984" d="M114.469,208.743h-1.237l-.254.666a.278.278,0,0,1-.262.174h-.1a.277.277,0,0,1-.167-.365l1.126-3a.286.286,0,0,1,.27-.182.3.3,0,0,1,.27.182l1.142,2.956a.285.285,0,0,1-.174.365h-.1a.286.286,0,0,1-.262-.174Zm-.206-.555-.412-1.1-.412,1.1Z" transform="translate(-86.567 -89.243)" fill="#263238"/>
      <path id="Path_50985" data-name="Path 50985" d="M118.863,209.3a.277.277,0,0,1-.27.277.27.27,0,0,1-.27-.222,1.261,1.261,0,1,1-.7-2.322,1.166,1.166,0,0,1,.682.214v-.959a.278.278,0,0,1,.286-.269.27.27,0,0,1,.27.269v2.021h0Zm-1.2-1.712a.674.674,0,0,0-.476.206.737.737,0,0,0-.206.515.721.721,0,0,0,.206.507.659.659,0,0,0,.96,0,.713.713,0,0,0,.2-.507.729.729,0,0,0-.2-.515.674.674,0,0,0-.484-.206Z" transform="translate(-87.384 -89.239)" fill="#263238"/>
      <path id="Path_50986" data-name="Path 50986" d="M122.41,207.571a.27.27,0,0,1-.27.269.492.492,0,0,0-.3.1.793.793,0,0,0-.238.246,1.632,1.632,0,0,0-.206.428v.967a.278.278,0,0,1-.286.269.27.27,0,0,1-.27-.269v-2.005a.278.278,0,0,1,.555,0v.04a.634.634,0,0,1,.1-.1,1.1,1.1,0,0,1,.642-.2.262.262,0,0,1,.27.262Z" transform="translate(-88.306 -89.506)" fill="#263238"/>
      <path id="Path_50987" data-name="Path 50987" d="M123.12,208.576a1.261,1.261,0,0,1,1.237-1.276,1.213,1.213,0,0,1,1.229,1.181v.071a.254.254,0,0,1-.27.206h-1.586a.65.65,0,0,0,.174.333.814.814,0,0,0,1.015.1.294.294,0,0,1,.381,0,.23.23,0,0,1,0,.333,1.285,1.285,0,0,1-2.149-.935Zm.555-.254h1.443a.849.849,0,0,0-.793-.539.714.714,0,0,0-.65.539Z" transform="translate(-88.778 -89.504)" fill="#263238"/>
      <path id="Path_50988" data-name="Path 50988" d="M127.088,209.115a.27.27,0,0,1,.381-.04.936.936,0,0,0,.563.222.666.666,0,0,0,.349-.1.2.2,0,0,0,.087-.151.063.063,0,0,0,0-.048l-.063-.063a1.015,1.015,0,0,0-.412-.143h0a1.936,1.936,0,0,1-.444-.135.793.793,0,0,1-.349-.293.642.642,0,0,1-.087-.325.7.7,0,0,1,.3-.555,1.047,1.047,0,0,1,.627-.19,1.325,1.325,0,0,1,.793.277.285.285,0,0,1,.079.38.27.27,0,0,1-.373.071.865.865,0,0,0-.468-.19.492.492,0,0,0-.309.1.143.143,0,0,0-.079.111.087.087,0,0,0,0,.048l.056.048a.881.881,0,0,0,.373.119h0a1.961,1.961,0,0,1,.476.151.793.793,0,0,1,.365.3.681.681,0,0,1,.1.333.729.729,0,0,1-.325.587,1.159,1.159,0,0,1-.658.206,1.5,1.5,0,0,1-.9-.349A.269.269,0,0,1,127.088,209.115Z" transform="translate(-89.589 -89.504)" fill="#263238"/>
      <path id="Path_50989" data-name="Path 50989" d="M130.187,209.115a.27.27,0,0,1,.381-.04.912.912,0,0,0,.555.222.627.627,0,0,0,.349-.1c.071-.063.1-.111.1-.151a.063.063,0,0,0,0-.048.143.143,0,0,0-.071-.063,1.015,1.015,0,0,0-.4-.143h0a1.754,1.754,0,0,1-.436-.135.849.849,0,0,1-.357-.293.642.642,0,0,1-.087-.325.713.713,0,0,1,.3-.555,1.079,1.079,0,0,1,.627-.19,1.349,1.349,0,0,1,.793.277.293.293,0,0,1,.079.38.278.278,0,0,1-.381.071.794.794,0,0,0-.468-.19.468.468,0,0,0-.3.1c-.071.04-.087.087-.087.111v.048c0,.048,0,0,.056.048a.881.881,0,0,0,.373.119h0a1.961,1.961,0,0,1,.476.151.793.793,0,0,1,.357.3.6.6,0,0,1,.1.333.721.721,0,0,1-.317.587,1.167,1.167,0,0,1-.666.206,1.523,1.523,0,0,1-.9-.349A.277.277,0,0,1,130.187,209.115Z" transform="translate(-90.23 -89.504)" fill="#263238"/>
      <path id="Path_50990" data-name="Path 50990" d="M134.082,207l-.389.285a.2.2,0,0,1-.127.048.174.174,0,0,1-.167-.174.206.206,0,0,1,.119-.159l.444-.19-.444-.2a.168.168,0,1,1,.174-.277l.389.285-.056-.46a.162.162,0,1,1,.317,0l-.048.46.381-.285a.2.2,0,0,1,.127-.048.166.166,0,0,1,.048.325l-.444.2.444.19a.19.19,0,0,1,.119.166.167.167,0,0,1-.175.166.191.191,0,0,1-.119-.048L134.3,207l.048.46a.162.162,0,1,1-.317,0Z" transform="translate(-90.904 -89.229)" fill="#ffc727"/>
      <rect id="Rectangle_10578" data-name="Rectangle 10578" width="234.734" height="10.851" transform="translate(25.539 123.922)" fill="#ebebeb"/>
      <path id="Path_50991" data-name="Path 50991" d="M270.72,115.681v-3A.278.278,0,0,1,271,112.4a.285.285,0,0,1,.286.277V115.4h1.38a.285.285,0,0,1,0,.563H271a.278.278,0,0,1-.278-.277Z" transform="translate(-119.312 -69.822)" fill="#263238"/>
      <path id="Path_50992" data-name="Path 50992" d="M276.367,114.956v1a.268.268,0,0,1-.531.048,1.151,1.151,0,0,1-.682.222,1.19,1.19,0,0,1-.864-.373,1.323,1.323,0,0,1,0-1.791,1.166,1.166,0,0,1,1.547-.159.27.27,0,0,1,.531.055Zm-.539,0a.792.792,0,0,0-.2-.523.627.627,0,0,0-.476-.206.6.6,0,0,0-.468.206.792.792,0,0,0,0,1.046.619.619,0,0,0,.468.2.651.651,0,0,0,.476-.2.792.792,0,0,0,.182-.523Z" transform="translate(-119.978 -70.087)" fill="#263238"/>
      <path id="Path_50993" data-name="Path 50993" d="M278.073,115.535a.27.27,0,0,1,.381,0,.9.9,0,0,0,.555.222.627.627,0,0,0,.349-.1c.071-.063.1-.111.1-.151a.111.111,0,0,0,0-.055.206.206,0,0,0-.071-.055,1.016,1.016,0,0,0-.4-.143h0a1.936,1.936,0,0,1-.444-.135.88.88,0,0,1-.349-.293.642.642,0,0,1-.087-.325.713.713,0,0,1,.3-.555,1.079,1.079,0,0,1,.627-.19,1.3,1.3,0,0,1,.793.277.285.285,0,0,1,.087.38.278.278,0,0,1-.381.071.793.793,0,0,0-.468-.19.468.468,0,0,0-.3.1c-.071,0-.087.087-.087.111v.048c0,.048,0,0,.056.048a1.016,1.016,0,0,0,.373.119h0a1.96,1.96,0,0,1,.476.151.793.793,0,0,1,.357.3.6.6,0,0,1,.1.333.721.721,0,0,1-.317.587,1.166,1.166,0,0,1-.666.206,1.523,1.523,0,0,1-.9-.349.277.277,0,0,1-.064-.412Z" transform="translate(-120.82 -70.104)" fill="#263238"/>
      <path id="Path_50994" data-name="Path 50994" d="M282.574,113.662a.285.285,0,0,1-.286.285h-.127v1.419a.285.285,0,0,1,.285.285.277.277,0,0,1-.285.277.563.563,0,0,1-.563-.563v-1.419h-.151a.278.278,0,0,1-.278-.285.27.27,0,0,1,.278-.277h.151v-.737a.277.277,0,0,1,.286-.277.27.27,0,0,1,.278.277v.737h.127a.278.278,0,0,1,.286.277Z" transform="translate(-121.474 -69.816)" fill="#263238"/>
      <path id="Path_50995" data-name="Path 50995" d="M286.625,115.692a.278.278,0,0,1-.555,0v-2.956h0a.277.277,0,0,1,.111-.238.294.294,0,0,1,.389.063l1.642,2.275v-2.092a.278.278,0,0,1,.555,0V115.7a.277.277,0,0,1-.278.277.262.262,0,0,1-.206-.1h0l-1.634-2.259Z" transform="translate(-122.488 -69.832)" fill="#263238"/>
      <path id="Path_50996" data-name="Path 50996" d="M293.029,114.96v1a.27.27,0,0,1-.27.269.278.278,0,0,1-.262-.222,1.151,1.151,0,0,1-.682.222,1.19,1.19,0,0,1-.865-.372,1.347,1.347,0,0,1,0-1.791,1.166,1.166,0,0,1,1.555-.127.278.278,0,0,1,.262-.222.27.27,0,0,1,.27.277Zm-.539,0a.721.721,0,0,0-.2-.523.627.627,0,0,0-.476-.206.6.6,0,0,0-.468.206.792.792,0,0,0,0,1.046.619.619,0,0,0,.468.2.65.65,0,0,0,.476-.2.721.721,0,0,0,.214-.523Z" transform="translate(-123.427 -70.091)" fill="#263238"/>
      <path id="Path_50997" data-name="Path 50997" d="M297.06,114.72v1.221a.27.27,0,0,1-.27.269.277.277,0,0,1-.278-.269V114.72a.523.523,0,0,0-.523-.507.515.515,0,0,0-.516.523v1.2h0a.286.286,0,0,1-.254.159h-.048a.262.262,0,0,1-.222-.262V114.72h0v-.793a.278.278,0,0,1,.27-.277.254.254,0,0,1,.246.151,1.087,1.087,0,0,1,1.348.2,1.047,1.047,0,0,1,.793-.349,1.062,1.062,0,0,1,1.063,1.07v1.2a.27.27,0,0,1-.27.269.277.277,0,0,1-.278-.269v-1.2a.515.515,0,0,0-.516-.523.523.523,0,0,0-.547.523Z" transform="translate(-124.325 -70.081)" fill="#263238"/>
      <path id="Path_50998" data-name="Path 50998" d="M300.81,114.956a1.253,1.253,0,0,1,1.237-1.276,1.213,1.213,0,0,1,1.229,1.181h0v.048a.246.246,0,0,1-.262.206h-1.586a.65.65,0,0,0,.174.333.793.793,0,0,0,.484.23.841.841,0,0,0,.531-.127.294.294,0,0,1,.381,0,.23.23,0,0,1,0,.333,1.27,1.27,0,0,1-.912.333,1.253,1.253,0,0,1-1.277-1.26Zm.547-.254H302.8a.793.793,0,0,0-.753-.539.73.73,0,0,0-.69.563Z" transform="translate(-125.537 -70.087)" fill="#263238"/>
      <path id="Path_50999" data-name="Path 50999" d="M305.382,113.38l-.381.285a.23.23,0,0,1-.127.048.174.174,0,0,1-.174-.174.206.206,0,0,1,.119-.159l.452-.19-.452-.2a.174.174,0,0,1-.119-.159.182.182,0,0,1,.174-.166.214.214,0,0,1,.127.048l.381.285-.056-.46a.166.166,0,0,1,.159-.19.159.159,0,0,1,.159.19l-.048.46.381-.285a.214.214,0,0,1,.127-.048.166.166,0,0,1,.167.166.174.174,0,0,1-.119.159l-.444.2.444.19a.19.19,0,0,1,.119.166.167.167,0,0,1-.174.166.206.206,0,0,1-.119-.048l-.381-.285.048.46a.159.159,0,0,1-.317,0Z" transform="translate(-126.342 -69.811)" fill="#ffc727"/>
      <rect id="Rectangle_10579" data-name="Rectangle 10579" width="109.396" height="10.851" transform="translate(150.876 49.72)" fill="#ebebeb"/>
      <path id="Path_51000" data-name="Path 51000" d="M112.49,238.891a1.863,1.863,0,0,1,1.864-1.831,1.9,1.9,0,0,1,1.182.4.291.291,0,0,1-.357.46,1.278,1.278,0,0,0-.793-.277,1.349,1.349,0,0,0-.912.365,1.244,1.244,0,0,0,0,1.775,1.349,1.349,0,0,0,.912.365,1.262,1.262,0,0,0,.793-.285.309.309,0,0,1,.4.063.293.293,0,0,1-.048.4,1.944,1.944,0,0,1-1.182.4,1.855,1.855,0,0,1-1.864-1.831Z" transform="translate(-86.579 -95.677)" fill="#263238"/>
      <path id="Path_51001" data-name="Path 51001" d="M118.125,237.568a.278.278,0,0,1-.555,0v-.111a.278.278,0,0,1,.555,0Zm0,.919v1.981a.27.27,0,0,1-.278.277.277.277,0,0,1-.278-.277v-1.982a.278.278,0,1,1,.555,0Z" transform="translate(-87.629 -95.702)" fill="#263238"/>
      <path id="Path_51002" data-name="Path 51002" d="M120.454,238.474a.293.293,0,0,1-.286.285h-.127V240.2a.277.277,0,0,1,.278.285.27.27,0,0,1-.278.277.563.563,0,0,1-.563-.563v-1.419h-.151a.285.285,0,0,1-.278-.285.27.27,0,0,1,.278-.277h.151v-.737a.285.285,0,1,1,.563,0v.737h.127A.285.285,0,0,1,120.454,238.474Z" transform="translate(-87.936 -95.695)" fill="#263238"/>
      <path id="Path_51003" data-name="Path 51003" d="M123.806,238.739v1.926a1.205,1.205,0,0,1-1.213,1.213,1.158,1.158,0,0,1-.523-.127.269.269,0,0,1-.135-.365.286.286,0,0,1,.365-.111.643.643,0,0,0,.293.071.658.658,0,0,0,.635-.46,1.016,1.016,0,0,1-.484.119,1.07,1.07,0,0,1-1.063-1.07v-1.2a.27.27,0,0,1,.262-.269.262.262,0,0,1,.27.269v1.2a.523.523,0,0,0,.531.523.515.515,0,0,0,.523-.523v-1.2a.262.262,0,0,1,.27-.269A.27.27,0,0,1,123.806,238.739Z" transform="translate(-88.48 -95.969)" fill="#263238"/>
      <path id="Path_51004" data-name="Path 51004" d="M126.284,238.17l-.381.285a.246.246,0,0,1-.127.048.174.174,0,0,1-.167-.174.206.206,0,0,1,.119-.159l.444-.19-.444-.2a.174.174,0,0,1-.119-.159.166.166,0,0,1,.174-.166.174.174,0,0,1,.119.048l.381.285-.048-.46a.162.162,0,1,1,.317,0l-.056.46.389-.285a.2.2,0,0,1,.127-.048.167.167,0,0,1,.167.166.174.174,0,0,1-.119.159l-.444.2.444.19a.19.19,0,0,1,.119.166.174.174,0,0,1-.174.166.254.254,0,0,1-.119-.048l-.389-.285.056.452a.166.166,0,0,1-.159.2.159.159,0,0,1-.159-.19Z" transform="translate(-89.293 -95.693)" fill="#ffc727"/>
      <rect id="Rectangle_10580" data-name="Rectangle 10580" width="109.396" height="10.851" transform="translate(25.539 148.628)" fill="#ebebeb"/>
      <path id="Path_51005" data-name="Path 51005" d="M273.231,237.725l-1.872,2.576H273a.285.285,0,0,1,.285.285.277.277,0,0,1-.285.277h-2.356v-.048h0v-.063h0l1.864-2.552h-1.642a.285.285,0,0,1-.278-.285.278.278,0,0,1,.278-.285h2.308v.055h0Z" transform="translate(-119.285 -95.795)" fill="#263238"/>
      <path id="Path_51006" data-name="Path 51006" d="M275.05,237.465a.278.278,0,0,1,.278-.285.285.285,0,0,1,.285.285v3a.285.285,0,0,1-.285.277.27.27,0,0,1-.278-.277Z" transform="translate(-120.208 -95.702)" fill="#263238"/>
      <path id="Path_51007" data-name="Path 51007" d="M278.158,239.359h-.627v1.11a.286.286,0,0,1-.571,0v-3a.285.285,0,0,1,.286-.285h.912a1.094,1.094,0,1,1,0,2.18Zm-.627-.563h.627a.523.523,0,1,0,0-1.046h-.627Z" transform="translate(-120.603 -95.701)" fill="#263238"/>
      <path id="Path_51008" data-name="Path 51008" d="M282.43,238.891a1.888,1.888,0,0,1,3.046-1.435.3.3,0,0,1,.056.4.294.294,0,0,1-.4.055,1.293,1.293,0,0,0-.793-.277,1.349,1.349,0,0,0-.912.365,1.244,1.244,0,0,0,0,1.775,1.349,1.349,0,0,0,.912.365,1.262,1.262,0,0,0,.793-.285.309.309,0,0,1,.4.063.293.293,0,0,1-.056.4,1.9,1.9,0,0,1-1.174.4A1.863,1.863,0,0,1,282.43,238.891Z" transform="translate(-121.735 -95.677)" fill="#263238"/>
      <path id="Path_51009" data-name="Path 51009" d="M287.657,240.642a1.26,1.26,0,0,1-.357-.9,1.292,1.292,0,0,1,.357-.888,1.166,1.166,0,0,1,.872-.388,1.1,1.1,0,0,1,.849.388,1.26,1.26,0,0,1,.357.888,1.22,1.22,0,0,1-.357.9,1.119,1.119,0,0,1-.849.388A1.2,1.2,0,0,1,287.657,240.642Zm.2-.9a.792.792,0,0,0,.19.539.666.666,0,0,0,.484.19.643.643,0,0,0,.468-.19.821.821,0,0,0,0-1.07.714.714,0,0,0-.468-.19.738.738,0,0,0-.484.19A.792.792,0,0,0,287.855,239.746Z" transform="translate(-122.742 -95.969)" fill="#263238"/>
      <path id="Path_51010" data-name="Path 51010" d="M293.748,240.48a.278.278,0,0,1-.278.277.27.27,0,0,1-.27-.222,1.238,1.238,0,0,1-.7.222,1.276,1.276,0,0,1,0-2.544,1.166,1.166,0,0,1,.682.214v-.959a.286.286,0,0,1,.563,0v2.013h0Zm-1.245-1.712a.674.674,0,0,0-.476.206.721.721,0,0,0-.206.515.737.737,0,0,0,.206.507.659.659,0,0,0,.96,0,.729.729,0,0,0,.2-.507.721.721,0,0,0-.2-.515.674.674,0,0,0-.484-.206Z" transform="translate(-123.575 -95.712)" fill="#263238"/>
      <path id="Path_51011" data-name="Path 51011" d="M295.38,239.738a1.261,1.261,0,0,1,1.245-1.268,1.213,1.213,0,0,1,1.229,1.213h0v.048a.246.246,0,0,1-.262.206h-1.586a.7.7,0,0,0,.167.333.793.793,0,0,0,1.023.1.294.294,0,0,1,.381,0,.238.238,0,0,1,0,.333,1.309,1.309,0,0,1-.912.333,1.269,1.269,0,0,1-1.285-1.3Zm.555-.246h1.444a.793.793,0,0,0-.753-.539.722.722,0,0,0-.69.539Z" transform="translate(-124.414 -95.969)" fill="#263238"/>
      <path id="Path_51012" data-name="Path 51012" d="M299.962,238.17l-.381.285a.318.318,0,0,1-.127.048.174.174,0,0,1-.174-.174.206.206,0,0,1,.119-.159l.452-.19-.452-.2a.166.166,0,0,1,.056-.325.214.214,0,0,1,.127.048l.381.285-.056-.46a.162.162,0,1,1,.317,0l-.048.46.381-.285a.214.214,0,0,1,.127-.048.167.167,0,0,1,.167.166.174.174,0,0,1-.119.159l-.444.2.444.19a.19.19,0,0,1,.119.166.174.174,0,0,1-.174.166.285.285,0,0,1-.119-.048l-.381-.285.048.452a.166.166,0,0,1-.159.2.159.159,0,0,1-.159-.19Z" transform="translate(-125.22 -95.693)" fill="#ffc727"/>
      <rect id="Rectangle_10581" data-name="Rectangle 10581" width="109.396" height="10.851" transform="translate(150.876 148.628)" fill="#ebebeb"/>
      <path id="Path_51013" data-name="Path 51013" d="M113.879,270.429h-.627v1.1a.285.285,0,1,1-.563,0v-3a.278.278,0,0,1,.278-.277h.912a1.094,1.094,0,1,1,0,2.18Zm-.627-.563h.627a.531.531,0,1,0,0-1.054h-.627Z" transform="translate(-86.619 -102.145)" fill="#263238"/>
      <path id="Path_51014" data-name="Path 51014" d="M118.447,270.766v1a.277.277,0,0,1-.27.269.285.285,0,0,1-.27-.222,1.166,1.166,0,0,1-1.539-.151,1.307,1.307,0,0,1-.349-.9,1.268,1.268,0,0,1,.349-.9,1.142,1.142,0,0,1,.865-.38,1.111,1.111,0,0,1,.674.222.278.278,0,0,1,.27-.222.27.27,0,0,1,.27.269Zm-.539,0a.792.792,0,0,0-.2-.523.635.635,0,0,0-.476-.214.611.611,0,0,0-.476.214.814.814,0,0,0,0,1.046.651.651,0,0,0,.476.2.682.682,0,0,0,.476-.2A.792.792,0,0,0,117.908,270.766Z" transform="translate(-87.309 -102.403)" fill="#263238"/>
      <path id="Path_51015" data-name="Path 51015" d="M120.163,271.315a.254.254,0,0,1,.381,0,.936.936,0,0,0,.563.222.794.794,0,0,0,.349-.1.2.2,0,0,0,.087-.159s0,0,0-.048,0-.04-.063-.063a1.349,1.349,0,0,0-.4-.143h0a2.422,2.422,0,0,1-.444-.127.849.849,0,0,1-.349-.3.594.594,0,0,1-.087-.317.721.721,0,0,1,.3-.563,1.1,1.1,0,0,1,.627-.182,1.3,1.3,0,0,1,.793.277.269.269,0,0,1,.079.372.262.262,0,0,1-.373.071.913.913,0,0,0-.468-.182.572.572,0,0,0-.309.087.166.166,0,0,0-.079.119.071.071,0,0,0,0,.04.183.183,0,0,0,.056.048,1.048,1.048,0,0,0,.373.127h0a1.762,1.762,0,0,1,.476.151.793.793,0,0,1,.365.3.642.642,0,0,1,.1.333.737.737,0,0,1-.317.594,1.182,1.182,0,0,1-.666.206,1.46,1.46,0,0,1-.9-.357.269.269,0,0,1-.079-.412Z" transform="translate(-88.153 -102.413)" fill="#263238"/>
      <path id="Path_51016" data-name="Path 51016" d="M123.26,271.315a.254.254,0,0,1,.381,0,.936.936,0,0,0,.563.222.7.7,0,0,0,.341-.1c.071-.063.1-.111.1-.159a.087.087,0,0,0,0-.048.15.15,0,0,0-.063-.063,1.414,1.414,0,0,0-.412-.143h0a2.253,2.253,0,0,1-.444-.127.872.872,0,0,1-.357-.3.586.586,0,0,1-.079-.317.713.713,0,0,1,.293-.563,1.135,1.135,0,0,1,.627-.182,1.333,1.333,0,0,1,.793.277.277.277,0,0,1,.079.373.262.262,0,0,1-.373.071.913.913,0,0,0-.476-.182.524.524,0,0,0-.3.087.143.143,0,0,0-.079.119.071.071,0,0,0,0,.04l.056.048a.993.993,0,0,0,.373.127h0a1.958,1.958,0,0,1,.476.151.793.793,0,0,1,.357.3.658.658,0,0,1,.1.333.745.745,0,0,1-.325.594,1.159,1.159,0,0,1-.658.206,1.5,1.5,0,0,1-.912-.357.261.261,0,0,1-.056-.412Z" transform="translate(-88.791 -102.413)" fill="#263238"/>
      <path id="Path_51017" data-name="Path 51017" d="M129.739,269.9l-.841,1.974v.04h-.254a.079.079,0,0,1-.04,0h0v-.04l-.373-.88-.365.88a.071.071,0,0,1,0,.04h-.309v-.04l-1.213-1.974a.261.261,0,0,1,.143-.349.254.254,0,0,1,.341.151l.6,1.371.357-.856a.262.262,0,0,1,.246-.158.27.27,0,0,1,.254.158l.357.856.6-1.371a.254.254,0,0,1,.341-.151.269.269,0,0,1,.151.349Z" transform="translate(-89.44 -102.412)" fill="#263238"/>
      <path id="Path_51018" data-name="Path 51018" d="M132.069,271.662a1.3,1.3,0,0,1-.349-.9,1.347,1.347,0,0,1,.349-.9,1.19,1.19,0,0,1,.88-.38,1.119,1.119,0,0,1,.849.38,1.276,1.276,0,0,1,.357.9,1.236,1.236,0,0,1-.357.9,1.127,1.127,0,0,1-.849.388A1.2,1.2,0,0,1,132.069,271.662Zm.206-.9a.792.792,0,0,0,.182.539.706.706,0,0,0,.492.19.69.69,0,0,0,.468-.19.821.821,0,0,0,0-1.07.73.73,0,0,0-.468-.19.738.738,0,0,0-.492.19A.792.792,0,0,0,132.275,270.766Z" transform="translate(-90.557 -102.403)" fill="#263238"/>
      <path id="Path_51019" data-name="Path 51019" d="M137.32,269.751a.278.278,0,0,1-.27.27.429.429,0,0,0-.3.1.642.642,0,0,0-.238.246,1.522,1.522,0,0,0-.206.428v.967a.278.278,0,0,1-.555,0v-2.005a.27.27,0,0,1,.27-.27.278.278,0,0,1,.286.27h0a.634.634,0,0,1,.1-.1,1.166,1.166,0,0,1,.642-.2.27.27,0,0,1,.27.3Z" transform="translate(-91.39 -102.395)" fill="#263238"/>
      <path id="Path_51020" data-name="Path 51020" d="M140.69,271.489a.277.277,0,0,1-.278.277.285.285,0,0,1-.27-.222,1.214,1.214,0,0,1-.69.222,1.276,1.276,0,0,1,0-2.544,1.238,1.238,0,0,1,.682.206v-.951a.278.278,0,0,1,.555,0v2.013h0Zm-1.237-1.712a.643.643,0,0,0-.476.206.721.721,0,0,0-.206.515.713.713,0,0,0,.206.5.651.651,0,0,0,.476.214.635.635,0,0,0,.476-.214.713.713,0,0,0,.206-.5.721.721,0,0,0-.206-.515.627.627,0,0,0-.476-.206Z" transform="translate(-91.913 -102.135)" fill="#263238"/>
      <path id="Path_51021" data-name="Path 51021" d="M143.222,269.19l-.389.277a.206.206,0,0,1-.127.055.17.17,0,0,1-.048-.333l.444-.19-.444-.206a.166.166,0,0,1-.119-.151.174.174,0,0,1,.175-.174.151.151,0,0,1,.119.055l.389.277-.056-.452a.159.159,0,0,1,.159-.19.151.151,0,0,1,.159.182l-.048.46.381-.277a.167.167,0,0,1,.127-.055.174.174,0,0,1,.167.174.159.159,0,0,1-.119.151l-.444.206.444.19a.17.17,0,0,1-.056.333.206.206,0,0,1-.119-.055l-.381-.277.048.452a.158.158,0,0,1-.159.19.151.151,0,0,1-.159-.182Z" transform="translate(-92.795 -102.127)" fill="#ffc727"/>
      <rect id="Rectangle_10582" data-name="Rectangle 10582" width="109.396" height="10.851" transform="translate(25.539 173.206)" fill="#ebebeb"/>
      <path id="Path_51022" data-name="Path 51022" d="M395.474,288.353H345.61V276.71h49.864Zm-49.071-.793h48.278V277.5H346.4Z" transform="translate(-134.805 -103.9)" fill="#e27e28"/>
      <rect id="Rectangle_10583" data-name="Rectangle 10583" width="49.071" height="10.851" transform="translate(151.091 173.206)" fill="#e27e28"/>
      <path id="Path_51023" data-name="Path 51023" d="M290.3,283.982a.254.254,0,0,1,.365,0,1.682,1.682,0,0,0,.976.388,1.1,1.1,0,0,0,.634-.182.468.468,0,0,0,.222-.373.27.27,0,0,0-.048-.159.389.389,0,0,0-.151-.151,1.912,1.912,0,0,0-.7-.246h0a2.382,2.382,0,0,1-.658-.2,1.055,1.055,0,0,1-.476-.4.793.793,0,0,1-.119-.412.935.935,0,0,1,.412-.745,1.484,1.484,0,0,1,.88-.27,2.008,2.008,0,0,1,1.11.4.269.269,0,0,1,.071.365.254.254,0,0,1-.365.071,1.531,1.531,0,0,0-.793-.325.96.96,0,0,0-.571.174.412.412,0,0,0-.19.325.293.293,0,0,0,0,.143.42.42,0,0,0,.135.127,1.8,1.8,0,0,0,.642.23h0a2.627,2.627,0,0,1,.706.214,1.15,1.15,0,0,1,.508.42.84.84,0,0,1,.119.428.991.991,0,0,1-.436.793,1.587,1.587,0,0,1-.944.293,2.2,2.2,0,0,1-1.3-.515.269.269,0,0,1-.032-.4Z" transform="translate(-123.347 -104.84)" fill="#fff"/>
      <path id="Path_51024" data-name="Path 51024" d="M295.665,285.165a1.062,1.062,0,0,1-1.055-1.054v-1.181a.27.27,0,0,1,.539,0v1.221a.515.515,0,0,0,.516.515.531.531,0,0,0,.539-.515v-1.221a.27.27,0,0,1,.262-.269.285.285,0,0,1,.278.269v1.221A1.078,1.078,0,0,1,295.665,285.165Z" transform="translate(-124.254 -105.134)" fill="#fff"/>
      <path id="Path_51025" data-name="Path 51025" d="M298.61,283.621h0V281.6a.278.278,0,0,1,.555,0v.959a1.182,1.182,0,0,1,.682-.214,1.276,1.276,0,1,1-.69,2.33.277.277,0,0,1-.547-.063Zm.555,0a.721.721,0,0,0,.206.507.627.627,0,0,0,.476.206.643.643,0,0,0,.476-.206.721.721,0,0,0,.206-.507.736.736,0,0,0-.206-.515.674.674,0,0,0-.476-.206.658.658,0,0,0-.476.206.737.737,0,0,0-.206.515Z" transform="translate(-125.082 -104.859)" fill="#fff"/>
      <path id="Path_51026" data-name="Path 51026" d="M304.982,283.672v1.221a.27.27,0,0,1-.539,0v-1.221a.531.531,0,0,0-.531-.507.515.515,0,0,0-.508.523v1.2h0a.309.309,0,0,1-.254.159h-.056a.277.277,0,0,1-.214-.269V283.72h0v-.793a.27.27,0,0,1,.27-.277.262.262,0,0,1,.246.151,2.01,2.01,0,0,0,2.133-.151,1.062,1.062,0,0,1,1.063,1.07v1.2a.278.278,0,0,1-.547,0v-1.2a.523.523,0,0,0-.516-.523A.531.531,0,0,0,304.982,283.672Z" transform="translate(-125.965 -105.132)" fill="#fff"/>
      <path id="Path_51027" data-name="Path 51027" d="M309.515,281.71a.278.278,0,0,1-.555,0V281.6a.278.278,0,0,1,.278-.269.27.27,0,0,1,.278.269Zm0,.919v1.982a.27.27,0,0,1-.278.277.278.278,0,0,1-.278-.277v-1.958a.278.278,0,0,1,.278-.277.27.27,0,0,1,.278.277Z" transform="translate(-127.223 -104.859)" fill="#fff"/>
      <path id="Path_51028" data-name="Path 51028" d="M311.829,282.66a.285.285,0,0,1-.285.285h-.127v1.419a.277.277,0,0,1,.278.285.27.27,0,0,1-.278.277.571.571,0,0,1-.571-.563v-1.419H310.7a.285.285,0,1,1,0-.563h.167v-.737a.286.286,0,0,1,.571,0v.737h.127A.285.285,0,0,1,311.829,282.66Z" transform="translate(-127.515 -104.865)" fill="#fff"/>
      <path id="Path_51029" data-name="Path 51029" d="M366.57,283.031a1.888,1.888,0,0,1,3.046-1.435.293.293,0,1,1-.357.46,1.262,1.262,0,0,0-.793-.277,1.381,1.381,0,0,0-.92.365,1.26,1.26,0,0,0-.373.888,1.228,1.228,0,0,0,.373.888,1.38,1.38,0,0,0,.92.365,1.27,1.27,0,0,0,.793-.277.309.309,0,0,1,.412.055.293.293,0,0,1-.055.4,1.888,1.888,0,0,1-3.046-1.435Z" transform="translate(-139.141 -104.831)" fill="#e27e28"/>
      <path id="Path_51030" data-name="Path 51030" d="M373.737,283.886v1a.27.27,0,0,1-.27.269.278.278,0,0,1-.27-.214,1.158,1.158,0,0,1-.674.214,1.182,1.182,0,0,1-.865-.373,1.323,1.323,0,0,1,0-1.791,1.182,1.182,0,0,1,.865-.38,1.166,1.166,0,0,1,.674.222.272.272,0,0,1,.539.055Zm-.539,0a.793.793,0,0,0-.2-.523.643.643,0,0,0-.476-.206.627.627,0,0,0-.476.206.792.792,0,0,0,0,1.046.651.651,0,0,0,.476.2.666.666,0,0,0,.476-.2A.793.793,0,0,0,373.2,283.886Z" transform="translate(-140.121 -105.124)" fill="#e27e28"/>
      <path id="Path_51031" data-name="Path 51031" d="M377.688,283.722v1.213a.266.266,0,1,1-.531,0v-1.213a.523.523,0,0,0-.531-.515.507.507,0,0,0-.508.515v1.213a.158.158,0,0,1,0,.055.285.285,0,0,1-.27.214.27.27,0,0,1-.278-.27v-2.005a.275.275,0,0,1,.523-.111,1.024,1.024,0,0,1,.539-.159A1.062,1.062,0,0,1,377.688,283.722Z" transform="translate(-141.003 -105.134)" fill="#e27e28"/>
      <path id="Path_51032" data-name="Path 51032" d="M379.28,283.886a1.292,1.292,0,0,1,1.293-1.276,1.365,1.365,0,0,1,.793.277.285.285,0,0,1,.056.38.27.27,0,0,1-.381.048.793.793,0,0,0-.484-.159.729.729,0,1,0,0,1.458.841.841,0,0,0,.484-.159.27.27,0,0,1,.381.055.277.277,0,0,1-.056.373,1.412,1.412,0,0,1-.793.269,1.284,1.284,0,0,1-1.293-1.268Z" transform="translate(-141.77 -105.124)" fill="#e27e28"/>
      <path id="Path_51033" data-name="Path 51033" d="M382.85,283.886a1.261,1.261,0,0,1,1.245-1.276,1.213,1.213,0,0,1,1.253,1.181v.071a.246.246,0,0,1-.27.206h-1.586a.618.618,0,0,0,.174.333.816.816,0,0,0,1.015.1.3.3,0,0,1,.389,0,.246.246,0,0,1,0,.333,1.3,1.3,0,0,1-.912.333,1.261,1.261,0,0,1-1.309-1.284Zm.555-.254h1.444a.849.849,0,0,0-.753-.539.714.714,0,0,0-.69.539Z" transform="translate(-142.509 -105.124)" fill="#e27e28"/>
      <path id="Path_51034" data-name="Path 51034" d="M387.308,281.33a.285.285,0,0,1,.286.277v3a.286.286,0,0,1-.563,0v-3A.278.278,0,0,1,387.308,281.33Z" transform="translate(-143.374 -104.859)" fill="#e27e28"/>
      <text id="Update_KYC" data-name="Update KYC" transform="translate(38.34 24.48)" fill="#fff" font-size="8" font-family="DaxPro-Medium, Dax Pro" font-weight="500"><tspan x="-19.64" y="0">Update KYC</tspan></text>
    </g>
    <g id="freepik--Character--inject-17" transform="translate(305.914 177.917)">
      <path id="Path_51036" data-name="Path 51036" d="M310.158,429.256c1.354.444,40.067-.05,41.527-1.01.555-.349.822-5.991.933-12.814v-.216c.028-1.4.05-2.857.05-4.321v-.6L350.8,390.22l-25.9.25,2.553,19.881.028.788.155,4.116v.422s-14.738,6.812-16.231,8.032S308.8,428.829,310.158,429.256Z" transform="translate(-309.541 -222.065)" fill="#ad6359"/>
      <path id="Path_51037" data-name="Path 51037" d="M310.158,445.366c1.354.444,40.067-.05,41.527-1.01.555-.349.822-5.991.933-12.814v-.216c.028-1.4.05-2.857.05-4.321v-.6l-25.213.061.028.788.155,4.116v.422s-14.738,6.812-16.231,8.032S308.8,444.939,310.158,445.366Z" transform="translate(-309.541 -238.175)" fill="#ebebeb"/>
      <path id="Path_51038" data-name="Path 51038" d="M310.15,449.316c.7.227,11.219.205,21.5,0,2.065-.044,4.119-.089,6.078-.144,7.333-.2,13.389-.5,13.955-.865s.81-5.836.921-12.531v-.5h-.033l-24.946.044v.422s-14.732,6.812-16.226,8.027S308.8,448.883,310.15,449.316Z" transform="translate(-309.539 -242.125)" fill="#e27e28"/>
      <path id="Path_51039" data-name="Path 51039" d="M311.318,457.526c6.522-.244,32.856-.61,39.323-.355.056,0,.056.039,0,.044-6.456.383-32.8.555-39.323.416C311.185,457.631,311.18,457.531,311.318,457.526Z" transform="translate(-310.285 -251.838)" fill="#263238"/>
      <path id="Path_51040" data-name="Path 51040" d="M337.009,435.37c2.565-.51,5.706-.155,7.694,1.664.078.072,0,.177-.105.155a36.208,36.208,0,0,0-7.572-1.476.172.172,0,1,1-.017-.344Z" transform="translate(-321.687 -242.074)" fill="#263238"/>
      <path id="Path_51041" data-name="Path 51041" d="M333.7,437.429c2.559-.51,5.706-.161,7.694,1.664.078.072-.028.183-.111.155a36.132,36.132,0,0,0-7.572-1.476.172.172,0,1,1-.011-.344Z" transform="translate(-320.212 -242.991)" fill="#263238"/>
      <path id="Path_51042" data-name="Path 51042" d="M330.386,439.48c2.559-.51,5.706-.155,7.688,1.664.078.072,0,.177-.105.155a35.854,35.854,0,0,0-7.572-1.476.172.172,0,1,1-.011-.344Z" transform="translate(-318.74 -243.905)" fill="#263238"/>
      <path id="Path_51043" data-name="Path 51043" d="M349.37,449.316c2.065-.044,4.119-.089,6.078-.144,7.333-.2,13.389-.5,13.955-.865s.81-5.836.921-12.531v-.5h-.033C366.894,437.666,354.843,445.66,349.37,449.316Z" transform="translate(-327.26 -242.125)" opacity="0.1"/>
      <path id="Path_51044" data-name="Path 51044" d="M336.759,328.319h27.883s-5.6-65.069-5.379-66.207c.283-1.453,1.932-8.038,4.124-16.642.683-2.7,1.427-5.581,2.22-8.576,2.076-8.093,4.374-16.941,6.367-24.641a170.028,170.028,0,0,1,5.34-17.474H353.662s-19.428,55.572-20.194,67.055C332.79,271.848,336.759,328.319,336.759,328.319Z" transform="translate(-320.15 -135.041)" fill="#263238"/>
      <path id="Path_51045" data-name="Path 51045" d="M341.641,426.785c4.258-.089,3.036-.122,7.294-.166,2.082,0,15.776-.133,17.724.189.044,0,.044.078,0,.089-1.948.322-15.643.2-17.724.177-4.258-.044-3.036-.078-7.294-.166a.061.061,0,1,1,0-.122Z" transform="translate(-323.794 -238.26)" fill="#37474f"/>
      <path id="Path_51046" data-name="Path 51046" d="M370,262.89c.916-4.027,2.281-7.971,3.469-11.927q3.63-12.049,7.3-24.081c1.221-4.011,6.889-19.022,7.449-21.019.228-.81.35-.366.061.666-.588,2.08-10.275,31.836-12.723,39.99l-3.7,12.259a49.6,49.6,0,0,0-1.5,5.93,27.271,27.271,0,0,0-.25,6.346c.267,4.26.76,8.521,1.155,12.759s.783,8.526,1.177,12.759q1.182,12.725,2.331,25.445c.094,1.076.189,2.147.272,3.223.028.361-.516.333-.555,0-.916-8.387-1.615-16.8-2.4-25.2s-1.565-16.714-2.343-25.074c-.194-2.1-.422-4.2-.422-6.307A26.143,26.143,0,0,1,370,262.89Z" transform="translate(-336.135 -139.79)" fill="#37474f"/>
      <path id="Path_51047" data-name="Path 51047" d="M374.74,194.77c1.638,12.681,4.763,33.444,7.039,50.7,5.329-20.9,13.905-50.691,13.905-50.691Z" transform="translate(-338.547 -135.036)" fill="#37474f"/>
      <path id="Path_51048" data-name="Path 51048" d="M362.1,430.066c1.354.444,40.067.089,41.532-.86.555-.349.838-5.991.977-12.814v-.216c.028-1.4.055-2.851.061-4.321v-.6c.089-9.852-.616-20.07-.616-20.07l-25.307.161.7,19.881.028.788.139,4.116v.422s-14.754,6.762-16.259,7.971S360.738,429.628,362.1,430.066Z" transform="translate(-332.65 -222.493)" fill="#ad6359"/>
      <path id="Path_51049" data-name="Path 51049" d="M362.1,446.154c1.354.444,40.067.089,41.532-.86.555-.349.838-5.991.977-12.814v-.216c.028-1.4.055-2.851.061-4.321v-.6l-25.218-.028.028.788.139,4.116v.422s-14.754,6.762-16.259,7.971S360.738,445.716,362.1,446.154Z" transform="translate(-332.65 -238.58)" fill="#ebebeb"/>
      <path id="Path_51050" data-name="Path 51050" d="M362.1,450.09c1.354.444,40.067.089,41.532-.86.555-.349.838-5.991.977-12.814V436.2l-24.979-.05v.422s-14.755,6.762-16.259,7.971S360.74,449.652,362.1,450.09Z" transform="translate(-332.652 -242.516)" fill="#e27e28"/>
      <path id="Path_51051" data-name="Path 51051" d="M363.267,458.305c6.522-.222,32.862-.488,39.323-.211.056,0,.056.039,0,.039-6.461.361-32.8.416-39.323.277C363.128,458.405,363.128,458.311,363.267,458.305Z" transform="translate(-333.396 -252.235)" fill="#263238"/>
      <path id="Path_51052" data-name="Path 51052" d="M389.084,436.156c2.565-.5,5.706-.133,7.688,1.664.078.072,0,.178-.111.155a35.729,35.729,0,0,0-7.56-1.5.166.166,0,0,1-.017-.316Z" transform="translate(-344.881 -242.428)" fill="#263238"/>
      <path id="Path_51053" data-name="Path 51053" d="M385.714,438.2c2.565-.5,5.706-.139,7.688,1.664.078.072-.028.178-.111.155a36.063,36.063,0,0,0-7.566-1.47.175.175,0,1,1-.011-.35Z" transform="translate(-343.354 -243.339)" fill="#263238"/>
      <path id="Path_51054" data-name="Path 51054" d="M382.4,440.244c2.565-.5,5.706-.139,7.688,1.664.078.067-.028.177-.111.15a36.06,36.06,0,0,0-7.566-1.487.164.164,0,1,1-.011-.327Z" transform="translate(-341.886 -244.247)" fill="#263238"/>
      <path id="Path_51055" data-name="Path 51055" d="M370.2,194.757a91.58,91.58,0,0,0,3.125,17.23c.211.738.433,1.464.677,2.163a70.746,70.746,0,0,1,6.206,3.478s.272,9.092.555,19.227c.3,11.333.611,23.975.555,26.655-.239,10.029,1.243,65.18,1.243,65.18l27.871.122s-5.024-61.575-5-65.269c.055-5.908-1.471-26.422-2.553-45.46-.089-1.6.871-5.081.783-6.468-.555-8.776-1.854-16.875-1.854-16.875Z" transform="translate(-336.527 -135.023)" fill="#263238"/>
      <path id="Path_51056" data-name="Path 51056" d="M394.093,427.212c4.258-.067,3.036-.111,7.294-.128,2.087,0,15.781-.072,17.724.261a.044.044,0,0,1,0,.083c-1.948.316-15.643.133-17.724.105-4.258-.061-3.036-.089-7.294-.194C394.016,427.334,394.016,427.212,394.093,427.212Z" transform="translate(-347.131 -238.477)" fill="#37474f"/>
      <path id="Path_51057" data-name="Path 51057" d="M410.664,212.938c-.688-.177-1.421-.233-2.12-.344-.555-.089-1.11-.189-1.665-.311a7.374,7.374,0,0,1-2.975-1.254c-1.388-1.109-2.986-6.585-3.181-6.934-.333-.6-.233-.044-.233,0a30.643,30.643,0,0,0,1.826,6.324,6.153,6.153,0,0,0,4.735,2.541c.555.067,1.06.105,1.593.133a11.185,11.185,0,0,0,2.021,0,.094.094,0,0,0,0-.155Z" transform="translate(-349.996 -139.065)" fill="#37474f"/>
      <path id="Path_51058" data-name="Path 51058" d="M363.224,211a5.133,5.133,0,0,1,.949-.344,7.221,7.221,0,0,0,.755-.311,2.952,2.952,0,0,0,1.332-1.254c.622-1.109,1.338-6.585,1.427-6.934.15-.6.1-.044.1,0a61.393,61.393,0,0,1-.816,6.335,3.171,3.171,0,0,1-2.12,2.541,5.265,5.265,0,0,1-.716.139,2.338,2.338,0,0,1-.9,0C363.185,211.17,363.174,211.026,363.224,211Z" transform="translate(-333.409 -138.201)" fill="#37474f"/>
      <path id="Path_51059" data-name="Path 51059" d="M377.016,229.988a49.705,49.705,0,0,1,7.849,3.656.089.089,0,0,1-.072.161c-2.642-1.109-5.34-2.219-7.916-3.5a.173.173,0,1,1,.139-.316Z" transform="translate(-339.452 -150.712)" fill="#37474f"/>
      <path id="Path_51060" data-name="Path 51060" d="M375.627,197.28c0-.089.167-.111.167,0a87.186,87.186,0,0,0,.444,8.826c.122,1.365,1.216,8.876,3.58,8.321.394-.089.594-.483.661-1.076a9.706,9.706,0,0,0-.316-2.308c-.261-1.575-.472-3.156-.605-4.743a43,43,0,0,1,.094-8.9.078.078,0,0,1,.15,0,81.909,81.909,0,0,0,.722,12.287c.294,1.953,1.282,4.9-.766,5.2s-3.436-4.632-3.691-5.98a44.941,44.941,0,0,1-.439-11.627Z" transform="translate(-338.857 -136.12)" fill="#37474f"/>
      <path id="Path_51061" data-name="Path 51061" d="M382.79,228.48a12.545,12.545,0,0,1,.527,1.559,3.521,3.521,0,0,1,.222,1.281.089.089,0,0,1-.161.033,4.493,4.493,0,0,1-.555-1.248c-.183-.483-.372-.96-.555-1.448a.276.276,0,0,1,.522-.177Z" transform="translate(-341.89 -149.963)" fill="#37474f"/>
      <path id="Path_51062" data-name="Path 51062" d="M420.45,197.187c.466,2.563.91,5.131,1.31,7.705a50.806,50.806,0,0,1,.921,7.844,31.2,31.2,0,0,0-.816,5.7c2.021,32.574,2.953,70.955,5.312,103.412-1.438-10.323-1.915-20.758-2.648-31.153-1.482-24.02-2.465-48.145-3.331-72.2a30.136,30.136,0,0,1,.949-5.886c-.033-4.5-1.188-10.911-1.7-15.438Z" transform="translate(-358.883 -136.105)" fill="#37474f"/>
      <path id="Path_51063" data-name="Path 51063" d="M358.185,132.55c-11.907,10.484-22.959,21.984-23.869,27.908-1.277,8.2,3.752,10.54,6.017,10.584,6.167.133,17.658-24.724,21.649-34.216C365.868,127.608,360.8,130.248,358.185,132.55Z" transform="translate(-320.471 -106.35)" fill="#00a0ad"/>
      <path id="Path_51064" data-name="Path 51064" d="M359.95,151.916a.977.977,0,0,1-.977-.976,1.215,1.215,0,0,0-1.21-1.209H357v.233h.76a.977.977,0,0,1,.971.976,1.215,1.215,0,0,0,1.216,1.215h.716v-.239Zm-9.115,19.044a.977.977,0,0,1-.977-.976,1.215,1.215,0,0,0-1.216-1.209h-.755v.239h.755a.971.971,0,0,1,.977.971,1.215,1.215,0,0,0,1.216,1.215h.716v-.239Zm-9.115-4.521a.976.976,0,0,1,0-1.381,1.209,1.209,0,0,0,0-1.714l-.555-.555-.167.172.555.555a.981.981,0,0,1,0,1.381,1.2,1.2,0,0,0,0,1.714l.505.5.167-.166Zm2.948,9.275-.555.555a.977.977,0,0,1-1.382,0,1.216,1.216,0,0,0-1.715,0l-.505.5.167.166.505-.5a.983.983,0,0,1,1.382,0,1.211,1.211,0,0,0,1.715,0l.555-.555Zm7.455-17.385-.555.555a.977.977,0,0,1-1.382,0,1.216,1.216,0,0,0-1.715,0l-.505.5.167.172.505-.51a.983.983,0,0,1,1.382,0,1.211,1.211,0,0,0,1.715,0l.555-.555Z" transform="translate(-323.318 -114.981)" fill="#fff"/>
      <path id="Path_51065" data-name="Path 51065" d="M365.888,136.96c-4,9.491-15.493,34.349-21.649,34.215a4.909,4.909,0,0,1-1.349-.239l23.93-40.257C367.575,131.213,367.57,132.982,365.888,136.96Z" transform="translate(-324.377 -106.499)" opacity="0.1"/>
      <path id="Path_51066" data-name="Path 51066" d="M401.473,168.623c-.078.094-34.188-.472-34.516-.8-.122-.128,3.208-30.2,7.838-37.666,1.9-3.079,7.216-4.66,10.835-.067C396.816,144.248,401.568,168.506,401.473,168.623Z" transform="translate(-335.083 -104.956)" fill="#00a0ad"/>
      <path id="Path_51067" data-name="Path 51067" d="M384.035,160.219a.977.977,0,0,1-.977-.976,1.215,1.215,0,0,0-1.216-1.215h-.755v.239h.755a.977.977,0,0,1,.977.976,1.215,1.215,0,0,0,1.216,1.209h.716v-.233Zm-10.369-15.532a.955.955,0,0,1-.688-.288,1.152,1.152,0,0,1-.061.266,1.172,1.172,0,0,0,.749.261h.716v-.239Zm1.526,22.189a.965.965,0,0,1,0-1.376,1.226,1.226,0,0,0,.355-.86,1.2,1.2,0,0,0-.355-.854l-.555-.555-.167.166.555.555a.965.965,0,0,1,0,1.376,1.22,1.22,0,0,0,0,1.72l.511.5.167-.166Zm7.061-17.3a.976.976,0,0,1,0-1.376,1.214,1.214,0,0,0,0-1.714l-.555-.555-.167.172.555.555a.976.976,0,0,1,0,1.381,1.214,1.214,0,0,0,0,1.714l.505.5.172-.166ZM400.571,165.2a.976.976,0,0,1,0-1.381,1.214,1.214,0,0,0,0-1.714l-.555-.555-.167.166.555.555a.976.976,0,0,1,0,1.381,1.214,1.214,0,0,0,0,1.714l.511.5.167-.166Zm-17.058,5.547-.361.361h.333l.194-.194Zm-3.281.294H381.3a1.239,1.239,0,0,0-1.094.017Zm15.2-24.857-.394.394.167.166.328-.327Zm-4.5,18.112v.716a.977.977,0,0,1-.977.976,1.215,1.215,0,0,0-1.216,1.209v.76h.239v-.777a.971.971,0,0,1,.977-.971,1.215,1.215,0,0,0,1.21-1.215v-.7ZM373.527,153.3v.716a.977.977,0,0,1-.977.976,1.215,1.215,0,0,0-1.21,1.215v.754h.233v-.754a.977.977,0,0,1,.977-.976,1.215,1.215,0,0,0,1.216-1.215V153.3Zm8.537-19.748v.716a.977.977,0,0,1-.977.976,1.215,1.215,0,0,0-1.21,1.209v.76h.233v-.76a.977.977,0,0,1,.977-1,1.221,1.221,0,0,0,1.216-1.215v-.716ZM392.8,152.569v.716a.977.977,0,0,1-.977.976,1.215,1.215,0,0,0-1.216,1.215v.754h.239v-.754a.977.977,0,0,1,.977-.976,1.215,1.215,0,0,0,1.21-1.215v-.716Zm-2.615-9.469a.977.977,0,0,1-.977-.976,1.215,1.215,0,0,0-1.216-1.215h-.744v.239H388a.977.977,0,0,1,.977.976,1.221,1.221,0,0,0,1.216,1.215h.716V143.1Z" transform="translate(-337.034 -107.763)" fill="#fff"/>
      <path id="Path_51068" data-name="Path 51068" d="M399.6,131.433c11.1,8.7,21.965,23.731,22.048,32.135.078,8.321-2.814,7.494-3.636,7.439-5-.327-16.831-23.421-20.428-32.834S396.862,129.281,399.6,131.433Z" transform="translate(-347.962 -106.253)" fill="#00a0ad"/>
      <path id="Path_51069" data-name="Path 51069" d="M416.4,162.3a.977.977,0,0,1-.977-.976,1.215,1.215,0,0,0-1.21-1.215h-.76v.239h.76a.977.977,0,0,1,.971.976,1.215,1.215,0,0,0,1.216,1.209h.716V162.3Zm-3.075,8.831a.976.976,0,0,1,0-1.381,1.214,1.214,0,0,0,0-1.714l-.555-.555-.167.166.555.555a.976.976,0,0,1,0,1.381,1.214,1.214,0,0,0,0,1.714l.511.5.167-.166Zm-1.4-19.643-.555.555a.983.983,0,0,1-1.382,0,1.216,1.216,0,0,0-1.715,0l-.505.5.167.166.505-.5a.983.983,0,0,1,1.382,0,1.216,1.216,0,0,0,1.715,0l.555-.555Zm10.73,14.978a1.21,1.21,0,0,0-1.11,1.209v.754h.239v-.754a.971.971,0,0,1,.949-.971,1.557,1.557,0,0,1-.105-.255Zm-17.1-7.966v.444l.222.427a1.465,1.465,0,0,0,0-.155V158.5Zm16.037,15.749v.716a.977.977,0,0,1-.977.976,1.215,1.215,0,0,0-1.216,1.209v.754h.239v-.754a.977.977,0,0,1,.977-.976,1.215,1.215,0,0,0,1.21-1.209v-.716Zm-18.651-25.218a.977.977,0,0,1-.977-.976,1.215,1.215,0,0,0-1.216-1.215H400v.239h.755a.977.977,0,0,1,.977.976,1.221,1.221,0,0,0,1.216,1.215h.716v-.239Z" transform="translate(-349.785 -113.694)" fill="#fff"/>
      <path id="Path_51070" data-name="Path 51070" d="M413.026,171.791c-.583-1.048-1.177-2.08-1.743-3.134l-1.726-3.14c-1.143-2.1-2.3-4.188-3.408-6.307s-2.22-4.21-3.331-6.335q-.827-1.587-1.61-3.2c-.555-1.065-1.032-2.152-1.538-3.24a65.185,65.185,0,0,0,2.776,6.657c1.016,2.169,2.12,4.294,3.231,6.413s2.3,4.194,3.53,6.246S411.649,169.827,413.026,171.791Z" transform="translate(-349.638 -113.516)" fill="#263238"/>
      <path id="Path_51071" data-name="Path 51071" d="M400.6,149.759a9.764,9.764,0,0,0-.688-1.109c-.122-.166-.239-.344-.372-.51s-.255-.338-.405-.5a3.166,3.166,0,0,0,.555,1.176A3.545,3.545,0,0,0,400.6,149.759Z" transform="translate(-349.398 -114.051)" fill="#263238"/>
      <path id="Path_51072" data-name="Path 51072" d="M340.72,147.862c.555-3.883,1.743-9.325,3.153-10.451s6.839-5.12,8.382-5.636,8.415-3.04,9.664-2.3c1,.594-.222,3.229-3.492,4.438a47.788,47.788,0,0,0-5.185,2.452c-.838.349-2.881,3.029-2.343,4.233a3.45,3.45,0,0,0,3.641,1c1.282-.56,1.621-3.084,3.092-4.26s4.047-1,4.185-.305-.711,1.01-2.054,3.328c-.866,1.5-.96,5.142-2.909,7.733a45.667,45.667,0,0,0-2.7,4.771Z" transform="translate(-323.411 -105.901)" fill="#ad6359"/>
      <path id="Path_51073" data-name="Path 51073" d="M373.659,140.491a2.538,2.538,0,0,0,1.282-.555,1.071,1.071,0,0,0,.294-.516.926.926,0,0,0,0-.327.482.482,0,0,0-.122-.311s0-.05.028,0,.083.1.117.155a.936.936,0,0,1,.072.15.76.76,0,0,1,.05.316,1.026,1.026,0,0,1-.261.643,1.749,1.749,0,0,1-1.471.516S373.637,140.5,373.659,140.491Z" transform="translate(-338.06 -110.097)" fill="#263238"/>
      <path id="Path_51074" data-name="Path 51074" d="M346.4,138.516c1.26-1.93,4.474-5.409,7.633-6.585,2.132-.788,9.437,2.846,9.181,4.244s-1.477,1.387-3.331,1.148c-.672-.089-4.224-1.409-4.84-.666-.883,1.065-2.032,4.726-2.032,4.726Z" transform="translate(-325.938 -107.007)" fill="#ad6359"/>
      <path id="Path_51075" data-name="Path 51075" d="M372.479,136.293c-.888-1.5-2.87-2.324-4.84-2.973-.028,0-.044.033,0,.044a16.664,16.664,0,0,1,4.835,2.951C372.467,136.332,372.484,136.31,372.479,136.293Z" transform="translate(-335.375 -107.674)" fill="#263238"/>
      <path id="Path_51076" data-name="Path 51076" d="M346.4,138.533c1.26-1.93,4.474-5.409,7.633-6.585,2.132-.788,7.871,3.828,7.644,5.22s-2.026,1.492-4,.777c-.638-.227-2.776-1.764-3.386-1.021-.888,1.065-3.042,3.711-3.042,3.711Z" transform="translate(-325.938 -107.023)" fill="#ad6359"/>
      <path id="Path_51077" data-name="Path 51077" d="M357.188,138.827l.477-.716c.211-.3.422-.594.649-.882a2.775,2.775,0,0,1,.666-.682,1.416,1.416,0,0,1,.877-.166,5,5,0,0,1,1.887.86,5.934,5.934,0,0,0,3.025.9,2.094,2.094,0,0,0,.822-.211,1.282,1.282,0,0,0,.494-.388c.455-.754-.094-1.631-.661-2.252a13.373,13.373,0,0,0-3.886-2.7c-.339-.172-.688-.333-1.032-.494a2.994,2.994,0,0,0-1.249-.372,6.048,6.048,0,0,0-2.276.921s-.05,0,0-.044a5.054,5.054,0,0,1,2.714-1.109,3.643,3.643,0,0,1,1.2.422c.405.178.8.366,1.193.555a15.546,15.546,0,0,1,2.22,1.331,6.8,6.8,0,0,1,1.793,1.725,2.013,2.013,0,0,1,.105,2.069,1.766,1.766,0,0,1-1.316.682,3.333,3.333,0,0,1-.91,0,14.537,14.537,0,0,1-1.987-.6c-.627-.255-1.188-.688-1.832-.888a1.211,1.211,0,0,0-.944.05,3.33,3.33,0,0,0-.7.632,10.02,10.02,0,0,0-1.188,1.376C357.2,138.983,357.1,138.983,357.188,138.827Z" transform="translate(-330.637 -106.858)" fill="#263238"/>
      <path id="Path_51078" data-name="Path 51078" d="M344.71,138.194c.461-.921,1.271-4.732,2.021-5.9s4.158-5.176,5.729-4.993c1.976.244-.122,3.783-1.171,5.237a7.223,7.223,0,0,0-.9,3.944Z" transform="translate(-325.186 -104.993)" fill="#ad6359"/>
      <path id="Path_51079" data-name="Path 51079" d="M357.3,132.391c-.372.46-.7.971-1.027,1.47a12.052,12.052,0,0,0-.9,1.442,5.1,5.1,0,0,0-.4,1.62c-.028.277-.039.555-.044.827s0,.6,0,.9a.025.025,0,1,0,.05,0,12.619,12.619,0,0,1,.233-1.636,7.274,7.274,0,0,1,.511-1.625c.472-1.026,1.16-1.942,1.665-2.968A.057.057,0,0,0,357.3,132.391Z" transform="translate(-329.731 -107.256)" fill="#263238"/>
      <path id="Path_51080" data-name="Path 51080" d="M354.985,144.63a5.654,5.654,0,0,0,.477,2.774,9.361,9.361,0,0,0,1.427,2.457,11.238,11.238,0,0,1,1.415,2.319,11.382,11.382,0,0,1,.727,2.657,7.329,7.329,0,0,0-.322-2.807,8.576,8.576,0,0,0-1.36-2.507,13.256,13.256,0,0,1-1.454-2.313,8.317,8.317,0,0,1-.91-2.579Z" transform="translate(-329.75 -112.71)" fill="#263238"/>
      <path id="Path_51081" data-name="Path 51081" d="M340.786,178.446c3.852-.521,6.373-6.956,10.769-18.278.772-1.986-9.292-14.2-10.658-12.376-1.726,2.3-6.373,15.077-6.855,18.561C333.076,173.22,336.29,179.05,340.786,178.446Z" transform="translate(-320.364 -114.036)" fill="#ad6359"/>
      <path id="Path_51082" data-name="Path 51082" d="M349.022,171.964,336.61,159.91s-3.53,10.373-3.2,14.722,1.843,9.3,7.083,9.575C344.42,184.412,349.022,171.964,349.022,171.964Z" transform="translate(-320.15 -119.514)" fill="#00a0ad"/>
      <path id="Path_51083" data-name="Path 51083" d="M349.858,180.495a1.215,1.215,0,0,0-1.216-1.209h-.755v.239h.755a.971.971,0,0,1,.977.971,1.215,1.215,0,0,0,.983,1.193c.039-.078.072-.155.105-.233A.965.965,0,0,1,349.858,180.495Zm-8.138-3.545a.976.976,0,0,1,0-1.381,1.209,1.209,0,0,0,0-1.714l-.555-.555-.167.172.555.555a.981.981,0,0,1,0,1.381,1.2,1.2,0,0,0,0,1.714l.505.5.167-.166Zm2.948,9.258-.555.555a.977.977,0,0,1-1.382,0,1.216,1.216,0,0,0-1.715,0l-.505.5.167.166.505-.5a.983.983,0,0,1,1.382,0,1.211,1.211,0,0,0,1.715,0l.555-.555Z" transform="translate(-323.318 -125.476)" fill="#fff"/>
      <path id="Path_51084" data-name="Path 51084" d="M354.32,189.979c.45-.632.849-1.3,1.238-1.964s.749-1.359,1.11-2.047a21.32,21.32,0,0,0,.955-2.119,12.75,12.75,0,0,0,.722-2.219c-.328.7-.672,1.387-1.027,2.075l-1.038,2.064c-.339.693-.683,1.381-1,2.086S354.609,189.257,354.32,189.979Z" transform="translate(-329.462 -129.185)" fill="#263238"/>
      <path id="Path_51085" data-name="Path 51085" d="M348.562,177.93c-.6-.66-1.26-1.276-1.9-1.9s-1.288-1.243-1.943-1.853c-1.31-1.22-2.626-2.435-3.958-3.628l-1.11-.976c-.4-.344-.838-.638-1.232-.982a.029.029,0,1,0-.039.044c.316.305.588.66.9.971s.649.638.977.954l1.954,1.842c1.31,1.22,2.626,2.435,3.969,3.611.766.666,1.51,1.359,2.309,1.98a.049.049,0,0,0,.072-.067Z" transform="translate(-322.367 -123.378)" fill="#263238"/>
      <path id="Path_51086" data-name="Path 51086" d="M382.821,130.659c2.009.2,5.351-3.528,6.35-6.1.067-.178-.422-1.886-.916-3.988-.294-1.281-.588-2.713-.766-4.038l-8.049,3.134a21.2,21.2,0,0,1,1.488,4.993,3.138,3.138,0,0,1,0,.555.474.474,0,0,0,0,.089C380.911,126.321,380.861,130.459,382.821,130.659Z" transform="translate(-340.638 -100.198)" fill="#ad6359"/>
      <path id="Path_51087" data-name="Path 51087" d="M380.944,125.328a.474.474,0,0,0,0,.089,5.357,5.357,0,0,0,.86-.067c4.8-.749,5.14-6.784,5.14-8.471l-2.009.782-5.5,2.136a21.008,21.008,0,0,1,1.482,4.993,2.629,2.629,0,0,1,.022.538Z" transform="translate(-340.638 -100.354)" fill="#263238"/>
      <path id="Path_51088" data-name="Path 51088" d="M383.879,95.946c1.16,2.879.35,11.572-1.588,13.663-2.814,3.034-7.771,3.739-10.464.277-2.592-3.328-1.338-14.667.866-16.609C375.936,90.42,382.158,91.685,383.879,95.946Z" transform="translate(-336.606 -89.161)" fill="#ad6359"/>
      <path id="Path_51089" data-name="Path 51089" d="M381.211,112.49s.044.028.039.055c-.056.555,0,1.265.494,1.492v.033C381.094,113.938,381.061,113.034,381.211,112.49Z" transform="translate(-341.393 -98.399)" fill="#263238"/>
      <path id="Path_51090" data-name="Path 51090" d="M381.771,111.45c.949,0,.9,1.886,0,1.9S380.977,111.456,381.771,111.45Z" transform="translate(-341.392 -97.936)" fill="#263238"/>
      <path id="Path_51091" data-name="Path 51091" d="M374.607,112.14a.049.049,0,0,0-.05.05c0,.588-.089,1.265-.627,1.448h0C374.585,113.593,374.7,112.7,374.607,112.14Z" transform="translate(-338.187 -98.243)" fill="#263238"/>
      <path id="Path_51092" data-name="Path 51092" d="M373.6,111c-.944-.094-1.066,1.8-.194,1.886S374.4,111.086,373.6,111Z" transform="translate(-337.692 -97.733)" fill="#263238"/>
      <path id="Path_51093" data-name="Path 51093" d="M382.746,107.971a6.861,6.861,0,0,1-.755-.2,1.283,1.283,0,0,1-.727-.349.41.41,0,0,1,0-.494,1,1,0,0,1,.994-.178,1.449,1.449,0,0,1,.888.555.427.427,0,0,1-.4.666Z" transform="translate(-341.413 -95.816)" fill="#263238"/>
      <path id="Path_51094" data-name="Path 51094" d="M372.484,107.113a7.486,7.486,0,0,0,.76-.172,1.288,1.288,0,0,0,.738-.327.41.41,0,0,0,0-.494.989.989,0,0,0-.983-.211,1.466,1.466,0,0,0-.91.555.427.427,0,0,0,.394.649Z" transform="translate(-337.34 -95.446)" fill="#263238"/>
      <path id="Path_51095" data-name="Path 51095" d="M382.954,122.572c-.27-.281-.551-.674-.978-.719a3.215,3.215,0,0,0-1.292.27s-.079,0,0-.067a1.6,1.6,0,0,1,1.528-.607,1.3,1.3,0,0,1,.91,1.123A.153.153,0,0,1,382.954,122.572Z" transform="translate(-341.802 -102.675)" fill="#263238"/>
      <path id="Path_51096" data-name="Path 51096" d="M378.778,113.259a2,2,0,0,1-1.316.926,2.816,2.816,0,0,1-.716.05.556.556,0,0,1-.139,0,.582.582,0,0,1-.133,0,.139.139,0,0,1-.117-.128h0v-.061h0v-1.165c-.161.083-1,.483-.988.25a29.948,29.948,0,0,1,.629-6.108.056.056,0,0,1,.11.006c0,1.892-.316,3.767-.339,5.658a3.793,3.793,0,0,1,.938-.311c.061,0-.078,1.331-.05,1.537h0a2.777,2.777,0,0,0,2.059-.693C378.767,113.176,378.812,113.214,378.778,113.259Z" transform="translate(-338.827 -95.945)" fill="#263238"/>
      <path id="Path_51097" data-name="Path 51097" d="M376.759,99.6a3.327,3.327,0,0,0,5.651.022h.044a3.331,3.331,0,0,1-2.909,1.8,3.4,3.4,0,0,1-2.859-1.808C376.664,99.6,376.731,99.552,376.759,99.6Z" transform="translate(-339.411 -92.65)" fill="#263238"/>
      <path id="Path_51098" data-name="Path 51098" d="M382.358,87.9a3.542,3.542,0,0,1,3.431,1.925,4.806,4.806,0,0,1,.5,2.374h-.05a4.437,4.437,0,0,0-1.765-3.467,2.971,2.971,0,0,0-3.447-.044,3.034,3.034,0,0,0-1.166,1.631c0,.072-.128.044-.111-.033A3.08,3.08,0,0,1,382.358,87.9Z" transform="translate(-340.775 -87.446)" fill="#263238"/>
      <path id="Path_51099" data-name="Path 51099" d="M364.98,89.216a3.968,3.968,0,0,1,2.015-1.836,5.518,5.518,0,0,1,3.619.128c.033,0,0,.061,0,.05a5.443,5.443,0,0,0-3.12-.15,3.885,3.885,0,0,0-2.087,1.581A3.793,3.793,0,0,0,366.2,93.9a3.888,3.888,0,0,0,2.959.8c.039,0,.061.055,0,.061a3.884,3.884,0,0,1-4.185-5.547Z" transform="translate(-334.021 -87.102)" fill="#263238"/>
      <path id="Path_51100" data-name="Path 51100" d="M382.269,95.754s.228-2.64-.339-3.545a3.917,3.917,0,0,0-2.037-1.287,3.833,3.833,0,0,0-2.653-2.774,4.119,4.119,0,0,0-3.408,1.109s-2.254-3-5.473-1.947c-3.059.993-3.331,5.392-.766,7.178,1.8,1.254,4.718-.05,4.718-.05.25.078,2.6,2.058,4.94.044,0,0,1.576,1.664,2.748.821C380,95.238,381.27,96.087,382.269,95.754Z" transform="translate(-334.591 -87.089)" fill="#263238"/>
      <path id="Path_51101" data-name="Path 51101" d="M393.4,106.152a25.854,25.854,0,0,1-1.771-3.972c-.394-.987-.189-5.192-.061-7.051a6.1,6.1,0,0,1,1.665,2.33C393.918,99.168,393.913,102.935,393.4,106.152Z" transform="translate(-345.957 -90.669)" fill="#263238" opacity="0.2"/>
      <path id="Path_51102" data-name="Path 51102" d="M392.243,110.269s1.749-2.907,3.053-2.3.122,4.721-1.321,5.37a1.5,1.5,0,0,1-2.065-.671Z" transform="translate(-346.186 -96.35)" fill="#ad6359"/>
      <path id="Path_51103" data-name="Path 51103" d="M395.573,110.15v.039a3.812,3.812,0,0,0-1.8,2.507.833.833,0,0,1,1.227-.311c.028,0,0,.061-.028.055a.933.933,0,0,0-.994.388,4.439,4.439,0,0,0-.433.86c-.039.094-.211.055-.183-.055h0C393.258,112.286,394.163,110.377,395.573,110.15Z" transform="translate(-346.829 -97.357)" fill="#263238"/>
      <path id="Path_51104" data-name="Path 51104" d="M370.872,158.583l-1.615-17.33-1.06-.849-23.786-.144.55,16.481,1.06.849Z" transform="translate(-325.053 -110.765)" fill="#37474f"/>
      <path id="Path_51105" data-name="Path 51105" d="M368.962,157.053l-1.615-17.33L342.5,138.73l1.61,17.33Z" transform="translate(-324.203 -110.083)" fill="#455a64"/>
      <path id="Path_51106" data-name="Path 51106" d="M361.775,152.952a1.666,1.666,0,0,1,2.065-.727,1.315,1.315,0,0,1,.9,1.764,1.666,1.666,0,0,1-2.059.721,1.309,1.309,0,0,1-.9-1.758Z" transform="translate(-332.737 -116.04)" fill="#fff"/>
      <path id="Path_51107" data-name="Path 51107" d="M421.267,183.547c-3.714.51-8.326-2.374-20.339-11.128-1.665-1.209,3.741-15.222,5.579-14.018,2.32,1.514,10.98,7.894,11.557,8.443C422.91,171.459,423.781,183.2,421.267,183.547Z" transform="translate(-350.058 -118.81)" fill="#ad6359"/>
      <path id="Path_51108" data-name="Path 51108" d="M396.442,157.58s-3.414-4.793-5.99-6.757a20.9,20.9,0,0,0-9.231-3.728c-3.6-.555-12.656.677-12.767,3.328-.1,2.413,9.1.716,9.1.716s-9.67.183-9.248,3.118,10.985.349,10.985.349-9.931.41-9.02,3.367c.688,2.219,10.391.433,10.391.433s-8.532.416-7.927,2.74c.672,2.574,9.731,1.476,9.731,1.476,2.542,5.653,6.184,7.245,8.832,8.121C391.912,170.971,396.442,157.58,396.442,157.58Z" transform="translate(-335.68 -113.75)" fill="#ad6359"/>
      <path id="Path_51109" data-name="Path 51109" d="M382.042,153.988c-1.11,0-2.287-.05-3.419.033s-2.265.205-3.386.388a19.57,19.57,0,0,0-4.3,1.143,42.246,42.246,0,0,1,7.716-1.22c1.132-.083,2.259-.222,3.392-.305C382.075,154.038,382.075,153.988,382.042,153.988Z" transform="translate(-336.856 -116.871)" fill="#263238"/>
      <path id="Path_51110" data-name="Path 51110" d="M384.68,161.38c-1.454.039-2.892.028-4.346.128s-2.776.327-4.235.527c-.111,0-.067.067.044.055,1.438-.144,2.775-.161,4.224-.288s2.875-.311,4.319-.383Z" transform="translate(-339.123 -120.169)" fill="#263238"/>
      <path id="Path_51111" data-name="Path 51111" d="M387.962,167.6a32.49,32.49,0,0,0-6.628.7c-.111,0-.044.083.067.067,2.22-.272,3.925-.5,6.561-.693C388,167.678,388.007,167.606,387.962,167.6Z" transform="translate(-341.455 -122.938)" fill="#263238"/>
      <path id="Path_51112" data-name="Path 51112" d="M415.209,162.67l-4.729,17.2s12.69,7.461,15.493,5.486.966-11.916-2.22-15.7C422.426,168.09,415.209,162.67,415.209,162.67Z" transform="translate(-354.448 -120.743)" fill="#00a0ad"/>
      <path id="Path_51113" data-name="Path 51113" d="M431.693,184.9v.716a.977.977,0,0,1-.977.976A1.215,1.215,0,0,0,429.5,187.8v.754h.239V187.8a.977.977,0,0,1,.977-.976,1.215,1.215,0,0,0,1.21-1.209V184.9Zm-.061-6.8a1.1,1.1,0,0,0,0,.194v.754h.239v-.227C431.781,178.6,431.709,178.354,431.632,178.1Zm-8.21,3.678a.976.976,0,0,1,0-1.381,1.214,1.214,0,0,0,0-1.714l-.555-.555-.167.166.555.555a.976.976,0,0,1,0,1.381,1.214,1.214,0,0,0,0,1.714l.511.5.167-.166Zm3.1-8.831a.977.977,0,0,1-.977-.976,1.215,1.215,0,0,0-1.21-1.215h-.76V171h.76a.977.977,0,0,1,.971.976,1.215,1.215,0,0,0,1.216,1.209h.716v-.233Z" transform="translate(-359.884 -124.345)" fill="#fff"/>
      <path id="Path_51114" data-name="Path 51114" d="M418.67,163.237l.183-.555h-.044c1.2.976,2.4,1.947,3.586,2.934s2.376,1.969,3.5,3.012a17.1,17.1,0,0,1,1.61,1.625,12.826,12.826,0,0,1,1.282,1.886,14.473,14.473,0,0,1,1.527,4.321,12.231,12.231,0,0,0-1.238-4.477,10.9,10.9,0,0,0-1.266-1.98,17.991,17.991,0,0,0-1.621-1.664c-1.149-1.043-2.354-2.019-3.575-2.973s-2.481-1.847-3.775-2.707h-.033v.039Z" transform="translate(-358.091 -120.739)" fill="#263238"/>
      <path id="Path_51115" data-name="Path 51115" d="M421.348,170.339c-.289.843-.511,1.72-.749,2.579s-.466,1.725-.688,2.6c-.439,1.731-.871,3.467-1.277,5.209-.111.477-.222.954-.328,1.437s-.155,1.037-.266,1.548c0,.039.05.05.061,0,.117-.422.289-.832.416-1.254s.244-.876.361-1.315c.233-.865.455-1.731.677-2.6.439-1.731.877-3.467,1.26-5.214.217-.987.466-1.975.622-2.973a.045.045,0,0,0-.089-.011Z" transform="translate(-357.811 -124.14)" fill="#263238"/>
      <path id="Path_51116" data-name="Path 51116" d="M410.75,190.94c-.094.527-.211,1.043-.316,1.564l-.05-.122c1.293.71,3.186,1.664,4.507,2.369,1.51.777,3.025,1.52,4.568,2.252a21.813,21.813,0,0,1-2.415-.843,38.193,38.193,0,0,1-6.844-3.645c.183-.521.355-1.054.555-1.575Z" transform="translate(-354.323 -133.331)" fill="#263238"/>
    </g>
    <g id="Pay_attention-cuate_2_" data-name="Pay attention-cuate (2)" transform="translate(331.16 109.844)">
      <g id="freepik--Sign--inject-142">
        <rect id="Rectangle_10592" data-name="Rectangle 10592" width="46.035" height="60" transform="translate(0 0.316)" fill="#455a64"/>
        <path id="Path_51159" data-name="Path 51159" d="M111.955,114.577H74.14L93.048,81.44Z" transform="translate(-70.14 -76.08)" fill="#e27e28"/>
        <path id="Path_51160" data-name="Path 51160" d="M114.018,118.635H81.65L97.832,90.27ZM82.9,117.909h29.867L97.832,91.736Z" transform="translate(-74.816 -81.705)" fill="#fff"/>
        <path id="Path_51161" data-name="Path 51161" d="M121.94,124.272V113.78h3.125v10.492Zm0,6.224v-3.52h3.125v3.52Z" transform="translate(-100.485 -96.683)" fill="#fff"/>
        <ellipse id="Ellipse_1213" data-name="Ellipse 1213" cx="1" cy="1" rx="1" ry="1" transform="translate(43 57.317)" fill="#fff"/>
        <text id="KYC_Incomplete" data-name="KYC
Incomplete" transform="translate(23.018 47.497)" fill="#fff" font-size="6" font-family="DaxPro-Medium, Dax Pro" font-weight="500"><tspan x="-4.656" y="0">KYC</tspan><tspan x="-14.571" y="6">Incomplete</tspan></text>
        <ellipse id="Ellipse_1214" data-name="Ellipse 1214" cx="1" cy="1" rx="1" ry="1" transform="translate(1 57.316)" fill="#fff"/>
        <ellipse id="Ellipse_1215" data-name="Ellipse 1215" cx="1" cy="1" rx="1" ry="1" transform="translate(43 1.316)" fill="#fff"/>
        <ellipse id="Ellipse_1216" data-name="Ellipse 1216" cx="1" cy="1" rx="1" ry="1" transform="translate(1 1.316)" fill="#fff"/>
      </g>
    </g>
  </g>
</svg>
