<svg xmlns="http://www.w3.org/2000/svg" width="576" height="576" viewBox="0 0 576 576">
  <g id="Group_17376" data-name="Group 17376" transform="translate(-4821 -4930)">
    <g id="Group_17375" data-name="Group 17375" transform="translate(801 -1181.97)">
      <g id="freepik--Shadow--inject-296" transform="translate(4102.294 6630.418)">
        <ellipse id="Ellipse_890" data-name="Ellipse 890" cx="205.635" cy="24.716" rx="205.635" ry="24.716" transform="translate(0 0)" fill="#ebebeb"/>
      </g>
      <g id="freepik--Floor--inject-296" transform="translate(4020 6590.724)">
        <path id="Path_32823" data-name="Path 32823" d="M35.07,394.036l71.979-.322,71.979-.121L323,393.38l143.972.214,71.979.121,71.979.322-71.979.335-71.979.121L323,394.706l-143.972-.228-71.979-.107Z" transform="translate(-35.07 -393.38)" fill="#263238"/>
      </g>
      <g id="freepik--Device--inject-296" transform="translate(4176.509 6147.262)">
        <path id="Path_32824" data-name="Path 32824" d="M392.608,62.35H174a22.319,22.319,0,0,0-22.1,22.533V534.856A22.332,22.332,0,0,0,174,557.375h218.6a22.345,22.345,0,0,0,22.131-22.519V84.883A22.332,22.332,0,0,0,392.608,62.35ZM400.9,520.937c0,11.842-8.868,21.434-19.8,21.434H185.525c-10.958,0-19.827-9.578-19.827-21.434v-419c0-24.114,8.868-25.306,19.827-25.306H224.71c2.277,0,4.139,2.586,4.139,5.787v1.34c0,7.515,4.113,7.542,9.15,7.542h90.6c5.091,0,9.177,0,9.177-7.542v-1.34c0-3.2,1.835-5.787,4.153-5.787h39.185c10.932,0,19.8,3.2,19.8,25.306Z" transform="translate(-151.899 -62.35)" fill="#263238"/>
        <path id="Path_32825" data-name="Path 32825" d="M397.415,98.316v419c0,11.842-8.868,21.434-19.8,21.434H182.027c-10.958,0-19.827-9.578-19.827-21.434v-419c0-24.114,8.868-25.306,19.827-25.306h39.185c2.277,0,4.139,2.586,4.139,5.787v1.34c0,7.515,4.113,7.542,9.15,7.542h90.587c5.091,0,9.177,0,9.177-7.542V78.8c0-3.2,1.835-5.787,4.153-5.787h39.2C388.546,73,397.415,76.212,397.415,98.316Z" transform="translate(-148.401 -58.729)" fill="#fff"/>
        <path id="Path_32826" data-name="Path 32826" d="M397.408,98.316v40.4H162.22v-40.4c0-24.114,8.868-25.306,19.827-25.306h39.185c2.277,0,4.139,2.586,4.139,5.8v1.34c0,7.515,4.113,7.542,9.15,7.542h90.587c5.091,0,9.177,0,9.177-7.542v-1.34c0-3.215,1.835-5.8,4.153-5.8h39.171C388.54,73,397.408,76.225,397.408,98.316Z" transform="translate(-148.394 -58.729)" fill="#00a3b1"/>
        <path id="Path_32827" data-name="Path 32827" d="M265.874,77.774H241.157a1.527,1.527,0,0,1-1.527-1.527h0a1.527,1.527,0,0,1,1.527-1.527h24.716a1.527,1.527,0,0,1,1.527,1.527h0A1.527,1.527,0,0,1,265.874,77.774Z" transform="translate(-122.102 -58.149)" fill="#fff"/>
        <g id="freepik--u5Zjqx--inject-296" transform="translate(57.592 21.943)">
          <path id="Path_32828" data-name="Path 32828" d="M203.357,80.431l-.375.375-.214.214a5.184,5.184,0,0,0-3.644-1.514,5.091,5.091,0,0,0-3.657,1.527l-.2-.214-.375-.375h0l.482-.429a5.252,5.252,0,0,1,1.1-.7,5.788,5.788,0,0,1,1.474-.5l.737-.094h1.139a5.145,5.145,0,0,1,1.34.322,5.586,5.586,0,0,1,.911.415,6.78,6.78,0,0,1,.871.616l.4.362Z" transform="translate(-194.89 -78.73)" fill="#fff"/>
          <path id="Path_32829" data-name="Path 32829" d="M196.373,81.831l-.6-.589a4.166,4.166,0,0,1,2.438-1.219,4.274,4.274,0,0,1,3.657,1.206l-.6.6a3.443,3.443,0,0,0-4.89,0Z" transform="translate(-194.591 -78.307)" fill="#fff"/>
          <path id="Path_32830" data-name="Path 32830" d="M200.357,82.006l-.589.589a1.768,1.768,0,0,0-2.505,0l-.6-.589a2.6,2.6,0,0,1,3.7,0Z" transform="translate(-194.289 -77.88)" fill="#fff"/>
          <path id="Path_32831" data-name="Path 32831" d="M198.712,82.786a.536.536,0,1,1-.536-.536.536.536,0,0,1,.536.536Z" transform="translate(-193.956 -77.534)" fill="#fff"/>
        </g>
        <path id="Path_32832" data-name="Path 32832" d="M173.66,81.291a1.567,1.567,0,1,1,1.554,1.554,1.567,1.567,0,0,1-1.554-1.554Z" transform="translate(-144.508 -56.454)" fill="#fff"/>
        <path id="Path_32833" data-name="Path 32833" d="M177.32,81.291a1.567,1.567,0,1,1,1.567,1.554,1.567,1.567,0,0,1-1.567-1.554Z" transform="translate(-143.265 -56.454)" fill="#fff"/>
        <path id="Path_32834" data-name="Path 32834" d="M181,81.291a1.567,1.567,0,1,1,1.554,1.554A1.567,1.567,0,0,1,181,81.291Z" transform="translate(-142.015 -56.454)" fill="#fff"/>
        <path id="Path_32835" data-name="Path 32835" d="M184.65,81.291a1.567,1.567,0,1,1,1.567,1.554,1.567,1.567,0,0,1-1.567-1.554Z" transform="translate(-140.776 -56.454)" fill="#fff"/>
        <path id="Path_32836" data-name="Path 32836" d="M188.32,81.291a1.567,1.567,0,1,1,1.554,1.554,1.567,1.567,0,0,1-1.554-1.554Z" transform="translate(-139.529 -56.454)" fill="#fff"/>
        <path id="Path_32837" data-name="Path 32837" d="M327.83,84.935h-12.7V79h12.7Zm-12.057-.656H327.16V79.7H315.773Z" transform="translate(-96.459 -56.695)" fill="#fff"/>
        <rect id="Rectangle_8782" data-name="Rectangle 8782" width="8.185" height="3.885" transform="translate(219.73 23.35)" fill="#fff"/>
        <rect id="Rectangle_8783" data-name="Rectangle 8783" width="1.125" height="3.148" transform="translate(231.371 23.725)" fill="#fff"/>
        <path id="Path_32838" data-name="Path 32838" d="M180.613,112.988l-6.953-6.511,6.953-6.5,1.072,1.139-5.72,5.359,5.72,5.372Z" transform="translate(-144.508 -49.569)" fill="#fff"/>
        <rect id="Rectangle_8784" data-name="Rectangle 8784" width="190.042" height="330.999" transform="translate(32.287 107.185)" fill="#a6a6a6"/>
        <text id="Lorem_ipsum_dolor_sit_amet_consetetur_sadipscing_elitr_sed_diam_nonumy_eirmod_tempor_invidunt_ut_labore_et_dolore_magna_aliquyam_erat_sed_diam_voluptua._At_vero_eos_et_accusam_et_justo_duo_dolores_et_ea_rebum._Stet_clita_kasd_gubergren_no_sea_takimata_" data-name="Lorem ipsum dolor sit amet, consetetur sadipscing elitr, sed diam nonumy eirmod tempor invidunt ut labore et dolore magna aliquyam erat, sed diam voluptua. At vero eos et accusam et justo duo dolores et ea rebum. Stet clita kasd gubergren, no sea takimata " transform="translate(40.491 134.709)" fill="#fff" font-size="9" font-family="DaxPro-Light, Dax Pro" font-weight="300"><tspan x="0" y="9">Lorem ipsum dolor sit amet, consetetur </tspan><tspan x="0" y="20">sadipscing elitr, sed diam nonumy eirmod </tspan><tspan x="0" y="31">tempor invidunt ut labore et dolore magna </tspan><tspan x="0" y="42">aliquyam erat, sed diam voluptua. At vero eos </tspan><tspan x="0" y="53">et accusam et justo duo dolores et ea rebum. </tspan><tspan x="0" y="64">Stet clita kasd gubergren, no sea takimata </tspan><tspan x="0" y="75">sanctus est.</tspan></text>
        <text id="Lorem_ipsum_dolor_sit_amet_consetetur_sadipscing_elitr_sed_diam_nonumy_eirmod_tempor_invidunt_ut_labore_et_dolore_magna_aliquyam_erat_sed_diam_voluptua._At_vero_eos_et_accusam_et_justo_duo_dolores_et_ea_rebum._Stet_clita_kasd_gubergren_no_sea_takimata_2" data-name="Lorem ipsum dolor sit amet, consetetur sadipscing elitr, sed diam nonumy eirmod tempor invidunt ut labore et dolore magna aliquyam erat, sed diam voluptua. At vero eos et accusam et justo duo dolores et ea rebum. Stet clita kasd gubergren, no sea takimata " transform="translate(40.491 295.709)" fill="#fff" font-size="9" font-family="DaxPro-Light, Dax Pro" font-weight="300"><tspan x="0" y="9">Lorem ipsum dolor sit amet, consetetur </tspan><tspan x="0" y="20">sadipscing elitr, sed diam nonumy eirmod </tspan><tspan x="0" y="31">tempor invidunt ut labore et dolore magna </tspan><tspan x="0" y="42">aliquyam erat, sed diam voluptua. At vero eos </tspan><tspan x="0" y="53">et accusam et justo duo dolores et ea rebum. </tspan><tspan x="0" y="64">Stet clita kasd gubergren, no sea takimata </tspan><tspan x="0" y="75">sanctus est.</tspan></text>
      </g>
      <g id="freepik--speech-bubble--inject-296" transform="translate(4482.633 6142.519)" opacity="0">
        <path id="Path_32979" data-name="Path 32979" d="M450.871,94.412a32.058,32.058,0,0,1-53.586,20.3l-16.076,2.358,8.038-13.879a32.071,32.071,0,1,1,61.624-8.775Z" transform="translate(-380.138 -58.723)" fill="#fff"/>
        <path id="Path_32980" data-name="Path 32980" d="M451.143,94.5a32.352,32.352,0,0,1-6.47,16.263,38.264,38.264,0,0,1-2.907,3.349,36.5,36.5,0,0,1-3.389,2.867,32.54,32.54,0,0,1-16.371,6.39,31,31,0,0,1-4.461.08,27.5,27.5,0,0,1-4.434-.455,32.339,32.339,0,0,1-15.834-7.864l.375.121L381.576,117.7l-1.166.188.589-1.032,8.038-13.892v.549A32.393,32.393,0,1,1,451.224,94.5Zm0,0a31.78,31.78,0,0,0-49.62-29.472,33.008,33.008,0,0,0-9.605,10.463A31.535,31.535,0,0,0,387.9,89.059a31.911,31.911,0,0,0,2.251,13.973l.121.295-.147.255-8.038,13.852-.576-.844,16.076-2.251h.214l.161.147a31.5,31.5,0,0,0,15.366,7.917,26.3,26.3,0,0,0,4.354.522,29.888,29.888,0,0,0,4.381,0,31.388,31.388,0,0,0,8.574-1.889,29.728,29.728,0,0,0,7.73-4.166,36.073,36.073,0,0,0,3.389-2.827,34.305,34.305,0,0,0,2.92-3.322A32.151,32.151,0,0,0,451.143,94.5Z" transform="translate(-380.41 -58.809)" fill="#263238"/>
        <path id="Path_32981" data-name="Path 32981" d="M407.13,90.67V69.53h6.283V90.67Zm0,12.539V96.122h6.283v7.087Z" transform="translate(-371.335 -55.168)" fill="#00a3b1"/>
      </g>
      <g id="freepik--Plant--inject-296" transform="translate(4023.362 6397.802)">
        <path id="Path_32982" data-name="Path 32982" d="M90.978,345.068s-22.225-5.037-34.4-16.263-19-31.334-19-31.334a191.049,191.049,0,0,1,24.931,6.551,42.265,42.265,0,0,1,7.542,10.717,50.678,50.678,0,0,0,0-7.623,33.719,33.719,0,0,1,7.917,4.8C88.125,320.673,90.978,345.068,90.978,345.068Z" transform="translate(-37.58 -233.033)" fill="#00a3b1"/>
        <path id="Path_32983" data-name="Path 32983" d="M50.273,306.415c-3.028-2.1-6.109-4.126-9.123-6.243-.188-.121,0-.415.174-.295,5.734,3.416,11.374,7.073,16.839,10.9,1.9,1.34,3.778,2.679,5.627,4.139l-.388-.656c-.67-1.112-1.34-2.21-2.076-3.309a47.891,47.891,0,0,0-4.716-6.3c-.067-.067,0-.174.107-.107,1.728,2,3.456,4.019,5.037,6.1.75,1,1.447,2.05,2.117,3.108.348.563.683,1.112.991,1.688.107.188.228.375.335.576,2.88,2.251,5.68,4.608,8.346,7.087q2.465,2.318,4.769,4.783c-.857-2.679-1.608-5.359-2.6-8.038,0-.094.107-.134.147,0,.965,2.786,2.023,5.573,2.773,8.426,1.7,1.835,3.336,3.751,4.863,5.734l-.08-.362c-.255-1.058-.509-2.1-.79-3.135-.549-2.009-1.139-4.019-1.809-5.975a34.736,34.736,0,0,0-5.975-11.28c0-.08,0-.188.107-.107a43.552,43.552,0,0,1,8.52,17.71c.228.938.455,1.889.67,2.84.121.509.255,1.018.335,1.541.67.911,1.34,1.822,1.969,2.773a96.736,96.736,0,0,1,9.378,18.434,211.013,211.013,0,0,1,7.114,22.211c0,.147-.174.2-.228,0-4.314-12.968-8.761-26.136-16.183-37.765a83.263,83.263,0,0,0-5.077-7.1,42.536,42.536,0,0,1-10.811-2.157A47.235,47.235,0,0,1,59.811,326.4a64.924,64.924,0,0,1-5.56-4.193.071.071,0,1,1,.094-.107,44.85,44.85,0,0,0,10.195,6.162,55.758,55.758,0,0,0,11.266,3.764c1.634.348,3.3.616,4.97.844a96.194,96.194,0,0,0-6.551-7.261c-.75-.75-1.527-1.474-2.3-2.2a53.1,53.1,0,0,0-8.212-4.7c-3.644-1.755-7.234-3.63-10.838-5.452-2.036-1.045-4.019-2.1-6.109-3.095-.08,0,0-.174.08-.134,3.657,1.768,7.368,3.416,11.052,5.1,3.47,1.594,6.98,3.188,10.315,5.05l.415.255c-3-2.679-6.122-5.117-9.378-7.529C56.3,310.688,53.314,308.5,50.273,306.415Z" transform="translate(-36.394 -232.225)" fill="#263238"/>
        <path id="Path_32984" data-name="Path 32984" d="M48.915,313.3c1.8.79,3.644,1.5,5.359,2.331a56.963,56.963,0,0,1,5.359,2.907c.08,0,0,.147-.067.107-1.768-.844-3.563-1.634-5.359-2.519s-3.577-1.875-5.359-2.679C48.781,313.409,48.822,313.262,48.915,313.3Z" transform="translate(-33.764 -227.658)" fill="#263238"/>
        <path id="Path_32985" data-name="Path 32985" d="M145.964,249.37a31.723,31.723,0,0,0-6.7,18.46c0,1.983.241,4.769.469,8.038a52.716,52.716,0,0,0-14.495,12.392,26.338,26.338,0,0,1,14.656-3.51,43.628,43.628,0,0,1-.857,6.7,24.9,24.9,0,0,0-9.378,1.862A21.1,21.1,0,0,1,138.154,295c-4.019,12.606-15.741,25.56-48.227,31.053a68.161,68.161,0,0,1,5.76-45.762C105.413,261.065,145.964,249.37,145.964,249.37Z" transform="translate(-20.359 -249.37)" fill="#00a3b1"/>
        <path id="Path_32986" data-name="Path 32986" d="M81.4,377.729q.844-8.038,2.1-16.076a321.514,321.514,0,0,1,6.551-31.83,128.176,128.176,0,0,1,4.7-14.508,21.1,21.1,0,0,1-.121-2.6v-3.135c0-2.076.121-4.153.295-6.229a74.875,74.875,0,0,1,2-12.191c.589-2.318,1.34-4.608,1.969-6.9a.08.08,0,0,1,.147,0,89.392,89.392,0,0,0-2.411,12.177,116.3,116.3,0,0,0-1.085,12.2c0,1.112-.067,2.237-.067,3.349v1.447a102.694,102.694,0,0,1,5.479-11.347,138.622,138.622,0,0,1,11.119-16.571,6.967,6.967,0,0,1,.268-1.822c.147-.723.308-1.447.469-2.17.335-1.487.71-2.974,1.112-4.434.8-2.947,1.876-5.8,2.8-8.708a.08.08,0,0,1,.147,0c-.871,2.88-1.433,5.868-2.09,8.8-.335,1.447-.643,2.907-.965,4.354-.161.723-.322,1.447-.469,2.184v.161q1.969-2.492,4.019-4.9c6.216-7.288,13.021-14,19.88-20.671.844-.817,1.7-1.621,2.559-2.425.067-.08.174,0,.107.107-6.551,6.832-13.008,13.745-19.1,20.979-1.46,1.715-2.88,3.456-4.287,5.211l2.251-1.487c1.9-1.246,3.818-2.452,5.787-3.55s4.019-2.2,5.988-3.2,4.314-1.862,6.323-3.041c.094,0,.161.094.08.134a47.391,47.391,0,0,0-5.935,3.282c-1.983,1.179-4.019,2.358-5.894,3.59s-3.845,2.411-5.734,3.644c-1.581,1.032-3.148,2.157-4.783,3.108a152.715,152.715,0,0,0-10.422,15.165,112.546,112.546,0,0,0-5.359,10.208l1.165-.509,2.987-1.34c1.9-.844,3.831-1.675,5.747-2.505,3.644-1.581,7.355-3.041,10.931-4.783a50.64,50.64,0,0,0,5.841-3.242c.08,0,.147.08,0,.134-6.7,4.595-14.147,7.837-21.528,11.092l-3.188,1.42c-.884.389-1.768.831-2.679,1.165A113.736,113.736,0,0,0,92.6,326.541,308.3,308.3,0,0,0,85.528,358c-1.835,10.583-3.095,21.3-4.073,32.018-.121,1.34-.241,2.679-.4,4.019a.429.429,0,0,1-.844,0C80.264,388.674,80.826,383.154,81.4,377.729Z" transform="translate(-23.101 -247.167)" fill="#263238"/>
        <path id="Path_32987" data-name="Path 32987" d="M96.162,282.278c.6-3.309,1.487-6.537,2.371-9.766a.08.08,0,0,1,.147,0c-.817,3.175-1.34,6.417-2.009,9.645s-1.152,6.578-1.608,9.887a.047.047,0,1,1-.094,0,89.451,89.451,0,0,1,1.192-9.766Z" transform="translate(-18.088 -241.526)" fill="#263238"/>
        <path id="Path_32988" data-name="Path 32988" d="M106.367,288.4a56.256,56.256,0,0,1,7.073-4.019c1.179-.616,2.385-1.206,3.577-1.782s2.532-1.1,3.751-1.715a.08.08,0,0,1,.08.134c-1.192.589-2.318,1.34-3.483,1.956l-3.617,1.969c-2.371,1.273-4.716,2.679-7.207,3.724a.174.174,0,1,1-.174-.268Z" transform="translate(-14.266 -238.669)" fill="#263238"/>
        <path id="Path_32989" data-name="Path 32989" d="M87.832,318.529s-20.564-4.917-30.008-18.755c-9.016-13.169-11.936-35.635-12.164-37.6.362,1.809,4.608,21.434,18.608,30.584C75,299.8,85.354,305.561,87.832,318.529Z" transform="translate(-34.836 -245.023)" fill="#263238" opacity="0.1"/>
        <path id="Path_32990" data-name="Path 32990" d="M63.036,277.715a26.23,26.23,0,0,1,7.542,12.445h0a30.571,30.571,0,0,0-7.623-12.392C62.822,277.769,62.929,277.648,63.036,277.715Z" transform="translate(-28.982 -239.75)" fill="#263238"/>
        <path id="Path_32991" data-name="Path 32991" d="M87.833,318.566S67.27,313.65,57.825,299.811c-9.016-13.169-11.936-35.635-12.164-37.6a.6.6,0,0,1,0-.147s9.86,14.026,20.229,17.6S90.807,295.645,87.833,318.566Z" transform="translate(-34.837 -245.06)" fill="#00a3b1"/>
        <path id="Path_32992" data-name="Path 32992" d="M48.394,267.881a83.151,83.151,0,0,0,6.363,10.891,43.391,43.391,0,0,0,8.453,8.708c2.8,2.224,5.747,4.233,8.574,6.4v-.094c-.536-.79-1.1-1.554-1.688-2.3-1.179-1.514-2.465-2.934-3.764-4.327-2.559-2.773-5.158-5.506-7.448-8.507a31.939,31.939,0,0,1-3.309-5.359c0-.094.107-.134.147,0,3.336,6.953,10.007,11.4,14.736,17.268a29.3,29.3,0,0,1,1.9,2.6,11.091,11.091,0,0,1,1.192,2.09,43.364,43.364,0,0,1,7.006,7.1,26.7,26.7,0,0,0-.817-4.019,19.813,19.813,0,0,0-2.184-5.211c0-.08.08-.161.121-.08a24.556,24.556,0,0,1,2.411,5.171,18.755,18.755,0,0,1,.737,4.448h0a39.471,39.471,0,0,1,2.786,4.314c-.094-.442-.174-.871-.255-1.34-.415-2.05-.871-4.1-1.34-6.122a36.894,36.894,0,0,0-4.957-11.588c0-.08.08-.161.134-.08a44.531,44.531,0,0,1,5.479,11.333c.656,2.023,1.179,4.019,1.648,6.149.214,1,.429,2.023.616,3.041.107.522.214,1.072.295,1.608a73.83,73.83,0,0,1,4.756,13.946,205.75,205.75,0,0,1,4.381,26,216.127,216.127,0,0,1,1.42,27.61c0,1.165-.094,2.318-.147,3.47a.241.241,0,1,1-.482,0c-.2-4.555-.322-9.123-.589-13.691s-.67-9.11-1.152-13.664a244.2,244.2,0,0,0-4.287-26.592c-1.675-7.515-3.831-15.084-7.944-21.675a41.033,41.033,0,0,0-7.422-8.815c-2.88-2.6-6.028-4.863-9.069-7.261a49.663,49.663,0,0,1-8.333-8.038,65.254,65.254,0,0,1-6.618-10.53l-1.474-2.786C48.22,267.867,48.354,267.787,48.394,267.881Z" transform="translate(-33.952 -243.097)" fill="#263238"/>
        <path id="Path_32993" data-name="Path 32993" d="M51.038,270.133a69.809,69.809,0,0,0,4.582,8.038s0,.121-.094,0a55.492,55.492,0,0,1-4.635-8.038C50.864,270.093,51.038,270.039,51.038,270.133Z" transform="translate(-33.06 -242.336)" fill="#263238"/>
        <path id="Path_32994" data-name="Path 32994" d="M147.647,297.45s.322,29.231-17.147,37.671-26.793,1.407-38.729,4.233h0c.455-.7,8.935-12.887,22.412-16.236C128.074,319.621,143.44,309.627,147.647,297.45Z" transform="translate(-19.175 -233.04)" fill="#00a3b1"/>
        <path id="Path_32995" data-name="Path 32995" d="M147.647,297.45s.322,29.231-17.147,37.671-26.793,1.407-38.729,4.233h0a66.071,66.071,0,0,1,19.867-5.868C122.689,332.147,143.735,324.98,147.647,297.45Z" transform="translate(-19.175 -233.04)" opacity="0.1"/>
        <path id="Path_32996" data-name="Path 32996" d="M94.354,335.347a29.473,29.473,0,0,1,6.953-4.716c.375-.174.764-.322,1.152-.482.174-.228.375-.455.576-.67a19.523,19.523,0,0,1,1.648-1.567,24.46,24.46,0,0,1,3.523-2.532c2.894-1.7,6.069-2.894,9.029-4.474.08,0,.147.08.067.134-1.46.764-2.88,1.594-4.3,2.425s-2.8,1.581-4.153,2.452a30.947,30.947,0,0,0-3.456,2.572c-.308.281-.6.563-.9.871a47.42,47.42,0,0,1,5.908-1.581c3.2-.643,6.43-1.1,9.619-1.782a45.68,45.68,0,0,0,4.649-1.246c1.447-1.165,2.894-2.331,4.26-3.6a35.566,35.566,0,0,0,4.528-5c0-.08.188,0,.121.08a53.371,53.371,0,0,1-7.167,7.9c.764-.295,1.5-.6,2.237-.924a36.17,36.17,0,0,0,14.9-12.392c0-.08.188,0,.121.08A40.793,40.793,0,0,1,131.61,322.46a36.3,36.3,0,0,1-7.609,3.6,71.34,71.34,0,0,1-9.458,2.237,66.6,66.6,0,0,0-9.27,2.2,27.745,27.745,0,0,0-7.757,4.086A36.344,36.344,0,0,0,87.04,347.578a65.3,65.3,0,0,0-5.774,21.367c0,.308-.522.308-.5,0C81.6,356.621,84.9,343.881,94.354,335.347Z" transform="translate(-22.911 -228.511)" fill="#263238"/>
        <path id="Path_32997" data-name="Path 32997" d="M106.055,323.73a10.141,10.141,0,0,1,3.6-3.255,13.29,13.29,0,0,0,4.273-3.537c0-.08.188,0,.121.08a14.427,14.427,0,0,1-3.778,3.376,13.4,13.4,0,0,0-4.1,3.4C106.122,323.864,105.988,323.811,106.055,323.73Z" transform="translate(-14.329 -226.432)" fill="#263238"/>
        <path id="Path_32998" data-name="Path 32998" d="M110.063,345.22l-.79,16.076-2.438,49.1H70.169L67.73,361.3l-.79-16.076Z" transform="translate(-27.608 -216.815)" fill="#37474f"/>
        <path id="Path_32999" data-name="Path 32999" d="M110.063,345.22l-.79,16.076H67.73l-.79-16.076Z" transform="translate(-27.608 -216.815)" fill="#263238"/>
        <rect id="Rectangle_8785" data-name="Rectangle 8785" width="48.267" height="15.339" transform="translate(36.76 121.693)" fill="#37474f"/>
      </g>
      <g id="freepik--Character--inject-296" transform="translate(4314.382 6201.431)">
        <path id="Path_33000" data-name="Path 33000" d="M355.551,385.86s-3.831,53.211-3.831,53.237c0,10.422.08,19.559.6,24.288a7.609,7.609,0,0,0,.75,3.229v.067c3.095,2.117,86.353,4.97,89.287,4.086s.67-9.378-2.465-12.057-34.549-18.045-34.549-18.045l3.309-53.184Z" transform="translate(-221.903 -6.641)" fill="#eb9481"/>
        <path id="Path_33001" data-name="Path 33001" d="M351.72,417.25v11.186c0,10.422.08,19.559.6,24.288a14.3,14.3,0,0,0,.75,3.229v.067c3.095,2.117,86.353,4.97,89.287,4.086s.67-9.378-2.465-12.057S405.346,430,405.346,430l.147-11.347Z" transform="translate(-221.903 4.02)" fill="#fff"/>
        <path id="Path_33002" data-name="Path 33002" d="M442.443,457.452c-2.947.884-86.206-1.969-89.3-4.086-1.192-.79-1.487-12.941-1.42-27.65v-.455l53.733,1.246v.911S436.83,442.756,440,445.448,445.377,456.581,442.443,457.452Z" transform="translate(-221.906 6.741)" fill="#00a3b1"/>
        <path id="Path_33003" data-name="Path 33003" d="M440.289,447.521c-14.026-.831-70.666-2.827-84.6-2.586-.107,0-.107.08,0,.094,13.879,1.125,70.532,2.679,84.585,2.679C440.53,447.708,440.53,447.534,440.289,447.521Z" transform="translate(-220.582 13.417)" fill="#263238"/>
        <path id="Path_33004" data-name="Path 33004" d="M399.391,427.243c-5.479-1.219-12.271-.6-16.625,3.188-.161.147,0,.388.228.335a77.693,77.693,0,0,1,16.357-2.827.349.349,0,1,0,.04-.7Z" transform="translate(-211.381 7.222)" fill="#263238"/>
        <path id="Path_33005" data-name="Path 33005" d="M402.313,429.143c-5.493-1.219-12.271-.6-16.625,3.188-.174.147,0,.375.214.335a77.028,77.028,0,0,1,16.3-2.827.352.352,0,0,0,.107-.7Z" transform="translate(-210.391 7.868)" fill="#263238"/>
        <path id="Path_33006" data-name="Path 33006" d="M405.231,431.033c-5.479-1.219-12.271-.6-16.625,3.188-.161.147,0,.388.228.335a77.7,77.7,0,0,1,16.4-2.827.348.348,0,1,0,0-.7Z" transform="translate(-209.397 8.51)" fill="#263238"/>
        <path id="Path_33007" data-name="Path 33007" d="M350.07,501.352l58.275-1.165s7.114-104.881,5.787-139.846c-1.433-37.979-17.75-150.991-17.75-150.991H347.15S359.743,322.8,360,360.73C360.252,396.016,350.07,501.352,350.07,501.352Z" transform="translate(-223.456 -66.592)" fill="#37474f"/>
        <path id="Path_33008" data-name="Path 33008" d="M386.71,209.35l-29.566,102.3c-3.51-48.415-9.994-102.3-9.994-102.3Z" transform="translate(-223.456 -66.592)" fill="#263238"/>
        <path id="Path_33009" data-name="Path 33009" d="M354.13,213.51l3.121,33.732L360.145,281c1.862,22.506,3.617,45.025,4.957,67.585.322,5.626.522,11.293.442,16.96s-.348,11.307-.63,16.946q-.871,16.933-2.17,33.826t-2.679,33.772l-3.148,33.732,2.519-33.786q1.259-16.893,2.371-33.786c.71-11.266,1.474-22.533,2-33.813q.4-8.467.576-16.906,0-8.44-.509-16.88c-1.219-22.546-3-45.066-4.649-67.585Z" transform="translate(-221.085 -65.179)" fill="#263238"/>
        <path id="Path_33010" data-name="Path 33010" d="M404.567,419.232c-9.1-.08-6.484-.188-15.58-.161-4.461,0-33.719.107-37.872.857a.094.094,0,0,0,0,.174c4.166.643,33.424,0,37.885,0,9.1-.188,6.484-.241,15.58-.536C404.754,419.5,404.754,419.232,404.567,419.232Z" transform="translate(-222.129 4.637)" fill="#263238"/>
        <path id="Path_33011" data-name="Path 33011" d="M293.71,364.55s-28.133,45.7-28.133,45.735c-4.568,9.378-8.4,17.656-9.994,22.131v.08a7.127,7.127,0,0,0-.723,3.229s0,0,0,.08c1.862,3.255,75.663,41.931,78.691,42.413s4.635-8.118,2.974-11.9-23.31-31.24-23.31-31.24l27.637-45.9Z" transform="translate(-254.801 -13.879)" fill="#eb9481"/>
        <path id="Path_33012" data-name="Path 33012" d="M254.851,426.185a.174.174,0,0,0,0,.08c1.875,3.255,75.676,41.931,78.7,42.413s4.635-8.118,2.974-11.9-23.31-31.24-23.31-31.24l4.93-8.2c-12.057-6.417-33.987-17.71-47.6-24.7l-4.983,8.1c-4.568,9.378-8.413,17.656-9.98,22.131a.188.188,0,0,0,0,.08,6.94,6.94,0,0,0-.737,3.229Z" transform="translate(-254.806 -4.338)" fill="#fff"/>
        <path id="Path_33013" data-name="Path 33013" d="M333.579,466.729c-3.041-.482-76.829-39.158-78.691-42.413-.737-1.232,4.273-12.311,10.717-25.52.067-.134.134-.281.214-.415L313.7,422.8l-.442.79s21.622,27.436,23.31,31.241S336.607,467.224,333.579,466.729Z" transform="translate(-254.816 -2.389)" fill="#00a3b1"/>
        <path id="Path_33014" data-name="Path 33014" d="M333.162,456.83c-12.271-6.832-62.441-33.2-75.1-39.01-.094,0-.134,0,0,.08,12.057,7.033,62.4,32.982,75.02,39.131C333.323,457.152,333.43,456.911,333.162,456.83Z" transform="translate(-253.743 4.214)" fill="#263238"/>
        <path id="Path_33015" data-name="Path 33015" d="M305.542,420.1c-4.421-3.483-10.8-5.868-16.37-4.34-.214,0-.121.362.067.4a77.152,77.152,0,0,1,15.955,4.541.348.348,0,0,0,.348-.6Z" transform="translate(-243.19 3.354)" fill="#263238"/>
        <path id="Path_33016" data-name="Path 33016" d="M307.341,423.07c-4.407-3.483-10.8-5.868-16.357-4.34-.214,0-.134.362,0,.4a78.115,78.115,0,0,1,15.969,4.541.359.359,0,1,0,.388-.6Z" transform="translate(-242.577 4.363)" fill="#263238"/>
        <path id="Path_33017" data-name="Path 33017" d="M309.183,426.04c-4.421-3.483-10.8-5.868-16.37-4.34-.214.067-.121.362,0,.4a78.113,78.113,0,0,1,15.969,4.541.362.362,0,1,0,.4-.6Z" transform="translate(-241.954 5.372)" fill="#263238"/>
        <path id="Path_33018" data-name="Path 33018" d="M420.52,209.344h0c-.214,1.018-3.657,16.987-7.234,30.7-2.585,10.021-5.265,18.755-6.792,19.733-1.728,1.032-10.181,4.769-13.021,5.948,0,0-19.01,94.9-29.043,124.332-9.257,27.155-47.584,99.737-47.584,99.737l-55.6-28.133s43.418-73.68,47.986-86.889c7.073-20.483,33.6-120.568,33.6-120.568s-.214-31.321,10.342-45Z" transform="translate(-252.631 -66.639)" fill="#37474f"/>
        <path id="Path_33019" data-name="Path 33019" d="M314.131,416.948c-7.944-4.434-5.6-3.269-13.6-7.623-3.912-2.13-29.633-16.076-33.625-17.415-.08,0-.161.107-.08.161,3.349,2.559,29.3,16.076,33.25,18.125,8.038,4.193,5.814,2.907,13.932,7.006C314.158,417.269,314.279,417.042,314.131,416.948Z" transform="translate(-250.748 -4.586)" fill="#263238"/>
        <path id="Path_33020" data-name="Path 33020" d="M332.807,241.448c1.527-.388,3.162-.522,4.7-.764,1.259-.2,2.505-.415,3.751-.7a16.224,16.224,0,0,0,6.6-2.773c2.157-1.675,3.242-4.22,4.287-6.7.616-1.447,1.259-2.894,1.9-4.327.308-.7.63-1.34.951-2.09a22.134,22.134,0,0,0,1.165-2.492c0-.121.241-.067.2,0a13.82,13.82,0,0,0-.5,1.889c-.214.71-.415,1.407-.63,2.1-.388,1.246-.764,2.492-1.165,3.724a29.323,29.323,0,0,1-2.679,6.551c-2.291,3.657-6.4,5.131-10.5,5.653-1.179.147-2.358.228-3.55.295a24.959,24.959,0,0,1-4.474,0,.2.2,0,0,1-.067-.375Z" transform="translate(-228.363 -62.453)" fill="#263238"/>
        <path id="Path_33021" data-name="Path 33021" d="M377.438,245.336a110.7,110.7,0,0,0-17.415,8.118.2.2,0,0,0,.161.362c5.881-2.532,11.856-4.943,17.59-7.783a.389.389,0,0,0-.335-.7Z" transform="translate(-219.114 -54.377)" fill="#263238"/>
        <path id="Path_33022" data-name="Path 33022" d="M377.379,215.363c0-.2-.375-.255-.375,0a193.388,193.388,0,0,1-.978,19.612c-.281,3.014-2.679,19.733-7.958,18.514-.871-.2-1.34-1.072-1.46-2.4a21.692,21.692,0,0,1,.7-5.117c.589-3.5,1.058-7.006,1.34-10.543a95.639,95.639,0,0,0-.214-19.773.174.174,0,0,0-.335,0,182.2,182.2,0,0,1-1.594,27.289c-.656,4.34-2.853,10.891,1.7,11.561s7.623-10.288,8.185-13.289A100.058,100.058,0,0,0,377.379,215.363Z" transform="translate(-217.259 -64.608)" fill="#263238"/>
        <path id="Path_33023" data-name="Path 33023" d="M367.925,244.171a28.583,28.583,0,0,0-1.179,3.47,8.038,8.038,0,0,0-.5,2.84.2.2,0,0,0,.362.08,9.713,9.713,0,0,0,1.219-2.773c.4-1.072.831-2.13,1.192-3.215a.589.589,0,0,0-1.1-.4Z" transform="translate(-216.968 -54.874)" fill="#263238"/>
        <path id="Path_33024" data-name="Path 33024" d="M272.443,451.43c7.917-14.9,16.076-29.66,24.261-44.409,4.019-7.274,8.252-14.455,12.057-21.823a132.1,132.1,0,0,0,8.788-22.774q7.355-23.873,13.919-47.973t12.325-48.4c.965-4.019,2.023-8.038,2.8-12.177a37.2,37.2,0,0,0,0-12.485,40.186,40.186,0,0,1-.094-11.615,76.619,76.619,0,0,1,2.679-11.36c.616-1.956,1.34-3.9,1.956-5.841a.176.176,0,1,1,.335.107c-2.4,7.85-4.849,15.781-4.327,24.114.241,4.019,1.34,7.9,1.233,11.923a56.824,56.824,0,0,1-2.009,11.789q-5.68,24.462-12.191,48.683t-13.758,48.227c-2.358,7.783-4.568,15.687-7.917,23.122s-7.6,14.482-11.6,21.582q-12.3,22.064-25.025,43.914l-3.255,5.519a.107.107,0,0,1-.174-.121Z" transform="translate(-248.833 -65.539)" fill="#263238"/>
        <path id="Path_33025" data-name="Path 33025" d="M415.546,115.238l-12.311,34.67a1.34,1.34,0,0,0,.991,2l18.326,1.728a2.974,2.974,0,0,0,2.679-1.648l12.311-34.657a1.284,1.284,0,0,0-.991-2l-18.326-1.742a3,3,0,0,0-2.679,1.648Z" transform="translate(-204.467 -99.116)" fill="#263238"/>
        <path id="Path_33026" data-name="Path 33026" d="M417.168,115.431,404.856,150.1a1.286,1.286,0,0,0,.991,2l18.326,1.728a2.947,2.947,0,0,0,2.679-1.648l12.311-34.657a1.292,1.292,0,0,0-.991-2.009l-18.326-1.782A3,3,0,0,0,417.168,115.431Z" transform="translate(-203.918 -99.069)" fill="#455a64"/>
        <path id="Path_33027" data-name="Path 33027" d="M418.432,116.975a1.567,1.567,0,1,1-1.34-1.742A1.568,1.568,0,0,1,418.432,116.975Z" transform="translate(-200.306 -98.563)" fill="#263238"/>
        <path id="Path_33028" data-name="Path 33028" d="M364.27,160.367c10.784,22.01,32.687,47.665,42.36,47.624,4.608,0,14,1.5,19.961-3.9,12.981-11.762,25.306-30.919,28.133-42.775,1.058-4.434-22.935-15.58-26.1-11.869-7.422,8.694-15.928,25.668-17.268,25.587-4.957-.295-24.6-16.076-38.3-27.222C356.393,134.3,359.983,151.592,364.27,160.367Z" transform="translate(-218.86 -89.186)" fill="#eb9481"/>
        <path id="Path_33029" data-name="Path 33029" d="M435.814,147.8c-1.34-9.311-3.148-11.494-.121-19.974,1.983-5.56-.71-9.217-5.225-5.05-7.395,6.805-8.158,19.184-7.194,23.564Z" transform="translate(-197.714 -96.607)" fill="#eb9481"/>
        <path id="Path_33030" data-name="Path 33030" d="M436.78,175.081s5.359-12.231,4.9-22.305c-.321-6.953-2.679-22.037-21.113-31.763-4.367-2.3-12.218-2.505-6.47,3.858,4.1,4.515,8.038,6.136,9.954,9.2,0,0-10.021.938-12.164,5.359a92.7,92.7,0,0,0-4.769,12.057,21.791,21.791,0,0,0,2.184,1.1s-1.875,4.233.737,10.8Z" transform="translate(-203.087 -97.095)" fill="#eb9481"/>
        <path id="Path_33031" data-name="Path 33031" d="M442.287,143.5c-2.519-2.679-7.971-8.145-14-11.092-6.7-3.269-20.47-7.783-22.841-2.813-1.728,3.644,3.376,5.827,3.376,5.827s-6.082-.67-6.939,2.961c-.764,3.309,3.282,4.769,3.282,4.769s-3.764.228-3.885,3.563c-.161,4.019,7.743,2.853,11.092,7.06C413.123,154.708,442.287,143.5,442.287,143.5Z" transform="translate(-205.071 -94.432)" fill="#eb9481"/>
        <path id="Path_33032" data-name="Path 33032" d="M424.106,138.043a29.754,29.754,0,0,0-17.067-4.729c-.147,0-.214.134-.08.147a73.5,73.5,0,0,1,17.107,4.649Z" transform="translate(-203.167 -92.422)" fill="#263238"/>
        <path id="Path_33033" data-name="Path 33033" d="M421.547,142.762a33.264,33.264,0,0,0-17.308-3.7c-.147,0-.214.134-.08.147a79.039,79.039,0,0,1,17.415,3.617Z" transform="translate(-204.118 -90.483)" fill="#263238"/>
        <path id="Path_33034" data-name="Path 33034" d="M422.076,155.22l32.687,21.032S440.67,197.043,425.546,206.9c-7.06,4.595-17.844,4.019-21.166,2.907-10.422-3.322-36.077-35.125-44.7-54.189-5.251-11.588,1.755-18.969,14.549-8.4,13.155,10.878,36.264,24.462,37.7,25.038S422.076,155.22,422.076,155.22Z" transform="translate(-219.798 -89.424)" fill="#00a3b1"/>
        <path id="Path_33035" data-name="Path 33035" d="M418.608,167.028c-2.452-1.608-12.177-8.1-14.468-9.887v-.08c2.532,1.34,12.325,7.448,14.736,9.056a165.1,165.1,0,0,1,14.388,10.021c.067,0,0,.214-.107.161C428.16,173.525,423.417,170.19,418.608,167.028Z" transform="translate(-204.099 -84.353)" fill="#263238"/>
        <path id="Path_33036" data-name="Path 33036" d="M359.677,155.609c6.993,15.446,25.172,39.265,37.349,49.567l-30.731-62.535h0C358.819,140.324,355.644,146.714,359.677,155.609Z" transform="translate(-219.799 -89.411)" opacity="0.1"/>
        <path id="Path_33037" data-name="Path 33037" d="M329.867,232.546c.2.228,71.617.965,72.341,0,1.085-1.34-15.66-73.1-21.89-86.42-2.679-5.68-16.652-7.18-22.466-2.251C343.33,156.293,329.13,231.742,329.867,232.546Z" transform="translate(-229.335 -89.841)" fill="#fff"/>
        <path id="Path_33038" data-name="Path 33038" d="M361.05,142s7.877,36.934,8.614,39.6,3.55,70.251,3.55,70.251l-49-5.935s10.449-37.577,11.615-39.278S346.3,165.109,353.9,150.627C357.326,144.05,361.05,142,361.05,142Z" transform="translate(-231.247 -89.467)" fill="#00a3b1"/>
        <path id="Path_33039" data-name="Path 33039" d="M366.27,143.24s3.872,29.553,4.019,31.307,13.4,74.833,13.4,74.833l12.673-6.779s-13.53-48.107-14.147-50.344-10.945-39.962-12.633-44.1S366.27,143.24,366.27,143.24Z" transform="translate(-216.962 -89.046)" fill="#00a3b1"/>
        <path id="Path_33040" data-name="Path 33040" d="M354.457,150.957c-13.946,17.415-44.048,57.39-36.278,67.371,12.78,16.411,45.226,31.87,55.448,35.5,4.421,1.581,22.118-30.169,18.032-33.062-4.9-3.47-36.733-17.884-36.813-19.465s7.14-23.712,10.034-41.194C368.47,138.431,360.271,143.669,354.457,150.957Z" transform="translate(-233.724 -88.577)" fill="#eb9481"/>
        <path id="Path_33041" data-name="Path 33041" d="M371.332,199.76s14,2.679,23.069,4.876c5.064,1.219,13.544,4.019,16.853,6.7,4.957,3.885,23.162,23.283,18.554,27.811-4.166,4.086-17.7-14.575-17.7-14.575s15.312,17.616,9.378,21.622-18.42-19.1-18.42-19.1,15.339,18.447,8.574,21.608c-5.117,2.385-17.6-17.911-17.6-17.911s13.062,15.955,7.917,18.634c-5.693,2.961-18.407-15.044-18.407-15.044-14.24,4.608-23.042,1.675-28.762-2.344C353.462,231.067,371.332,199.76,371.332,199.76Z" transform="translate(-220.885 -69.849)" fill="#eb9481"/>
        <path id="Path_33042" data-name="Path 33042" d="M394.433,214.1c12.285,12.057,14.589,21.823,14.468,21.568-2.679-5.787-8.6-13.638-10.3-15.794s-2.559-3.55-4.247-5.707C394.313,214.117,394.393,214.063,394.433,214.1Z" transform="translate(-207.427 -64.982)" fill="#263238"/>
        <path id="Path_33043" data-name="Path 33043" d="M388.022,217.914a58.824,58.824,0,0,1,12.727,16.424c.107.255,0,.241-.174,0-2.076-2.813-10.422-13.691-12.619-16.384C387.888,217.927,388.022,217.873,388.022,217.914Z" transform="translate(-209.603 -63.688)" fill="#263238"/>
        <path id="Path_33044" data-name="Path 33044" d="M382.246,220.827a43.258,43.258,0,0,1,9.485,13.008c.121.228-.08.214-.228,0-3.081-4.381-5.452-7.85-9.378-12.874C382.058,220.867,382.179,220.746,382.246,220.827Z" transform="translate(-211.583 -62.703)" fill="#263238"/>
        <path id="Path_33045" data-name="Path 33045" d="M382.07,215.512l-20.282,38.046s-42.373-25.708-45.106-36.921,29.392-58.221,38.85-67.665,12.231-5.238,11.4,6.055-11.508,46.03-11.333,46.7S382.07,215.512,382.07,215.512Z" transform="translate(-233.86 -88.87)" fill="#00a3b1"/>
        <path id="Path_33046" data-name="Path 33046" d="M349.961,178.772q1.085-3.925,2.13-7.837c.362-1.34.71-2.679,1.1-4.019l.523-1.875c.08-.308.2-.616.268-.924a5.587,5.587,0,0,1,.375-1.246h.134a9.524,9.524,0,0,1-.121.991,12.584,12.584,0,0,0-.268,1.232l-.4,1.9c-.281,1.34-.576,2.6-.9,3.885l-.121.509a.565.565,0,0,1,0-.134c.549-1.34,1.125-2.773,1.688-4.153h.107c-.415,1.447-.871,2.867-1.42,4.26-.308.8-.67,1.594-1.031,2.385-.442,1.715-.857,3.443-1.34,5.158-1.407,5.359-2.853,10.65-4.689,15.835,2.224,1.165,4.515,2.21,6.7,3.389s4.448,2.358,6.7,3.563,4.434,2.385,6.631,3.617l3.121,1.8c1.139.656,2.2,1.433,3.336,2.063.121,0,0,.228-.107.161-1.192-.616-2.478-1.1-3.684-1.688L365.5,206.06c-2.251-1.152-4.474-2.344-6.7-3.523s-4.461-2.358-6.7-3.563-4.354-2.532-6.551-3.738a.241.241,0,0,1-.134-.174.281.281,0,0,1-.107-.308C346.827,189.395,348.474,184.1,349.961,178.772Z" transform="translate(-224.083 -82.378)" fill="#263238"/>
        <path id="Path_33047" data-name="Path 33047" d="M353.476,212.24c1.514-2.679,7.609-13.731,9.378-16.33h.094c-1.165,2.813-6.859,13.825-8.359,16.585a171.034,171.034,0,0,1-9.538,16.29c-.067.094-.241,0-.188-.08C347.368,223.038,350.516,217.679,353.476,212.24Z" transform="translate(-224.236 -71.157)" fill="#263238"/>
        <path id="Path_33048" data-name="Path 33048" d="M326.493,209.182c2.385,1.433,23.27,16.813,28.133,19.706.281.161-.08.241-.348.08-4.97-3-23.631-15.54-27.918-19.586C326.212,209.222,326.292,209.048,326.493,209.182Z" transform="translate(-230.543 -66.665)" fill="#263238"/>
        <path id="Path_33049" data-name="Path 33049" d="M366.635,160.161c-4.461.509-12.057-7.649-14.321-13.4-.161-.388.871-4.206,1.889-8.9.6-2.853,1.206-6.042,1.554-8.989l17.965,6.7a47.828,47.828,0,0,0-3.108,11.119,6.213,6.213,0,0,0,0,1.219v.2C370.654,150.475,370.935,159.652,366.635,160.161Z" transform="translate(-221.707 -93.923)" fill="#eb9481"/>
        <path id="Path_33050" data-name="Path 33050" d="M369.454,147.791a.989.989,0,0,0,0,.2,12.134,12.134,0,0,1-1.916-.107c-10.717-1.5-11.655-14.9-11.708-18.634l4.488,1.661,12.258,4.555a46.887,46.887,0,0,0-3.108,11.106,6.216,6.216,0,0,0-.013,1.219Z" transform="translate(-220.507 -93.797)" fill="#263238"/>
        <path id="Path_33051" data-name="Path 33051" d="M353.121,118.411c-1.514,6.7,3.376,25.453,8.386,29.378,7.247,5.64,18.407,5.359,23.015-3.148,4.474-8.292-2.344-32.634-7.864-36.09C368.527,103.448,355.358,108.5,353.121,118.411Z" transform="translate(-221.523 -101.513)" fill="#eb9481"/>
        <path id="Path_33052" data-name="Path 33052" d="M361.33,129.007c.951-3.818-1.7-9.86,0-11.682,3.7-3.939,12.5,2.277,18.139,1.835s6.993-4.019,5.627-8.44-5.359-7.006-11.575-7.408a23.055,23.055,0,0,0-14.95,4.943s1.192-2.331.616-2.974-3.068,1.7-3.818,2.679a8.294,8.294,0,0,0-1.112,2.679,8.613,8.613,0,0,0-2.519,0,5.158,5.158,0,0,0-3.108,1.715c-.08.335,1.929.429,3.336.375,0,0-2.3,3.671-2.009,6.618s6.1,16.6,7.207,16.652C358.6,136.08,360.942,130.547,361.33,129.007Z" transform="translate(-222.953 -102.61)" fill="#263238"/>
        <path id="Path_33053" data-name="Path 33053" d="M352.28,110h.08a9.552,9.552,0,0,0-2.612,4.434,11.655,11.655,0,0,0,.522,6.283,56.6,56.6,0,0,0,5.359,10.61c.067.094-.107.2-.174.094a41.85,41.85,0,0,1-5.76-11.427C348.662,116.444,349.145,112.3,352.28,110Z" transform="translate(-222.758 -100.335)" fill="#263238"/>
        <path id="Path_33054" data-name="Path 33054" d="M357.906,112.792a13.263,13.263,0,0,1,4.984-.094,19.21,19.21,0,0,1,4.421,1.742,19.05,19.05,0,0,0,10.329,1.916v.08a16.76,16.76,0,0,1-9.565-1.219,40.6,40.6,0,0,0-4.608-1.956,17.107,17.107,0,0,0-5.546-.174.148.148,0,0,1-.013-.295Z" transform="translate(-219.85 -99.484)" fill="#263238"/>
        <path id="Path_33055" data-name="Path 33055" d="M358.46,106.569a25.776,25.776,0,0,1,6.819-2.907,20.282,20.282,0,0,1,7.046-.844c4.1.308,8.038,2.572,9.378,6.7a8.882,8.882,0,0,1-.281,6.377.121.121,0,0,1-.214-.094,9.15,9.15,0,0,0-2.987-10.556c-3.563-2.6-8.239-2.425-12.325-1.42a38.393,38.393,0,0,0-7.381,2.8S358.447,106.569,358.46,106.569Z" transform="translate(-219.615 -102.786)" fill="#263238"/>
        <path id="Path_33056" data-name="Path 33056" d="M359.12,127.827s-4.876-5.734-7.515-3.939,1.433,10.4,4.823,11.293a3.349,3.349,0,0,0,4.287-2.21Z" transform="translate(-222.23 -95.737)" fill="#eb9481"/>
        <path id="Path_33057" data-name="Path 33057" d="M352.26,125.62v.094a8.453,8.453,0,0,1,4.849,4.836,1.862,1.862,0,0,0-2.8-.241s0,.147.067.121a2.077,2.077,0,0,1,2.331.509,9.378,9.378,0,0,1,1.246,1.715c.134.188.482,0,.388-.174h0C358.087,129.492,355.422,125.62,352.26,125.62Z" transform="translate(-221.72 -95.03)" fill="#263238"/>
        <path id="Path_33058" data-name="Path 33058" d="M367.592,123.61s-.08.094,0,.147c.348,1.259.536,2.773-.522,3.47h0C368.4,126.812,368.128,124.762,367.592,123.61Z" transform="translate(-216.69 -95.713)" fill="#263238"/>
        <path id="Path_33059" data-name="Path 33059" d="M366.68,122.823c-2.09.348-1.259,4.5.683,4.18S368.435,122.542,366.68,122.823Z" transform="translate(-217.238 -95.985)" fill="#263238"/>
        <path id="Path_33060" data-name="Path 33060" d="M373.17,122.32s.107,0,.121.094c.214,1.34.683,2.679,1.929,2.934h0C373.773,125.508,373.17,123.579,373.17,122.32Z" transform="translate(-214.618 -96.151)" fill="#263238"/>
        <path id="Path_33061" data-name="Path 33061" d="M374.044,121.154c2.05-.576,3.041,3.55,1.152,4.019S372.342,121.636,374.044,121.154Z" transform="translate(-214.621 -96.566)" fill="#263238"/>
        <path id="Path_33062" data-name="Path 33062" d="M364.208,120.328c.389-.455.817-.8,1.246-1.219a2.773,2.773,0,0,1,1.514-.978.884.884,0,0,1,.911.6,2.251,2.251,0,0,1-.8,2.117,3.242,3.242,0,0,1-2.1,1.045.951.951,0,0,1-.764-1.567Z" transform="translate(-217.739 -97.575)" fill="#263238"/>
        <path id="Path_33063" data-name="Path 33063" d="M376.393,119.7a14.023,14.023,0,0,0-1.608-.67,2.746,2.746,0,0,0-1.768-.375.884.884,0,0,0-.616.9,2.21,2.21,0,0,0,1.5,1.675,3.229,3.229,0,0,0,2.344.214.951.951,0,0,0,.147-1.742Z" transform="translate(-214.88 -97.403)" fill="#263238"/>
        <path id="Path_33064" data-name="Path 33064" d="M369.134,135.332a11.025,11.025,0,0,1,5-1.34c.147,0,.214-.375.214-.522h0l-.643-2.679c.389.107,2.385.549,2.251,0a66.984,66.984,0,0,0-4.407-12.74.121.121,0,0,0-.228.08c.938,4.019,2.572,7.931,3.564,12.057a7.8,7.8,0,0,0-2.17-.2c-.121,0,.844,2.827.884,3.269A6.484,6.484,0,0,0,369,134.809C368.5,135.238,368.4,135.8,369.134,135.332Z" transform="translate(-216.169 -97.628)" fill="#263238"/>
        <path id="Path_33065" data-name="Path 33065" d="M367.374,132.774c.362.228.764.576,1.232.509a3.483,3.483,0,0,0,1.34-.6h0a1.782,1.782,0,0,1-1.474,1.032,1.34,1.34,0,0,1-1.232-.911C367.227,132.787,367.321,132.734,367.374,132.774Z" transform="translate(-216.632 -92.632)" fill="#263238"/>
        <path id="Path_33066" data-name="Path 33066" d="M371.57,144.019l-5.091,10.717L353.726,140l-4.126,4.206s11.936,22.854,12.057,21.863l5.1-9.163,6.109,6.98.5-16.531Z" transform="translate(-222.623 -90.146)" fill="#fff"/>
        <path id="Path_33067" data-name="Path 33067" d="M373.51,154.38c0-2.679,0-5.479-.08-8.212,0-.094-.147-.147-.174,0-.71,2.585-.63,13.035-.79,15.526h0c-.255-.308-5.68-6.162-5.747-6.082-1.072,1.447-4.823,8.118-5.077,8.721-1.889-3.63-9.163-16.853-11.454-20.309a.1.1,0,1,0-.174.08c1.634,3.8,11.24,21.608,11.414,21.568a105.913,105.913,0,0,0,5.359-9.686c.9,1.259,6.337,7.824,6.377,7.422A83.517,83.517,0,0,0,373.51,154.38Z" transform="translate(-222.486 -88.798)" fill="#263238"/>
      </g>
      <text id="page_title" transform="translate(4236 6191.971)" fill="#fff" font-size="12" font-family="DaxPro-Medium, Dax Pro" font-weight="500"><tspan x="0" y="12">INVESTMENT DETAILS</tspan></text>
    </g>
    <g id="Rectangle_8786" data-name="Rectangle 8786" transform="translate(4821 4930)" fill="none" stroke="#707070" stroke-width="1" opacity="0">
      <rect width="576" height="576" stroke="none"/>
      <rect x="0.5" y="0.5" width="575" height="575" fill="none"/>
    </g>
  </g>
</svg>
