<svg xmlns="http://www.w3.org/2000/svg" width="576" height="576" viewBox="0 0 576 576">
  <g id="Group_17215" data-name="Group 17215" transform="translate(-966 -3444)">
    <g id="Shared_goals-cuate" data-name="Shared goals-cuate" transform="translate(934.48 3412.811)">
      <g id="freepik--Floor--inject-25" transform="translate(34.52 575.623)">
        <path id="Path_31593" data-name="Path 31593" d="M598.943,447.619l-70.543.316-70.556.119-141.112.224-141.112-.224-70.543-.119-70.556-.316,70.556-.329,70.543-.105,141.112-.224,141.112.224,70.556.105Z" transform="translate(-34.52 -446.96)" fill="#263238"/>
      </g>
      <g id="freepik--Target--inject-25" transform="translate(369.258 41.189)">
        <path id="Path_31594" data-name="Path 31594" d="M453.322,514.7h7.547L408.015,235.4H389.22Z" transform="translate(-256.789 20.392)" fill="#455a64"/>
        <path id="Path_31595" data-name="Path 31595" d="M389.22,235.4l9.483,41.3h17.122l-7.8-41.264-.013-.04Z" transform="translate(-256.789 20.392)" fill="#37474f"/>
        <path id="Path_31596" data-name="Path 31596" d="M382.461,514.7h7.547l-1.686-279.3H369.54Z" transform="translate(-263.029 20.392)" fill="#455a64"/>
        <path id="Path_31597" data-name="Path 31597" d="M369.54,235.4l1.91,41.3h17.122l-.25-41.264v-.04Z" transform="translate(-263.029 20.392)" fill="#37474f"/>
        <path id="Path_31598" data-name="Path 31598" d="M328.354,514.7H320.82l41.607-279.3h18.795Z" transform="translate(-278.478 20.392)" fill="#455a64"/>
        <path id="Path_31599" data-name="Path 31599" d="M347.74,276.7h17.122l7.823-41.3H353.891l-.013.04Z" transform="translate(-269.942 20.392)" fill="#37474f"/>
        <rect id="Rectangle_8734" data-name="Rectangle 8734" width="109.673" height="5.453" transform="translate(175.025 420.888) rotate(180)" fill="#455a64"/>
        <ellipse id="Ellipse_742" data-name="Ellipse 742" cx="141.27" cy="100.335" rx="141.27" ry="100.335" transform="translate(21.68 283.541) rotate(-87.17)" fill="#00a3b1"/>
        <path id="Path_31600" data-name="Path 31600" d="M379.512,44.91l23.549,1.462-17.939,282-23.563-1.462Z" transform="translate(-265.56 -40.009)" fill="#00a3b1"/>
        <g id="Group_17213" data-name="Group 17213" transform="translate(96 4.901)" opacity="0.1">
          <path id="Path_31601" data-name="Path 31601" d="M379.512,44.91l23.549,1.462-17.939,282-23.563-1.462Z" transform="translate(-361.56 -44.91)"/>
        </g>
        <ellipse id="Ellipse_743" data-name="Ellipse 743" cx="141.27" cy="100.335" rx="141.27" ry="100.335" transform="translate(0 282.196) rotate(-87.17)" fill="#00a3b1"/>
        <ellipse id="Ellipse_744" data-name="Ellipse 744" cx="110.2" cy="78.274" rx="110.2" ry="78.274" transform="translate(23.568 252.253) rotate(-87.17)" fill="#fff"/>
        <ellipse id="Ellipse_745" data-name="Ellipse 745" cx="79.46" cy="56.424" rx="79.46" ry="56.424" transform="translate(46.91 222.629) rotate(-87.17)" fill="#00a3b1"/>
        <ellipse id="Ellipse_746" data-name="Ellipse 746" cx="48.376" cy="34.35" rx="48.376" ry="34.35" transform="translate(70.492 192.673) rotate(-87.17)" fill="#fff"/>
        <path id="Path_31602" data-name="Path 31602" d="M388.974,154.51c.817,11.854-5.347,22.588-13.777,24.129s-15.9-6.743-16.7-18.531,5.347-22.588,13.764-24.142S388.158,142.656,388.974,154.51Z" transform="translate(-266.553 -11.197)" fill="#00a3b1"/>
        <ellipse id="Ellipse_747" data-name="Ellipse 747" cx="141.27" cy="100.335" rx="141.27" ry="100.335" transform="translate(0 282.196) rotate(-87.17)" fill="#fff" opacity="0.4"/>
      </g>
      <g id="freepik--Plant--inject-25" transform="translate(317.416 354.281)">
        <path id="Path_31603" data-name="Path 31603" d="M303.662,422.592a324.622,324.622,0,0,0-.474-34.521,439.341,439.341,0,0,0-10.813-70.332c-3.016-13.013-6.73-25.815-10.6-38.591-.118-.4-.724-.277-.619.119,11.959,45.057,21.785,91.564,21.073,138.4-.184,13.171-1.7,25.986-2.95,39.012,0,.356.54.487.619.132C302.4,445.72,303.2,434.038,303.662,422.592Z" transform="translate(-239.217 -278.905)" fill="#00a3b1"/>
        <path id="Path_31604" data-name="Path 31604" d="M284.682,279.22s-18.136,46.019-14.08,56.832,12.433,13.171,12.433,13.171-11.09,15.8-3.345,30.688,25.025,14.159,26.118,30.991C305.808,410.849,306.77,340.438,284.682,279.22Z" transform="translate(-242.746 -278.805)" fill="#00a3b1"/>
        <path id="Path_31605" data-name="Path 31605" d="M300.937,379.443a.421.421,0,0,0,0-.25,421.641,421.641,0,0,0-17.583-92.565c0-.079-.171,0-.145,0q5.374,20.191,9.522,40.592a20.019,20.019,0,0,0-8.653-4.821c-.066,0-.092.066,0,.092a22.812,22.812,0,0,1,8.93,5.966c.54,2.634,1.054,5.268,1.541,8.008-4.043-4.531-9.667-6.77-15.291-8.9-.079,0-.119.092,0,.119,5.861,2.384,11.683,5.453,15.66,10.537q2.068,11.459,3.635,22.983a21.929,21.929,0,0,0-10.813-6.19c-.118,0-.2.158-.066.2a22.8,22.8,0,0,1,10.958,7.02h.079c.356,2.7.7,5.413,1.014,8.113a28.066,28.066,0,0,0-7.573-4.57c-.066,0-.105.092,0,.119a25.919,25.919,0,0,1,7.586,5.031.158.158,0,0,0,.105,0c.29,2.634.593,5.163.856,7.744a36.878,36.878,0,0,0-15.37-10.984.1.1,0,0,0-.066.184,40.145,40.145,0,0,1,15.146,11.669.356.356,0,0,0,.382.118c.4,3.951.751,7.9,1.04,11.854,0,0,.092.066.092,0C301.543,387.57,301.332,383.5,300.937,379.443Z" transform="translate(-239.838 -276.467)" fill="#263238"/>
        <path id="Path_31606" data-name="Path 31606" d="M287.278,311.158a22.72,22.72,0,0,0-10.892-3.4.066.066,0,0,0,0,.132,43.741,43.741,0,0,1,10.774,3.517C287.291,311.474,287.41,311.25,287.278,311.158Z" transform="translate(-240.746 -269.756)" fill="#263238"/>
        <path id="Path_31607" data-name="Path 31607" d="M288.3,348.005a22.877,22.877,0,0,0-8.179-2.805.079.079,0,1,0,0,.158,30.742,30.742,0,0,1,8.087,2.832C288.311,348.242,288.4,348.058,288.3,348.005Z" transform="translate(-239.566 -257.884)" fill="#263238"/>
        <path id="Path_31608" data-name="Path 31608" d="M345.659,322.962A123.617,123.617,0,0,0,324.678,341.3a75.456,75.456,0,0,0-14.712,24.959,186.513,186.513,0,0,0-10.958,59.69,144.327,144.327,0,0,0,3.227,33.559.322.322,0,1,0,.632-.118,187.657,187.657,0,0,1,.329-58.663c3.108-19.045,8.008-39.749,20.1-55.225,6.585-8.416,14.8-15.041,22.93-21.89C346.647,323.238,346.107,322.646,345.659,322.962Z" transform="translate(-233.562 -264.964)" fill="#00a3b1"/>
        <path id="Path_31609" data-name="Path 31609" d="M301,412.45A112.707,112.707,0,0,1,316.3,392.9c9.061-9.075,16.7-15.515,17.886-21.508s-9.088-10.418-9.088-10.418,12.552,2.252,15.976-3.016,5.1-35.772,5.1-35.772S323.39,338.5,312.735,361.347,301,412.45,301,412.45Z" transform="translate(-232.92 -265.18)" fill="#00a3b1"/>
        <path id="Path_31610" data-name="Path 31610" d="M338.309,328.152c-9.6,9.444-19.269,19.493-24.932,31.887a125.34,125.34,0,0,0-5.044,13.171h0c-.29.9-.593,1.8-.869,2.713a.263.263,0,0,0,0,.145,260.083,260.083,0,0,0-6.493,28.185s.092.092.105,0c.975-4.755,2.068-9.562,3.28-14.356h.132a20.073,20.073,0,0,1,5.993-1.528c.132,0,.119-.25,0-.237a22.085,22.085,0,0,0-5.927,1.08c1.106-4.32,2.3-8.627,3.661-12.881a63.479,63.479,0,0,1,13.54-1.765v-.079a51.22,51.22,0,0,0-13.3,1.133c.224-.724.474-1.449.724-2.173a67.017,67.017,0,0,1,9.009-1.528v-.105a44.294,44.294,0,0,0-8.824,1.08c1.251-3.675,2.634-7.3,4.083-10.826a63.567,63.567,0,0,1,4.307-8.377,54.8,54.8,0,0,1,7.31-1.317c.066,0,.066-.119,0-.119a19.875,19.875,0,0,0-6.928.751q1.8-2.9,3.806-5.677h0c5.123-1.133,10.313-2.186,15.555-1.2a.079.079,0,0,0,0-.158c-4.979-1.317-9.931-.553-14.9.421q.8-1.08,1.66-2.134a33.559,33.559,0,0,1,9.562-1.5.053.053,0,1,0,0-.105,24.785,24.785,0,0,0-8.917.79c4.228-5.268,8.9-10.207,13.526-15.094C338.7,328.059,338.546,327.98,338.309,328.152Z" transform="translate(-232.93 -263.318)" fill="#263238"/>
        <path id="Path_31611" data-name="Path 31611" d="M330.254,343.972a20.97,20.97,0,0,0-4.544-.158.171.171,0,0,0,0,.329c1.5,0,3.016-.079,4.518,0a.092.092,0,0,0,.026-.171Z" transform="translate(-225.124 -258.342)" fill="#263238"/>
        <path id="Path_31612" data-name="Path 31612" d="M318.343,366.39a20.77,20.77,0,0,0-7.033,1.409v.105c2.331-.553,4.676-.777,7.033-1.172a.171.171,0,1,0,0-.342Z" transform="translate(-229.651 -251.165)" fill="#263238"/>
        <path id="Path_31613" data-name="Path 31613" d="M313.646,358.63a15.2,15.2,0,0,0-2.99.263c-.092,0-.092.184,0,.184a15.073,15.073,0,0,0,2.99-.145C313.831,358.907,313.831,358.63,313.646,358.63Z" transform="translate(-229.88 -253.626)" fill="#263238"/>
        <path id="Path_31614" data-name="Path 31614" d="M250.327,347.525a103.4,103.4,0,0,1,21.218,10,63.325,63.325,0,0,1,17.675,16.793,157.088,157.088,0,0,1,22.733,45.769,122.671,122.671,0,0,1,5.15,27.909.277.277,0,0,1-.54,0,158.563,158.563,0,0,0-13.829-47.415c-6.928-14.685-15.66-30.293-28.976-40.039-7.283-5.268-15.463-8.759-23.615-12.42C249.589,347.973,249.892,347.381,250.327,347.525Z" transform="translate(-249.141 -257.154)" fill="#00a3b1"/>
        <path id="Path_31615" data-name="Path 31615" d="M306.735,409.724a94.834,94.834,0,0,0-16.9-12.275c-9.444-5.268-17.122-8.693-19.453-13.276s4.952-10.537,4.952-10.537-9.641,4.715-13.632,1.251S249.31,347.11,249.31,347.11s22.246,7.9,36.141,23.958S306.735,409.724,306.735,409.724Z" transform="translate(-249.31 -257.278)" fill="#00a3b1"/>
        <path id="Path_31616" data-name="Path 31616" d="M303.152,403.429c-11.129-20.889-25.973-39.776-46.322-52.249h0a102.207,102.207,0,0,1,14.883,11.656,23.589,23.589,0,0,0-11.959,2.516.079.079,0,0,0,.066.132,32.637,32.637,0,0,1,12.3-2.081.236.236,0,0,0,.132,0c.724.685,1.436,1.383,2.147,2.081a37.057,37.057,0,0,0-6.388.856v.079a33.146,33.146,0,0,1,6.743-.553,139.164,139.164,0,0,1,10.537,11.92,10.63,10.63,0,0,0-4.465.316.092.092,0,0,0,0,.171,23.091,23.091,0,0,1,4.768-.066c.619.777,1.225,1.541,1.831,2.331a42.778,42.778,0,0,0-13.5,1.317v.105a53.828,53.828,0,0,1,13.869-.909c.566.751,1.106,1.528,1.659,2.292a29.078,29.078,0,0,0-8.034.922c-.105,0-.079.184,0,.158a30.977,30.977,0,0,1,8.324-.645c2.4,3.293,4.689,6.664,6.888,10.076a7.626,7.626,0,0,0-3.53.211v.092a15.993,15.993,0,0,1,3.806.184c1.989,3.082,3.951,6.2,5.742,9.338C302.9,403.9,303.336,403.705,303.152,403.429Z" transform="translate(-246.926 -255.988)" fill="#263238"/>
        <path id="Path_31617" data-name="Path 31617" d="M280.447,377.711a16.818,16.818,0,0,0-6.467.79v.092a50.378,50.378,0,0,1,6.427-.659C280.592,377.922,280.592,377.724,280.447,377.711Z" transform="translate(-241.488 -247.59)" fill="#263238"/>
        <path id="Path_31618" data-name="Path 31618" d="M264.889,358.377a11.857,11.857,0,0,0-2.977.171.092.092,0,0,0,0,.184c.975-.105,1.936-.066,2.924-.092a.134.134,0,1,0,.053-.263Z" transform="translate(-245.343 -253.715)" fill="#263238"/>
        <path id="Path_31619" data-name="Path 31619" d="M326.777,462.94H276.57l7.152-52.446,1.831-13.434h32.229l1.831,13.434Z" transform="translate(-240.666 -241.44)" fill="#455a64"/>
        <path id="Path_31620" data-name="Path 31620" d="M317.89,410.494H282l1.831-13.434H316.06Z" transform="translate(-238.945 -241.44)" fill="#263238"/>
        <rect id="Rectangle_8735" data-name="Rectangle 8735" width="41.449" height="11.393" transform="translate(40.276 150.944)" fill="#455a64"/>
      </g>
      <g id="freepik--Arrow--inject-25" transform="translate(47.111 136.323)">
        <rect id="Rectangle_8736" data-name="Rectangle 8736" width="349.923" height="63.075" transform="matrix(0.998, -0.059, 0.059, 0.998, 3.487, 43.627)" fill="#00a3b1"/>
        <path id="Path_31621" data-name="Path 31621" d="M311.18,117.9l5.716,97.385,70.767-53.013Z" transform="translate(40.613 -111.999)" fill="#00a3b1"/>
        <g id="Group_17214" data-name="Group 17214" opacity="0.5">
          <path id="Path_31622" data-name="Path 31622" d="M471.519,162.273l-70.767,53-1.014-17.188L50.421,218.591l-3.7-62.97,349.317-20.507L395.023,117.9Z" transform="translate(-43.243 -111.999)" fill="#fff"/>
          <path id="Path_31623" data-name="Path 31623" d="M48.163,223.5,44.08,153.96l349.3-20.507-1.159-20.033,86.1,49.931-79.67,59.664-1.172-20.02Zm2.871-63.352,3.319,56.4L403.67,196.014l.843,14.369,61.9-46.348-66.908-38.788.843,14.383Z" transform="translate(-44.08 -113.42)" fill="#00a3b1"/>
        </g>
      </g>
      <g id="freepik--character-2--inject-25" transform="translate(222.731 147.991)">
        <path id="Path_31624" data-name="Path 31624" d="M182.147,396.46s-1.317,52.17-1.317,52.209c0,9.641.237,18.1.751,22.39v.079a6.954,6.954,0,0,0,.724,2.977h0c2.884,1.936,79.96,3.951,82.673,3.108s.54-8.64-2.384-11.1-32.071-16.266-32.071-16.266l.843-52.143Z" transform="translate(-176.339 -35.341)" fill="#eb9481"/>
        <path id="Path_31625" data-name="Path 31625" d="M180.76,428.24s.092,10.313.079,10.352c0,9.641.237,18.1.751,22.39v.079a13.858,13.858,0,0,0,.724,2.977h0c2.884,1.936,79.96,3.951,82.673,3.108s.54-8.64-2.384-11.1-32.058-16.266-32.058-16.266V429.241Z" transform="translate(-176.361 -25.264)" fill="#fff"/>
        <path id="Path_31626" data-name="Path 31626" d="M225.811,437.07c-5.123-.843-11.366.079-15.2,3.806-.145.145.066.342.224.29a72.047,72.047,0,0,1,14.975-3.451.329.329,0,0,0,0-.645Z" transform="translate(-166.911 -22.556)" fill="#263238"/>
        <path id="Path_31627" data-name="Path 31627" d="M228.671,438.69c-5.137-.843-11.366.079-15.2,3.793-.145.145.066.356.224.3a72.044,72.044,0,0,1,14.975-3.451.329.329,0,0,0,0-.645Z" transform="translate(-166.004 -22.042)" fill="#263238"/>
        <path id="Path_31628" data-name="Path 31628" d="M231.493,440.32c-5.137-.843-11.366.066-15.2,3.793-.145.145,0,.356.224.3a71.727,71.727,0,0,1,14.962-3.451.329.329,0,0,0,.013-.645Z" transform="translate(-165.112 -21.526)" fill="#263238"/>
        <path id="Path_31629" data-name="Path 31629" d="M265.018,464.878c-2.713.83-79.789-1.172-82.673-3.108-1.106-.711-1.475-11.959-1.515-25.565v-.435l49.733.738v.843s29.16,13.961,32.11,16.437S267.731,464.048,265.018,464.878Z" transform="translate(-176.339 -22.876)" fill="#37474f"/>
        <path id="Path_31630" data-name="Path 31630" d="M180.82,435.77v.435c.066,13.605.421,24.853,1.528,25.565,1.317.883,18.018,1.778,36.062,2.423,21.613.764,45.136,1.146,46.612.685,2.713-.83.527-8.64-2.384-11.1s-32.11-16.384-32.11-16.384v-.83l-16.543-.29Z" transform="translate(-176.342 -22.876)" fill="#00a3b1"/>
        <path id="Path_31631" data-name="Path 31631" d="M263.006,456.011c-12.973-.659-65.406-2.081-78.287-1.739-.105,0-.105.079,0,.079,12.855.935,65.288,1.936,78.287,1.87C263.283,456.222,263.283,456.024,263.006,456.011Z" transform="translate(-175.131 -17.026)" fill="#263238"/>
        <path id="Path_31632" data-name="Path 31632" d="M206,436.15c1.212,8.324,3.069,20.6,4.425,27.922,21.613.764,45.136,1.146,46.612.685,2.713-.83.527-8.64-2.384-11.1s-32.111-16.385-32.111-16.385v-.83Z" transform="translate(-168.358 -22.756)" opacity="0.1"/>
        <path id="Path_31633" data-name="Path 31633" d="M177.42,498.626l55.778.54s3.161-90.879,3.4-121.093c.277-34.6-1.686-138.294-1.686-138.294h-41.7s-11.182,22.878-4.794,48.6l1.765,92.578Z" transform="translate(-177.42 -85.021)" fill="#263238"/>
        <path id="Path_31634" data-name="Path 31634" d="M180.579,429.109a41.417,41.417,0,0,1,4.439-.356c1.646-.118,3.293-.237,4.939-.3,3.174-.145,6.348-.2,9.523-.211,6.414,0,12.815,0,19.216.224,3.648.119,7.283.263,10.919.474.145,0,.132.224,0,.224-6.348.237-12.71.329-19.058.461s-12.7.237-19.032.119c-1.831,0-3.648,0-5.466-.158s-3.675,0-5.453-.263C180.5,429.307,180.447,429.136,180.579,429.109Z" transform="translate(-176.443 -25.264)" fill="#37474f"/>
        <path id="Path_31635" data-name="Path 31635" d="M217.25,435.609c.645-15.015,1.133-30.043,1.541-45.057q1.225-45.084.645-90.181c-.211-16.859-.659-33.717-1.159-50.576a.145.145,0,0,1,.29,0c1.594,30.174,2.213,60.415,2.239,90.628s-.553,60.138-2.081,90.128c-.83,16.845-1.857,33.717-3.438,50.51a.119.119,0,0,1-.237,0C215.735,465.928,216.591,450.781,217.25,435.609Z" transform="translate(-165.488 -81.891)" fill="#37474f"/>
        <path id="Path_31636" data-name="Path 31636" d="M227.13,402.75s.421,50.431.421,50.471c0,9.641.224,18.1.738,22.456a.092.092,0,0,0,0,.066,6.506,6.506,0,0,0,.724,2.977.132.132,0,0,0,0,.066c2.871,1.936,79.947,3.951,82.66,3.1s.553-8.627-2.384-11.09-32.11-16.424-32.11-16.424l-.9-50.4Z" transform="translate(-161.658 -33.346)" fill="#eb9481"/>
        <path id="Path_31637" data-name="Path 31637" d="M227.38,433.2s.092,10.326.092,10.365c0,9.641.224,18.1.738,22.456a.092.092,0,0,0,0,.066,12.828,12.828,0,0,0,.724,2.977.132.132,0,0,0,0,.066c2.871,1.936,79.947,3.951,82.66,3.1s.553-8.627-2.384-11.09-32.11-16.424-32.11-16.424l.066-10.537Z" transform="translate(-161.579 -23.691)" fill="#fff"/>
        <path id="Path_31638" data-name="Path 31638" d="M272.443,442.07c-5.137-.843-11.366.066-15.2,3.793-.145.145,0,.356.224.3a71.727,71.727,0,0,1,14.962-3.451.329.329,0,0,0,.013-.645Z" transform="translate(-152.128 -20.971)" fill="#263238"/>
        <path id="Path_31639" data-name="Path 31639" d="M275.283,443.66c-5.137-.843-11.366.066-15.2,3.793-.145.145,0,.356.224.3a71.729,71.729,0,0,1,14.962-3.451.329.329,0,0,0,.013-.645Z" transform="translate(-151.227 -20.467)" fill="#263238"/>
        <path id="Path_31640" data-name="Path 31640" d="M278.125,445.292c-5.137-.843-11.38,0-15.2,3.793-.158.145,0,.356.224.3a71.731,71.731,0,0,1,14.962-3.451.329.329,0,0,0,.013-.645Z" transform="translate(-150.328 -19.952)" fill="#263238"/>
        <path id="Path_31641" data-name="Path 31641" d="M311.638,469.834c-2.713.843-79.776-1.159-82.66-3.1-1.106-.724-1.475-11.972-1.528-25.565v-.435l49.733.738v.843s29.147,13.961,32.1,16.424S314.364,469.018,311.638,469.834Z" transform="translate(-161.556 -21.3)" fill="#00a3b1"/>
        <path id="Path_31642" data-name="Path 31642" d="M309.638,460.981c-12.986-.659-65.406-2.081-78.3-1.739-.092,0-.105,0,0,.079,12.855.935,65.3,1.923,78.3,1.87C309.941,461.192,309.941,460.994,309.638,460.981Z" transform="translate(-160.347 -15.45)" fill="#263238"/>
        <path id="Path_31643" data-name="Path 31643" d="M213.291,293.111s22.878,72.123,23.3,85.373c.342,11.3-1.093,127.257-1.093,127.257l57.952.342s-4.886-118.248-5.8-130.022c-1.686-22.022-20.981-82.476-34.771-136.331H190.4s.54,28.212,13.368,48.6C203.768,288.33,209.629,291.017,213.291,293.111Z" transform="translate(-173.304 -85.037)" fill="#263238"/>
        <path id="Path_31644" data-name="Path 31644" d="M227.057,433.66c6.691-.2,13.632-.4,20.323-.224s13.3.263,19.928.659c3.754.224,7.507.356,11.261.724a.1.1,0,0,1,0,.2c-6.691.4-13.408.316-20.1.25s-13.289-.132-19.928-.435c-3.767-.171-7.507-.356-11.261-.619C226.833,434.2,226.623,433.673,227.057,433.66Z" transform="translate(-161.756 -23.637)" fill="#37474f"/>
        <path id="Path_31645" data-name="Path 31645" d="M232.711,248.949c2.068,6.888,27.659,101.415,30.293,115.139s6.2,103.839,5.953,118.287c0,1.791-.066,3.582-.132,5.374a.132.132,0,0,1-.263,0c-.4-14.356-4.228-108.923-6.691-123-2.3-13.829-27.8-107.79-29.582-115.693a.224.224,0,0,1,.421-.105Z" transform="translate(-160.022 -82.152)" fill="#37474f"/>
        <path id="Path_31646" data-name="Path 31646" d="M226.67,282.947a52.208,52.208,0,0,1-8.6-.777,82.176,82.176,0,0,1-8.337-2.279,65.758,65.758,0,0,0-8.179-1.317,28.975,28.975,0,0,1-8.008-2.384c-.119,0-.211.119-.092.171a49.007,49.007,0,0,0,7.679,3.332c2.74.869,5.611.988,8.4,1.673a70.362,70.362,0,0,0,8.574,1.976,30.754,30.754,0,0,0,8.587-.158C226.815,283.118,226.775,282.947,226.67,282.947Z" transform="translate(-172.354 -73.476)" fill="#37474f"/>
        <path id="Path_31647" data-name="Path 31647" d="M225.769,339.117c-.553-2.147-1.067-4.281-1.646-6.414-1.172-4.307-2.358-8.614-3.661-12.881-2.634-8.482-5.031-17.017-7.758-25.446-1.554-4.794-2.95-9.628-4.768-14.33a.1.1,0,0,0-.184.066c.922,4.373,2.213,8.653,3.372,12.96s2.4,8.6,3.648,12.894c2.463,8.508,4.886,17.043,7.586,25.5q1.12,3.556,2.344,7.086c.83,2.4,1.488,4.873,2.489,7.2.066.132.237.079.211,0C227.02,343.476,226.335,341.3,225.769,339.117Z" transform="translate(-167.804 -72.274)" fill="#37474f"/>
        <path id="Path_31648" data-name="Path 31648" d="M229.918,193.736c-4.188.553-11.406-7.02-13.658-12.381a84.87,84.87,0,0,1,1.646-8.4,79.657,79.657,0,0,0,1.317-8.482l17,6.032a44.886,44.886,0,0,0-2.779,10.537,8.3,8.3,0,0,0,0,1.146s0,.119,0,.2C233.632,184.556,233.975,193.209,229.918,193.736Z" transform="translate(-165.105 -108.901)" fill="#eb9481"/>
        <path id="Path_31649" data-name="Path 31649" d="M216.39,179.972c8.93,3,15.4-2.028,18.347-5.11.724-2.5,1.488-4.36,1.488-4.36l-17-6.032c-.29,2.779-.817,5.8-1.317,8.482C217.272,175.9,216.667,178.471,216.39,179.972Z" transform="translate(-165.063 -108.901)" fill="#263238"/>
        <path id="Path_31650" data-name="Path 31650" d="M242.44,151.206c2.121,6.138-.5,24.208-4.781,28.37-6.19,6.045-16.661,6.981-21.877-.54-5.044-7.3-1.212-30.78,3.6-34.6C226.451,138.812,239.306,142.1,242.44,151.206Z" transform="translate(-166.01 -116.131)" fill="#eb9481"/>
        <path id="Path_31651" data-name="Path 31651" d="M222,157.64s.092.066.079.119c-.2,1.212-.211,2.634.843,3.187h0C221.574,160.656,221.614,158.76,222,157.64Z" transform="translate(-163.359 -111.067)" fill="#263238"/>
        <path id="Path_31652" data-name="Path 31652" d="M223.231,156.78c1.989.092,1.633,4.057-.2,3.951S221.571,156.688,223.231,156.78Z" transform="translate(-163.343 -111.34)" fill="#263238"/>
        <path id="Path_31653" data-name="Path 31653" d="M217.107,157.17s-.105,0-.105.092c0,1.238-.356,2.634-1.5,2.937v.079C216.87,160.2,217.239,158.342,217.107,157.17Z" transform="translate(-165.346 -111.216)" fill="#263238"/>
        <path id="Path_31654" data-name="Path 31654" d="M216.425,156.124c-1.962-.316-2.45,3.622-.645,3.951S218.032,156.4,216.425,156.124Z" transform="translate(-165.612 -111.553)" fill="#263238"/>
        <path id="Path_31655" data-name="Path 31655" d="M224.894,156.218c-.527-.184-.988-.448-1.488-.672a2.249,2.249,0,0,1-1.317-.988.843.843,0,0,1,.224-1,2.107,2.107,0,0,1,2.107,0,3.042,3.042,0,0,1,1.633,1.475.9.9,0,0,1-1.159,1.185Z" transform="translate(-163.281 -112.45)" fill="#263238"/>
        <path id="Path_31656" data-name="Path 31656" d="M215.181,155.116a9.509,9.509,0,0,0,1.607-.263,2.753,2.753,0,0,0,1.594-.593.856.856,0,0,0,0-1.027,2.081,2.081,0,0,0-2.028-.566,3.082,3.082,0,0,0-1.976,1,.9.9,0,0,0,.8,1.449Z" transform="translate(-165.764 -112.665)" fill="#263238"/>
        <path id="Path_31657" data-name="Path 31657" d="M222.77,166.184c-.316.263-.645.632-1.093.632a3.175,3.175,0,0,1-1.317-.421,1.646,1.646,0,0,0,1.5.8,1.317,1.317,0,0,0,1.054-1S222.81,166.144,222.77,166.184Z" transform="translate(-163.804 -108.362)" fill="#263238"/>
        <path id="Path_31658" data-name="Path 31658" d="M223.15,166.617a4.136,4.136,0,0,1-2.937,1.607,5.268,5.268,0,0,1-1.515,0l-.277-.066-.277-.066a.3.3,0,0,1-.211-.29h0a.368.368,0,0,1,0-.119h0v-.158c.066-.948.277-2.371.277-2.371-.356.145-2.186.777-2.121.29a63.877,63.877,0,0,1,2.726-12.486.119.119,0,0,1,.224,0c-.421,3.951-1.528,7.744-2.015,11.683a7.125,7.125,0,0,1,2.015-.435c.132,0-.461,2.753-.461,3.174h0a5.835,5.835,0,0,0,4.439-.961C223.15,166.433,223.229,166.525,223.15,166.617Z" transform="translate(-165.159 -112.576)" fill="#263238"/>
        <path id="Path_31659" data-name="Path 31659" d="M218.53,164.439a5.031,5.031,0,0,0,1.844,1.712,2.213,2.213,0,0,0,1.317.2c1-.171,1.106-1.067.988-1.844a5.847,5.847,0,0,0-.329-1.225A6.493,6.493,0,0,1,218.53,164.439Z" transform="translate(-164.385 -109.278)" fill="#263238"/>
        <path id="Path_31660" data-name="Path 31660" d="M219.93,165.857a2.213,2.213,0,0,0,1.317.2c1-.171,1.106-1.067.988-1.844a2.292,2.292,0,0,0-2.3,1.646Z" transform="translate(-163.941 -108.984)" fill="#ff98b9"/>
        <path id="Path_31661" data-name="Path 31661" d="M237.693,164.062c-.988-3.754,1.541-9.746-.184-11.511-3.714-3.833-12.3,2.437-17.873,2.094s-6.967-3.951-5.69-8.258,5.2-6.994,11.327-7.481a22.8,22.8,0,0,1,14.83,4.61s-1.212-2.279-.645-2.924,3.056,1.646,3.793,2.634a8.007,8.007,0,0,1,1.146,2.634,8.6,8.6,0,0,1,2.476-.079,5.189,5.189,0,0,1,3.108,1.646c.079.342-1.91.448-3.293.422,0,0,2.331,3.6,2.081,6.506s-5.756,16.464-6.849,16.543C240.5,170.95,238.1,165.537,237.693,164.062Z" transform="translate(-165.978 -117.015)" fill="#263238"/>
        <path id="Path_31662" data-name="Path 31662" d="M239.02,145.37h-.079a9.22,9.22,0,0,1,2.634,4.333,11.406,11.406,0,0,1-.356,6.019,55.239,55.239,0,0,1-5.1,10.537.1.1,0,0,0,.171.092A40.46,40.46,0,0,0,241.8,155C242.669,151.626,242.142,147.517,239.02,145.37Z" transform="translate(-158.81 -114.957)" fill="#263238"/>
        <path id="Path_31663" data-name="Path 31663" d="M236.677,148.2a13.461,13.461,0,0,0-4.926,0A19.152,19.152,0,0,0,227.418,150a18.729,18.729,0,0,1-10.168,2.055v.066a16.371,16.371,0,0,0,9.417-1.317,39.116,39.116,0,0,1,4.5-2,17.294,17.294,0,0,1,5.466-.263.166.166,0,0,0,.04-.329Z" transform="translate(-164.791 -114.13)" fill="#263238"/>
        <path id="Path_31664" data-name="Path 31664" d="M236.861,141.853a25.261,25.261,0,0,0-6.77-2.766,20.086,20.086,0,0,0-6.967-.724c-4.043.369-7.9,2.634-9.114,6.717a8.706,8.706,0,0,0,.382,6.282.119.119,0,0,0,.211-.092,9.022,9.022,0,0,1,2.779-10.458c3.477-2.634,8.087-2.529,12.143-1.594a37.486,37.486,0,0,1,7.323,2.634Z" transform="translate(-165.949 -117.195)" fill="#263238"/>
        <path id="Path_31665" data-name="Path 31665" d="M233.018,161.247s3.951-5.874,6.585-4.465-.25,9.865-3.332,11.077a3.148,3.148,0,0,1-4.241-1.62Z" transform="translate(-160.104 -111.408)" fill="#eb9481"/>
        <path id="Path_31666" data-name="Path 31666" d="M238.308,158.55v.092a7.9,7.9,0,0,0-4.03,5.044,1.725,1.725,0,0,1,2.634-.527s0,.132,0,.119a1.936,1.936,0,0,0-2.121.711,9.85,9.85,0,0,0-.988,1.739c-.105.2-.448.105-.382-.119h0C233.264,162.791,235.345,158.879,238.308,158.55Z" transform="translate(-159.665 -110.778)" fill="#263238"/>
        <path id="Path_31667" data-name="Path 31667" d="M182.1,274.209c.171.224,80.342,7.481,81.159,6.717,1.12-1.067-3.661-81.29-17.978-97.675-3.517-4.043-15.963-8.89-20.059-6.375-10.629,6.585-17.188,21.35-21.389,29.951-3.121,6.375-7.125,17.346-10.84,28.62C186.869,254.031,181.508,273.406,182.1,274.209Z" transform="translate(-175.95 -105.187)" fill="#00a3b1"/>
        <path id="Path_31668" data-name="Path 31668" d="M229.071,199.2a14.715,14.715,0,0,0,1.212,3.951,15.264,15.264,0,0,0,2.186,3.5,14.211,14.211,0,0,0-1.212-3.951A15.186,15.186,0,0,0,229.071,199.2Zm13.487,52.538a14.594,14.594,0,0,0,1.225,3.951,14.239,14.239,0,0,0,2.186,3.517,15.8,15.8,0,0,0-3.411-7.455Zm-33.3-2.516a14.488,14.488,0,0,0,1.225,3.951,13.6,13.6,0,0,0,2.2,3.5,14.159,14.159,0,0,0-1.238-3.951,14.565,14.565,0,0,0-2.186-3.5ZM186.45,265.79a15.989,15.989,0,0,0,7.442-3.424,15.805,15.805,0,0,0-7.441,3.424Zm54.3-41.567a14.714,14.714,0,0,0,3.951-1.212,14.356,14.356,0,0,0,3.5-2.2,14.593,14.593,0,0,0-3.951,1.225,14.158,14.158,0,0,0-3.5,2.186Zm-21.521-40.632a14.713,14.713,0,0,0,3.951-1.212,14.488,14.488,0,0,0,3.517-2.2,16.266,16.266,0,0,0-7.455,3.411Zm22.9,5.98a14.7,14.7,0,0,0,1.923-3.648,17.494,17.494,0,0,0,.764-2.766l-.369-.5a15.711,15.711,0,0,0-1.4,2.884,14.159,14.159,0,0,0-.922,4.03ZM210.171,222.5a14.777,14.777,0,0,0,1.923-3.661,14.488,14.488,0,0,0,.922-4.017,14.91,14.91,0,0,0-1.923,3.648,14.62,14.62,0,0,0-.922,4.057Zm-4.992,52.683.751.066a10.436,10.436,0,0,0,.211-1.567,10.724,10.724,0,0,0-.961,1.594Zm49.549,3.1a14.7,14.7,0,0,0,1.923-3.648,14.16,14.16,0,0,0,.922-4.03A16.043,16.043,0,0,0,254.728,278.276Zm-64-41.449q.474.224.948.4a14.621,14.621,0,0,0,4.03.922,14.3,14.3,0,0,0-3.661-1.91l-1-.342Zm33.8,31.847a15.91,15.91,0,0,0,7.679,2.845,14.645,14.645,0,0,0-3.648-1.91A14.279,14.279,0,0,0,224.527,268.675Zm-2.634-31.61a14.567,14.567,0,0,0,3.661,1.923,14.172,14.172,0,0,0,3.951.922,15.911,15.911,0,0,0-7.679-2.845Zm28.7-35.1a11.712,11.712,0,0,0,2.16,1.317c-.079-.342-.171-.672-.25-1.014a11.314,11.314,0,0,0-1.949-.277Zm-43.148-6.414a12.973,12.973,0,0,0,3.569.764,12.986,12.986,0,0,0-3.069-1.686Z" transform="translate(-174.557 -103.92)" fill="#fff"/>
        <path id="Path_31669" data-name="Path 31669" d="M228.223,204.25c20.56,4.886,52.565,9.72,63.1,3.056,5.387-3.411,17.9-33.283,21.389-50.049.909-4.36-34.85-10.471-35.983-5.861-1.528,6.217-5.11,25.815-6.875,28.9-1.014,1.765-23.708,4.4-41.989,7.3C206.425,191.013,211.535,200.285,228.223,204.25Z" transform="translate(-165.925 -113.567)" fill="#eb9481"/>
        <path id="Path_31670" data-name="Path 31670" d="M268.119,122.294a5.268,5.268,0,0,1,4.136,2.779,7.363,7.363,0,0,1,4.241-2.634c2.99-.514,5.1,3.951,5.1,3.951a9.1,9.1,0,0,1,4.926-2.094c2.911-.2,5.69,3.951,5.69,3.951a6.23,6.23,0,0,1,5.492.882c5.545,4.649,3.806,30.029-.645,40.158l-33.862-5.11s-4.544-19.124-3.793-25.025C260.006,134.292,262.851,121.793,268.119,122.294Z" transform="translate(-151.452 -122.279)" fill="#eb9481"/>
        <path id="Path_31671" data-name="Path 31671" d="M269.783,124.479a66.753,66.753,0,0,0-3.253,15.963.092.092,0,1,0,.184,0c.553-5.268,2.555-10.642,3.319-15.924C270.1,124.4,269.875,124.347,269.783,124.479Z" transform="translate(-149.165 -121.606)" fill="#263238"/>
        <path id="Path_31672" data-name="Path 31672" d="M276.088,125.506a13.739,13.739,0,0,0-.5,3.675c-.092,1.317-.145,2.634-.2,3.951q-.119,3.951-.066,7.9a.1.1,0,1,0,.2,0c.079-2.634.211-5.268.421-7.9.092-1.317.211-2.634.329-3.951a16.61,16.61,0,0,0,.171-3.7.184.184,0,0,0-.356.026Z" transform="translate(-146.381 -121.303)" fill="#263238"/>
        <path id="Path_31673" data-name="Path 31673" d="M284.39,126.93a9.981,9.981,0,0,0-.277,3.319v3.6c-.066,2.4-.119,4.794-.263,7.178a.093.093,0,1,0,.184,0c.158-2.423.342-4.86.474-7.283.066-1.2.132-2.4.184-3.582a9.378,9.378,0,0,0-.132-3.266S284.416,126.877,284.39,126.93Z" transform="translate(-143.673 -120.817)" fill="#263238"/>
        <path id="Path_31674" data-name="Path 31674" d="M257.193,206.143l-1.317-32.2s-22.469,1.449-35.206,6.124-8.4,11.617,3.951,16.437S257.193,206.143,257.193,206.143Z" transform="translate(-166.143 -105.898)" fill="#00a3b1"/>
        <path id="Path_31675" data-name="Path 31675" d="M251.8,175.432a14.16,14.16,0,0,0-4.03-.922,14.568,14.568,0,0,0,3.661,1.923,14.171,14.171,0,0,0,4.017.922,14.052,14.052,0,0,0-3.648-1.923Zm-17.267,11.854a14.619,14.619,0,0,0-.922,4.03,14.778,14.778,0,0,0,1.923-3.661,14.487,14.487,0,0,0,.922-3.951,14.911,14.911,0,0,0-1.923,3.648Zm22.022,6.19a14.883,14.883,0,0,0-3.266,1.093,14.383,14.383,0,0,0-3.517,2.186,14.714,14.714,0,0,0,3.951-1.212,15.176,15.176,0,0,0,2.858-1.673Zm-41.738-10.537a6.414,6.414,0,0,0-1.462,1.739c.435-.158.869-.329,1.317-.514a14.487,14.487,0,0,0,3.517-2.2,13.171,13.171,0,0,0-3.372.988Z" transform="translate(-166.027 -105.717)" fill="#fff"/>
        <path id="Path_31676" data-name="Path 31676" d="M241.167,175.4a201.779,201.779,0,0,0,1.409,27.343h.211c.066-7.481-.935-22.39-1.317-27.343C241.483,175.3,241.167,175.3,241.167,175.4Z" transform="translate(-157.216 -105.458)" fill="#263238"/>
        <path id="Path_31677" data-name="Path 31677" d="M254.382,196.595c.211,1.317.329,2.634.5,4.03v.421l-.461-.092c-2.819-.593-5.637-1.159-8.429-1.844s-5.584-1.4-8.35-2.186-5.532-1.607-8.245-2.555-5.44-1.9-8.087-3.069l8.35,2.186c2.779.724,5.558,1.449,8.324,2.2l8.311,2.265c2.766.738,5.519,1.594,8.284,2.371l-.4.329C254.29,199.295,254.29,197.951,254.382,196.595Z" transform="translate(-163.503 -100.394)" fill="#263238"/>
        <path id="Path_31678" data-name="Path 31678" d="M228.348,193.368a8.982,8.982,0,0,1-3.135.2,7.9,7.9,0,0,1-3-.9c.527,0,1.04.066,1.554.105l1.515.132a28.349,28.349,0,0,1,3.069.461Z" transform="translate(-163.218 -99.959)" fill="#263238"/>
      </g>
      <g id="freepik--character-1--inject-25" transform="translate(37.15 164.845)">
        <path id="Path_31679" data-name="Path 31679" d="M81.918,436.723c-4.531-2.45-10.668-3.6-15.449-1.317-.184.079,0,.342.105.342a70.506,70.506,0,0,1,15.107,1.581.329.329,0,0,0,.237-.606Z" transform="translate(-27.045 -40.235)" fill="#263238"/>
        <path id="Path_31680" data-name="Path 31680" d="M84.048,439.163c-4.531-2.45-10.668-3.6-15.449-1.317-.184.079,0,.342.105.342a70.508,70.508,0,0,1,15.133,1.567.329.329,0,0,0,.211-.593Z" transform="translate(-26.369 -39.462)" fill="#263238"/>
        <path id="Path_31681" data-name="Path 31681" d="M86.178,441.613c-4.531-2.45-10.668-3.6-15.449-1.317-.184.079,0,.342.119.342a70.462,70.462,0,0,1,15.12,1.607.333.333,0,1,0,.211-.632Z" transform="translate(-25.694 -38.685)" fill="#263238"/>
        <path id="Path_31682" data-name="Path 31682" d="M88.321,444.043c-4.544-2.45-10.668-3.6-15.463-1.317-.184.079,0,.342.119.342a70.462,70.462,0,0,1,15.12,1.607.335.335,0,1,0,.224-.632Z" transform="translate(-25.018 -37.914)" fill="#263238"/>
        <path id="Path_31683" data-name="Path 31683" d="M92.125,430.475c-1.054-3.214-4.965-3.174-7.521-2.134a27.1,27.1,0,0,0-10.971,8.666.132.132,0,0,0,0,.211c-.105.369.092.869.553.843,4.465-.2,9.22.145,13.513-1.409C90.241,435.744,93.126,433.518,92.125,430.475Zm-11.182,5.914c-2.186.145-4.36.184-6.585.421a72.6,72.6,0,0,1,6.585-4.926,28.392,28.392,0,0,1,3.438-1.936c1.857-.843,8.429-1.8,5.874,3.214-1.422,2.832-6.7,3.042-9.312,3.227Z" transform="translate(-24.765 -42.285)" fill="#263238"/>
        <path id="Path_31684" data-name="Path 31684" d="M65.293,432.94c3.438,2.963,8.034,4.346,12.13,6.111a.619.619,0,0,0,.817-.593.132.132,0,0,0,.132-.171A27,27,0,0,0,71.194,426.3c-2.015-1.9-5.65-3.319-7.784-.685S63.291,431.2,65.293,432.94ZM64.226,428.8c-.606-5.6,5.268-2.371,6.585-.922a32.765,32.765,0,0,1,2.529,3.029c1.633,2.2,2.937,4.583,4.346,6.915-1.962-.988-3.951-1.8-5.98-2.713-2.318-1.093-7.152-3.266-7.481-6.309Z" transform="translate(-28.279 -43.407)" fill="#263238"/>
        <path id="Path_31685" data-name="Path 31685" d="M40.342,442.434c-.29,1.752-.58,3.464-.843,5.123-1.739,10.655-2.766,18.874-1.962,19.625,2.45,2.331,75.983,17.122,78.735,16.753s1.949-8.192-.448-11.037c-1.462-1.725-11.511-9.154-19.164-14.7h0c-4.926-3.556-8.851-6.362-8.851-6.362l14.751-47.678L53.118,394.4S40.869,439.615,40.342,442.434Z" transform="translate(-36.282 -52.848)" fill="#ffc4c0"/>
        <path id="Path_31686" data-name="Path 31686" d="M116.272,475.923c-2.753.329-76.285-14.422-78.735-16.753-.8-.764.224-8.969,1.962-19.625.263-1.646.54-3.372.843-5.123.171-.988,1.791-7.152,3.806-14.751,7.165,1.422,35.917,7.2,48.113,9.654l-4.478,14.488s3.951,2.792,8.851,6.362h0c7.652,5.545,17.7,12.96,19.15,14.7C118.208,467.73,119.012,475.567,116.272,475.923Z" transform="translate(-36.282 -44.835)" fill="#ebebeb"/>
        <path id="Path_31687" data-name="Path 31687" d="M117.113,475.265c-1.818.211-33.7-6.124-56.819-11.314-5.347-1.2-10.221-2.344-14.145-3.319-5.413-1.317-9.022-2.4-9.536-2.884-.9-.869,4.742-31.017,5.729-34.508l48.89,10.115-2.871,9.035s25.894,18.65,28.357,21.574S119.919,474.909,117.113,475.265Z" transform="translate(-36.517 -43.703)" fill="#00a3b1"/>
        <path id="Path_31688" data-name="Path 31688" d="M115.162,463.871C102.61,461,51.758,450.463,39.14,448.54c-.105,0-.119,0,0,.079,12.354,3.161,63.3,13.25,75.969,15.463C115.373,464.121,115.373,463.937,115.162,463.871Z" transform="translate(-35.712 -35.681)" fill="#263238"/>
        <path id="Path_31689" data-name="Path 31689" d="M100.437,479.529c.527-.25,14.857-61.758,21.389-86.835,9.43-36.193,18.571-95.186,21.31-107.474a180.52,180.52,0,0,0,11.432-44.07H95.116s-15.581,29.806-7.573,50.879c.738,1.936-10.379,76.391-16.134,88.495-4.965,10.431-27.659,86.822-27.659,86.822Z" transform="translate(-34.224 -101.441)" fill="#37474f"/>
        <path id="Path_31690" data-name="Path 31690" d="M98.254,415.034c-1.449-.527-3-.79-4.5-1.185s-3.174-.8-4.768-1.159c-3.187-.724-6.375-1.409-9.562-2.107-6.388-1.383-12.789-2.634-19.19-3.951q-2.634-.54-5.268-1.027a30.373,30.373,0,0,0-5.268-.8.105.105,0,0,0,0,.185,27.377,27.377,0,0,0,4.465,1.251c1.58.4,3.174.764,4.768,1.12,3.135.711,6.269,1.436,9.417,2.12,6.322,1.317,12.657,2.779,19.006,4.07,1.8.356,3.6.724,5.413,1.027s3.609.777,5.426.909C98.346,415.468,98.517,415.126,98.254,415.034Z" transform="translate(-32.356 -49.55)" fill="#263238"/>
        <path id="Path_31691" data-name="Path 31691" d="M116.526,272.587c-1.146,6.19-2.094,12.42-3.121,18.624-.514,3.174-1.212,6.309-1.739,9.47s-1.014,6.217-1.515,9.325q-3.029,18.768-5.993,37.524-1.475,9.325-2.99,18.624a174.2,174.2,0,0,1-3.754,18.163c-1.633,5.98-3.556,11.854-5.387,17.794l-5.6,18.2c-3.7,12.064-3.174,14.119-6.493,26.342-.408,1.515-.83,3.029-1.317,4.544a.145.145,0,0,0,.277.066c4.1-11.959,3.53-14.014,7.336-26.078s7.7-24.024,11.327-36.088a153.952,153.952,0,0,0,4.2-17.886c1.054-6.217,1.976-12.447,2.977-18.676q2.95-18.755,5.993-37.524c.975-6.138,2.055-12.288,2.819-18.439.79-6.4,1.9-12.763,2.845-19.137.237-1.567.461-3.121.672-4.689C117.066,272.389,116.592,272.244,116.526,272.587Z" transform="translate(-23.167 -91.534)" fill="#263238"/>
        <path id="Path_31692" data-name="Path 31692" d="M149.884,439.315c-5.071-.975-11.261-.237-15.16,3.345-.145.145,0,.356.224.3a70.77,70.77,0,0,1,14.909-3,.329.329,0,0,0,.026-.645Z" transform="translate(-5.396 -38.731)" fill="#263238"/>
        <path id="Path_31693" data-name="Path 31693" d="M152.662,441c-5.058-.975-11.261-.237-15.146,3.345-.158.145,0,.356.211.3a70.936,70.936,0,0,1,14.936-3,.329.329,0,0,0,0-.645Z" transform="translate(-4.513 -38.195)" fill="#263238"/>
        <path id="Path_31694" data-name="Path 31694" d="M155.4,442.695c-5.058-.975-11.248-.237-15.146,3.345-.145.145,0,.356.224.3a70.774,70.774,0,0,1,14.909-3,.329.329,0,0,0,.013-.645Z" transform="translate(-3.642 -37.659)" fill="#263238"/>
        <path id="Path_31695" data-name="Path 31695" d="M158.172,444.385c-5.058-.975-11.261-.237-15.146,3.345-.158.145,0,.356.211.3a70.947,70.947,0,0,1,14.909-3,.329.329,0,0,0,.026-.645Z" transform="translate(-2.765 -37.123)" fill="#263238"/>
        <path id="Path_31696" data-name="Path 31696" d="M157.156,430.772c-1.976-2.753-5.69-1.554-7.81.211a27.013,27.013,0,0,0-7.9,11.551.132.132,0,0,0,.105.184.631.631,0,0,0,.79.645c4.2-1.528,8.864-2.634,12.46-5.4C156.945,436.356,159.026,433.367,157.156,430.772Zm-8.89,8.983c-2.041.79-4.109,1.488-6.124,2.358a73.912,73.912,0,0,1,4.742-6.585,27.989,27.989,0,0,1,2.7-2.884c1.515-1.317,7.507-4.241,6.585,1.317C155.641,436.962,150.7,438.793,148.265,439.755Z" transform="translate(-3.251 -41.831)" fill="#263238"/>
        <path id="Path_31697" data-name="Path 31697" d="M132.748,440.4c4.162,1.8,8.956,1.739,13.395,2.2a.632.632,0,0,0,.619-.8.145.145,0,0,0,0-.211,27.132,27.132,0,0,0-10.444-9.3c-2.489-1.185-6.388-1.462-7.626,1.686S130.312,439.349,132.748,440.4Zm-2.239-3.622c-2.252-5.163,4.254-3.82,6.059-2.871a28.422,28.422,0,0,1,3.319,2.134c2.226,1.607,4.175,3.49,6.217,5.268-2.16-.356-4.333-.527-6.52-.8C136.963,440.2,131.721,439.625,130.509,436.78Z" transform="translate(-7.385 -41.096)" fill="#263238"/>
        <path id="Path_31698" data-name="Path 31698" d="M107.741,444.433c0,3,1.317,33.046,2.226,33.625,2.858,1.818,77.866,2.028,80.487,1.172s.329-8.416-2.634-10.734c-1.765-1.422-13.052-6.757-21.64-10.708h0c-5.519-2.542-9.918-4.518-9.918-4.518l.237-8.811.685-40.079H107.662S107.412,424.953,107.741,444.433Z" transform="translate(-13.987 -49.683)" fill="#ffc4c0"/>
        <path id="Path_31699" data-name="Path 31699" d="M190.445,471.024c-2.634.856-77.642.632-80.487-1.172-.935-.593-2.2-30.622-2.239-33.612,0-1.989,0-3.951-.079-5.98h48.982l-.105,5.98-.25,8.785,9.918,4.531h0c8.574,3.951,19.862,9.312,21.64,10.721C190.761,462.608,193.053,470.154,190.445,471.024Z" transform="translate(-13.965 -41.477)" fill="#ebebeb"/>
        <path id="Path_31700" data-name="Path 31700" d="M192.228,470.44c-1.739.58-34.244.58-57.952,0-5.479-.132-10.537-.3-14.488-.487-5.571-.277-9.312-.593-9.918-.988-1.054-.672-2.542-31.347-2.252-34.955l49.549.25.184,9.444s29.305,13.342,32.295,15.726S194.915,469.558,192.228,470.44Z" transform="translate(-13.984 -40.288)" fill="#00a3b1"/>
        <path id="Path_31701" data-name="Path 31701" d="M189.178,459.459c-12.868-.4-64.8-.777-77.55-.2-.092,0-.105.079,0,.079,12.749.672,64.682.632,77.55.329C189.454,459.656,189.454,459.459,189.178,459.459Z" transform="translate(-12.724 -32.375)" fill="#263238"/>
        <path id="Path_31702" data-name="Path 31702" d="M106.806,294.334s8.469,83.108,8.6,85.057c0,.777-3.635,102.337-3.635,102.337h56.016s-2-95.172-2.858-106.908c-.092-1.317-3.714-85.847-20.02-133.671H82.69s.54,28.093,13.316,48.416a107.107,107.107,0,0,1,10.8,4.768Z" transform="translate(-21.876 -101.441)" fill="#37474f"/>
        <path id="Path_31703" data-name="Path 31703" d="M156.586,415.988c-1.541-.224-3.108-.171-4.662-.25s-3.253-.158-4.886-.2c-3.266-.066-6.585-.092-9.8-.132-6.585-.079-13.065,0-19.6,0h-5.347a30.656,30.656,0,0,0-5.387.277c-.092,0-.079.171,0,.2a28.372,28.372,0,0,0,4.61.342c1.633.066,3.266.105,4.9.132,3.214.066,6.427.145,9.654.184,6.467.079,12.947.2,19.427.171,1.844,0,3.675,0,5.519-.066s3.688,0,5.505-.211C156.757,416.4,156.862,416.027,156.586,415.988Z" transform="translate(-14.219 -46.197)" fill="#263238"/>
        <path id="Path_31704" data-name="Path 31704" d="M139.284,382.807c-1.475-29.937-4.623-59.743-8.587-89.43-2.16-16.266-4.7-32.506-9.1-48.337h-.105a384.28,384.28,0,0,1,7.744,43.938c1.844,14.62,3.609,29.266,5.1,43.938,3.016,29.766,4.36,59.638,4.544,89.562.105,16.832-.342,24.761-.817,41.58,0,.158.237.145.25,0C140.746,434.134,140.706,412.784,139.284,382.807Z" transform="translate(-9.574 -100.207)" fill="#263238"/>
        <path id="Path_31705" data-name="Path 31705" d="M134.469,249.962a.092.092,0,0,0-.184,0c.237,3.543.843,7.4-.738,10.747-1.383,2.937-4.03,4.6-6.467,6.585,0,.066,0,.184.105.158,3.227-.975,6.454-2.766,7.731-6.085C136.339,257.693,135.562,253.65,134.469,249.962Z" transform="translate(-7.801 -98.676)" fill="#263238"/>
        <path id="Path_31706" data-name="Path 31706" d="M121.847,280.572a61.58,61.58,0,0,0-7.784.263,54.223,54.223,0,0,1-7.6-.132,30.38,30.38,0,0,1-3.767-.632c-1.317-.3-2.5-.777-3.78-1.133a7.02,7.02,0,0,0-3.5.132c-1.317.3-2.634.514-4.07.7a39.513,39.513,0,0,1-9.417.237c-.119,0-.171.171,0,.2a39.119,39.119,0,0,0,8.021.83,30.941,30.941,0,0,0,4.122-.369,12.539,12.539,0,0,1,3.859-.5,33.209,33.209,0,0,1,3.767,1.251,26.9,26.9,0,0,0,3.82.777,38.567,38.567,0,0,0,7.8.237,34.244,34.244,0,0,0,8.666-1.317.278.278,0,1,0-.132-.54Z" transform="translate(-22.153 -89.51)" fill="#263238"/>
        <path id="Path_31707" data-name="Path 31707" d="M107.652,342.642a.092.092,0,0,0-.079,0h0a.079.079,0,0,0,0,.079v.2h0a.105.105,0,0,0,.079,0v-.2a.092.092,0,0,0,0-.079Z" transform="translate(-13.99 -69.262)" fill="#263238"/>
        <path id="Path_31708" data-name="Path 31708" d="M108.241,347.881q-.738-8.074-1.581-16.147c-1.133-10.774-2.2-21.548-3.306-32.321-.632-6.111-1.08-12.275-2.081-18.334,0-.158-.277-.158-.263,0,.079,5.4.659,10.8,1.12,16.187s.935,10.774,1.436,16.161c1.014,10.774,1.976,21.561,3.24,32.321q.54,4.57,1.133,9.22c.408,3.056.948,6.1,1.317,9.154a.105.105,0,1,0,.211,0C108.992,358.721,108.741,353.268,108.241,347.881Z" transform="translate(-16.068 -88.818)" fill="#263238"/>
        <path id="Path_31709" data-name="Path 31709" d="M106.982,194.845c.421,1.159,7.073,8.192,12.486,7.257,1.765-.3.527-10.01.527-10.01l.066-.738,1.014-10.313-12.736-6.111-1.831-.79s-.092,2.845-.158,6.375v5.242a64.535,64.535,0,0,0,.632,9.088Z" transform="translate(-14.374 -122.688)" fill="#ffc4c0"/>
        <path id="Path_31710" data-name="Path 31710" d="M106.35,180.535a20.757,20.757,0,0,0,13.711,10.84l1.014-10.313-12.736-6.111-1.831-.79S106.416,176.979,106.35,180.535Z" transform="translate(-14.374 -122.682)" fill="#263238"/>
        <path id="Path_31711" data-name="Path 31711" d="M144.389,242.252l.5,16.24H82.75s7.323-48.139,23.707-65.854c8.192-8.9,16.9-7.231,23.036-1.014,1.541,1.58,18.518,23.707,20.467,33.059C151.66,232.848,144.389,242.252,144.389,242.252Z" transform="translate(-21.857 -118.782)" fill="#00a3b1"/>
        <path id="Path_31712" data-name="Path 31712" d="M144.745,256.489H83c.079-.5.184-1.08.3-1.739h61.4Zm-.2-6.585H84.212c-.119.606-.237,1.185-.342,1.739H144.6Zm-.145-4.86H85.226c-.132.593-.25,1.172-.369,1.739h59.6Zm-58.07-4.873c-.132.593-.277,1.172-.408,1.739h58.6c.25-.329.672-.935,1.172-1.739Zm1.2-4.86-.435,1.739h60.349c.29-.553.553-1.133.817-1.739Zm1.317-4.86-.474,1.739h61.007c.158-.566.3-1.146.421-1.739Zm61.218-4.86H90.27c-.184.58-.356,1.159-.527,1.739h60.428a15.369,15.369,0,0,0-.119-1.752Zm-1.449-4.86H91.824c-.2.58-.382,1.159-.58,1.739h58.031c-.184-.566-.421-1.12-.672-1.752Zm-2.423-4.873H93.537c-.224.58-.435,1.159-.645,1.752H147.1c-.277-.593-.593-1.172-.882-1.765ZM143.336,211H95.473q-.369.869-.711,1.739h49.628q-.514-.882-1.067-1.752Zm-3.135-4.86H97.646c-.277.58-.553,1.159-.817,1.739h44.5Zm-3.345-4.86H100.188c-.329.566-.659,1.146-.961,1.739h38.814c-.4-.606-.8-1.185-1.2-1.752Zm-3.543-4.86H103.244c-.408.566-.79,1.146-1.172,1.739h32.506Zm-3.833-4.86H107.287q-.448.448-.909.948t-.711.79H130.9a19.642,19.642,0,0,0-1.436-1.752Zm-8.061-4.873h-5.953a14.606,14.606,0,0,0-4.175,1.739h14.277a15.187,15.187,0,0,0-4.162-1.752Z" transform="translate(-21.778 -118.715)" fill="#030402" opacity="0.1"/>
        <path id="Path_31713" data-name="Path 31713" d="M116.617,212.587c11.129,4.267,52.6,13.764,61.337,6.506,13.711-11.393,24.432-31.808,29.964-48.548,1.91-5.822-34.639-10.84-36.641-4.267-2.634,8.561-9.22,24.142-10.971,26.816s-26.552,3.121-43.279,4.689C103.064,199.087,102.5,207.187,116.617,212.587Z" transform="translate(-14.394 -126.167)" fill="#ffc4c0"/>
        <path id="Path_31714" data-name="Path 31714" d="M160.811,136.293a5.163,5.163,0,0,1,5.663,1.646,7.679,7.679,0,0,1,4.373-2.819c3.108-.553,5.347,4.07,5.347,4.07a9.391,9.391,0,0,1,5.084-2.239c3.029-.237,5.953,4.109,5.953,4.109a8.271,8.271,0,0,1,5.716.843c4.544,2.766,4.649,10.879,4.781,16.042s-4.36,19.914-4.926,22.812l-31.768,3.069s-9.746-13.7-7.771-31.057C153.856,147.607,157.044,137.7,160.811,136.293Z" transform="translate(0.417 -135.075)" fill="#ffc4c0"/>
        <path id="Path_31715" data-name="Path 31715" d="M163.509,137.441c-1.949,5.268-2.226,10.879-2.819,16.437a.105.105,0,0,0,.2,0c.527-5.545,2.134-10.905,2.884-16.411C163.8,137.349,163.561,137.3,163.509,137.441Z" transform="translate(2.856 -134.353)" fill="#263238"/>
        <path id="Path_31716" data-name="Path 31716" d="M170.435,138.292a14.317,14.317,0,0,0-.474,3.82c-.079,1.317-.132,2.726-.171,4.083v8.192a.092.092,0,1,0,.184,0q.105-4.083.356-8.166.132-2.041.316-4.07a17.121,17.121,0,0,0,.132-3.846.2.2,0,0,0-.342-.013Z" transform="translate(5.741 -134.084)" fill="#263238"/>
        <path id="Path_31717" data-name="Path 31717" d="M179.1,139.7a10.536,10.536,0,0,0-.25,3.464v3.741c0,2.489-.066,4.965-.184,7.455a.093.093,0,1,0,.184,0c.145-2.529.316-5.058.421-7.573,0-1.317.105-2.489.145-3.727a9.72,9.72,0,0,0-.158-3.385.08.08,0,0,0-.158.026Z" transform="translate(8.557 -133.637)" fill="#263238"/>
        <path id="Path_31718" data-name="Path 31718" d="M163.79,179l29.568,24.063S182.111,215.773,176,217.077s-39.183-.593-57.952-8.179-13.974-14.949-.263-16.556,39.117-4.623,39.947-5.123S163.79,179,163.79,179Z" transform="translate(-14.587 -121.147)" fill="#00a3b1"/>
        <path id="Path_31719" data-name="Path 31719" d="M120.792,209.421q-1.4-.487-2.726-1.027c-.961-.4-1.87-.777-2.713-1.159l-9.523-7.784a3.385,3.385,0,0,1,.119-2.173Zm-11.235-15.449a10.167,10.167,0,0,0-1.594.935l20.612,16.846c1.317.329,2.634.645,3.872.922Zm5.584-1.725c-.764.145-1.475.3-2.16.487l26.039,21.31q1.739.316,3.477.593Zm6.585-.869-2.41.277,29.068,23.707c1.08.145,2.16.277,3.214.382Zm6.7-.79-2.384.29,31.175,25.472,3.016.237Zm6.7-.8-2.384.29,32.782,26.789,2.832.079Zm6.678-.83-2.384.3,33.783,27.659a18.885,18.885,0,0,0,2.45-.25Zm6.585-.843-2.371.316,32.927,26.882c.514-.29,1.027-.619,1.554-.975Zm6.585-.9-2.344.329,30.4,24.853a15.886,15.886,0,0,0,1.317-1.12Zm4.439-2.634a12.33,12.33,0,0,1-1.054,1.317l28.4,23.22,1.317-1.212Zm2.832-3.951-1,1.422,28.976,23.707,1.2-1.317Z" transform="translate(-14.579 -120.63)" fill="#030402" opacity="0.1"/>
        <path id="Path_31720" data-name="Path 31720" d="M173.052,204.369c-7.9-6.967-15.91-13.922-24.471-20.086a.08.08,0,1,0-.092.132c7.692,7.2,16.068,13.684,24.419,20.1C173.012,204.593,173.144,204.448,173.052,204.369Z" transform="translate(-1.024 -119.477)" fill="#263238"/>
        <path id="Path_31721" data-name="Path 31721" d="M137.724,207.165c-6.032-1.2-12.025-2.568-18.084-3.635v.105a73.033,73.033,0,0,0,7.442,2.015c-.988,0-1.976-.092-2.963-.079a.066.066,0,0,0,0,.132,14.578,14.578,0,0,0,2.726.25h1.488c3.108.632,6.243,1.093,9.4,1.449a.119.119,0,1,0-.013-.237Z" transform="translate(-10.16 -113.369)" fill="#263238"/>
        <path id="Path_31722" data-name="Path 31722" d="M109.539,160.7a3.424,3.424,0,0,1-3.754.25c-1.66-.659-3.78-2.371-5.584-1.172-2.028,1.317-1.317,4.254-.356,5.993a37.3,37.3,0,0,1,2.476,4.57,13.751,13.751,0,0,1,.869,4.768c0,3.28-1.791,6.309-1.581,9.575.277,3.951,3.951,6.8,7.086,8.587s6.954,2.516,10.537,3.767a19.19,19.19,0,0,1,11.933,14.04,24.869,24.869,0,0,1,.619,4.715c0,1.7-.119,3.411,0,5.11a6.045,6.045,0,0,0,2.805,4.781,14.633,14.633,0,0,0,4.992,1.567.3.3,0,0,1,.092.54,24.929,24.929,0,0,1-2.977,1.765,7.718,7.718,0,0,1-5.94.751c-2.239-.79-3.582-2.884-4.807-4.781a15.8,15.8,0,0,0-5.505-5.519,23.444,23.444,0,0,0-7.494-2.463c-5.071-.869-10.26-.606-15.3-1.673a18.439,18.439,0,0,1-12.1-7.9,17.741,17.741,0,0,1-2.634-6.928,25.973,25.973,0,0,1,.421-8.074,72.848,72.848,0,0,0,1.12-17.254,76.289,76.289,0,0,0-1.027-8.113,37.037,37.037,0,0,1-.751-7.613,12.6,12.6,0,0,1,6.585-10.774,12.96,12.96,0,0,1,12.684-.237C108.287,152.6,110.368,159.887,109.539,160.7Z" transform="translate(-21.883 -131.155)" fill="#263238"/>
        <path id="Path_31723" data-name="Path 31723" d="M97.7,177.91h0a13.935,13.935,0,0,0,7.9,7.692c3.622,1.317,7.6,1.4,11.287,2.634a18.215,18.215,0,0,1,8.785,5.743,15.634,15.634,0,0,1,2.9,9.378c.132,3.793-.25,7.573.158,11.353a.059.059,0,1,1-.119,0c-1.317-6.585,1.225-13.961-2.9-19.848a17.912,17.912,0,0,0-10.089-6.506c-3.49-.988-7.257-1.08-10.616-2.516a13.882,13.882,0,0,1-7.31-7.929Z" transform="translate(-17.117 -121.493)" fill="#263238"/>
        <path id="Path_31724" data-name="Path 31724" d="M82.411,195.244a18.215,18.215,0,0,1,.211-6.651c.487-2.634,1.106-5.268,1.673-7.9h0c-.461,2.252-.843,4.531-1.238,6.809a23.589,23.589,0,0,0-.435,6.52,14.488,14.488,0,0,0,6.941,10.471c3.793,2.331,8.113,2.779,12.46,2.792a86.926,86.926,0,0,1,11.564.566,30.951,30.951,0,0,1,12.2,4.017v.092c-7.534-4.412-16.174-4.188-24.6-4.175a21.916,21.916,0,0,1-11.933-2.871,14.764,14.764,0,0,1-6.836-9.667Z" transform="translate(-22.032 -120.611)" fill="#263238"/>
        <path id="Path_31725" data-name="Path 31725" d="M101.673,163.139c.237,0,3.451-3.372,3.793-3.7s3.741-3.477,3.793-3.7a12.749,12.749,0,0,0-3.82-2.634c-.856-.184-3.411,1.949-3.833,2.344s-2.634,2.924-2.423,3.793A12.921,12.921,0,0,0,101.673,163.139Z" transform="translate(-16.651 -129.362)" fill="#00a3b1"/>
        <path id="Path_31726" data-name="Path 31726" d="M135.77,170.18c4.768,17.557-5.123,22.562-9.009,23.418-3.477.777-15.265,3.648-21.811-13.329s.105-24.735,7.9-27.277S131.015,152.61,135.77,170.18Z" transform="translate(-15.661 -129.673)" fill="#ffc4c0"/>
        <path id="Path_31727" data-name="Path 31727" d="M126.957,163.544H125.64a2.028,2.028,0,0,1-1.317-.263.645.645,0,0,1-.158-.764,1.633,1.633,0,0,1,1.488-.685,2.358,2.358,0,0,1,1.607.54.7.7,0,0,1-.3,1.172Z" transform="translate(-8.745 -126.593)" fill="#263238"/>
        <path id="Path_31728" data-name="Path 31728" d="M117.836,165.863a11.081,11.081,0,0,0,1.146-.487,2.041,2.041,0,0,0,1.093-.738.632.632,0,0,0-.158-.764,1.581,1.581,0,0,0-1.62,0,2.279,2.279,0,0,0-1.317,1.106.685.685,0,0,0,.856.882Z" transform="translate(-11.016 -126.014)" fill="#263238"/>
        <path id="Path_31729" data-name="Path 31729" d="M120.4,168.27s-.079.079,0,.132c.3,1.2.448,2.634-.553,3.266v.066C121.1,171.26,120.891,169.363,120.4,168.27Z" transform="translate(-10.094 -124.55)" fill="#263238"/>
        <path id="Path_31730" data-name="Path 31730" d="M119.529,167.5c-1.976.277-1.317,4.215.566,3.951S121.188,167.253,119.529,167.5Z" transform="translate(-10.576 -124.796)" fill="#263238"/>
        <path id="Path_31731" data-name="Path 31731" d="M119.232,167.769c-.3.29-.566.738-.975.856s-.909-.211-1.317-.553h0c.132.764.553,1.475,1.317,1.449s1.172-.79,1.225-1.594C119.508,167.835,119.35,167.651,119.232,167.769Z" transform="translate(-11.016 -124.721)" fill="#263238"/>
        <path id="Path_31732" data-name="Path 31732" d="M125.15,166.86s.105,0,.119.092c.171,1.225.58,2.634,1.752,2.819v.066C125.638,169.876,125.124,168.045,125.15,166.86Z" transform="translate(-8.413 -124.997)" fill="#263238"/>
        <path id="Path_31733" data-name="Path 31733" d="M126.02,165.761c1.949-.5,2.779,3.411.988,3.872S124.4,166.169,126.02,165.761Z" transform="translate(-8.414 -125.359)" fill="#263238"/>
        <path id="Path_31734" data-name="Path 31734" d="M126.521,165.959c.342.145.738.448,1.106.4s.659-.553.843-1.014h.079c.171.751.092,1.581-.593,1.87s-1.251-.263-1.581-.975C126.31,166.13,126.376,165.906,126.521,165.959Z" transform="translate(-8.032 -125.479)" fill="#263238"/>
        <path id="Path_31735" data-name="Path 31735" d="M121.573,175.424c.329.25.685.606,1.133.58a3.03,3.03,0,0,0,1.317-.487h.066a1.673,1.673,0,0,1-1.475.869,1.317,1.317,0,0,1-1.106-.948C121.428,175.424,121.521,175.385,121.573,175.424Z" transform="translate(-9.578 -122.287)" fill="#263238"/>
        <path id="Path_31736" data-name="Path 31736" d="M125.73,174.169s.593,1.765.764,2.634c0,.079-.184.158-.474.237h0a4.162,4.162,0,0,1-4.254-.751.092.092,0,0,1,.105-.145,6.283,6.283,0,0,0,3.951.342c0-.25-1.133-2.99-1-3.029a7.625,7.625,0,0,1,2.028.066c-1.146-3.714-2.871-7.231-3.951-10.945a.119.119,0,0,1,.211-.105,63.46,63.46,0,0,1,4.781,11.617C127.982,174.551,126.1,174.248,125.73,174.169Z" transform="translate(-9.493 -126.405)" fill="#263238"/>
        <path id="Path_31737" data-name="Path 31737" d="M125.855,173.079a5.123,5.123,0,0,1-1.462,2.107,2.331,2.331,0,0,1-1.317.5c-1.027,0-1.317-.817-1.4-1.62a5.465,5.465,0,0,1,0-1.317,6.585,6.585,0,0,0,4.175.329Z" transform="translate(-9.526 -123.129)" fill="#263238"/>
        <path id="Path_31738" data-name="Path 31738" d="M124.383,174.912a2.331,2.331,0,0,1-1.317.5c-1.027,0-1.317-.817-1.4-1.62A2.358,2.358,0,0,1,124.383,174.912Z" transform="translate(-9.517 -122.828)" fill="#ff98b9"/>
        <path id="Path_31739" data-name="Path 31739" d="M108.588,186.259c1.541-.277,0-9.97,0-9.97s6.032-3.227,6.309-12.394a13.816,13.816,0,0,1-1.317,7.784s10.537-3.28,13.263-13.171c0,0-.9,4.939-2.265,6.9a12.828,12.828,0,0,0,5.729-6.243s2.911,4.821,4.649,5.966c0,0-1.989-18.281-21.205-13.263A19.374,19.374,0,0,0,99.5,166.108c-1.383,5.887.58,12.881,3,16.806C104.018,185.245,108.588,186.259,108.588,186.259Z" transform="translate(-16.692 -130.026)" fill="#263238"/>
        <path id="Path_31740" data-name="Path 31740" d="M111.854,172.265S107.389,167,104.94,168.6s1.317,9.575,4.4,10.418a3.082,3.082,0,0,0,3.951-2.015Z" transform="translate(-15.071 -124.541)" fill="#ffc4c0"/>
        <path id="Path_31741" data-name="Path 31741" d="M105.59,170.24v.079a7.81,7.81,0,0,1,4.452,4.478,1.712,1.712,0,0,0-2.634-.224s0,.119,0,.105a1.9,1.9,0,0,1,2.134.461,9.049,9.049,0,0,1,1.146,1.594c.119.184.448,0,.356-.158h0C110.937,173.875,108.5,170.24,105.59,170.24Z" transform="translate(-14.615 -123.925)" fill="#263238"/>
      </g>
    </g>
    <g id="Rectangle_8737" data-name="Rectangle 8737" transform="translate(966 3444)" fill="none" stroke="#707070" stroke-width="1" opacity="0">
      <rect width="576" height="576" stroke="none"/>
      <rect x="0.5" y="0.5" width="575" height="575" fill="none"/>
    </g>
  </g>
</svg>
