<svg xmlns="http://www.w3.org/2000/svg" xmlns:xlink="http://www.w3.org/1999/xlink" width="576" height="576" viewBox="0 0 576 576">
  <defs>
    <clipPath id="clip-path">
      <rect id="Rectangle_9834" data-name="Rectangle 9834" width="318" height="476" transform="translate(0 76.506)" fill="#fff" stroke="#707070" stroke-width="1"/>
    </clipPath>
  </defs>
  <g id="high_risk" transform="translate(-17796 -5582)">
    <path id="Rectangle_8718" data-name="Rectangle 8718" d="M1,1V575H575V1H1M0,0H576V576H0Z" transform="translate(17796 5582)" fill="#707070" opacity="0"/>
    <g id="conservative_illustration" transform="translate(10261 6119.999)">
      <rect id="Rectangle_8307" data-name="Rectangle 8307" width="574" height="574" transform="translate(7536 -536.999)" fill="none"/>
      <g id="Warning-cuate" transform="translate(7536 -526.504)">
        <g id="freepik--background-complete--inject-16" transform="translate(10.788 0)">
          <path id="Path_27349" data-name="Path 27349" d="M399.27,50.31h25.8l-1.739,95.084H401.009Z" transform="translate(82.796 -50.31)" fill="#ebebeb"/>
          <rect id="Rectangle_8300" data-name="Rectangle 8300" width="22.311" height="22.311" transform="translate(483.819 106.989)" fill="#ebebeb"/>
          <path id="Path_27350" data-name="Path 27350" d="M447.821,105.43l20.982,6.108-23.909,76.9-18.154-5.288Z" transform="translate(94.165 -27.496)" fill="#ebebeb"/>
          <rect id="Rectangle_8301" data-name="Rectangle 8301" width="18.89" height="18.89" transform="translate(518.087 165.354) rotate(16.23)" fill="#ebebeb"/>
          <path id="Path_27351" data-name="Path 27351" d="M262.69,85.464l16.712-7.9,27.967,62.155L292.9,146.558Z" transform="translate(26.267 -39.032)" fill="#ebebeb"/>
          <rect id="Rectangle_8302" data-name="Rectangle 8302" width="15.991" height="15.991" transform="translate(322.82 115.261) rotate(-25.27)" fill="#ebebeb"/>
        </g>
        <g id="freepik--Sign--inject-16" transform="translate(290.484 15.694)">
          <rect id="Rectangle_8303" data-name="Rectangle 8303" width="16.854" height="458.185" transform="translate(123.998 78.386)" fill="#dbdbdb"/>
          <path id="Path_27356" data-name="Path 27356" d="M388.565,61.41,256.14,290.771H520.99Z" transform="translate(-256.14 -61.41)" fill="#e27e2b"/>
          <path id="Path_27357" data-name="Path 27357" d="M380.138,84.91,276.5,264.432H483.79Z" transform="translate(-247.713 -51.684)" fill="#fff"/>
          <rect id="Rectangle_8305" data-name="Rectangle 8305" width="264.85" height="88.608" transform="translate(0 242.708)" fill="#e27e2b"/>
          <path id="Path_27359" data-name="Path 27359" d="M513.295,314.038H260.35V237.25H513.295Zm-251.531-1.414H511.881V238.664H261.764Z" transform="translate(-254.398 11.368)" fill="#fff"/>
          <text id="HIGH_RISK-2" data-name="HIGH RISK" transform="translate(130.517 300.812)" fill="#fff" font-size="41" font-family="Montserrat-Bold, Montserrat" font-weight="700"><tspan x="-111.499" y="0">HIGH RISK</tspan></text>
          <path id="Path_27439" data-name="Path 27439" d="M39.092,31.67H21.611L7.5,10.45A10.049,10.049,0,0,0,4.177,6.944,9,9,0,0,0-.45,5.869H-13.818V-5.442H5.813q8.787,0,10.844-6.357H-13.818v-8.6H16.469q-2.15-5.889-10.657-5.889H-13.818v-8.6H39v8.6H27.874A17.55,17.55,0,0,1,30.585-20.4H39v8.6H30.959A18.317,18.317,0,0,1,26.1-1.235a20.476,20.476,0,0,1-10.47,5.7A14.629,14.629,0,0,1,21.1,6.8a17.089,17.089,0,0,1,4.347,4.674Z" transform="translate(120.2 149.569)" fill="#e27e2b"/>
        </g>
        <g id="freepik--Table--inject-16" transform="translate(1.414 552.124)">
          <path id="Path_27435" data-name="Path 27435" d="M51.69,441.517l70.086-.353,70.1-.113,140.2-.24,140.2.24,70.1.113,70.086.353-70.086.339-70.1.127-140.2.24-140.2-.24-70.1-.127Z" transform="translate(-51.69 -440.81)" fill="#263238"/>
        </g>
        <g id="freepik--speech-bubble--inject-16" transform="translate(0 38.175)">
          <path id="Path_27436" data-name="Path 27436" d="M50.69,127.689a50.151,50.151,0,0,0,80.069,40.3l24.588,6.278L145.11,151.371a50.179,50.179,0,1,0-94.42-23.683Z" transform="translate(-50.69 -77.226)" fill="#fff"/>
          <path id="Path_27437" data-name="Path 27437" d="M50.69,127.772A50.434,50.434,0,0,0,58.2,153.985a58.143,58.143,0,0,0,4,5.656,58.971,58.971,0,0,0,4.807,4.963,32.76,32.76,0,0,0,2.616,2.248l2.828,2.064c.933.679,1.965,1.2,2.941,1.824l1.414.877c.495.283,1.032.509,1.541.763l3.125,1.414,3.252,1.159a22.17,22.17,0,0,0,3.309.961c1.117.254,2.22.622,3.351.778a50.649,50.649,0,0,0,6.843.749,42.87,42.87,0,0,0,6.871-.1,50.278,50.278,0,0,0,13.347-3.125,50.9,50.9,0,0,0,11.962-6.659l.184-.141h.24l24.616,6.165-.721.862-10.279-22.778-.141-.3.17-.3a49.712,49.712,0,0,0,1.64-43.406,51.593,51.593,0,0,0-13.319-17.914,49.487,49.487,0,0,0-19.865-10.279,50.306,50.306,0,0,0-22.438-.608,50.985,50.985,0,0,0-20.445,9.417,50.306,50.306,0,0,0-19.356,39.49Zm0,0a50.514,50.514,0,1,1,100.994,1.923,49.6,49.6,0,0,1-5.981,22.1v-.608l10.18,22.919.523,1.174-1.244-.325L130.6,168.563l.424-.085a50.306,50.306,0,0,1-25.846,9.643,43.943,43.943,0,0,1-6.956,0,49.161,49.161,0,0,1-6.9-.834c-1.159-.17-2.262-.551-3.379-.82a24.579,24.579,0,0,1-3.337-1.018l-3.252-1.216c-1.046-.481-2.078-1-3.125-1.513-.523-.269-1.046-.495-1.555-.778l-1.414-.919c-.961-.622-1.994-1.174-2.927-1.866l-2.828-2.093a30.772,30.772,0,0,1-2.616-2.276,55.481,55.481,0,0,1-4.807-5.005,54.366,54.366,0,0,1-3.973-5.656A50.476,50.476,0,0,1,50.69,127.772Z" transform="translate(-50.69 -77.31)" fill="#263238"/>
          <path id="Path_35661" data-name="Path 35661" d="M322.926,136.8l-20.276-20.52,6.817-6.729L321.3,121.536,345.91,82.96l8.075,5.156Z" transform="translate(-275.458 -59.402)" fill="#00a0ad"/>
        </g>
        <g id="Mask_Group_144" data-name="Mask Group 144" clip-path="url(#clip-path)">
          <g id="freepik--character-3--inject-75" transform="translate(-397.41 31.276)">
            <path id="Path_35156" data-name="Path 35156" d="M533.981,449.143a4.815,4.815,0,0,0-.221-1.073h0Z" transform="translate(63.489 178.631)" fill="#fff"/>
            <path id="Path_35157" data-name="Path 35157" d="M468.41,295.184h0c0,.1.206.75.485,1.838a4.732,4.732,0,0,0,.176.735v.206c0,.074.118.412.176.647a3.476,3.476,0,0,1,.132.529,2.1,2.1,0,0,0,.147.559c.059.191.221.794.323,1.206s.235.912.353,1.4a.206.206,0,0,0,0,.132l.382,1.471c.132.559.294,1.162.456,1.779.324,1.235.676,2.559,1.059,3.985a.3.3,0,0,0,0,.1c.191.691.368,1.382.559,2.118.779,3.015,1.676,6.411,2.632,10.147a1.57,1.57,0,0,0,.147.471c.132.544.265,1.088.412,1.632.382,1.47.779,3.044,1.22,4.647a.429.429,0,0,0,0,.132h0c.221.868.441,1.765.691,2.662h0c.088.4.206.794.309,1.221s.323,1.235.485,1.853c.971,3.662,1.971,7.558,3.029,11.632.309,1.147.6,2.338.912,3.515s.559,2.118.838,3.206a.518.518,0,0,1,0,.176l.441,1.676h0c.162.632.338,1.265.5,1.912.25.912.485,1.838.721,2.779s.544,2.088.824,3.147c.221.823.426,1.676.647,2.529.118.412.235.809.323,1.25,3.22,12.367,6.706,25.881,10.411,40.1,9.176,35.425,19.484,75.276,29.278,113.347h138.8C653.827,480.88,641.49,440.162,630.5,404.311c-5.735-18.823-11.132-36.307-15.852-51.468v-.088c-.765-2.441-1.47-4.853-2.22-7.161-9.5-30.69-15.734-50.483-15.734-50.483Z" transform="translate(32.741 106.661)" fill="#222"/>
            <path id="Path_35158" data-name="Path 35158" d="M468.4,295.17s.221.868.676,2.573c.1.4.221.868.368,1.382a2.1,2.1,0,0,0,.147.559c.191.765.427,1.647.676,2.6a.206.206,0,0,0,0,.132l.382,1.471c.132.559.294,1.162.456,1.779.323,1.235.676,2.559,1.059,3.985a.3.3,0,0,0,0,.1c.191.691.368,1.382.559,2.118.779,3.015,1.676,6.411,2.632,10.147.191.691.368,1.382.559,2.1.382,1.471.779,3.044,1.221,4.647a.426.426,0,0,0,0,.132h0c.221.868.441,1.765.691,2.662h0c.088.4.206.794.323,1.206h0c.147.6.309,1.235.471,1.853.971,3.662,1.97,7.558,3.029,11.632.309,1.147.6,2.338.912,3.515s.559,2.118.838,3.206a.519.519,0,0,1,0,.176h0c.147.559.294,1.118.426,1.676h0c.162.632.338,1.265.5,1.912.25.912.485,1.838.721,2.779s.544,2.088.823,3.147c11.352,43.6,26.572,102.26,40.7,157.228H548.69a.163.163,0,0,1,0-.1q1.294-7.206,2.721-14.5l1.235-6.367c5.323-27.116,11.308-54.527,17.1-80.878.191-.882.368-1.75.559-2.632.132-.515.25-1.044.353-1.573,4.6-20.97,9.044-41.174,12.9-60.144a3.191,3.191,0,0,1,.176-.809c.074-.279,0-.279,0-.426q1-4.853,1.912-9.558c.176-.912.368-1.809.529-2.706.265-1.47.544-2.809.794-4.176.456-2.323.882-4.617,1.294-6.867q.221-1.1.4-2.162c.618-3.368,1.206-6.676,1.75-9.9.147-.9.309-1.779.441-2.647q1.162-6.97,2.088-13.485c.279-1.97.544-3.9.794-5.794H468.4Z" transform="translate(32.736 106.69)" opacity="0.1"/>
            <path id="Path_35159" data-name="Path 35159" d="M423,519.974H565.287l.412-4.691.765-8.367,1.691-18.573.706-7.794,5.014-55.35.147-1.471c5.5-2.544,13.484-6.279,17.646-8.22l2.691-1.25s.1-.471.265-1.323c1.176-6.294,6.309-33.587,10.72-59.232l.132-.779V352.5c.574-3.25,1.118-6.456,1.647-9.573.162-.9.294-1.794.456-2.676.25-1.471.471-2.838.691-4.206l.1-.529h0c.353-2.132.691-4.235,1.029-6.264.132-.735.25-1.471.353-2.176.662-3.926,1.279-7.647,1.853-11.044.118-.809.265-1.618.4-2.4.868-5.323,1.617-9.808,2.147-13.014.4-2.441.662-4.132.809-4.956a1.918,1.918,0,0,1,0-.412H448.91s-5.588,24.278-10.47,49.174c-.706,3.529-1.368,7.088-2.029,10.573-.294,1.6-.574,3.206-.868,4.764a289.956,289.956,0,0,0-4.206,29.734c-.456,7.691,2.073,30.7,2.073,30.7Z" transform="translate(11.374 106.727)" fill="#222"/>
            <path id="Path_35160" data-name="Path 35160" d="M564.488,372.626c-18.528,5.985-36.483,14.632-53.659,23.719a.6.6,0,0,0,.485,1.1c18.058-7.353,36.469-14.337,54.1-22.661a1.176,1.176,0,0,0-.926-2.162Z" transform="translate(52.54 143.095)" fill="#263238"/>
            <path id="Path_35161" data-name="Path 35161" d="M441.527,366.594c1.647-.544,30.278,1.779,43.983-10.029,12.558-10.794,18.749-43.483,19-43.513a.471.471,0,0,1,.485.221c.4.735-.426,26.587-15.47,44.542-10.617,12.661-44.439,10.764-48.071,9.882C440.821,367.55,441.056,366.756,441.527,366.594Z" transform="translate(19.876 115.1)" fill="#263238"/>
            <path id="Path_35162" data-name="Path 35162" d="M574.142,354.733c-1.368-1.118-7.853-2.1-14.161-14.441a66.238,66.238,0,0,1-5.323-15.308c-.735-3.162-3.088-18.6-3.279-18.676s-.162,0-.191.191c-.221,1.073,1.235,15.205,1.882,18.823,1.206,6.794,2.823,13.043,5.441,17.646,6.073,10.735,14.279,13.485,15.676,12.764C574.451,355.615,574.333,354.88,574.142,354.733Z" transform="translate(71.678 111.918)" fill="#263238"/>
            <path id="Path_35163" data-name="Path 35163" d="M641.124,411.831l-211.842,6.147c-.471-.485,46.792-197.167,75.54-235.283,14.426-19.117,53.262-17.764,67.805,6.941C592.729,223.707,641.124,411.831,641.124,411.831Z" transform="translate(14.328 47.6)" fill="#ebebeb"/>
            <path id="Path_35164" data-name="Path 35164" d="M511.39,209.543l8.1-16.323L533.4,207.352,529.992,219.6l-12.72,1.456Z" transform="translate(52.963 58.721)" fill="#00a0ad"/>
            <path id="Path_35165" data-name="Path 35165" d="M518.2,212.616,509.41,328.287l20.808,39.851,19.058-47.218L530.924,211.16Z" transform="translate(52.032 67.162)" fill="#00a0ad"/>
            <path id="Path_35166" data-name="Path 35166" d="M658.11,432.036l-63.894,7.176-13.367-26.984-9.661,30.528L425.224,431.345c-.471-.485,11.544-36.689,13.235-45.762,9.705-53.012,39.572-166.889,68.32-205.063a28.484,28.484,0,0,1,6.941-6.529c2.088,5.176,17.249,42.5,23.293,55.233,6.823,14.367,34.219,56.5,34.219,56.5s6.867-41.836,8-60.585c.368-6.073-4.9-31.91-6.764-40.88a37.781,37.781,0,0,1,2.117,3.206c20.1,34.131,56.88,148.434,68.5,202.152C644.39,395.92,658.11,432.036,658.11,432.036Z" transform="translate(12.415 49.673)" fill="#465a65"/>
            <path id="Path_35167" data-name="Path 35167" d="M534.141,376.464Q526.318,313.5,524.48,250,532.332,312.982,534.141,376.464Z" transform="translate(59.122 85.436)" fill="#37474f"/>
            <path id="Path_35168" data-name="Path 35168" d="M524.072,267.712a5.382,5.382,0,1,1-2.6-4.895,5.382,5.382,0,0,1,2.6,4.895Zm0,0a3.911,3.911,0,1,0-1.88,3.586,3.911,3.911,0,0,0,1.88-3.586Z" transform="translate(53.869 91.106)" fill="#37474f"/>
            <path id="Path_35169" data-name="Path 35169" d="M525.634,296.292a5.382,5.382,0,1,1-5.382-5.382,5.382,5.382,0,0,1,5.382,5.382Zm0,0a3.912,3.912,0,1,0-3.911,3.912,3.912,3.912,0,0,0,3.911-3.912Z" transform="translate(54.601 104.685)" fill="#37474f"/>
            <path id="Path_35170" data-name="Path 35170" d="M527.194,324.962a5.382,5.382,0,1,1-5.382-5.382A5.382,5.382,0,0,1,527.194,324.962Zm0,0a3.912,3.912,0,1,0-3.912,3.912A3.912,3.912,0,0,0,527.194,324.962Z" transform="translate(55.335 118.175)" fill="#37474f"/>
            <path id="Path_35171" data-name="Path 35171" d="M541.669,183.361c5.956,13.646,30.146,65.6,42.645,100.069,8.367,23.117,12,42.645,13.837,47.777,0,0-56.5-15.543-69.114-15.043-19.322.779-48.615,42.454-40.792,47.189,12.293,7.441,70.423,32.072,116.3,38.63,24.925,3.573,70.2-29.851,65.467-54.689-6.661-34.866-75.893-128.788-101.127-153.992C555.816,180.214,534.434,166.73,541.669,183.361Z" transform="translate(41.462 50.448)" fill="#ffc4c0"/>
            <path id="Path_35172" data-name="Path 35172" d="M671.121,355.475c-.1,25.322-30.043,50.836-48.248,53.291C562.332,416.928,492.6,388.959,492.6,388.959l35.689-76.584s66.173,19.411,67.144,19.72h0c-.647-1.868-19.117-60.953-27.028-80.467-.426-1.073-.912-2.176-1.382-3.323-2.279-5.411-5.4-12.529-8.823-20.22h0l-5.882-13.1h0c-8.617-19.043-18.911-41.292-18.911-41.292,10.941,1.323,21.925,6.588,40.322,24.322S671.253,313.7,671.121,355.475Z" transform="translate(44.122 49.531)" fill="#465a65"/>
            <path id="Path_35173" data-name="Path 35173" d="M512.666,321.033c2.412-5.147,4.867-10.294,7.353-15.4s4.794-10.044,7.22-15.043a170.227,170.227,0,0,0,7.161-15.749c0-.1-.1-.191-.162-.1a127.93,127.93,0,0,0-8.191,14.337c-2.618,5.044-5.162,10.132-7.676,15.235s-4.823,10.029-7.161,15.088a125.343,125.343,0,0,0-6.5,16.029c0,.221.235.427.382.206a151.761,151.761,0,0,0,7.573-14.6Z" transform="translate(49.82 97.061)" fill="#37474f"/>
            <path id="Path_35174" data-name="Path 35174" d="M594.61,324.352l-20.146-9.6h0c-.647-1.868-19.117-60.953-27.028-80.467-.426-1.073-.912-2.176-1.382-3.323-2.279-5.412-5.4-12.529-8.823-20.22Z" transform="translate(65.121 66.964)" fill="#37474f"/>
            <path id="Path_35175" data-name="Path 35175" d="M599.661,299.225a162.594,162.594,0,0,0-17.793-10.367c-3.044-1.559-6.132-2.941-9.308-4.235s-6.926-2.265-10.294-3.617c-.265-.1-.426.294-.176.4,3.132,1.265,6.147,3.073,9.176,4.573s6.338,3.073,9.529,4.544c6.279,2.941,12.455,6,18.7,8.97a.155.155,0,0,0,.162-.265Z" transform="translate(76.76 100.017)" fill="#37474f"/>
            <path id="Path_35176" data-name="Path 35176" d="M492.58,320.08c35.116,11.985,72.055,19.484,109.259,20.161,5.25.265,10.735-.1,15.984,0a211.756,211.756,0,0,1-63.982-1.47,237.015,237.015,0,0,1-61.262-18.587Z" transform="translate(44.113 118.41)" fill="#37474f"/>
            <path id="Path_35177" data-name="Path 35177" d="M666.042,340.675c-6.323-1.559-32.484-4.809-36.925-.368-26.969,26.94-55.674,12.97-61.6,16.411-45.88,26.572-101.554,52.189-123.523,52.453-33.219.368-46.527-27.469-41.086-53.836,10.764-52.1,69.761-141.331,101.466-168.4,16.808-14.338,26.469-5.309,19.573,18.131-4.044,13.749-11.132,34.189-18.367,54.247-6.411,17.867-23.381,63.526-23.675,64.6h0v.132c0,.029.088.132.353,0,1.47-.265,40.7-18.911,80.2-29.2,13.911-3.632,42.91-8.823,53.321-4.206,6.191,2.735,6.309,6.426,6.309,6.426s7.823-.132,13.073,4.162A11.588,11.588,0,0,1,639,308.573s6.338,2.059,9.352,5.014a18.234,18.234,0,0,1,5.6,10.72A29.41,29.41,0,0,1,666.042,340.675Z" transform="translate(1.365 52.524)" fill="#ffc4c0"/>
            <path id="Path_35178" data-name="Path 35178" d="M547.652,259a78.079,78.079,0,0,0-12.4,1.47c-.28,0-.265.485,0,.456,4.044-.456,8.132-.559,12.205-.706s8.132-.25,12.176-.176A65.786,65.786,0,0,0,547.652,259Z" transform="translate(64.096 89.671)" fill="#263238"/>
            <path id="Path_35179" data-name="Path 35179" d="M571.593,268.389c-8.72-2.368-15.661-3.662-26.6-2.265-.353,0-.323.574,0,.544,10.4-.676,17.176.368,26.557,1.912C571.666,268.595,571.681,268.418,571.593,268.389Z" transform="translate(68.654 92.752)" fill="#263238"/>
            <path id="Path_35180" data-name="Path 35180" d="M581.864,279.148a62.1,62.1,0,0,0-26.616-2.618.28.28,0,1,0,0,.559,153.523,153.523,0,0,1,26.587,2.47.206.206,0,0,0,.029-.412Z" transform="translate(73.456 97.713)" fill="#263238"/>
            <path id="Path_35181" data-name="Path 35181" d="M528.371,257.622a116.07,116.07,0,0,0-11.573,2.544c-4.044.985-8.088,2.059-12.058,3.338a238.244,238.244,0,0,0-23.263,9,.25.25,0,0,0,.176.456c7.75-2.647,15.573-5.132,23.411-7.544,3.853-1.191,7.676-2.441,11.514-3.676s8.029-2.22,11.9-3.647a.241.241,0,0,0-.1-.47Z" transform="translate(38.835 89.02)" fill="#263238"/>
            <path id="Path_35182" data-name="Path 35182" d="M542.707,297.971l47.336,79.967s-68.261,36.528-140.64,37.41c-23.528.279-50-15.867-50.571-45.233-.75-41.174,63.82-145.728,107.083-185.2,17.308-15.793,31.146-9.529,18.5,34.587-8.823,30.66-33.91,100.819-33.91,100.819Z" transform="translate(0 51.112)" fill="#465a65"/>
            <path id="Path_35183" data-name="Path 35183" d="M495.068,220.49c-1.721,2.809-3.47,5.588-4.941,8.544-.073.132-.132.279-.206.412q3.265-10.058,6.235-20.19c.118-.426-.573-.647-.721-.235-9.72,24.808-18.72,50-27.454,75.1-2.441,7.044-4.588,14.161-6.809,21.264-.074.25.324.368.426.132,2.676-6.088,5.367-12.146,7.808-18.352s4.706-12.47,7-18.734c4.015-10.941,7.823-21.925,11.514-32.984,1.147-1.941,2.323-3.867,3.412-5.882,1.588-2.867,2.941-5.882,4.22-8.823a.273.273,0,1,0-.485-.25Z" transform="translate(29.331 66.052)" fill="#37474f"/>
            <path id="Path_35184" data-name="Path 35184" d="M516.423,313.761c-3.044-5.147-6.044-10.294-9.088-15.44s-5.882-10.1-8.823-15.176-5.941-10.558-9.455-15.484a.1.1,0,0,0-.176.088,133.827,133.827,0,0,0,7.632,15.573c2.838,5.264,5.779,10.47,8.72,15.735s5.882,10.132,8.911,15.146a134.318,134.318,0,0,0,10.205,15.029c.162.191.515,0,.4-.206a157.073,157.073,0,0,0-8.323-15.264Z" transform="translate(42.372 93.731)" fill="#37474f"/>
            <path id="Path_35185" data-name="Path 35185" d="M529.228,264.034a8.818,8.818,0,0,0-1.191-2.294l-1.4-2.191.4.132q-11.69,5.6-23.528,10.9c-22.661,10.294-48.395,20.9-71.129,31,22.219-13.352,46.248-23.4,70.158-33.278,8.1-3.25,16.264-6.382,24.5-9.279.647,1.191,1.265,2.515,1.794,3.764a3.81,3.81,0,0,1,.368,1.25Z" transform="translate(15.788 89.681)" fill="#37474f"/>
            <path id="Path_35186" data-name="Path 35186" d="M556.457,300.115c4.412,6.706,8.72,13.455,12.985,20.264-9.941,4.97-20.1,9.4-30.4,13.558a384.176,384.176,0,0,1-53.85,17.485c-13.073,2.941-26.69,5.235-40.086,5.132,21.455-1.956,42.189-7.808,62.615-14.382s40.454-14.455,60.188-22.9l-.368,1.162q-5.617-10.117-11.088-20.337Z" transform="translate(21.778 109.009)" fill="#37474f"/>
            <path id="Path_35187" data-name="Path 35187" d="M439.858,279.668c-.941,8.352,25.984,12.573,28.793,13.676a14.283,14.283,0,0,1,2.941,1.75h.073l.191.132c2.559-1.97,48.909-21.558,51.542-22.2l2.015,3.4.471.823a162.416,162.416,0,0,1,22.264-6.676s-14.838-19.94-34.7-30.719a87.758,87.758,0,0,0-19.47-6.867c-12.691-3.073-25.822-4.294-28.4-1.471-5.794,6.264,6.161,8.661,7.661,9.279-1.868-.368-18.073-1.573-21.573,3.676-4.867,7.353,8.47,12.161,9.955,12.69-1.47-.1-15.984-1.323-19.528,3.765-5.015,7.191,9.573,11.088,11.308,11.529C451.842,272.256,440.784,271.389,439.858,279.668Z" transform="translate(19.295 75.989)" fill="#ffc4c0"/>
            <path id="Path_35188" data-name="Path 35188" d="M482.5,271.722l-.853.279c-4.573-3.794-18.117-10.455-32.013-12.691-.868-.132-.9-.632,0-.559C466.837,260.076,478.1,267.414,482.5,271.722Z" transform="translate(23.594 89.551)" fill="#263238"/>
            <path id="Path_35189" data-name="Path 35189" d="M455.276,248.97c19.117,4.412,27.69,8.955,43.924,19.984.221.162.5-.176.279-.353-15.073-12.029-24.5-18.058-44.027-20.117C454.57,248.4,454.393,248.764,455.276,248.97Z" transform="translate(26.288 84.717)" fill="#263238"/>
            <path id="Path_35190" data-name="Path 35190" d="M463.186,237.762c18.323,5.485,27.94,10.044,42.424,22.543a.324.324,0,1,0,.471-.441c-13.6-14.043-25.543-19.808-42.645-22.617C462.216,237.056,462.039,237.409,463.186,237.762Z" transform="translate(29.92 79.411)" fill="#263238"/>
            <path id="Path_35191" data-name="Path 35191" d="M534.965,214.454c-10.852,6.279-32.837-8.22-41.719-22.4-.6-.985-1.471-40.88-1.926-48.924-.1-1.647,51.174,9.308,51.174,9.308s-3.985,17.146-3.073,31.175a17.554,17.554,0,0,0,.544,3.279c0,.147.073.324.1.544C541.494,193.646,540.568,211.234,534.965,214.454Z" transform="translate(43.52 35.075)" fill="#ffc4c0"/>
            <path id="Path_35192" data-name="Path 35192" d="M539.481,187.41a32.191,32.191,0,0,1-5.161.574c-26.469.971-37.9-30.881-41.66-44.954,9.338.853,49.262,9.367,49.262,9.367s-4,17.161-3.073,31.2a15.975,15.975,0,0,0,.529,3.25C539.393,187,539.466,187.19,539.481,187.41Z" transform="translate(44.151 35.105)" fill="#263238"/>
            <path id="Path_35193" data-name="Path 35193" d="M531.63,85.45s15.558,7.117,17.881,23.278-1.956,32.851-3.367,33.616S531.63,85.45,531.63,85.45Z" transform="translate(62.487 8.013)" fill="#263238"/>
            <path id="Path_35194" data-name="Path 35194" d="M486.322,109.815c-5.676,17.867,3.162,69.732,15.764,81.437,18.264,16.955,48.527,18.911,62.982-3.117,14.043-21.367,1.324-88.775-12.779-99.436C531.511,73.008,494.718,83.448,486.322,109.815Z" transform="translate(40.342 6.074)" fill="#ffc4c0"/>
            <path id="Path_35195" data-name="Path 35195" d="M516.4,122.6c0-.132-.25.206-.221.353.691,3.47.882,7.573-2.088,9.264-.088,0,0,.221,0,.191C517.931,131.217,517.607,125.776,516.4,122.6Z" transform="translate(54.216 25.478)" fill="#263238"/>
            <path id="Path_35196" data-name="Path 35196" d="M514.28,120.464c-5.691.5-4.265,11.852,1.015,11.382S519.059,120.037,514.28,120.464Z" transform="translate(52.603 24.482)" fill="#263238"/>
            <path id="Path_35197" data-name="Path 35197" d="M529.94,120.773c0-.147.294.132.309.279.338,3.529,1.309,7.514,4.632,8.279.1,0,.118.206,0,.206C530.925,129.479,529.69,124.17,529.94,120.773Z" transform="translate(61.677 24.614)" fill="#263238"/>
            <path id="Path_35198" data-name="Path 35198" d="M532.62,118.026c5.6-1.132,7.47,10.147,2.279,11.205S527.929,118.967,532.62,118.026Z" transform="translate(61.673 23.303)" fill="#263238"/>
            <path id="Path_35199" data-name="Path 35199" d="M510.646,119.057a44.925,44.925,0,0,0,4.559-1.147,7.691,7.691,0,0,0,4.412-2.044,2.456,2.456,0,0,0-.118-2.941c-1.573-1.676-3.853-1.647-5.97-1.176a8.823,8.823,0,0,0-5.411,3.323,2.588,2.588,0,0,0,2.529,3.985Z" transform="translate(51.222 20.256)" fill="#263238"/>
            <path id="Path_35200" data-name="Path 35200" d="M537.756,117.928a45.473,45.473,0,0,1-4.691.176,7.647,7.647,0,0,1-4.823-.735,2.441,2.441,0,0,1-.72-2.941c1.044-2.044,3.235-2.662,5.4-2.794a8.823,8.823,0,0,1,6.132,1.676,2.588,2.588,0,0,1-1.294,4.617Z" transform="translate(60.449 20.312)" fill="#263238"/>
            <path id="Path_35201" data-name="Path 35201" d="M516.808,145.095c.941.721,1.926,1.75,3.22,1.691a9.2,9.2,0,0,0,3.661-1.353.12.12,0,1,1,.177.162,4.809,4.809,0,0,1-4.22,2.47,3.794,3.794,0,0,1-3.162-2.765C516.411,145.095,516.661,144.977,516.808,145.095Z" transform="translate(55.354 36.055)" fill="#263238"/>
            <path id="Path_35202" data-name="Path 35202" d="M518.34,150.392A12.1,12.1,0,0,0,527,154.8a14.9,14.9,0,0,0,4.338-.353,4.652,4.652,0,0,0,.809-.191,6.169,6.169,0,0,0,.765-.221.882.882,0,0,0,.6-.868h0a1.361,1.361,0,0,0,0-.353h0v-.309c-.265-2.72-1.044-6.808-1.044-6.808,1.044.382,6.382,2.015,6.117.6-2.162-11.617-4.573-24.543-9.19-35.645a.326.326,0,0,0-.633.162c1.647,11.249,5.25,22.146,7.088,33.425a21.131,21.131,0,0,0-5.882-1.015c-.368.162,1.647,7.867,1.662,9.1a.34.34,0,0,1,0,.132c-4.411,1.147-8.088.206-12.882-2.294C518.34,149.877,518.1,150.142,518.34,150.392Z" transform="translate(56.189 19.759)" fill="#263238"/>
            <path id="Path_35203" data-name="Path 35203" d="M499.921,161.035c9.088-2.015,4.632-24.293,4.632-24.293s13.588-4.75,17.367-25c0,0,19.808,8.441,34.469,3.279,22.984-8.132,17.4-38.763,7.588-43.616-13.97-6.882-34.278,9.617-34.278,9.617S494.406,77,487.936,101.494c0,0-14.985,3.073-13.367,19.911S493.156,162.52,499.921,161.035Z" transform="translate(35.581 0.616)" fill="#263238"/>
            <path id="Path_35204" data-name="Path 35204" d="M493.078,128.479a31.558,31.558,0,0,0,16.176-12.485c3.853-6.147,5.25-14.867,2.088-21.572-.176-.353.441-.6.588-.221,2.941,7.544,3.75,15.661-.176,23.043a22.058,22.058,0,0,1-18.47,11.9.347.347,0,1,1-.206-.662Z" transform="translate(44.233 12.041)" fill="#263238"/>
            <path id="Path_35205" data-name="Path 35205" d="M473.269,101.428c3.72-6.661,10.691-8.72,17.764-9.588a.309.309,0,1,1,0,.618c-7.044.324-13.235,6.044-15.985,12.294s-.735,12.985,1.676,18.881a49.807,49.807,0,0,0,24.293,26.16c.191.088,0,.368-.118.279a49.792,49.792,0,0,1-27.116-28.587C471.578,115.265,469.843,107.56,473.269,101.428Z" transform="translate(34.116 11.02)" fill="#263238"/>
            <path id="Path_35206" data-name="Path 35206" d="M511.519,82.9A23.426,23.426,0,0,1,522.93,70.876a27.94,27.94,0,0,1,19.955-1.132,15.793,15.793,0,0,1,10.294,11.985c1.47,6.338-.588,12.852-3.412,18.455a.138.138,0,1,1-.25-.118c2.161-5.22,3.558-10.97,2.294-16.646a14.543,14.543,0,0,0-10.485-11.352c-10.4-2.765-24.484.206-29.263,11.1C511.931,83.537,511.357,83.272,511.519,82.9Z" transform="translate(53.011)" fill="#263238"/>
            <path id="Path_35207" data-name="Path 35207" d="M501.74,133.947s-11.514-16.867-19.117-12.793.882,28.454,9.764,31.881a9.058,9.058,0,0,0,12.205-4.735Z" transform="translate(38.041 24.513)" fill="#ffc4c0"/>
            <path id="Path_35208" data-name="Path 35208" d="M483.468,125.66a.118.118,0,1,0,0,.235c6.22,2.618,9.441,8.441,11.676,14.485-1.823-2.338-4.338-3.632-7.47-1.471-.162.118,0,.368.162.338a5.573,5.573,0,0,1,6.117,2.015,26.761,26.761,0,0,1,2.941,5c.294.559,1.309.279,1.1-.368v-.147C498.085,137.792,492.026,126.572,483.468,125.66Z" transform="translate(39.77 26.933)" fill="#263238"/>
            <path id="Path_35209" data-name="Path 35209" d="M542.184,172.963,530.567,200.9,495.275,165.61l-9.735,11.323s34.5,56.512,34.689,53.953L531.8,206.534l16.838,16.837-1.471-42.439Z" transform="translate(40.801 45.73)" fill="#ebebeb"/>
            <path id="Path_35210" data-name="Path 35210" d="M549.272,198.736c-.5-6.985-.794-14.058-1.6-21.014,0-.25-.426-.353-.485-.074-1.368,6.764.647,33.513.647,39.939h-.074c-.706-.735-15.6-14.808-15.749-14.588-2.515,3.867-10.955,21.6-11.529,23.219-5.456-8.985-28.616-44.365-35.057-52.85a.25.25,0,0,0-.427.25c4.823,9.485,34.749,56.174,35.175,56.041.279.235,10.779-21.617,12.029-25.734,2.529,3.073,17.573,18.97,17.646,17.926A219.154,219.154,0,0,0,549.272,198.736Z" transform="translate(40.536 49.337)" fill="#263238"/>
            <path id="Path_35211" data-name="Path 35211" d="M486.7,174.009c-.456,12.543-1.206,26.307-1.956,38.88l-.559-1.029,11.088,6.014,11.044,6.058.882.485c-1.676,8.5-3.323,17.014-5.1,25.5l-.485-1.4c14.455,12.1,28.749,24.425,42.645,37.219-15.367-11.426-30.322-23.381-45.1-35.542,1.647-8.455,3.412-16.882,5.147-25.322l.691,1.471c-5.456-3.117-16.4-9.455-21.822-12.617l-.618-.368.074-.662c1.22-12.558,2.6-26.249,4.117-38.719Z" transform="translate(39.394 49.668)" fill="#37474f"/>
            <path id="Path_35212" data-name="Path 35212" d="M528.734,176c5.25,12.382,10.161,24.9,14.984,37.454l.191.529-.294.529L537.5,225.453V224.13l3.5,7.25c1.279,2.6,2.47,5.235,3.72,7.853l-.25.588c-6.309,15.146-12.867,30.19-20.028,44.954,5.294-15.529,11.22-30.881,17.381-46.042v1.162c-2.191-4.412-5.1-10.676-7.235-15.235l.382-.618,6.4-10.779-.1,1.044c-4.411-12.705-8.676-25.455-12.617-38.307Z" transform="translate(59.104 50.618)" fill="#37474f"/>
          </g>
        </g>
      </g>
    </g>
  </g>
</svg>
