<svg xmlns="http://www.w3.org/2000/svg" width="245" height="203" viewBox="0 0 245 203">
  <g id="Group_18985" data-name="Group 18985" transform="translate(-4629 23880)">
    <g id="Rectangle_9708" data-name="Rectangle 9708" transform="translate(4629 -23880)" fill="#fff" stroke="#707070" stroke-width="1" opacity="0">
      <rect width="245" height="203" stroke="none"/>
      <rect x="0.5" y="0.5" width="244" height="202" fill="none"/>
    </g>
    <g id="Sign_up-cuate" data-name="Sign up-cuate" transform="translate(4599.55 -23950.6)">
      <g id="freepik--Floor--inject-13" transform="translate(41.45 272.59)">
        <path id="Path_38887" data-name="Path 38887" d="M41.45,453.214l27.545-.132,27.545-.042,55.084-.09,55.084.09,27.545.042,27.545.132-27.545.127-27.545.048-55.084.09-55.084-.09-27.545-.048Z" transform="translate(-41.45 -452.95)" fill="#263238"/>
      </g>
      <g id="freepik--Device--inject-13" transform="translate(97.929 70.6)">
        <path id="Path_38888" data-name="Path 38888" d="M246.7,70.6H157.42a9.118,9.118,0,0,0-9.06,9.192V263.636a9.124,9.124,0,0,0,9.039,9.2h89.28a9.134,9.134,0,0,0,9.071-9.2V79.792A9.129,9.129,0,0,0,246.7,70.6Zm3.4,187.368c0,4.839-3.624,8.754-8.088,8.754h-79.9c-4.485,0-8.1-3.915-8.1-8.754V86.771c0-9.858,3.619-10.339,8.1-10.339h16c.93,0,1.691,1.057,1.691,2.367v.565c0,3.069,1.68,3.069,3.761,3.069h36.98c2.113,0,3.746,0,3.746-3.08V78.8c0-1.31.75-2.367,1.7-2.367H242c4.464,0,8.088,1.31,8.088,10.339Z" transform="translate(-148.359 -70.6)" fill="#263238"/>
        <path id="Path_38889" data-name="Path 38889" d="M249.979,84.647h-10.1a.623.623,0,0,1-.623-.623h0a.623.623,0,0,1,.623-.623h10.1a.623.623,0,0,1,.623.623h0A.623.623,0,0,1,249.979,84.647Z" transform="translate(-191.238 -76.638)" fill="#fff"/>
        <path id="Path_38890" data-name="Path 38890" d="M255.172,91.979v171.2c0,4.839-3.624,8.754-8.093,8.754H167.154c-4.48,0-8.1-3.915-8.1-8.754V91.979c0-9.858,3.624-10.339,8.1-10.339h16c.93,0,1.691,1.057,1.691,2.367v.565c0,3.069,1.68,3.069,3.761,3.069h36.98c2.081,0,3.746,0,3.746-3.08v-.555c0-1.31.75-2.367,1.7-2.367h16.007C251.521,81.64,255.172,82.95,255.172,91.979Z" transform="translate(-153.402 -75.808)" fill="#fff"/>
        <path id="Path_38891" data-name="Path 38891" d="M174.922,118.09l-2.842-2.657,2.842-2.663.438.47-2.335,2.192,2.335,2.187Z" transform="translate(-159.549 -90.492)" fill="#c7c7c7"/>
        <path id="Path_38892" data-name="Path 38892" d="M325.86,114.17a.555.555,0,1,1-.162-.4A.56.56,0,0,1,325.86,114.17Z" transform="translate(-231.56 -90.888)" fill="#c7c7c7"/>
        <path id="Path_38893" data-name="Path 38893" d="M325.86,117.93a.555.555,0,1,1-.162-.4A.56.56,0,0,1,325.86,117.93Z" transform="translate(-231.56 -92.662)" fill="#c7c7c7"/>
        <path id="Path_38894" data-name="Path 38894" d="M325.86,121.69a.555.555,0,1,1-.162-.4A.56.56,0,0,1,325.86,121.69Z" transform="translate(-231.56 -94.436)" fill="#c7c7c7"/>
        <path id="Path_38895" data-name="Path 38895" d="M235.635,119.231a.2.2,0,0,1,.269,0,1.162,1.162,0,0,0,.708.285.777.777,0,0,0,.46-.137.328.328,0,0,0,.158-.264A.212.212,0,0,0,237.2,119a.365.365,0,0,0-.111-.111,1.342,1.342,0,0,0-.528-.174h0a2.177,2.177,0,0,1-.475-.148.761.761,0,0,1-.343-.285.56.56,0,0,1-.085-.306.687.687,0,0,1,.3-.528,1.093,1.093,0,0,1,.639-.2,1.469,1.469,0,0,1,.808.3.19.19,0,0,1-.211.317,1.057,1.057,0,0,0-.6-.238.708.708,0,0,0-.412.127.3.3,0,0,0-.143.232.164.164,0,0,0,.026.106.348.348,0,0,0,.1.1,1.241,1.241,0,0,0,.46.164h0a2.2,2.2,0,0,1,.528.153.882.882,0,0,1,.37.306.586.586,0,0,1,.09.317.724.724,0,0,1-.317.576,1.157,1.157,0,0,1-.681.206,1.585,1.585,0,0,1-.951-.37.2.2,0,0,1-.026-.306Z" transform="translate(-189.499 -92.605)" fill="#c7c7c7"/>
        <path id="Path_38896" data-name="Path 38896" d="M240.56,117.491a.2.2,0,0,1,.2-.2.211.211,0,0,1,.211.2v2.187a.211.211,0,0,1-.211.2.2.2,0,0,1-.2-.2Z" transform="translate(-191.852 -92.624)" fill="#c7c7c7"/>
        <path id="Path_38897" data-name="Path 38897" d="M242.43,118.486a1.347,1.347,0,0,1,1.363-1.337,1.384,1.384,0,0,1,.845.285.213.213,0,0,1-.259.338.956.956,0,0,0-1.252.069.872.872,0,0,0,0,1.278.93.93,0,0,0,.666.269,1.025,1.025,0,0,0,.528-.137v-.528h-.528a.211.211,0,0,1-.211-.211.206.206,0,0,1,.211-.206h.734a.206.206,0,0,1,.217.206v.882h0a.18.18,0,0,1-.069.09,1.368,1.368,0,0,1-.84.285,1.342,1.342,0,0,1-1.405-1.284Z" transform="translate(-192.734 -92.558)" fill="#c7c7c7"/>
        <path id="Path_38898" data-name="Path 38898" d="M248.751,119.7a.2.2,0,1,1-.4,0v-2.15h0a.2.2,0,0,1,.079-.169.206.206,0,0,1,.285.042l1.194,1.654v-1.521a.2.2,0,1,1,.4,0v2.15a.2.2,0,0,1-.2.2.19.19,0,0,1-.153-.074h0l-1.183-1.643Z" transform="translate(-195.526 -92.65)" fill="#c7c7c7"/>
        <path id="Path_38899" data-name="Path 38899" d="M256.927,119.888a1.057,1.057,0,0,1-1.057-1.057v-1.321a.2.2,0,0,1,.2-.2.206.206,0,0,1,.206.2v1.321a.66.66,0,0,0,1.321,0v-1.321a.2.2,0,0,1,.206-.2.2.2,0,0,1,.2.2v1.321a1.057,1.057,0,0,1-1.078,1.057Z" transform="translate(-199.073 -92.634)" fill="#c7c7c7"/>
        <path id="Path_38900" data-name="Path 38900" d="M262.4,118.875h-.454v.8a.206.206,0,0,1-.407,0v-2.187a.2.2,0,0,1,.2-.2h.66a.792.792,0,0,1,0,1.585Zm-.454-.412h.454a.38.38,0,1,0,0-.761h-.454Z" transform="translate(-201.748 -92.624)" fill="#c7c7c7"/>
        <g id="freepik--u5Zjqx--inject-13" transform="translate(23.53 8.97)">
          <path id="Path_38901" data-name="Path 38901" d="M196.36,88.288l-.153.153-.09.085a2.113,2.113,0,0,0-2.98,0l-.085-.09-.153-.153h0l.2-.174a2.726,2.726,0,0,1,.454-.285,2.186,2.186,0,0,1,.6-.2.732.732,0,0,0,.3-.042h.47a2.52,2.52,0,0,1,.528.132,2.609,2.609,0,0,1,.37.174,2.368,2.368,0,0,1,.354.248l.164.148Z" transform="translate(-192.9 -87.58)" fill="#c7c7c7"/>
          <path id="Path_38902" data-name="Path 38902" d="M194.058,89.614l-.248-.243a1.77,1.77,0,0,1,2.494,0l-.248.243a1.416,1.416,0,0,0-2,0Z" transform="translate(-193.329 -88.183)" fill="#c7c7c7"/>
          <path id="Path_38903" data-name="Path 38903" d="M196.251,90.476l-.243.243a.713.713,0,0,0-1.025,0c-.079-.085-.164-.164-.243-.243a1.057,1.057,0,0,1,1.511,0Z" transform="translate(-193.768 -88.796)" fill="#c7c7c7"/>
          <path id="Path_38904" data-name="Path 38904" d="M196.2,91.437a.222.222,0,0,1-.222.222.22.22,0,1,1,.222-.222Z" transform="translate(-194.249 -89.297)" fill="#c7c7c7"/>
        </g>
        <path id="Path_38905" data-name="Path 38905" d="M170.91,89.229a.634.634,0,1,1,.184.452A.639.639,0,0,1,170.91,89.229Z" transform="translate(-158.997 -79.086)" fill="#c7c7c7"/>
        <path id="Path_38906" data-name="Path 38906" d="M174.7,89.224a.639.639,0,1,1,.639.634.639.639,0,0,1-.639-.634Z" transform="translate(-160.785 -79.081)" fill="#c7c7c7"/>
        <path id="Path_38907" data-name="Path 38907" d="M178.5,89.224a.639.639,0,1,1,.639.634.639.639,0,0,1-.639-.634Z" transform="translate(-162.577 -79.081)" fill="#c7c7c7"/>
        <path id="Path_38908" data-name="Path 38908" d="M182.3,89.225a.639.639,0,1,1,.634.634A.639.639,0,0,1,182.3,89.225Z" transform="translate(-164.37 -79.081)" fill="#c7c7c7"/>
        <path id="Path_38909" data-name="Path 38909" d="M186.1,89.225a.639.639,0,1,1,.634.634A.639.639,0,0,1,186.1,89.225Z" transform="translate(-166.162 -79.081)" fill="#c7c7c7"/>
        <path id="Path_38910" data-name="Path 38910" d="M322.673,90.289H317.48V87.88h5.193Zm-4.918-.269H322.4v-1.87h-4.649Z" transform="translate(-228.136 -78.751)" fill="#c7c7c7"/>
        <rect id="Rectangle_9699" data-name="Rectangle 9699" width="3.344" height="1.585" transform="translate(89.777 9.541)" fill="#c7c7c7"/>
        <rect id="Rectangle_9700" data-name="Rectangle 9700" width="0.46" height="1.284" transform="translate(94.537 9.689)" fill="#c7c7c7"/>
        <path id="Path_38911" data-name="Path 38911" d="M178.427,422.372h-.47v2.155h-.877v-1.1h-1.553v1.1h-.882v-2.155h-.465l2.124-2.192Z" transform="translate(-160.539 -235.502)" fill="#ebebeb"/>
        <rect id="Rectangle_9701" data-name="Rectangle 9701" width="5.119" height="0.729" transform="translate(88.832 184.678)" fill="#ebebeb"/>
        <rect id="Rectangle_9702" data-name="Rectangle 9702" width="5.119" height="0.734" transform="translate(88.832 186.485)" fill="#ebebeb"/>
        <rect id="Rectangle_9703" data-name="Rectangle 9703" width="5.119" height="0.734" transform="translate(88.832 188.297)" fill="#ebebeb"/>
        <path id="Path_38912" data-name="Path 38912" d="M250.441,424.223l-1.458,1.553-1.453-1.553.254-.243,1.2,1.278,1.2-1.278Z" transform="translate(-195.139 -237.294)" fill="#ebebeb"/>
        <path id="Path_38913" data-name="Path 38913" d="M247.921,425.7a2.641,2.641,0,1,1,2.641-2.641A2.641,2.641,0,0,1,247.921,425.7Zm0-4.939a2.293,2.293,0,1,0,1.625.67A2.3,2.3,0,0,0,247.921,420.763Z" transform="translate(-194.078 -235.615)" fill="#ebebeb"/>
        <path id="Path_38914" data-name="Path 38914" d="M191.575,211.092a1.025,1.025,0,0,1-1.025-1.025v-1.241a.2.2,0,0,1,.4,0v1.263a.634.634,0,0,0,1.263,0v-1.263a.2.2,0,0,1,.2-.2.19.19,0,0,1,.19.2v1.263A1.025,1.025,0,0,1,191.575,211.092Z" transform="translate(-168.261 -135.71)" fill="#263238"/>
        <path id="Path_38915" data-name="Path 38915" d="M195.745,211.2a.18.18,0,0,1,.264-.026.676.676,0,0,0,.391.153.47.47,0,0,0,.243-.069c.048-.042.063-.074.063-.106a.058.058,0,0,0,0-.032s0-.026-.048-.048a.882.882,0,0,0-.285-.1h0a1.473,1.473,0,0,1-.306-.1.608.608,0,0,1-.243-.206.4.4,0,0,1-.063-.222.528.528,0,0,1,.211-.391.766.766,0,0,1,.438-.132.887.887,0,0,1,.528.2.2.2,0,0,1,.058.264.185.185,0,0,1-.264.048.6.6,0,0,0-.322-.132.365.365,0,0,0-.217.069.111.111,0,0,0-.053.079.037.037,0,0,0,0,.026l.037.037a.729.729,0,0,0,.259.085h0a1.315,1.315,0,0,1,.328.1.571.571,0,0,1,.254.211.455.455,0,0,1,.063.232.528.528,0,0,1-.222.412.792.792,0,0,1-.46.143,1.057,1.057,0,0,1-.634-.243A.2.2,0,0,1,195.745,211.2Z" transform="translate(-170.693 -136.324)" fill="#263238"/>
        <path id="Path_38916" data-name="Path 38916" d="M199,210.817a.872.872,0,0,1,.861-.888.845.845,0,0,1,.856.824h0v.032a.164.164,0,0,1-.18.143h-1.131a.465.465,0,0,0,.122.238.528.528,0,0,0,.338.158.57.57,0,0,0,.37-.09.2.2,0,0,1,.269,0,.169.169,0,0,1,0,.232.909.909,0,0,1-.639.232A.877.877,0,0,1,199,210.817Zm.386-.174h1a.581.581,0,0,0-.528-.375.491.491,0,0,0-.47.375Z" transform="translate(-172.247 -136.324)" fill="#263238"/>
        <path id="Path_38917" data-name="Path 38917" d="M204.284,210.125a.19.19,0,0,1-.19.185.328.328,0,0,0-.211.069.528.528,0,0,0-.164.169,1.258,1.258,0,0,0-.148.3v.671a.19.19,0,1,1-.38,0v-1.395a.19.19,0,0,1,.38,0v.026a.488.488,0,0,1,.074-.074.766.766,0,0,1,.449-.137.185.185,0,0,1,.19.185Z" transform="translate(-174.224 -136.328)" fill="#263238"/>
        <path id="Path_38918" data-name="Path 38918" d="M207.619,210.67v.845a.185.185,0,0,1-.18.19.19.19,0,0,1-.19-.19v-.845a.364.364,0,0,0-.37-.359.354.354,0,0,0-.354.359v.845a.106.106,0,0,1,0,.037.2.2,0,0,1-.19.153.185.185,0,0,1-.185-.19V210.12a.185.185,0,0,1,.185-.19.19.19,0,0,1,.174.111.7.7,0,0,1,.375-.111A.74.74,0,0,1,207.619,210.67Z" transform="translate(-175.62 -136.324)" fill="#263238"/>
        <path id="Path_38919" data-name="Path 38919" d="M211.58,210.815v.692a.186.186,0,1,1-.37.037.824.824,0,0,1-.475.153.835.835,0,0,1-.6-.259.914.914,0,0,1-.243-.623.882.882,0,0,1,.243-.623.8.8,0,0,1,1.057-.111.186.186,0,0,1,.37.037Zm-.375,0a.528.528,0,0,0-.137-.365.444.444,0,0,0-.333-.148.423.423,0,0,0-.328.148.552.552,0,0,0,0,.729.433.433,0,0,0,.328.137.454.454,0,0,0,.333-.137.528.528,0,0,0,.137-.365Z" transform="translate(-177.384 -136.316)" fill="#263238"/>
        <path id="Path_38920" data-name="Path 38920" d="M215.9,210.655v.851a.19.19,0,0,1-.185.19.2.2,0,0,1-.2-.19v-.851a.359.359,0,0,0-.365-.354.365.365,0,0,0-.359.365v.877h0a.206.206,0,0,1-.18.116h-.037a.19.19,0,0,1-.148-.185v-.84h0v-.528a.19.19,0,0,1,.185-.2.185.185,0,0,1,.169.106.808.808,0,0,1,.38-.106.74.74,0,0,1,.56.248.724.724,0,0,1,.528-.248.745.745,0,0,1,.74.745v.84a.19.19,0,0,1-.38,0v-.84a.365.365,0,0,0-.359-.365A.37.37,0,0,0,215.9,210.655Z" transform="translate(-179.526 -136.314)" fill="#263238"/>
        <path id="Path_38921" data-name="Path 38921" d="M220.55,210.817a.882.882,0,0,1,.866-.888.845.845,0,0,1,.856.824h0v.032a.164.164,0,0,1-.18.143h-1.131a.465.465,0,0,0,.121.238.528.528,0,0,0,.338.158.581.581,0,0,0,.37-.09.2.2,0,0,1,.269,0,.169.169,0,0,1,0,.232.909.909,0,0,1-.639.232A.888.888,0,0,1,220.55,210.817Zm.391-.174h1a.581.581,0,0,0-.528-.375A.491.491,0,0,0,220.941,210.643Z" transform="translate(-182.413 -136.324)" fill="#263238"/>
        <rect id="Rectangle_9704" data-name="Rectangle 9704" width="64.007" height="7.602" transform="translate(21.692 78.086)" fill="#ebebeb"/>
        <path id="Path_38922" data-name="Path 38922" d="M190.55,245.349v-2.113a.19.19,0,0,1,.2-.2H191.9a.2.2,0,0,1,.2.2.2.2,0,0,1-.2.2h-.961v.645h.829a.2.2,0,0,1,0,.4h-.829v.655h.961a.2.2,0,0,1,0,.4h-1.157a.2.2,0,0,1-.2-.18Z" transform="translate(-168.261 -151.942)" fill="#263238"/>
        <path id="Path_38923" data-name="Path 38923" d="M195.944,245.145V246a.19.19,0,0,1-.185.19.2.2,0,0,1-.2-.19v-.851a.359.359,0,0,0-.365-.354.365.365,0,0,0-.359.365v.877h0a.206.206,0,0,1-.18.116h-.037a.19.19,0,0,1-.153-.185v-.84h0V244.6a.2.2,0,0,1,.19-.2.185.185,0,0,1,.169.106.808.808,0,0,1,.38-.106.75.75,0,0,1,.56.248.724.724,0,0,1,.555-.248.745.745,0,0,1,.74.745v.84a.19.19,0,1,1-.38,0v-.84a.365.365,0,0,0-.359-.365.37.37,0,0,0-.38.365Z" transform="translate(-170.11 -152.584)" fill="#263238"/>
        <path id="Path_38924" data-name="Path 38924" d="M202.17,245.313V246a.19.19,0,0,1-.19.19.2.2,0,0,1-.185-.153.792.792,0,0,1-.47.153.824.824,0,0,1-.6-.259.914.914,0,0,1-.243-.623.893.893,0,0,1,.243-.623.814.814,0,0,1,.6-.269.8.8,0,0,1,.47.158.2.2,0,0,1,.185-.158.19.19,0,0,1,.19.2Zm-.375,0a.5.5,0,0,0-.143-.364.433.433,0,0,0-.328-.148.423.423,0,0,0-.328.148.5.5,0,0,0-.137.365.528.528,0,0,0,.137.365.433.433,0,0,0,.328.137.444.444,0,0,0,.328-.137.528.528,0,0,0,.159-.365Z" transform="translate(-172.945 -152.593)" fill="#263238"/>
        <path id="Path_38925" data-name="Path 38925" d="M205.383,243.368a.2.2,0,1,1-.386,0v-.074a.2.2,0,0,1,.386,0Zm0,.645V245.4a.2.2,0,0,1-.386,0v-1.384a.2.2,0,1,1,.386,0Z" transform="translate(-175.075 -151.985)" fill="#263238"/>
        <path id="Path_38926" data-name="Path 38926" d="M206.985,243.08a.2.2,0,0,1,.2.2v2.113a.2.2,0,0,1-.2.2.2.2,0,0,1-.2-.2v-2.113a.2.2,0,0,1,.2-.2Z" transform="translate(-175.922 -151.961)" fill="#263238"/>
        <rect id="Rectangle_9705" data-name="Rectangle 9705" width="64.007" height="7.602" transform="translate(21.692 96.307)" fill="#ebebeb"/>
        <path id="Path_38927" data-name="Path 38927" d="M191.379,279.065h-.438v.771a.2.2,0,0,1-.2.2.2.2,0,0,1-.2-.2v-2.113a.2.2,0,0,1,.2-.2h.634a.761.761,0,1,1,0,1.516Zm-.438-.391h.438a.365.365,0,1,0,0-.729h-.438Z" transform="translate(-168.261 -168.209)" fill="#263238"/>
        <path id="Path_38928" data-name="Path 38928" d="M195.72,279.8v.7a.19.19,0,0,1-.19.185.2.2,0,0,1-.185-.153.809.809,0,0,1-.47.153.824.824,0,0,1-.6-.259.9.9,0,0,1-.243-.623.893.893,0,0,1,.243-.623.792.792,0,0,1,1.057-.111.189.189,0,0,1,.375.037Zm-.375,0a.528.528,0,0,0-.143-.365.444.444,0,0,0-.66,0,.569.569,0,0,0,0,.729.465.465,0,0,0,.66,0A.528.528,0,0,0,195.345,279.8Z" transform="translate(-169.903 -168.863)" fill="#263238"/>
        <path id="Path_38929" data-name="Path 38929" d="M198.345,280.178a.18.18,0,0,1,.264-.026.676.676,0,0,0,.391.153.47.47,0,0,0,.243-.069c.048-.042.063-.074.063-.106a.058.058,0,0,0,0-.032.1.1,0,0,0-.048-.042.691.691,0,0,0-.28-.1h0a1.3,1.3,0,0,1-.306-.1.528.528,0,0,1-.248-.206.449.449,0,0,1-.058-.222.528.528,0,0,1,.206-.391.781.781,0,0,1,.438-.132.919.919,0,0,1,.528.2.2.2,0,0,1,.053.264.18.18,0,0,1-.259.048.623.623,0,0,0-.328-.127.333.333,0,0,0-.211.063c-.048.032-.058.063-.058.079a.037.037,0,0,0,0,.026.1.1,0,0,0,.042.037.692.692,0,0,0,.259.085h0a1.316,1.316,0,0,1,.328.1.528.528,0,0,1,.254.211.46.46,0,0,1,.069.232.528.528,0,0,1-.222.412.819.819,0,0,1-.465.143,1.056,1.056,0,0,1-.629-.243.19.19,0,0,1-.026-.259Z" transform="translate(-171.92 -168.863)" fill="#263238"/>
        <path id="Path_38930" data-name="Path 38930" d="M201.583,280.178a.18.18,0,0,1,.264-.026.661.661,0,0,0,.391.153.471.471,0,0,0,.243-.069c.048-.042.063-.074.063-.106a.058.058,0,0,0,0-.032.127.127,0,0,0-.048-.042.724.724,0,0,0-.285-.1h0a1.43,1.43,0,0,1-.312-.1.565.565,0,0,1-.243-.206.4.4,0,0,1-.063-.222.528.528,0,0,1,.211-.391.766.766,0,0,1,.438-.132.887.887,0,0,1,.528.2.2.2,0,0,1,.058.264.185.185,0,0,1-.264.048.592.592,0,0,0-.322-.127.365.365,0,0,0-.217.063.111.111,0,0,0-.053.079.037.037,0,0,0,0,.026l.037.037a.729.729,0,0,0,.259.085h0a1.316,1.316,0,0,1,.328.1.57.57,0,0,1,.254.211.454.454,0,0,1,.063.232.528.528,0,0,1-.222.412.793.793,0,0,1-.46.143,1.057,1.057,0,0,1-.634-.243A.2.2,0,0,1,201.583,280.178Z" transform="translate(-173.446 -168.863)" fill="#263238"/>
        <path id="Path_38931" data-name="Path 38931" d="M207.263,279.224l-.586,1.379v.026h-.206V280.6l-.259-.618-.248.618v.026h-.18a.053.053,0,0,1-.037,0h0V280.6l-.581-1.379a.18.18,0,0,1-.174-.238.169.169,0,0,1,.232.106l.423.956.248-.6a.185.185,0,0,1,.169-.111.18.18,0,0,1,.174.111l.254.6.417-.956a.174.174,0,0,1,.238-.106.185.185,0,0,1,.116.238Z" transform="translate(-175.069 -168.891)" fill="#263238"/>
        <path id="Path_38932" data-name="Path 38932" d="M210.683,280.426a.872.872,0,0,1-.243-.623.919.919,0,0,1,.243-.623.84.84,0,0,1,.613-.269.8.8,0,0,1,.592.269.9.9,0,0,1,.248.623.856.856,0,0,1-.248.623.782.782,0,0,1-.592.269A.819.819,0,0,1,210.683,280.426Zm.143-.623a.586.586,0,0,0,.127.375.486.486,0,0,0,.343.132.454.454,0,0,0,.322-.132.558.558,0,0,0,0-.745.481.481,0,0,0-.322-.132.528.528,0,0,0-.343.132A.571.571,0,0,0,210.825,279.8Z" transform="translate(-177.643 -168.863)" fill="#263238"/>
        <path id="Path_38933" data-name="Path 38933" d="M215.744,279.1a.19.19,0,0,1-.185.19.375.375,0,0,0-.217.063.649.649,0,0,0-.164.174.956.956,0,0,0-.143.3v.676a.2.2,0,0,1-.386,0v-1.4a.2.2,0,0,1,.386,0v.026a.49.49,0,0,1,.074-.074.756.756,0,0,1,.449-.137A.185.185,0,0,1,215.744,279.1Z" transform="translate(-179.63 -168.867)" fill="#263238"/>
        <path id="Path_38934" data-name="Path 38934" d="M218.909,279.887a.189.189,0,0,1-.375.037.855.855,0,0,1-.486.153.887.887,0,1,1,0-1.775.824.824,0,0,1,.475.153v-.671a.2.2,0,0,1,.386,0v1.405h0Zm-.861-1.194a.47.47,0,0,0-.333.143.528.528,0,0,0-.143.359.486.486,0,0,0,.143.349.454.454,0,0,0,.333.148.439.439,0,0,0,.333-.148.486.486,0,0,0,.143-.349.528.528,0,0,0-.143-.359A.449.449,0,0,0,218.048,278.693Z" transform="translate(-180.814 -168.254)" fill="#263238"/>
        <rect id="Rectangle_9706" data-name="Rectangle 9706" width="64.007" height="7.602" transform="translate(21.692 114.527)" fill="#ebebeb"/>
        <path id="Path_38935" data-name="Path 38935" d="M196.74,317.839a.071.071,0,0,1,.143,0v1.928a.074.074,0,0,1-.074.074.069.069,0,0,1-.069-.074Z" transform="translate(-171.181 -187.193)" fill="#263238"/>
        <path id="Path_38936" data-name="Path 38936" d="M201.079,319.019v1.3a.069.069,0,0,1-.137,0v-.211a.687.687,0,0,1-.528.285.724.724,0,0,1,0-1.448.682.682,0,0,1,.528.28v-.211a.069.069,0,0,1,.137,0Zm-.137.655a.528.528,0,1,0-.528.581.565.565,0,0,0,.528-.581Z" transform="translate(-172.573 -187.75)" fill="#263238"/>
        <path id="Path_38937" data-name="Path 38937" d="M204.825,320.288a.687.687,0,0,1-.687.681.739.739,0,0,1-.3-.069.074.074,0,0,1-.026-.1.063.063,0,0,1,.1-.032.53.53,0,0,0,.761-.475v-.18a.65.65,0,0,1-.528.285.718.718,0,0,1,0-1.437.671.671,0,0,1,.528.28v-.211a.1.1,0,0,1,.185.016Zm-.143-.613a.528.528,0,1,0-.528.581A.56.56,0,0,0,204.683,319.675Z" transform="translate(-174.332 -187.756)" fill="#263238"/>
        <path id="Path_38938" data-name="Path 38938" d="M207.356,319.024a.074.074,0,0,1,.074-.074.069.069,0,0,1,.069.074v.28a.708.708,0,0,1,.581-.354.071.071,0,0,1,0,.143.528.528,0,0,0-.423.238,1.277,1.277,0,0,0-.174.338h0v.634a.069.069,0,0,1-.069.074.074.074,0,0,1-.074-.074Z" transform="translate(-176.181 -187.75)" fill="#263238"/>
        <path id="Path_38939" data-name="Path 38939" d="M209.35,319.669a.7.7,0,1,1,1.405-.053h0a.069.069,0,0,1-.074.063h-1.189a.571.571,0,0,0,.565.555.528.528,0,0,0,.465-.264.069.069,0,0,1,.1,0,.079.079,0,0,1,.026.1.7.7,0,0,1-.586.328A.718.718,0,0,1,209.35,319.669Zm.153-.116h1.1a.555.555,0,0,0-1.1,0Z" transform="translate(-177.129 -187.745)" fill="#263238"/>
        <path id="Path_38940" data-name="Path 38940" d="M212.76,319.718a.7.7,0,0,1,1.4-.053h0a.063.063,0,0,1-.069.063h-1.2a.571.571,0,0,0,.56.555.528.528,0,0,0,.47-.264.069.069,0,0,1,.1,0,.074.074,0,0,1,0,.1.692.692,0,0,1-.586.328.713.713,0,0,1-.666-.729Zm.153-.116h1.094a.547.547,0,0,0-1.094,0Z" transform="translate(-178.738 -187.794)" fill="#263238"/>
        <path id="Path_38941" data-name="Path 38941" d="M218.415,318.481a.074.074,0,0,1-.069.069h-.19v1.057a.116.116,0,0,0,.106.111.074.074,0,1,1,0,.143.248.248,0,0,1-.254-.254V318.55h-.18c-.069,0-.069-.032-.069-.069s0-.069.069-.069h.18v-.528a.074.074,0,1,1,.148,0v.528h.19a.074.074,0,0,1,.069.069Z" transform="translate(-181.097 -187.212)" fill="#263238"/>
        <path id="Path_38942" data-name="Path 38942" d="M220.724,319a.724.724,0,1,1-.724.724A.724.724,0,0,1,220.724,319Zm0,1.3a.586.586,0,1,0-.528-.581.565.565,0,0,0,.528.555Z" transform="translate(-182.153 -187.774)" fill="#263238"/>
        <path id="Path_38943" data-name="Path 38943" d="M226.425,319.018v1.3a.069.069,0,0,1-.069.074.074.074,0,0,1-.074-.074v-.211a.676.676,0,0,1-.528.285.724.724,0,0,1,0-1.448.671.671,0,0,1,.528.28v-.211a.071.071,0,0,1,.143,0Zm-.143.655a.528.528,0,1,0-.528.581.565.565,0,0,0,.528-.581Z" transform="translate(-184.526 -187.75)" fill="#263238"/>
        <path id="Path_38944" data-name="Path 38944" d="M229,317.839a.069.069,0,0,1,.074-.069.074.074,0,0,1,.074.069v1.928a.074.074,0,1,1-.148,0Z" transform="translate(-186.399 -187.193)" fill="#263238"/>
        <path id="Path_38945" data-name="Path 38945" d="M230.34,317.834a.074.074,0,1,1,.148,0v1.928a.074.074,0,0,1-.148,0Z" transform="translate(-187.031 -187.189)" fill="#263238"/>
        <path id="Path_38946" data-name="Path 38946" d="M233.17,320.11a.069.069,0,0,1,.1,0,.771.771,0,0,0,.444.169.449.449,0,0,0,.275-.09.206.206,0,0,0,0-.354.707.707,0,0,0-.312-.106h0a.825.825,0,0,1-.328-.111.3.3,0,0,1-.153-.259.365.365,0,0,1,.153-.285.623.623,0,0,1,.354-.1.782.782,0,0,1,.433.153.074.074,0,0,1,0,.1.069.069,0,0,1-.1,0,.671.671,0,0,0-.359-.143.46.46,0,0,0-.275.079.227.227,0,0,0-.09.169.169.169,0,0,0,.085.143.661.661,0,0,0,.3.1h0a.972.972,0,0,1,.349.122.354.354,0,0,1,.164.3.37.37,0,0,1-.164.291.6.6,0,0,1-.359.116.9.9,0,0,1-.528-.206A.069.069,0,0,1,233.17,320.11Z" transform="translate(-188.355 -187.764)" fill="#263238"/>
        <path id="Path_38947" data-name="Path 38947" d="M236.585,318.481a.074.074,0,0,1-.069.069h-.19v1.057a.116.116,0,0,0,.106.111.074.074,0,1,1,0,.143.248.248,0,0,1-.254-.254V318.55H236c-.069,0-.069-.032-.069-.069s0-.069.069-.069h.18v-.528a.074.074,0,1,1,.148,0v.528h.169a.074.074,0,0,1,.09.069Z" transform="translate(-189.668 -187.212)" fill="#263238"/>
        <path id="Path_38948" data-name="Path 38948" d="M239.335,319.018v1.3a.069.069,0,0,1-.069.074.074.074,0,0,1-.074-.074v-.211a.676.676,0,0,1-.528.285.724.724,0,0,1,0-1.448.671.671,0,0,1,.528.28v-.211a.071.071,0,0,1,.143,0Zm-.143.655a.528.528,0,1,0-.528.581.565.565,0,0,0,.528-.581Z" transform="translate(-190.616 -187.75)" fill="#263238"/>
        <path id="Path_38949" data-name="Path 38949" d="M242.115,318.481a.074.074,0,0,1-.069.069h-.19v1.057a.116.116,0,0,0,.111.111.074.074,0,1,1,0,.143.243.243,0,0,1-.254-.254V318.55h-.185c-.069,0-.069-.032-.069-.069s0-.069.069-.069h.185v-.528a.074.074,0,0,1,.069-.074.079.079,0,0,1,.074.074v.528h.19a.074.074,0,0,1,.069.069Z" transform="translate(-192.276 -187.212)" fill="#263238"/>
        <path id="Path_38950" data-name="Path 38950" d="M243.56,319.669a.7.7,0,1,1,1.405-.053h0a.069.069,0,0,1-.074.063H243.7a.571.571,0,0,0,.565.555.528.528,0,0,0,.465-.264.069.069,0,0,1,.1,0,.074.074,0,0,1,0,.1.687.687,0,0,1-.581.328.719.719,0,0,1-.687-.729Zm.153-.116h1.1a.555.555,0,0,0-1.1,0Z" transform="translate(-193.266 -187.745)" fill="#263238"/>
        <path id="Path_38951" data-name="Path 38951" d="M249.255,319.575a.449.449,0,1,0-.9,0v.8h0a.063.063,0,0,1-.037.037h-.085v-.787a.449.449,0,1,0-.893,0v.787a.069.069,0,0,1-.032.058h-.048a.09.09,0,0,1-.063-.053v-1.326a.074.074,0,0,1,.069-.069.069.069,0,0,1,.074.069v.137a.571.571,0,0,1,.444-.206.592.592,0,0,1,.528.306.613.613,0,0,1,.528-.306.586.586,0,0,1,.586.592v.787a.069.069,0,0,1-.137,0Z" transform="translate(-194.984 -187.783)" fill="#263238"/>
        <path id="Path_38952" data-name="Path 38952" d="M252.29,319.718a.7.7,0,0,1,1.4-.053h0a.063.063,0,0,1-.069.063h-1.189a.571.571,0,0,0,.56.555.528.528,0,0,0,.47-.264.069.069,0,0,1,.1,0,.074.074,0,0,1,0,.1.692.692,0,0,1-.586.328A.713.713,0,0,1,252.29,319.718Zm.153-.116h1.094a.547.547,0,0,0-1.094,0Z" transform="translate(-197.385 -187.794)" fill="#263238"/>
        <path id="Path_38953" data-name="Path 38953" d="M256.962,319.542a.444.444,0,0,0-.444-.449.454.454,0,0,0-.449.449v.829a.074.074,0,0,1-.053.026h0a.085.085,0,0,1-.048-.037h0V319.04a.074.074,0,0,1,.016-.063.069.069,0,0,1,.069.074v.137a.586.586,0,0,1,1.057.38v.782a.069.069,0,0,1-.069.074.074.074,0,0,1-.074-.074Z" transform="translate(-199.119 -187.751)" fill="#263238"/>
        <path id="Path_38954" data-name="Path 38954" d="M259.7,318.481a.074.074,0,0,1-.074.069h-.185v1.057a.116.116,0,0,0,.106.111.074.074,0,1,1,0,.143.248.248,0,0,1-.254-.254V318.55h-.18c-.069,0-.069-.032-.069-.069s0-.069.069-.069h.18v-.528a.074.074,0,1,1,.148,0v.528h.185A.074.074,0,0,1,259.7,318.481Z" transform="translate(-200.569 -187.212)" fill="#263238"/>
        <path id="Path_38955" data-name="Path 38955" d="M261.353,320.11a.069.069,0,0,1,.1,0,.771.771,0,0,0,.444.169.439.439,0,0,0,.275-.09.227.227,0,0,0,.111-.174.243.243,0,0,0-.106-.18.682.682,0,0,0-.306-.106h0a.771.771,0,0,1-.328-.111.3.3,0,0,1-.158-.259.354.354,0,0,1,.158-.285.623.623,0,0,1,.354-.1.813.813,0,0,1,.433.153.074.074,0,0,1,0,.1.069.069,0,0,1-.1,0,.639.639,0,0,0-.354-.143.439.439,0,0,0-.275.079.217.217,0,0,0-.1.169.169.169,0,0,0,.085.143.687.687,0,0,0,.3.1h0a1,1,0,0,1,.354.122.354.354,0,0,1,.164.3.359.359,0,0,1-.169.291.586.586,0,0,1-.359.116.883.883,0,0,1-.528-.206.063.063,0,0,1,0-.09Z" transform="translate(-201.651 -187.764)" fill="#263238"/>
        <path id="Path_38956" data-name="Path 38956" d="M266,318.118a.071.071,0,0,1,.143,0v.069a.074.074,0,1,1-.143,0Zm0,.475a.071.071,0,0,1,.143,0v1.3a.074.074,0,0,1-.074.074A.069.069,0,0,1,266,319.9Z" transform="translate(-203.85 -187.325)" fill="#263238"/>
        <path id="Path_38957" data-name="Path 38957" d="M268.633,319.556a.444.444,0,0,0-.444-.449.454.454,0,0,0-.449.449v.829a.074.074,0,0,1-.053.026h0a.085.085,0,0,1-.048-.037h0v-1.321a.074.074,0,0,1,.074-.074.069.069,0,0,1,.069.074v.137a.581.581,0,0,1,.449-.211.592.592,0,0,1,.586.592v.782a.069.069,0,0,1-.069.074.074.074,0,0,1-.074-.074Z" transform="translate(-204.626 -187.764)" fill="#263238"/>
        <path id="Path_38958" data-name="Path 38958" d="M273.04,318.481a.074.074,0,0,1-.074.069h-.185v1.057a.116.116,0,0,0,.106.111.074.074,0,1,1,0,.143.248.248,0,0,1-.254-.254V318.55h-.18c-.074,0-.074-.032-.074-.069s0-.069.074-.069h.18v-.528a.074.074,0,1,1,.148,0v.528h.185A.074.074,0,0,1,273.04,318.481Z" transform="translate(-206.861 -187.212)" fill="#263238"/>
        <path id="Path_38959" data-name="Path 38959" d="M274.49,319.718a.7.7,0,0,1,1.4-.053h0a.063.063,0,0,1-.069.063h-1.189a.56.56,0,0,0,.56.555.528.528,0,0,0,.465-.264.08.08,0,0,1,.121.1.7.7,0,0,1-.586.328.713.713,0,0,1-.7-.729Zm.148-.116h1.1a.555.555,0,0,0-1.1,0Z" transform="translate(-207.857 -187.794)" fill="#263238"/>
        <path id="Path_38960" data-name="Path 38960" d="M277.986,319.024a.074.074,0,0,1,.074-.074.069.069,0,0,1,.069.074v.28a.708.708,0,0,1,.581-.354.071.071,0,0,1,0,.143.528.528,0,0,0-.423.238,1.278,1.278,0,0,0-.174.338h0v.634a.069.069,0,0,1-.069.074.074.074,0,0,1-.074-.074Z" transform="translate(-209.498 -187.75)" fill="#263238"/>
        <path id="Path_38961" data-name="Path 38961" d="M282.529,319.575a.449.449,0,1,0-.893,0v.8h0a.063.063,0,0,1-.037.037h-.079v-.787a.449.449,0,1,0-.893,0v.787a.069.069,0,0,1-.032.058h-.048a.084.084,0,0,1-.058-.053v-1.326a.069.069,0,1,1,.137,0v.137a.586.586,0,0,1,.449-.206.592.592,0,0,0,1.057,0,.592.592,0,0,1,.592.592v.787a.071.071,0,0,1-.143,0Z" transform="translate(-210.687 -187.783)" fill="#263238"/>
        <path id="Path_38962" data-name="Path 38962" d="M285.541,320.11a.069.069,0,0,1,.1,0,.771.771,0,0,0,.444.169.439.439,0,0,0,.275-.09.227.227,0,0,0,.111-.174.243.243,0,0,0-.106-.18.682.682,0,0,0-.306-.106h0a.771.771,0,0,1-.328-.111.3.3,0,0,1-.158-.259.354.354,0,0,1,.158-.285.623.623,0,0,1,.354-.1.782.782,0,0,1,.428.153.069.069,0,0,1-.1.1.639.639,0,0,0-.354-.143.438.438,0,0,0-.275.079.217.217,0,0,0-.1.169.169.169,0,0,0,.085.143.687.687,0,0,0,.3.1h0a1,1,0,0,1,.354.122.349.349,0,0,1,.158.3.354.354,0,0,1-.164.29.586.586,0,0,1-.359.116.883.883,0,0,1-.528-.206.063.063,0,0,1,.005-.09Z" transform="translate(-213.06 -187.764)" fill="#263238"/>
        <path id="Path_38963" data-name="Path 38963" d="M290.737,319a.724.724,0,1,1-.687.724A.708.708,0,0,1,290.737,319Zm0,1.3a.586.586,0,1,0-.528-.581.565.565,0,0,0,.528.555Z" transform="translate(-215.197 -187.773)" fill="#263238"/>
        <path id="Path_38964" data-name="Path 38964" d="M294.044,317.867a.069.069,0,0,1-.074.069c-.1,0-.153,0-.18.058a.349.349,0,0,0-.058.238v.153h.2a.074.074,0,0,1,.074.074.069.069,0,0,1-.074.069h-.2v1.263a.079.079,0,0,1-.074.074.074.074,0,0,1-.074-.074v-1.263h-.19a.069.069,0,0,1-.074-.069.074.074,0,0,1,.074-.074h.19v-.153a.528.528,0,0,1,.1-.322.391.391,0,0,1,.291-.1.074.074,0,0,1,.074.058Z" transform="translate(-216.739 -187.211)" fill="#263238"/>
        <path id="Path_38965" data-name="Path 38965" d="M296.969,320.119a.069.069,0,0,1,.1,0,.787.787,0,0,0,.444.169.428.428,0,0,0,.275-.09.2.2,0,0,0,0-.354.66.66,0,0,0-.306-.106h0a.8.8,0,0,1-.328-.111.306.306,0,0,1-.158-.259.37.37,0,0,1,.158-.285A.623.623,0,0,1,297.5,319a.8.8,0,0,1,.433.153.071.071,0,0,1-.1.1.639.639,0,0,0-.354-.143.46.46,0,0,0-.275.079.227.227,0,0,0-.09.169.174.174,0,0,0,.079.143.713.713,0,0,0,.3.1h0a.967.967,0,0,1,.354.121.354.354,0,0,1,.164.3.37.37,0,0,1-.164.291.6.6,0,0,1-.365.116.882.882,0,0,1-.528-.206.069.069,0,0,1,.021-.1Z" transform="translate(-218.444 -187.773)" fill="#263238"/>
        <path id="Path_38966" data-name="Path 38966" d="M299.74,319.718a.7.7,0,0,1,1.4-.053h0a.063.063,0,0,1-.069.063h-1.194a.571.571,0,0,0,.56.555.528.528,0,0,0,.47-.264.069.069,0,0,1,.1,0,.074.074,0,0,1,0,.1.692.692,0,0,1-.586.328.713.713,0,0,1-.676-.729Zm.148-.116h1.1a.56.56,0,0,0-.528-.47.576.576,0,0,0-.581.47Z" transform="translate(-219.767 -187.794)" fill="#263238"/>
        <path id="Path_38967" data-name="Path 38967" d="M303.206,319.024a.079.079,0,0,1,.079-.074.069.069,0,0,1,.063.074v.317a.22.22,0,0,0,0-.037.708.708,0,0,1,.581-.354.071.071,0,0,1,0,.143.528.528,0,0,0-.423.238,1.278,1.278,0,0,0-.174.338h0v.634a.069.069,0,0,1-.063.074.079.079,0,0,1-.079-.074Z" transform="translate(-221.395 -187.75)" fill="#263238"/>
        <path id="Path_38968" data-name="Path 38968" d="M306.083,320.395v-.032l-.528-1.3a.069.069,0,0,1,.032-.09.074.074,0,0,1,.1.037l.481,1.141.481-1.141a.063.063,0,0,1,.09-.037.069.069,0,0,1,.037.09l-.528,1.284a.085.085,0,0,1,0,.037.058.058,0,0,1-.048,0h-.042Z" transform="translate(-222.507 -187.758)" fill="#263238"/>
        <path id="Path_38969" data-name="Path 38969" d="M308.94,318.118a.069.069,0,0,1,.074-.069.074.074,0,0,1,.074.069v.069a.074.074,0,1,1-.148,0Zm0,.475a.074.074,0,0,1,.148,0v1.3a.074.074,0,0,1-.148,0Z" transform="translate(-224.107 -187.325)" fill="#263238"/>
        <path id="Path_38970" data-name="Path 38970" d="M310.31,319.668a.729.729,0,0,1,.745-.718.75.75,0,0,1,.465.158.069.069,0,0,1,0,.1.074.074,0,0,1-.1,0,.592.592,0,1,0-.375,1.057.618.618,0,0,0,.375-.127.069.069,0,0,1,.1,0,.074.074,0,0,1,0,.106.75.75,0,0,1-.46.153.734.734,0,0,1-.75-.724Z" transform="translate(-224.754 -187.75)" fill="#263238"/>
        <path id="Path_38971" data-name="Path 38971" d="M313.42,319.669a.7.7,0,1,1,1.405-.053h0a.069.069,0,0,1-.074.063h-1.189a.571.571,0,0,0,.56.555.528.528,0,0,0,.47-.264.069.069,0,0,1,.1,0,.074.074,0,0,1,0,.1.692.692,0,0,1-.586.328A.718.718,0,0,1,313.42,319.669Zm.153-.116h1.1a.555.555,0,0,0-1.1,0Z" transform="translate(-226.22 -187.745)" fill="#263238"/>
        <path id="Path_38972" data-name="Path 38972" d="M187.179,319.744H183V315.56h4.184Zm-3.656-.528h3.127v-3.127h-3.122Z" transform="translate(-164.7 -186.151)" fill="#ebebeb"/>
        <path id="Path_38973" data-name="Path 38973" d="M302.623,223.651a.766.766,0,1,1-.224-.547.771.771,0,0,1,.224.547Z" transform="translate(-220.4 -142.432)" fill="#a6a6a6"/>
        <path id="Path_38974" data-name="Path 38974" d="M302.673,227.222H300a1.337,1.337,0,0,1,2.668,0Z" transform="translate(-219.89 -143.89)" fill="#a6a6a6"/>
        <path id="Path_38975" data-name="Path 38975" d="M299.594,258.325l-.454-.365h3.566l-.454.365c-.153.121-.306.243-.454.37l-.5.423h0l-.375.317-.375-.317h0l-.5-.423Z" transform="translate(-219.485 -158.98)" fill="#a6a6a6"/>
        <path id="Path_38976" data-name="Path 38976" d="M302.707,258v2.261h-3.566V258l.433.407.444.4.46.407h-.026a3.31,3.31,0,0,0-.291.18c-.122.074-.238.153-.359.238l-.343.248c-.116.09-.227.174-.338.269.127-.069.248-.143.37-.222s.238-.153.354-.238.238-.164.349-.248.185-.143.275-.222h0l.391.338h0l.391-.338h0c.09.079.18.148.269.222l.349.248c.116.085.238.164.354.238s.243.153.37.222c-.106-.1-.222-.18-.333-.269l-.349-.248c-.116-.085-.232-.164-.354-.238a3.391,3.391,0,0,0-.3-.18h-.026l.465-.407.438-.4Z" transform="translate(-219.475 -158.999)" fill="#a6a6a6"/>
        <path id="Path_38977" data-name="Path 38977" d="M300.94,292.93a2.6,2.6,0,0,0-1.78.882,2.251,2.251,0,0,0,3.566,0A2.61,2.61,0,0,0,300.94,292.93Zm0,1.506a.623.623,0,1,1,.446-.183.629.629,0,0,1-.446.183Z" transform="translate(-219.494 -175.476)" fill="#a6a6a6"/>
        <path id="Path_38978" data-name="Path 38978" d="M302.575,294.273a.4.4,0,1,1-.4-.356.4.4,0,0,1,.4.356Z" transform="translate(-220.728 -175.942)" fill="#a6a6a6"/>
        <rect id="Rectangle_9707" data-name="Rectangle 9707" width="30.583" height="9.224" transform="translate(38.407 142.579)" fill="#e27e28"/>
        <path id="Path_38979" data-name="Path 38979" d="M231.658,348.313a.243.243,0,0,1,.343-.032,1.548,1.548,0,0,0,.9.365,1.009,1.009,0,0,0,.592-.174.428.428,0,0,0,.206-.343.285.285,0,0,0-.042-.148.528.528,0,0,0-.143-.143,1.917,1.917,0,0,0-.65-.222h0a2.556,2.556,0,0,1-.608-.185,1.056,1.056,0,0,1-.444-.37.761.761,0,0,1-.106-.391.866.866,0,0,1,.375-.687,1.384,1.384,0,0,1,.819-.254,1.854,1.854,0,0,1,1.057.38.243.243,0,0,1,.063.333.238.238,0,0,1-.333.074,1.364,1.364,0,0,0-.766-.3.9.9,0,0,0-.528.158.38.38,0,0,0-.18.3.243.243,0,0,0,.032.132.481.481,0,0,0,.127.127,1.7,1.7,0,0,0,.592.206h0a2.8,2.8,0,0,1,.655.2,1.056,1.056,0,0,1,.47.391.755.755,0,0,1,.116.4.909.909,0,0,1-.407.734,1.49,1.49,0,0,1-.877.269,2.044,2.044,0,0,1-1.21-.47.248.248,0,0,1-.058-.349Z" transform="translate(-187.63 -200.382)" fill="#fff"/>
        <path id="Path_38980" data-name="Path 38980" d="M237.93,346.169a.254.254,0,0,1,.259-.259.264.264,0,0,1,.264.259v2.795a.259.259,0,0,1-.264.259.254.254,0,0,1-.259-.259Z" transform="translate(-190.611 -200.467)" fill="#fff"/>
        <path id="Path_38981" data-name="Path 38981" d="M240.32,347.478a1.749,1.749,0,0,1,2.821-1.337.269.269,0,0,1-.328.428,1.225,1.225,0,0,0-.75-.259,1.157,1.157,0,0,0-.851.349,1.125,1.125,0,0,0,0,1.638,1.173,1.173,0,0,0,.851.343,1.289,1.289,0,0,0,.65-.18v-.65h-.676a.269.269,0,0,1-.269-.269.264.264,0,0,1,.269-.264h.94a.264.264,0,0,1,.275.264V348.6a.349.349,0,0,1,0,.079.048.048,0,0,0,0,.026h0a.233.233,0,0,1-.1.111,1.743,1.743,0,0,1-2.837-1.337Z" transform="translate(-191.738 -200.403)" fill="#fff"/>
        <path id="Path_38982" data-name="Path 38982" d="M248.407,348.993a.264.264,0,0,1-.259.259.254.254,0,0,1-.259-.259v-2.752h0a.254.254,0,0,1,.106-.222.264.264,0,0,1,.359.058l1.527,2.113v-1.949a.259.259,0,0,1,.254-.254.264.264,0,0,1,.264.254v2.752a.264.264,0,0,1-.264.259.248.248,0,0,1-.19-.1l-.026-.026-1.511-2.113Z" transform="translate(-195.309 -200.497)" fill="#fff"/>
        <path id="Path_38983" data-name="Path 38983" d="M258.843,349.222a1.363,1.363,0,0,1-1.363-1.368v-1.685a.254.254,0,0,1,.259-.259.264.264,0,0,1,.264.259v1.685a.845.845,0,1,0,1.685,0v-1.685a.259.259,0,0,1,.264-.259.254.254,0,0,1,.259.259v1.685a1.363,1.363,0,0,1-1.368,1.368Z" transform="translate(-199.833 -200.467)" fill="#fff"/>
        <path id="Path_38984" data-name="Path 38984" d="M265.859,347.931h-.581v1.03a.264.264,0,1,1-.528,0v-2.795a.264.264,0,0,1,.259-.259h.851a1.014,1.014,0,1,1,0,2.023Zm-.581-.528h.581a.486.486,0,0,0,0-.972h-.581Z" transform="translate(-203.262 -200.465)" fill="#fff"/>
        <path id="Path_38985" data-name="Path 38985" d="M243.993,164.361a16.224,16.224,0,0,1-4.755,1.986,16.467,16.467,0,1,1,4.755-1.986Z" transform="translate(-181.623 -100.449)" fill="#465a65"/>
        <path id="Path_38986" data-name="Path 38986" d="M250.557,157.013a5.008,5.008,0,1,1-1.471-3.55A5.013,5.013,0,0,1,250.557,157.013Z" transform="translate(-191.837 -108.997)" fill="#fff"/>
        <path id="Path_38987" data-name="Path 38987" d="M250.945,179.743v2.066a16.5,16.5,0,0,1-17.328-.005v-2.06a8.664,8.664,0,1,1,17.323,0Z" transform="translate(-188.576 -117.896)" fill="#fff"/>
      </g>
      <g id="freepik--Lines--inject-13" transform="translate(162.359 143.905)">
        <path id="Path_38988" data-name="Path 38988" d="M286.964,213.829a11.411,11.411,0,0,1-.2-2.235,11.021,11.021,0,0,1,.2-2.235,11.023,11.023,0,0,1,.2,2.235A11.418,11.418,0,0,1,286.964,213.829Z" transform="translate(-278.079 -209.36)" fill="#263238"/>
        <path id="Path_38989" data-name="Path 38989" d="M278.309,217.669a11.567,11.567,0,0,1-1.717-1.437,11.322,11.322,0,0,1-1.442-1.722,12.68,12.68,0,0,1,3.17,3.17Z" transform="translate(-272.598 -211.789)" fill="#263238"/>
        <path id="Path_38990" data-name="Path 38990" d="M274.784,226.455a11.359,11.359,0,0,1-2.229.2,11.02,11.02,0,0,1-2.235-.2A12.842,12.842,0,0,1,274.784,226.455Z" transform="translate(-270.32 -217.332)" fill="#263238"/>
        <path id="Path_38991" data-name="Path 38991" d="M278.62,232.64a12.942,12.942,0,0,1-3.17,3.17,11,11,0,0,1,1.437-1.722A11.622,11.622,0,0,1,278.62,232.64Z" transform="translate(-272.74 -220.342)" fill="#263238"/>
        <path id="Path_38992" data-name="Path 38992" d="M287.406,235a12.511,12.511,0,0,1,0,4.464A12.841,12.841,0,0,1,287.406,235Z" transform="translate(-278.287 -221.455)" fill="#263238"/>
        <path id="Path_38993" data-name="Path 38993" d="M293.59,232.33a12.562,12.562,0,0,1,3.17,3.17,10.956,10.956,0,0,1-1.717-1.437A11.547,11.547,0,0,1,293.59,232.33Z" transform="translate(-281.297 -220.195)" fill="#263238"/>
        <path id="Path_38994" data-name="Path 38994" d="M296,226.011a12.536,12.536,0,0,1,4.469,0,12.87,12.87,0,0,1-4.469,0Z" transform="translate(-282.434 -217.12)" fill="#263238"/>
        <path id="Path_38995" data-name="Path 38995" d="M293.271,217.359a11.62,11.62,0,0,1,1.437-1.722,11.3,11.3,0,0,1,1.722-1.437,12.943,12.943,0,0,1-3.17,3.17Z" transform="translate(-281.141 -211.643)" fill="#263238"/>
      </g>
      <g id="freepik--Character--inject-13" transform="translate(170.044 81.775)">
        <path id="Path_38996" data-name="Path 38996" d="M325.054,130.889s3.7,25.722,3.45,28.168-3.265,26.155-3.265,26.155-6.773-1.458-8.727-2.641c-1.405-.84-6.382-5.13-6.382-5.13s8.453-16.535,9.15-19.89,1.157-19.621,1.965-22.9a6.656,6.656,0,0,1,3.888-4.4" transform="translate(-296.784 -109.917)" fill="#00a0ad"/>
        <path id="Path_38997" data-name="Path 38997" d="M323.135,197.64a5.584,5.584,0,0,0,2.081,2.266c.46.312,1.347.977,1.627.116a1.548,1.548,0,0,0-.116-1,5.531,5.531,0,0,0-.961-1.632c-.5-.608-1.321-1.405-2.187-1.257S322.876,197.037,323.135,197.64Z" transform="translate(-302.822 -140.982)" fill="#263238"/>
        <path id="Path_38998" data-name="Path 38998" d="M333.471,204.627a5.283,5.283,0,0,0,1.247,3.059c.365.38.787.5,1.115.238a1.908,1.908,0,0,0,.528-1.289,5.7,5.7,0,0,0-.581-3.17c-.312-.608-.861-1.453-1.669-1.268C333.1,202.461,333.371,203.882,333.471,204.627Z" transform="translate(-307.743 -143.838)" fill="#263238"/>
        <path id="Path_38999" data-name="Path 38999" d="M325.579,205.922c-.46.359,0,1.743.428,2.4.528.835,1.442,1.786,2.2,1.426.38-.185.433-1.215-.4-2.509C327.022,206.049,325.96,205.637,325.579,205.922Z" transform="translate(-303.982 -145.567)" fill="#263238"/>
        <path id="Path_39000" data-name="Path 39000" d="M320.811,218.09c.18.354.571.977,1.03,1s.528-.444.528-.782a5.151,5.151,0,0,0-.291-1.548c-.217-.676-.618-1.263-1.268-1.3C319.527,215.39,320.579,217.635,320.811,218.09Z" transform="translate(-301.528 -150.106)" fill="#263238"/>
        <path id="Path_39001" data-name="Path 39001" d="M379.823,358.4s11.517,20.392,11.522,20.392c1.849,4.1,3.4,7.739,4.026,9.694a.074.074,0,0,1,0,.032,3.17,3.17,0,0,1,.269,1.405s0,.026,0,.037c-.851,1.379-33.24,17.122-34.555,17.291s-1.9-3.566-1.125-5.182,10.481-13.207,10.481-13.207L359.13,368.416Z" transform="translate(-319.898 -217.534)" fill="#eb9481"/>
        <path id="Path_39002" data-name="Path 39002" d="M362.488,421.034c1.31-.169,33.187-15.79,34.032-17.169v-.037a3.17,3.17,0,0,0-.269-1.405.032.032,0,0,0,0-.026c-.629-1.955-2.177-5.595-4.02-9.7,0,0-1.944-3.561-2.715-4.8l-20.6,10.65,2.4,4.226s-9.187,11.453-9.958,13.07S361.167,421.235,362.488,421.034Z" transform="translate(-320.784 -231.449)" fill="#ebebeb"/>
        <path id="Path_39003" data-name="Path 39003" d="M361.283,423.384c1.326-.2,33.6-16.826,34.423-18.242.322-.528-1.828-5.373-4.591-11.152,0-.058-.058-.122-.09-.18L370.089,404.3l.19.349s-9.509,11.892-10.254,13.54S359.962,423.59,361.283,423.384Z" transform="translate(-320.176 -234.237)" fill="#e27e2b"/>
        <path id="Path_39004" data-name="Path 39004" d="M362.095,432.1c5.367-2.937,27.312-14.264,32.844-16.768.042,0,.058,0,0,.032-5.283,3.027-27.291,14.185-32.817,16.821C362.01,432.24,361.978,432.156,362.095,432.1Z" transform="translate(-321.262 -244.388)" fill="#fff"/>
        <path id="Path_39005" data-name="Path 39005" d="M376.408,414.324c1.934-1.5,4.723-2.525,7.142-1.838.1.026.053.158-.026.169a33.925,33.925,0,0,0-6.968,1.934.153.153,0,0,1-.148-.264Z" transform="translate(-328.021 -242.944)" fill="#263238"/>
        <path id="Path_39006" data-name="Path 39006" d="M374.377,417.593c1.934-1.506,4.723-2.525,7.142-1.838.1.026.058.158,0,.169a34.114,34.114,0,0,0-6.968,1.934.158.158,0,1,1-.174-.264Z" transform="translate(-327.057 -244.486)" fill="#263238"/>
        <path id="Path_39007" data-name="Path 39007" d="M372.368,420.863c1.939-1.506,4.723-2.525,7.148-1.838.09,0,.053.158-.026.169a34.07,34.07,0,0,0-6.973,1.934.153.153,0,0,1-.148-.264Z" transform="translate(-326.115 -246.028)" fill="#263238"/>
        <path id="Path_39008" data-name="Path 39008" d="M412.016,405.026c1.738-2.377,5.431.317,3.7,2.7S410.277,407.4,412.016,405.026Z" transform="translate(-344.631 -239.093)" fill="#fff"/>
        <path id="Path_39009" data-name="Path 39009" d="M368.843,417.71,366.524,432.2a57.268,57.268,0,0,1-5.251,2.456c-1.321.206-2-3.55-1.263-5.193C360.586,428.218,366.2,421.091,368.843,417.71Z" transform="translate(-320.171 -245.511)" opacity="0.1"/>
        <path id="Path_39010" data-name="Path 39010" d="M360.524,431.386c-.46.528.666,2.4,1.162,2.335s35.6-18.342,36.13-18.781-.792-2.478-1.548-2.229S360.524,431.386,360.524,431.386Z" transform="translate(-320.505 -243.143)" fill="#263238"/>
        <path id="Path_39011" data-name="Path 39011" d="M367.63,291.689l-23.213,12.394s-29.3-41.735-29.88-52.723c-.814-15.151,12.124-63.252,12.124-63.252l20.635-.137s-8.389,49.464-7.7,57.9C339.948,250.287,367.63,291.689,367.63,291.689Z" transform="translate(-298.846 -137.139)" fill="#37474f"/>
        <path id="Path_39012" data-name="Path 39012" d="M367.282,388.581c1.194-.861,12.2-7.238,20.577-11.311.053,0,.09.053.042.085-2.541,1.68-18.965,10.677-20.556,11.316C367.293,388.692,367.229,388.618,367.282,388.581Z" transform="translate(-323.734 -226.435)" fill="#263238"/>
        <path id="Path_39013" data-name="Path 39013" d="M355.815,236.454c.956-7.238,2.013-14.47,3.217-21.66s2.478-14.464,3.994-21.66q.275-1.315.565-2.641a.108.108,0,1,1,.211.042c-1.268,7.121-2.578,14.237-3.746,21.374s-2.261,14.264-3.244,21.459c-.243,1.775-.475,3.55-.708,5.325a47.336,47.336,0,0,0-.528,5.526,14.1,14.1,0,0,0,.882,5.182,29.987,29.987,0,0,0,2.377,4.66c3.735,6.313,20.45,33.911,20.883,34.714.032.053-.042.106-.074.053C375.631,282.6,363.185,262.72,359.4,256.3c-1.712-2.9-3.666-5.811-4.226-9.2C354.605,243.607,355.35,239.935,355.815,236.454Z" transform="translate(-317.936 -138.289)" fill="#263238"/>
        <path id="Path_39014" data-name="Path 39014" d="M332.147,384.3s.232,23.54.232,23.556c-.121,4.5-.312,8.453-.6,10.481a.069.069,0,0,1,0,.032,3.137,3.137,0,0,1-.37,1.384h-.026c-1.363.872-37.376.925-38.634.528s-.158-4.036,1.241-5.151,15.178-7.306,15.178-7.306V384.3Z" transform="translate(-288.325 -229.751)" fill="#eb9481"/>
        <path id="Path_39015" data-name="Path 39015" d="M332.332,419.646s.048,4.818.048,4.834c-.121,4.5-.312,8.453-.6,10.481a.069.069,0,0,1,0,.032,5.813,5.813,0,0,1-.37,1.384h-.026c-1.363.872-37.376.925-38.634.528s-.158-4.036,1.241-5.151,15.178-7.306,15.178-7.306V419.54Z" transform="translate(-288.325 -246.374)" fill="#ebebeb"/>
        <path id="Path_39016" data-name="Path 39016" d="M292.68,440.381c1.273.4,37.572-.232,38.935-1.136.528-.338.74-5.632.819-12.034V427l-23.424.148v.4s-13.783,6.456-15.183,7.607S291.4,439.98,292.68,440.381Z" transform="translate(-288.278 -249.893)" fill="#e27e2b"/>
        <path id="Path_39017" data-name="Path 39017" d="M293.842,449.137c6.112-.259,30.8-.724,36.869-.528.053,0,.053.037,0,.042-6.054.386-30.746.65-36.869.571C293.709,449.237,293.709,449.142,293.842,449.137Z" transform="translate(-289.054 -260.064)" fill="#fff"/>
        <path id="Path_39018" data-name="Path 39018" d="M320.315,428.07c2.4-.5,5.352-.174,7.222,1.506.074.069,0,.169-.1.143a34.157,34.157,0,0,0-7.105-1.347.153.153,0,0,1-.016-.3Z" transform="translate(-301.533 -250.298)" fill="#263238"/>
        <path id="Path_39019" data-name="Path 39019" d="M317.063,430.11c2.4-.5,5.352-.174,7.216,1.506.074.069,0,.169-.1.143a34.215,34.215,0,0,0-7.111-1.347.153.153,0,0,1-.011-.3Z" transform="translate(-299.998 -251.26)" fill="#263238"/>
        <path id="Path_39020" data-name="Path 39020" d="M313.8,432.152c2.4-.491,5.352-.174,7.222,1.506.074.069,0,.169-.1.148a33.812,33.812,0,0,0-7.105-1.352.153.153,0,0,1-.016-.3Z" transform="translate(-298.462 -252.224)" fill="#263238"/>
        <path id="Path_39021" data-name="Path 39021" d="M291.726,449.033c-.645.264-.465,2.441,0,2.61s40.044-.7,40.715-.866.38-2.573-.4-2.684S291.726,449.033,291.726,449.033Z" transform="translate(-287.906 -259.839)" fill="#263238"/>
        <path id="Path_39022" data-name="Path 39022" d="M356.172,434.665c2.61-1.358,4.728,2.689,2.113,4.057S353.557,436.033,356.172,434.665Z" transform="translate(-317.938 -253.379)" fill="#fff"/>
        <path id="Path_39023" data-name="Path 39023" d="M329.665,188.027h0c.137.428,7.549,20.746,8.252,21.073.787.365-16.377,29.209-17.4,42.606-.65,8.574.629,57.055.629,57.055h25.1s-1.21-43.6-1.78-57.425c-.222-5.357,17.238-32.03,17.433-48.645.069-5.235-3.7-14.792-3.7-14.792Z" transform="translate(-301.596 -137.107)" fill="#37474f"/>
        <path id="Path_39024" data-name="Path 39024" d="M365.78,307.175c0-.222.174-.3.19-.069.565,7.481.7,14.914,1.057,22.4s.153,9.271.486,16.736c.19,4.226,0,8.453.106,12.679a.053.053,0,0,1-.1,0C366.736,351.5,365.785,311.407,365.78,307.175Z" transform="translate(-323.035 -193.273)" fill="#263238"/>
        <path id="Path_39025" data-name="Path 39025" d="M320.6,270.977a37.745,37.745,0,0,1,.528-5.5,27.576,27.576,0,0,1,1.553-5.167c1.384-3.5,3.027-6.91,4.6-10.328s3.207-6.915,4.881-10.339q1.411-2.884,2.837-5.764c.967-1.939,2.007-3.846,3.017-5.764.037-.074.158,0,.121.058-1.611,3.455-3.2,6.921-4.807,10.376s-3.17,6.926-4.755,10.391-3.112,6.825-4.58,10.275a34.072,34.072,0,0,0-1.791,5.077,29.774,29.774,0,0,0-.771,5.484c-.243,4.284-.359,8.59-.782,12.864,0,.053-.1.048-.1,0C320.429,278.754,320.487,274.85,320.6,270.977Z" transform="translate(-301.669 -156.061)" fill="#263238"/>
        <path id="Path_39026" data-name="Path 39026" d="M325.3,407.056c1.458-.19,12.584-.576,21.887-.18a.048.048,0,1,1,0,.1c-3.032.269-20.17.386-21.876.19C325.254,407.156,325.233,407.061,325.3,407.056Z" transform="translate(-303.921 -240.319)" fill="#263238"/>
        <path id="Path_39027" data-name="Path 39027" d="M346.9,225.928a48.075,48.075,0,0,1,7.85,2.721.087.087,0,0,1-.058.164c-2.641-.824-5.315-1.585-7.9-2.567a.169.169,0,0,1,.106-.317Z" transform="translate(-314.038 -155.044)" fill="#263238"/>
        <path id="Path_39028" data-name="Path 39028" d="M342.28,193.062c0-.085.153-.122.158,0,.291,3,.75,5.616,1.289,8.389.254,1.289,2.034,8.368,4.226,7.613.37-.127.528-.528.528-1.094a8.981,8.981,0,0,0-.528-2.171c-.4-1.479-.761-2.969-1.057-4.475a41.834,41.834,0,0,1-.777-8.511.074.074,0,0,1,.148,0,78.455,78.455,0,0,0,1.886,11.665c.475,1.838,1.706,4.554-.222,5.045s-3.73-4.084-4.1-5.352A43.32,43.32,0,0,1,342.28,193.062Z" transform="translate(-311.95 -139.39)" fill="#263238"/>
        <path id="Path_39029" data-name="Path 39029" d="M352.583,223.9a11.773,11.773,0,0,1,.66,1.437,3.339,3.339,0,0,1,.333,1.2c0,.079-.1.1-.153.053a4.486,4.486,0,0,1-.645-1.141c-.217-.444-.444-.882-.65-1.331a.254.254,0,0,1,.454-.217Z" transform="translate(-316.589 -154.031)" fill="#263238"/>
        <path id="Path_39030" data-name="Path 39030" d="M360.759,262.32c-.127-3.566-.528-7.311.645-10.756a35.775,35.775,0,0,1,2.293-4.887q1.3-2.509,2.562-5.061c3.355-6.773,6.514-13.656,9.335-20.672a43.663,43.663,0,0,0,3.064-10.465,32.173,32.173,0,0,0-.7-11.39c-.211-.93-.438-1.854-.692-2.774,0-.063.085-.106.106-.037a37.551,37.551,0,0,1,1.96,10.893,30.879,30.879,0,0,1-1.891,10.407c-1.2,3.508-2.71,6.91-4.195,10.307q-2.3,5.241-4.755,10.407c-1.643,3.423-3.4,6.788-5.13,10.17a18.584,18.584,0,0,0-1.928,5.13,26.6,26.6,0,0,0-.206,5.616c.3,7.9.977,34.175,1.057,42.052,0,1,.026,2,.037,3a.069.069,0,1,1-.137,0C361.683,296.41,361.044,270.191,360.759,262.32Z" transform="translate(-320.587 -141.042)" fill="#263238"/>
        <path id="Path_39031" data-name="Path 39031" d="M371.509,197.788c0-.053.09-.042.1,0,.3,2.177.465,4.427,1.516,6.4a8.913,8.913,0,0,0,4.469,3.793,33.923,33.923,0,0,0,3.26,1.2c.079,0,.063.148-.026.127a17.182,17.182,0,0,1-5.991-2.081,7.488,7.488,0,0,1-3.244-5.478A18.794,18.794,0,0,1,371.509,197.788Z" transform="translate(-325.705 -141.754)" fill="#263238"/>
        <path id="Path_39032" data-name="Path 39032" d="M363.122,160.774c-.048.1-33.071,9.1-33.441,8.859-.037,0-1.4-.761-1.7-3.312-.085-.7.856-3.7.882-5.954.074-7.824-.232-22.352,1.9-30.155.571-2.113,5.087-4.5,7.565-2.974C349.492,134.1,363.185,160.642,363.122,160.774Z" transform="translate(-305.204 -108.263)" fill="#ebebeb"/>
        <path id="Path_39033" data-name="Path 39033" d="M344.43,126.439s1.226,16.657,1.669,18.59c.306,1.352,4.047,14.951,5.97,24.777a55.007,55.007,0,0,1,.438,10.835s11.5-3.735,15.025-6.133c2.039-1.389,6.588-7.4,6.588-7.4s-7.28-16.15-11.427-22.214-12.029-16.562-15.722-18.094A3.722,3.722,0,0,0,344.43,126.439Z" transform="translate(-312.964 -108.077)" fill="#00a0ad"/>
        <path id="Path_39034" data-name="Path 39034" d="M365.7,160.231a1.844,1.844,0,0,0-.983,1.458,5.812,5.812,0,0,0-.248,2.615c.069.475.28,1.178.9,1.057s.961-1.178,1.125-1.717S367.139,159.618,365.7,160.231Zm-4.9,4.047c-.676.56-.6,1.712-.46,2.478a5.425,5.425,0,0,0,.613,1.791,1.585,1.585,0,0,0,.687.74c.84.343.9-.761.967-1.315a5.579,5.579,0,0,0-.375-3.053C361.956,164.341,361.423,163.76,360.8,164.277Zm2.372-6.435c-.528-.063-.808.333-.956.856a4.818,4.818,0,0,0-.206,1.881c.042.386.127,1.057.555,1.215s.771-.28.924-.623c.275-.629.824-3.18-.317-3.328Zm-8.009,26.916c-.407.829-1.236.143-1.9-.666h0c0-.956.026-2.113,0-3.36l.18.148a5.891,5.891,0,0,1,1.527,2.113,1.86,1.86,0,0,1,.2,1.764Zm3.8-.37-1.21.438a5.235,5.235,0,0,1-1.537-2.224c-.106-.359-.153-.924.291-1.057s.93.3,1.215.555a4.823,4.823,0,0,1,1.057,1.558,1.448,1.448,0,0,1,.185.729Zm-3.112-28.527c.5-.026.972.687,1.194,1.057a5.167,5.167,0,0,1,.655,2.007c.053.407.2,1.268-.18,1.585-.46.375-.9-.053-1.231-.639a4.649,4.649,0,0,1-.977-2.932c.005-.37.048-1.046.539-1.078Zm3.761,14.792c-.666.491-.38,1.458-.122,2.087a5.716,5.716,0,0,0,2.023,2.488c.375.254.94.56,1.342.412a.836.836,0,0,0,.528-1,5.283,5.283,0,0,0-1.527-2.927c-.486-.539-1.384-1.675-2.245-1.035Zm4.184.18c.444,1.484,1.263,2.113,1.648,1.939.761-.343.629-1.643.343-2.6-.222-.75-.977-2-1.553-1.881-.47.116-.861,1.194-.439,2.562Zm-15.278-25.886a5.416,5.416,0,0,1-.872,1.68,4.036,4.036,0,0,1-1.236,1.189c-.09-.872-.185-1.881-.275-2.948h0a8.7,8.7,0,0,1,.824-.708c.444-.343,1.289-1.057,1.622-.211a1.585,1.585,0,0,1-.063,1.02Zm2.467-.5c.814.143,1.315-.729,1.585-1.352a5.658,5.658,0,0,0,.4-3.17c-.074-.444-.243-1.057-.623-1.257a.845.845,0,0,0-1.1.3,5.309,5.309,0,0,0-1.057,3.127c-.063.755-.264,2.192.792,2.372Zm-2.758-3.17c-.708,1.241-1.749,1.712-2.145,1.437a.423.423,0,0,1-.153-.211h0c0-.206-.037-.417-.058-.629h0a4.508,4.508,0,0,1,.5-1.585c.5-.866,1.347-1.86,2.113-1.543.4.2.507,1.226-.259,2.567ZM370.509,170.4a1.564,1.564,0,0,0,.169,1.8,4.909,4.909,0,0,0,.988,1.231c.254.222.666.449.935.106s.063-1.057-.09-1.432c-.2-.438-1.215-2.694-2-1.669Zm-10.354-17.74a1.289,1.289,0,0,0-.354,1.437,3.984,3.984,0,0,0,.433,1.215c.137.243.4.528.7.338s.333-.808.312-1.136c-.021-.391-.206-2.4-1.088-1.817Z" transform="translate(-313.643 -113.838)" fill="#263238"/>
        <path id="Path_39035" data-name="Path 39035" d="M331.99,130.067c1.865-.444,3.434-5.346,3.529-7.977,0-.18-.7-1.057-1.791-2.784-.666-1.057-1.374-2.245-1.944-3.376l-6.244,5.283a20.134,20.134,0,0,1,2.879,4.01,2.761,2.761,0,0,1,.185.486.878.878,0,0,0,.032.085C328.953,126.77,330.189,130.495,331.99,130.067Z" transform="translate(-304.053 -103.157)" fill="#eb9481"/>
        <path id="Path_39036" data-name="Path 39036" d="M329.434,126.863c-.127.069-.254.127-.375.185-.2-.528-.349-.961-.428-1.215a.834.834,0,0,0-.026-.085,2.977,2.977,0,0,0-.185-.491,20.2,20.2,0,0,0-2.879-4l6.244-5.283c.122.238.243.475.375.718C332.883,119.267,333.707,124.592,329.434,126.863Z" transform="translate(-304.053 -103.176)" fill="#263238"/>
        <path id="Path_39037" data-name="Path 39037" d="M321.766,99.8c2.05,2.113,4.432,10.037,3.471,12.594-1.395,3.672-5.526,6.065-9.113,3.967-3.471-2.034-6.392-12.441-5.146-14.929C312.817,97.761,318.739,96.668,321.766,99.8Z" transform="translate(-297.046 -94.683)" fill="#eb9481"/>
        <path id="Path_39038" data-name="Path 39038" d="M322.56,117.11s.048,0,.058.032c.174.528.465,1.109,1,1.109,0,0,.026,0,0,.032C323.02,118.415,322.645,117.644,322.56,117.11Z" transform="translate(-302.648 -103.714)" fill="#263238"/>
        <path id="Path_39039" data-name="Path 39039" d="M322.806,115.7c.819-.375,1.511,1.294.75,1.638S322.119,116.018,322.806,115.7Z" transform="translate(-302.629 -103.024)" fill="#263238"/>
        <path id="Path_39040" data-name="Path 39040" d="M316.99,119.48s-.026.042,0,.063c.227.528.407,1.131,0,1.5h0C317.518,120.748,317.264,119.929,316.99,119.48Z" transform="translate(-300.015 -104.832)" fill="#263238"/>
        <path id="Path_39041" data-name="Path 39041" d="M315.293,118.8c-.856.28-.232,1.976.56,1.712S316,118.568,315.293,118.8Z" transform="translate(-299.026 -104.501)" fill="#263238"/>
        <path id="Path_39042" data-name="Path 39042" d="M322.025,112.342a6.864,6.864,0,0,1-.74.058,1.173,1.173,0,0,1-.761-.079.38.38,0,0,1-.137-.449.951.951,0,0,1,.829-.475,1.389,1.389,0,0,1,.977.222.407.407,0,0,1-.169.724Z" transform="translate(-301.611 -101.012)" fill="#263238"/>
        <path id="Path_39043" data-name="Path 39043" d="M312.812,115.346a6.167,6.167,0,0,0,.592-.444,1.256,1.256,0,0,0,.528-.571.38.38,0,0,0-.2-.417.93.93,0,0,0-.935.2,1.384,1.384,0,0,0-.581.814.407.407,0,0,0,.6.423Z" transform="translate(-297.765 -102.182)" fill="#263238"/>
        <path id="Path_39044" data-name="Path 39044" d="M326.619,125.259c-.074.169-.132.391-.312.481a1.485,1.485,0,0,1-.608.1v.037a.761.761,0,0,0,.771,0,.6.6,0,0,0,.217-.629A.043.043,0,0,0,326.619,125.259Z" transform="translate(-304.129 -107.547)" fill="#263238"/>
        <path id="Path_39045" data-name="Path 39045" d="M321.124,118.634a1.918,1.918,0,0,1-.851,1.268,2.367,2.367,0,0,1-.618.291l-.127.032-.121.032a.143.143,0,0,1-.153-.074h0v-.058h0v-.042c-.174-.391-.386-1.014-.386-1.014-.116.132-.718.771-.792.56a28.564,28.564,0,0,1-1.516-5.6.053.053,0,0,1,.1,0c.65,1.669,1,3.444,1.632,5.13a3.5,3.5,0,0,1,.724-.6c.063,0,.386,1.21.481,1.379h0a2.642,2.642,0,0,0,1.585-1.315C321.082,118.56,321.14,118.581,321.124,118.634Z" transform="translate(-299.818 -102.243)" fill="#263238"/>
        <path id="Path_39046" data-name="Path 39046" d="M323.582,104.52c-1.521.28-2.773-3.407-2.773-3.407s-2.044-.085-3.724-3.254c0,0-.153,3.7-6.461,4.982a5.478,5.478,0,0,1-.6-3.307,22.95,22.95,0,0,0-.454,3.772s-3.112-4.564.608-7.761c1.479-1.268,4.131-1.981,8.733-1.326,0,0,0-2.641.528-2.457s.407,2.641.407,2.641,1.558-1.109,1.971-.84-1.173,1.215-1.173,1.215a3.624,3.624,0,0,1,3.5,3.17C324.675,100.933,324.337,104.382,323.582,104.52Z" transform="translate(-295.946 -91.752)" fill="#263238"/>
        <path id="Path_39047" data-name="Path 39047" d="M330.678,97.558a3.312,3.312,0,0,1,4.084,1.585,6.16,6.16,0,0,1,.5,2.742,11.671,11.671,0,0,1-.47,2.9c0,.053-.1,0-.079-.032a8.716,8.716,0,0,0,.264-2.641,8.278,8.278,0,0,0-.407-2.541,3.17,3.17,0,0,0-3.862-1.907C330.656,97.664,330.63,97.579,330.678,97.558Z" transform="translate(-306.465 -94.395)" fill="#263238"/>
        <path id="Path_39048" data-name="Path 39048" d="M313.849,95.138a12.769,12.769,0,0,1,3.328.116,9.287,9.287,0,0,1,3.027.9c.048,0,0,.1-.032.079a16.905,16.905,0,0,0-6-.671c-1.87.074-3.888.74-4.755,2.557,0,.032-.058,0-.048,0A5.163,5.163,0,0,1,313.849,95.138Z" transform="translate(-296.425 -93.322)" fill="#263238"/>
        <path id="Path_39049" data-name="Path 39049" d="M334.47,111.861s.528-3.17,1.87-3.112,1.786,4.115.75,5.2a1.437,1.437,0,0,1-2.06.148Z" transform="translate(-308.266 -99.77)" fill="#eb9481"/>
        <path id="Path_39050" data-name="Path 39050" d="M337.26,111s.037,0,.026.032a3.6,3.6,0,0,0-.692,2.847.787.787,0,0,1,.967-.708c.032,0,.026.053,0,.058a.888.888,0,0,0-.74.7,4.337,4.337,0,0,0-.074.909.09.09,0,0,1-.18,0h0C335.993,113.684,336.109,111.676,337.26,111Z" transform="translate(-309.096 -100.832)" fill="#263238"/>
        <path id="Path_39051" data-name="Path 39051" d="M338.619,138.477c2.678,9.382,4.38,27.054,3.022,30.266-1.2,2.842-10.254,9.446-15.458,12.975-1.7,1.152-9.905-11.823-8.03-12.954,2.557-1.532,11.723-7.591,11.945-8.247s1.057-13.936,2.467-21.549C333.832,132.069,337.61,134.927,338.619,138.477Z" transform="translate(-300.438 -112.037)" fill="#eb9481"/>
        <path id="Path_39052" data-name="Path 39052" d="M285.265,214.241c1.284,1.31,4.226-2.113,4.226-2.113a3.392,3.392,0,0,0,.312,2.277c.708,1.2,2.9.618,2.9.618a4.194,4.194,0,0,0,.718,2.346c.792,1.057,3.085.808,3.085.808a3.65,3.65,0,0,0,1.928,1.664c2.229.729,4.823-1.775,6.736-3.011a27.472,27.472,0,0,0,5.922-5.558l-7.66-12.542s-10.9,2.715-12.737,4.707C289.122,205.112,283.311,212.244,285.265,214.241Z" transform="translate(-284.868 -142.215)" fill="#eb9481"/>
        <path id="Path_39053" data-name="Path 39053" d="M293.627,218.76a30.761,30.761,0,0,1,4.628-5.853c.037-.037.1,0,.063.058-1.7,1.77-2.969,4.036-4.6,5.869a.063.063,0,0,1-.1-.074Z" transform="translate(-288.998 -148.896)" fill="#263238"/>
        <path id="Path_39054" data-name="Path 39054" d="M299.564,224.878a6.26,6.26,0,0,1,1.136-1.257c.433-.417.877-.829,1.321-1.231q1.347-1.215,2.747-2.351c.042-.032.1,0,.058.058-.888.808-1.764,1.627-2.641,2.467-.428.423-.856.845-1.278,1.273a7.842,7.842,0,0,1-1.247,1.157.085.085,0,0,1-.1-.116Z" transform="translate(-291.797 -152.261)" fill="#263238"/>
        <path id="Path_39055" data-name="Path 39055" d="M307,231.579a4.558,4.558,0,0,1,1.083-1.057l1.241-1.057c.824-.729,1.643-1.458,2.441-2.208a.043.043,0,1,1,.063.058c-.808.771-1.585,1.553-2.414,2.319-.4.375-.8.745-1.2,1.115a4.225,4.225,0,0,1-1.178.919A.421.421,0,0,1,307,231.579Z" transform="translate(-295.308 -155.665)" fill="#263238"/>
        <path id="Path_39056" data-name="Path 39056" d="M353.175,158.833l-14.565.18s1.87-16.055,3.883-23.044c1.69-5.875,5.209-5.336,7.142,2.251C351.463,145.394,353.175,158.833,353.175,158.833Z" transform="translate(-310.219 -110.734)" fill="#00a0ad"/>
        <path id="Path_39057" data-name="Path 39057" d="M354.341,159.919l-.048-.079a4.649,4.649,0,0,1-.977-2.932c0-.333.042-.935.438-1.057C353.982,157.468,354.193,158.863,354.341,159.919Zm-11.332-13.392a5.584,5.584,0,0,1,1.955-2.372c.444-.343,1.289-1.057,1.622-.211a1.585,1.585,0,0,1-.063,1,5.416,5.416,0,0,1-.872,1.68c-.46.634-1.236,1.479-2.113,1.379s-.75-.866-.528-1.469Zm5.182-4.438a5.31,5.31,0,0,1,1.057-3.127c.343-.4.761-.528,1.1-.3a2.146,2.146,0,0,1,.623,1.257,5.658,5.658,0,0,1-.4,3.17c-.28.623-.782,1.5-1.585,1.352-1.051-.158-.851-1.6-.814-2.34Zm-4.1.645c-.481-.338-.1-1.743.291-2.42.5-.866,1.347-1.86,2.113-1.543.391.159.5,1.183-.264,2.525-.7,1.252-1.754,1.717-2.14,1.447Zm-.861,14.908c-.079.386-.3,1.088-.74,1.231s-.629-.291-.708-.623a4.861,4.861,0,0,1-.116-1.585,1.586,1.586,0,0,1,.888-1.585c1.226-.37.787,2.071.676,2.573Z" transform="translate(-311.649 -113.827)" fill="#263238"/>
        <path id="Path_39058" data-name="Path 39058" d="M342.282,177.127a22.536,22.536,0,0,1,2.789-.211c.961-.053,1.923-.069,2.884-.09s4.786.042,5.742.058c.042,0,.037.074,0,.079-.961.053-4.781.269-5.721.285s-1.881.042-2.821.026a24.537,24.537,0,0,1-2.863-.1S342.255,177.133,342.282,177.127Z" transform="translate(-311.946 -131.881)" fill="#263238"/>
        <path id="Path_39059" data-name="Path 39059" d="M360.63,148.75c.349,1.479.66,2.969.956,4.459s.565,2.99.835,4.485.5,3,.718,4.5c.116.75.206,1.506.291,2.261s.169,1.516.19,2.282v.063h-.063l-1.469-.042,1.463-.079-.058.063c-.174-1.506-.438-3-.692-4.5l-.761-4.49c-.238-1.5-.528-3-.74-4.5S360.826,150.261,360.63,148.75Z" transform="translate(-320.606 -118.639)" fill="#263238"/>
        <path id="Path_39060" data-name="Path 39060" d="M361.8,150.27a5.144,5.144,0,0,1,.19,1.384,4.563,4.563,0,0,1-.19,1.384,12.271,12.271,0,0,1-.074-1.384A9.426,9.426,0,0,1,361.8,150.27Z" transform="translate(-321.123 -119.356)" fill="#263238"/>
      </g>
    </g>
  </g>
</svg>
