<svg xmlns="http://www.w3.org/2000/svg" width="256" height="256" viewBox="0 0 256 256">
  <g id="no_plan_illustration" transform="translate(-11739 -3344)">
    <rect id="Rectangle_10432" data-name="Rectangle 10432" width="256" height="256" transform="translate(11739 3344)" fill="none"/>
    <g id="House_searching-cuate" data-name="House searching-cuate" transform="translate(11677.888 3240.931)">
      <g id="freepik--Shadow--inject-263" transform="translate(78.628 323.662)">
        <ellipse id="Ellipse_997" data-name="Ellipse 997" cx="110.484" cy="7.312" rx="110.484" ry="7.312" fill="#ebebeb"/>
      </g>
      <g id="freepik--Table--inject-263" transform="translate(61.112 312.636)">
        <path id="Path_44330" data-name="Path 44330" d="M271.66,391.149l-32,.163-32,.061-64,.108-64-.108-32-.061-32-.163,32-.169,32-.061,64-.108,64,.108,32,.061Z" transform="translate(-15.66 -390.81)" fill="#263238"/>
      </g>
      <g id="freepik--Character--inject-263" transform="translate(61.112 123.069)">
        <path id="Path_44331" data-name="Path 44331" d="M237.159,234.088c11.466,11.927,45.911,65.007,48.594,66.593,0,0,0,34.716-19.184,27.784s-36.769-69.215-40.524-89.07C224.066,228.911,227.793,224.357,237.159,234.088Z" transform="translate(-101.237 -157.127)" fill="#d3766a"/>
        <path id="Path_44332" data-name="Path 44332" d="M232.648,273.485l35.157-4S246,240.558,234.728,230.23c-11.75-10.761-17.511-9.25-12.062,11.134C228.142,261.87,232.648,273.485,232.648,273.485Z" transform="translate(-99.647 -155.484)" fill="#00a0ad"/>
        <path id="Path_44333" data-name="Path 44333" d="M232.42,254.336a11,11,0,0,0-.732,3.029,12.042,12.042,0,0,0,2.216-5.76,10.517,10.517,0,0,0-1.484,2.731Zm19.747.793a10.9,10.9,0,0,0-3.022-.732,11.981,11.981,0,0,0,5.753,2.216,10.409,10.409,0,0,0-2.731-1.484ZM246.928,268.8a10.984,10.984,0,0,0-1.626-2.65,10.971,10.971,0,0,0,.895,2.975,10.319,10.319,0,0,0,1.613,2.656A11.066,11.066,0,0,0,246.928,268.8ZM226.3,224.756c-.176-.373-.352-.739-.556-1.1a3.719,3.719,0,0,0-.725,0c.163.495.346.969.549,1.443a10.66,10.66,0,0,0,1.62,2.656,11.053,11.053,0,0,0-.888-3Zm40.517,41.567-.678.271a11.167,11.167,0,0,0-2.663,1.62,11.053,11.053,0,0,0,2.988-.888c.271-.122.535-.251.8-.393ZM239.711,238.4a11.1,11.1,0,0,0-2.656,1.613,10.842,10.842,0,0,0,2.988-.881,10.992,10.992,0,0,0,2.656-1.62,10.842,10.842,0,0,0-3,.888Zm-2.358.061a1.3,1.3,0,0,0-.115.088h.122a.581.581,0,0,1-.02-.088Z" transform="translate(-101.072 -155.486)" fill="#fff"/>
        <path id="Path_44334" data-name="Path 44334" d="M240.862,286.439c.82-.19,1.681-.264,2.514-.379l2.589-.359c1.742-.244,3.49-.461,5.238-.678,3.5-.407,6.993-.833,10.5-1.179.962-.095,1.931-.19,2.894-.264s2.033-.075,3.049-.149a.047.047,0,0,1,0,.095c-.861.129-1.714.325-2.575.461s-1.775.258-2.663.366c-1.742.224-3.5.427-5.245.623-3.442.373-6.892.766-10.348,1.071l-2.887.244c-1.01.088-2.033.237-3.049.23a.047.047,0,0,1-.014-.081Z" transform="translate(-106.173 -174.761)" fill="#263238"/>
        <path id="Path_44335" data-name="Path 44335" d="M249.706,272.246l-17.05,1.938s-4.506-11.615-9.989-32.121c-2.311-8.647-2.6-13.9-1.274-16.264Z" transform="translate(-99.648 -156.184)" opacity="0.1"/>
        <path id="Path_44336" data-name="Path 44336" d="M222.063,383.215H168.59c-.44-1.721-.867-3.388-1.294-5.082-.488-1.918-.969-3.788-1.43-5.611-.1-.407-.21-.813-.312-1.213q-.529-2.094-1.037-4.066c-.2-.806-.407-1.6-.6-2.385s-.407-1.586-.6-2.351c-.054-.2-.1-.407-.156-.6l-.163-.678-.2-.793h0c-.075-.278-.142-.549-.21-.82-.136-.515-.264-1.023-.386-1.518-.19-.732-.373-1.45-.549-2.148-.075-.3-.156-.61-.23-.908-.129-.488-.251-.962-.366-1.43-.081-.312-.156-.617-.23-.915q-.474-1.843-.881-3.456c-.075-.285-.142-.562-.217-.833-.115-.468-.23-.915-.339-1.355q-.115-.407-.2-.793c-.237-.922-.454-1.762-.637-2.5-.054-.2-.1-.386-.149-.569-.122-.488-.237-.922-.332-1.308-.041-.156-.075-.3-.115-.44l-.108-.427a1.135,1.135,0,0,0-.068-.271l-.095-.366a.334.334,0,0,0-.041-.163l-.122-.481h52.05s1.714,5.909,4.459,15.437c.556,1.938,1.159,4.066,1.8,6.255C217.645,367.778,219.773,375.192,222.063,383.215Z" transform="translate(-79.311 -192.909)" fill="#37474f"/>
        <path id="Path_44337" data-name="Path 44337" d="M182.7,389.022H181.34q-2.968-12.286-5.753-24.619l-1.355-6-.122-.562a.081.081,0,0,1,.156-.041.626.626,0,0,0,.054.183q.9,3.226,1.8,6.458Q179.551,376.7,182.7,389.022Z" transform="translate(-84.661 -198.717)" fill="#263238"/>
        <path id="Path_44338" data-name="Path 44338" d="M207.873,339.737l-2.3,11.52-1.884,9.433-3.205,16.074-.332,1.647-.549,2.745-.427,2.06h-30.6c-.434-1.728-.867-3.388-1.288-5.082-.488-1.918-.969-3.788-1.43-5.611-.1-.407-.21-.813-.312-1.213q-.529-2.094-1.037-4.066c-.2-.806-.407-1.6-.6-2.385s-.407-1.586-.6-2.351c-.054-.2-.1-.407-.156-.6l-.163-.678-.2-.793h0c-.075-.278-.142-.549-.21-.82-.136-.515-.264-1.023-.386-1.518-.19-.732-.373-1.45-.549-2.148-.081-.312-.156-.61-.23-.908-.129-.488-.251-.962-.366-1.43-.081-.312-.156-.617-.23-.915q-.474-1.843-.881-3.456c-.075-.285-.142-.562-.217-.833-.115-.468-.23-.915-.339-1.355q-.115-.407-.2-.793c-.237-.922-.454-1.762-.637-2.5-.054-.2-.1-.386-.149-.569-.122-.488-.237-.922-.332-1.308-.041-.156-.075-.3-.115-.44l-.108-.427a1.135,1.135,0,0,0-.068-.271l-.095-.366a.334.334,0,0,0-.041-.163l-.122-.481Z" transform="translate(-79.311 -192.909)" fill="#263238"/>
        <path id="Path_44339" data-name="Path 44339" d="M196.478,339.7h0c0,.285-.217,3.388-.718,8.132-.142,1.355-.312,2.9-.508,4.527-.3,2.568-.678,5.421-1.152,8.4-.8,5.225-1.843,10.924-3.2,16.494-.481,2.033-1.01,3.991-1.572,5.936H122.14c.793-10.239,1.518-19.5,2.094-26.8.806-10.273,1.355-16.7,1.355-16.7h60.948Z" transform="translate(-67.909 -192.893)" fill="#37474f"/>
        <path id="Path_44340" data-name="Path 44340" d="M225.9,348.058c-.075,2.406-.176,4.8-.332,7.2-.163,2.6-.4,5.184-.739,7.773a.82.82,0,0,1-.034.285q-.474,3.639-1.091,7.258a26.246,26.246,0,0,1-1.667,6.777,6.607,6.607,0,0,1-1.572,2.121,4.642,4.642,0,0,1-2.148,1.111,2.6,2.6,0,0,1-.4.068H217.8a.149.149,0,0,1,.075.142,20.691,20.691,0,0,1-.095,2.426v.1c-.081.678-.21,1.389-.339,2.08h-1.152v-.041c.2-.759.373-1.525.562-2.29s.461-1.545.644-2.338a.156.156,0,0,1,.054-.075,3.585,3.585,0,0,1-3.47-2.175,6.228,6.228,0,0,1-.054-3.158c.21-1.355.413-2.751.623-4.127.393-2.528.9-5.028,1.355-7.542l.2-1.145c.9-5.116,1.843-10.233,2.975-15.3.041-.21.088-.42.136-.63s.258-.1.244.034c-.034.339-.068.678-.108,1.023q-.3,2.921-.678,5.814c-.325,2.27-.549,4.554-.867,6.824-.108.773-.217,1.545-.332,2.318-.522,3.734-1.064,7.454-1.7,11.188-.3,1.728-1.355,4.825,1.111,5.36a2.534,2.534,0,0,0,1.687-.21A5.3,5.3,0,0,0,220.985,376a38.765,38.765,0,0,0,1.321-6.221q.61-3.388,1.084-6.837h0q.61-4.276,1.274-8.545.332-2.175.678-4.351l.325-2.033C225.674,347.875,225.9,347.916,225.9,348.058Z" transform="translate(-97.471 -195.077)" fill="#263238"/>
        <path id="Path_44341" data-name="Path 44341" d="M143.814,366.479a33.883,33.883,0,0,0,8.288-1.118c1.247-.318,2.48-.718,3.707-1.118a9.615,9.615,0,0,0,3.348-1.681c1.884-1.626,2.758-4.181,3.578-6.458a62.463,62.463,0,0,0,2.162-7.84c0-.129.217-.081.224.041a30.379,30.379,0,0,1-1.132,8.9c-.678,2.46-1.586,5.2-3.571,6.919s-4.92,2.453-7.6,2.778a35,35,0,0,1-9.026-.122.149.149,0,0,1,.02-.3Z" transform="translate(-74.844 -195.635)" fill="#263238"/>
        <path id="Path_44342" data-name="Path 44342" d="M135.572,348.341q-.224,5.638-.474,11.29-.576,13.153-1.267,26.306h-1.26q.867-13.18,1.823-26.347.413-5.631.854-11.256a.163.163,0,1,1,.325.007Z" transform="translate(-71.271 -195.631)" fill="#263238"/>
        <path id="Path_44343" data-name="Path 44343" d="M205.551,328.543,114.4,321.631s18.337-72.678,54.544-99.4c9.257-6.824,19.388-2.446,23.948,2.656C204.48,237.887,205.822,328.251,205.551,328.543Z" transform="translate(-65.414 -153.904)" fill="#00a0ad"/>
        <path id="Path_44344" data-name="Path 44344" d="M174.233,227.014a11.27,11.27,0,0,0-.732,3.022,10.842,10.842,0,0,0,1.491-2.711,11.268,11.268,0,0,0,.732-3.022A11.066,11.066,0,0,0,174.233,227.014Zm-9.894,39.209a10.591,10.591,0,0,0-.725,3.029,12.123,12.123,0,0,0,2.209-5.76,10.937,10.937,0,0,0-1.484,2.731Zm-32.568,16.813a11.066,11.066,0,0,0-.732,3.029,12.042,12.042,0,0,0,2.216-5.76A11.412,11.412,0,0,0,131.771,283.035ZM158.057,307.8a10.442,10.442,0,0,0-.732,3.022,12.123,12.123,0,0,0,2.209-5.76A10.842,10.842,0,0,0,158.057,307.8Zm39.778-53.589a11.005,11.005,0,0,0-.732,3.029,12.041,12.041,0,0,0,2.216-5.76,10.517,10.517,0,0,0-1.484,2.745Zm-16.223,49.3a10.557,10.557,0,0,0-.739,3.022,10.721,10.721,0,0,0,1.484-2.711,11.019,11.019,0,0,0,.732-3.022,10.7,10.7,0,0,0-1.477,2.711Zm-32.846-51.142a10.958,10.958,0,0,0-.732,3.022,11.94,11.94,0,0,0,2.209-5.76A10.625,10.625,0,0,0,148.766,252.371Zm36.417-13.011a10.667,10.667,0,0,0-3.022-.732,10.841,10.841,0,0,0,2.711,1.477,10.6,10.6,0,0,0,3.029.732,10.74,10.74,0,0,0-2.717-1.477Zm10.327,32.67a10.782,10.782,0,0,0-3.022-.732,10.607,10.607,0,0,0,2.711,1.477,10.787,10.787,0,0,0,3.022.739,10.612,10.612,0,0,0-2.711-1.457Zm2.772,39.046a10.957,10.957,0,0,0-3.022-.732,10.625,10.625,0,0,0,2.711,1.484,11.079,11.079,0,0,0,3.022.732,11.038,11.038,0,0,0-2.711-1.457ZM133.4,307.864a10.9,10.9,0,0,0-3.022-.732,11.981,11.981,0,0,0,5.753,2.216,10.842,10.842,0,0,0-2.731-1.457Zm23.454-25.073a10.97,10.97,0,0,0-3.022-.739,10.884,10.884,0,0,0,2.711,1.491,11.268,11.268,0,0,0,3.022.732,10.841,10.841,0,0,0-2.711-1.464Zm34.865-58.163c-.095-.2-.19-.4-.291-.6h0c-.332-.251-.678-.495-1.05-.732a13.968,13.968,0,0,0,.61,1.667,10.66,10.66,0,0,0,1.62,2.656,11.053,11.053,0,0,0-.888-2.975ZM165.078,245.7a10.782,10.782,0,0,0-1.62-2.656,11.906,11.906,0,0,0,2.507,5.638,10.7,10.7,0,0,0-.888-2.982ZM188.6,325.89a10.965,10.965,0,0,0-1.613-2.656,10.924,10.924,0,0,0,.881,2.982,11.386,11.386,0,0,0,1.484,2.494h.108A10.768,10.768,0,0,0,188.6,325.89Zm-8.654-47.226a11.079,11.079,0,0,0-1.62-2.656,12.2,12.2,0,0,0,2.5,5.638A10.922,10.922,0,0,0,179.945,278.664Zm-62.086,36.01c-.041.142-.081.285-.129.42.088.095.169.2.251.291a6,6,0,0,0-.122-.691Zm27.106-18.08a10.957,10.957,0,0,0-1.62-2.65,11.92,11.92,0,0,0,2.507,5.631,11,11,0,0,0-.908-2.961Zm5.814,26.09a10.992,10.992,0,0,0-1.62-2.656,12.15,12.15,0,0,0,2.507,5.645,10.842,10.842,0,0,0-.908-2.961ZM196.365,291.3a11.127,11.127,0,0,0-2.656,1.62,12.15,12.15,0,0,0,5.645-2.507,10.841,10.841,0,0,0-3.009.908Zm-71.9,3.958-.346.935a9.588,9.588,0,0,0,2.033-1.321,8.475,8.475,0,0,0-1.708.407Zm46.473,22.579a10.883,10.883,0,0,0-2.656,1.613,11.04,11.04,0,0,0,2.988-.881,11.154,11.154,0,0,0,2.656-1.626,10.6,10.6,0,0,0-3.009.915Zm-41.56,6.045-.468.224,1.592.122a9.408,9.408,0,0,0,1.857-1.233,11.079,11.079,0,0,0-3,.908Zm15.965-55.723a11.52,11.52,0,0,0-2.656,1.62,12.15,12.15,0,0,0,5.645-2.5,10.841,10.841,0,0,0-3.009.9Zm23.365,25.954a11.018,11.018,0,0,0-2.656,1.626,12.069,12.069,0,0,0,5.645-2.507,11.04,11.04,0,0,0-3.009.9Zm12.2-35.678a11.351,11.351,0,0,0-2.656,1.62,11.987,11.987,0,0,0,5.638-2.5,10.993,10.993,0,0,0-3.022.9Z" transform="translate(-66.488 -155.378)" fill="#fff"/>
        <path id="Path_44345" data-name="Path 44345" d="M217.13,232.132c-5.259-.779-10.6-11.391-11.52-18.629-.061-.5,8.132-16.135,9.413-19.394.264-.678,18.534,13.119,18.534,13.119a55.441,55.441,0,0,0-6.959,11.757C226.441,219.459,222.212,232.877,217.13,232.132Z" transform="translate(-94.815 -145.961)" fill="#d3766a"/>
        <path id="Path_44346" data-name="Path 44346" d="M236.191,207.228a55.711,55.711,0,0,0-6.966,11.75c-.041.115-.312.956-.759,2.155-9.392-4.744-13.221-13.214-14.766-18.8,1.775-3.558,3.429-6.9,3.957-8.22C217.922,193.438,236.191,207.228,236.191,207.228Z" transform="translate(-97.423 -145.961)" fill="#263238"/>
        <path id="Path_44347" data-name="Path 44347" d="M221.672,153.881c-5.347,6.187-10.693,28.5-7.637,35.36,4.439,9.934,16.264,15.9,25.832,9.555,9.3-6.16,15.755-35.367,11.913-42.062C246.129,146.868,229.56,144.747,221.672,153.881Z" transform="translate(-97.244 -131.125)" fill="#d3766a"/>
        <path id="Path_44348" data-name="Path 44348" d="M244.68,182.072c-.678.054-1.355,0-2.033,0a3.287,3.287,0,0,1-2.08-.407,1.057,1.057,0,0,1-.258-1.26,2.609,2.609,0,0,1,2.4-1.111,3.836,3.836,0,0,1,2.629.84,1.125,1.125,0,0,1-.657,1.938Z" transform="translate(-105.966 -141.189)" fill="#263238"/>
        <path id="Path_44349" data-name="Path 44349" d="M244.76,188.221c0-.061-.136.047-.149.115-.251,1.525-.8,3.232-2.27,3.463a.044.044,0,0,0,0,.088C244.055,191.982,244.76,189.712,244.76,188.221Z" transform="translate(-106.642 -144.065)" fill="#263238"/>
        <path id="Path_44350" data-name="Path 44350" d="M243.184,185.459c-2.406-.678-3.571,4.195-1.355,4.811S245.2,186.022,243.184,185.459Z" transform="translate(-106.111 -143.16)" fill="#263238"/>
        <path id="Path_44351" data-name="Path 44351" d="M258.589,190.995c0-.054.1.1.088.163-.407,1.491-.623,3.273.617,4.066.041,0,0,.1-.034.081C257.654,194.708,257.966,192.35,258.589,190.995Z" transform="translate(-111.73 -144.961)" fill="#263238"/>
        <path id="Path_44352" data-name="Path 44352" d="M260.375,189.152c2.467.393,1.5,5.292-.786,4.927S258.308,188.82,260.375,189.152Z" transform="translate(-111.795 -144.366)" fill="#263238"/>
        <path id="Path_44353" data-name="Path 44353" d="M263.372,183.757a18.661,18.661,0,0,1-1.816-.969,3.3,3.3,0,0,1-1.66-1.355,1.057,1.057,0,0,1,.366-1.24,2.622,2.622,0,0,1,2.65.129,3.87,3.87,0,0,1,1.945,1.979,1.132,1.132,0,0,1-1.484,1.457Z" transform="translate(-112.291 -141.383)" fill="#263238"/>
        <path id="Path_44354" data-name="Path 44354" d="M238.409,207.458c.271.44.515,1.01,1.05,1.186a4.066,4.066,0,0,0,1.714,0,.054.054,0,0,1,.041.095,2.08,2.08,0,0,1-2.1.359,1.64,1.64,0,0,1-.867-1.613C238.246,207.4,238.368,207.391,238.409,207.458Z" transform="translate(-105.333 -150.257)" fill="#263238"/>
        <path id="Path_44355" data-name="Path 44355" d="M242.4,194.36a5.3,5.3,0,0,0,2.88,3.1,6.716,6.716,0,0,0,1.823.529,1.666,1.666,0,0,0,.359.041,2.752,2.752,0,0,0,.346,0,.373.373,0,0,0,.379-.264h0a1.357,1.357,0,0,0,0-.163h0v-.136c.3-1.152.617-2.941.617-2.941.373.312,2.3,1.8,2.412,1.186.9-5.082,1.9-10.734,1.721-15.986a.142.142,0,1,0-.285,0c-1.057,4.852-1.254,9.86-2.243,14.752a9.026,9.026,0,0,0-2.189-1.328c-.176,0-.535,3.47-.718,3.971a.3.3,0,0,1,0,.054c-2.033-.217-3.334-1.159-4.913-2.914C242.491,194.143,242.342,194.217,242.4,194.36Z" transform="translate(-106.671 -141.285)" fill="#263238"/>
        <path id="Path_44356" data-name="Path 44356" d="M245.986,204.244a6.268,6.268,0,0,1-2.887,1.3,2.812,2.812,0,0,1-1.687-.291c-1.125-.6-.895-1.714-.447-2.609a6.777,6.777,0,0,1,.888-1.315A8.091,8.091,0,0,0,245.986,204.244Z" transform="translate(-106.093 -148.296)" fill="#263238"/>
        <path id="Path_44357" data-name="Path 44357" d="M243.1,206.17a2.812,2.812,0,0,1-1.687-.291c-1.125-.6-.895-1.714-.447-2.609A2.909,2.909,0,0,1,243.1,206.17Z" transform="translate(-106.093 -148.922)" fill="#ff97b8"/>
        <path id="Path_44358" data-name="Path 44358" d="M253.566,162.705c-9.487,3.971-19.083-7.014-19.083-7.014a9.236,9.236,0,0,1-10.368,3.808s-4.554,13.736-8.267,12.909c-5.645-1.206-3.388-20.763-.834-24.165s7.569-3.388,7.569-3.388.955-2.853,5.008-4.8c4.473-2.155,16.941,4.6,16.941,4.6a12.638,12.638,0,0,1,4.371-3.9,3.564,3.564,0,0,1,4.933,1.511,8.484,8.484,0,0,0-2.08,3.185c-1.525,3.985,1.843,4.683,2.6.935a5.97,5.97,0,0,0-.515-4.12c2.168-2.1,5.048-2.331,6.424-.678C262.789,144.626,261.461,159.412,253.566,162.705Z" transform="translate(-96.983 -128.409)" fill="#263238"/>
        <path id="Path_44359" data-name="Path 44359" d="M236.676,193.281a6.546,6.546,0,1,1,8.532-5.821h0a6.553,6.553,0,0,1-8.532,5.821Zm3.741-11.622a5.686,5.686,0,1,0,3.746,6.833A5.739,5.739,0,0,0,240.417,181.659Z" transform="translate(-103.363 -141.582)" fill="#00a0ad"/>
        <path id="Path_44360" data-name="Path 44360" d="M258.731,197.358c-2.345-.881-3.564-4.066-2.711-7.393a7.773,7.773,0,0,1,2.446-4.107,4.066,4.066,0,0,1,6.777,1.681,7.847,7.847,0,0,1,.237,4.777c-.867,3.5-3.693,5.821-6.3,5.17A2.588,2.588,0,0,1,258.731,197.358Zm3.666-11.622-.318-.095a3.476,3.476,0,0,0-3.083.888,6.953,6.953,0,0,0-2.162,3.646c-.752,3.036.366,5.936,2.514,6.465s4.493-1.5,5.245-4.533a6.919,6.919,0,0,0-.2-4.235,3.585,3.585,0,0,0-1.992-2.135Z" transform="translate(-110.977 -142.921)" fill="#00a0ad"/>
        <path id="Path_44361" data-name="Path 44361" d="M250.7,191.145l-.42-.766c1.132-.63,3.6-1.281,4.838.678l-.745.461C253.268,189.763,250.8,191.084,250.7,191.145Z" transform="translate(-109.215 -144.563)" fill="#00a0ad"/>
        <path id="Path_44362" data-name="Path 44362" d="M207.9,184.2l-.678-.542c.258-.318,2.541-3.117,4.513-3.049,1.85.068,13.14,3.388,13.621,3.558l-.251.84c-3.239-.962-11.967-3.476-13.4-3.524C210.391,181.436,208.514,183.428,207.9,184.2Z" transform="translate(-95.335 -141.617)" fill="#00a0ad"/>
        <path id="Path_44363" data-name="Path 44363" d="M216.863,182.14s-1.823-8.728-5.591-8.355-4.4,11.6-1.389,14.468a3.957,3.957,0,0,0,5.713.136Z" transform="translate(-95.579 -139.413)" fill="#d3766a"/>
        <path id="Path_44364" data-name="Path 44364" d="M212.407,178.546c-.054-.034-.1.041-.061.088,2.08,2.087,2.4,4.981,2.3,7.786-.352-1.247-1.152-2.2-2.778-1.836-.081,0-.061.142,0,.163a2.419,2.419,0,0,1,2.128,1.836,11.873,11.873,0,0,1,.332,2.494.252.252,0,0,0,.5,0,.23.23,0,0,1,0-.068C216.276,185.878,215.707,180.335,212.407,178.546Z" transform="translate(-96.814 -140.949)" fill="#263238"/>
        <path id="Path_44365" data-name="Path 44365" d="M285.871,275.9c1.714-4.513,41.465,3.659,39.88,10.578-5.821,25.344-22.044,47.991-26.144,53.169-5.381,6.776-16.087,5.272-19.991,1.166C273.957,334.859,284.176,280.375,285.871,275.9Z" transform="translate(-118.126 -171.917)" fill="#d3766a"/>
        <path id="Path_44366" data-name="Path 44366" d="M283.158,294.853a51.645,51.645,0,0,0-2.094,7.454c-.576,2.507-1.077,5.028-1.484,7.563a114.057,114.057,0,0,0-1.355,15.491c-.075,2.9,0,5.794,0,8.694,0,.068.108.061.108,0,0-2.568.156-5.157.366-7.718s.468-5.17.8-7.739c.644-5.049,1.355-10.09,2.27-15.1q.379-2.107.793-4.2c.291-1.45.623-2.894.813-4.364C283.374,294.826,283.2,294.731,283.158,294.853Z" transform="translate(-118.212 -178.425)" fill="#263238"/>
        <path id="Path_44367" data-name="Path 44367" d="M258.835,162.184a70.21,70.21,0,0,1-1.545,10.253c-.129.576-.271,1.166-.413,1.748-.569,2.318-1.247,4.649-2.033,6.892q-.271.813-.569,1.606c-2.406,6.5-5.584,12.089-9.162,14.461a17.319,17.319,0,0,1-2.88,1.559,34.994,34.994,0,0,1-17.348-29.173l-1.084-.3c.169-.264.346-.535.515-.82s.379-.644.562-.983a34.974,34.974,0,0,1,9.88-23.291c8.518-2.29,18.717.983,23.006,8.457C258.807,154.445,259.126,157.928,258.835,162.184Z" transform="translate(-100.679 -129.628)" fill="#d3766a"/>
        <path id="Path_44368" data-name="Path 44368" d="M246.884,179.415a20.9,20.9,0,0,1-2.162,0,3.415,3.415,0,0,1-2.209-.434,1.111,1.111,0,0,1-.271-1.355,2.755,2.755,0,0,1,2.541-1.179,4.066,4.066,0,0,1,2.785.888,1.193,1.193,0,0,1-.684,2.08Z" transform="translate(-106.584 -140.273)" fill="#263238"/>
        <path id="Path_44369" data-name="Path 44369" d="M246.982,185.992c0-.061-.142.054-.156.115-.264,1.62-.847,3.429-2.406,3.673a.048.048,0,0,0,0,.095C246.237,189.942,246.982,187.537,246.982,185.992Z" transform="translate(-107.313 -143.346)" fill="#263238"/>
        <path id="Path_44370" data-name="Path 44370" d="M245.315,183.018c-2.548-.712-3.781,4.439-1.423,5.1S247.449,183.614,245.315,183.018Z" transform="translate(-106.75 -142.372)" fill="#263238"/>
        <path id="Path_44371" data-name="Path 44371" d="M261.635,188.875c0-.054.108.108.088.176-.434,1.579-.678,3.463.678,4.337.041,0,0,.108-.034.088C260.646,192.805,260.971,190.311,261.635,188.875Z" transform="translate(-112.703 -144.278)" fill="#263238"/>
        <path id="Path_44372" data-name="Path 44372" d="M263.524,186.922c2.609.42,1.579,5.611-.84,5.225S261.335,186.569,263.524,186.922Z" transform="translate(-112.768 -143.646)" fill="#263238"/>
        <path id="Path_44373" data-name="Path 44373" d="M266.694,181.22c-.678-.291-1.267-.678-1.918-1.023a3.537,3.537,0,0,1-1.762-1.416,1.118,1.118,0,0,1,.386-1.308,2.765,2.765,0,0,1,2.805.136,4.066,4.066,0,0,1,2.033,2.094,1.193,1.193,0,0,1-1.545,1.518Z" transform="translate(-113.295 -140.5)" fill="#263238"/>
        <path id="Path_44374" data-name="Path 44374" d="M240.255,206.317c.291.461.549,1.064,1.118,1.254a4.181,4.181,0,0,0,1.809,0,.061.061,0,0,1,.047.1,2.2,2.2,0,0,1-2.229.379,1.742,1.742,0,0,1-.915-1.708C240.079,206.249,240.208,206.249,240.255,206.317Z" transform="translate(-105.926 -149.888)" fill="#263238"/>
        <path id="Path_44375" data-name="Path 44375" d="M244.492,192.44a5.584,5.584,0,0,0,3.043,3.287,7.021,7.021,0,0,0,1.931.556,1.939,1.939,0,0,0,.386.047,2.872,2.872,0,0,0,.359,0,.4.4,0,0,0,.407-.278h0a.63.63,0,0,0,0-.163h0v-.142c.325-1.22.678-3.117.678-3.117.393.332,2.433,1.911,2.548,1.26.955-5.421,2.033-11.378,1.83-16.941a.149.149,0,1,0-.3,0c-1.125,5.137-1.355,10.443-2.379,15.586a9.792,9.792,0,0,0-2.379-1.355c-.183,0-.569,3.673-.759,4.208a.169.169,0,0,1,0,.054c-2.121-.23-3.531-1.22-5.2-3.09C244.58,192.217,244.424,192.291,244.492,192.44Z" transform="translate(-107.344 -140.389)" fill="#263238"/>
        <path id="Path_44376" data-name="Path 44376" d="M248.286,202.9a6.58,6.58,0,0,1-3.056,1.355,2.914,2.914,0,0,1-1.782-.312c-1.2-.637-.949-1.816-.474-2.758a7.135,7.135,0,0,1,.935-1.4,8.593,8.593,0,0,0,4.378,3.11Z" transform="translate(-106.733 -147.8)" fill="#263238"/>
        <path id="Path_44377" data-name="Path 44377" d="M245.219,204.95a2.914,2.914,0,0,1-1.782-.312c-1.2-.637-.949-1.816-.474-2.758A3.076,3.076,0,0,1,245.219,204.95Z" transform="translate(-106.729 -148.474)" fill="#ff97b8"/>
        <path id="Path_44378" data-name="Path 44378" d="M260.408,159.278c-.359.149-.718.278-1.071.386-9.7,3.009-19.144-7.82-19.144-7.82a9.779,9.779,0,0,1-10.978,4.066,63.908,63.908,0,0,1-3.856,9.02A35.021,35.021,0,0,1,241.868,136.3a67.243,67.243,0,0,1,9,3.917,13.417,13.417,0,0,1,4.635-4.127,3.775,3.775,0,0,1,5.225,1.592,9.128,9.128,0,0,0-2.2,3.388c-1.613,4.215,1.952,4.954,2.745.989a6.309,6.309,0,0,0-.542-4.371c2.3-2.216,5.347-2.46,6.777-.678C270.173,140.141,268.777,155.788,260.408,159.278Z" transform="translate(-101.182 -127.109)" fill="#263238"/>
        <path id="Path_44379" data-name="Path 44379" d="M244.971,179.379a6.9,6.9,0,0,0-3.991-1.586,6.582,6.582,0,0,0-1.321.047,6.926,6.926,0,0,0-5.231,3.625,5.649,5.649,0,0,0-.38.854,6.634,6.634,0,0,0-.413,1.952,6.946,6.946,0,0,0,4.791,7.034,7.279,7.279,0,0,0,1.694.319h.434a6.946,6.946,0,0,0,6.878-5.889c0-.2.047-.393.061-.6s0-.3,0-.44A6.905,6.905,0,0,0,244.971,179.379Zm-4.8,11.317a6,6,0,0,1-.759-11.886,5.9,5.9,0,0,1,1.511-.095,6.1,6.1,0,0,1,1.464.278,5.922,5.922,0,0,1,1.687.861,6,6,0,0,1-3.9,10.842Z" transform="translate(-103.845 -140.705)" fill="#00a0ad"/>
        <path id="Path_44380" data-name="Path 44380" d="M268.625,185.23l-.122-.291a4.791,4.791,0,0,0-2.033-2.257,3.788,3.788,0,0,0-.928-.366,3.985,3.985,0,0,0-1.443-.081,5.089,5.089,0,0,0-2.65,1.213,7.25,7.25,0,0,0-1.437,1.66,8.273,8.273,0,0,0-.752,1.464,7.154,7.154,0,0,0-.339,1.016,1.9,1.9,0,0,0-.061.21,8.4,8.4,0,0,0,.122,4.669,4.92,4.92,0,0,0,2.785,3.165c.142.054.285.095.434.136a4.323,4.323,0,0,0,3.3-.583,7.9,7.9,0,0,0,3.388-4.9A8.274,8.274,0,0,0,268.625,185.23Zm-.678,4.832a7.576,7.576,0,0,1-1.9,3.517,3.876,3.876,0,0,1-3.646,1.288c-2.277-.562-3.463-3.632-2.663-6.844a7.379,7.379,0,0,1,2.284-3.863,3.707,3.707,0,0,1,3.273-.942,2.7,2.7,0,0,1,.332.1,3.829,3.829,0,0,1,2.114,2.263,5.791,5.791,0,0,1,.325,1.1,7.827,7.827,0,0,1-.088,3.375Z" transform="translate(-111.893 -142.131)" fill="#00a0ad"/>
        <path id="Path_44381" data-name="Path 44381" d="M253.27,189.035l-.44-.813c1.2-.678,3.815-1.355,5.123.745l-.786.488C255.995,187.571,253.386,188.974,253.27,189.035Z" transform="translate(-110.037 -143.855)" fill="#00a0ad"/>
        <path id="Path_44382" data-name="Path 44382" d="M231.753,182.425l-.264.888-.617-.183c-1.525-.447-3.775-1.1-6.018-1.721l-1.084-.3c.169-.264.346-.535.515-.82l.549.156c2.711.745,5.333,1.511,6.417,1.83Z" transform="translate(-100.669 -141.514)" fill="#00a0ad"/>
        <g id="Group_19827" data-name="Group 19827" transform="translate(124.147 3.902)" opacity="0.3">
          <path id="Path_44383" data-name="Path 44383" d="M267.793,197.922a34.953,34.953,0,1,1,26.618-41.648A34.953,34.953,0,0,1,267.793,197.922Z" transform="translate(-225.315 -128.826)" fill="#fff"/>
          <path id="Path_44384" data-name="Path 44384" d="M231.67,205.18a34.974,34.974,0,0,0,47.171,14.034Z" transform="translate(-227.363 -153.439)" fill="#ebebeb"/>
          <path id="Path_44385" data-name="Path 44385" d="M233.15,147.37,297.757,166.6a35.148,35.148,0,0,0-.813-8.261,34.241,34.241,0,0,0-3.287-8.918l-47.693-14.2a34.98,34.98,0,0,0-12.814,12.15Z" transform="translate(-227.84 -130.887)" fill="#ebebeb"/>
          <path id="Path_44386" data-name="Path 44386" d="M225.591,183.168l61.538,18.3a35.286,35.286,0,0,0,3.856-5.672l-65.529-19.5a33.8,33.8,0,0,0,.136,6.878Z" transform="translate(-225.323 -144.126)" fill="#ebebeb"/>
          <path id="Path_44387" data-name="Path 44387" d="M229.85,158.845l66.41,19.767c.068-.42.129-.84.176-1.26L230.379,157.7C230.2,158.073,230.013,158.452,229.85,158.845Z" transform="translate(-226.777 -138.134)" fill="#ebebeb"/>
          <path id="Path_44388" data-name="Path 44388" d="M268.38,129.379l29.478,8.769c-.766-.712-1.572-1.355-2.406-2.033L271.511,129A30.667,30.667,0,0,0,268.38,129.379Z" transform="translate(-239.197 -128.882)" fill="#ebebeb"/>
        </g>
        <rect id="Rectangle_10317" data-name="Rectangle 10317" width="9.189" height="40.408" transform="translate(180.41 114.23) rotate(167.58)" fill="#ebebeb"/>
        <path id="Path_44389" data-name="Path 44389" d="M296.382,153.577a38.857,38.857,0,1,0-29.593,46.3,38.857,38.857,0,0,0,29.593-46.3Zm-30.44,42.489a34.953,34.953,0,1,1,26.611-41.648,34.953,34.953,0,0,1-26.611,41.648Z" transform="translate(-99.315 -123.069)" fill="#455a64"/>
        <path id="Path_44390" data-name="Path 44390" d="M296.9,317.466l13.573-2.988h0l-7.7-34.987-13.58,2.988h0Z" transform="translate(-121.761 -173.491)" fill="#263238"/>
        <path id="Path_44391" data-name="Path 44391" d="M297.178,162.893a.813.813,0,0,1-.034-.122c-.163-.583.176.562.054.183s-.3-.915-.468-1.355a29.667,29.667,0,0,0-2.168-4.54c-.115-.2-.244-.407-.359-.61-.041-.068.3.474,0,.047l-.237-.366c-.312-.468-.63-.928-.962-1.355a27.823,27.823,0,0,0-2.392-2.819l-.623-.623c-.285-.278.332.3-.061-.054l-.393-.359c-.508-.44-1.03-.867-1.572-1.274s-1.186-.854-1.8-1.24c-.285-.176-.569-.346-.861-.508-.5-.291.217.1-.156-.088l-.535-.271a27.54,27.54,0,0,0-5.055-1.9h-.088l-.19-.041-.779-.169c-.508-.1-1.01-.19-1.525-.264a32.266,32.266,0,0,0-3.246-.3,2.312,2.312,0,1,1,.522-4.594,29.139,29.139,0,0,1,18.676,7.542,31.849,31.849,0,0,1,7.807,11.432,23.191,23.191,0,0,1,.989,2.975,2.318,2.318,0,0,1-1.925,2.643,2.365,2.365,0,0,1-2.643-1.925Z" transform="translate(-116.111 -128.61)" fill="#fff"/>
        <path id="Path_44392" data-name="Path 44392" d="M310.7,182.462a2.277,2.277,0,1,0,1.891-2.6,2.277,2.277,0,0,0-1.891,2.6Z" transform="translate(-128.682 -141.368)" fill="#fff"/>
        <path id="Path_44393" data-name="Path 44393" d="M320.151,281.346s9.7-15.952-2.379-31.172c-4.974-6.262-16.711-17.49-40.524-15.925-5.652.373-13.438,4.906-3.991,7.651,6.709,1.952,11.554,1.159,15.254,3,0,0-9.223,6.946-8.627,12.591.264,2.521.461,8.03,1.918,13.275,0,0,1.911,1.355,3.463,1.125,0,0,4.181,12.062,19.218,15.769Z" transform="translate(-115.197 -158.86)" fill="#d3766a"/>
        <path id="Path_44394" data-name="Path 44394" d="M312.083,252.454c-3.89-1.552-12.2-4.7-19.889-4.913-8.545-.237-25.073,1.613-25.175,7.922-.081,4.628,6.289,4.472,6.289,4.472s-6.668,2.2-5.821,6.4c.766,3.822,5.686,3.388,5.686,3.388s-3.815,2.033-2.365,5.57c1.742,4.256,9.446-.678,14.908,2.087C286.976,278.028,312.083,252.454,312.083,252.454Z" transform="translate(-114.611 -163.186)" fill="#d3766a"/>
        <path id="Path_44395" data-name="Path 44395" d="M296.406,260.744c-3.9-.854-13.255-.529-20.045,3.178-.156.081-.176.244,0,.2a84.2,84.2,0,0,1,20.045-3.293C296.467,260.825,296.467,260.791,296.406,260.744Z" transform="translate(-117.582 -167.322)" fill="#263238"/>
        <path id="Path_44396" data-name="Path 44396" d="M295.814,273.606c-3.442-.393-13.072.373-19.821,4.364-.156.088-.163.251,0,.2a89.961,89.961,0,0,1,19.835-4.479.041.041,0,0,0-.014-.081Z" transform="translate(-117.465 -171.565)" fill="#263238"/>
        <path id="Path_44397" data-name="Path 44397" d="M315.235,307.059a41.3,41.3,0,0,1-9.907-3.747,27.566,27.566,0,0,1-8.206-6.776c-.678-.847-1.355-1.728-1.945-2.629s-1.24-1.925-1.938-2.819c-.054-.068-.183,0-.142.061a31.316,31.316,0,0,0,2.887,5.374,22.012,22.012,0,0,0,3.619,4.3,24.741,24.741,0,0,0,9.487,5.259,33.575,33.575,0,0,0,6.1,1.1C315.289,307.215,315.33,307.079,315.235,307.059Z" transform="translate(-123.014 -177.22)" fill="#263238"/>
        <path id="Path_44398" data-name="Path 44398" d="M155.512,236c-17.456,23.44-46.589,84.53-50.871,93.516-2.907,6.1,28.963,22.159,30.311,17.727,1.735-5.679,30.23-80.641,34.221-107.97C171.356,224.289,161.55,227.887,155.512,236Z" transform="translate(-62.208 -157.207)" fill="#d3766a"/>
        <path id="Path_44399" data-name="Path 44399" d="M115.717,390.3c-.739,5.523-4.493,16.65-7.285,18.351s-17.463,1.355-24.856,1.355-8.809-2.067-8.721-4.608,15.633-3.029,15.633-3.029-20.723,5.909-25.934,6.905-17.212,4-18.974-.318c-.779-1.952,2.507-3.924,2.507-3.924s-5.035,1.471-5.841-1.03c-.908-2.853,3.1-4.418,3.1-4.418s-3.151.63-3.226-1.694c-.136-5.218,19.571-7.766,19.571-7.766S46.6,397.473,46.1,393.23c-.678-5.862,30.25-12.293,33.469-14.847a60.312,60.312,0,0,0,6.553-6.363Z" transform="translate(-42.112 -203.318)" fill="#d3766a"/>
        <path id="Path_44400" data-name="Path 44400" d="M90.51,420.031a2.291,2.291,0,0,1,.678-1.979,6.439,6.439,0,0,1,1.8-1.166,24.174,24.174,0,0,1,4.235-1.355c2.914-.739,5.9-1.26,8.877-2.033A36.425,36.425,0,0,0,97,414.515a16.724,16.724,0,0,0-4.357,1.667,5.9,5.9,0,0,0-1.823,1.559A2.358,2.358,0,0,0,90.51,420.031Z" transform="translate(-57.659 -216.687)" fill="#263238"/>
        <path id="Path_44401" data-name="Path 44401" d="M51,417.138c2.135-.522,4.235-1.118,6.329-1.728s4.181-1.247,6.268-1.877l6.241-1.952c2.08-.678,4.161-1.3,6.261-1.931a48.667,48.667,0,0,0-6.472,1.159c-2.141.488-4.242,1.1-6.336,1.735s-4.168,1.355-6.214,2.114S52.965,416.216,51,417.138Z" transform="translate(-44.977 -215.448)" fill="#263238"/>
        <path id="Path_44402" data-name="Path 44402" d="M69.754,402a40.383,40.383,0,0,0-5.977.827,54.423,54.423,0,0,0-5.848,1.5,53.1,53.1,0,0,0-5.658,2.114,41.726,41.726,0,0,0-5.36,2.765c1.9-.678,3.761-1.389,5.652-2.033s3.775-1.281,5.679-1.864,3.808-1.159,5.726-1.721S67.809,402.542,69.754,402Z" transform="translate(-43.659 -212.982)" fill="#263238"/>
        <path id="Path_44403" data-name="Path 44403" d="M67.446,394.72a37.21,37.21,0,0,0-9.487,2.033A37.036,37.036,0,0,0,49.21,401c3.063-1.091,6.045-2.243,9.087-3.26S64.356,395.716,67.446,394.72Z" transform="translate(-44.4 -210.635)" fill="#263238"/>
        <path id="Path_44404" data-name="Path 44404" d="M173.923,274.641l-35.373-.976s19.279-30.684,29.607-41.94c10.781-11.723,16.65-10.714,12.97,10.056C177.42,262.694,173.923,274.641,173.923,274.641Z" transform="translate(-73.199 -155.672)" fill="#00a0ad"/>
        <path id="Path_44405" data-name="Path 44405" d="M157.186,269.428a11.519,11.519,0,0,0-2.656,1.62,12.15,12.15,0,0,0,5.645-2.5A10.842,10.842,0,0,0,157.186,269.428Zm19.754-22.471a10.782,10.782,0,0,0-1.62-2.656,11.906,11.906,0,0,0,2.507,5.638,10.7,10.7,0,0,0-.888-2.982Zm-16.311,6.668a10.958,10.958,0,0,0-.732,3.022,11.94,11.94,0,0,0,2.209-5.76,10.625,10.625,0,0,0-1.477,2.738Zm15.586,13.851a10.591,10.591,0,0,0-.725,3.029,12.123,12.123,0,0,0,2.209-5.76,10.937,10.937,0,0,0-1.5,2.731Zm10.368-40.286c-.169.352-.325.712-.474,1.077a11.269,11.269,0,0,0-.732,3.022,10.842,10.842,0,0,0,1.491-2.711c.034-.088.061-.169.088-.258a7.108,7.108,0,0,0-.386-1.132Z" transform="translate(-78.35 -156.632)" fill="#fff"/>
        <path id="Path_44406" data-name="Path 44406" d="M174.643,289.173c-.84-.122-1.7-.122-2.541-.163l-2.609-.142q-2.629-.129-5.279-.21c-3.524-.108-7.041-.23-10.558-.278h-2.907c-.969,0-2.033.1-3.049.108-.061,0-.054.095,0,.095.867.054,1.735.183,2.609.237s1.782.108,2.677.142c1.762.068,3.524.129,5.286.169,3.463.081,6.932.176,10.4.183h2.941c1.01,0,2.033.054,3.049-.034C174.684,289.261,174.7,289.18,174.643,289.173Z" transform="translate(-76.134 -176.357)" fill="#263238"/>
        <path id="Path_44407" data-name="Path 44407" d="M195.973,262.7c0-.068-.081-.108-.115-.041a26.727,26.727,0,0,0-1.681,3.761c.122-.617.264-1.233.379-1.857.386-1.992.739-4,1.132-5.99a.061.061,0,0,0-.115,0c-.915,3.429-1.979,6.824-2.792,10.28s-1.633,6.912-2.392,10.382c-.413,1.918-.786,4.31-1.206,6.221-1.023.122-2.338,0-3.442.142-.095,0-.068.169,0,.169,1.166.034,2.555.3,3.781.224.156,0,3.124-12.326,4.357-18.229C194.638,266.079,195.343,264.4,195.973,262.7Z" transform="translate(-88.391 -166.734)" fill="#263238"/>
        <path id="Path_44408" data-name="Path 44408" d="M226.085,232.457c-.495,1.62-1.057,3.219-1.7,4.784a25.86,25.86,0,0,1-1.972,4.066c-1.464,2.311-3.714,4.222-6.566,4.215a9.5,9.5,0,0,1-6.926-3.578,28.555,28.555,0,0,1-4.29-7.576c-.678-1.633-1.355-3.3-1.9-4.988-.278-.854-.569-1.708-.813-2.575s-.454-1.742-.752-2.589c0-.068-.149-.061-.129,0,.5,1.952,1.958,8.132,2.541,9.7a29.743,29.743,0,0,0,4.208,8.281,10.787,10.787,0,0,0,7.292,4.31,7.822,7.822,0,0,0,7.163-3.639,19.074,19.074,0,0,0,2.236-4.791c.63-1.857,1.159-3.761,1.64-5.665C226.146,232.444,226.085,232.437,226.085,232.457Z" transform="translate(-93.342 -155.658)" fill="#263238"/>
      </g>
      <g id="Group_19835" data-name="Group 19835" transform="translate(203.113 223.312)">
        <rect id="Rectangle_10419" data-name="Rectangle 10419" width="108.424" height="40.659" transform="translate(0)" fill="#ebebeb"/>
        <rect id="Rectangle_10421" data-name="Rectangle 10421" width="33.883" height="4.066" transform="translate(40.659 4.066)" fill="#dbdbdb"/>
        <rect id="Rectangle_10422" data-name="Rectangle 10422" width="13.553" height="5.421" transform="translate(40.659 31.172)" fill="#c7c7c7"/>
        <rect id="Rectangle_10423" data-name="Rectangle 10423" width="63.699" height="2.711" transform="translate(40.659 13.556)" fill="#dbdbdb"/>
        <rect id="Rectangle_10424" data-name="Rectangle 10424" width="48.791" height="2.711" transform="translate(40.659 16.707)" fill="#dbdbdb"/>
        <g id="Group_19835-2" data-name="Group 19835" transform="translate(4.066 4.066)">
          <rect id="Rectangle_10431" data-name="Rectangle 10431" width="32.527" height="32.527" transform="translate(0)" fill="#fff"/>
          <g id="freepik--Shield--inject-404" transform="translate(3.388 2.711)">
            <path id="Path_44830" data-name="Path 44830" d="M415.041,54.967s-1.881,12.6-4.973,15.432c-3.722,3.4-6.4,2.9-7.9,4.658-1.5-1.758-4.192-1.257-7.908-4.66-3.092-2.833-4.967-15.432-4.967-15.432a58.272,58.272,0,0,0,12.884-7.014h0A57.346,57.346,0,0,0,415.041,54.967Z" transform="translate(-389.29 -47.95)" fill="#f16522"/>
            <path id="Path_44831" data-name="Path 44831" d="M402.292,47.962V75.056c-1.515-1.758-4.233-1.257-7.986-4.66-3.123-2.833-5.016-15.432-5.016-15.432A59,59,0,0,0,402.3,47.95Z" transform="translate(-389.29 -47.95)" opacity="0.1"/>
            <path id="Path_44832" data-name="Path 44832" d="M396.26,62.914S397.821,74,400.391,76.495c3.1,2.994,5.332,2.557,6.577,4.1,1.246-1.542,3.486-1.1,6.574-4.1,2.57-2.495,4.131-13.581,4.131-13.581a48.014,48.014,0,0,1-10.708-6.174A47.688,47.688,0,0,1,396.26,62.914Z" transform="translate(-394.092 -55.114)" fill="#f16522"/>
            <path id="Path_44833" data-name="Path 44833" d="M445.092,62.931s-1.584,11.087-4.187,13.585c-3.125,2.994-5.394,2.558-6.656,4.1V56.76A48.583,48.583,0,0,0,445.092,62.931Z" transform="translate(-421.51 -55.134)" fill="#fff" opacity="0.2"/>
            <path id="Path_45119" data-name="Path 45119" d="M5.082,0A5.082,5.082,0,1,1,0,5.082,5.082,5.082,0,0,1,5.082,0Z" transform="translate(7.771 8.471)" fill="#465a65"/>
            <path id="Path_44834" data-name="Path 44834" d="M427.087,99.567l-1.878-1.482.561-.807,1.154.94,2.484-2.988.68.608Z" transform="translate(-414.773 -83.845)" fill="#fff"/>
            <path id="Path_44847" data-name="Path 44847" d="M422.708,87.41a.108.108,0,1,0,.108.108.108.108,0,0,0-.108-.108Z" transform="translate(-413.451 -76.712)" fill="#00a0ad"/>
          </g>
        </g>
      </g>
      <g id="Group_19836" data-name="Group 19836" transform="translate(203.113 269.392)">
        <rect id="Rectangle_10419-2" data-name="Rectangle 10419" width="108.424" height="40.659" transform="translate(0 0)" fill="#ebebeb"/>
        <rect id="Rectangle_10421-2" data-name="Rectangle 10421" width="33.883" height="4.066" transform="translate(40.659 4.066)" fill="#dbdbdb"/>
        <rect id="Rectangle_10422-2" data-name="Rectangle 10422" width="13.553" height="5.421" transform="translate(40.659 31.172)" fill="#c7c7c7"/>
        <rect id="Rectangle_10423-2" data-name="Rectangle 10423" width="63.699" height="2.711" transform="translate(40.659 13.556)" fill="#dbdbdb"/>
        <rect id="Rectangle_10424-2" data-name="Rectangle 10424" width="48.791" height="2.711" transform="translate(40.659 16.707)" fill="#dbdbdb"/>
        <g id="Group_19835-3" data-name="Group 19835" transform="translate(4.066 4.066)">
          <rect id="Rectangle_10431-2" data-name="Rectangle 10431" width="32.527" height="32.527" transform="translate(0)" fill="#fff"/>
          <g id="freepik--Shield--inject-404-2" data-name="freepik--Shield--inject-404" transform="translate(3.388 2.711)">
            <path id="Path_44830-2" data-name="Path 44830" d="M415.041,54.967s-1.881,12.6-4.973,15.432c-3.722,3.4-6.4,2.9-7.9,4.658-1.5-1.758-4.192-1.257-7.908-4.66-3.092-2.833-4.967-15.432-4.967-15.432a58.272,58.272,0,0,0,12.884-7.014h0A57.346,57.346,0,0,0,415.041,54.967Z" transform="translate(-389.29 -47.95)" fill="#f16522"/>
            <path id="Path_44831-2" data-name="Path 44831" d="M402.292,47.962V75.056c-1.515-1.758-4.233-1.257-7.986-4.66-3.123-2.833-5.016-15.432-5.016-15.432A59,59,0,0,0,402.3,47.95Z" transform="translate(-389.29 -47.95)" opacity="0.1"/>
            <path id="Path_44832-2" data-name="Path 44832" d="M396.26,62.914S397.821,74,400.391,76.495c3.1,2.994,5.332,2.557,6.577,4.1,1.246-1.542,3.486-1.1,6.574-4.1,2.57-2.495,4.131-13.581,4.131-13.581a48.014,48.014,0,0,1-10.708-6.174A47.688,47.688,0,0,1,396.26,62.914Z" transform="translate(-394.092 -55.114)" fill="#f16522"/>
            <path id="Path_44833-2" data-name="Path 44833" d="M445.092,62.931s-1.584,11.087-4.187,13.585c-3.125,2.994-5.394,2.558-6.656,4.1V56.76A48.583,48.583,0,0,0,445.092,62.931Z" transform="translate(-421.51 -55.134)" fill="#fff" opacity="0.2"/>
            <path id="Path_45119-2" data-name="Path 45119" d="M5.082,0A5.082,5.082,0,1,1,0,5.082,5.082,5.082,0,0,1,5.082,0Z" transform="translate(7.771 8.471)" fill="#465a65"/>
            <path id="Path_44834-2" data-name="Path 44834" d="M427.087,99.567l-1.878-1.482.561-.807,1.154.94,2.484-2.988.68.608Z" transform="translate(-414.773 -83.845)" fill="#fff"/>
            <path id="Path_44847-2" data-name="Path 44847" d="M422.708,87.41a.108.108,0,1,0,.108.108.108.108,0,0,0-.108-.108Z" transform="translate(-413.451 -76.712)" fill="#00a0ad"/>
          </g>
        </g>
      </g>
    </g>
  </g>
</svg>
