<svg xmlns="http://www.w3.org/2000/svg" width="576" height="576" viewBox="0 0 576 576">
  <g id="Open_fd" data-name="Open fd" transform="translate(14828 -10317)">
    <g id="Rectangle_9677" data-name="Rectangle 9677" transform="translate(-14828 10317)" fill="#fff" stroke="#707070" stroke-width="1" opacity="0">
      <rect width="576" height="576" stroke="none"/>
      <rect x="0.5" y="0.5" width="575" height="575" fill="none"/>
    </g>
    <g id="Manage_money-cuate_1_" data-name="Manage money-cuate (1)" transform="translate(-14847.786 10288.985)">
      <g id="freepik--Table--inject-13" transform="translate(57.572 567.059)">
        <path id="Path_34680" data-name="Path 34680" d="M56.11,454.317c158.33-.777,335.933-.79,494.263,0-158.33.79-335.933.778-494.263,0Z" transform="translate(-56.11 -453.729)" fill="#263238"/>
      </g>
      <g id="freepik--Calculator--inject-13" transform="translate(399.078 212.066)">
        <rect id="Rectangle_9633" data-name="Rectangle 9633" width="128.339" height="199.525" transform="translate(38.246 1.351) rotate(8.37)" fill="#263238"/>
        <rect id="Rectangle_9634" data-name="Rectangle 9634" width="128.339" height="199.525" transform="translate(29.045 0) rotate(8.37)" fill="#37474f"/>
        <rect id="Rectangle_9635" data-name="Rectangle 9635" width="24.676" height="24.676" transform="translate(31.414 51.8) rotate(8.37)" fill="#dbdbdb"/>
        <rect id="Rectangle_9636" data-name="Rectangle 9636" width="24.676" height="24.676" transform="translate(59.077 55.872) rotate(8.37)" fill="#dbdbdb"/>
        <rect id="Rectangle_9637" data-name="Rectangle 9637" width="24.676" height="24.676" transform="translate(86.754 59.946) rotate(8.37)" fill="#e27e2b"/>
        <rect id="Rectangle_9638" data-name="Rectangle 9638" width="24.676" height="24.676" transform="translate(114.416 64.032) rotate(8.37)" fill="#e27e2b"/>
        <rect id="Rectangle_9639" data-name="Rectangle 9639" width="24.676" height="24.676" transform="translate(27.292 79.795) rotate(8.37)" fill="#a6a6a6"/>
        <rect id="Rectangle_9640" data-name="Rectangle 9640" width="24.676" height="24.676" transform="translate(54.968 83.882) rotate(8.37)" fill="#a6a6a6"/>
        <rect id="Rectangle_9641" data-name="Rectangle 9641" width="24.676" height="24.676" transform="translate(82.632 87.943) rotate(8.37)" fill="#a6a6a6"/>
        <rect id="Rectangle_9642" data-name="Rectangle 9642" width="24.676" height="24.676" transform="translate(110.271 92.188) rotate(8.37)" fill="#dbdbdb"/>
        <rect id="Rectangle_9643" data-name="Rectangle 9643" width="24.676" height="24.676" transform="translate(23.171 107.806) rotate(8.37)" fill="#a6a6a6"/>
        <rect id="Rectangle_9644" data-name="Rectangle 9644" width="24.676" height="24.676" transform="translate(50.846 111.88) rotate(8.37)" fill="#a6a6a6"/>
        <rect id="Rectangle_9645" data-name="Rectangle 9645" width="24.676" height="24.676" transform="translate(78.51 115.952) rotate(8.37)" fill="#a6a6a6"/>
        <rect id="Rectangle_9646" data-name="Rectangle 9646" width="24.676" height="24.676" transform="translate(106.173 120.026) rotate(8.37)" fill="#dbdbdb"/>
        <rect id="Rectangle_9647" data-name="Rectangle 9647" width="24.676" height="24.676" transform="translate(19.049 135.816) rotate(8.37)" fill="#a6a6a6"/>
        <rect id="Rectangle_9648" data-name="Rectangle 9648" width="24.676" height="24.676" transform="translate(46.712 139.888) rotate(8.37)" fill="#a6a6a6"/>
        <rect id="Rectangle_9649" data-name="Rectangle 9649" width="24.676" height="24.676" transform="translate(74.389 143.949) rotate(8.37)" fill="#a6a6a6"/>
        <rect id="Rectangle_9650" data-name="Rectangle 9650" width="24.676" height="24.676" transform="translate(102.064 148.023) rotate(8.37)" fill="#dbdbdb"/>
        <rect id="Rectangle_9651" data-name="Rectangle 9651" width="24.676" height="24.676" transform="translate(14.927 163.812) rotate(8.37)" fill="#a6a6a6"/>
        <rect id="Rectangle_9652" data-name="Rectangle 9652" width="24.676" height="24.676" transform="translate(42.603 167.886) rotate(8.37)" fill="#a6a6a6"/>
        <rect id="Rectangle_9653" data-name="Rectangle 9653" width="24.676" height="24.676" transform="translate(70.267 171.96) rotate(8.37)" fill="#dbdbdb"/>
        <rect id="Rectangle_9654" data-name="Rectangle 9654" width="24.676" height="24.676" transform="translate(97.93 176.032) rotate(8.37)" fill="#dbdbdb"/>
        <path id="Path_34681" data-name="Path 34681" d="M354.288,224.9h0a1.7,1.7,0,1,1,3.352.472h0a1.721,1.721,0,0,1-1.95,1.568,1.7,1.7,0,0,1-1.4-2.039Zm2.447.357h0a.943.943,0,0,0-.625-1.16c-.484-.064-.841.357-.918.9h0c-.089.574.166,1.083.625,1.147S356.647,225.809,356.736,225.261Zm-1.988,4.563,5.557-5.646a.408.408,0,0,1,.37-.14.421.421,0,0,1,.357.459.549.549,0,0,1-.14.255l-5.6,5.685a.415.415,0,0,1-.727-.319.535.535,0,0,1,.178-.293Zm3.3-.65h0a1.708,1.708,0,1,1,3.365.472h0a1.7,1.7,0,1,1-3.352-.472Zm2.447.37h0c.089-.574-.166-1.083-.625-1.147s-.829.344-.918.892h0c-.089.586.178,1.083.637,1.147s.828-.344.9-.892Z" transform="translate(-315.748 -161.996)" fill="#37474f"/>
        <path id="Path_34682" data-name="Path 34682" d="M395.485,232.675a3.824,3.824,0,0,1,6.5-1.976.586.586,0,0,1-.841.816,2.625,2.625,0,0,0-1.555-.8,2.689,2.689,0,0,0-1.937.472,2.549,2.549,0,0,0-1.007,1.657,2.472,2.472,0,0,0,.484,1.874,2.689,2.689,0,0,0,1.721,1.007,2.625,2.625,0,0,0,1.721-.319.625.625,0,0,1,.79.229.612.612,0,0,1-.217.8,3.913,3.913,0,0,1-2.46.446A3.824,3.824,0,0,1,395.485,232.675Z" transform="translate(-304.432 -160.296)" fill="#37474f"/>
        <path id="Path_34683" data-name="Path 34683" d="M401.522,236.766l.879-6a.561.561,0,0,1,.637-.472h0l3.288.484a.574.574,0,0,1-.166,1.134l-2.753-.408-.268,1.861,2.358.344a.6.6,0,0,1,.484.65.586.586,0,0,1-.65.484l-2.358-.344-.28,1.861,2.753.408a.573.573,0,0,1-.166,1.134l-3.288-.484h0a.548.548,0,0,1-.472-.65Z" transform="translate(-302.77 -160.092)" fill="#37474f"/>
        <path id="Path_34684" data-name="Path 34684" d="M419.556,236.217a3.812,3.812,0,0,1,6.5-1.976.612.612,0,0,1,0,.828.586.586,0,0,1-.828,0,2.613,2.613,0,0,0-1.555-.79,2.689,2.689,0,0,0-1.937.459,2.549,2.549,0,0,0-.523,3.543,2.728,2.728,0,0,0,1.721.994,2.55,2.55,0,0,0,1.721-.319.624.624,0,0,1,.79.229.612.612,0,0,1-.217.8,3.823,3.823,0,0,1-5.672-3.773Z" transform="translate(-297.823 -159.327)" fill="#37474f"/>
        <path id="Path_34685" data-name="Path 34685" d="M356.669,247.175l-3.429,5.634a.612.612,0,0,1-.777.191.6.6,0,0,1-.191-.778l2.957-4.894-2.613-.382a.573.573,0,0,1,.166-1.134l3.48.523h.1l.2.115h0a.167.167,0,0,0,0,.064h0a.723.723,0,0,1,0,.229Z" transform="translate(-316.331 -155.83)" fill="#fff"/>
        <path id="Path_34686" data-name="Path 34686" d="M377.986,254.228a2.46,2.46,0,1,1-3.48-2.549,1.644,1.644,0,0,1-.178-1.058,1.7,1.7,0,0,1,3.352.5,1.644,1.644,0,0,1-.484.956,2.46,2.46,0,0,1,.79,2.154Zm-1.109-.166a1.054,1.054,0,1,1,0-.025Zm-1.44-3.3a.574.574,0,1,0,1.134.166.548.548,0,0,0-.472-.637.561.561,0,0,0-.663.472Z" transform="translate(-310.576 -154.891)" fill="#fff"/>
        <path id="Path_34687" data-name="Path 34687" d="M395.122,254.457a2.493,2.493,0,0,1,4.958.446h0v.586a6.208,6.208,0,0,1-.663,2.027,3.62,3.62,0,0,1-1.568,1.555,2.893,2.893,0,0,1-1.593.242.561.561,0,0,1-.51-.625.586.586,0,0,1,.625-.51,1.836,1.836,0,0,0,1.007-.14,1.961,1.961,0,0,0,.739-.612l.178-.242a2.421,2.421,0,0,1-1.007,0A2.549,2.549,0,0,1,395.122,254.457Zm1.134.166a1.351,1.351,0,1,0,2.664.4,1.351,1.351,0,1,0-2.677-.344Z" transform="translate(-304.527 -154.038)" fill="#fff"/>
        <path id="Path_34688" data-name="Path 34688" d="M417,258.414a.6.6,0,0,1,.688-.523l3.161.459a.612.612,0,0,1,.51.7.586.586,0,0,1-.676.51l-3.174-.459a.612.612,0,0,1-.51-.688Z" transform="translate(-298.518 -152.514)" fill="#37474f"/>
        <path id="Path_34689" data-name="Path 34689" d="M353.548,273.386a.586.586,0,0,1-.65.484h-.1l-.115.777a.567.567,0,1,1-1.122-.166l.115-.777-3.187-.459h0a.484.484,0,0,1-.331-.166.561.561,0,0,1,0-.8l4.448-4.117h.4a.165.165,0,0,0,0,.064h0l-.6,4.117h.7a.574.574,0,0,1,.446,1.045Zm-1.338-3.327-2.4,2.205,2.027.306Z" transform="translate(-317.468 -149.692)" fill="#fff"/>
        <path id="Path_34690" data-name="Path 34690" d="M374.157,274.076a2.551,2.551,0,0,1-2.422,4.04h0a2.549,2.549,0,0,1-1.67-.994.574.574,0,0,1,.127-.816.586.586,0,0,1,.816.115,1.274,1.274,0,0,0,.9.548,1.376,1.376,0,0,0,1.032-.255,1.4,1.4,0,0,0,.548-.9,1.351,1.351,0,0,0-.268-1.045,1.4,1.4,0,0,0-1.937-.28.574.574,0,0,1-.816-.127l-.089-.14v-.166h0a.751.751,0,0,1,0-.178l.688-2.549a.7.7,0,0,1,.319-.37h.076a.623.623,0,0,1,.268,0l3.008.446a.561.561,0,0,1,.484.663.574.574,0,0,1-.663.484l-2.549-.37-.268.981a3.224,3.224,0,0,1,.7,0A2.549,2.549,0,0,1,374.157,274.076Z" transform="translate(-311.437 -148.929)" fill="#fff"/>
        <path id="Path_34691" data-name="Path 34691" d="M396.588,279.216a2.549,2.549,0,0,1-4.958-.472h0a2.467,2.467,0,0,1,.064-.574,5.98,5.98,0,0,1,.663-2.039,3.658,3.658,0,0,1,1.568-1.542,3,3,0,0,1,1.593-.255.574.574,0,0,1,.51.625.6.6,0,0,1-.637.51,1.937,1.937,0,0,0-.994.153,2.1,2.1,0,0,0-.752.612c0,.077-.115.153-.166.242a2.422,2.422,0,0,1,1.007,0,2.473,2.473,0,0,1,2.1,2.74Zm-1.122-.166a1.353,1.353,0,1,0-1.536,1.141A1.353,1.353,0,0,0,395.467,279.05Z" transform="translate(-305.484 -148.002)" fill="#fff"/>
        <path id="Path_34692" data-name="Path 34692" d="M414.017,281.046A.528.528,0,1,1,414.17,280l4.1.6a.523.523,0,0,1,.446.612.535.535,0,0,1-.6.446Zm3.148-2.256h0a.714.714,0,0,1-1.4-.217h0a.688.688,0,0,1,.79-.561.7.7,0,0,1,.612.777Zm-.625,4.232h0a.688.688,0,0,1-.8.574.7.7,0,0,1-.6-.777h0a.688.688,0,0,1,.8-.574.7.7,0,0,1,.6.777Z" transform="translate(-299.46 -146.989)" fill="#37474f"/>
        <path id="Path_34693" data-name="Path 34693" d="M348.893,290.517l-.879,6a.6.6,0,0,1-.663.472.561.561,0,0,1-.472-.637l.739-5.009-.446.178a.484.484,0,0,1-.293,0,.586.586,0,0,1-.14-1.1l1.364-.548h.4a.114.114,0,0,1,0,.064h0a.167.167,0,0,0,0,.077Z" transform="translate(-317.899 -143.728)" fill="#fff"/>
        <path id="Path_34694" data-name="Path 34694" d="M371.32,299.914a.548.548,0,0,1-.637.472l-3.607-.523h0a.535.535,0,0,1-.4-.242.574.574,0,0,1,.153-.79l3.4-2.282a1.327,1.327,0,0,0-1.479-2.2l-.357.242a.561.561,0,0,1-.79-.166.574.574,0,0,1,.166-.79l.357-.229a2.467,2.467,0,1,1,2.74,4.1l-2.18,1.453,2.167.319a.548.548,0,0,1,.459.637Z" transform="translate(-312.361 -142.877)" fill="#fff"/>
        <path id="Path_34695" data-name="Path 34695" d="M392.686,299.251a2.55,2.55,0,1,1-4.091,3.046.579.579,0,0,1,.93-.688,1.351,1.351,0,0,0,.9.535,1.376,1.376,0,0,0,1.032-.255,1.351,1.351,0,0,0,.548-.918,1.275,1.275,0,0,0-.255-1.02,1.4,1.4,0,0,0-.9-.548.548.548,0,0,1-.4-.242h0a.6.6,0,0,1,.1-.816l1.2-.9-1.644-.242a.574.574,0,0,1-.484-.663.561.561,0,0,1,.65-.484l3,.433a.6.6,0,0,1,.268,1.045l-1.479,1.134a2.549,2.549,0,0,1,.625.586Z" transform="translate(-306.348 -142.035)" fill="#fff"/>
        <path id="Path_34696" data-name="Path 34696" d="M414.67,302.177l-1.453,1.491.956,1.848a.535.535,0,0,1-.2.714.484.484,0,0,1-.344.064.6.6,0,0,1-.408-.28l-.816-1.542-1.275,1.275a.548.548,0,0,1-.446.166.484.484,0,0,1-.306-.166.51.51,0,0,1,0-.739l1.466-1.5-.969-1.848a.523.523,0,0,1,.217-.7.548.548,0,0,1,.727.217l.816,1.517,1.211-1.211a.574.574,0,0,1,.79,0,.535.535,0,0,1,.038.7Z" transform="translate(-300.38 -140.704)" fill="#37474f"/>
        <path id="Path_34697" data-name="Path 34697" d="M344.19,316.292a.765.765,0,0,1,.65.867.79.79,0,0,1-.879.65.767.767,0,1,1,.229-1.517Z" transform="translate(-318.753 -136.478)" fill="#fff"/>
        <path id="Path_34698" data-name="Path 34698" d="M363.345,318.116a4.487,4.487,0,0,1,1.045-2.32,2.345,2.345,0,0,1,2.065-.854,2.32,2.32,0,0,1,1.708,1.4,4.7,4.7,0,0,1-.714,4.869,2.167,2.167,0,0,1-3.824-.561,4.486,4.486,0,0,1-.28-2.536Zm4.015.6a3.518,3.518,0,0,0-.217-1.886c-.242-.472-.548-.727-.854-.752a1.275,1.275,0,0,0-1.058.472,3.3,3.3,0,0,0-.752,1.733,3.353,3.353,0,0,0,.217,1.874,1.048,1.048,0,0,0,1.912.28,3.365,3.365,0,0,0,.752-1.721Z" transform="translate(-313.27 -136.849)" fill="#fff"/>
        <path id="Path_34699" data-name="Path 34699" d="M385.8,320.239a.612.612,0,0,1,.7-.5l3.11.459a.6.6,0,0,1,.51.676.586.586,0,0,1-.676.5l-3.123-.459a.612.612,0,0,1-.522-.675Zm-.268,1.874a.6.6,0,0,1,.688-.51l3.123.459a.612.612,0,0,1-.178,1.211l-3.123-.459a.612.612,0,0,1-.51-.7Z" transform="translate(-307.16 -135.53)" fill="#37474f"/>
        <path id="Path_34700" data-name="Path 34700" d="M409.014,325.182l-1.44-.217a.548.548,0,0,1-.472-.637.574.574,0,0,1,.637-.484l1.44.217.2-1.415a.586.586,0,0,1,.676-.484.573.573,0,0,1,.484.663l-.2,1.415,1.44.2a.567.567,0,1,1-.166,1.122l-1.44-.217-.2,1.415a.586.586,0,0,1-.663.5.573.573,0,0,1-.5-.663Z" transform="translate(-301.237 -134.866)" fill="#37474f"/>
        <path id="Path_34701" data-name="Path 34701" d="M383.342,227.892a.446.446,0,0,1-.5.382l-1.275-.191c-.752,1.4-2.664,5.1-3.135,6.118a.8.8,0,0,1-.268.306.471.471,0,0,1-.319.076.523.523,0,0,1-.37-.242s-1.173-1.53-1.517-2.052c-.51-.765-.2-1.045-.1-1.083a.459.459,0,0,1,.255,0,.689.689,0,0,1,.357.2l.37.523.319.421.293.4.331.446c.472-.981,2.549-4.818,3.034-5.774h0a.663.663,0,0,1,.14-.127.459.459,0,0,1,.344-.1l1.67.242A.446.446,0,0,1,383.342,227.892Z" transform="translate(-309.865 -160.943)" fill="#37474f"/>
        <rect id="Rectangle_9655" data-name="Rectangle 9655" width="108.57" height="25.976" transform="translate(37.287 11.881) rotate(8.37)" fill="#fff"/>
      </g>
      <g id="freepik--Chart--inject-13" transform="translate(77.825 56.406)">
        <rect id="Rectangle_9656" data-name="Rectangle 9656" width="176.697" height="225.922" transform="translate(0.317 16.557) rotate(-5.32)" fill="#fff"/>
        <path id="Path_34702" data-name="Path 34702" d="M269.231,278.2c-.076.064-176,16.493-176.06,16.57S72.064,69.711,72,69.673v-.319h.306c.14,0,176-16.213,176.137-16.264s20.763,225.03,20.8,225.145Zm0,0L248.086,53.256c1.275.2-176.073,16.7-175.729,16.7l.293-.344L93.426,294.575c-.918-.153,176.022-16.379,175.805-16.379Z" transform="translate(-72 -53.09)" fill="#263238"/>
        <path id="Path_34703" data-name="Path 34703" d="M97.86,132.917c40.417-4.385,85.844-8.629,126.389-11.777C183.819,125.537,138.392,129.769,97.86,132.917Z" transform="translate(-64.899 -34.404)" fill="#263238"/>
        <path id="Path_34704" data-name="Path 34704" d="M98.45,139.257c40.417-4.385,85.844-8.629,126.389-11.777C184.409,131.877,138.982,136.109,98.45,139.257Z" transform="translate(-64.737 -32.663)" fill="#263238"/>
        <path id="Path_34705" data-name="Path 34705" d="M99,145.6c40.417-4.4,85.844-8.629,126.389-11.777C184.959,138.217,139.532,142.436,99,145.6Z" transform="translate(-64.586 -30.922)" fill="#263238"/>
        <path id="Path_34706" data-name="Path 34706" d="M99.63,151.927c40.417-4.385,85.844-8.629,126.389-11.777C185.589,144.547,140.162,148.779,99.63,151.927Z" transform="translate(-64.413 -29.184)" fill="#263238"/>
        <path id="Path_34707" data-name="Path 34707" d="M157.29,191.86c19.119-2.422,39.181-4.283,58.389-5.43C196.56,188.839,176.485,190.725,157.29,191.86Z" transform="translate(-48.58 -16.475)" fill="#263238"/>
        <path id="Path_34708" data-name="Path 34708" d="M157.89,198.173c19.119-2.422,39.168-4.283,58.377-5.443C197.148,195.152,177.073,197.025,157.89,198.173Z" transform="translate(-48.415 -14.745)" fill="#263238"/>
        <path id="Path_34709" data-name="Path 34709" d="M158.48,204.543c19.119-2.422,39.168-4.283,58.377-5.443C197.738,201.509,177.663,203.4,158.48,204.543Z" transform="translate(-48.253 -12.996)" fill="#263238"/>
        <path id="Path_34710" data-name="Path 34710" d="M159.07,210.87c19.119-2.422,39.168-4.283,58.377-5.43C198.328,207.849,178.265,209.735,159.07,210.87Z" transform="translate(-48.091 -11.255)" fill="#263238"/>
        <path id="Path_34711" data-name="Path 34711" d="M159.66,217.173c19.119-2.422,39.168-4.283,58.377-5.443C198.918,214.152,178.855,216.025,159.66,217.173Z" transform="translate(-47.929 -9.528)" fill="#263238"/>
        <path id="Path_34712" data-name="Path 34712" d="M100.22,157.207c23.657-2.83,49.709-5.277,73.544-6.857C150.108,153.192,124.055,155.627,100.22,157.207Z" transform="translate(-64.251 -26.383)" fill="#263238"/>
        <path id="Path_34713" data-name="Path 34713" d="M101.4,170.937c40.43-4.385,85.844-8.629,126.389-11.777-40.43,4.4-85.844,8.629-126.389,11.777Z" transform="translate(-63.927 -23.964)" fill="#263238"/>
        <path id="Path_34714" data-name="Path 34714" d="M102,177.277c40.43-4.4,85.844-8.629,126.389-11.777C187.959,169.9,142.545,174.116,102,177.277Z" transform="translate(-63.762 -22.223)" fill="#263238"/>
        <path id="Path_34715" data-name="Path 34715" d="M102.58,183.607c40.43-4.385,85.844-8.629,126.389-11.777C188.539,176.227,143.125,180.459,102.58,183.607Z" transform="translate(-63.603 -20.484)" fill="#263238"/>
        <rect id="Rectangle_9657" data-name="Rectangle 9657" width="0.637" height="11.79" transform="translate(84.295 178.159) rotate(-5.33)" fill="#263238"/>
        <path id="Path_34716" data-name="Path 34716" d="M138.633,193.813a1.671,1.671,0,1,1,.153-.013Zm0-2.549h-.089a.969.969,0,0,0-.867,1.058.943.943,0,0,0,1.045.867.956.956,0,0,0,.879-1.045.969.969,0,0,0-.969-.9Z" transform="translate(-54.165 -15.332)" fill="#263238"/>
        <rect id="Rectangle_9658" data-name="Rectangle 9658" width="14.275" height="0.65" transform="translate(88.231 175.239) rotate(-5.32)" fill="#263238"/>
        <rect id="Rectangle_9659" data-name="Rectangle 9659" width="8.081" height="0.65" transform="translate(88.338 176.521) rotate(-5.32)" fill="#263238"/>
        <path id="Path_34717" data-name="Path 34717" d="M94.75,85.381l61.5-5.838c20.508-1.874,41.017-3.824,61.525-5.634q-30.705,3.021-61.525,5.85Z" transform="translate(-65.753 -47.373)" fill="#c7c7c7"/>
        <path id="Path_34718" data-name="Path 34718" d="M95,87.919l61.512-5.838c20.521-1.874,41.017-3.824,61.538-5.621q-30.762,2.944-61.525,5.787Z" transform="translate(-65.684 -46.673)" fill="#c7c7c7"/>
        <path id="Path_34719" data-name="Path 34719" d="M95.23,90.469l61.512-5.838c20.508-1.874,41.017-3.824,61.538-5.621-20.508,2-41.017,3.824-61.512,5.838Z" transform="translate(-65.621 -45.972)" fill="#c7c7c7"/>
        <path id="Path_34720" data-name="Path 34720" d="M95.46,92.985l61.525-5.774C177.493,85.337,198,83.387,218.51,81.59c-20.5,2-41,3.824-61.512,5.838Z" transform="translate(-65.558 -45.264)" fill="#c7c7c7"/>
        <path id="Path_34721" data-name="Path 34721" d="M95.7,95.539,157.263,89.7c20.521-1.874,41.017-3.824,61.538-5.621-20.5,2-41,3.824-61.512,5.838Z" transform="translate(-65.492 -44.58)" fill="#c7c7c7"/>
        <path id="Path_34722" data-name="Path 34722" d="M95.94,98.1l61.512-5.889c20.508-1.874,41.017-3.824,61.538-5.621-20.508,2-41.017,3.824-61.512,5.838Z" transform="translate(-65.426 -43.891)" fill="#c7c7c7"/>
        <path id="Path_34723" data-name="Path 34723" d="M96.17,100.631l61.525-5.838C178.2,92.92,198.711,90.97,219.22,89.16c-20.5,2-41,3.824-61.512,5.838Z" transform="translate(-65.363 -43.185)" fill="#c7c7c7"/>
        <path id="Path_34724" data-name="Path 34724" d="M96.41,103.171l61.512-5.838c20.521-1.874,41.017-3.824,61.538-5.634-20.5,2-41,3.824-61.512,5.838Z" transform="translate(-65.297 -42.488)" fill="#c7c7c7"/>
        <path id="Path_34725" data-name="Path 34725" d="M96.65,105.711l61.512-5.838C178.67,98,199.179,96.05,219.7,94.24c-20.508,2-41.017,3.888-61.512,5.838Z" transform="translate(-65.231 -41.79)" fill="#c7c7c7"/>
        <path id="Path_34726" data-name="Path 34726" d="M96.88,108.251l61.525-5.838c20.508-1.874,41.017-3.824,61.525-5.634-20.5,2-41,3.824-61.512,5.838Z" transform="translate(-65.168 -41.093)" fill="#c7c7c7"/>
        <path id="Path_34727" data-name="Path 34727" d="M97.12,110.791l61.512-5.838c20.521-1.874,41.017-3.824,61.538-5.634-20.5,2-41,3.9-61.512,5.838Z" transform="translate(-65.102 -40.395)" fill="#c7c7c7"/>
        <path id="Path_34728" data-name="Path 34728" d="M97.36,113.331l61.512-5.838c20.508-1.874,41.017-3.824,61.538-5.634-20.508,2.014-41.017,3.9-61.512,5.838Z" transform="translate(-65.036 -39.698)" fill="#c7c7c7"/>
        <path id="Path_34729" data-name="Path 34729" d="M97.6,115.871l61.512-5.838c20.508-1.874,41.017-3.824,61.538-5.634-20.508,2.039-40.966,3.9-61.525,5.863Z" transform="translate(-64.97 -39)" fill="#c7c7c7"/>
        <path id="Path_34730" data-name="Path 34730" d="M97.83,118.409l61.512-5.838c20.521-1.874,41.029-3.824,61.538-5.621-20.5,2-41,3.824-61.512,5.838Z" transform="translate(-64.907 -38.3)" fill="#c7c7c7"/>
        <path id="Path_34731" data-name="Path 34731" d="M98.07,120.949l61.512-5.838c20.508-1.874,41.017-3.824,61.538-5.621-20.5,2-41.017,3.888-61.512,5.838Z" transform="translate(-64.841 -37.603)" fill="#c7c7c7"/>
        <rect id="Rectangle_9660" data-name="Rectangle 9660" width="9.368" height="26.563" transform="translate(44.113 59.483) rotate(-5.32)" fill="#00a0ae"/>
        <rect id="Rectangle_9661" data-name="Rectangle 9661" width="9.368" height="37.792" transform="translate(60.39 46.676) rotate(-5.32)" fill="#455a64"/>
        <rect id="Rectangle_9662" data-name="Rectangle 9662" width="9.368" height="29.698" transform="translate(78.451 53.127) rotate(-5.32)" fill="#a6a6a6"/>
        <rect id="Rectangle_9663" data-name="Rectangle 9663" width="9.368" height="39.576" transform="translate(94.842 41.685) rotate(-5.32)" fill="#00a0ae"/>
        <rect id="Rectangle_9664" data-name="Rectangle 9664" width="9.368" height="34.261" transform="translate(112.646 45.357) rotate(-5.32)" fill="#455a64"/>
        <rect id="Rectangle_9665" data-name="Rectangle 9665" width="9.368" height="14.849" transform="translate(131.752 63.08) rotate(-5.32)" fill="#a6a6a6"/>
        <path id="Path_34732" data-name="Path 34732" d="M97.21,80.88,98.663,93.7l1.364,12.822q1.377,12.829,2.549,25.683l-.637-.344,29.915-2.8,29.94-2.74,29.94-2.664,29.94-2.549-29.9,3.021-29.826,2.932-29.928,2.83-29.979,2.779h-.6v-.4c-.778-8.565-1.542-17.131-2.218-25.709L98.217,93.779Z" transform="translate(-65.077 -45.459)" fill="#c7c7c7"/>
        <rect id="Rectangle_9666" data-name="Rectangle 9666" width="9.368" height="0.548" transform="translate(46.84 88.634) rotate(-5.32)" fill="#c7c7c7"/>
        <rect id="Rectangle_9667" data-name="Rectangle 9667" width="9.368" height="0.548" transform="translate(64.142 87.036) rotate(-5.32)" fill="#c7c7c7"/>
        <rect id="Rectangle_9668" data-name="Rectangle 9668" width="9.368" height="0.548" transform="translate(81.456 85.412) rotate(-5.32)" fill="#c7c7c7"/>
        <rect id="Rectangle_9669" data-name="Rectangle 9669" width="9.368" height="0.548" transform="translate(98.771 83.802) rotate(-5.32)" fill="#c7c7c7"/>
        <rect id="Rectangle_9670" data-name="Rectangle 9670" width="9.368" height="0.548" transform="translate(116.072 82.191) rotate(-5.32)" fill="#c7c7c7"/>
        <rect id="Rectangle_9671" data-name="Rectangle 9671" width="9.368" height="0.548" transform="translate(133.386 80.568) rotate(-5.32)" fill="#c7c7c7"/>
        <path id="Path_34733" data-name="Path 34733" d="M149.35,212.683h-.127l-1.134-.293h0l-.65-.153h-.076l-1.032-.255h-.089l-.637-.153h-.089l-1.185-.293h-.1l-.714-.178H143.4l-.879-.217h-.127l-.778-.191h-.127l-1.083-.268h-.1l-.828-.2h-.1l-.79-.191h-.089l-.9-.217H137.5l-.778-.191h-.076l-1.1-.268h-.076l-1.147-.293h0l-.892-.217h0l-1.147-.28h0l-.956-.242h0l-1.007-.242.9-.4h0l1.045-.446h0l.892-.4h0l1.147-.484h0l.765-.319h.064l1.682-.714h.076l.421-.178h.089l1.644-.7h.1l.357-.153h.1l1.7-.714h.127l.37-.153.127-.064,1.772-.752h.127l.2-.089h.127l1.95-.841h.4l1.937-.828a.637.637,0,0,1,.064.166h0v.14h0v.166a20.9,20.9,0,0,1,1.134,4.283h0v.166h0a19.394,19.394,0,0,1,.178,2.014v.4h0A21.782,21.782,0,0,1,149.35,212.683Z" transform="translate(-55.986 -12.444)" fill="#c7c7c7"/>
        <path id="Path_34734" data-name="Path 34734" d="M130.84,207.7l.115.663h0l-.1-.637Zm1.045-.446v1.351h0v-1.377Zm.981-.421h0l.293,2.052h0Zm1.147-.484v2.779h0V206.3Zm.892-.4h-.064l.421,3.441h.076Zm1.606,1.555-.076,2.205h.076l.076-2.231.076-2.307h-.076Zm.663-2.549h-.089l.2,4.907h.089Zm1.109,5.188h.089l.548-5.952h-.1Zm.994-6.08-.115,6.3h.1l.115-6.373Zm1.8-.765-.981,7.291h.1l1.007-7.38h-.127Zm.5-.217-.293,7.8h.127l.293-7.9Zm1.9-.816-1.275,8.846h.127l1.275-8.922Zm.331-.14-.612,9.228h.115l.625-9.3Zm2.078-.892-1.861,10.324h.1l1.874-10.388Zm.293-.115-.867,10.758h.089l.943-10.719Zm2.167-.574v-.14L146.1,212.06h.089l2.218-11.535Zm0,0-1.2,11.752h.076L148.4,200.69s-.025-.013-.051-.076Zm1.275,4.627v-.166l-1.67,7.469h0l1.644-7.3Zm.178,2.027-.688,5.583h0l.637-5.2h0a.732.732,0,0,0,.025-.319Z" transform="translate(-55.843 -12.636)" fill="#dbdbdb"/>
        <path id="Path_34735" data-name="Path 34735" d="M149.756,211.222l-1.606-.025-19.31-4.767,1.606.025Z" transform="translate(-56.392 -10.983)" fill="#a6a6a6"/>
        <path id="Path_34736" data-name="Path 34736" d="M130.446,208.144l-1.606-.026,18.329-7.839,1.593.025Z" transform="translate(-56.392 -12.672)" fill="#a6a6a6"/>
        <path id="Path_34737" data-name="Path 34737" d="M120.41,191.259l1.759,20.394,18.545-7.953a19.833,19.833,0,0,0-20.3-12.44Z" transform="translate(-58.707 -15.174)" fill="#37474f"/>
        <path id="Path_34738" data-name="Path 34738" d="M120.977,191.2l-.5,1.058v-.115l.446-.93Zm.612,0-.969,2.8v.153l1.02-2.957Zm2.218,0-2.906,5.952v.166l2.983-6.093Zm.5,0-3.161,8.833v.2l3.212-8.922Zm2.09,2.218.918-1.682h-.1l-.9,1.657-2.7,4.945-2.243,4.079v.178l2.32-4.219Zm1.058-1.644-5.889,12.975v.217l5.952-13.09Zm2.549.854-8.285,13.281v.178l8.349-13.332Zm.229.1-8.3,15.716v.229l8.387-15.894Zm2.192,1.122-10.439,15.206v.2l10.528-15.3Zm.255.166-9.47,17.105.229-.1,9.368-16.927Zm1.937,1.364-10.923,15.588.268-.115,10.732-15.3Zm.229.178-8.374,14.161.2-.076,8.272-14.021Zm1.733,1.619-9.139,12.134.242-.1,8.922-11.943Zm.28.293-6.373,10.554.178-.076,6.373-10.388Zm1.44,1.759-6.271,8.119.191-.089,6.131-7.953Zm.217.306-4.448,6.934.153-.064,4.346-6.794Zm1.275,2.014-3.148,3.824h.153l3.034-3.7Zm.217.408-1.835,2.766.115-.064,1.759-2.626s-.1.025-.115,0Z" transform="translate(-58.688 -15.165)" fill="#263238"/>
        <path id="Path_34739" data-name="Path 34739" d="M125.785,207.23l-18.545,7.953a20.2,20.2,0,0,0,20.3,12.44,19.987,19.987,0,0,0,6.156-1.568,19.718,19.718,0,0,0,11.752-14.212Z" transform="translate(-62.323 -10.764)" fill="#00a0ae"/>
        <path id="Path_34740" data-name="Path 34740" d="M107.583,213.47l-1.593.14a20.164,20.164,0,0,0,20.3,12.427l1.593-.127a20.2,20.2,0,0,1-20.3-12.44Z" transform="translate(-62.666 -9.05)" fill="#00a0ae"/>
        <g id="Group_18837" data-name="Group 18837" transform="translate(43.324 204.42)" opacity="0.1">
          <path id="Path_34741" data-name="Path 34741" d="M107.583,213.47l-1.593.14a20.164,20.164,0,0,0,20.3,12.427l1.593-.127a20.2,20.2,0,0,1-20.3-12.44Z" transform="translate(-105.99 -213.47)"/>
        </g>
        <path id="Path_34742" data-name="Path 34742" d="M107.91,214.745v2.09h0v-2.065Zm2.09-.892-1.185,4.589h0L110,213.827Zm.752-.319-.331,7.049h0l.319-7.087Zm1.275-.574-1.275,8.017h0l1.275-8.055Zm.523-.217-.166,9.865h0l.153-9.916Zm1.568-.676-1.389,10.847h0l1.389-10.9Zm.382-.166.178,12.453h0l-.2-12.517Zm.5,12.657h0L116,211.2h0Zm1.5-13.523,1.275,14.951h.076l-1.275-15Zm1.44,15.053h.076l.28-15.843h-.076Zm.727-15.983h-.076l1.7,16.748h.089Zm1.8,16.837h.089l-.178-17.526h-.1Zm.153-17.666h-.1l2.243,18.1h.115Zm2.345,18.163h.115l-.472-19.03h-.127Zm2.549.153-2.664-19.285h-.127l2.651,19.259h.268l-1.185-20.011h-.14Zm2.549-.255-3.314-19.858-.14.064,3.339,19.935h.255l-1.377-19.973h-.14Zm-.918-19.807h-.127l3.645,19.463h.115Zm1.479.357,2.154,19.055h.1l-2.141-18.991Zm.357.076h-.115l4.525,18.1h0Zm4,14.5-.9-5.315-1.5-8.807h-.1l1.517,8.922.9,5.315.459,2.651.14.841h.089l-.14-.816Zm-2.09-14.021H130.8l5.455,16.162h.076Zm2.205.523,3.39,15.461h0l-3.378-15.41Zm.408.089h.013l4.984,14.021h0Zm4.894,1.16,2.32,10.617h0l-2.307-10.566Zm.472.115h0l3.569,8.285h0Zm-3.212-.765,3.072,13.218h0l-3.072-13.167Zm2.243,4.792-1.631-4.232-.178-.459h-.025l.191.484L137.9,214.4l2.613,6.717h0Zm2.294-3.722,2.384,7.648h0Zm.421.1h0l2.919,5.914h0Zm1.275.306,1.823,5.175h0l-1.81-5.1Zm.7.166h0l1.976,2.906h0Zm1.275.306.918,1.9h0l-.9-1.9Zm1.2.28h0a.662.662,0,0,1,.127.14h0Z" transform="translate(-62.139 -10.695)" opacity="0.1"/>
        <path id="Path_34743" data-name="Path 34743" d="M124.386,191.24a20.3,20.3,0,0,0-18.367,22.114,20.062,20.062,0,0,0,1.53,6.22l18.545-7.953Z" transform="translate(-62.683 -15.154)" fill="#455a64"/>
        <path id="Path_34744" data-name="Path 34744" d="M125.756,207.375v.115L107.58,203.5v-.14Zm-18.265-3.607,18.469,5.965v-.153l-18.418-5.914Q107.515,203.716,107.491,203.768Zm1.389-2.791a.4.4,0,0,0-.064.127l16.761,4.181v-.14Zm-.2.357,17.054,5.7v-.166l-16.978-5.659Zm3.735-4.754-.076.076,12.784,3.7v-.1Zm-.408.4,13.307,5.1v-.127l-13.218-5.1Zm-1.479,1.593-.076.1,14.9,3.939v-.127Zm-.344.459,15.3,5.71v-.14l-15.3-5.672Zm7.966-6.271h-.076l6.653,2.549v-.064Zm-.867.408,7.571,3.722v-.076l-7.507-3.684Zm-2.485,1.453h-.076l10.2,3.161V197.7Zm-.6.433,10.9,4.589v-.089l-10.809-4.563Zm7.278-3.4h0l3.11,1.275h0Zm-1.275.37,4.487,2.549h0l-4.436-2.473Zm3.263-.727h0l1.058.637h0ZM106.357,215.3l8.17,1.275h.1l-8.285-1.275a.089.089,0,0,0-.026.038Zm-.076-.421,10.974.433.14-.064Zm.727,3,3.186.535h.076l-3.276-.548-.025.051Zm-.076-.229h0l4.805.064h.115Zm-.892-5.1,12.746,2.141h.127L106,212.589Zm0-.344v.089l16.289.9.191-.077Zm3.352-2.46-2.753-.586-.472-.1a.28.28,0,0,1,0,.1l.459.1,2.753.586,5.506,1.185,8.336,1.8h.153l-8.476-1.823Zm-3.2-.828a.243.243,0,0,0,0,.1l19.616,2.7.191-.089Zm.5-2.549L126,211.7l.166-.076-19.5-5.4a.37.37,0,0,0-.025.14Zm.076-.293v.115l19.31,3.824v-.127Z" transform="translate(-62.664 -15.141)" fill="#37474f"/>
        <path id="Path_34745" data-name="Path 34745" d="M124.719,191.24l-1.606.14a20.3,20.3,0,0,0-18.3,22.114,19.8,19.8,0,0,0,1.53,6.22l1.593-.14a20.062,20.062,0,0,1-1.53-6.22A20.3,20.3,0,0,1,124.719,191.24Z" transform="translate(-63.015 -15.154)" fill="#37474f"/>
      </g>
      <g id="freepik--magnifying-glass--inject-13" transform="translate(177.723 41.014)">
        <rect id="Rectangle_9672" data-name="Rectangle 9672" width="13.523" height="53.176" transform="translate(149.5 133.659) rotate(132.68)" fill="#c7c7c7"/>
        <path id="Path_34746" data-name="Path 34746" d="M293.577,191.133l13.855-15.028h0L266.925,138.76h0L253.07,153.788h0Z" transform="translate(-122.177 -14.174)" fill="#263238"/>
        <path id="Path_34749" data-name="Path 34749" d="M212.921,119.25c-12.746,1.364-25.925,2.715-39.3,4.028-.268-.2-.51-.421-.765-.637C186.5,121.481,199.945,120.3,212.921,119.25Z" transform="translate(-144.202 -19.531)" fill="#263238"/>
        <path id="Path_34750" data-name="Path 34750" d="M211.248,126c-9.241.981-18.749,1.963-28.4,2.932l-1.02-.484C191.823,127.58,201.675,126.752,211.248,126Z" transform="translate(-141.739 -17.678)" fill="#263238"/>
        <path id="Path_34751" data-name="Path 34751" d="M207.879,69.1Q185.471,71.28,163,73.37c0-.076.064-.127.089-.191Q185.509,71.114,207.879,69.1Z" transform="translate(-146.91 -33.302)" fill="#c7c7c7"/>
        <path id="Path_34752" data-name="Path 34752" d="M208.538,71.8q-23.389,2.269-46.778,4.448c0-.076,0-.14.076-.191C177.361,74.6,192.962,73.177,208.538,71.8Z" transform="translate(-147.25 -32.561)" fill="#c7c7c7"/>
        <path id="Path_34753" data-name="Path 34753" d="M209.155,74.49c-16.136,1.58-32.26,3.085-48.435,4.6a1.271,1.271,0,0,1,0-.178C176.921,77.422,193.032,75.918,209.155,74.49Z" transform="translate(-147.537 -31.822)" fill="#c7c7c7"/>
        <path id="Path_34754" data-name="Path 34754" d="M209.71,77.2Q184.843,79.609,160,81.916a1.273,1.273,0,0,1,0-.191C176.571,80.2,193.14,78.653,209.71,77.2Z" transform="translate(-147.735 -31.078)" fill="#c7c7c7"/>
        <path id="Path_34755" data-name="Path 34755" d="M210.38,79.89q-25.39,2.549-50.793,4.831l-1.007.089v-.178l1.058-.1C176.539,82.975,193.44,81.394,210.38,79.89Z" transform="translate(-148.124 -30.339)" fill="#c7c7c7"/>
        <path id="Path_34756" data-name="Path 34756" d="M210.63,82.6q-16.71,1.631-33.42,3.174l-9.9.943-8.285.765a.5.5,0,0,1-.191,0V87.3h.229l8.247-.765,9.9-.9C188.362,84.6,199.477,83.569,210.63,82.6Z" transform="translate(-148.055 -29.595)" fill="#c7c7c7"/>
        <path id="Path_34757" data-name="Path 34757" d="M210.964,85.29q-16.71,1.619-33.42,3.2l-9.9.93-8.858.828a.458.458,0,0,1,0-.191l8.82-.816,9.9-.918C188.671,87.3,199.85,86.271,210.964,85.29Z" transform="translate(-148.071 -28.857)" fill="#c7c7c7"/>
        <path id="Path_34758" data-name="Path 34758" d="M211.316,88q-16.71,1.644-33.407,3.187l-9.9.943-8.489.79-.727.064v-.191h.714l8.476-.778,9.9-.9Q194.555,89.466,211.316,88Z" transform="translate(-148.066 -28.112)" fill="#c7c7c7"/>
        <path id="Path_34759" data-name="Path 34759" d="M211.564,90.69q-16.71,1.67-33.42,3.186l-9.9.93-8.489.79a4.7,4.7,0,0,0-.841.076v-.166l.854-.076,8.476-.79q4.958-.472,9.916-.918C189.271,92.7,200.424,91.671,211.564,90.69Z" transform="translate(-148.033 -27.374)" fill="#c7c7c7"/>
        <path id="Path_34760" data-name="Path 34760" d="M211.8,93.39q-16.723,1.619-33.42,3.186l-9.9.943-9.215.854a.459.459,0,0,1,0-.178l9.228-.867,9.9-.9Q195.053,94.881,211.8,93.39Z" transform="translate(-147.939 -26.632)" fill="#c7c7c7"/>
        <path id="Path_34761" data-name="Path 34761" d="M211.977,96.08c-11.14,1.1-22.293,2.141-33.42,3.2l-9.9.93-8.476.79a2.205,2.205,0,0,1-.408,0v-.166a2.46,2.46,0,0,1,.421,0l8.489-.79q4.933-.472,9.9-.918Q195.229,97.584,211.977,96.08Z" transform="translate(-147.797 -25.894)" fill="#c7c7c7"/>
        <path id="Path_34762" data-name="Path 34762" d="M212.162,98.79l-15.04,1.44-9.9.93q-4.232.421-8.476.8l-9.916.918-8.31.765a.382.382,0,0,1-.166,0v-.178h.115l8.361-.778,9.9-.9,8.476-.79,9.9-.9Z" transform="translate(-147.638 -25.15)" fill="#c7c7c7"/>
        <path id="Path_34763" data-name="Path 34763" d="M212.392,101.48l-15.04,1.453-9.9.943-8.489.816-9.9.93-8.476.79v-.178l8.476-.79,9.9-.918,8.476-.778,9.916-.9Z" transform="translate(-147.574 -24.411)" fill="#c7c7c7"/>
        <path id="Path_34764" data-name="Path 34764" d="M212.2,104.18l-15.027,1.453-9.9.93q-4.244.421-8.489.8l-9.9.943-6.373.6a1.78,1.78,0,0,1-.076-.166l6.488-.612,9.9-.9,8.489-.79,9.9-.9Q204.683,104.843,212.2,104.18Z" transform="translate(-147.066 -23.669)" fill="#c7c7c7"/>
        <path id="Path_34765" data-name="Path 34765" d="M212.176,106.88l-15.027,1.428-9.9.93-8.476.8-9.9.93-5.1.472-.076-.166,5.1-.472q4.958-.472,9.9-.918l8.489-.778c3.288-.306,6.6-.6,9.9-.918Z" transform="translate(-146.72 -22.928)" fill="#c7c7c7"/>
        <rect id="Rectangle_9673" data-name="Rectangle 9673" width="9.955" height="36.39" transform="translate(19.126 55.772) rotate(-5.32)" fill="#455a64"/>
        <rect id="Rectangle_9674" data-name="Rectangle 9674" width="9.955" height="15.767" transform="translate(39.413 74.597) rotate(-5.32)" fill="#a6a6a6"/>
        <path id="Path_34767" data-name="Path 34767" d="M212.072,110l-31.763,3.2-14.594,1.428c-.14-.191-.268-.4-.4-.6l3.416-.2,9.9-.892,1.644-.14,6.845-.574,9.916-.841Z" transform="translate(-146.273 -22.071)" fill="#c7c7c7"/>
        <rect id="Rectangle_9675" data-name="Rectangle 9675" width="9.955" height="0.586" transform="translate(22.764 94.893) rotate(-5.32)" fill="#c7c7c7"/>
        <rect id="Rectangle_9676" data-name="Rectangle 9676" width="9.955" height="0.586" transform="translate(41.148 93.183) rotate(-5.32)" fill="#c7c7c7"/>
        <path id="Path_34768" data-name="Path 34768" d="M207.121,165.365a61.6,61.6,0,1,1,67.554-55.024A61.6,61.6,0,0,1,207.121,165.365Zm.714-7.023a54.54,54.54,0,1,0-48.715-59.8A54.54,54.54,0,0,0,207.835,158.342Z" transform="translate(-149.989 -40.613)" fill="#37474f"/>
      </g>
      <g id="freepik--Character--inject-13" transform="translate(50.786 218.913)">
        <path id="Path_34772" data-name="Path 34772" d="M290.83,278.875c1.517,27.442,2.613,55.687-.089,83.053-2.1,21.324-11.063,38.875-33.229,44.114-20.559,4.843-49.837,4.474-67.222-9.152-8.106-6.373-10.923-15.3-10.375-25.364.739-14.021,11.816-90.5,15.117-114.319,1.988-14.53,3.938-29.252,8.5-43.336,9.559-29.456,24.217-30,26.282-30.59,1.746-1.122,12.746-5.315,28.717-.242a31.049,31.049,0,0,1,18.915,16.837C288.892,223.558,289.389,253.192,290.83,278.875Z" transform="translate(-15.346 -180.587)" fill="#263238"/>
        <path id="Path_34773" data-name="Path 34773" d="M226.169,186.554c-17.526,8.2-21.668,27.327-25.951,44.483-5.9,23.886-11.471,47.874-15.741,72.091-2.09,11.65-3.913,23.338-5.392,35.077-1.4,11.242-3.594,23.223-2.842,34.58,1.275,18.775,18.418,27.3,35.064,29.978a.649.649,0,0,0,.242-1.275c-9.483-1.886-19.119-4.512-26.206-11.548-9.037-9.011-7.992-20.776-6.921-32.489,1.823-19.947,4.767-39.767,8.438-59.447s8.03-39.283,12.746-58.772c4.448-18.558,7.648-42.979,26.767-52.411C226.462,186.758,226.36,186.464,226.169,186.554Z" transform="translate(-16.378 -178.953)" fill="#263238"/>
        <path id="Path_34774" data-name="Path 34774" d="M268.327,218.469C265,204.13,257.544,190.148,242.44,185.98h0c19.514,6.22,24.217,27.557,26.868,45.376q4.117,28.118,6.105,56.49c1.275,18.176,2.231,36.5,1.886,54.731-.382,19.68-3.951,38.11-15.576,54.323a.331.331,0,0,0,.5.421c11.471-13.116,15.3-31.189,16.149-48.1,1.211-22.28-.229-44.942-1.976-67.159C274.738,261,273.12,239.131,268.327,218.469Z" transform="translate(1.841 -179.106)" fill="#263238"/>
        <path id="Path_34775" data-name="Path 34775" d="M87.237,492.34C88.4,487.7,160.96,376.122,166.262,373.7c.612-.319,38.238,22.611,38.238,22.611,1.619,1.861,68.663-17.385,68.663-17.385L279.7,461l-124.184,6.22s-16.047,11.051-30.794,20.164h0c-9.075,5.646-17.131,10.426-19.463,11.216C99.142,500.651,86.026,496.941,87.237,492.34Z" transform="translate(-40.799 -127.559)" fill="#f7a9a0"/>
        <path id="Path_34776" data-name="Path 34776" d="M105.227,498.609c2.345-.79,10.388-5.57,19.45-11.216h.064c14.734-9.113,30.782-20.164,30.782-20.164l27.646-1.377,38.238-72.8c-9.368,2.358-16.366,3.824-16.888,3.263,0,0-37.613-22.943-38.238-22.6-5.328,2.422-77.878,114-79.025,118.627S99.135,500.648,105.227,498.609Z" transform="translate(-40.792 -127.556)" fill="#fff"/>
        <path id="Path_34777" data-name="Path 34777" d="M86.668,492.537c1.275-4.754,74.156-116.294,79.624-118.792,2.078-.956,20.394,8.616,38.391,22.573l-47.16,71.849S111.395,497,105.1,499.088,85.419,497.278,86.668,492.537Z" transform="translate(-40.956 -127.564)" fill="#c7c7c7"/>
        <path id="Path_34778" data-name="Path 34778" d="M91.091,492.368c12.746-18.392,62.1-93.8,73.238-112.955.089-.153,0-.217-.115-.076-12.975,17.972-61.78,93.772-73.43,112.827C90.5,492.521,90.785,492.712,91.091,492.368Z" transform="translate(-39.835 -126.032)" fill="#263238"/>
        <path id="Path_34779" data-name="Path 34779" d="M109.011,473.863a18,18,0,0,0,2.74-14.173c-1.02-3.977-3.288-8.3-7.252-10.707-.115-.064-.255.14-.14.229,6.615,5.85,8.693,16.71,4.41,24.5a.143.143,0,0,0,.242.153Z" transform="translate(-36.087 -106.889)" fill="#263238"/>
        <path id="Path_34780" data-name="Path 34780" d="M138.044,457.191c5-7.405,8.017-17.844,4.945-26.461-.127-.344-.6-.166-.625.127a124.477,124.477,0,0,1-5.353,25.862.568.568,0,1,0,1.032.472Z" transform="translate(-27.123 -111.95)" fill="#263238"/>
        <path id="Path_34781" data-name="Path 34781" d="M133.3,460.572c5-7.418,8.017-17.844,4.945-26.473-.127-.331-.6-.153-.625.14A124.474,124.474,0,0,1,132.3,460.1a.561.561,0,0,0,1.007.472Z" transform="translate(-28.411 -111.022)" fill="#263238"/>
        <path id="Path_34782" data-name="Path 34782" d="M128.573,463.952c5-7.418,8.017-17.844,4.945-26.473-.127-.331-.6-.153-.625.14a124.656,124.656,0,0,1-5.328,25.862.561.561,0,0,0,1.007.472Z" transform="translate(-29.71 -110.094)" fill="#263238"/>
        <path id="Path_34783" data-name="Path 34783" d="M123.843,467.333c5-7.418,8.017-17.844,4.945-26.473-.127-.331-.6-.166-.625.14a124.82,124.82,0,0,1-5.328,25.862.561.561,0,0,0,1.007.472Z" transform="translate(-31.009 -109.167)" fill="#263238"/>
        <path id="Path_34784" data-name="Path 34784" d="M163.017,394.769c5.468-8.412-7.648-16.927-13.077-8.489S157.536,403.194,163.017,394.769Z" transform="translate(-23.915 -125.06)" fill="#263238"/>
        <path id="Path_34785" data-name="Path 34785" d="M152.049,474.967c5.608-1.733,5.659-8.514,3.926-12.975a46.765,46.765,0,0,0-14.7-19.31.229.229,0,0,0-.357.089,1.1,1.1,0,0,0-1.491.956c.2,7.737-.535,16.034,2.039,23.478C142.961,471.6,146.733,476.662,152.049,474.967Zm-9.9-19.578c-.191-3.824-.2-7.648-.535-11.382a141.246,141.246,0,0,1,8.336,11.471,51.048,51.048,0,0,1,3.263,6.042c1.4,3.238,2.855,14.671-5.774,10.095-4.729-2.486-5.06-11.637-5.29-16.175Z" transform="translate(-26.445 -108.631)" fill="#263238"/>
        <path id="Path_34786" data-name="Path 34786" d="M150.621,427.7c-5.251,5.85-7.788,13.791-10.987,20.84a1.083,1.083,0,0,0,.994,1.453.231.231,0,0,0,.306.229,47.02,47.02,0,0,0,21.044-12.083c3.327-3.441,5.914-9.712,1.415-13.5C159.135,421.068,153.693,424.255,150.621,427.7Zm7.214-1.733c9.738-.879,3.951,9.1,1.4,11.535a50.979,50.979,0,0,1-5.353,4.3,137.492,137.492,0,0,1-12.134,7.329c1.784-3.365,3.263-6.857,4.907-10.286,1.976-4.091,5.812-12.4,11.178-12.873Z" transform="translate(-26.407 -114.001)" fill="#263238"/>
        <path id="Path_34787" data-name="Path 34787" d="M231.231,374.606S335.366,326.1,381.952,326.35c55.432.306,98.934,65.833,31.279,113.707-59.8,42.317-249.171,40.469-249.171,40.469L207.8,400.774s52.169-20.61,120.653-23.2L233,397.6Z" transform="translate(-19.682 -140.561)" fill="#263238"/>
        <path id="Path_34788" data-name="Path 34788" d="M218.467,380.782c8.183-2.141,16.57-3.594,24.816-5.1s16.774-2.957,25.186-4.27a504.618,504.618,0,0,1,50.678-5.455c1.593-.089,3.186-.14,4.78-.191a8.646,8.646,0,0,1,1.02-.331c.8-.255,1.593-.523,2.409-.739,1.5-.4,3.034-.727,4.55-1.083,3.174-.714,6.373-1.275,9.509-2.1.191,0,.293.229.1.293-3.161.943-6.246,2.09-9.407,3.021l-2.74.79c6.246-.127,12.478-.089,18.724,0a.153.153,0,0,1,0,.306c-8.476.1-16.99.65-25.428,1.4s-16.748,1.517-25.1,2.549c-16.888,2.18-33.713,4.907-50.474,7.89-9.407,1.67-18.826,3.518-28.309,4.6C217.893,382.528,217.549,381.011,218.467,380.782Z" transform="translate(-4.891 -130.906)" fill="#37474f"/>
        <path id="Path_34789" data-name="Path 34789" d="M179.166,461.462c2.677-5.1,4.894-10.426,7.316-15.627s4.843-10.439,7.291-15.652c4.856-10.388,22.446-45.452,24.217-47.95.115-.153.382,0,.331.178-.752,2.664-11.65,25.823-14.161,31-5.1,10.337-10.388,20.508-15.639,30.731-1.491,2.932-3.059,5.812-4.589,8.718s-3.161,5.774-4.538,8.744a.153.153,0,1,1-.229-.14Z" transform="translate(-15.555 -125.232)" fill="#37474f"/>
        <path id="Path_34790" data-name="Path 34790" d="M414.507,489.464c-1.389-4.563-79.178-112.56-84.62-114.714-.625-.293-37.116,24.409-37.116,24.409-1.53,1.937-69.415-14.084-69.415-14.084l-2.626,82.288,124.35.293s16.57,10.26,31.725,18.66h0c9.33,5.2,17.589,9.6,19.96,10.273C403,498.335,415.935,494.015,414.507,489.464Z" transform="translate(-4.12 -127.271)" fill="#f7a9a0"/>
        <path id="Path_34791" data-name="Path 34791" d="M384.974,496.578c-2.383-.663-10.643-5.1-19.973-10.273h0c-15.155-8.4-31.725-18.686-31.725-18.686H305.6l-41.7-70.893c9.47,1.912,16.57,3.085,17.016,2.46,0,0,36.492-24.689,37.116-24.4,5.43,2.167,83.218,110.151,84.62,114.714S391.143,498.337,384.974,496.578Z" transform="translate(7.734 -127.26)" fill="#fff"/>
        <path id="Path_34792" data-name="Path 34792" d="M399.713,489.637c-1.466-4.69-79.624-112.623-85.207-114.867-2.1-.854-19.922,9.572-37.256,24.383l50.474,69.529s47.453,26.588,53.826,28.385S401.192,494.315,399.713,489.637Z" transform="translate(11.4 -127.278)" fill="#c7c7c7"/>
        <path id="Path_34793" data-name="Path 34793" d="M386,489.7c-13.549-17.768-66.508-90.726-78.541-109.322-.1-.153,0-.229.1-.089,13.817,17.322,66.177,90.713,78.732,109.207C386.561,489.876,386.28,490.08,386,489.7Z" transform="translate(19.684 -125.77)" fill="#263238"/>
        <path id="Path_34794" data-name="Path 34794" d="M352.884,472.862a17.972,17.972,0,0,1-3.416-14.021c.828-4.028,2.893-8.451,6.73-11.038.115-.077.268.127.166.217-6.373,6.169-7.89,17.105-3.25,24.689a.14.14,0,1,1-.229.153Z" transform="translate(31.156 -107.214)" fill="#263238"/>
        <path id="Path_34795" data-name="Path 34795" d="M323.021,457.548c-5.341-7.163-8.858-17.411-6.195-26.206.1-.344.586-.191.625.1a123.239,123.239,0,0,0,6.564,25.581.574.574,0,0,1-.994.523Z" transform="translate(22.017 -111.784)" fill="#263238"/>
        <path id="Path_34796" data-name="Path 34796" d="M327.918,460.688c-5.341-7.176-8.922-17.424-6.207-26.206.115-.344.586-.191.637.1a123.216,123.216,0,0,0,6.551,25.581.561.561,0,0,1-.981.523Z" transform="translate(23.353 -110.922)" fill="#263238"/>
        <path id="Path_34797" data-name="Path 34797" d="M332.808,463.848c-5.353-7.176-8.922-17.424-6.207-26.206.1-.344.586-.191.625.1a124.258,124.258,0,0,0,6.513,25.581.561.561,0,0,1-.93.523Z" transform="translate(24.696 -110.054)" fill="#263238"/>
        <path id="Path_34798" data-name="Path 34798" d="M337.681,467c-5.341-7.176-8.858-17.424-6.195-26.206.1-.344.586-.191.625.1a123.636,123.636,0,0,0,6.551,25.581.561.561,0,0,1-.981.522Z" transform="translate(26.043 -109.189)" fill="#263238"/>
        <path id="Path_34799" data-name="Path 34799" d="M296.906,396.37c-5.863-8.145,6.781-17.271,12.657-9.113S302.782,404.528,296.906,396.37Z" transform="translate(16.382 -124.711)" fill="#263238"/>
        <path id="Path_34800" data-name="Path 34800" d="M311.129,464.178c6.373-4.665,10.452-11.917,15.015-18.176a1.083,1.083,0,0,0-.676-1.619.242.242,0,0,0-.255-.293,46.931,46.931,0,0,0-23.006,7.533c-3.964,2.689-7.775,8.3-4.142,12.924C301.493,468.919,307.471,466.918,311.129,464.178Zm-7.405.217c-9.712-1.134-2.014-9.712.994-11.586a51.858,51.858,0,0,1,6.105-3.11c4.346-1.937,8.922-3.212,13.371-4.7-2.422,2.944-4.589,6.054-6.908,9.075-2.715,3.594-8.183,10.961-13.523,10.3Z" transform="translate(16.714 -108.23)" fill="#263238"/>
        <path id="Path_34801" data-name="Path 34801" d="M300.238,426.1c-4.321,3.99-1.44,10.12,2.065,13.409a47,47,0,0,0,21.592,11.064.229.229,0,0,0,.28-.242,1.1,1.1,0,0,0,.931-1.5c-3.518-6.883-6.373-14.7-11.968-20.292C309.9,425.262,304.355,422.318,300.238,426.1Zm17.385,13.371c1.823,3.352,3.454,6.768,5.4,10.044a138.557,138.557,0,0,1-12.478-6.743,50.374,50.374,0,0,1-5.545-4.028c-2.664-2.32-8.922-12.007.841-11.6C311.225,427.365,315.457,435.484,317.624,439.474Z" transform="translate(17.116 -113.657)" fill="#263238"/>
        <path id="Path_34802" data-name="Path 34802" d="M266.861,368.6s-105.32-31.75-161.5-25.046c-55.05,6.564-77.636,75.6-23.962,112.993,58.631,40.851,279.277,26.55,279.277,26.55l-47.16-84.353s-75.087-17.679-143.634-17L266.185,397.2Z" transform="translate(-50.786 -136.093)" fill="#263238"/>
        <path id="Path_34803" data-name="Path 34803" d="M298.424,397.019a1.786,1.786,0,0,1-.1-.433l-.076-.344a3.614,3.614,0,0,0-.191-.816,15.448,15.448,0,0,0-.535-1.644c-.191-.535-.421-1.071-.65-1.593a12.384,12.384,0,0,0-.879-1.491.145.145,0,0,1-.128-.1l-.089-.064h-.242c-8.272-1.746-64.507-11.153-72.881-12.3s-16.9-2.154-25.364-3.072a506.477,506.477,0,0,0-50.882-3.034h-4.767a9.726,9.726,0,0,0-1.045-.28c-.8-.217-1.619-.446-2.434-.624-1.529-.331-3.059-.586-4.6-.854-3.2-.574-6.373-.994-9.6-1.657-.191,0-.28.242-.089.293,3.2.79,6.373,1.8,9.547,2.549.918.217,1.835.446,2.766.65-6.233.178-12.466.51-18.7.931-.191,0-.2.319,0,.306,8.463-.293,16.99-.153,25.492.191s16.812.727,25.2,1.4c16.965,1.377,33.917,3.3,50.793,5.468,9.47,1.275,66.8,10.974,76.336,11.6h.051a6.869,6.869,0,0,0,.255.65c.242.535.5,1.045.765,1.568s.523.981.816,1.453l.459.7.229.344a1.618,1.618,0,0,1,.229.37C298.194,397.35,298.526,397.21,298.424,397.019Z" transform="translate(-32.513 -128.929)" fill="#37474f"/>
        <path id="Path_34804" data-name="Path 34804" d="M289.373,465.213c-2.932-4.945-5.4-10.2-8.068-15.3s-5.341-10.2-8.017-15.3c-5.353-10.2-24.6-44.33-26.524-46.739-.127-.153-.382,0-.331.191.892,2.638,12.873,25.25,15.639,30.284,5.519,10.095,11.344,19.986,17.08,29.966,1.632,2.842,3.339,5.646,5,8.489s3.429,5.608,4.958,8.514C289.22,465.545,289.475,465.379,289.373,465.213Z" transform="translate(2.935 -123.681)" fill="#37474f"/>
        <path id="Path_34805" data-name="Path 34805" d="M210.339,275.695c14.913,38.85,40.787,84.264,50.066,90.917,11.7,8.425,74.118,13.88,77.572,13.766,8.54-.344,13.434-57.7,4.283-57.727-13.931,0-52.258,1.644-55.636-.994s-28.22-26.155-53.992-53C214.838,250.139,201.1,251.6,210.339,275.695Z" transform="translate(-7.788 -159.868)" fill="#eb9481"/>
        <path id="Path_34806" data-name="Path 34806" d="M307.316,366.874c1.02.357,15.512,5.239,24.217,6.475,6.5.93,25.275,3.085,27-3.964,1.185-4.805-9.7-7.38-17.36-9.368-4.04-1.045-9.3-4.372-8.527-6.985,1.364-4.563,11.777-1.644,18.762,1.185,13.511,5.481,31.98,16.187,38.7,8.769,2.549-2.8-1.415-6.679-6.921-10.26,8.655,3.824,17.7,6.743,20.636,3.735,1.7-1.708,1.5-3.7.128-5.812,2.549.459,4.716,0,5.991-1.823,2.205-3.059.382-6.87-3.021-10.566a3.084,3.084,0,0,0,2.129-1.861c4.283-9.113-26.461-29.163-36.25-30.068-28.768-2.677-57.93,2.715-57.93,2.715C305.174,319.331,307.29,366.861,307.316,366.874Z" transform="translate(19.597 -146.262)" fill="#eb9481"/>
        <path id="Path_34807" data-name="Path 34807" d="M336.554,329a47.58,47.58,0,0,1,19.578,4.512c7.724,3.658,13.179,8.451,19.871,13.1a.166.166,0,0,1-.178.28c-3.2-2.218-16.277-10.375-19.616-12.172a45.388,45.388,0,0,0-19.667-5.608C336.465,329.14,336.477,329,336.554,329Z" transform="translate(27.667 -139.833)" fill="#263238"/>
        <path id="Path_34808" data-name="Path 34808" d="M339.322,319.17c7.648.969,15.384,1.925,22.662,4.423,7.966,2.74,14.658,8.094,21.222,13.218q5.9,4.627,11.6,9.508c.166.14,0,.408-.178.28q-10.018-7.979-20.483-15.3a60.429,60.429,0,0,0-21.464-9.623c-4.41-1.007-8.922-1.657-13.37-2.32a.1.1,0,0,1,.013-.191Z" transform="translate(28.417 -142.532)" fill="#263238"/>
        <path id="Path_34809" data-name="Path 34809" d="M344.281,310.2c7.316.459,13.689.828,20.534,3.735,9.037,3.824,18.29,11.229,21.541,13.842,3.594,2.881,7.074,5.889,10.515,8.922.153.115-.064.37-.217.242a238.732,238.732,0,0,0-24.689-18.38,47.542,47.542,0,0,0-13.243-6.169,85.755,85.755,0,0,0-14.4-2.141S344.256,310.2,344.281,310.2Z" transform="translate(29.805 -144.995)" fill="#263238"/>
        <path id="Path_34810" data-name="Path 34810" d="M341.993,318.588l-11.561,69.389s-59.065-8.17-71.021-17.844-39.283-64.775-48.881-91.975,4.652-28.513,20.164-12.746,53.966,54,55.917,54.68S341.993,318.588,341.993,318.588Z" transform="translate(-7.776 -160.088)" fill="#455a64"/>
        <path id="Path_34811" data-name="Path 34811" d="M297.451,345.19c1.428-8.183,2.919-16.366,4.053-24.612q.956-7.036,1.9-14.021c0-.178-.28-.242-.319-.064-1.759,8.17-3.505,16.353-4.894,24.6s-2.83,16.391-4.1,24.612c-.727,4.678-1.275,9.356-1.746,14.021a.083.083,0,0,0,.166,0C294.545,361.657,296.011,353.436,297.451,345.19Z" transform="translate(15.544 -146.042)" fill="#263238"/>
        <path id="Path_34812" data-name="Path 34812" d="M331.564,381.112l-1.16,6.908s-59.065-8.17-71.021-17.844-39.3-64.775-48.894-91.988c-7.01-19.884-1.275-25.951,8.374-21.579C247.2,287.251,300.667,345.551,331.564,381.112Z" transform="translate(-7.786 -160.08)" opacity="0.1"/>
        <path id="Path_34813" data-name="Path 34813" d="M148.39,392.192l136.981,2.294-6.819-43.8s11.127-9.636,4.64-27.965c-4.244-11.981-23.453-40.073-33.139-51.749-23.682-28.475-40.086-12.58-46.65-5.251C178.292,293.666,148.39,392.192,148.39,392.192Z" transform="translate(-23.985 -160.25)" fill="#455a64"/>
        <path id="Path_34814" data-name="Path 34814" d="M218.037,329.8a121.908,121.908,0,0,1,17.921-.306c2.97.217,5.9.561,8.846.969,1.479.2,2.944.37,4.41.51a19.487,19.487,0,0,0,4.64,0,.1.1,0,1,1,0,.2,31.013,31.013,0,0,1-4.334.7,29.65,29.65,0,0,1-4.257,0c-3.008-.179-6.016-.51-9.024-.727-6.067-.433-12.134-.867-18.227-.867C217.82,330.295,217.807,329.823,218.037,329.8Z" transform="translate(-4.907 -139.751)" fill="#263238"/>
        <path id="Path_34815" data-name="Path 34815" d="M207.446,336.8a129.822,129.822,0,0,1,14.416-3.34c2.434-.421,4.869-.688,7.342-.892l3.518-.229c1.275-.076,2.549,0,3.9,0,.14,0,.178.191,0,.2-1.275.115-2.422.446-3.633.637l-3.645.561c-2.434.382-4.856.79-7.291,1.147-4.882.714-9.738,1.479-14.581,2.358C207.242,337.245,207.2,336.862,207.446,336.8Z" transform="translate(-7.813 -138.926)" fill="#263238"/>
        <path id="Path_34816" data-name="Path 34816" d="M204.54,267.135c-.089,2.549,7.291,21.541,18.584,24.013,3.671.79,8.922-19.119,8.922-19.119l.727-1.377,10.108-19.285-19.909-21.936-2.932-2.983s-2.422,5.468-5.366,12.3c-.14.306-.28.625-.421.969s-.344.739-.5,1.109c-.446,1.007-.9,2.052-1.275,3.1-.331.79-.663,1.555-.981,2.409s-.663,1.657-1.007,2.549a140.215,140.215,0,0,0-5.952,18.252Z" transform="translate(-8.566 -167.993)" fill="#eb9481"/>
        <path id="Path_34817" data-name="Path 34817" d="M212.45,238.75a43.68,43.68,0,0,0,18.15,31.941l10.108-19.323L220.8,229.433l-2.932-2.983S215.394,231.918,212.45,238.75Z" transform="translate(-6.394 -167.993)" fill="#263238"/>
        <path id="Path_34818" data-name="Path 34818" d="M278.65,236.937c-4.3,38-27.544,39.716-35.689,38.786-7.444-.854-32.655-4.678-32.311-42.916s19.361-48.256,36.479-47.16S282.895,198.941,278.65,236.937Z" transform="translate(-6.889 -179.219)" fill="#eb9481"/>
        <path id="Path_34819" data-name="Path 34819" d="M261.423,221.233a25.017,25.017,0,0,1-2.485-.879,4.258,4.258,0,0,1-2.358-1.389,1.351,1.351,0,0,1,.217-1.644,3.391,3.391,0,0,1,3.4-.344,4.933,4.933,0,0,1,2.842,2.154,1.453,1.453,0,0,1-1.619,2.1Z" transform="translate(5.673 -170.678)" fill="#263238"/>
        <path id="Path_34820" data-name="Path 34820" d="M240.327,217.352a22.752,22.752,0,0,0,2.638-.191,4.3,4.3,0,0,0,2.651-.7,1.364,1.364,0,0,0,.217-1.657,3.378,3.378,0,0,0-3.186-1.275,4.958,4.958,0,0,0-3.314,1.275,1.44,1.44,0,0,0,.994,2.549Z" transform="translate(0.844 -171.552)" fill="#263238"/>
        <path id="Path_34821" data-name="Path 34821" d="M244.467,225.366c0-.1-.217.1-.229.2-.2,2.549-.879,5.545-3.314,6.144-.076,0-.089.14,0,.14C243.829,231.777,244.683,227.864,244.467,225.366Z" transform="translate(1.408 -168.298)" fill="#263238"/>
        <path id="Path_34822" data-name="Path 34822" d="M242.94,223.011c-4.13-.777-5.379,7.533-1.555,8.259S246.407,223.712,242.94,223.011Z" transform="translate(0.921 -168.951)" fill="#263238"/>
        <path id="Path_34823" data-name="Path 34823" d="M241.852,223.4c-.8.357-1.631,1.083-2.549,1.032s-1.657-1.032-2.192-1.976c0-.089-.14,0-.153.076-.268,1.593.089,3.314,1.772,3.824s2.855-.79,3.492-2.32C242.362,223.733,242.132,223.261,241.852,223.4Z" transform="translate(0.314 -169.099)" fill="#263238"/>
        <path id="Path_34824" data-name="Path 34824" d="M255.13,226.645c0-.1.178.153.166.255-.5,2.549-.625,5.57,1.568,6.794.064,0,0,.166,0,.14C254.008,232.98,254.225,228.99,255.13,226.645Z" transform="translate(5.16 -167.946)" fill="#263238"/>
        <path id="Path_34825" data-name="Path 34825" d="M257.8,224.822c4.181.344,3.186,8.68-.688,8.361S254.282,224.528,257.8,224.822Z" transform="translate(5.193 -168.442)" fill="#263238"/>
        <path id="Path_34826" data-name="Path 34826" d="M258.536,225.422c.612.523,1.16,1.4,1.95,1.555s1.682-.663,2.371-1.453c.076-.089.127,0,.115.1-.14,1.606-.867,3.2-2.434,3.327s-2.294-1.377-2.485-3.021C257.988,225.638,258.294,225.218,258.536,225.422Z" transform="translate(6.126 -168.29)" fill="#263238"/>
        <path id="Path_34827" data-name="Path 34827" d="M241.063,241.926c.484.714.93,1.657,1.848,1.925a7.023,7.023,0,0,0,2.868-.1.089.089,0,0,1,.089.153,3.505,3.505,0,0,1-3.531.688,2.766,2.766,0,0,1-1.555-2.651C240.719,241.837,240.923,241.812,241.063,241.926Z" transform="translate(1.383 -163.764)" fill="#263238"/>
        <path id="Path_34828" data-name="Path 34828" d="M252.441,241.213s0,3.926-.255,5.748c0,.166-.472.191-1.1.14h-.064a8.706,8.706,0,0,1-7.941-4.4c-.1-.191.153-.344.306-.2a13.116,13.116,0,0,0,7.571,3.352c.191-.484-.217-6.73.077-6.7a16.3,16.3,0,0,1,3.989,1.5c.242-8.17-.816-16.328-.446-24.46a.242.242,0,1,1,.484,0c1.721,8.463,1.644,17.844,1.606,26.333C256.685,243.507,253.18,241.62,252.441,241.213Z" transform="translate(2.012 -170.876)" fill="#263238"/>
        <path id="Path_34829" data-name="Path 34829" d="M251.22,240.461a10.528,10.528,0,0,1-4.461,3.008,4.716,4.716,0,0,1-2.906,0c-2.052-.688-1.976-2.613-1.491-4.232a11.726,11.726,0,0,1,1.109-2.447,13.74,13.74,0,0,0,7.75,3.671Z" transform="translate(1.741 -165.153)" fill="#263238"/>
        <path id="Path_34830" data-name="Path 34830" d="M246.759,242.912a4.716,4.716,0,0,1-2.906,0c-2.052-.688-1.976-2.613-1.491-4.232C244.592,239.088,246.721,240.758,246.759,242.912Z" transform="translate(1.741 -164.634)" fill="#ff9bbc"/>
        <path id="Path_34831" data-name="Path 34831" d="M211.08,238.264a15.843,15.843,0,0,0,10.962-11.191,41.475,41.475,0,0,0,18.94-10.464c-.4.727-3.212,6.054-4.729,8.718,24.829-.293,35.485-17.4,35.485-17.4,6.437,9.139,7.125,14.39,7.813,17.067,0,0,2.753-14.722-3.11-25.913-7.163-13.715-20.228-13.625-20.228-13.625a34.529,34.529,0,0,0-34.975,4.41C202.655,204.156,211.08,238.264,211.08,238.264Z" transform="translate(-7.293 -180.036)" fill="#263238"/>
        <path id="Path_34832" data-name="Path 34832" d="M248.128,219.894A45.336,45.336,0,0,1,235,222.264h0a38.238,38.238,0,0,0,19.5-7.648,35.843,35.843,0,0,0,6.462-6.373,25.11,25.11,0,0,0,4.792-8.6.192.192,0,0,1,.37.1,29.544,29.544,0,0,1-3.569,9.139,26.767,26.767,0,0,1-6.73,7.023,30.679,30.679,0,0,1-7.648,3.964Z" transform="translate(-0.202 -175.393)" fill="#263238"/>
        <path id="Path_34833" data-name="Path 34833" d="M210.078,237.872a8.819,8.819,0,0,0,1.644.8,5.875,5.875,0,0,0,1.759.4,5.391,5.391,0,0,0,2.307-.255,6.513,6.513,0,0,0,1.631-.816,7.546,7.546,0,0,0,1.848-1.81L219.2,225.75s-5.825-13.345-11.714-11.471S204.3,234.366,210.078,237.872Z" transform="translate(-8.661 -171.384)" fill="#eb9481"/>
        <path id="Path_34834" data-name="Path 34834" d="M207.512,218.29a.091.091,0,0,0-.064.166c4.015,2.651,5.494,7.163,6.258,11.688-.969-1.874-2.549-3.123-5.1-2.014-.127.064,0,.268.076.255a3.989,3.989,0,0,1,4.066,2.282,18.723,18.723,0,0,1,1.351,3.824c.127.433.879.37.816-.115v-.115C216.141,228.729,213.388,220.062,207.512,218.29Z" transform="translate(-7.778 -170.233)" fill="#263238"/>
        <path id="Path_34835" data-name="Path 34835" d="M197.158,271.519c-16.047,25.492-49.4,116.83-30.985,128.811s100.923-24.663,122.973-40.864c6.564-4.818-29.469-44.611-38.149-43.986-7.227.472-40.163,23.886-41.6,22.012-1.631-2.116.79-20.547,3.48-53.533C215.971,245.848,204.244,260.277,197.158,271.519Z" transform="translate(-20.583 -158.993)" fill="#eb9481"/>
        <path id="Path_34836" data-name="Path 34836" d="M249.73,294.858c15.92-8.463,21.3-8.2,30.934-22.471,6.373-9.381,15.027-9.356,13.727,2.32-2.1,19.119-20.394,34.414-28.181,37.817Z" transform="translate(3.843 -157.235)" fill="#eb9481"/>
        <path id="Path_34837" data-name="Path 34837" d="M319.07,267.274c50.321,9.037,37.027,83.588-13.383,74.551S268.647,258.212,319.07,267.274Z" transform="translate(10.482 -156.992)" fill="#e27e2b"/>
        <path id="Path_34838" data-name="Path 34838" d="M319.07,267.274c50.321,9.037,37.027,83.588-13.383,74.551S268.647,258.212,319.07,267.274Z" transform="translate(10.482 -156.992)" opacity="0.1"/>
        <path id="Path_34839" data-name="Path 34839" d="M314.985,266.6c47.963,8.6,34.669,83.167-13.383,74.538S266.932,257.97,314.985,266.6Z" transform="translate(9.838 -157.158)" fill="#e27e2b"/>
        <path id="Path_34840" data-name="Path 34840" d="M276.51,304.141c.268,13.281,7.992,26.155,24.88,29.176,39.869,7.15,50.907-54.731,11.1-61.869l-.777-.127c37.32,7.482,26.626,66.037-11.395,59.218C284.782,327.746,277.339,316.288,276.51,304.141Z" transform="translate(11.197 -155.671)" opacity="0.1"/>
        <g id="Group_18839" data-name="Group 18839" transform="translate(302.239 122.391)" opacity="0.1">
          <path id="Path_34841" data-name="Path 34841" d="M298.336,276.623a1.275,1.275,0,0,1,1.44,1.058l.319,2.09a17.207,17.207,0,0,1,9.827,2.243,1.491,1.491,0,0,1,.918,1.083,1.364,1.364,0,0,1-1.16,1.517,1.339,1.339,0,0,1-.994-.229,15.079,15.079,0,0,0-8.336-2.205l2.205,14.594c8.17.472,11.956,2.944,12.746,8.055.828,5.519-3.212,10.133-9.7,11.318l.612,4.066a1.289,1.289,0,0,1-2.549.382l-.625-4.117a19.808,19.808,0,0,1-12.491-3.288,1.275,1.275,0,0,1-.739-1.007,1.377,1.377,0,0,1,1.109-1.5,1.415,1.415,0,0,1,.994.229,17.041,17.041,0,0,0,10.872,3.212l-2.243-14.862c-8.081-.535-11.739-2.919-12.529-8.132s3.187-9.967,9.521-11.089l-.293-1.976a1.275,1.275,0,0,1,1.1-1.44Zm1.848,19.973-2.154-14.225c-5.1.867-7.915,4.4-7.354,8.145C291.211,294.059,293.212,296,300.184,296.6Zm2.766,2.842,2.18,14.39c5.2-.892,8.132-4.436,7.533-8.4-.548-3.594-2.7-5.506-9.712-5.991Z" transform="translate(-287.912 -276.61)"/>
        </g>
        <path id="Path_34842" data-name="Path 34842" d="M219.42,322.618s15.015-17.36,31.075-28.041c11.114-7.405,37.078-20.814,72.958-3.48,8.514,4.117,17.717,16.009,1.389,14.339-11.612-1.185-18.609-5.443-25.492-4.894,0,0,9.916,16.57,5.468,24.88a174.619,174.619,0,0,1-13.192,21.031,37.911,37.911,0,0,1-4.155-2.116s-4.894,7.418-17.972,10.834Z" transform="translate(-4.48 -152.57)" fill="#eb9481"/>
        <path id="Path_34843" data-name="Path 34843" d="M253,287.78c6.934.918,21.6,3.085,32.987,9.024,12.657,6.615,35.23,22.752,30.259,32.031-3.645,6.806-12.81,1.415-12.81,1.415s7.928,8.629,3.288,14.021c-4.232,4.945-11.064.344-11.064.344s3.9,6.067-1.083,10.044c-6,4.792-13.218-8.706-23.478-9.113C268.8,345.494,253,287.78,253,287.78Z" transform="translate(4.741 -151.152)" fill="#eb9481"/>
        <path id="Path_34844" data-name="Path 34844" d="M271.69,304.43c6.373,1.925,19.769,10.018,26.639,20.942.166.255.064.5-.127.306a139.936,139.936,0,0,0-26.575-21.12C271.563,304.52,271.613,304.418,271.69,304.43Z" transform="translate(9.848 -146.58)" fill="#263238"/>
        <path id="Path_34845" data-name="Path 34845" d="M266.752,314.6c5.328,2.231,18.749,11.178,25.339,22.5.153.255,0,.5-.153.293a149.433,149.433,0,0,0-25.263-22.675C266.612,314.677,266.676,314.575,266.752,314.6Z" transform="translate(8.489 -143.788)" fill="#263238"/>
        <path id="Path_34846" data-name="Path 34846" d="M282.122,298.182c6.054-.4,10.592.994,16.379,2.549a77.159,77.159,0,0,0,8.667,1.886c2.664.4,6.615,1.007,8.3-1.746.93-1.53.217-3.429-.625-4.831a23.365,23.365,0,0,0-5.277-5.1c-.076-.064,0-.191.089-.14a33.347,33.347,0,0,1,5.3,4.334,7.646,7.646,0,0,1,2.065,4.091c.293,3.3-3.11,5-5.94,5.1a25.06,25.06,0,0,1-5.1-.51c-1.606-.268-3.187-.624-4.767-1.02-3.238-.8-6.373-1.8-9.661-2.638a79.035,79.035,0,0,0-9.483-1.7C281.995,298.374,281.995,298.182,282.122,298.182Z" transform="translate(12.709 -150.325)" fill="#263238"/>
        <path id="Path_34847" data-name="Path 34847" d="M300.6,311.627c-2.549-2.549-14.964-12.746-18.545-14.875a.08.08,0,1,1,.076-.14c5.736,2.473,16.506,10.694,19.361,13.549s6.22,6.488,7.648,10.273c2.09,5.71-1.275,8.183-2.549,8.922a7.877,7.877,0,0,1-5.1.981,15.818,15.818,0,0,1-5.914-2.549c-.089-.064,0-.2.077-.153,2.8,1.53,6.9,2.549,9.853.994a5.494,5.494,0,0,0,2.83-3.186,7.176,7.176,0,0,0-.765-4.933,33.142,33.142,0,0,0-6.972-8.884Z" transform="translate(12.709 -148.729)" fill="#263238"/>
        <path id="Path_34848" data-name="Path 34848" d="M240.945,320.126,279.705,373S176.221,417.952,163.3,400.91s14.977-98.717,29.8-123.789c17.169-29.048,21.592-21.133,20.967,1.823-.65,24.039-4.028,59.269-4.028,59.269Z" transform="translate(-20.805 -159.23)" fill="#455a64"/>
        <path id="Path_34849" data-name="Path 34849" d="M175.8,343.917a128.2,128.2,0,0,1,14.021-12.287,126.191,126.191,0,0,1,15.474-9.929c3.072-1.708,6.207-3.263,9.33-4.831.1,0,.166.1.076.14a160.839,160.839,0,0,0-15.69,9.84q-7.558,5.264-14.9,10.77c-2.766,2.09-5.443,4.308-8.145,6.475a.122.122,0,1,1-.166-.178Z" transform="translate(-16.469 -143.164)" fill="#263238"/>
        <path id="Path_34850" data-name="Path 34850" d="M229.855,310.84c-.51.255-28.207,15.665-29.1,16.3,0-.472,2.333-17.207,2.689-19.654a1.856,1.856,0,0,1,.1-.739c.331-1.122.688-2.256.981-3.4.382-1.466.752-2.932,1.122-4.4h-.064c-.433,1.453-.879,2.893-1.275,4.346-.2.663-.37,1.275-.548,2.027.2-1.733.4-3.454.586-5.188.293-2.766.5-5.532.7-8.3a.07.07,0,1,0-.14,0c-.688,4.882-1.529,9.751-2.243,14.632s-3.556,22.943-3.518,22.943,30.4-17.806,30.909-18.227a.217.217,0,0,0-.2-.344Z" transform="translate(-10.046 -150.058)" fill="#263238"/>
        <path id="Path_34851" data-name="Path 34851" d="M235.01,342.1c-4.283-5.9-8.527-11.854-13.026-17.6-2.549-3.263-5.1-6.539-7.648-9.789-.1-.115-.331,0-.242.166,4.066,6.093,8.157,12.211,12.5,18.112s8.591,11.815,12.988,17.64c2.549,3.314,5.1,6.539,7.8,9.7a.076.076,0,0,0,.115-.089C243.6,354.006,239.319,348.053,235.01,342.1Z" transform="translate(-5.948 -143.769)" fill="#263238"/>
        <path id="Path_34852" data-name="Path 34852" d="M278.259,350.017c-1.427-1.58-3.288-3.9-4.78-5.417-.4-.408-.727-.242-.4.191,1.134,1.466,2.167,3.161,3.3,4.678-1.453.586-2.932,1.147-4.385,1.759l-5.1,2.116q-4.958,2.039-9.942,3.99-10.095,3.938-20.394,7.444A417.13,417.13,0,0,1,194.8,376.9c-3.951.9-7.928,1.746-11.917,2.447a118.262,118.262,0,0,1-11.867,1.682.1.1,0,0,0,0,.191,67.117,67.117,0,0,0,10.49-.624c3.633-.51,7.265-1.122,10.86-1.848,7.176-1.466,14.263-3.3,21.3-5.328q20.9-6.029,41.259-13.8c3.824-1.44,7.584-2.932,11.357-4.461,1.9-.778,3.824-1.555,5.672-2.371S278.5,350.272,278.259,350.017Z" transform="translate(-17.79 -135.613)" fill="#263238"/>
      </g>
      <g id="freepik--piggy-bank--inject-13" transform="translate(262.094 391.039)">
        <path id="Path_34853" data-name="Path 34853" d="M250.054,376.291c.421-2.154.676-4.079.892-6.144a61.511,61.511,0,0,0,.306-6.169,34.808,34.808,0,0,0-.561-6.373,15.3,15.3,0,0,0-2.868-6.768,8.922,8.922,0,0,0-3.492-2.638,9.1,9.1,0,0,0-2.1-.586,10.706,10.706,0,0,0-2.014-.089,12.21,12.21,0,0,0-6.832,2.753,19.12,19.12,0,0,0-4.372,5,17.349,17.349,0,0,0-2.4,6.194,7.481,7.481,0,0,0,.306,3.926,4.321,4.321,0,0,0,1.581,2,4.64,4.64,0,0,0,2.294.765,4.334,4.334,0,0,0,2.409-.586,4.984,4.984,0,0,0,1.555-1.542,8.922,8.922,0,0,0,1.275-3.288,18.088,18.088,0,0,0,0-6.258,15.206,15.206,0,0,0-2.345-5.8,6.922,6.922,0,0,0-2.409-2.243,5.1,5.1,0,0,0-3.288-.548,9.93,9.93,0,0,0-5.239,3.072,32.922,32.922,0,0,0-6.182,9.84,32.387,32.387,0,0,1,6.819-9.164,8.706,8.706,0,0,1,4.754-2.345,4.092,4.092,0,0,1,3.824,2.447,12.747,12.747,0,0,1,1.364,5.1,15.194,15.194,0,0,1-.433,5.239,6,6,0,0,1-.956,2.027,1.427,1.427,0,0,1-.535.433.611.611,0,0,1-.37,0,.752.752,0,0,1-.408-.191,1.033,1.033,0,0,1-.115-.293,3.939,3.939,0,0,1,.14-1.772,14.441,14.441,0,0,1,5.748-7.711,6.59,6.59,0,0,1,3.824-1.2,4.6,4.6,0,0,1,.854.127,2.88,2.88,0,0,1,.663.268,2.727,2.727,0,0,1,.969.943,9.382,9.382,0,0,1,1.147,3.964,28.657,28.657,0,0,1,0,5.1,52.091,52.091,0,0,1-.727,5.341,43.679,43.679,0,0,1-1.275,5.239Z" transform="translate(-216.57 -306.876)" fill="#e27e2b"/>
        <path id="Path_34854" data-name="Path 34854" d="M250.054,376.291c.421-2.154.676-4.079.892-6.144a61.511,61.511,0,0,0,.306-6.169,34.808,34.808,0,0,0-.561-6.373,15.3,15.3,0,0,0-2.868-6.768,8.922,8.922,0,0,0-3.492-2.638,9.1,9.1,0,0,0-2.1-.586,10.706,10.706,0,0,0-2.014-.089,12.21,12.21,0,0,0-6.832,2.753,19.12,19.12,0,0,0-4.372,5,17.349,17.349,0,0,0-2.4,6.194,7.481,7.481,0,0,0,.306,3.926,4.321,4.321,0,0,0,1.581,2,4.64,4.64,0,0,0,2.294.765,4.334,4.334,0,0,0,2.409-.586,4.984,4.984,0,0,0,1.555-1.542,8.922,8.922,0,0,0,1.275-3.288,18.088,18.088,0,0,0,0-6.258,15.206,15.206,0,0,0-2.345-5.8,6.922,6.922,0,0,0-2.409-2.243,5.1,5.1,0,0,0-3.288-.548,9.93,9.93,0,0,0-5.239,3.072,32.922,32.922,0,0,0-6.182,9.84,32.387,32.387,0,0,1,6.819-9.164,8.706,8.706,0,0,1,4.754-2.345,4.092,4.092,0,0,1,3.824,2.447,12.747,12.747,0,0,1,1.364,5.1,15.194,15.194,0,0,1-.433,5.239,6,6,0,0,1-.956,2.027,1.427,1.427,0,0,1-.535.433.611.611,0,0,1-.37,0,.752.752,0,0,1-.408-.191,1.033,1.033,0,0,1-.115-.293,3.939,3.939,0,0,1,.14-1.772,14.441,14.441,0,0,1,5.748-7.711,6.59,6.59,0,0,1,3.824-1.2,4.6,4.6,0,0,1,.854.127,2.88,2.88,0,0,1,.663.268,2.727,2.727,0,0,1,.969.943,9.382,9.382,0,0,1,1.147,3.964,28.657,28.657,0,0,1,0,5.1,52.091,52.091,0,0,1-.727,5.341,43.679,43.679,0,0,1-1.275,5.239Z" transform="translate(-216.57 -306.876)" opacity="0.1"/>
        <path id="Path_34855" data-name="Path 34855" d="M249.32,442.68c5.583,7.9,4.448,32.005,7.826,35.383s38.059,3.034,40.4,1.045,1.275-10.515,3.824-11.918C302.445,466.642,249.32,442.68,249.32,442.68Z" transform="translate(-207.577 -280.743)" fill="#e27e2b"/>
        <path id="Path_34856" data-name="Path 34856" d="M301.4,467.2a3.823,3.823,0,0,0-1.491,2.549,164.772,164.772,0,0,1-46.446-12.491c-.79-5.876-1.95-11.471-4.142-14.581C249.32,442.693,302.445,466.655,301.4,467.2Z" transform="translate(-207.577 -280.743)" opacity="0.1"/>
        <path id="Path_34857" data-name="Path 34857" d="M390.414,443c-6.972,10.082-3.2,31.623-6.59,35s-38.059,3.034-40.392,1.045-1.275-10.974-2.651-12.682C340.055,465.433,390.414,443,390.414,443Z" transform="translate(-182.464 -280.655)" fill="#e27e2b"/>
        <path id="Path_34858" data-name="Path 34858" d="M390.414,443c-2.549,3.76-3.709,9.126-4.244,14.53a158.153,158.153,0,0,1-44.611,12.338,7.737,7.737,0,0,0-.777-3.505C340.055,465.433,390.414,443,390.414,443Z" transform="translate(-182.464 -280.655)" opacity="0.1"/>
        <path id="Path_34859" data-name="Path 34859" d="M336.2,329.61c-77.891,0-107.7,54.6-107.7,86.558,0,31.534,22.637,85.118,107.7,85.118S449.49,455.9,449.49,415.441,414.859,329.61,336.2,329.61Z" transform="translate(-213.294 -311.791)" fill="#e27e2b"/>
        <path id="Path_34860" data-name="Path 34860" d="M335.42,337.4s31.865-24.447,66.368-21.528c11.879,1.007-7.852,26.767-8.208,46.854Z" transform="translate(-183.934 -315.63)" fill="#e27e2b"/>
        <path id="Path_34861" data-name="Path 34861" d="M370.611,350.984c-.2,1.275,10.8,5.978,11.93,5.264s2.282-16.57,11.255-33.445C395.121,320.317,372.739,337.371,370.611,350.984Z" transform="translate(-174.272 -313.727)" opacity="0.1"/>
        <path id="Path_34862" data-name="Path 34862" d="M377.873,398.337a5.672,5.672,0,0,0,4.576-3.99,8.425,8.425,0,0,1-3.709,6.373c-.153.1-.077.4.127.331,6.093-2.294,5.43-10.9,3.288-16.379-.115-.306-.229-.612-.37-.9-1.364-3.187-3.747-5.493-6.743-5.1C365.242,380.084,368.785,399.662,377.873,398.337Z" transform="translate(-174.664 -298.332)" opacity="0.3"/>
        <path id="Path_34863" data-name="Path 34863" d="M395.812,372.22c1.517,4.576,15.359.854,18.839,3.76,5.493,4.55,3.977,61.066-1.045,65.616-2.817,2.549-18.507-.14-22.943,2.97S395.812,372.22,395.812,372.22Z" transform="translate(-169.087 -300.091)" fill="#e27e2b"/>
        <path id="Path_34864" data-name="Path 34864" d="M410.908,405.2c0,13.766-1.147,24.918-2.549,24.918s-2.549-11.153-2.549-24.918,1.147-24.918,2.549-24.918S410.908,391.395,410.908,405.2Z" transform="translate(-164.605 -297.877)" opacity="0.1"/>
        <path id="Path_34865" data-name="Path 34865" d="M284.3,347.9c.357-.089,35.931-9.445,69.058-2.129l3.3-9.751c-36.861-8.132-74.717,1.861-76.31,2.294l3.964,9.585-1.988-4.793Z" transform="translate(-199.056 -310.902)" opacity="0.3"/>
        <path id="Path_34866" data-name="Path 34866" d="M263.384,456.8c-31.419-36.1-12.185-78.031-11.318-79.828a5.167,5.167,0,0,0-9.279-4.55,87.322,87.322,0,0,0-7.405,30.106c-1.517,22.943,6.08,44.05,24.052,58.4C264.862,465.2,267.424,461.377,263.384,456.8Z" transform="translate(-211.456 -300.829)" fill="#fff"/>
        <path id="Path_34867" data-name="Path 34867" d="M246.59,363.961a5.621,5.621,0,1,0,5.608-5.621,5.621,5.621,0,0,0-5.608,5.621Z" transform="translate(-208.327 -303.902)" fill="#fff"/>
      </g>
    </g>
  </g>
</svg>
