<svg xmlns="http://www.w3.org/2000/svg" width="26" height="26" viewBox="0 0 26 26">
  <g id="east_black_24dp_1_" data-name="east_black_24dp (1)" transform="translate(0.221 0.224)">
    <rect id="Rectangle_3510" data-name="Rectangle 3510" width="26" height="26" transform="translate(-0.221 -0.224)" fill="none"/>
    <path id="Path_12460" data-name="Path 12460" d="M15.266,5.773h0a1.32,1.32,0,0,0,0,1.713L19.454,12.2H3.079A1.157,1.157,0,0,0,2,13.416H2a1.157,1.157,0,0,0,1.079,1.215H19.465l-4.188,4.714a1.32,1.32,0,0,0,0,1.713h0a.992.992,0,0,0,1.522,0l6.034-6.792a1.32,1.32,0,0,0,0-1.713l-6.045-6.78A.992.992,0,0,0,15.266,5.773Z" transform="translate(0 0)" fill="#e27e28"/>
  </g>
</svg>
