<svg xmlns="http://www.w3.org/2000/svg" width="32" height="32" viewBox="0 0 32 32">
  <g id="Group_18949" data-name="Group 18949" transform="translate(-28 -60)">
    <rect id="Rectangle_9692" data-name="Rectangle 9692" width="32" height="32" rx="5" transform="translate(28 60)" fill="#e27e2b" opacity="0.5"/>
    <g id="ingot_1_" data-name="ingot (1)" transform="translate(31.99 64)">
      <path id="Path_34939" data-name="Path 34939" d="M17.018,13H6.982A1.453,1.453,0,0,1,5.8,12.4a1.5,1.5,0,0,1-.233-1.345l1.51-5A1.471,1.471,0,0,1,8.492,5h7.016a1.47,1.47,0,0,1,1.41,1.06l1.51,5a1.5,1.5,0,0,1-.233,1.345A1.457,1.457,0,0,1,17.018,13ZM8.492,6a.477.477,0,0,0-.453.349l-1.51,5a.512.512,0,0,0,.079.459A.46.46,0,0,0,6.982,12H17.017a.462.462,0,0,0,.375-.192.518.518,0,0,0,.079-.459l-1.51-5A.477.477,0,0,0,15.508,6Z" fill="#e27e28"/>
      <path id="Path_34940" data-name="Path 34940" d="M11.54,20H1.492a1.463,1.463,0,0,1-1.178-.592,1.518,1.518,0,0,1-.241-1.349l1.52-5.005A1.475,1.475,0,0,1,3,12h7.031a1.477,1.477,0,0,1,1.409,1.061l1.517,4.994a1.523,1.523,0,0,1-.241,1.354A1.459,1.459,0,0,1,11.54,20ZM3,13a.471.471,0,0,0-.449.341l-1.52,5.005a.526.526,0,0,0,.083.463A.469.469,0,0,0,1.492,19H11.54a.467.467,0,0,0,.377-.191A.529.529,0,0,0,12,18.34l-1.517-4.994A.474.474,0,0,0,10.031,13Z" fill="#e27e28"/>
      <path id="Path_34941" data-name="Path 34941" d="M22.528,20H12.479a1.348,1.348,0,0,1-.74-.209.5.5,0,1,1,.54-.841.362.362,0,0,0,.2.051H22.528a.465.465,0,0,0,.377-.191.53.53,0,0,0,.082-.468L21.47,13.347A.472.472,0,0,0,21.02,13H13.988a.473.473,0,0,0-.449.34L12.488,16.8a.5.5,0,1,1-.957-.291l1.049-3.45A1.476,1.476,0,0,1,13.988,12H21.02a1.478,1.478,0,0,1,1.409,1.06l1.517,4.995a1.519,1.519,0,0,1-.24,1.354A1.463,1.463,0,0,1,22.528,20Z" fill="#e27e28"/>
      <path id="Path_34942" data-name="Path 34942" d="M8.5,11a.531.531,0,0,1-.146-.021.5.5,0,0,1-.332-.624l.916-3A.5.5,0,0,1,9.419,7H13.5a.5.5,0,0,1,0,1H9.79l-.808,2.646A.5.5,0,0,1,8.5,11Z" fill="#e27e28"/>
      <path id="Path_34943" data-name="Path 34943" d="M3.509,18a.531.531,0,0,1-.146-.021.5.5,0,0,1-.332-.624l.916-3A.5.5,0,0,1,4.425,14H8.5a.5.5,0,0,1,0,1H4.795l-.808,2.646A.5.5,0,0,1,3.509,18Z" fill="#e27e28"/>
      <path id="Path_34944" data-name="Path 34944" d="M14.5,18a.531.531,0,0,1-.146-.021.5.5,0,0,1-.332-.625l.916-3A.5.5,0,0,1,15.413,14h4.079a.5.5,0,1,1,0,1H15.784l-.808,2.646A.5.5,0,0,1,14.5,18Z" fill="#e27e28"/>
    </g>
  </g>
</svg>
