<svg xmlns="http://www.w3.org/2000/svg" width="575.244" height="576" viewBox="0 0 575.244 576">
  <g id="Group_18566" data-name="Group 18566" transform="translate(5449.622 -10093.375)">
    <g id="Rectangle_8522" data-name="Rectangle 8522" transform="translate(-5449.622 10093.375)" fill="#fff" stroke="#707070" stroke-width="1" opacity="0">
      <rect width="575.244" height="576" stroke="none"/>
      <rect x="0.5" y="0.5" width="574.244" height="575" fill="none"/>
    </g>
    <g id="Call_center-cuate" data-name="Call center-cuate" transform="translate(-5450 10117.615)">
      <g id="freepik--Desk--inject-5" transform="translate(10.421 511.075)">
        <path id="Path_34346" data-name="Path 34346" d="M30.76,437.891l69.395-.3,69.395-.114,138.789-.2,138.789.2,69.395.114,69.395.3-69.395.317-69.395.114-138.789.2-138.789-.2-69.395-.114Z" transform="translate(-30.76 -437.27)" fill="#263238"/>
      </g>
      <g id="freepik--character-2--inject-5" transform="translate(271.54 47.618)">
        <rect id="Rectangle_9504" data-name="Rectangle 9504" width="210.204" height="212.461" transform="translate(72.475 23.195)" fill="#ebebeb"/>
        <path id="Path_34347" data-name="Path 34347" d="M380.6,81.755c7.011-8.228,19.017-10.206,30.63-7.86s25.521,8.2,26.789,27.626c1.04,15.772-3.8,31.15-3.8,48.748s19.917,60.462-11.956,81.381c-28.64,18.789-86.668,1.534-88.456-37.147-1.407-30.656,34.954-59,38.783-71.137S372.921,90.756,380.6,81.755Z" transform="translate(-211.483 -71.378)" fill="#263238"/>
        <path id="Path_34348" data-name="Path 34348" d="M375.4,93.55c-.215,8.773-1.483,17.648-5.071,25.927a24.926,24.926,0,0,1-3.613,5.819c-1.407,1.775-2.9,3.448-4.4,5.071-3.017,3.284-6,6.542-8.875,9.927a90.484,90.484,0,0,0-14.022,22.047,69.324,69.324,0,0,0-5.566,25.356,59.856,59.856,0,0,1,.393-13.211,65.161,65.161,0,0,1,3.385-12.881,80.263,80.263,0,0,1,13.845-22.884c2.878-3.436,5.933-6.719,8.976-9.965s6.124-6.339,8.013-10.143a55.78,55.78,0,0,0,4.4-12.222A104.633,104.633,0,0,0,375.4,93.55Z" transform="translate(-211.513 -65.867)" fill="#263238"/>
        <path id="Path_34349" data-name="Path 34349" d="M415.959,105.94c-.216,8.951-.786,17.889-.545,26.776a109.4,109.4,0,0,0,1.116,13.223c.659,4.311,1.952,8.621,3.03,12.982s2.041,8.786,2.751,13.249a76.961,76.961,0,0,1,.862,13.553,48.075,48.075,0,0,1-2.535,13.376,33.991,33.991,0,0,1-7.468,11.334,35.84,35.84,0,0,0,6.339-11.715,47.714,47.714,0,0,0,1.75-13.033,114.687,114.687,0,0,0-4.133-26.206c-1.014-4.349-2.307-8.659-2.929-13.236a86.391,86.391,0,0,1-.685-13.528,219.646,219.646,0,0,1,2.447-26.776Z" transform="translate(-190.218 -62.549)" fill="#263238"/>
        <path id="Path_34350" data-name="Path 34350" d="M410.691,175.831c-29.16,32.1-52.957,47.518-76.411,47.518-22.3,0-69.946-54.149-73.445-61.286-3.017-6.162,36.095-39.873,42.1-35.676,10.143,7.024,42.675,47.683,46.123,47.873s16.152-8.2,46.744-22.529C414.393,143.045,430.976,153.581,410.691,175.831Z" transform="translate(-231.06 -57.17)" fill="#eb9481"/>
        <path id="Path_34351" data-name="Path 34351" d="M271.629,176.644c-4.285-4.64-22.276-27.8-25.838-35.359s-12.2-30.047-6.681-33.356S247.667,111,247.667,111s-2.143-10.066,3.715-12.894,10.269,7.252,10.269,7.252-1.445-10.5,4.59-12.906,8.8,8.494,8.8,8.494-1.775-9.547,4.032-9.433c6.986.139,8.266,18.1,12.818,26.155,1.027,1.826,23.569,35.5,23.569,35.5Z" transform="translate(-237.315 -66.414)" fill="#eb9481"/>
        <path id="Path_34352" data-name="Path 34352" d="M267.06,98.321c.976,13.2,3.689,18.814,11.41,29.3.152.2-.114.469-.292.279-8.532-9.585-12.944-16.127-11.791-29.566C266.477,97.675,267.009,97.687,267.06,98.321Z" transform="translate(-229.577 -64.718)" fill="#263238"/>
        <path id="Path_34353" data-name="Path 34353" d="M256.622,101.691c2.206,13.629,5.071,19.74,12.412,31.315.1.165-.165.355-.279.2-8.127-10.764-12.387-17.394-12.8-31.3C255.925,101.272,256.521,101.057,256.622,101.691Z" transform="translate(-232.324 -63.789)" fill="#263238"/>
        <path id="Path_34354" data-name="Path 34354" d="M245.883,107.458c3.093,13.046,5.971,19.879,14.517,30.2.2.254-.139.571-.355.342-9.737-9.686-13.388-18.193-14.542-30.428C245.427,106.761,245.693,106.634,245.883,107.458Z" transform="translate(-235.126 -62.292)" fill="#263238"/>
        <path id="Path_34355" data-name="Path 34355" d="M314.563,153.843s-.292-16.6-2.029-23.86-18.1-31.936-23.7-28.691c-7.138,4.184-.469,20.285,3.8,27.765,0,0-16.482,9.686-14.238,22.288S314.563,153.843,314.563,153.843Z" transform="translate(-226.367 -63.872)" fill="#eb9481"/>
        <path id="Path_34356" data-name="Path 34356" d="M287.4,102.656c-3.8,8.52,2.536,17.965,6.149,25.509a.773.773,0,0,1-.558,1.128c-6.669,4.526-14.745,12.83-14.846,21.325a.19.19,0,0,1-.38,0c-1.128-9.128,6.136-17.952,13.743-22.428-3.8-7.7-9.724-17.433-4.184-25.61Z" transform="translate(-226.513 -63.449)" fill="#263238"/>
        <path id="Path_34357" data-name="Path 34357" d="M339.34,160.44l23.429,43.714s31.772-30.846,36.843-43.714-.393-22.212-23-15.328A197.867,197.867,0,0,0,339.34,160.44Z" transform="translate(-209.991 -52.682)" fill="#00a0ad"/>
        <path id="Path_34358" data-name="Path 34358" d="M366.246,191.557c-1.154-2.371-2.168-4.818-3.372-7.176s-2.409-4.691-3.664-7c-2.536-4.666-5.071-9.344-7.708-13.946-1.5-2.536-3.068-5.147-4.7-7.607-.063-.114-.279,0-.216.089,4.3,9.623,9.509,18.84,14.707,27.993,1.509,2.65,3.22,5.173,4.792,7.784C366.132,191.76,366.31,191.646,366.246,191.557Z" transform="translate(-208.054 -49.2)" fill="#263238"/>
        <path id="Path_34359" data-name="Path 34359" d="M398,159.768c-5.071,12.868-36.843,43.714-36.843,43.714l-15.784-29.4,52.069-28.792C400.431,148.409,400.393,153.7,398,159.768Z" transform="translate(-208.376 -52.01)" fill="#263238"/>
        <path id="Path_34360" data-name="Path 34360" d="M345.515,234.416s-12.881,30.833-8.33,54.288H479.207c-4.615-63.759-36.4-118.554-55.175-136.29-15.138-14.3-31.074-13.02-42.168-5.705-2.612,1.737-31.429,41.559-34.548,47.86C334.942,219.43,345.515,234.416,345.515,234.416Z" transform="translate(-210.829 -53.061)" fill="#00a0ad"/>
        <path id="Path_34361" data-name="Path 34361" d="M374.127,150.825s-8.875,25.521-3.727,26.852c12.805,3.3,29.984-17.61,31.011-19.74.254-.545,1.395-14.833,2.244-25.952.545-7.151.964-13,.964-13l-31.594,10.84,1.014,19.588Z" transform="translate(-202.103 -59.054)" fill="#eb9481"/>
        <path id="Path_34362" data-name="Path 34362" d="M372.09,129.83l1.014,19.588c6.428-.9,20.564-4.387,29.616-17.433.545-7.15.964-13,.964-13l-3.956,1.268Z" transform="translate(-201.22 -59.054)" fill="#263238"/>
        <path id="Path_34363" data-name="Path 34363" d="M353.547,114.908c-.38,9.952.609,18,3.03,23.353a27.144,27.144,0,0,0,23.569,15.9c3.8.139,14.757-.862,22.681-6.9,6.162-4.691,9.876-13.147,11.981-28.019,4.818-34-10.738-45.439-26.066-46.808S354.815,80.6,353.547,114.908Z" transform="translate(-206.207 -71.555)" fill="#eb9481"/>
        <path id="Path_34364" data-name="Path 34364" d="M360.772,100.734c.8-.114,1.534-.342,2.307-.52a3.968,3.968,0,0,0,2.269-.976,1.268,1.268,0,0,0,0-1.5,3.043,3.043,0,0,0-2.992-.672,4.463,4.463,0,0,0-2.776,1.61,1.268,1.268,0,0,0,1.192,2.054Z" transform="translate(-204.647 -64.963)" fill="#263238"/>
        <path id="Path_34365" data-name="Path 34365" d="M379.146,101.406a22.639,22.639,0,0,1-2.307-.532,3.8,3.8,0,0,1-2.257-.989,1.268,1.268,0,0,1,0-1.5,3.03,3.03,0,0,1,3-.647,4.45,4.45,0,0,1,2.789,1.635,1.268,1.268,0,0,1-1.23,2.029Z" transform="translate(-200.618 -64.786)" fill="#263238"/>
        <path id="Path_34366" data-name="Path 34366" d="M373.762,107.365c0-.089.177.114.177.216-.19,2.32,0,5.071,2.067,5.908v.127C373.42,113.133,373.217,109.533,373.762,107.365Z" transform="translate(-200.838 -62.173)" fill="#263238"/>
        <path id="Path_34367" data-name="Path 34367" d="M375.952,105.51c3.8-.1,3.7,7.442.2,7.544S372.846,105.6,375.952,105.51Z" transform="translate(-200.822 -62.664)" fill="#263238"/>
        <path id="Path_34368" data-name="Path 34368" d="M376.716,105.884c.647.431,1.268,1.192,2.079,1.268s1.623-.685,2.231-1.445c.063-.076.127,0,.127.089,0,1.445-.558,2.929-2.117,3.132s-2.409-1.116-2.764-2.536C376.209,106.087,376.45,105.707,376.716,105.884Z" transform="translate(-200.103 -62.62)" fill="#263238"/>
        <path id="Path_34369" data-name="Path 34369" d="M364.406,106.585c0-.089-.178.114-.178.2,0,2.345-.241,5.071-2.358,5.807-.063,0-.063.139,0,.127C364.469,112.366,364.849,108.791,364.406,106.585Z" transform="translate(-203.97 -62.382)" fill="#263238"/>
        <path id="Path_34370" data-name="Path 34370" d="M362.861,104.652c-3.8-.292-4.07,7.252-.583,7.518S366.005,104.905,362.861,104.652Z" transform="translate(-204.504 -62.896)" fill="#263238"/>
        <path id="Path_34371" data-name="Path 34371" d="M361.841,105.118c-.609.38-1.268,1.078-1.94,1.1s-1.407-.824-1.9-1.623c0-.089-.114,0-.127.076-.089,1.445.317,2.954,1.7,3.3s2.231-.9,2.624-2.32C362.221,105.371,362.031,104.965,361.841,105.118Z" transform="translate(-205.031 -62.918)" fill="#263238"/>
        <path id="Path_34372" data-name="Path 34372" d="M374.5,121.692c-.545.571-1.078,1.344-1.914,1.445a6.5,6.5,0,0,1-2.536-.494.076.076,0,0,0-.1.114,3.17,3.17,0,0,0,3.017,1.166,2.536,2.536,0,0,0,1.762-2.13.127.127,0,0,0-.228-.1Z" transform="translate(-201.801 -58.345)" fill="#263238"/>
        <path id="Path_34373" data-name="Path 34373" d="M366.852,119.653s-.558,3.486-.583,5.135c0,.152.393.228.951.279h.063a7.822,7.822,0,0,0,7.607-2.764c.114-.152-.089-.33-.241-.228a11.867,11.867,0,0,1-7.188,1.9c-.1-.469,1.154-5.933.887-5.959a14.048,14.048,0,0,0-3.8.773c.951-7.29,3.056-14.364,3.88-21.629,0-.254-.342-.342-.418-.114-2.739,7.252-4.006,15.62-5.185,23.112C362.719,121.111,366.142,119.932,366.852,119.653Z" transform="translate(-203.703 -64.966)" fill="#263238"/>
        <path id="Path_34374" data-name="Path 34374" d="M367.12,118.877a8.646,8.646,0,0,0,3.246,2.941,3.93,3.93,0,0,0,2.333.33c1.737-.317,1.9-1.876,1.7-3.233a9.821,9.821,0,0,0-.608-2.1A11.182,11.182,0,0,1,367.12,118.877Z" transform="translate(-202.551 -59.638)" fill="#263238"/>
        <path id="Path_34375" data-name="Path 34375" d="M369.68,121.374a3.93,3.93,0,0,0,2.333.33c1.737-.317,1.9-1.876,1.7-3.233A4.006,4.006,0,0,0,369.68,121.374Z" transform="translate(-201.865 -59.194)" fill="#ff98b9"/>
        <path id="Path_34376" data-name="Path 34376" d="M413.94,116.349c-3.74.114-14.352-9.217-16.279-27.144,0,0,2.853,15.975,4.273,18.219s-5.933-5.261-7.7-19.689c0,0-7.48,6.517-14.149,9.052s-10.84,2.865-11.41,2.409,9.23-4.539,11.664-7.911c0,0-17.407,10.143-25.724,11.512-.964.152.659-14.821,12.843-24.456s28.932-7.227,34.941-2.409c0,0,6.567.342,14.479,9.28S417.959,116.222,413.94,116.349Z" transform="translate(-205.961 -71.715)" fill="#263238"/>
        <path id="Path_34377" data-name="Path 34377" d="M397.775,113.138s6.96-11.068,11.943-8.634.127,18.219-5.464,20.615a5.794,5.794,0,0,1-7.924-2.726Z" transform="translate(-194.728 -63.027)" fill="#eb9481"/>
        <path id="Path_34378" data-name="Path 34378" d="M407.542,108c.1,0,.114.114,0,.152-3.918,1.813-5.832,5.629-7.125,9.547,1.128-1.547,2.7-2.434,4.754-1.116.1.063,0,.241-.1.216a3.588,3.588,0,0,0-3.8,1.445,18.177,18.177,0,0,0-1.724,3.258c-.165.368-.824.216-.7-.2a.3.3,0,0,1,0-.1C398.49,116.076,402.1,108.748,407.542,108Z" transform="translate(-194.061 -61.997)" fill="#263238"/>
        <path id="Path_34379" data-name="Path 34379" d="M418.733,157.195c14.047,16.215,53.426,74.915,44.3,90.776-8.761,15.214-28.627,19.5-40.063-.938-8.228-14.618-22.06-58.231-25.5-79.15C394.682,150.944,405.751,142.2,418.733,157.195Z" transform="translate(-194.538 -50.882)" fill="#eb9481"/>
        <path id="Path_34380" data-name="Path 34380" d="M406.071,209.793l46.554-17.1s-26.13-35.765-38.161-42.573-22.047-2.7-18.371,20.64A196.412,196.412,0,0,0,406.071,209.793Z" transform="translate(-194.998 -51.513)" fill="#00a0ad"/>
        <path id="Path_34381" data-name="Path 34381" d="M442.075,177.831c-2.536.824-5.071,1.483-7.607,2.345s-4.97,1.737-7.429,2.662c-4.983,1.851-9.952,3.7-14.884,5.693-2.764,1.116-5.528,2.32-8.228,3.588-.127,0-.076.266,0,.228,10.143-2.916,19.981-6.8,29.768-10.662,2.84-1.128,5.566-2.536,8.368-3.664C442.253,177.971,442.164,177.793,442.075,177.831Z" transform="translate(-192.714 -43.297)" fill="#263238"/>
        <path id="Path_34382" data-name="Path 34382" d="M408.474,203.274a17.043,17.043,0,0,0-2.7.837c-1.268-2.751-4.272-14.846-4.97-17.952-1.395-6.187-2.536-12.437-3.994-18.624,0-.177-.342-.127-.317,0,.431,3.436.964,6.859,1.559,10.257-.634-1.623-1.268-3.258-1.762-4.919a.076.076,0,1,0-.139,0,50.4,50.4,0,0,0,2.117,6.06c.494,6.339,6.263,26.485,6.428,26.409a38.131,38.131,0,0,0,3.8-1.991C408.639,203.388,408.639,203.261,408.474,203.274Z" transform="translate(-194.778 -46.084)" fill="#263238"/>
        <path id="Path_34383" data-name="Path 34383" d="M390.546,102.218,377.3,158.775c-.571,1.661.279,2.992,1.9,2.967l25.293,5.147a4.691,4.691,0,0,0,3.981-3.068l13.249-56.557c.571-1.661-.279-2.992-1.9-2.954l-25.293-5.16a4.691,4.691,0,0,0-3.981,3.068Z" transform="translate(-199.873 -64.367)" fill="#a6a6a6"/>
        <path id="Path_34384" data-name="Path 34384" d="M392.248,102.468l-13.211,56.557c-.571,1.661.279,2.992,1.9,2.967l25.293,5.147a4.691,4.691,0,0,0,3.981-3.055l13.2-56.557c.571-1.674-.279-2.992-1.9-2.967l-25.28-5.16A4.729,4.729,0,0,0,392.248,102.468Z" transform="translate(-199.407 -64.3)" fill="#dbdbdb"/>
        <path id="Path_34385" data-name="Path 34385" d="M396.811,104.262a2.536,2.536,0,1,1-2.46-2.472A2.472,2.472,0,0,1,396.811,104.262Z" transform="translate(-195.957 -63.661)" fill="#263238"/>
        <path id="Path_34386" data-name="Path 34386" d="M427.175,251.1c8.228,15.214,30.009,6.542,33.306-4.184,7.734-25.166,2.941-67-1.674-90.37-1.483-7.518-52.551,0-52.247,8.127C406.915,174.5,411.048,221.178,427.175,251.1Z" transform="translate(-191.988 -49.826)" fill="#eb9481"/>
        <path id="Path_34387" data-name="Path 34387" d="M460.256,182.511a79.289,79.289,0,0,0,.456-33.749c-2.688-12.158-11.474-37.946-46.8-49.445-8.38-2.738-22.263-.7-10.143,8.735,8.57,6.707,16.025,8.368,20.285,13.185,0,0-17.344,4.691-19.753,13.185a163.817,163.817,0,0,0-4.729,22.669,34.709,34.709,0,0,0,4.158,1.268,33.712,33.712,0,0,0,4.894,21.147Z" transform="translate(-194.008 -64.623)" fill="#eb9481"/>
        <path id="Path_34388" data-name="Path 34388" d="M459.539,133.31c-5.249-3.8-16.482-11.892-28.006-15.214-12.78-3.8-38.377-7.48-41.039,1.965-1.952,6.935,7.7,9.23,7.7,9.23s-10.9.685-11.3,7.328c-.355,6.06,7.214,7.391,7.214,7.391s-6.542,1.547-5.769,7.455c.938,7.087,14.517,2.675,21.68,9.04C411.628,161.9,459.539,133.31,459.539,133.31Z" transform="translate(-197.259 -60.366)" fill="#eb9481"/>
        <path id="Path_34389" data-name="Path 34389" d="M427.455,129.286c-5.528-2.84-19.753-6.047-31.442-3.144-.266,0-.355.292-.1.292A131.321,131.321,0,0,1,427.43,129.4C427.493,129.425,427.519,129.311,427.455,129.286Z" transform="translate(-194.88 -57.445)" fill="#263238"/>
        <path id="Path_34390" data-name="Path 34390" d="M424.223,139.065c-5.071-1.952-19.841-4.615-31.581-1.268-.266.076-.342.317-.089.3a139.28,139.28,0,0,1,31.7,1.09.065.065,0,1,0-.025-.127Z" transform="translate(-195.781 -54.444)" fill="#263238"/>
        <path id="Path_34391" data-name="Path 34391" d="M423.586,241.207c-.38-1.268-.748-2.536-1.154-3.689-.837-2.536-1.559-5.071-2.295-7.607-1.5-5.071-2.929-10.219-4.184-15.391a272.5,272.5,0,0,1-5.692-31.29c-.355-2.916-.659-5.832-.976-8.748s-.418-5.946-.976-8.875c0-.152-1.483-2.384-2.067-3.486a29.682,29.682,0,0,1-1.585-3.55,32.84,32.84,0,0,1-1.914-7.708.089.089,0,0,0-.165,0,25,25,0,0,0,1.116,8.875,15.683,15.683,0,0,0,3.93,6.339c0,.38.089,5.071.241,7.7s.393,5.249.685,7.86c.6,5.249,1.331,10.485,2.257,15.7a238.5,238.5,0,0,0,7.531,31.15,1.887,1.887,0,0,0,.165.494v1.141a22.97,22.97,0,0,0,.228,2.8,26.448,26.448,0,0,0,1.357,5.414.1.1,0,1,0,.19,0,36.052,36.052,0,0,1-.913-5.578l-.228-1.927c.7,2.054,1.433,4.108,2.155,6.149.507,1.42,1.027,2.8,1.61,4.184s1.04,2.726,1.724,4.006c0,.1.2,0,.178-.076C424.486,243.73,423.979,242.487,423.586,241.207Z" transform="translate(-193.065 -50.533)" fill="#263238"/>
        <path id="Path_34392" data-name="Path 34392" d="M302.662,264.779V230.7L263.93,264.779Z" transform="translate(-230.187 -29.136)" fill="#ebebeb"/>
      </g>
      <g id="freepik--character-1--inject-5" transform="translate(27.908 219.615)">
        <path id="Path_34393" data-name="Path 34393" d="M137.811,319.425c11.157,48.545,34.231,106.738,44.082,116.183,12.463,11.943,94.909,33.851,99.017,34.294,10.143,1.027,30.592-72.266,19.74-73.85-16.482-2.384-76.526-5.642-80.113-9.331s-29.071-35.816-55.112-71.911C147.446,289.872,130.876,289.3,137.811,319.425Z" transform="translate(-20.009 -183.527)" fill="#ad6359"/>
        <path id="Path_34394" data-name="Path 34394" d="M243.9,445.149c1.2.609,18.434,9.28,29.084,12.361,7.949,2.307,31,8.33,34.409-.178,2.333-5.781-10.815-10.916-20.019-14.757-4.856-2.029-10.84-7.1-9.407-10.219,2.536-5.452,15,0,23.214,4.792,15.886,9.23,37.046,25.851,46.744,17.75,3.664-3.043-.6-8.6-6.821-14.035,10.143,6.339,20.894,11.537,25.09,8.317,2.422-1.838,2.536-4.361,1.192-7.227,3.119,1.014,5.87.811,7.8-1.268,3.284-3.448,1.686-8.52-1.914-13.73A3.905,3.905,0,0,0,376.26,425c6.96-10.612-27.892-41.077-39.924-43.93-35.435-8.431-72.785-6.859-72.785-6.859C249.631,385.384,243.862,445.124,243.9,445.149Z" transform="translate(8.836 -162.729)" fill="#ad6359"/>
        <path id="Path_34395" data-name="Path 34395" d="M285.016,404.411a60.171,60.171,0,0,1,23.645,9.09c8.989,5.933,14.948,12.881,22.478,19.867a.216.216,0,0,1-.279.317c-3.588-3.322-18.472-15.822-22.314-18.662a57.382,57.382,0,0,0-23.531-10.472C284.9,404.537,284.927,404.385,285.016,404.411Z" transform="translate(19.827 -154.611)" fill="#263238"/>
        <path id="Path_34396" data-name="Path 34396" d="M290.232,392.541c9.319,2.536,18.865,5.071,27.512,9.534,9.458,4.818,16.862,12.678,24.089,20.285q6.567,6.808,12.818,13.946c.165.2-.1.52-.279.317Q343.29,424.908,331.55,413.8a75.841,75.841,0,0,0-25.1-15.822c-5.325-2.041-10.8-3.651-16.279-5.274C290.092,392.68,290.13,392.515,290.232,392.541Z" transform="translate(21.217 -157.79)" fill="#263238"/>
        <path id="Path_34397" data-name="Path 34397" d="M298.068,382.17c9.052,1.864,16.951,3.449,24.963,8.292,10.612,6.428,20.856,17.242,24.443,21.084,3.968,4.234,7.8,8.6,11.55,13.021.152.178-.152.456-.317.279a300.5,300.5,0,0,0-27.6-27.347,60.124,60.124,0,0,0-15.442-10.041,107.274,107.274,0,0,0-17.61-5.223S297.992,382.158,298.068,382.17Z" transform="translate(23.333 -160.567)" fill="#263238"/>
        <path id="Path_34398" data-name="Path 34398" d="M286.7,392.331,261.345,472.66s-68.652-19.6-81.14-33.128-35.7-83.384-42.51-117.248S148,289.321,163.735,310.608s54.909,73.09,57.052,74.218S286.7,392.331,286.7,392.331Z" transform="translate(-20.019 -183.761)" fill="#00a0ad"/>
        <path id="Path_34399" data-name="Path 34399" d="M286.7,392.331,261.345,472.66s-68.652-19.6-81.14-33.128-35.7-83.384-42.51-117.248S148,289.321,163.735,310.608s54.909,73.09,57.052,74.218S286.7,392.331,286.7,392.331Z" transform="translate(-20.019 -183.761)" opacity="0.1"/>
        <path id="Path_34400" data-name="Path 34400" d="M231.848,416.622c3.081-9.471,6.225-18.916,8.938-28.5,1.547-5.439,3.119-10.891,4.615-16.342.063-.216-.279-.33-.355-.127-3.461,9.382-6.91,18.8-9.94,28.336s-6.111,19.017-9,28.488c-1.635,5.426-3.119,10.878-4.425,16.393,0,.1.152.165.19.063C225.648,435.665,228.754,426.156,231.848,416.622Z" transform="translate(2.885 -163.412)" fill="#263238"/>
        <path id="Path_34401" data-name="Path 34401" d="M226.71,461.613l-3.043-1.065c-5.718-2.041-11.55-4.234-17.039-6.479-.71-.279-1.407-.571-2.092-.862-1.1-.456-2.206-.925-3.271-1.395l-1.6-.7-.571-.254-1.648-.761c-2.181-1-4.247-2-6.174-3.017l-1.268-.71a47.752,47.752,0,0,1-8.469-5.566c-.241-.216-.482-.431-.7-.647s-.444-.431-.634-.634C167.655,426,144.5,356.143,137.7,322.279l-.228-1.166v-.254c-.456-2.536-.862-5.756-1.192-9.2h0c-.951-16.849,7.024-19.6,16.875-12.2C177.709,352.162,215.325,439.248,226.71,461.613Z" transform="translate(-20.008 -183.757)" fill="#263238"/>
        <path id="Path_34402" data-name="Path 34402" d="M211.1,475.99l-149.6.786c.127-3.22,21.426-97.419,38.364-132.183,21.718-44.576,32.963-48.177,39.594-50.561,8.558-3.068,23.8-1.547,27.41.165,4.108,1.914,17.166,24.71,21.844,41.432C198.069,369.265,213.207,473.936,211.1,475.99Z" transform="translate(-40.014 -184.644)" fill="#ebebeb"/>
        <path id="Path_34403" data-name="Path 34403" d="M132.444,296.44s19.017,70.427,19.968,75.106c1.433,6.8,10.916,103.758,10.916,103.758l-104.278.355s22.757-89.762,39.7-129.064C117.23,303.489,132.444,296.44,132.444,296.44Z" transform="translate(-40.67 -183.527)" fill="#00a0ad"/>
        <g id="Group_18559" data-name="Group 18559" transform="translate(18.38 112.913)" opacity="0.1">
          <path id="Path_34404" data-name="Path 34404" d="M132.444,296.44s19.017,70.427,19.968,75.106c1.433,6.8,10.916,103.758,10.916,103.758l-104.278.355s22.757-89.762,39.7-129.064C117.23,303.489,132.444,296.44,132.444,296.44Z" transform="translate(-59.05 -296.44)"/>
        </g>
        <path id="Path_34405" data-name="Path 34405" d="M145.69,294.65c.558,2.244,18.092,59.461,19.309,73.724,1.357,15.822,13.35,107.765,13.35,107.765h15.214s-22.022-132.094-28.069-146.053C153.119,301.6,145.69,294.65,145.69,294.65Z" transform="translate(-17.467 -184.006)" fill="#00a0ad"/>
        <path id="Path_34406" data-name="Path 34406" d="M145.69,294.65c.558,2.244,18.092,59.461,19.309,73.724,1.357,15.822,13.35,107.765,13.35,107.765h15.214s-22.022-132.094-28.069-146.053C153.119,301.6,145.69,294.65,145.69,294.65Z" transform="translate(-17.467 -184.006)" opacity="0.1"/>
        <path id="Path_34407" data-name="Path 34407" d="M116.273,311.983c-25.052,26.84-85.958,128.671-66.637,147.244s126.592-6.428,156.715-20.792c8.963-4.26-25.09-60.145-35.626-61.451-8.773-1.078-53.6,19.423-54.909,16.849-1.458-2.916,5.667-24.431,16.482-63.391C144.711,285.536,127.354,300.116,116.273,311.983Z" transform="translate(-44.189 -182.601)" fill="#ad6359"/>
        <path id="Path_34408" data-name="Path 34408" d="M179.48,350.088c21.781-3.043,27.892-.469,44.868-12.792,11.169-8.089,21.135-4.425,14.757,8.418-10.421,21.02-37.7,30.833-48.177,31.518Z" transform="translate(-8.417 -173.733)" fill="#ad6359"/>
        <path id="Path_34409" data-name="Path 34409" d="M133.84,367.578s24.482-13.591,47.378-19.119c15.822-3.8,51.195-8.3,85.045,26.624,8.025,8.279,13.591,25.775-4.425,17.014-12.8-6.225-19.017-14.035-27.144-16.3,0,0,4.437,23.087-4.171,30.808A212.84,212.84,0,0,1,206.6,425.162a43.71,43.71,0,0,1-3.88-4.158s-8.723,6.453-25.128,4.881Z" transform="translate(-20.64 -170.279)" fill="#ad6359"/>
        <path id="Path_34410" data-name="Path 34410" d="M184.459,347c7.607,3.943,23.467,12.577,34.016,24.165,11.727,12.881,30.833,40.824,21.236,49.445-7.024,6.276-15.214-3.8-15.214-3.8s5.464,13.223-2.13,17.5c-6.91,3.9-12.818-4.234-12.818-4.234s1.94,8.583-5.452,11.055c-8.875,2.967-11.486-15.518-23.087-20.285C178.361,419.7,184.459,347,184.459,347Z" transform="translate(-8.186 -169.986)" fill="#ad6359"/>
        <path id="Path_34411" data-name="Path 34411" d="M198.1,374c6.5,4.881,18.447,19.753,21.743,35.157.076.355-.139.6-.279.292a170.99,170.99,0,0,0-21.553-35.334C197.908,374,198.009,374,198.1,374Z" transform="translate(-3.466 -162.755)" fill="#263238"/>
        <path id="Path_34412" data-name="Path 34412" d="M188.121,383.635c5.185,4.792,16.811,20.665,19.613,36.4.063.355-.178.583-.292.266a183.283,183.283,0,0,0-19.436-36.564C187.93,383.66,188.006,383.571,188.121,383.635Z" transform="translate(-6.142 -160.18)" fill="#263238"/>
        <path id="Path_34413" data-name="Path 34413" d="M213.419,369.36c7.1,2.092,11.715,5.578,17.749,9.737a97.559,97.559,0,0,0,9.141,5.794c2.891,1.559,7.163,3.918,10.231,1.471,1.724-1.357,1.7-3.8,1.268-5.794a28.487,28.487,0,0,0-3.9-8.076c0-.1.089-.215.165-.127a41.214,41.214,0,0,1,4.26,7.2,9.458,9.458,0,0,1,.647,5.54c-1.052,3.9-5.667,4.425-8.875,3.347a31.443,31.443,0,0,1-5.578-2.7c-1.724-.989-3.4-2.054-5.071-3.17-3.372-2.282-6.605-4.754-9.952-7.074a92.084,92.084,0,0,0-10.143-5.908.127.127,0,0,1,.063-.241Z" transform="translate(0.636 -163.998)" fill="#263238"/>
        <path id="Path_34414" data-name="Path 34414" d="M228.294,394.334c-1.838-4.044-11.791-20.906-15.011-24.811a.1.1,0,0,1,.139-.139c5.54,5.249,14.428,19.182,16.482,23.645s4.412,10.054,4.412,14.96c0,7.417-4.919,8.875-6.732,9.192a9.585,9.585,0,0,1-6.339-1.04,19.3,19.3,0,0,1-5.731-5.376c-.076-.1.063-.241.152-.139,2.536,2.929,6.846,5.807,10.865,5.274a6.694,6.694,0,0,0,4.59-2.472,8.761,8.761,0,0,0,1.192-5.972A41,41,0,0,0,228.294,394.334Z" transform="translate(0.632 -163.996)" fill="#263238"/>
        <path id="Path_34415" data-name="Path 34415" d="M157.753,380.176l34.333,72.266S57.8,482.59,46.21,459.212,86.78,344.347,110.273,317.7c27.245-30.884,30.719-20.374,24.722,7-6.339,28.653-18.421,70.085-18.421,70.085Z" transform="translate(-44.553 -182.877)" fill="#00a0ad"/>
        <path id="Path_34416" data-name="Path 34416" d="M157.753,380.176l34.333,72.266S57.8,482.59,46.21,459.212,86.78,344.347,110.273,317.7c27.245-30.884,30.719-20.374,24.722,7-6.339,28.653-18.421,70.085-18.421,70.085Z" transform="translate(-44.553 -182.877)" opacity="0.1"/>
        <path id="Path_34417" data-name="Path 34417" d="M69.177,394.663a151.489,151.489,0,0,1,40.355-19.892c4.07-1.268,8.177-2.472,12.285-3.651.127,0,.177.165,0,.2a193.519,193.519,0,0,0-21.033,8.19q-10.257,4.564-20.285,9.5c-3.8,1.864-7.505,3.9-11.233,5.9a.152.152,0,0,1-.089-.241Z" transform="translate(-37.967 -163.526)" fill="#263238"/>
        <path id="Path_34418" data-name="Path 34418" d="M142.232,368.883c-.672.178-37.4,12.311-38.605,12.868.152-.558,6.745-20.082,7.734-22.948.089-.279.178-.57.279-.849.659-1.268,1.344-2.536,1.965-3.8.786-1.661,1.572-3.347,2.345-5.071h-.076l-2.536,4.906c-.393.748-.761,1.521-1.128,2.295.647-2.016,1.268-4.044,1.889-6.086.989-3.233,1.876-6.5,2.751-9.775,0-.114-.127-.139-.165,0-1.952,5.692-4.082,11.322-6.047,17.014s-9.521,26.624-9.458,26.624,40.443-14.276,41.229-14.593a.3.3,0,0,0-.178-.583Z" transform="translate(-29.387 -171.774)" fill="#263238"/>
        <path id="Path_34419" data-name="Path 34419" d="M139.5,407.953c-3.8-8.051-7.493-16.152-11.563-24.088-2.32-4.5-4.615-9.014-6.973-13.49-.089-.165-.393,0-.317.139,3.474,8.241,6.973,16.482,10.827,24.583s7.607,16.1,11.524,24.089q3.347,6.808,7.112,13.4c0,.089.2,0,.165,0C147.077,424.193,143.311,416.092,139.5,407.953Z" transform="translate(-24.178 -163.744)" fill="#263238"/>
        <path id="Path_34420" data-name="Path 34420" d="M190.941,422.566c-1.344-2.231-3.043-5.426-4.475-7.607-.38-.571-.824-.456-.52.139,1.027,2.029,1.876,4.3,2.878,6.339-1.876.38-3.8.71-5.654,1.1-2.181.456-4.349.926-6.529,1.369l-12.83,2.536q-13.008,2.422-26.117,4.26a512.1,512.1,0,0,1-52.817,4.957c-4.945.177-9.9.266-14.846.2a143.029,143.029,0,0,1-14.605-.71.121.121,0,0,0,0,.241A81.039,81.039,0,0,0,68.1,437.044c4.475.216,8.963.317,13.452.266,8.875-.1,17.838-.685,26.726-1.5,17.623-1.623,35.195-4.006,52.614-7.087q7.328-1.268,14.618-2.751c2.46-.494,4.906-.989,7.353-1.534S191.169,422.946,190.941,422.566Z" transform="translate(-41.672 -151.885)" fill="#263238"/>
        <path id="Path_34421" data-name="Path 34421" d="M152.337,327.859c-8.875,2.447-24.76-10.675-31.252-21.553-.444-.748.431-8.811,1.027-18.662.342-5.971.571-12.678.342-18.738,0-1.268,38.58,7.886,38.58,7.886s-3.3,12.906-2.84,23.531a13.947,13.947,0,0,0,.355,2.536,2.893,2.893,0,0,1,.076.406C159.577,307.967,160.92,325.488,152.337,327.859Z" transform="translate(-24.088 -190.934)" fill="#ad6359"/>
        <path id="Path_34422" data-name="Path 34422" d="M124,269c2.155,10.244,9.483,34.9,29.9,34.611a24.28,24.28,0,0,0,3.9-.355,1.824,1.824,0,0,0,0-.418,16.483,16.483,0,0,1-.368-2.536c-.444-10.637,2.84-23.556,2.84-23.556S132.355,270.154,124,269Z" transform="translate(-23.275 -190.876)" fill="#263238"/>
        <path id="Path_34423" data-name="Path 34423" d="M156.2,257.889c-.431,9.356,5.883,17.242,14.1,17.623s15.214-6.922,15.632-16.279-5.9-17.242-14.1-17.61S156.623,248.532,156.2,257.889Z" transform="translate(-14.656 -198.212)" fill="#455a64"/>
        <ellipse id="Ellipse_986" data-name="Ellipse 986" cx="18.865" cy="16.558" rx="18.865" ry="16.558" transform="translate(135.838 78.887) rotate(-87.41)" fill="#c7c7c7"/>
        <path id="Path_34424" data-name="Path 34424" d="M127.176,233.98c-6.643,12.526-7.062,52.348.748,62.77,11.322,15.087,33.572,20.627,47.29,6.212,13.35-14.022,12.97-65.927,3.9-75.778C165.794,212.643,136.989,215.483,127.176,233.98Z" transform="translate(-23.776 -204.553)" fill="#ad6359"/>
        <path id="Path_34425" data-name="Path 34425" d="M152.82,254.875c0-.1-.216.139-.2.254.139,2.675-.139,5.769-2.536,6.707-.076,0-.063.165,0,.152C153.048,261.506,153.377,257.4,152.82,254.875Z" transform="translate(-16.305 -194.665)" fill="#263238"/>
        <path id="Path_34426" data-name="Path 34426" d="M151,252.711c-4.323-.228-4.463,8.431-.469,8.634S154.625,252.9,151,252.711Z" transform="translate(-16.944 -195.24)" fill="#263238"/>
        <path id="Path_34427" data-name="Path 34427" d="M164.116,255.135c0-.1.2.139.2.241-.127,2.688.177,5.781,2.536,6.707.076,0,0,.165,0,.152C163.926,261.766,163.558,257.658,164.116,255.135Z" transform="translate(-12.59 -194.596)" fill="#263238"/>
        <path id="Path_34428" data-name="Path 34428" d="M166.552,253c4.311-.266,4.513,8.393.507,8.634S162.926,253.153,166.552,253Z" transform="translate(-12.579 -195.162)" fill="#263238"/>
        <path id="Path_34429" data-name="Path 34429" d="M147.657,248.394a34.671,34.671,0,0,0,3.525-.507,5.73,5.73,0,0,0,3.486-1.268,1.826,1.826,0,0,0,.127-2.231,4.526,4.526,0,0,0-4.4-1.268,6.618,6.618,0,0,0-4.323,2.092,1.952,1.952,0,0,0,1.585,3.182Z" transform="translate(-17.481 -197.845)" fill="#263238"/>
        <path id="Path_34430" data-name="Path 34430" d="M170.7,249.232a32.657,32.657,0,0,1-3.423-.951,5.718,5.718,0,0,1-3.309-1.585,1.826,1.826,0,0,1,.139-2.231,4.564,4.564,0,0,1,4.539-.773,6.681,6.681,0,0,1,4.032,2.612,1.952,1.952,0,0,1-1.978,2.929Z" transform="translate(-12.656 -197.732)" fill="#263238"/>
        <path id="Path_34431" data-name="Path 34431" d="M148.427,274.49c.634.634,1.268,1.509,2.231,1.61a7.2,7.2,0,0,0,2.891-.634.1.1,0,0,1,.114.139,3.588,3.588,0,0,1-3.423,1.407,2.878,2.878,0,0,1-2.079-2.409C148.123,274.452,148.326,274.389,148.427,274.49Z" transform="translate(-16.806 -189.419)" fill="#263238"/>
        <path id="Path_34432" data-name="Path 34432" d="M150.712,274.28a9.115,9.115,0,0,0,6.022,4.158,11.413,11.413,0,0,0,3.284.216,5.075,5.075,0,0,0,.634-.063l.583-.089a.672.672,0,0,0,.558-.583h0a2.051,2.051,0,0,0,0-.279h0V277.4c.089-2.067,0-5.211,0-5.211.748.393,4.577,2.193,4.526,1.116-.38-8.951-.811-18.89-3.081-27.7a.254.254,0,0,0-.494,0c0,8.608,1.572,17.154,1.737,25.8a16.3,16.3,0,0,0-4.285-1.382c-.292.089.393,6.073.279,7a.566.566,0,0,1,0,.1c-3.486.38-6.086-.71-9.407-3.093C150.763,273.887,150.547,274.051,150.712,274.28Z" transform="translate(-16.137 -197.195)" fill="#263238"/>
        <path id="Path_34433" data-name="Path 34433" d="M159.055,271.487a10.763,10.763,0,0,1-4.387,3.3,4.907,4.907,0,0,1-2.967.139c-2.13-.609-2.155-2.536-1.737-4.247a11.678,11.678,0,0,1,1-2.536,14.048,14.048,0,0,0,8.089,3.347Z" transform="translate(-16.378 -191.106)" fill="#263238"/>
        <path id="Path_34434" data-name="Path 34434" d="M154.668,274.248a4.907,4.907,0,0,1-2.967.139c-2.13-.609-2.155-2.536-1.737-4.247C152.259,270.419,154.5,272.016,154.668,274.248Z" transform="translate(-16.378 -190.571)" fill="#ff98b9"/>
        <path id="Path_34435" data-name="Path 34435" d="M122.18,261.091c2.612-.418,8.875-9.255,11.524-12.767s4.184-22.339,4.425-26.624a28.209,28.209,0,0,0-10.979,11.233C124.183,238.562,122.472,249.63,122.18,261.091Z" transform="translate(-23.763 -203.544)" fill="#263238" opacity="0.2"/>
        <path id="Path_34436" data-name="Path 34436" d="M165.164,234.937a13.49,13.49,0,0,1-12.45,4.171,13.743,13.743,0,0,1-10.32-8.532c0-.139-.254-.063-.2.063a13.591,13.591,0,0,0,10.307,9.547,13.87,13.87,0,0,0,12.919-5.071.165.165,0,0,0-.254-.177Z" transform="translate(-18.405 -201.187)" fill="#263238"/>
        <path id="Path_34437" data-name="Path 34437" d="M154.4,207.38c-7.822-.076-15.125,4.019-18.155,9.242a15.138,15.138,0,0,0-1.775,9.813c0,.139.292.114.279,0a16.6,16.6,0,0,1,8.3-14.745,21.413,21.413,0,0,1,19.017-1.674,13.439,13.439,0,0,1,7.074,6.06c.152.292.735.127.621-.165C167.787,210.943,161.461,207.444,154.4,207.38Z" transform="translate(-20.521 -207.379)" fill="#263238"/>
        <path id="Path_34438" data-name="Path 34438" d="M190.291,224.445a17.28,17.28,0,0,0-7.049-9.5c-4.7-3.119-10.143-2.853-15.518-2.472a.114.114,0,0,0,0,.228c4.59-.3,9.268-.355,13.4,1.94a16.913,16.913,0,0,1,7.607,8.482,16.482,16.482,0,0,1-7.48,20.285,16.786,16.786,0,0,1-13.261.926c-.177-.063-.3.177-.139.254a16.875,16.875,0,0,0,22.466-20.146Z" transform="translate(-11.596 -206.074)" fill="#263238"/>
        <path id="Path_34439" data-name="Path 34439" d="M124.558,243.887s-6.922-14.238-.431-22.1c3.677-4.45,15.315-3.436,15.315-3.436s3.994-6.555,13.73-8.418,21.223,4.235,21.223,4.235,9.458-4.957,17.952.317c11.854,7.353,9.673,25.724-2.726,31.2-8.7,3.8-20.032-4.133-20.032-4.133-1.128.114-12.818,6.58-21.084-3.93,0,0-7.252,5.984-13.4,1.382A10.143,10.143,0,0,1,124.558,243.887Z" transform="translate(-23.985 -206.79)" fill="#263238"/>
        <path id="Path_34440" data-name="Path 34440" d="M131.2,259.121s-6.58-13.946-12.78-11.867-2.764,21.375,3.448,25a6.871,6.871,0,0,0,9.7-2.067Z" transform="translate(-25.646 -196.756)" fill="#ad6359"/>
        <path id="Path_34441" data-name="Path 34441" d="M118.63,251.54c-.1,0-.152.127,0,.178,4.336,2.688,6.048,7.442,6.986,12.222-1.078-1.965-2.815-3.233-5.4-1.99a.152.152,0,0,0,.076.279,4.247,4.247,0,0,1,4.336,2.244,20.828,20.828,0,0,1,1.547,4.082c.152.456.938.355.862-.152a.369.369,0,0,0,0-.114C128.1,262.367,124.919,253.252,118.63,251.54Z" transform="translate(-24.739 -195.552)" fill="#263238"/>
        <path id="Path_34442" data-name="Path 34442" d="M143.879,282.828l-12.488-5.388-10.041-12.5,1.927-1.559,9.661,12.032,11.93,5.147Z" transform="translate(-23.985 -192.381)" fill="#c7c7c7"/>
        <path id="Path_34443" data-name="Path 34443" d="M138.094,277.58c1.268-3.639,11.41-2.295,9.572,3.208S136.865,281.193,138.094,277.58Z" transform="translate(-19.532 -189.123)" fill="#37474f"/>
        <path id="Path_34444" data-name="Path 34444" d="M117.608,257.191s-1.357-20.45,4.628-31.7c6.669-12.564,34.307-24.52,53.248-11.017,0,0-30.77-5.5-45.109,11.918-6.035,7.328-5.883,31.366-5.883,31.366Z" transform="translate(-25.023 -207.074)" fill="#c7c7c7"/>
        <ellipse id="Ellipse_987" data-name="Ellipse 987" cx="16.558" cy="18.865" rx="16.558" ry="18.865" transform="matrix(1, -0.01, 0.01, 1, 78.444, 41.925)" fill="#c7c7c7"/>
        <path id="Path_34445" data-name="Path 34445" d="M135.166,258.191c.089,9.369-6.491,17.027-14.707,17.1s-14.96-7.442-15.049-16.811,6.491-17.027,14.707-17.1S135.077,248.822,135.166,258.191Z" transform="translate(-28.254 -198.273)" fill="#455a64"/>
        <path id="Path_34446" data-name="Path 34446" d="M160.044,296.707l-8.938,22.567L122.986,290.9l-7.886,9.179s27.575,45.147,27.74,43.106l9.192-19.461L165.5,337.175l-1.268-33.9Z" transform="translate(-25.659 -185.011)" fill="#ebebeb"/>
        <path id="Path_34447" data-name="Path 34447" d="M165.959,318.439c-.393-5.591-.621-11.233-1.268-16.8a.191.191,0,0,0-.38,0c-1.09,5.414.52,26.776.52,31.911h-.063c-.558-.583-12.475-11.829-12.589-11.651-1.991,3.094-8.748,17.255-9.2,18.548-4.361-7.176-22.821-35.435-28.019-42.218a.19.19,0,0,0-.33.19c3.8,7.607,27.765,44.893,28.095,44.792a221.37,221.37,0,0,0,9.623-20.564c2.016,2.447,14.035,15.15,14.073,14.314a174.959,174.959,0,0,0-.456-18.523Z" transform="translate(-25.793 -183.073)" fill="#263238"/>
      </g>
      <g id="freepik--call-button--inject-5" transform="translate(415.303 243.299)">
        <path id="Path_34448" data-name="Path 34448" d="M404.153,254.738H364.939A14.352,14.352,0,0,1,350.6,240.4h0a14.339,14.339,0,0,1,14.339-14.339h39.214A14.339,14.339,0,0,1,418.492,240.4h0a14.339,14.339,0,0,1-14.339,14.339Z" transform="translate(-350.6 -226.06)" fill="#455a64"/>
        <g id="freepik--IaQ7Yo--inject-5" transform="translate(22.899 8.897)">
          <path id="Path_34449" data-name="Path 34449" d="M368.67,238.266A2.536,2.536,0,0,1,369.1,237l.355-.52.748-.748.875-.634a10.853,10.853,0,0,1,3.956-1.534,25.129,25.129,0,0,1,9.826,0,10.573,10.573,0,0,1,3.9,1.509c.3.2.609.431.9.647l.735.735a9.82,9.82,0,0,1,.532.862,6.766,6.766,0,0,1,.3.938h-6.428a.228.228,0,0,1-.241-.139,2.181,2.181,0,0,0-1.838-1.179,43.692,43.692,0,0,0-5.616,0,2.155,2.155,0,0,0-1.826,1.166c0,.089-.089.152-.216.152h-6.4Z" transform="translate(-368.659 -233.077)" fill="#fff"/>
          <path id="Path_34450" data-name="Path 34450" d="M368.672,240.5V238.15h6.339V240.5a.71.71,0,0,1-.811.811h-4.729a.7.7,0,0,1-.8-.811Z" transform="translate(-368.661 -231.719)" fill="#fff"/>
          <path id="Path_34451" data-name="Path 34451" d="M381.441,240.563V238.18h6.276v2.358a.71.71,0,0,1-.786.786h-4.78a.685.685,0,0,1-.71-.761Z" transform="translate(-365.24 -231.711)" fill="#fff"/>
        </g>
      </g>
      <g id="freepik--Device--inject-5" transform="translate(205.135 368.103)">
        <rect id="Rectangle_9505" data-name="Rectangle 9505" width="8.697" height="5.68" transform="translate(93.999 145.165)" fill="#455a64"/>
        <rect id="Rectangle_9506" data-name="Rectangle 9506" width="8.697" height="5.68" transform="translate(105.27 144.785)" fill="#455a64"/>
        <rect id="Rectangle_9507" data-name="Rectangle 9507" width="8.697" height="5.68" transform="translate(116.554 144.405)" fill="#455a64"/>
        <rect id="Rectangle_9508" data-name="Rectangle 9508" width="8.697" height="5.68" transform="translate(127.837 144.037)" fill="#455a64"/>
        <rect id="Rectangle_9509" data-name="Rectangle 9509" width="8.697" height="5.68" transform="translate(139.121 143.657)" fill="#455a64"/>
        <rect id="Rectangle_9510" data-name="Rectangle 9510" width="8.697" height="5.68" transform="translate(150.404 143.289)" fill="#455a64"/>
        <rect id="Rectangle_9511" data-name="Rectangle 9511" width="8.697" height="5.68" transform="translate(161.688 142.908)" fill="#455a64"/>
        <rect id="Rectangle_9512" data-name="Rectangle 9512" width="8.697" height="5.68" transform="translate(172.972 142.528)" fill="#455a64"/>
        <rect id="Rectangle_9513" data-name="Rectangle 9513" width="8.697" height="5.68" transform="translate(184.243 142.16)" fill="#455a64"/>
        <path id="Path_34452" data-name="Path 34452" d="M360.616,448.118H257.39v-6.91l103.226-2.878Z" transform="translate(-165.533 -294.014)" fill="#37474f"/>
        <path id="Path_34453" data-name="Path 34453" d="M454.265,451.358H283.87L310.963,324.5H481.358Z" transform="translate(-158.442 -324.5)" fill="#455a64"/>
        <path id="Path_34454" data-name="Path 34454" d="M459.235,451.358H288.84L315.933,324.5H486.328Z" transform="translate(-157.111 -324.5)" fill="#37474f"/>
        <ellipse id="Ellipse_988" data-name="Ellipse 988" cx="11.398" cy="9.737" rx="11.398" ry="9.737" transform="matrix(0.734, -0.679, 0.679, 0.734, 219.686, 56.637)" fill="#263238"/>
        <path id="Path_34455" data-name="Path 34455" d="M402.933,452.637h-83.8V446.12l83.8-2.7Z" transform="translate(-148.998 -292.651)" fill="#455a64"/>
        <path id="Path_34456" data-name="Path 34456" d="M418.431,465.7H373.436L346.33,394.61h44.995Z" transform="translate(-141.714 -305.723)" fill="#455a64"/>
        <path id="Path_34457" data-name="Path 34457" d="M424.268,465.7H379.273L352.18,394.61h44.995Z" transform="translate(-140.147 -305.723)" fill="#263238"/>
        <path id="Path_34458" data-name="Path 34458" d="M273.612,458.479h-86.4c-7.366,0,3.3-21,30.212-29.046S282.106,450.606,273.612,458.479Z" transform="translate(-184.938 -296.769)" fill="#37474f"/>
        <path id="Path_34459" data-name="Path 34459" d="M228.14,456.908a26.218,26.218,0,0,1,1.179-7.049,29.541,29.541,0,0,1,2.9-6.58,23.939,23.939,0,0,1,4.59-5.566,20.286,20.286,0,0,1,6.073-3.8c-.925.761-1.978,1.268-2.827,2.117l-1.268,1.128-1.268,1.268a30.1,30.1,0,0,0-4.184,5.515,41.4,41.4,0,0,0-3.068,6.25A52.329,52.329,0,0,0,228.14,456.908Z" transform="translate(-173.367 -295.198)" fill="#263238"/>
        <path id="Path_34460" data-name="Path 34460" d="M236.21,436.29a55.518,55.518,0,0,1,14.415,7.239,31.088,31.088,0,0,1,6.022,5.452,18.5,18.5,0,0,1,2.219,3.436,9.965,9.965,0,0,1,1.014,3.917,11.269,11.269,0,0,0-1.559-3.626,18.181,18.181,0,0,0-2.409-3.081,42.785,42.785,0,0,0-6.022-5.071c-2.143-1.547-4.412-2.929-6.681-4.3-1.141-.685-2.307-1.344-3.474-1.978S237.389,436.937,236.21,436.29Z" transform="translate(-171.206 -294.561)" fill="#263238"/>
      </g>
      <g id="freepik--speech-bubbles--inject-5" transform="translate(215.695 0)">
        <path id="Path_34461" data-name="Path 34461" d="M277.372,233.844a38.377,38.377,0,0,1-64.139,24.228L194,260.937l9.61-16.6a38.387,38.387,0,1,1,73.725-10.5Z" transform="translate(-192.732 7.972)" fill="#fff"/>
        <path id="Path_34462" data-name="Path 34462" d="M277.64,233.919a38.58,38.58,0,0,1-7.746,19.461,43.462,43.462,0,0,1-3.474,4.006,45.26,45.26,0,0,1-4.057,3.423,37.437,37.437,0,0,1-9.255,5.16,38.163,38.163,0,0,1-10.333,2.46,35.738,35.738,0,0,1-5.338.1,33.842,33.842,0,0,1-5.312-.545,38.8,38.8,0,0,1-19.017-9.382l.456.139L194.382,261.7l-1.382.253.7-1.268,9.559-16.646v.659a38.77,38.77,0,1,1,74.421-10.776Zm0,0a38.042,38.042,0,0,0-59.385-35.283,39.746,39.746,0,0,0-11.486,12.526,38.036,38.036,0,0,0-4.894,16.253A38.492,38.492,0,0,0,204.6,244.2l.139.342-.19.3-9.661,16.57L194.2,260.4l19.22-2.688h.266l.19.177a37.844,37.844,0,0,0,18.383,9.471,34.02,34.02,0,0,0,5.211.634,38.174,38.174,0,0,0,5.249,0,37.527,37.527,0,0,0,10.257-2.257,35.882,35.882,0,0,0,9.255-4.982,47.039,47.039,0,0,0,4.057-3.385,43.107,43.107,0,0,0,3.486-3.968,38.529,38.529,0,0,0,7.86-19.486Z" transform="translate(-193 7.897)" fill="#263238"/>
        <path id="Path_34463" data-name="Path 34463" d="M248.5,223.64a4.64,4.64,0,1,1-1.364-3.286,4.653,4.653,0,0,1,1.364,3.286Z" transform="translate(-180.629 15.348)" fill="#263238"/>
        <path id="Path_34464" data-name="Path 34464" d="M235.356,223.64a4.653,4.653,0,1,1-4.64-4.64A4.653,4.653,0,0,1,235.356,223.64Z" transform="translate(-184.149 15.348)" fill="#263238"/>
        <path id="Path_34465" data-name="Path 34465" d="M222.226,223.64a4.653,4.653,0,1,1-4.653-4.64,4.653,4.653,0,0,1,4.653,4.64Z" transform="translate(-187.665 15.348)" fill="#263238"/>
        <path id="Path_34466" data-name="Path 34466" d="M272.634,76.826a38.39,38.39,0,0,0,64.139,24.253l19.195,2.815-9.6-16.6a38.39,38.39,0,1,0-73.736-10.5Z" transform="translate(-171.728 -34.083)" fill="#fff"/>
        <path id="Path_34467" data-name="Path 34467" d="M284.126,45.191a38.314,38.314,0,0,1,32.139-10.675,38.76,38.76,0,0,1,30.77,53.16v-.659l9.534,16.672.7,1.268-1.382-.216L336.689,101.8l.456-.139a38.8,38.8,0,0,1-19.017,9.382,33.839,33.839,0,0,1-5.312.545,37.335,37.335,0,0,1-5.325-.1,38.694,38.694,0,0,1-19.6-7.607,45.258,45.258,0,0,1-4.057-3.423,45.174,45.174,0,0,1-3.474-4.006A38.63,38.63,0,0,1,284.1,45.28ZM280.5,96.271a43,43,0,0,0,3.487,3.956,42.84,42.84,0,0,0,4.057,3.385,35.411,35.411,0,0,0,9.268,5,37.908,37.908,0,0,0,10.244,2.257,38.351,38.351,0,0,0,5.261,0,34.043,34.043,0,0,0,5.2-.634A37.844,37.844,0,0,0,336.4,100.76l.19-.177h.266l19.22,2.688-.685,1.014-9.661-16.57-.19-.317.139-.342a37.87,37.87,0,0,0-2.168-32.963,39.608,39.608,0,0,0-11.487-12.526A37.989,37.989,0,0,0,280.5,96.221Z" transform="translate(-171.734 -34.156)" fill="#263238"/>
        <path id="Path_34468" data-name="Path 34468" d="M309.1,74.88v4.792a3.537,3.537,0,0,1-3.613,3.613,3.626,3.626,0,0,1-3.613-3.613V72.065c0-.076.076-.076.076-.152s-.076-.076-.076-.139a3.715,3.715,0,0,1,3.613-3.613,8.266,8.266,0,1,0,0-16.482,8.139,8.139,0,0,0-7.074,4.057A3.664,3.664,0,0,1,293.345,57a3.6,3.6,0,0,1-1.268-4.944A15.493,15.493,0,1,1,309.028,74.88Zm0,16.139v1.268A3.525,3.525,0,0,1,305.49,95.9a3.613,3.613,0,0,1-3.613-3.613V91.019a3.664,3.664,0,0,1,3.613-3.613,3.575,3.575,0,0,1,3.613,3.613Z" transform="translate(-166.601 -31.44)" fill="#00a0ad"/>
      </g>
    </g>
  </g>
</svg>
