<svg xmlns="http://www.w3.org/2000/svg" width="813.607" height="255.399" viewBox="0 0 813.607 255.399">
  <g id="Group_5551" data-name="Group 5551" transform="translate(0 0.96)">
    <path id="Path_5546" data-name="Path 5546" d="M813.44,110.471l.167,254.321s-6.071.238-813.607,0c0,0,.125,4.329.125-51.666,2.228,0,22.087-11.072,38.453-35.749,27.621-62.869,24.793-70.616,62.786-81.652a82.778,82.778,0,0,1,39.749-1.058c21.3,4.838,41.271,16.212,41.271,16.212s17.538,3.079,26.861,5.353c13.37-2.975,24.7-5.439,34.157-10.289,34.21-17.549,46.866-45.389,97.818-52.208,40.46-7.628,88.06,20.275,133.188,16.994,45.692-6.042,68.6-44.814,109.4-51.775,37.874-6.461,78.166,19.326,111.225,17.866,33.14-1.463,52.1-10.668,67.739-16.8C779.324,113.526,791.805,110.141,813.44,110.471Z" transform="translate(0 -110.459)" fill="#e27e28" opacity="0.24"/>
    <path id="Path_5547" data-name="Path 5547" d="M38.008,1397.912c4.068,0,36.541-21.642,50.374-63.012,8.04-24.044,18.026-45.746,48.071-54.574,34.216-10.08,55.2,2.389,76.113,12.039,25.2,11.626,56.6,11.037,84.449-12.039,46.112-36.952,60.689-39.972,95.408-43.409s80.169,24.371,127.6,16.919c42.669-6.7,64.214-40.69,101.15-50.865,28.869-7.952,65.9,17.96,107.159,17.96,63.094,0,64.9-25.838,123.271-25.838" transform="translate(-37.992 -1195.052)" fill="none" stroke="#e27e28" stroke-width="2"/>
    <path id="Path_26889" data-name="Path 26889" d="M0,0V194.8" transform="translate(471 59.615)" fill="none" stroke="#e27e28" stroke-width="2" stroke-dasharray="3 3"/>
    <g id="Ellipse_409" data-name="Ellipse 409" transform="translate(465.927 54.755)" fill="#fff" stroke="#e27e28" stroke-width="2">
      <circle cx="5" cy="5" r="5" stroke="none"/>
      <circle cx="5" cy="5" r="4" fill="none"/>
    </g>
  </g>
</svg>
