<svg xmlns="http://www.w3.org/2000/svg" width="70" height="70" viewBox="0 0 70 70">
  <g id="Group_18778" data-name="Group 18778" transform="translate(-18095 -11920)">
    <g id="Rectangle_9622" data-name="Rectangle 9622" transform="translate(18095 11920)" fill="#fff" stroke="#707070" stroke-width="1" opacity="0">
      <rect width="70" height="70" rx="4" stroke="none"/>
      <rect x="0.5" y="0.5" width="69" height="69" rx="3.5" fill="none"/>
    </g>
    <g id="shopping-cart_1_" data-name="shopping-cart (1)" transform="translate(18101 11918.334)">
      <g id="Group_18782" data-name="Group 18782" transform="translate(40.348 53.536)">
        <g id="Group_18781" data-name="Group 18781">
          <path id="Path_34659" data-name="Path 34659" d="M347.638,373.333a6.3,6.3,0,1,0,6.3,6.3A6.313,6.313,0,0,0,347.638,373.333Zm0,10.087a3.783,3.783,0,1,1,3.783-3.783A3.787,3.787,0,0,1,347.638,383.42Z" transform="translate(-341.334 -373.333)" fill="#e37e28" stroke="#e37e28" stroke-width="1"/>
        </g>
      </g>
      <g id="Group_18784" data-name="Group 18784" transform="translate(15.13 53.536)">
        <g id="Group_18783" data-name="Group 18783">
          <path id="Path_34660" data-name="Path 34660" d="M134.3,373.333a6.3,6.3,0,1,0,6.3,6.3A6.313,6.313,0,0,0,134.3,373.333Zm0,10.087a3.783,3.783,0,1,1,3.783-3.783A3.787,3.787,0,0,1,134.3,383.42Z" transform="translate(-128 -373.333)" fill="#e37e28" stroke="#e37e28" stroke-width="1"/>
        </g>
      </g>
      <g id="Group_18786" data-name="Group 18786" transform="translate(0 10.666)">
        <g id="Group_18785" data-name="Group 18785">
          <path id="Path_34661" data-name="Path 34661" d="M51.7,48.492h-29.1a6.321,6.321,0,0,1-6.181-5.069L10.062,11.68a1.261,1.261,0,0,0-1.236-1.014H1.261a1.261,1.261,0,0,0,0,2.522H7.792L13.938,43.92a8.85,8.85,0,0,0,8.655,7.094H51.7a1.261,1.261,0,0,0,0-2.522Z" transform="translate(0 -10.666)" fill="#e37e28" stroke="#e37e28" stroke-width="1"/>
        </g>
      </g>
      <g id="Group_18788" data-name="Group 18788" transform="translate(10.087 18.231)">
        <g id="Group_18787" data-name="Group 18787" transform="translate(0 0)">
          <path id="Path_34662" data-name="Path 34662" d="M132.931,75.093a1.264,1.264,0,0,0-.946-.426H86.594a1.261,1.261,0,1,0,0,2.522h43.964l-1.793,14.339a3.791,3.791,0,0,1-3.755,3.314H90.377a1.261,1.261,0,0,0,0,2.522H125.01a6.314,6.314,0,0,0,6.256-5.523l1.969-15.756A1.257,1.257,0,0,0,132.931,75.093Z" transform="translate(-85.333 -74.667)" fill="#e37e28" stroke="#e37e28" stroke-width="1"/>
        </g>
      </g>
    </g>
  </g>
</svg>
