<svg xmlns="http://www.w3.org/2000/svg" width="576" height="576" viewBox="0 0 576 576">
  <g id="Group_16893" data-name="Group 16893" transform="translate(-4671 -3110.547)">
    <g id="Rectangle_8519" data-name="Rectangle 8519" transform="translate(4671 3110.547)" fill="none" stroke="#707070" stroke-width="1" opacity="0">
      <rect width="576" height="576" stroke="none"/>
      <rect x="0.5" y="0.5" width="575" height="575" fill="none"/>
    </g>
    <g id="Group_16850" data-name="Group 16850" transform="translate(4683.368 3111)">
      <ellipse id="Ellipse_725" data-name="Ellipse 725" cx="247.379" cy="41.123" rx="247.379" ry="41.123" transform="translate(55.054 493.301)" fill="#ebebeb"/>
      <path id="Path_29687" data-name="Path 29687" d="M211.367,318.29a.66.66,0,0,1,.677.677.677.677,0,1,1-1.354,0,.66.66,0,0,1,.677-.677Z" transform="translate(-59.751 30.206)" fill="#a6a6a6"/>
      <path id="Path_29695" data-name="Path 29695" d="M262.877,318.29a.66.66,0,0,1,.677.677.677.677,0,1,1-1.354,0,.66.66,0,0,1,.677-.677Z" transform="translate(-28.328 30.206)" fill="#a6a6a6"/>
      <path id="Path_29703" data-name="Path 29703" d="M220.07,374.174a7.06,7.06,0,0,1,7.077-6.924,7.3,7.3,0,0,1,4.453,1.49,1.117,1.117,0,0,1-1.354,1.693,4.808,4.808,0,0,0-3.1-1.067,5.079,5.079,0,0,0-3.471,1.388,4.791,4.791,0,0,0-1.405,3.386,4.673,4.673,0,0,0,1.405,3.386,5.08,5.08,0,0,0,3.471,1.388,4.825,4.825,0,0,0,3.1-1.05,1.168,1.168,0,0,1,1.541.2,1.134,1.134,0,0,1-.186,1.541,7.211,7.211,0,0,1-4.453,1.507,7.043,7.043,0,0,1-7.077-6.941Z" transform="translate(-54.188 57.68)" fill="#fff"/>
      <path id="Path_29707" data-name="Path 29707" d="M322.1,489.529c3.691,1.185,108.69-.169,112.652-2.76,1.524-.965,2.218-16.27,2.523-34.808v-.576c0-3.809.118-7.754.135-11.732V437.96c.135-26.732-.288-54.48-.288-54.48l-70.242.711L369,438.147l.085,2.15.423,11.157V452.6s-39.971,18.5-44.018,21.806S318.411,488.361,322.1,489.529Z" transform="translate(2.966 58.422)" fill="#f7a9a0"/>
      <path id="Path_29708" data-name="Path 29708" d="M322.1,467.228c3.691,1.185,108.69-.169,112.652-2.76,1.524-.965,2.218-16.27,2.523-34.808v-.576c0-3.809.118-7.754.135-11.732V415.66L369,415.846l.085,2.15.423,11.157V430.3s-39.971,18.5-44.018,21.806S318.411,466.06,322.1,467.228Z" transform="translate(2.967 80.722)" fill="#ebebeb"/>
      <path id="Path_29709" data-name="Path 29709" d="M322.1,461.733c2.286.745,42.951.491,74.8-.406,19.893-.542,36.315-1.354,37.855-2.353s2.2-15.846,2.506-34.029V423.59l-67.72.118v1.168s-39.955,18.487-44.018,21.789S318.423,460.565,322.1,461.733Z" transform="translate(2.979 86.218)" fill="#00a0ae"/>
      <path id="Path_29710" data-name="Path 29710" d="M322.2,444.214c17.692-.677,89.119-1.693,106.659-1,.135,0,.135.119,0,.119-17.523,1.05-88.967,1.473-106.659,1.168C321.832,444.485,321.832,444.214,322.2,444.214Z" transform="translate(4.293 99.657)" fill="#263238"/>
      <path id="Path_29711" data-name="Path 29711" d="M345.18,424.067c6.941-1.388,15.474-.423,20.858,4.469.22.186,0,.491-.288.423a98.19,98.19,0,0,0-20.57-4.012.44.44,0,0,1,0-.88Z" transform="translate(21.345 86.148)" fill="#263238"/>
      <path id="Path_29712" data-name="Path 29712" d="M342.17,425.9c6.958-1.388,15.491-.423,20.875,4.47.2.186,0,.474-.288.406a98.584,98.584,0,0,0-20.536-4,.441.441,0,0,1-.051-.881Z" transform="translate(19.534 87.416)" fill="#263238"/>
      <path id="Path_29713" data-name="Path 29713" d="M339.229,427.727c6.941-1.388,15.474-.423,20.858,4.47.22.186,0,.474-.288.406a98.587,98.587,0,0,0-20.536-4.012.44.44,0,0,1-.034-.864Z" transform="translate(17.798 88.684)" fill="#263238"/>
      <path id="Path_29714" data-name="Path 29714" d="M343.187,425.743c4.977,3.758,11.411,5.248,17.184,7.3a.863.863,0,0,0,1.084-.88.184.184,0,0,0,.169-.254,37.247,37.247,0,0,0-10.937-15.812c-2.946-2.4-8.059-4.046-10.75-.237S340.292,423.542,343.187,425.743Zm-1.845-5.587c-1.321-7.635,6.941-3.725,9.024-1.862a39.212,39.212,0,0,1,3.741,3.945,112.029,112.029,0,0,1,6.6,9.091c-2.777-1.185-5.638-2.116-8.465-3.2C348.892,426.844,342.069,424.44,341.341,420.156Z" transform="translate(17.75 79.29)" fill="#263238"/>
      <path id="Path_29715" data-name="Path 29715" d="M376.16,419.4c-1.693-4.317-7.094-3.911-10.513-2.252a37.365,37.365,0,0,0-14.272,12.884.186.186,0,0,0,.1.288.847.847,0,0,0,.846,1.1c6.095-.66,12.7-.626,18.4-3.149C374.01,426.731,377.751,423.43,376.16,419.4Zm-14.8,9.108c-3,.406-5.993.66-8.973,1.168,2.793-2.489,5.468-5.079,8.465-7.331a41.709,41.709,0,0,1,4.537-2.963c2.472-1.337,11.411-3.234,8.363,3.877-1.676,3.86-8.888,4.706-12.444,5.18Z" transform="translate(25.213 80.943)" fill="#263238"/>
      <path id="Path_29716" data-name="Path 29716" d="M327.329,435.455a14.272,14.272,0,0,1,10.666,4.182,13.832,13.832,0,0,1,4.1,9.413c0,.1-.186.1-.2,0a16.456,16.456,0,0,0-14.56-13.358.119.119,0,1,1,0-.237Z" transform="translate(10.913 94.432)" fill="#263238"/>
      <path id="Path_29717" data-name="Path 29717" d="M384.83,433.63c7.957-.085,8.109,12.291.135,12.376S376.856,433.732,384.83,433.63Z" transform="translate(42.468 93.176)" fill="#263238"/>
      <path id="Path_29718" data-name="Path 29718" d="M365.6,460.772c19.893-.542,36.315-1.354,37.855-2.353s2.2-15.846,2.506-34.029C397.8,431.67,377.536,449.734,365.6,460.772Z" transform="translate(33.255 86.772)" fill="#263238"/>
      <path id="Path_29719" data-name="Path 29719" d="M440.485,204.86S424.723,382.285,422.15,395.829c-.593,3.081-.965,19.842-1.2,41.411-.542,47.031-.22,131.85-.22,131.85H346.71s2.2-146.969,5.468-174.023S376.405,204.86,376.405,204.86Z" transform="translate(19.591 -65.36)" fill="#455a64"/>
      <path id="Path_29720" data-name="Path 29720" d="M348.759,412.593c11.546-.237,8.228-.322,19.774-.44,5.655,0,42.8-.372,48.081.491.119,0,.119.22,0,.237-5.282.88-42.426.559-48.081.508-11.546-.119-8.228-.2-19.774-.457a.169.169,0,1,1,0-.339Z" transform="translate(21.859 78.237)" fill="#263238"/>
      <path id="Path_29721" data-name="Path 29721" d="M382.314,468.786l.254-32.167c0-10.4,0-20.807.542-31.185,1.016-21.044,5.282-41.715,8.313-62.505s5.57-41.7,7.855-62.641c2.573-23.448,4.842-46.947,7.263-70.412,0-.152.254-.152.237,0-3.471,41.9-7.365,83.786-13.172,125.434q-2.167,15.542-4.723,31.016c-1.693,10.446-3.386,20.908-4.266,31.456s-.948,20.722-1.05,31.083q-.186,16.1-.322,32.167c-.237,23.837-.457,60.524-.694,84.345a.356.356,0,1,1-.711,0C381.992,524.147,382.111,490.033,382.314,468.786Z" transform="translate(43.721 -60.456)" fill="#263238"/>
      <path id="Path_29722" data-name="Path 29722" d="M440.148,204.86S408.777,382.285,406.2,395.829c-.593,3.081-.965,19.842-1.2,41.411h0L369.72,204.86Z" transform="translate(29.975 -42.612)" fill="#263238"/>
      <path id="Path_29723" data-name="Path 29723" d="M372.957,496.451c3.758.914,108.351-7.872,112.161-10.751,1.456-1.05,1.067-16.371,0-34.876v-.576c-.2-3.826-.423-7.754-.694-11.715,0-.559-.085-1.1-.1-1.693-1.693-26.682-4.131-54.311-4.131-54.311L410.169,388.2l5.925,53.668.237,2.133,1.219,11.106.119,1.151s-38.549,21.281-42.325,24.87S369.25,495.537,372.957,496.451Z" transform="translate(30.92 57.764)" fill="#f7a9a0"/>
      <path id="Path_29724" data-name="Path 29724" d="M372.957,474.22c3.758.914,108.351-7.872,112.161-10.75,1.456-1.05,1.067-16.371,0-34.876v-.576c-.2-3.826-.423-7.754-.694-11.716,0-.559-.085-1.1-.1-1.693l-68.228,5.079.237,2.133,1.219,11.106.119,1.151s-38.549,21.281-42.325,24.87S369.25,473.306,372.957,474.22Z" transform="translate(30.92 79.995)" fill="#ebebeb"/>
      <path id="Path_29725" data-name="Path 29725" d="M372.957,468.732c3.758.914,108.351-7.872,112.161-10.75,1.456-1.05,1.067-16.371,0-34.876v-.576l-67.567,4.91.119,1.151s-38.549,21.281-42.325,24.87S369.25,467.818,372.957,468.732Z" transform="translate(30.92 85.484)" fill="#00a0ae"/>
      <path id="Path_29726" data-name="Path 29726" d="M372.8,450.825c17.59-1.913,88.78-7.974,106.32-8.465.152,0,.152.085,0,.1-17.4,2.286-88.628,7.771-106.32,8.719C372.446,451.13,372.429,450.876,372.8,450.825Z" transform="translate(31.922 99.226)" fill="#263238"/>
      <path id="Path_29727" data-name="Path 29727" d="M394.231,426.359c6.772-1.879,15.406-1.524,21.129,2.963.22.186,0,.491-.254.44a98.462,98.462,0,0,0-20.773-2.523.457.457,0,0,1-.1-.88Z" transform="translate(46.757 87.394)" fill="#263238"/>
      <path id="Path_29728" data-name="Path 29728" d="M391.421,428.439c6.772-1.879,15.406-1.524,21.129,2.98.22.169,0,.474-.254.423a98.469,98.469,0,0,0-20.773-2.523.457.457,0,0,1-.1-.88Z" transform="translate(45.503 88.835)" fill="#263238"/>
      <path id="Path_29729" data-name="Path 29729" d="M388.611,430.439c6.772-1.879,15.406-1.524,21.128,2.98.22.169,0,.491-.254.44a97.374,97.374,0,0,0-20.773-2.54.457.457,0,0,1-.1-.88Z" transform="translate(47.794 90.222)" fill="#263238"/>
      <path id="Path_29730" data-name="Path 29730" d="M392.3,428.1c5.231,3.386,11.766,4.419,17.675,6.061.609.169,1.033-.423,1.016-.948a.186.186,0,0,0,.135-.271,37.246,37.246,0,0,0-12.02-15c-3.115-2.184-8.33-3.386-10.734.525S389.25,426.1,392.3,428.1Zm-2.286-5.434c-1.862-7.517,6.654-4.2,8.871-2.506a37.554,37.554,0,0,1,4.012,3.674,109.117,109.117,0,0,1,7.229,8.6c-2.861-.982-5.773-1.693-8.668-2.59C398.071,428.793,391.1,426.8,390.012,422.664Z" transform="translate(47.234 80.897)" fill="#263238"/>
      <path id="Path_29731" data-name="Path 29731" d="M424.452,419.811c-2.032-4.182-7.348-3.386-10.632-1.49a37.126,37.126,0,0,0-13.341,13.849.186.186,0,0,0,.118.271c0,.542.3,1.168.931,1.05,6.027-1.1,12.613-1.524,18.132-4.453C422.878,427.311,426.382,423.772,424.452,419.811Zm-14.12,10.158c-2.946.609-5.925,1.083-8.854,1.811a106.666,106.666,0,0,1,7.974-7.923,38.819,38.819,0,0,1,4.317-3.3c2.37-1.49,11.14-4.012,8.617,3.3-1.405,4.012-8.533,5.367-12.054,6.095Z" transform="translate(51.276 81.498)" fill="#263238"/>
      <path id="Path_29732" data-name="Path 29732" d="M376.315,439.139a14.154,14.154,0,0,1,10.988,3.234,13.7,13.7,0,0,1,4.893,9.007.1.1,0,0,1-.2,0,16.456,16.456,0,0,0-15.66-12.054.118.118,0,0,1-.017-.186Z" transform="translate(40.707 96.91)" fill="#263238"/>
      <path id="Path_29733" data-name="Path 29733" d="M433.262,432.5c7.923-.779,9.159,11.529,1.219,12.308S425.322,433.368,433.262,432.5Z" transform="translate(70.282 92.371)" fill="#263238"/>
      <path id="Path_29734" data-name="Path 29734" d="M419.317,573.113l73.933-3.132S473.069,407.708,472.7,397.736c-.965-25.869-18.166-192.916-18.166-192.916H364.21s5.705,38.566,15.457,63.013a113.421,113.421,0,0,1,18.894,8.634s8.465,110.468,8.77,124.249C407.957,427.956,419.317,573.113,419.317,573.113Z" transform="translate(26.157 -65.388)" fill="#455a64"/>
      <path id="Path_29735" data-name="Path 29735" d="M397.986,415.571c11.529-.728,8.211-.677,19.74-1.287,5.655-.288,42.748-2.184,48.064-1.541a.119.119,0,0,1,0,.237c-5.231,1.1-42.325,2.353-48.013,2.539-11.546.372-8.228.135-19.774.389a.17.17,0,0,1-.017-.339Z" transform="translate(49.452 78.611)" fill="#263238"/>
      <path id="Path_29736" data-name="Path 29736" d="M413.848,210.778c3.386,42.071,6.772,84.142,10.649,126.179s8.38,84.294,13.883,126.3c3.064,23.448,6.484,56.5,10.158,79.875,0,.152-.22.22-.254,0-7.449-41.546-12.918-93.115-17.59-135.016s-8.465-83.972-11.851-126.026c-1.913-23.787-3.64-47.59-5.468-71.377C413.289,210.439,413.814,210.439,413.848,210.778Z" transform="translate(60.222 -48.61)" fill="#263238"/>
      <path id="Path_29737" data-name="Path 29737" d="M371.715,241.068a140.518,140.518,0,0,1,22.127,10.31c.271.152.085.576-.2.44-7.466-3.2-15.051-6.247-22.331-9.853a.492.492,0,1,1,.406-.9Z" transform="translate(37.237 -14.461)" fill="#263238"/>
      <path id="Path_29738" data-name="Path 29738" d="M370.2,210.936c0-.254.474-.3.474,0,0,8.837.508,16.625,1.253,24.887.339,3.843,3.386,25.056,10.158,23.516,1.117-.271,1.693-1.354,1.862-3.047a26.853,26.853,0,0,0-.9-6.5c-.728-4.436-1.32-8.888-1.693-13.375a121.9,121.9,0,0,1,.271-25.09.22.22,0,1,1,.44,0,229.942,229.942,0,0,0,2.015,34.639c.829,5.519,3.623,13.832-2.15,14.678s-9.684-13.053-10.4-16.93a126.873,126.873,0,0,1-1.337-32.776Z" transform="translate(36.717 -32.756)" fill="#263238"/>
      <path id="Path_29739" data-name="Path 29739" d="M377.469,239.9a34.631,34.631,0,0,1,1.507,4.4,10.158,10.158,0,0,1,.626,3.623.271.271,0,0,1-.474,0,12.767,12.767,0,0,1-1.541-3.5c-.508-1.371-1.05-2.709-1.507-4.1a.745.745,0,0,1,1.388-.423Z" transform="translate(41.062 -15.253)" fill="#263238"/>
      <path id="Path_29740" data-name="Path 29740" d="M200.079,462.7l-.169-3.386,178.56-9.176-13.239-79.571,3.335-.542,13.866,83.312Z" transform="translate(-69.479 49.102)" fill="#c7c7c7"/>
      <circle id="Ellipse_727" data-name="Ellipse 727" cx="18.674" cy="18.674" r="18.674" transform="translate(117.843 516.356) rotate(-38.03)" fill="#37474f"/>
      <path id="Path_29741" data-name="Path 29741" d="M201,432.785a8.465,8.465,0,1,0,8.465-8.465A8.465,8.465,0,0,0,201,432.785Z" transform="translate(-65.855 86.724)" fill="#ebebeb"/>
      <circle id="Ellipse_728" data-name="Ellipse 728" cx="18.674" cy="18.674" r="18.674" transform="translate(257.018 505.619) rotate(-13.35)" fill="#37474f"/>
      <path id="Path_29742" data-name="Path 29742" d="M285.48,432.785a8.465,8.465,0,1,0,8.465-8.465,8.465,8.465,0,0,0-8.465,8.465Z" transform="translate(-14.514 86.724)" fill="#ebebeb"/>
      <path id="Path_29743" data-name="Path 29743" d="M218.966,485.01l-.186-3.386,178.577-9.176-17.37-104.339,3.352-.559,17.98,108.081Z" transform="translate(-58.685 47.382)" fill="#c7c7c7"/>
      <circle id="Ellipse_729" data-name="Ellipse 729" cx="18.674" cy="18.674" r="18.674" transform="matrix(0.77, -0.638, 0.638, 0.77, 148.043, 537.623)" fill="#37474f"/>
      <path id="Path_29744" data-name="Path 29744" d="M219.85,444.945a8.465,8.465,0,1,0,8.465-8.465,8.465,8.465,0,0,0-8.465,8.465Z" transform="translate(-54.399 95.151)" fill="#ebebeb"/>
      <circle id="Ellipse_730" data-name="Ellipse 730" cx="18.674" cy="18.674" r="18.674" transform="translate(285.611 555) rotate(-67.027)" fill="#37474f"/>
      <path id="Path_29745" data-name="Path 29745" d="M304.36,444.945a8.465,8.465,0,1,0,8.465-8.465,8.465,8.465,0,0,0-8.465,8.465Z" transform="translate(-3.039 95.151)" fill="#ebebeb"/>
      <path id="Path_29746" data-name="Path 29746" d="M206.919,424.517,180.83,305.6,358.594,276.82l1.794,124.232-1.456.22ZM184.91,308.36l24.65,112.33L357,398.19,355.31,280.849Z" transform="translate(-80.336 -0.237)" fill="#a6a6a6"/>
      <rect id="Rectangle_8393" data-name="Rectangle 8393" width="3.386" height="118.509" transform="translate(142.587 299.93) rotate(-8.89)" fill="#a6a6a6"/>
      <rect id="Rectangle_8394" data-name="Rectangle 8394" width="3.386" height="119.017" transform="matrix(0.994, -0.11, 0.11, 0.994, 187.796, 292.832)" fill="#a6a6a6"/>
      <rect id="Rectangle_8395" data-name="Rectangle 8395" width="3.386" height="119.424" transform="translate(232.129 286.345) rotate(-2.47)" fill="#a6a6a6"/>
      <rect id="Rectangle_8396" data-name="Rectangle 8396" width="169.892" height="3.386" transform="translate(110.369 347.25) rotate(-10.26)" fill="#a6a6a6"/>
      <rect id="Rectangle_8397" data-name="Rectangle 8397" width="160.496" height="3.386" transform="translate(118.463 382.609) rotate(-8.45)" fill="#a6a6a6"/>
      <path id="Path_29747" data-name="Path 29747" d="M360.644,430.066,284.9,400.812V276.8l115.648,33.538Zm-72.359-31.574,70.276,27.088,37.669-112.889L288.286,281.3Z" transform="translate(-17.923 -0.582)" fill="#dbdbdb"/>
      <rect id="Rectangle_8398" data-name="Rectangle 8398" width="3.386" height="104.627" transform="translate(268.585 319.858) rotate(-69.05)" fill="#dbdbdb"/>
      <rect id="Rectangle_8399" data-name="Rectangle 8399" width="3.386" height="90.49" transform="translate(269.028 361.744) rotate(-67.81)" fill="#dbdbdb"/>
      <rect id="Rectangle_8400" data-name="Rectangle 8400" width="119.576" height="3.386" transform="translate(291.589 408.497) rotate(-82.42)" fill="#dbdbdb"/>
      <rect id="Rectangle_8401" data-name="Rectangle 8401" width="120.676" height="3.386" transform="matrix(0.22, -0.976, 0.976, 0.22, 316.69, 417.699)" fill="#dbdbdb"/>
      <rect id="Rectangle_8402" data-name="Rectangle 8402" width="100.327" height="3.386" transform="translate(269.67 288.804) rotate(-73.32)" fill="#dbdbdb"/>
      <rect id="Rectangle_8403" data-name="Rectangle 8403" width="110.095" height="3.386" transform="translate(375.379 318.754) rotate(-73.32)" fill="#dbdbdb"/>
      <rect id="Rectangle_8404" data-name="Rectangle 8404" width="6.772" height="132.46" transform="matrix(0.202, -0.979, 0.979, 0.202, 287.226, 196.819)" fill="#263238"/>
      <path id="Path_29765" data-name="Path 29765" d="M268.582,438.82l-61.625-25.8-.186-.863L180.75,293.46l76.608,31.388Zm-58.628-28.239L264.722,433.5,254.158,327.235l-68.651-28.188Z" transform="translate(-78.948 8.864)" fill="#dbdbdb"/>
      <rect id="Rectangle_8405" data-name="Rectangle 8405" width="3.386" height="115.242" transform="matrix(0.985, -0.173, 0.173, 0.985, 123.873, 314.75)" fill="#dbdbdb"/>
      <rect id="Rectangle_8406" data-name="Rectangle 8406" width="3.386" height="113.16" transform="matrix(0.99, -0.141, 0.141, 0.99, 147.755, 324.502)" fill="#dbdbdb"/>
      <rect id="Rectangle_8407" data-name="Rectangle 8407" width="3.373" height="65.408" transform="matrix(0.331, -0.944, 0.944, 0.331, 119.044, 394.296)" fill="#dbdbdb"/>
      <rect id="Rectangle_8408" data-name="Rectangle 8408" width="3.386" height="72.832" transform="translate(111.682 349.005) rotate(-68.38)" fill="#dbdbdb"/>
      <path id="Path_29766" data-name="Path 29766" d="M238.585,436.684l-14.7-114.192L442.861,296.47,402.89,416.537l-1.05.135Zm-10.9-111.247,13.832,107.471,158.853-19.469,37.6-112.973Z" transform="translate(-57.074 10.816)" fill="#ebebeb"/>
      <rect id="Rectangle_8409" data-name="Rectangle 8409" width="3.386" height="110.654" transform="translate(218.511 329.077) rotate(-4.98)" fill="#ebebeb"/>
      <rect id="Rectangle_8410" data-name="Rectangle 8410" width="112.33" height="3.386" transform="matrix(0.058, -0.998, 0.998, 0.058, 268.024, 434.399)" fill="#ebebeb"/>
      <rect id="Rectangle_8411" data-name="Rectangle 8411" width="116.156" height="3.386" transform="translate(306.388 430.053) rotate(-79.3)" fill="#ebebeb"/>
      <rect id="Rectangle_8412" data-name="Rectangle 8412" width="199.265" height="3.386" transform="matrix(0.994, -0.112, 0.112, 0.994, 172.548, 371.926)" fill="#ebebeb"/>
      <rect id="Rectangle_8413" data-name="Rectangle 8413" width="180.05" height="3.386" transform="translate(177.038 409.711) rotate(-5.97)" fill="#ebebeb"/>
      <path id="Path_29767" data-name="Path 29767" d="M431.252,158.034c-9.091,14.289-42.731,66.027-63.724,66.027-12.63,0-55.462-21.535-64.909-28.781-11.055-8.465,18.623-35.2,26.208-32.048,9.4,3.877,35.13,18.894,41.14,18.894,5.367,0,20.739-17.252,49.994-36.3C434.993,135.907,439.09,145.709,431.252,158.034Z" transform="translate(-9.742 -65.944)" fill="#f7a9a0"/>
      <path id="Path_29768" data-name="Path 29768" d="M318.14,197.031c-3.962-1.9-21.383-12.19-25.6-16.134s-15.491-16.2-12.782-19.723,6.281-.22,6.281-.22-3.894-5.875-.914-9.261,8.465,2.049,8.465,2.049-3.606-6.383-.339-9.464,7.8,3.217,7.8,3.217-3.572-5.688.186-7.094c4.52-1.693,9.921,9.532,14.9,13.544,1.134.914,24.21,16.93,24.21,16.93Z" transform="translate(-19.422 -67.001)" fill="#f7a9a0"/>
      <path id="Path_29769" data-name="Path 29769" d="M292.106,144.311c4,8.245,7.178,11.157,14.831,15.914.135.1,0,.339-.135.254-7.906-3.979-12.41-7.06-15.1-15.982C291.581,144.057,291.92,143.938,292.106,144.311Z" transform="translate(-10.706 -64.325)" fill="#263238"/>
      <path id="Path_29770" data-name="Path 29770" d="M287.755,147.912c4.893,8.194,8.3,11.377,15.948,16.93.1,0,0,.271-.135.2-7.957-4.842-12.376-8.025-16.185-16.93C287.2,147.828,287.534,147.54,287.755,147.912Z" transform="translate(-13.377 -61.798)" fill="#263238"/>
      <path id="Path_29771" data-name="Path 29771" d="M283.67,152.747c5.316,7.6,8.905,11.258,17.031,15.711a.186.186,0,0,1-.152.322,30.745,30.745,0,0,1-17.082-15.846C283.2,152.425,283.349,152.273,283.67,152.747Z" transform="translate(-15.835 -58.523)" fill="#263238"/>
      <path id="Path_29779" data-name="Path 29779" d="M331.729,170.414a112.06,112.06,0,0,0-5.705-15.542c-2.489-4.52-17.946-17.963-21.044-14.8-4,4.1,3.386,13.629,7.635,17.81,0,0-9.244,9.481-5.418,17.455S331.729,170.414,331.729,170.414Z" transform="translate(-3.678 -67.437)" fill="#f7a9a0"/>
      <path id="Path_29780" data-name="Path 29780" d="M304.294,140.774c-.948,6.366,4.961,11.512,8.77,15.88a.525.525,0,0,1-.169.846c-3.623,4.232-7.483,11.258-5.993,16.93a.135.135,0,0,1-.254.085c-2.421-5.875.813-13.07,5.079-17.455-3.962-4.419-9.667-9.836-7.466-16.3C304.26,140.724,304.311,140.741,304.294,140.774Z" transform="translate(-3.187 -66.647)" fill="#263238"/>
      <path id="Path_29781" data-name="Path 29781" d="M349.47,168.15l28.273,25.209s16.083-19.368,22.754-37.872-9.244-16.287-20.536-8.8S349.47,168.15,349.47,168.15Z" transform="translate(23.029 -66.341)" fill="#00a0ae"/>
      <path id="Path_29782" data-name="Path 29782" d="M377.8,177.543A262.757,262.757,0,0,1,353.9,155.416c-.1,0,0-.237.152-.135,2.032,2.049,14.526,12.7,23.922,22.111C378.123,177.492,377.954,177.645,377.8,177.543Z" transform="translate(26.777 -57.295)" fill="#263238"/>
      <path id="Path_29783" data-name="Path 29783" d="M394.236,155.531c-6.653,18.5-22.737,37.821-22.737,37.821L358.48,181.722c8.617-11.851,22.534-31.185,29.458-40.513C394.2,140.87,398.2,144.561,394.236,155.531Z" transform="translate(29.074 -66.335)" fill="#263238"/>
      <path id="Path_29784" data-name="Path 29784" d="M358.589,273.5c1.693,1.693,105.812.694,106.337,0,1.388-1.879-14.56-69.006-26.529-94.469-15.339-32.658-23.465-35.367-28.307-37.246-6.2-2.336-22.381-1.371-25.039-.169-3,1.354-10.632,16.608-14.2,28.781C363.668,194.674,357.082,271.925,358.589,273.5Z" transform="translate(22.111 -66.911)" fill="#00a0ae"/>
      <path id="Path_29785" data-name="Path 29785" d="M434.353,167.06c-.525,32.065-1.879,69.971-10.75,80.671-13.442,16.2-47.031,32.827-60.8,35.891-5.722,1.27-21.789-41.986-15.643-43.273,13.087-2.743,42.985-15.135,45.711-17.827s13-33.623,21.247-57.816C424.026,135.6,434.658,148.487,434.353,167.06Z" transform="translate(19.282 -61.916)" fill="#f7a9a0"/>
      <path id="Path_29786" data-name="Path 29786" d="M379.871,201.29s-17.285,4.4-28.459,7.822c-6.23,1.9-16.625,6.129-20.553,9.616-5.892,5.214-27.189,30.829-21.095,36.128,5.519,4.791,21.027-19.537,21.027-19.537s-17.81,23.177-10.158,27.731S342.2,237.774,342.2,237.774s-17.776,24.21-9.074,27.647c6.569,2.607,20.638-23.7,20.638-23.7s-15.118,20.908-8.465,23.871c7.331,3.267,21.857-20.18,21.857-20.18,18.149,4.69,28.7-.508,35.773-5.079C404.673,239.23,379.871,201.29,379.871,201.29Z" transform="translate(-3.03 -38.438)" fill="#f7a9a0"/>
      <path id="Path_29787" data-name="Path 29787" d="M332.148,216.441c-2.2,2.641-4.436,5.3-6.383,8.143s-3.809,5.722-5.485,8.719a59.888,59.888,0,0,0-5.4,12.291c2.912-7.432,9.735-17.675,11.682-20.5s3.741-5.756,5.688-8.583C332.3,216.441,332.2,216.374,332.148,216.441Z" transform="translate(3.341 -29.005)" fill="#263238"/>
      <path id="Path_29788" data-name="Path 29788" d="M337.217,220.489c-3.758,2.963-11.631,14.052-14.678,21.484-.119.3,0,.288.237,0,2.37-3.674,11.986-17.895,14.526-21.433C337.336,220.489,337.268,220.438,337.217,220.489Z" transform="translate(8.046 -26.507)" fill="#263238"/>
      <path id="Path_29789" data-name="Path 29789" d="M341.525,223a53.025,53.025,0,0,0-10.869,16.93c-.135.3.119.254.288,0,3.521-5.705,6.23-10.158,10.767-16.794C341.779,223,341.626,223,341.525,223Z" transform="translate(13.105 -24.944)" fill="#263238"/>
      <path id="Path_29790" data-name="Path 29790" d="M377.55,195.539l37.5,5.6s2.81-25.022-1.778-44.136-16.659-8.465-22.009,3.894S377.55,195.539,377.55,195.539Z" transform="translate(40.559 -62.613)" fill="#00a0ae"/>
      <path id="Path_29791" data-name="Path 29791" d="M412.2,176.455a265.294,265.294,0,0,1-32.167-4.74c-.135,0-.085-.237,0-.2,2.827.542,19.148,2.269,32.167,4.707C412.438,176.252,412.387,176.455,412.2,176.455Z" transform="translate(42.264 -54.195)" fill="#263238"/>
      <path id="Path_29792" data-name="Path 29792" d="M383.114,173.887c1.693-4.249,4.148-10.293,5.553-14.627h-.1c-1.1,2.252-2.1,4.554-3.064,6.891l.1-.423c.237-1.3.44-2.607.576-3.928h0c-.389,1.287-.711,2.573-.982,3.894-.169.813-.3,1.693-.423,2.472-.508,1.236-1.795,4.249-2.286,5.468-.813,2.082-5.435,13.341-5.214,13.392s3.843.423,4.52.542c.186,0,.22-.271,0-.254-.677,0-3.538-.525-3.826-.576.779-2.167,1.778-4.283,2.641-6.433S382.284,176.021,383.114,173.887Z" transform="translate(41.485 -61.519)" fill="#263238"/>
      <path id="Path_29793" data-name="Path 29793" d="M403.577,165.724c-.288,1.134-.525,2.269-.728,3.386a9.877,9.877,0,0,1-.152,1.185c-.1-2.81-.339-5.621-.711-8.465h-.1a135.77,135.77,0,0,1,0,14.136c0,2.286-.169,4.588-.3,6.874,0,1.168-.152,2.353-.2,3.521s-.22,3.979-.22,3.979c-.643-.118-2.81-.389-3.589-.457-.186,0-.186.152,0,.169.66.1,3.979.745,4,.677,0-1.236.322-2.692.44-3.911s.2-2.252.288-3.386c.169-2.421.3-4.842.389-7.28v-4c.186-1.016.44-2.032.609-3.047s.372-2.3.491-3.386C403.882,165.588,403.628,165.5,403.577,165.724Z" transform="translate(49.176 -60.064)" fill="#263238"/>
      <path id="Path_29794" data-name="Path 29794" d="M377.911,166.615c5.773,1.693,16.388-6.637,20.79-13.679.3-.491-.152-5.773-.406-12.24-.135-3.928-.2-8.3,0-12.291,0-.813-25.395,4.622-25.395,4.622a64.1,64.1,0,0,1,1.524,15.457,9.505,9.505,0,0,1-.271,1.693,2.657,2.657,0,0,0,0,.271C373.442,153.477,372.307,165.023,377.911,166.615Z" transform="translate(38.261 -75.252)" fill="#f7a9a0"/>
      <path id="Path_29795" data-name="Path 29795" d="M396.785,128.38c-1.558,6.772-6.772,22.737-20.1,22.263a16.352,16.352,0,0,1-2.556-.288.964.964,0,0,1,0-.271,9.871,9.871,0,0,0,.271-1.693A63.42,63.42,0,0,0,372.88,132.9S391.317,129.057,396.785,128.38Z" transform="translate(38.328 -75.211)" fill="#263238"/>
      <path id="Path_29796" data-name="Path 29796" d="M405.387,114.647c3.386,8.651.745,34.639-5.079,40.852-8.465,9.007-23.4,10.988-31.3.542-7.669-10.158-3.606-43.916,3.03-49.655C381.786,97.92,400.358,101.865,405.387,114.647Z" transform="translate(32.726 -93.56)" fill="#f7a9a0"/>
      <path id="Path_29797" data-name="Path 29797" d="M375.16,119.83s.135.1.119.169c-.22,1.693-.186,3.792,1.337,4.52v.1C374.686,124.164,374.669,121.455,375.16,119.83Z" transform="translate(40.405 -81.136)" fill="#263238"/>
      <path id="Path_29798" data-name="Path 29798" d="M376.873,118.84c2.844,0,2.506,5.739-.118,5.672S374.5,118.789,376.873,118.84Z" transform="translate(40.35 -81.822)" fill="#263238"/>
      <path id="Path_29799" data-name="Path 29799" d="M370.12,119.53a.133.133,0,0,0-.135.135c0,1.693-.406,3.775-2.015,4.266v.1C369.934,123.864,370.357,121.206,370.12,119.53Z" transform="translate(36.166 -81.344)" fill="#263238"/>
      <path id="Path_29800" data-name="Path 29800" d="M369.383,118.4c-2.81-.372-3.386,5.282-.762,5.621S371.736,118.719,369.383,118.4Z" transform="translate(35.47 -82.141)" fill="#263238"/>
      <path id="Path_29801" data-name="Path 29801" d="M379.25,119.091c-.762-.237-1.422-.593-2.15-.9a3.776,3.776,0,0,1-2.015-1.337,1.185,1.185,0,0,1,.271-1.439,2.963,2.963,0,0,1,3.013-.135,4.249,4.249,0,0,1,2.4,2.032,1.287,1.287,0,0,1-1.524,1.778Z" transform="translate(40.284 -84.529)" fill="#263238"/>
      <path id="Path_29802" data-name="Path 29802" d="M367.764,118.135a20.99,20.99,0,0,0,2.286-.457,3.758,3.758,0,0,0,2.252-.914,1.2,1.2,0,0,0,0-1.456,2.98,2.98,0,0,0-2.929-.728,4.283,4.283,0,0,0-2.759,1.507,1.27,1.27,0,0,0,1.151,2.049Z" transform="translate(35.026 -84.859)" fill="#263238"/>
      <path id="Path_29803" data-name="Path 29803" d="M377.66,129.578c-.457.389-.9.931-1.541.948a4.74,4.74,0,0,1-1.862-.542s-.119,0-.085.085a2.4,2.4,0,0,0,2.167,1.084,1.879,1.879,0,0,0,1.473-1.473C377.846,129.578,377.711,129.527,377.66,129.578Z" transform="translate(39.892 -74.395)" fill="#263238"/>
      <path id="Path_29804" data-name="Path 29804" d="M379.455,134.285a5.977,5.977,0,0,1-4.131,2.438,7.161,7.161,0,0,1-2.167,0,1.575,1.575,0,0,1-.406,0,1.694,1.694,0,0,1-.372,0,.423.423,0,0,1-.339-.406h0a.507.507,0,0,1,0-.169h0v-.152a28.955,28.955,0,0,1,.3-3.386c-.508.22-3.1,1.2-3.013.491a89.584,89.584,0,0,1,3.386-17.963c0-.186.339-.118.322,0-.44,5.621-1.879,11.14-2.4,16.794a9.6,9.6,0,0,1,2.878-.694c.186,0-.559,3.945-.525,4.554a8.33,8.33,0,0,0,6.3-1.558C379.438,134.031,379.573,134.167,379.455,134.285Z" transform="translate(36.701 -84.468)" fill="#263238"/>
      <path id="Path_29805" data-name="Path 29805" d="M372.09,128.185a7.077,7.077,0,0,0,2.709,2.353,3.115,3.115,0,0,0,1.93.237c1.422-.288,1.541-1.575,1.337-2.692a7.435,7.435,0,0,0-.525-1.693,9.261,9.261,0,0,1-5.452,1.795Z" transform="translate(38.536 -76.59)" fill="#263238"/>
      <path id="Path_29806" data-name="Path 29806" d="M373.69,129.845a3.115,3.115,0,0,0,1.93.237c1.422-.288,1.541-1.574,1.338-2.692a3.284,3.284,0,0,0-3.268,2.455Z" transform="translate(39.613 -75.898)" fill="#ff98b9"/>
      <path id="Path_29807" data-name="Path 29807" d="M369.244,119.924c8.6,5.909,20.316-3,20.316-3a9.379,9.379,0,0,0,9.5,5.925s1.693,14.577,5.519,14.543c5.858,0,7.686-19.893,5.841-23.8s-6.772-4.91-6.772-4.91a9.6,9.6,0,0,0-3.979-5.79c-4-3.064-17.793,1.05-17.793,1.05a12.884,12.884,0,0,0-3.521-4.774,3.623,3.623,0,0,0-5.214.474,8.584,8.584,0,0,1,1.405,3.589c.677,4.266-2.793,4.266-2.76.389a6.027,6.027,0,0,1,1.354-3.979c-1.693-2.539-4.52-3.386-6.23-2.015C363.827,100.082,362.134,115.014,369.244,119.924Z" transform="translate(32.171 -96.975)" fill="#263238"/>
      <path id="Path_29808" data-name="Path 29808" d="M386.96,124.88s5.316-8.634,9.193-6.772.237,14.12-4.08,16.033a4.5,4.5,0,0,1-6.162-2.065Z" transform="translate(46.726 -82.512)" fill="#f7a9a0"/>
      <path id="Path_29809" data-name="Path 29809" d="M394.017,120.07s.1.085,0,.119c-3.013,1.439-4.486,4.4-5.451,7.449a2.489,2.489,0,0,1,3.674-.9.1.1,0,0,1,0,.169,2.81,2.81,0,0,0-3,1.151,14.394,14.394,0,0,0-1.3,2.539c-.135.288-.643.169-.559-.152h0C387.059,126.436,389.8,120.713,394.017,120.07Z" transform="translate(47.812 -80.97)" fill="#263238"/>
      <path id="Path_29818" data-name="Path 29818" d="M123.593,309.787a28.515,28.515,0,0,0-6.467-.22c-.254,0-.237.44,0,.457,2.15,0,4.283-.1,6.433,0a.135.135,0,0,0,.034-.237Z" transform="translate(-116.941 25.174)" fill="#263238"/>
    </g>
  </g>
</svg>
