<svg xmlns="http://www.w3.org/2000/svg" width="64.62" height="64.62" viewBox="0 0 64.62 64.62">
  <g id="Group_17244" data-name="Group 17244" transform="translate(-7007.985 -4627.248)">
    <g id="Group_16797" data-name="Group 16797" transform="translate(7008.235 4627.498)">
      <path id="Path_29556" data-name="Path 29556" d="M32.06,64.12A32.06,32.06,0,1,1,58.518,13.954a1.335,1.335,0,1,1-2.2,1.512A29.389,29.389,0,1,0,61.449,32.06a1.336,1.336,0,1,1,2.672,0A32.1,32.1,0,0,1,32.06,64.12Z" fill="#e27e28" stroke="#e27e28" stroke-width="0.5"/>
      <path id="Path_29557" data-name="Path 29557" d="M30.735,16.074H17.34a1.34,1.34,0,0,1,0-2.679H29.4V1.34a1.34,1.34,0,1,1,2.679,0v13.4A1.34,1.34,0,0,1,30.735,16.074Z" transform="translate(26.688)" fill="#e27e28" stroke="#e27e28" stroke-width="0.5"/>
      <path id="Path_29558" data-name="Path 29558" d="M23.665,42.33A18.665,18.665,0,1,1,42.33,23.665,18.687,18.687,0,0,1,23.665,42.33Zm0-34.664a16,16,0,1,0,16,16A16.015,16.015,0,0,0,23.665,7.666Z" transform="translate(8.335 8.335)" fill="#e27e28" stroke="#e27e28" stroke-width="0.5"/>
      <path id="Path_29565" data-name="Path 29565" d="M22.763,7.923A.923.923,0,0,0,21.84,7H8.923a.923.923,0,0,0,0,1.845h4.613a3.694,3.694,0,0,1,3.691,3.691h-8.3a.923.923,0,0,0,0,1.845h7.791a3.679,3.679,0,0,1-3.178,1.845H8.923a.924.924,0,0,0-.578,1.644l9.226,7.381a.932.932,0,0,0,.578.2.923.923,0,0,0,.578-1.644l-7.173-5.737h1.982a5.528,5.528,0,0,0,5.2-3.691H21.84a.923.923,0,1,0,0-1.845H19.072a5.5,5.5,0,0,0-1.439-3.691H21.84a.923.923,0,0,0,.923-.923Z" transform="translate(16.677 15.772)" fill="#e27e28"/>
    </g>
  </g>
</svg>
