<svg xmlns="http://www.w3.org/2000/svg" width="576" height="576" viewBox="0 0 576 576">
  <g id="risk_profiling_illustration" transform="translate(-2671 -3796)">
    <g id="Rectangle_8653" data-name="Rectangle 8653" transform="translate(2671 3796)" fill="none" stroke="#707070" stroke-width="1" opacity="0">
      <rect width="576" height="576" stroke="none"/>
      <rect x="0.5" y="0.5" width="575" height="575" fill="none"/>
    </g>
    <g id="Financial_data-cuate" data-name="Financial data-cuate" transform="translate(2671 3796)">
      <g id="freepik--Shadow--inject-33" transform="translate(276.208 540.901)">
        <ellipse id="Ellipse_738" data-name="Ellipse 738" cx="149.816" cy="17.449" rx="149.816" ry="17.449" fill="#ebebeb"/>
      </g>
      <g id="freepik--Board--inject-33" transform="translate(73.51 21.07)">
        <path id="Path_31419" data-name="Path 31419" d="M97.9,87.382l-.213-1.3L301.96,52.83l.107.013L504.042,86.078l-.227,1.3L301.96,54.174Z" transform="translate(-86.43 -48.917)" fill="#263238"/>
        <path id="Path_31420" data-name="Path 31420" d="M256.537,54.469a4.579,4.579,0,1,1-4.579-4.579,4.579,4.579,0,0,1,4.579,4.579Z" transform="translate(-36.428 -49.89)" fill="#ebebeb"/>
        <rect id="Rectangle_8654" data-name="Rectangle 8654" width="407.976" height="286.641" transform="translate(10.328 52.72)" fill="#ebebeb"/>
        <rect id="Rectangle_8655" data-name="Rectangle 8655" width="428.873" height="17.569" transform="translate(0 35.151)" fill="#37474f"/>
        <rect id="Rectangle_8656" data-name="Rectangle 8656" width="54.571" height="64.659" transform="translate(180.16 93.914)" fill="#fff"/>
        <path id="Path_31421" data-name="Path 31421" d="M247.22,124.237a1.957,1.957,0,1,1-.578-1.388,1.97,1.97,0,0,1,.578,1.388Z" transform="translate(-37.803 -25.93)" fill="#455a64"/>
        <path id="Path_31422" data-name="Path 31422" d="M232.06,130.313c5.524-.426,11.034-.453,16.557-.519s11.034.093,16.557.519c-5.524.426-11.047.453-16.557.506S237.584,130.739,232.06,130.313Z" transform="translate(-41.518 -23.448)" fill="#ebebeb"/>
        <path id="Path_31423" data-name="Path 31423" d="M232.06,134.13a73,73,0,0,1,9-.519,67.881,67.881,0,0,1,9,.519A80.287,80.287,0,0,1,232.06,134.13Z" transform="translate(-41.534 -22.18)" fill="#ebebeb"/>
        <path id="Path_31424" data-name="Path 31424" d="M232.06,137.99a114.629,114.629,0,0,1,11.5-.519,110.8,110.8,0,0,1,11.5.519A130.985,130.985,0,0,1,232.06,137.99Z" transform="translate(-41.529 -20.903)" fill="#ebebeb"/>
        <path id="Path_31425" data-name="Path 31425" d="M232.06,141.816c4.8-.4,9.6-.492,14.388-.506s9.6.106,14.388.506c-4.792.413-9.6.506-14.388.519S236.865,142.229,232.06,141.816Z" transform="translate(-41.523 -19.631)" fill="#ebebeb"/>
        <path id="Path_31426" data-name="Path 31426" d="M232.06,145.656c4.166-.4,8.332-.492,12.5-.506s8.332.106,12.5.506c-4.166.413-8.332.506-12.5.519S236.226,146.055,232.06,145.656Z" transform="translate(-41.527 -18.36)" fill="#ebebeb"/>
        <path id="Path_31427" data-name="Path 31427" d="M232.06,149.5c5.324-.426,10.648-.453,15.972-.506s10.648.08,15.972.506c-5.324.426-10.648.453-15.972.519S237.4,149.924,232.06,149.5Z" transform="translate(-41.52 -17.092)" fill="#ebebeb"/>
        <path id="Path_31428" data-name="Path 31428" d="M232.06,153.336a105.854,105.854,0,0,1,20.67,0,92.7,92.7,0,0,1-10.328.519,96.106,96.106,0,0,1-10.342-.519Z" transform="translate(-41.532 -15.818)" fill="#ebebeb"/>
        <path id="Path_31429" data-name="Path 31429" d="M232.06,157.179c5.524-.426,11.034-.453,16.557-.506s11.034.08,16.557.506c-5.524.426-11.047.453-16.557.519S237.584,157.6,232.06,157.179Z" transform="translate(-41.518 -14.55)" fill="#ebebeb"/>
        <path id="Path_31430" data-name="Path 31430" d="M232.06,161.019c5.524-.426,11.034-.453,16.557-.506s11.034.08,16.557.506c-5.524.426-11.047.453-16.557.519S237.584,161.444,232.06,161.019Z" transform="translate(-41.518 -13.279)" fill="#ebebeb"/>
        <rect id="Rectangle_8657" data-name="Rectangle 8657" width="30.839" height="30.839" transform="translate(210.189 155.459)" fill="#e27e2b"/>
        <path id="Path_31431" data-name="Path 31431" d="M260.68,169.46a1.837,1.837,0,1,1-.538-1.312A1.85,1.85,0,0,1,260.68,169.46Z" transform="translate(-33.23 -10.926)" fill="#455a64"/>
        <rect id="Rectangle_8658" data-name="Rectangle 8658" width="407.976" height="18.235" transform="translate(10.328 52.72)" fill="#dbdbdb"/>
        <path id="Path_31432" data-name="Path 31432" d="M275.5,116.326l69.544-.146,69.544.146-69.544.146Z" transform="translate(-26.67 -27.949)" fill="#c7c7c7"/>
        <path id="Path_31433" data-name="Path 31433" d="M275.5,120.586l69.544-.146,69.544.146-69.544.16Z" transform="translate(-26.67 -26.539)" fill="#c7c7c7"/>
        <path id="Path_31434" data-name="Path 31434" d="M275.5,124.846l69.544-.146,69.544.146-69.544.16Z" transform="translate(-26.67 -25.129)" fill="#c7c7c7"/>
        <path id="Path_31435" data-name="Path 31435" d="M275.5,129.12l69.544-.16,69.544.16-69.544.146Z" transform="translate(-26.67 -23.719)" fill="#c7c7c7"/>
        <path id="Path_31436" data-name="Path 31436" d="M275.5,133.38l69.544-.16,69.544.16-69.544.146Z" transform="translate(-26.67 -22.309)" fill="#c7c7c7"/>
        <path id="Path_31437" data-name="Path 31437" d="M275.5,137.636l69.544-.146,69.544.146-69.544.146Z" transform="translate(-26.67 -20.896)" fill="#c7c7c7"/>
        <path id="Path_31438" data-name="Path 31438" d="M275.5,141.9l69.544-.146,69.544.146-69.544.146Z" transform="translate(-26.67 -19.486)" fill="#c7c7c7"/>
        <path id="Path_31439" data-name="Path 31439" d="M275.5,146.156l69.544-.146,69.544.146-69.544.146Z" transform="translate(-26.67 -18.075)" fill="#c7c7c7"/>
        <path id="Path_31440" data-name="Path 31440" d="M275.5,150.416l69.544-.146,69.544.146-69.544.16Z" transform="translate(-26.67 -16.665)" fill="#c7c7c7"/>
        <path id="Path_31441" data-name="Path 31441" d="M275.5,154.676l69.544-.146,69.544.146-69.544.16Z" transform="translate(-26.67 -15.255)" fill="#c7c7c7"/>
        <path id="Path_31442" data-name="Path 31442" d="M275.5,158.95l69.544-.16,69.544.16-69.544.146Z" transform="translate(-26.67 -13.845)" fill="#c7c7c7"/>
        <path id="Path_31443" data-name="Path 31443" d="M275.5,163.21l69.544-.16,69.544.16-69.544.146Z" transform="translate(-26.67 -12.435)" fill="#c7c7c7"/>
        <path id="Path_31444" data-name="Path 31444" d="M275.5,167.47l69.544-.16,69.544.16-69.544.146Z" transform="translate(-26.67 -11.025)" fill="#c7c7c7"/>
        <path id="Path_31445" data-name="Path 31445" d="M275.5,171.726l69.544-.146,69.544.146-69.544.146Z" transform="translate(-26.67 -9.612)" fill="#c7c7c7"/>
        <path id="Path_31446" data-name="Path 31446" d="M275.5,175.986l69.544-.146,69.544.146-69.544.146Z" transform="translate(-26.67 -8.202)" fill="#c7c7c7"/>
        <rect id="Rectangle_8659" data-name="Rectangle 8659" width="10.541" height="46.318" transform="translate(263.201 128.081)" fill="#e27e2b"/>
        <rect id="Rectangle_8660" data-name="Rectangle 8660" width="10.541" height="65.91" transform="translate(282.809 108.489)" fill="#fff"/>
        <rect id="Rectangle_8661" data-name="Rectangle 8661" width="10.541" height="74.801" transform="translate(302.417 99.598)" fill="#e27e2b"/>
        <rect id="Rectangle_8662" data-name="Rectangle 8662" width="10.541" height="63.195" transform="translate(322.025 111.191)" fill="#fff"/>
        <rect id="Rectangle_8663" data-name="Rectangle 8663" width="10.541" height="59.748" transform="translate(341.633 114.651)" fill="#00a0ae"/>
        <rect id="Rectangle_8664" data-name="Rectangle 8664" width="10.541" height="25.901" transform="translate(361.365 148.498)" fill="#fff"/>
        <path id="Path_31447" data-name="Path 31447" d="M278.479,113.3l.226,22.507.16,22.494q.16,22.494.16,45l-.546-.559H312.3l33.834.067,33.82.186,33.834.333-33.834.333-33.82.173H277.92v-.559q0-22.494.16-45l.16-22.494Z" transform="translate(-25.869 -28.902)" fill="#c7c7c7"/>
        <rect id="Rectangle_8665" data-name="Rectangle 8665" width="10.541" height="0.958" transform="translate(263.201 179.151)" fill="#c7c7c7"/>
        <rect id="Rectangle_8666" data-name="Rectangle 8666" width="10.541" height="0.958" transform="translate(282.809 179.151)" fill="#c7c7c7"/>
        <rect id="Rectangle_8667" data-name="Rectangle 8667" width="10.541" height="0.958" transform="translate(302.417 179.151)" fill="#c7c7c7"/>
        <rect id="Rectangle_8668" data-name="Rectangle 8668" width="10.541" height="0.958" transform="translate(322.025 179.151)" fill="#c7c7c7"/>
        <rect id="Rectangle_8669" data-name="Rectangle 8669" width="10.541" height="0.958" transform="translate(341.633 179.151)" fill="#c7c7c7"/>
        <rect id="Rectangle_8670" data-name="Rectangle 8670" width="10.541" height="0.958" transform="translate(361.365 179.151)" fill="#c7c7c7"/>
        <rect id="Rectangle_8671" data-name="Rectangle 8671" width="36.908" height="3.168" transform="translate(270.123 193.659)" fill="#c7c7c7"/>
        <rect id="Rectangle_8672" data-name="Rectangle 8672" width="49.859" height="3.168" transform="translate(270.145 200.274)" fill="#c7c7c7"/>
        <rect id="Rectangle_8673" data-name="Rectangle 8673" width="26.46" height="3.168" transform="translate(270.107 206.902)" fill="#c7c7c7"/>
        <rect id="Rectangle_8674" data-name="Rectangle 8674" width="7.693" height="7.693" transform="translate(254.114 193.659)" fill="#e27e2b"/>
        <rect id="Rectangle_8675" data-name="Rectangle 8675" width="43.869" height="3.168" transform="translate(270.135 219.28)" fill="#c7c7c7"/>
        <rect id="Rectangle_8676" data-name="Rectangle 8676" width="34.699" height="3.168" transform="translate(270.12 225.908)" fill="#c7c7c7"/>
        <rect id="Rectangle_8677" data-name="Rectangle 8677" width="49.859" height="3.168" transform="translate(270.145 232.523)" fill="#c7c7c7"/>
        <rect id="Rectangle_8678" data-name="Rectangle 8678" width="7.693" height="7.693" transform="translate(254.114 219.28)" fill="#fff"/>
        <rect id="Rectangle_8679" data-name="Rectangle 8679" width="36.908" height="3.168" transform="translate(234.717 292.924)" fill="#c7c7c7"/>
        <rect id="Rectangle_8680" data-name="Rectangle 8680" width="49.859" height="3.168" transform="translate(234.736 299.539)" fill="#c7c7c7"/>
        <rect id="Rectangle_8681" data-name="Rectangle 8681" width="26.46" height="3.168" transform="translate(234.703 306.167)" fill="#c7c7c7"/>
        <rect id="Rectangle_8682" data-name="Rectangle 8682" width="7.693" height="7.693" transform="translate(218.713 292.924)" fill="#455a64"/>
        <rect id="Rectangle_8683" data-name="Rectangle 8683" width="36.908" height="3.168" transform="translate(324.687 292.924)" fill="#c7c7c7"/>
        <rect id="Rectangle_8684" data-name="Rectangle 8684" width="49.859" height="3.168" transform="translate(324.843 299.539)" fill="#c7c7c7"/>
        <rect id="Rectangle_8685" data-name="Rectangle 8685" width="26.46" height="3.168" transform="translate(324.667 306.167)" fill="#c7c7c7"/>
        <rect id="Rectangle_8686" data-name="Rectangle 8686" width="7.693" height="7.693" transform="translate(308.669 292.924)" fill="#00a0ae"/>
        <rect id="Rectangle_8687" data-name="Rectangle 8687" width="417.972" height="4.379" transform="translate(5.457 339.362)" fill="#37474f"/>
        <rect id="Rectangle_8688" data-name="Rectangle 8688" width="2.316" height="15.173" transform="translate(213.278 343.741)" fill="#37474f"/>
        <path id="Path_31448" data-name="Path 31448" d="M251.29,328.734a5.5,5.5,0,1,1,5.444-5.457,5.5,5.5,0,0,1-5.444,5.457Zm0-8.319a2.816,2.816,0,1,1,0,.04Z" transform="translate(-36.974 38.765)" fill="#37474f"/>
        <path id="Path_31449" data-name="Path 31449" d="M182.19,238.27a36.1,36.1,0,0,1-21.975,33.275l-14.1-33.275Z" transform="translate(-70.225 12.461)" fill="#c7c7c7"/>
        <path id="Path_31450" data-name="Path 31450" d="M151.6,245.363l14.1,33.275h-.067c-1.1.439-2.209.865-3.314,1.211a36.629,36.629,0,0,1-10.648,1.624,37.012,37.012,0,0,1-10.714-1.624,36.082,36.082,0,1,1,46.784-34.513Z" transform="translate(-80.495 2.893)" fill="#dbdbdb"/>
        <path id="Path_31451" data-name="Path 31451" d="M151.611,245.377l14.1,33.275h-.067c-1.1.439-2.209.865-3.314,1.211a36.631,36.631,0,0,1-10.648,1.624,37.015,37.015,0,0,1-10.714-1.624A36.083,36.083,0,1,1,187.747,245.4Z" transform="translate(-80.51 2.879)" fill="#e27e2b"/>
        <path id="Path_31452" data-name="Path 31452" d="M151.63,245.378l-23.505,27.392a36.056,36.056,0,1,1,59.548-27.338Z" transform="translate(-80.516 2.891)" fill="#455a64"/>
        <path id="Path_31453" data-name="Path 31453" d="M202.393,280.82H175.161L141.42,247.092l.492-.492,33.528,33.528h26.953Z" transform="translate(-71.784 15.219)" fill="#263238"/>
        <rect id="Rectangle_8689" data-name="Rectangle 8689" width="3.793" height="3.793" transform="translate(67.814 260.168)" fill="#263238"/>
        <path id="Path_31454" data-name="Path 31454" d="M198.487,256.457H167.794L153.22,241.882l.492-.492,14.375,14.361h30.4Z" transform="translate(-67.848 13.494)" fill="#263238"/>
        <rect id="Rectangle_8690" data-name="Rectangle 8690" width="3.793" height="3.793" transform="translate(83.698 253.234)" fill="#263238"/>
        <rect id="Rectangle_8691" data-name="Rectangle 8691" width="46.412" height="0.692" transform="translate(84.225 244.116)" fill="#263238"/>
        <rect id="Rectangle_8692" data-name="Rectangle 8692" width="3.793" height="3.793" transform="translate(81.629 242.572)" fill="#263238"/>
        <rect id="Rectangle_8693" data-name="Rectangle 8693" width="33.727" height="3.141" transform="translate(141.329 240.656)" fill="#c7c7c7"/>
        <rect id="Rectangle_8694" data-name="Rectangle 8694" width="43.75" height="3.141" transform="translate(141.338 247.218)" fill="#c7c7c7"/>
        <rect id="Rectangle_8695" data-name="Rectangle 8695" width="23.385" height="3.141" transform="translate(141.321 253.766)" fill="#c7c7c7"/>
        <rect id="Rectangle_8696" data-name="Rectangle 8696" width="7.613" height="7.613" transform="translate(126.903 240.656)" fill="#455a64"/>
        <rect id="Rectangle_8697" data-name="Rectangle 8697" width="37.827" height="3.141" transform="translate(141.333 266.011)" fill="#c7c7c7"/>
        <rect id="Rectangle_8698" data-name="Rectangle 8698" width="31.544" height="3.141" transform="translate(141.327 272.56)" fill="#c7c7c7"/>
        <rect id="Rectangle_8699" data-name="Rectangle 8699" width="43.75" height="3.141" transform="translate(141.338 279.108)" fill="#c7c7c7"/>
        <rect id="Rectangle_8700" data-name="Rectangle 8700" width="7.613" height="7.613" transform="translate(126.903 266.011)" fill="#c7c7c7"/>
        <rect id="Rectangle_8701" data-name="Rectangle 8701" width="37.827" height="3.141" transform="translate(141.333 291.353)" fill="#c7c7c7"/>
        <rect id="Rectangle_8702" data-name="Rectangle 8702" width="31.544" height="3.141" transform="translate(141.327 297.902)" fill="#c7c7c7"/>
        <rect id="Rectangle_8703" data-name="Rectangle 8703" width="43.75" height="3.141" transform="translate(141.338 304.45)" fill="#c7c7c7"/>
        <rect id="Rectangle_8704" data-name="Rectangle 8704" width="7.613" height="7.613" transform="translate(126.903 291.353)" fill="#e27e2b"/>
        <path id="Path_31455" data-name="Path 31455" d="M115.58,117.116l77.49-.186,51.829.186-51.829.186Z" transform="translate(-80.508 -27.701)" fill="#c7c7c7"/>
        <path id="Path_31456" data-name="Path 31456" d="M115.58,122.486l77.49-.186,51.829.186-51.829.186Z" transform="translate(-80.508 -25.923)" fill="#c7c7c7"/>
        <path id="Path_31457" data-name="Path 31457" d="M115.58,127.86l77.49-.2,51.829.2-51.829.186Z" transform="translate(-80.508 -24.149)" fill="#c7c7c7"/>
        <path id="Path_31458" data-name="Path 31458" d="M115.58,133.216l77.49-.186,51.829.186-51.829.186Z" transform="translate(-80.508 -22.372)" fill="#c7c7c7"/>
        <path id="Path_31459" data-name="Path 31459" d="M115.58,138.586l77.49-.186,51.829.186-51.829.186Z" transform="translate(-80.508 -20.594)" fill="#c7c7c7"/>
        <path id="Path_31460" data-name="Path 31460" d="M115.58,143.956l77.49-.186,51.829.186-51.829.186Z" transform="translate(-80.508 -18.817)" fill="#c7c7c7"/>
        <path id="Path_31461" data-name="Path 31461" d="M115.58,149.326l77.49-.186,51.829.186-51.829.186Z" transform="translate(-80.508 -17.039)" fill="#c7c7c7"/>
        <path id="Path_31462" data-name="Path 31462" d="M115.58,154.7l77.49-.2,51.829.2-51.829.186Z" transform="translate(-80.508 -15.265)" fill="#c7c7c7"/>
        <path id="Path_31463" data-name="Path 31463" d="M115.58,160.056l77.49-.186,51.829.186-51.829.2Z" transform="translate(-80.508 -13.488)" fill="#c7c7c7"/>
        <path id="Path_31464" data-name="Path 31464" d="M115.58,165.426l77.49-.186,51.829.186-51.829.2Z" transform="translate(-80.508 -11.711)" fill="#c7c7c7"/>
        <path id="Path_31465" data-name="Path 31465" d="M115.58,170.8l77.49-.186,51.829.186-51.829.186Z" transform="translate(-80.508 -9.933)" fill="#c7c7c7"/>
        <path id="Path_31466" data-name="Path 31466" d="M115.58,176.166l77.49-.186,51.829.186-51.829.186Z" transform="translate(-80.508 -8.156)" fill="#c7c7c7"/>
        <path id="Path_31467" data-name="Path 31467" d="M115.58,181.536l77.49-.186,51.829.186-51.829.186Z" transform="translate(-80.508 -6.378)" fill="#c7c7c7"/>
        <path id="Path_31468" data-name="Path 31468" d="M115.58,186.906l77.49-.186,51.829.186-51.829.186Z" transform="translate(-80.508 -4.601)" fill="#c7c7c7"/>
        <path id="Path_31469" data-name="Path 31469" d="M115.58,192.266l77.49-.186,51.829.186-51.829.2Z" transform="translate(-80.508 -2.827)" fill="#c7c7c7"/>
        <path id="Path_31470" data-name="Path 31470" d="M208.07,114.02l.213,62.463-.213,54.065-.2-54.065Z" transform="translate(-49.627 -28.664)" fill="#c7c7c7"/>
        <path id="Path_31471" data-name="Path 31471" d="M202.2,114.02l.213,62.463-.213,54.065-.2-54.065Z" transform="translate(-51.586 -28.664)" fill="#c7c7c7"/>
        <path id="Path_31472" data-name="Path 31472" d="M196.333,114.02l.2,62.463-.2,54.065-.213-54.065Z" transform="translate(-53.549 -28.664)" fill="#c7c7c7"/>
        <path id="Path_31473" data-name="Path 31473" d="M190.463,114.02l.2,62.463-.2,54.065-.213-54.065Z" transform="translate(-55.508 -28.664)" fill="#c7c7c7"/>
        <path id="Path_31474" data-name="Path 31474" d="M184.58,114.02l.213,62.463-.213,54.065-.2-54.065Z" transform="translate(-57.468 -28.664)" fill="#c7c7c7"/>
        <path id="Path_31475" data-name="Path 31475" d="M178.713,114.02l.2,62.463-.2,54.065-.213-54.065Z" transform="translate(-59.431 -28.664)" fill="#c7c7c7"/>
        <path id="Path_31476" data-name="Path 31476" d="M172.843,114.02l.2,62.463-.2,54.065-.213-54.065Z" transform="translate(-61.39 -28.664)" fill="#c7c7c7"/>
        <path id="Path_31477" data-name="Path 31477" d="M166.96,114.02l.213,62.463-.213,54.065-.2-54.065Z" transform="translate(-63.35 -28.664)" fill="#c7c7c7"/>
        <path id="Path_31478" data-name="Path 31478" d="M161.09,114.02l.213,62.463-.213,54.065-.2-54.065Z" transform="translate(-65.309 -28.664)" fill="#c7c7c7"/>
        <path id="Path_31479" data-name="Path 31479" d="M155.223,114.02l.2,62.463-.2,54.065-.213-54.065Z" transform="translate(-67.272 -28.664)" fill="#c7c7c7"/>
        <path id="Path_31480" data-name="Path 31480" d="M149.34,114.02l.213,62.463-.213,54.065-.2-54.065Z" transform="translate(-69.4 -28.664)" fill="#c7c7c7"/>
        <path id="Path_31481" data-name="Path 31481" d="M143.47,114.02l.213,62.463-.213,54.065-.2-54.065Z" transform="translate(-71.343 -28.664)" fill="#c7c7c7"/>
        <path id="Path_31482" data-name="Path 31482" d="M137.6,114.02l.2,62.463-.2,54.065-.213-54.065Z" transform="translate(-73.29 -28.664)" fill="#c7c7c7"/>
        <path id="Path_31483" data-name="Path 31483" d="M131.733,114.02l.2,62.463-.2,54.065-.213-54.065Z" transform="translate(-75.232 -28.664)" fill="#c7c7c7"/>
        <path id="Path_31484" data-name="Path 31484" d="M125.85,114.02l.213,62.463-.213,54.065-.2-54.065Z" transform="translate(-77.175 -28.664)" fill="#c7c7c7"/>
        <path id="Path_31485" data-name="Path 31485" d="M119.669,113.3,120,141.65l.213,28.337c.16,18.9.2,37.8.226,56.687l-.772-.692h46.585l28.283.08,46.585.226,2.662.413-2.662.426-46.585.226-28.283.08H118.91v-.705c0-18.887,0-37.787.226-56.687l.213-28.337Z" transform="translate(-79.406 -28.902)" fill="#c7c7c7"/>
        <path id="Path_31486" data-name="Path 31486" d="M120.208,221.809l-1.158-.665,8.678-15.08h15.759l7.746-7.174h7.773l7.933-14.415h15.426l15.626-28.643h7.826l7.813-14H229.3l9.769-14.92,1.1.719-10.155,15.533h-15.6l-7.813,14h-7.813L183.15,185.806H167.724L159.8,200.221h-8.052l-7.746,7.174H128.5Z" transform="translate(-79.36 -24.397)" fill="#e27e2b"/>
        <path id="Path_31487" data-name="Path 31487" d="M214.481,132.9l.586-10.462-9.357,4.725Z" transform="translate(-50.341 -25.877)" fill="#e27e2b"/>
        <path id="Path_31488" data-name="Path 31488" d="M282.339,252.062a15.479,15.479,0,1,1-2.05-7.706,15.48,15.48,0,0,1,2.05,7.706Z" transform="translate(-35.068 11.899)" fill="#455a64"/>
        <path id="Path_31489" data-name="Path 31489" d="M276.443,244.356,263,252.063V236.57A15.506,15.506,0,0,1,276.443,244.356Z" transform="translate(-31.208 11.899)" fill="#e27e2b"/>
        <ellipse id="Ellipse_739" data-name="Ellipse 739" cx="10.714" cy="10.714" rx="10.714" ry="10.714" transform="matrix(0.16, -0.987, 0.987, 0.16, 219.472, 272.799)" fill="#fff"/>
        <rect id="Rectangle_8705" data-name="Rectangle 8705" width="8.918" height="1.264" transform="translate(227.318 261.579)" fill="#263238"/>
        <rect id="Rectangle_8706" data-name="Rectangle 8706" width="13.337" height="1.264" transform="translate(225.109 265.079)" fill="#a6a6a6"/>
        <path id="Path_31490" data-name="Path 31490" d="M314.846,252.042a15.748,15.748,0,0,1-.173,2.263,15.373,15.373,0,1,1,.173-2.263Z" transform="translate(-24.138 11.919)" fill="#455a64"/>
        <path id="Path_31491" data-name="Path 31491" d="M311.053,252.063a15.743,15.743,0,0,1-.173,2.263l-15.32-2.263V236.57a15.479,15.479,0,0,1,15.493,15.493Z" transform="translate(-20.333 11.899)" fill="#e27e2b"/>
        <ellipse id="Ellipse_740" data-name="Ellipse 740" cx="10.714" cy="10.714" rx="10.714" ry="10.714" transform="translate(262.58 272.321) rotate(-78.34)" fill="#fff"/>
        <rect id="Rectangle_8707" data-name="Rectangle 8707" width="8.918" height="1.264" transform="translate(270.749 261.579)" fill="#263238"/>
        <rect id="Rectangle_8708" data-name="Rectangle 8708" width="13.337" height="1.264" transform="translate(268.54 265.079)" fill="#a6a6a6"/>
        <path id="Path_31492" data-name="Path 31492" d="M347.7,252.062a15.479,15.479,0,1,1-2.05-7.706A15.48,15.48,0,0,1,347.7,252.062Z" transform="translate(-13.236 11.899)" fill="#455a64"/>
        <path id="Path_31493" data-name="Path 31493" d="M343.853,252.063a15.479,15.479,0,0,1-9.942,14.454l-5.551-14.454V236.57a15.479,15.479,0,0,1,15.493,15.493Z" transform="translate(-9.381 11.899)" fill="#00a0ae"/>
        <path id="Path_31494" data-name="Path 31494" d="M341.686,250.874a10.648,10.648,0,1,1-10.714-10.714A10.648,10.648,0,0,1,341.686,250.874Z" transform="translate(-12.033 13.087)" fill="#fff"/>
        <rect id="Rectangle_8709" data-name="Rectangle 8709" width="8.918" height="1.264" transform="translate(314.473 261.579)" fill="#263238"/>
        <rect id="Rectangle_8710" data-name="Rectangle 8710" width="13.337" height="1.264" transform="translate(312.266 265.079)" fill="#a6a6a6"/>
        <path id="Path_31495" data-name="Path 31495" d="M380.266,252.063a15.453,15.453,0,1,1-2.036-7.706A15.453,15.453,0,0,1,380.266,252.063Z" transform="translate(-2.224 11.898)" fill="#455a64"/>
        <path id="Path_31496" data-name="Path 31496" d="M378.928,252.063A15.479,15.479,0,0,1,353.4,263.842l10.049-11.779V236.57a15.453,15.453,0,0,1,15.479,15.493Z" transform="translate(-0.886 11.899)" fill="#00a0ae"/>
        <ellipse id="Ellipse_741" data-name="Ellipse 741" cx="10.714" cy="10.714" rx="10.714" ry="10.714" transform="translate(350.19 272.716) rotate(-80.44)" fill="#fff"/>
        <rect id="Rectangle_8711" data-name="Rectangle 8711" width="8.918" height="1.264" transform="translate(358.104 261.579)" fill="#263238"/>
        <rect id="Rectangle_8712" data-name="Rectangle 8712" width="13.337" height="1.264" transform="translate(355.895 265.079)" fill="#a6a6a6"/>
      </g>
      <g id="freepik--Floor--inject-33" transform="translate(9.676 513.03)">
        <path id="Path_31497" data-name="Path 31497" d="M41.27,419.5l69.564-.319,69.578-.12,139.129-.226,139.129.226,69.577.12,69.564.319-69.564.333-69.577.12-139.129.213-139.129-.226-69.578-.106Z" transform="translate(-41.27 -418.83)" fill="#263238"/>
      </g>
      <g id="freepik--Plant--inject-33" transform="translate(5.723 323.897)">
        <path id="Path_31498" data-name="Path 31498" d="M75.57,383.844s10.981-39.41,19.752-52.8S120.438,303,120.438,303,120.065,363.72,75.57,383.844Z" transform="translate(-25.964 -268.035)" fill="#e27e2b"/>
        <path id="Path_31499" data-name="Path 31499" d="M76.191,379.193a191.328,191.328,0,0,0,10.009-19.1,134.108,134.108,0,0,1,5.444-20.724.106.106,0,0,1,.2.067c-1.464,6.229-3.154,12.4-4.7,18.634,4.432-9.583,8.651-19.3,13.935-28.363a60.039,60.039,0,0,1,5.084-12.618c0-.12.253,0,.2.067a79.721,79.721,0,0,0-3.434,9.463,95.647,95.647,0,0,1,8.345-11.526c.186-.226.572,0,.386.266C104.607,324.37,99.683,334.619,95.091,345a158.375,158.375,0,0,0,13.776-17.223c0-.067.133,0,.093.067a140.7,140.7,0,0,1-14.747,19.1c-3.381,7.6-6.655,15.24-10.728,22.467,7.986-6.8,14.242-15.613,20.364-24.1a.183.183,0,1,1,.306.2c-6.136,9.317-12.471,18.1-21.3,25.009a98.187,98.187,0,0,1-5.9,9.21.469.469,0,1,1-.772-.532Z" transform="translate(-25.786 -264.063)" fill="#263238"/>
        <path id="Path_31500" data-name="Path 31500" d="M76.059,396.08s19.739-36.336,14-71.567S78.189,276.73,78.189,276.73,47.19,331.527,76.059,396.08Z" transform="translate(-29.874 -276.73)" fill="#e27e2b"/>
        <path id="Path_31501" data-name="Path 31501" d="M66.973,334.653a172.536,172.536,0,0,0,7.613,29.282c0-12.937.306-25.861.652-38.8a100.185,100.185,0,0,1-3.727-24.078c0-.24.346-.226.373,0a135.612,135.612,0,0,0,3.461,20.71q.439-15.972,1.038-31.944a.146.146,0,0,1,.28,0c0,16.664,0,33.275-.12,49.992a132.6,132.6,0,0,0,5.7-19.792h.106a77.276,77.276,0,0,1-5.816,22.52c-.08,10.648-.2,21.3-.439,31.944,3.341-11.194,6.948-22.228,7.879-34.193a.133.133,0,0,1,.253,0c-.266,13.19-3.674,26.62-7.986,38.985a.613.613,0,0,1-.213.319c-.106,3.886-.213,7.786-.346,11.673a.439.439,0,0,1-.865,0q-.226-11.979-.186-23.891a106.93,106.93,0,0,1-7.826-32.7C66.787,334.573,66.96,334.56,66.973,334.653Z" transform="translate(-28.867 -272.43)" fill="#263238"/>
        <path id="Path_31502" data-name="Path 31502" d="M68.12,319.3a66.654,66.654,0,0,1,1.331,9.6c0,.106-.16.12-.186,0a68.429,68.429,0,0,1-1.624-9.57C67.588,319.1,68,319.061,68.12,319.3Z" transform="translate(-28.59 -262.693)" fill="#263238"/>
        <path id="Path_31503" data-name="Path 31503" d="M76.889,299.317c0-.106.186-.08.186,0a24.383,24.383,0,0,1-1,6.655c0,.173-.293.093-.266-.08C76.25,303.71,76.516,301.5,76.889,299.317Z" transform="translate(-25.885 -269.277)" fill="#263238"/>
        <path id="Path_31504" data-name="Path 31504" d="M77.311,389.69s.8-37.933-10.076-56.78S38.3,304.44,38.3,304.44,45.581,371.309,77.311,389.69Z" transform="translate(-38.3 -267.558)" fill="#e27e2b"/>
        <path id="Path_31505" data-name="Path 31505" d="M54.878,353.88A140.732,140.732,0,0,0,69.6,372.514q-3.261-11.62-7.533-22.866c-6.1-5.324-12.139-10.9-15.892-18.221a.107.107,0,0,1,.186-.107c3.993,6.5,9.4,11.673,15.067,16.664A296.926,296.926,0,0,0,46.28,315a.242.242,0,1,1,.413-.253,182.053,182.053,0,0,1,9.5,17.3c-1.025-3.993-1.837-8.2-2.888-12.219a.093.093,0,0,1,.173,0,69.211,69.211,0,0,1,4.445,16.078,193.844,193.844,0,0,1,9.583,25.954c-.28-5.683-.639-11.353-1.225-17.023,0-.106.16-.12.186,0a92,92,0,0,1,1.65,19.1q2.356,8.492,3.993,17.143a.124.124,0,0,1-.24.067c-.586-2.422-1.225-4.818-1.877-7.214h-.133c-5.83-5.856-11.38-12.511-15.014-19.965Z" transform="translate(-35.699 -264.185)" fill="#263238"/>
        <path id="Path_31506" data-name="Path 31506" d="M43.283,320.936c1.211,1.331,2.316,2.662,3.487,3.993a31.463,31.463,0,0,1,3.141,3.66l-.093.08A18.382,18.382,0,0,1,46.2,325.1a30.607,30.607,0,0,1-3.088-4.073.106.106,0,0,1,.173-.093Z" transform="translate(-36.708 -262.106)" fill="#263238"/>
        <path id="Path_31507" data-name="Path 31507" d="M103.594,365l-1.331,17.968-4.139,54.318H62.04L57.9,382.968,56.57,365Z" transform="translate(-32.253 -247.514)" fill="#455a64"/>
        <path id="Path_31508" data-name="Path 31508" d="M103.594,365l-1.331,17.968H57.9L56.57,365Z" transform="translate(-32.253 -247.514)" fill="#37474f"/>
        <rect id="Rectangle_8713" data-name="Rectangle 8713" width="53.466" height="13.776" transform="translate(21.07 108.688)" fill="#455a64"/>
      </g>
      <g id="freepik--Character--inject-33" transform="translate(296.723 132.239)">
        <path id="Path_31509" data-name="Path 31509" d="M284.792,469.928c2.742.878,83.48-.133,86.421-2.05,1.131-.719-4.539-76.678-4.539-76.678l-52.175.519,5.577,50.817s-29.681,13.749-32.689,16.2S282.063,469.063,284.792,469.928Z" transform="translate(-247.208 -47.183)" fill="#ad6359"/>
        <path id="Path_31510" data-name="Path 31510" d="M284.2,458.548c2.875.945,84.411.173,87.512-1.837,1.2-.745-.532-27.645-.532-27.791H320.746v.9s-31.331,14.361-34.526,16.943S281.309,457.629,284.2,458.548Z" transform="translate(-247.492 -34.698)" fill="#00a0ae"/>
        <path id="Path_31511" data-name="Path 31511" d="M284.057,448.957c13.856-.466,69.784-1.051,83.52-.466.106,0,.106.08,0,.093-13.723.759-69.651.892-83.52.6C283.751,449.25,283.751,448.97,284.057,448.957Z" transform="translate(-247.126 -28.302)" fill="#263238"/>
        <path id="Path_31512" data-name="Path 31512" d="M306.943,429.179c5.444-1.065,12.112-.293,16.318,3.554.16.16,0,.386-.226.333a76.858,76.858,0,0,0-16.065-3.194.346.346,0,0,1-.027-.692Z" transform="translate(-239.585 -34.757)" fill="#263238"/>
        <path id="Path_31513" data-name="Path 31513" d="M303.991,430.989c5.444-1.065,12.125-.293,16.331,3.554.16.16,0,.386-.226.333a76.861,76.861,0,0,0-16.065-3.194.347.347,0,0,1-.04-.692Z" transform="translate(-240.56 -34.158)" fill="#263238"/>
        <path id="Path_31514" data-name="Path 31514" d="M301.083,432.8c5.444-1.065,12.125-.293,16.331,3.554.16.16,0,.386-.226.333a76.814,76.814,0,0,0-16.078-3.194.346.346,0,0,1-.027-.692Z" transform="translate(-241.525 -33.559)" fill="#263238"/>
        <path id="Path_31515" data-name="Path 31515" d="M310.283,498.044h56.181s-11.46-131.5-11.007-133.8c.559-2.928,3.873-16.211,8.292-33.554,1.331-5.43,2.875-11.26,4.419-17.3,4.193-16.331,8.811-34.166,12.831-49.686,6.043-23.252,10.754-41.327,10.754-41.327h-47.61s-5.55,17.6-12.538,40.475c-11.407,37.188-26.62,88.378-28.124,100.822C301.046,383.779,310.283,498.044,310.283,498.044Z" transform="translate(-240.756 -103.064)" fill="#37474f"/>
        <path id="Path_31516" data-name="Path 31516" d="M310.383,422.388c8.585-.173,6.109-.253,14.641-.333,4.206,0,31.8-.28,35.71.373a.093.093,0,0,1,0,.173c-3.913.652-31.5.413-35.71.373-8.585-.093-6.109-.16-14.641-.333a.133.133,0,0,1,0-.253Z" transform="translate(-238.367 -36.99)" fill="#263238"/>
        <path id="Path_31517" data-name="Path 31517" d="M372.064,227.23l-8.745,30.852-8.532,30.892c-2.835,10.3-5.577,20.63-8.319,30.959s-5.43,20.67-7.986,31.065c-.6,2.662-1.225,5.2-1.744,7.853-.133.652-.226,1.331-.346,2.01a10.808,10.808,0,0,0,0,1.118l.08,1,.306,3.993,1.238,15.972,2.516,31.944,2.6,31.944,2.729,31.944-2.143-31.944-2.249-31.944-2.343-31.944-1.185-15.972-.306-3.993-.067-1v-.865c.12-.652.2-1.331.346-1.943.506-2.662,1.145-5.2,1.744-7.8,5-20.75,10.581-41.394,15.972-62.064Z" transform="translate(-229.732 -101.455)" fill="#263238"/>
        <path id="Path_31518" data-name="Path 31518" d="M334.79,222.38c3.3,25.568,15.253,68.053,19.845,102.832,10.741-42.139,26.62-102.832,26.62-102.832Z" transform="translate(-230.258 -103.061)" fill="#263238"/>
        <path id="Path_31519" data-name="Path 31519" d="M441.323,469.443c-2.768.852-70.542,1.158-73.524-.812-1.131-.719-1.531-12.165-1.611-25.994v-.426c0-2.862-6.588-50.751-6.588-50.751l51.243,1.038,5.923,50.311v.865s19.126,11.979,22.134,14.494S444.078,468.591,441.323,469.443Z" transform="translate(-222.046 -47.097)" fill="#ad6359"/>
        <path id="Path_31520" data-name="Path 31520" d="M443.243,458.548c-2.875.945-75.866.173-78.928-1.837-1.2-.745.532-27.645.532-27.791h50.431v.9s22.747,14.361,25.941,16.943S446.131,457.629,443.243,458.548Z" transform="translate(-220.625 -34.698)" fill="#00a0ae"/>
        <path id="Path_31521" data-name="Path 31521" d="M442,448.957c-13.856-.466-61.225-1.051-74.921-.466-.12,0-.12.08,0,.093,13.723.759,61.052.892,74.921.6C442.3,449.25,442.3,448.97,442,448.957Z" transform="translate(-219.599 -28.302)" fill="#263238"/>
        <path id="Path_31522" data-name="Path 31522" d="M408.522,430.264c-5.324-1.491-12.059-1.238-16.544,2.276-.173.133,0,.386.2.346a75.974,75.974,0,0,1,16.265-1.93.359.359,0,0,0,.08-.692Z" transform="translate(-211.353 -34.539)" fill="#263238"/>
        <path id="Path_31523" data-name="Path 31523" d="M411.312,432.292c-5.324-1.477-12.059-1.225-16.544,2.276-.173.133,0,.386.2.346a75.97,75.97,0,0,1,16.265-1.93.359.359,0,0,0,.08-.692Z" transform="translate(-210.429 -33.864)" fill="#263238"/>
        <path id="Path_31524" data-name="Path 31524" d="M414.132,434.334c-5.324-1.491-12.059-1.238-16.544,2.276-.173.133,0,.373.2.333a76.837,76.837,0,0,1,16.265-1.93.346.346,0,0,0,.08-.679Z" transform="translate(-209.496 -33.192)" fill="#263238"/>
        <path id="Path_31525" data-name="Path 31525" d="M334.79,222.38s7.214,44,7.706,45.413c0,0,2.662,1.331,7.52,3.514l21.056,227.08,56.447.226L396.388,222.38Z" transform="translate(-230.258 -103.061)" fill="#37474f"/>
        <path id="Path_31526" data-name="Path 31526" d="M363.543,422.27c8.612-.133,6.136-.213,14.761-.266,4.219,0,31.944-.146,35.937.519a.093.093,0,1,1,0,.186c-3.993.626-31.677.266-35.937.213-8.625-.12-6.149-.173-14.774-.4C363.37,422.523,363.37,422.283,363.543,422.27Z" transform="translate(-220.785 -36.992)" fill="#263238"/>
        <path id="Path_31527" data-name="Path 31527" d="M338.939,255.484a105.721,105.721,0,0,1,16.132,8.452.188.188,0,0,1-.173.333c-5.444-2.662-11.007-5.191-16.291-8.132a.373.373,0,0,1,.333-.652Z" transform="translate(-229.043 -92.109)" fill="#263238"/>
        <path id="Path_31528" data-name="Path 31528" d="M340.426,236.545c.878,5.324,1.331,10.648,1.97,15.972.146,1.331.293,2.542.426,3.82a7.466,7.466,0,0,0,.918,3.341c1.145,1.783,3.194,2.662,5.058,3.421.213.093.12.439-.106.359a12.418,12.418,0,0,1-5.324-2.835c-1.69-1.8-1.637-4.5-1.89-6.8a145.854,145.854,0,0,1-1.238-17.2.12.12,0,0,1,.186-.08Z" transform="translate(-228.454 -98.379)" fill="#263238"/>
        <path id="Path_31529" data-name="Path 31529" d="M345.239,237.773c.186,3.793.6,7.587.918,11.38.16,1.863.293,3.74.4,5.6s.346,3.847.279,5.75a.12.12,0,0,1-.226,0c-.319-1.8-.359-3.673-.506-5.5s-.293-3.833-.4-5.75c-.213-3.833-.319-7.693-.652-11.513C344.986,237.654,345.226,237.654,345.239,237.773Z" transform="translate(-226.865 -97.997)" fill="#263238"/>
        <path id="Path_31530" data-name="Path 31530" d="M347.1,263.37l3.021,25.821L353.276,315l6.5,51.589,6.775,51.549,3.474,25.768,3.62,25.755-3.021-25.834-3.154-25.808-6.5-51.576-6.775-51.562-3.487-25.755Z" transform="translate(-226.183 -89.493)" fill="#263238"/>
        <path id="Path_31531" data-name="Path 31531" d="M373.3,188.952c-12.139,14.029-35.617,34.166-45.626,38.119-11.127,4.392-36.549-21.136-53.133-36.655-3.3-3.088,19.046-30.173,22.4-26.7,8.758,9.064,26.553,29.708,29.4,29.588,2.316-.093,23.652-10.182,35.617-15.972C381.021,168.029,381.847,179.076,373.3,188.952Z" transform="translate(-250.309 -122.579)" fill="#ad6359"/>
        <path id="Path_31532" data-name="Path 31532" d="M263.535,181.855c3.78,5.976,16.278,15.173,20.151,16.238s20.2-19.672,19.206-23.665-15.266-23.133-22.081-25.475S259.622,175.68,263.535,181.855Z" transform="translate(-254.062 -127.408)" fill="#ad6359"/>
        <path id="Path_31533" data-name="Path 31533" d="M295.023,173.842a58.381,58.381,0,0,1-.626-17.037c.985-6.735,3.208-16.624-.4-17.3-7.4-1.331-12.924,23.306-12.924,23.306s-.692,11.287,6.522,13.31a7.454,7.454,0,0,0,7.427-2.276Z" transform="translate(-248.043 -130.509)" fill="#ad6359"/>
        <path id="Path_31534" data-name="Path 31534" d="M292.758,158.655c-1.757,3.3-4.379,1.69-4.379,1.69s5.7,4.5,4.286,8.385-6.655,1.078-7.054.892c.306.24,5.43,4.512,3.607,8.265s-6.761.319-7.068.08c.213.319,2.928,4.552.892,7.094-3.5,4.366-10.754-6.256-15.24-6.908,0,0-1.97,7.48-2.076,7.68s-7.107-9.956-5.9-15.972a3.9,3.9,0,0,1,3.714-3.194s-2.662-2.955-1.331-5.963c.692-1.544,3.78-1.8,3.78-1.8a4.911,4.911,0,0,1-.665-5.058c1.078-2.076,3.993-2.023,3.993-2.023s-15.12-10.355-12.831-13.975c3.993-6.229,32.223,17.3,35.4,16.557C293.5,154.063,293.53,157.217,292.758,158.655Z" transform="translate(-256.253 -131.386)" fill="#ad6359"/>
        <path id="Path_31535" data-name="Path 31535" d="M266.457,148.087c-.067,0,0-.12,0-.106a34.819,34.819,0,0,1,18.794,8.745c.16.16.386,1.171.2,1.012C280.659,153.677,273.352,150.19,266.457,148.087Z" transform="translate(-252.885 -127.686)" fill="#263238"/>
        <path id="Path_31536" data-name="Path 31536" d="M263.539,153.393c-.08,0,0-.146,0-.133A32.636,32.636,0,0,1,283.5,164.081c.173.2.107.572-.106.346C279.724,160.607,269.755,155.257,263.539,153.393Z" transform="translate(-253.853 -125.939)" fill="#263238"/>
        <path id="Path_31537" data-name="Path 31537" d="M280.474,171.129c-5.071-5.7-11.446-9.184-18.514-11.819-.093,0,0-.16,0-.16,3.807.359,8.132,2.5,11.367,4.472a20.138,20.138,0,0,1,7.334,7.307C280.741,171.062,280.581,171.249,280.474,171.129Z" transform="translate(-254.377 -123.989)" fill="#263238"/>
        <path id="Path_31538" data-name="Path 31538" d="M285.63,154.47c.2.186-.626.293-.439.492,2.036,2.1,5.484,6.056,4.139,8.092-1.078,1.637-3.993,1.331-5.1.759l-2.728-1.424,2.063,2.289a12.208,12.208,0,0,1,2.236,3.394,4.459,4.459,0,0,1,.2,3.674,2.582,2.582,0,0,1-2.808,1.584,7.826,7.826,0,0,1-3.527-1.664l-2.862-2.236,1.97,3.035a11.875,11.875,0,0,1,1.331,2.662,4.845,4.845,0,0,1,.2,2.8,2.3,2.3,0,0,1-1.783,1.65,5.044,5.044,0,0,1-2.782-.666,39.933,39.933,0,0,1-5.257-3.487c-.865-.626-1.73-1.251-2.662-1.837a7.48,7.48,0,0,0-2.9-1.331,8.24,8.24,0,0,1,2.729,1.571c.839.639,1.65,1.331,2.462,2.023a35.456,35.456,0,0,0,5.178,3.833,5.989,5.989,0,0,0,3.314.918,3.274,3.274,0,0,0,2.728-2.343,5.91,5.91,0,0,0-.146-3.474,12.938,12.938,0,0,0-1.411-3.048l-.905.8a8.944,8.944,0,0,0,4.139,2.01,3.793,3.793,0,0,0,2.476-.453,4.273,4.273,0,0,0,1.624-1.89,5.684,5.684,0,0,0-.24-4.645,14.044,14.044,0,0,0-2.529-3.7l-.652.865c1.4.665,4.645,1.331,6.655-.945C292.485,160.42,286.748,155.322,285.63,154.47Z" transform="translate(-253.384 -125.538)" fill="#263238"/>
        <path id="Path_31539" data-name="Path 31539" d="M301.335,165.77,273.93,196.09s42.5,35.524,52.161,32.17,37.081-24.69,49.247-40.489-.652-17.3-10.382-13.15-36.908,17.09-38.359,17.3C323.8,192.15,301.335,165.77,301.335,165.77Z" transform="translate(-250.402 -121.798)" fill="#00a0ae"/>
        <path id="Path_31540" data-name="Path 31540" d="M280.166,196.914c1.012-1.051,1.89-2.276,2.822-3.394s1.9-2.236,2.875-3.341c1.863-2.13,3.74-4.259,5.59-6.389,3.767-4.339,7.454-8.771,11.433-12.911,0,0,.16,0,.12.093a151.251,151.251,0,0,1-10.768,13.376c-1.9,2.169-3.82,4.312-5.776,6.429-.985,1.078-1.983,2.143-3.021,3.181s-2.17,1.983-3.141,3.048C280.219,197.14,280.086,197.007,280.166,196.914Z" transform="translate(-248.346 -120.106)" fill="#263238"/>
        <path id="Path_31541" data-name="Path 31541" d="M359.626,186.03c-8.9,11.566-25.968,26.1-38.266,34.379l38.6-49.38C365.07,171.842,367.239,176.154,359.626,186.03Z" transform="translate(-234.703 -120.057)" opacity="0.1"/>
        <path id="Path_31542" data-name="Path 31542" d="M323.8,267.237c1.131,1.424,81.789,7.267,82.228,6.8,1.211-1.331-14.015-83.253-28.9-100.742-4.392-5.178-19.432-3.474-21.176-2.183-4.645,3.394-8.891,10.116-12.485,18.833C336.287,207.422,322.831,265.985,323.8,267.237Z" transform="translate(-233.911 -120.472)" fill="#fff"/>
        <path id="Path_31543" data-name="Path 31543" d="M363.126,170.54s-9.916,41.42-9.916,52.614c0,17.888,1.2,54.278,1.2,54.278H400.38s-9.65-39.743-10.648-44.4-9.7-32.6-9.7-32.6S371.218,170.54,363.126,170.54Z" transform="translate(-224.161 -120.219)" fill="#00a0ae"/>
        <path id="Path_31544" data-name="Path 31544" d="M356.794,170.54a204.044,204.044,0,0,0-11.673,31.771c-4.392,16.624-12.431,73.87-12.431,73.87l-11.26-8.239s15.4-59.788,20.218-72.246,11.167-23.425,11.646-23.732a9.771,9.771,0,0,1,3.5-1.424Z" transform="translate(-234.68 -120.219)" fill="#00a0ae"/>
        <path id="Path_31545" data-name="Path 31545" d="M351.488,179.28c-.626,7.2-1.331,14.388-2.156,21.575s-1.664,14.348-2.489,21.522-1.81,14.335-2.8,21.482L342.557,254.6c-.559,3.567-1.051,7.147-1.637,10.648.293-3.607.665-7.2,1.012-10.794l1.145-10.781c.772-7.174,1.664-14.348,2.489-21.522s1.81-14.335,2.8-21.482S350.343,186.427,351.488,179.28Z" transform="translate(-228.229 -117.326)" fill="#263238"/>
        <path id="Path_31546" data-name="Path 31546" d="M351.475,196.663a1.341,1.341,0,1,1-1.2-1.451,1.331,1.331,0,0,1,1.2,1.451Z" transform="translate(-225.621 -112.055)" fill="#263238"/>
        <path id="Path_31547" data-name="Path 31547" d="M349.989,207.052a1.331,1.331,0,1,1-.288-1,1.331,1.331,0,0,1,.288,1Z" transform="translate(-226.105 -108.629)" fill="#263238"/>
        <path id="Path_31548" data-name="Path 31548" d="M348.5,217.432a1.331,1.331,0,1,1-.288-1,1.331,1.331,0,0,1,.288,1Z" transform="translate(-226.598 -105.193)" fill="#263238"/>
        <path id="Path_31549" data-name="Path 31549" d="M347.014,227.808a1.338,1.338,0,1,1-1.191-1.471,1.338,1.338,0,0,1,1.191,1.471Z" transform="translate(-227.095 -101.753)" fill="#263238"/>
        <path id="Path_31550" data-name="Path 31550" d="M345.529,238.192a1.331,1.331,0,1,1-.288-1A1.331,1.331,0,0,1,345.529,238.192Z" transform="translate(-227.581 -98.322)" fill="#263238"/>
        <rect id="Rectangle_8714" data-name="Rectangle 8714" width="48.288" height="62.849" transform="translate(99.453 95.585) rotate(-6.69)" fill="#455a64"/>
        <rect id="Rectangle_8715" data-name="Rectangle 8715" width="22.88" height="6.934" transform="translate(111.87 90.898) rotate(-6.62)" fill="#a6a6a6"/>
        <path id="Path_31551" data-name="Path 31551" d="M356.77,200.91l-2.8.333-.373-3.181-6.8.785.373,3.181-2.808.319-.665-5.777,12.445-1.451Z" transform="translate(-227.309 -112.083)" fill="#a6a6a6"/>
        <path id="Path_31552" data-name="Path 31552" d="M372.75,177.2c25.289,24.61,55.329,71.607,45.174,79.367-9.317,7.094-43.284,11.353-57.672,11.566-4.219.067-3.993-32.836.479-32.9,5.457-.08,19.1-1.531,19.632-1.7,1.1-.373-11.194-36.642-16.145-47.916C358.056,171.653,363.9,168.512,372.75,177.2Z" transform="translate(-222.831 -119.615)" fill="#ad6359"/>
        <path id="Path_31553" data-name="Path 31553" d="M327.876,224.07a5.044,5.044,0,0,0,1.823,5.444,7.48,7.48,0,0,0-2.582,4.379c-.426,3.048,4.166,5.044,4.166,5.044a9.184,9.184,0,0,0-1.983,5.044c-.12,2.955,4.219,5.643,4.219,5.643a8.132,8.132,0,0,0,1.051,5.537c2.862,4.326,10.781,4.126,15.812,3.993s19.233-4.991,22.041-5.657l-.2-32.25s-22.627-6.1-28.563-5.164C338.67,216.869,329.127,220.343,327.876,224.07Z" transform="translate(-232.807 -105.176)" fill="#ad6359"/>
        <path id="Path_31554" data-name="Path 31554" d="M329.231,226.6c5.1-2.1,10.528-2.582,15.972-3.367a.093.093,0,1,1,0,.186c-5.324.719-10.528,2.5-15.865,3.434a.137.137,0,0,1-.106-.253Z" transform="translate(-232.126 -102.779)" fill="#263238"/>
        <path id="Path_31555" data-name="Path 31555" d="M330.36,233.211a14.347,14.347,0,0,1,3.7-.612c1.331-.12,2.662-.226,3.993-.306,2.662-.16,5.324-.266,7.986-.293a.094.094,0,1,1,0,.186q-3.993.24-7.986.652l-3.993.453a16.943,16.943,0,0,1-3.753.293.2.2,0,0,1,.053-.373Z" transform="translate(-231.777 -99.876)" fill="#263238"/>
        <path id="Path_31556" data-name="Path 31556" d="M332.007,241.5a9.784,9.784,0,0,1,3.354-.373l3.647-.173c2.422-.12,4.845-.253,7.254-.466a.093.093,0,0,1,0,.186c-2.449.226-4.9.492-7.36.692l-3.62.293a9.478,9.478,0,0,1-3.3,0S332.007,241.528,332.007,241.5Z" transform="translate(-231.188 -97.066)" fill="#263238"/>
        <path id="Path_31557" data-name="Path 31557" d="M347.217,266.654a.08.08,0,0,1,0-.12.107.107,0,0,1,.12,0l.2.492a.133.133,0,0,1,0,.133.093.093,0,0,1-.12-.067A1.679,1.679,0,0,1,347.217,266.654Z" transform="translate(-226.154 -88.452)" fill="#263238"/>
        <path id="Path_31558" data-name="Path 31558" d="M360.181,233.532l3.993,39.025s51.909-8.412,55.649-17.968c4.5-11.673-26.234-56.846-42.685-73.111s-20.444-9.676-14.215,5.856,15.479,44.016,15.32,44.695S360.181,233.532,360.181,233.532Z" transform="translate(-221.869 -119.723)" fill="#00a0ae"/>
        <path id="Path_31559" data-name="Path 31559" d="M369.5,253.817c-.093-1.451-.386-2.928-.586-4.366s-.346-2.915-.506-4.379c-.306-2.808-.6-5.63-.918-8.452-.639-5.7-1.411-11.407-1.757-17.143a.073.073,0,0,1,.146,0,149.9,149.9,0,0,1,2.582,17.01c.306,2.862.586,5.737.825,8.6.12,1.451.226,2.915.28,4.379s0,2.941.133,4.379C369.71,253.937,369.51,253.95,369.5,253.817Z" transform="translate(-220.017 -104.044)" fill="#263238"/>
        <path id="Path_31560" data-name="Path 31560" d="M404.093,222.847a71.235,71.235,0,0,0-9.889-3.554,11.177,11.177,0,0,1,1.624.16c1.211.16,2.409.346,3.607.6.08,0,.133-.12,0-.146a16.41,16.41,0,0,0-3.647-.812c-.612,0-1.225-.093-1.837-.106h-.759a59.643,59.643,0,0,0-19.9-1.823c-.133,0-.12.186,0,.2A91.213,91.213,0,0,1,404,222.914S404.146,222.874,404.093,222.847Z" transform="translate(-217.545 -104.845)" fill="#263238"/>
        <path id="Path_31561" data-name="Path 31561" d="M369.9,225.508c1.6-.226,3.181-.413,4.752-.705a9.426,9.426,0,0,0,1.131-.24.652.652,0,0,0,.213-.093s.067,0,0,0h0a.713.713,0,0,1,0-.106,4.618,4.618,0,0,0-.133-.546c-.213-.759-.466-1.517-.719-2.276l-3.115-8.984-2.981-9.131c-.958-3.048-1.917-6.1-2.782-9.2,1.251,2.955,2.4,5.949,3.514,8.958s2.143,6.029,3.194,9.051,2,6.083,2.848,9.184c.213.772.426,1.544.6,2.343a5.378,5.378,0,0,0,.106.612.466.466,0,0,1,0,.2.372.372,0,0,1,0,.213c-.106.16-.093.093-.146.146a1.875,1.875,0,0,1-.359.12,6.523,6.523,0,0,1-1.211.186C373.164,225.415,371.567,225.495,369.9,225.508Z" transform="translate(-219.838 -112.378)" fill="#263238"/>
        <path id="Path_31562" data-name="Path 31562" d="M366.11,197.27a10.075,10.075,0,0,1,2.955,4.166,8.667,8.667,0,0,1-1.77-1.863A9.09,9.09,0,0,1,366.11,197.27Z" transform="translate(-219.891 -111.372)" fill="#263238"/>
        <path id="Path_31563" data-name="Path 31563" d="M372.35,246.956c3.141-.878,6.309-1.6,9.477-2.329s6.349-1.4,9.543-2.036c-1.517.572-3.088,1.051-4.658,1.491s-3.155.839-4.738,1.2A90.908,90.908,0,0,1,372.35,246.956Z" transform="translate(-217.826 -96.371)" fill="#263238"/>
        <path id="Path_31564" data-name="Path 31564" d="M349.162,185.236c3.993,2.329,12.178-3.048,15.466-8.305.213-.359.532-15.147.705-18.115,0-.612-18.953,3.447-18.953,3.447a47.794,47.794,0,0,1,1.131,11.54,5.884,5.884,0,0,1-.2,1.225v.2C346.766,177.529,347.1,184.038,349.162,185.236Z" transform="translate(-226.422 -124.12)" fill="#ad6359"/>
        <path id="Path_31565" data-name="Path 31565" d="M347.275,175.218a13.6,13.6,0,0,0,1.917.213c9.823.359,14.042-11.446,15.439-16.651-3.461.306-18.261,3.461-18.261,3.461a47.688,47.688,0,0,1,1.145,11.566,5.748,5.748,0,0,1-.2,1.211A.807.807,0,0,0,347.275,175.218Z" transform="translate(-226.425 -124.111)" fill="#263238"/>
        <path id="Path_31566" data-name="Path 31566" d="M370.728,144.064c2.1,6.655-1.171,25.848-5.843,30.174-6.761,6.3-17.968,7.014-23.332-1.145-5.2-7.919-.492-32.9,4.738-36.842C353.984,130.422,367.613,134.295,370.728,144.064Z" transform="translate(-228.768 -132.475)" fill="#ad6359"/>
        <path id="Path_31567" data-name="Path 31567" d="M350.566,150.34s.093.08.08.133c-.253,1.331-.333,2.808.772,3.434h0C349.994,153.548,350.113,151.525,350.566,150.34Z" transform="translate(-225.137 -126.905)" fill="#263238"/>
        <path id="Path_31568" data-name="Path 31568" d="M351.928,149.471c2.1.186,1.571,4.392-.373,4.219S350.158,149.311,351.928,149.471Z" transform="translate(-225.115 -127.194)" fill="#263238"/>
        <path id="Path_31569" data-name="Path 31569" d="M345.073,149.39a.1.1,0,0,0-.106.106c-.133,1.331-.492,2.782-1.717,3.061v.08C344.714,152.611,345.167,150.654,345.073,149.39Z" transform="translate(-227.458 -127.219)" fill="#263238"/>
        <path id="Path_31570" data-name="Path 31570" d="M344.372,148.268c-2.076-.426-2.768,3.753-.852,4.153S346.1,148.614,344.372,148.268Z" transform="translate(-227.741 -127.601)" fill="#263238"/>
        <path id="Path_31571" data-name="Path 31571" d="M353.532,148.4c-.586-.093-1.118-.28-1.69-.426a2.875,2.875,0,0,1-1.637-.759.918.918,0,0,1,0-1.091,2.223,2.223,0,0,1,2.223-.439,3.221,3.221,0,0,1,2,1.238.958.958,0,0,1-.892,1.477Z" transform="translate(-225.215 -128.489)" fill="#263238"/>
        <path id="Path_31572" data-name="Path 31572" d="M343.019,146.954a15.148,15.148,0,0,0,1.744,0,2.821,2.821,0,0,0,1.784-.266.905.905,0,0,0,.266-1.065,2.223,2.223,0,0,0-2.01-1.038,3.208,3.208,0,0,0-2.263.626.945.945,0,0,0,.479,1.744Z" transform="translate(-227.839 -128.816)" fill="#263238"/>
        <path id="Path_31573" data-name="Path 31573" d="M350.456,159.344a2.023,2.023,0,0,1-1.2.626,3.434,3.434,0,0,1-1.331-.506h-.067a1.783,1.783,0,0,0,1.571.905,1.331,1.331,0,0,0,1.171-1.025S350.509,159.3,350.456,159.344Z" transform="translate(-225.932 -123.93)" fill="#263238"/>
        <path id="Path_31574" data-name="Path 31574" d="M351.014,159.965a4.485,4.485,0,0,1-3.208,1.6,5.975,5.975,0,0,1-1.61-.12,2.06,2.06,0,0,1-.306-.08l-.28-.08a.306.306,0,0,1-.213-.319h0a.472.472,0,0,1,0-.133h0v-.106c.106-1.012.386-2.529.386-2.529-.386.146-2.356.745-2.263.226a66.76,66.76,0,0,1,3.407-13.217c0-.133.266,0,.226.067-.6,4.166-1.943,8.212-2.662,12.392a7.426,7.426,0,0,1,2.17-.373c.146,0-.6,2.915-.612,3.367h0a6.256,6.256,0,0,0,4.778-.852C351.014,159.765,351.107,159.872,351.014,159.965Z" transform="translate(-227.369 -128.624)" fill="#263238"/>
        <path id="Path_31575" data-name="Path 31575" d="M346,157.5a5.324,5.324,0,0,0,1.983,1.81,2.4,2.4,0,0,0,1.437.213c1.065-.186,1.171-1.145,1.051-1.983a5.982,5.982,0,0,0-.373-1.331A6.788,6.788,0,0,1,346,157.5Z" transform="translate(-226.547 -124.962)" fill="#263238"/>
        <path id="Path_31576" data-name="Path 31576" d="M347.52,158.981a2.4,2.4,0,0,0,1.437.213c1.065-.186,1.171-1.145,1.051-1.983a2.476,2.476,0,0,0-2.489,1.77Z" transform="translate(-226.044 -124.632)" fill="#ff99ba"/>
        <path id="Path_31577" data-name="Path 31577" d="M369.082,162.65c-3.993-.639-3.647-3.554-3.993-7.187s-.16-11.154-4.312-13.749-7.547.492-10.754,0c-2.116-.333-2.356-2.516-4.073-2.862s-4.3,4.446-4.3,4.446c1.131-3.261,2.476-7.081,3.847-8.119,7.693-5.83,23.958-.626,27.1,9.157C373.793,148.075,370.612,155.822,369.082,162.65Z" transform="translate(-227.987 -132.733)" fill="#263238"/>
        <path id="Path_31578" data-name="Path 31578" d="M360.035,154.666s4.392-6.162,7.2-4.592-.532,10.528-3.847,11.739a3.381,3.381,0,0,1-4.5-1.85Z" transform="translate(-222.281 -127.078)" fill="#ad6359"/>
        <path id="Path_31579" data-name="Path 31579" d="M365.76,151.92s.067.067,0,.093a8.518,8.518,0,0,0-4.432,5.324,1.864,1.864,0,0,1,2.782-.479s0,.133-.067.12a2.05,2.05,0,0,0-2.276.705,9.473,9.473,0,0,0-1.1,1.837c-.106.2-.479.093-.4-.146h0C360.263,156.312,362.579,152.186,365.76,151.92Z" transform="translate(-221.83 -126.382)" fill="#263238"/>
        <path id="Path_31580" data-name="Path 31580" d="M348.186,170.058l3.354,10.861L365.715,168.7l3.341,4.565s-14.481,20.085-14.481,19.126l-3.58-9.423-6.775,5.79,1.824-15.8Z" transform="translate(-227.137 -120.828)" fill="#fff"/>
        <path id="Path_31581" data-name="Path 31581" d="M344.748,179.818c.4-2.662.705-5.217,1.225-7.786a.087.087,0,0,1,.173,0c.319,2.555-1.225,12.485-1.411,14.88h0c.28-.253,6.256-5.071,6.3-4.978.825,1.517,3.461,8.372,3.62,9,2.3-3.194,11.06-14.761,13.722-17.729.067-.093.2,0,.146.106-2.076,3.394-13.7,18.98-13.842,18.913a99.728,99.728,0,0,1-3.74-9.956c-1.038,1.078-7.121,6.562-7.107,6.176a84.475,84.475,0,0,1,.918-8.625Z" transform="translate(-227.266 -119.754)" fill="#263238"/>
      </g>
    </g>
  </g>
</svg>
