<svg id="_001-share" data-name="001-share" xmlns="http://www.w3.org/2000/svg" width="66.563" height="63.79" viewBox="0 0 66.563 63.79">
  <path id="Path_29549" data-name="Path 29549" d="M47.411,30.194H12.379A4.384,4.384,0,0,1,8,25.815V5.379A4.384,4.384,0,0,1,12.379,1H47.411A4.384,4.384,0,0,1,51.79,5.379V25.815A4.384,4.384,0,0,1,47.411,30.194ZM12.379,3.919a1.462,1.462,0,0,0-1.46,1.46V25.815a1.462,1.462,0,0,0,1.46,1.46H47.411a1.462,1.462,0,0,0,1.46-1.46V5.379a1.462,1.462,0,0,0-1.46-1.46Z" transform="translate(11.854 -1)" fill="#e27e28"/>
  <path id="Path_29550" data-name="Path 29550" d="M19.339,15.677a5.839,5.839,0,1,1,5.839-5.839A5.845,5.845,0,0,1,19.339,15.677Zm0-8.758a2.919,2.919,0,1,0,2.919,2.919A2.922,2.922,0,0,0,19.339,6.919Z" transform="translate(23.548 4.758)" fill="#e27e28"/>
  <path id="Path_29551" data-name="Path 29551" d="M14.379,8.419H11.46a1.46,1.46,0,0,1,0-2.919h2.919a1.46,1.46,0,1,1,0,2.919Z" transform="translate(17.602 6.951)" fill="#e27e28"/>
  <path id="Path_29552" data-name="Path 29552" d="M23.379,8.419H20.46a1.46,1.46,0,0,1,0-2.919h2.919a1.46,1.46,0,0,1,0,2.919Z" transform="translate(32.966 6.951)" fill="#e27e28"/>
  <path id="Path_29553" data-name="Path 29553" d="M10.218,41.194H1.46A1.46,1.46,0,0,1,0,39.734V13.46A1.46,1.46,0,0,1,1.46,12c9.929,0,15.175,3.346,15.394,3.489a1.465,1.465,0,0,1,.619,1.582L11.634,40.093a1.461,1.461,0,0,1-1.416,1.1Zm-7.3-2.919H9.082l5.281-20.815A29.288,29.288,0,0,0,2.919,14.946Z" transform="translate(0 16.757)" fill="#e27e28"/>
  <path id="Path_29554" data-name="Path 29554" d="M30.015,36.476c-6.491,0-19.041-5.792-25.947-9.249a1.5,1.5,0,0,1-.657-1.941,1.342,1.342,0,0,1,1.832-.7c5.391,2.7,18.593,8.968,24.773,8.968,6.689,0,22.457-8.341,26.992-10.819a5.807,5.807,0,0,0-4.989-2.318c-2.539,0-5.757,1.077-8.87,2.122-3.309,1.106-6.733,2.257-9.7,2.257-5.677,0-13.216-2.884-13.535-3.007A1.488,1.488,0,0,1,19.1,19.92a1.353,1.353,0,0,1,1.763-.873c.072.029,7.4,2.832,12.594,2.832,2.539,0,5.757-1.077,8.87-2.122,3.309-1.106,6.733-2.257,9.7-2.257a8.251,8.251,0,0,1,8.18,5.377,1.5,1.5,0,0,1-.657,1.752c-.855.479-21.029,11.847-29.525,11.847Z" transform="translate(6.294 27.314)" fill="#e27e28"/>
  <path id="Path_29555" data-name="Path 29555" d="M38.907,29.641c-.806,0-1.46.365-1.46-.44v-1.46a4.318,4.318,0,0,0-3.34-4.239L5.924,16.7c-.785-.19-.248-.978-.058-1.763s-.03-1.247.741-1.077l28.172,6.8a7.231,7.231,0,0,1,5.588,7.082V29.2C40.367,30.007,39.713,29.641,38.907,29.641Z" transform="translate(7.81 21.14)" fill="#e27e28"/>
</svg>
