<svg xmlns="http://www.w3.org/2000/svg" width="576" height="576" viewBox="0 0 576 576">
  <g id="Group_17263" data-name="Group 17263" transform="translate(-9101 -7714)">
    <g id="Rectangle_8751" data-name="Rectangle 8751" transform="translate(9101 7714)" fill="none" stroke="#707070" stroke-width="1" opacity="0">
      <rect width="576" height="576" stroke="none"/>
      <rect x="0.5" y="0.5" width="575" height="575" fill="none"/>
    </g>
    <g id="Select-cuate" transform="translate(9063.88 7678.698)">
      <g id="freepik--Shadow--inject-77" transform="translate(56.507 535.809)">
        <ellipse id="Ellipse_731" data-name="Ellipse 731" cx="268.702" cy="32.356" rx="268.702" ry="32.356" fill="#ebebeb"/>
      </g>
      <g id="freepik--Floor--inject-77" transform="translate(38.879 514.482)">
        <path id="Path_29820" data-name="Path 29820" d="M38.68,392.907l71.583-.325,71.583-.122,143.165-.23,143.165.23,71.583.122,71.583.325-71.583.339-71.583.108-143.165.23-143.165-.23-71.583-.122Z" transform="translate(-38.68 -392.23)" fill="#263238"/>
      </g>
      <g id="freepik--Device--inject-77" transform="translate(177.124 48.416)">
        <path id="Path_29821" data-name="Path 29821" d="M382.151,48.26H162.891a22.384,22.384,0,0,0-22.181,22.6V535.192a22.411,22.411,0,0,0,22.181,22.6h219.26a22.425,22.425,0,0,0,22.208-22.6V70.861A22.411,22.411,0,0,0,382.151,48.26Zm8.333,472.976c0,11.883-8.9,21.49-19.877,21.49H174.462c-11,0-19.9-9.607-19.9-21.49V87.974c0-24.213,8.9-25.392,19.9-25.392h39.294c2.276,0,4.146,2.6,4.146,5.813V69.75c0,7.534,4.065,7.561,9.187,7.561h90.864c5.108,0,9.214,0,9.214-7.561V68.395c0-3.211,1.843-5.813,4.16-5.813H370.62c10.975,0,19.877,3.225,19.877,25.392Z" transform="translate(-140.709 -48.26)" fill="#263238"/>
        <path id="Path_29822" data-name="Path 29822" d="M386.856,84.222V517.484c0,11.883-8.9,21.49-19.877,21.49H170.834c-11,0-19.9-9.607-19.9-21.49V84.222c0-24.213,8.9-25.392,19.9-25.392h39.294c2.276,0,4.146,2.6,4.146,5.813V66c0,7.534,4.065,7.561,9.187,7.561h90.864c5.108,0,9.214,0,9.214-7.561V64.643c0-3.211,1.843-5.813,4.16-5.813h39.294C377.954,58.83,386.856,62.055,386.856,84.222Z" transform="translate(-137.081 -44.508)" fill="#fff"/>
        <path id="Path_29823" data-name="Path 29823" d="M386.856,84.208V517.484c0,11.883-8.9,21.49-19.877,21.49H170.834c-11,0-19.9-9.607-19.9-21.49V84.208c0-24.2,8.9-25.378,19.9-25.378h39.294c2.276,0,4.146,2.6,4.146,5.813V66c0,7.547,4.065,7.574,9.187,7.574h90.864c5.108,0,9.214,0,9.214-7.574V64.643c0-3.211,1.843-5.813,4.16-5.813h39.294C377.954,58.83,386.856,62.055,386.856,84.208Z" transform="translate(-137.081 -44.508)" fill="#fff"/>
        <path id="Path_29824" data-name="Path 29824" d="M386.856,84.222v37.41H150.93V84.222c0-24.213,8.9-25.392,19.9-25.392h39.294c2.276,0,4.146,2.6,4.146,5.813V66c0,7.534,4.065,7.561,9.187,7.561h90.864c5.108,0,9.214,0,9.214-7.561V64.643c0-3.211,1.843-5.813,4.16-5.813h39.294C377.954,58.83,386.856,62.055,386.856,84.222Z" transform="translate(-137.081 -44.508)" fill="#00a0ae"/>
        <g id="freepik--u5Zjqx--inject-77" transform="translate(57.763 22.032)">
          <path id="Path_29825" data-name="Path 29825" d="M191.836,66.254c-.122.122-.257.244-.379.379l-.217.217a5.162,5.162,0,0,0-7.317,0l-.2-.217c-.122-.122-.257-.244-.379-.379h0l.488-.434a5.311,5.311,0,0,1,1.111-.7,5.663,5.663,0,0,1,1.463-.5l.745-.095h1.138a5.813,5.813,0,0,1,1.355.325,5.584,5.584,0,0,1,.908.434,5.664,5.664,0,0,1,.881.61l.393.352Z" transform="translate(-183.34 -64.52)" fill="#fff"/>
          <path id="Path_29826" data-name="Path 29826" d="M184.816,67.611l-.6-.6a4.228,4.228,0,0,1,2.439-1.233A4.3,4.3,0,0,1,190.331,67l-.61.6a3.482,3.482,0,0,0-4.9,0Z" transform="translate(-183.028 -64.088)" fill="#fff"/>
          <path id="Path_29827" data-name="Path 29827" d="M188.813,67.763l-.6.6a1.68,1.68,0,0,0-1.26-.515,1.761,1.761,0,0,0-1.26.515l-.6-.6a2.615,2.615,0,0,1,3.713,0Z" transform="translate(-182.715 -63.643)" fill="#fff"/>
          <path id="Path_29828" data-name="Path 29828" d="M187.154,68.542a.542.542,0,1,1-.542-.542A.542.542,0,0,1,187.154,68.542Z" transform="translate(-182.371 -63.285)" fill="#fff"/>
        </g>
        <path id="Path_29829" data-name="Path 29829" d="M162.29,67.065a1.572,1.572,0,1,1,1.558,1.558,1.572,1.572,0,0,1-1.558-1.558Z" transform="translate(-133.049 -42.148)" fill="#fff"/>
        <path id="Path_29830" data-name="Path 29830" d="M165.92,67.065a1.572,1.572,0,1,1,1.572,1.558,1.572,1.572,0,0,1-1.572-1.558Z" transform="translate(-131.76 -42.148)" fill="#fff"/>
        <path id="Path_29831" data-name="Path 29831" d="M169.56,67.065a1.572,1.572,0,1,1,1.558,1.558A1.572,1.572,0,0,1,169.56,67.065Z" transform="translate(-130.468 -42.148)" fill="#fff"/>
        <path id="Path_29832" data-name="Path 29832" d="M173.19,67.065a1.572,1.572,0,1,1,1.572,1.558,1.572,1.572,0,0,1-1.572-1.558Z" transform="translate(-129.18 -42.148)" fill="#fff"/>
        <path id="Path_29833" data-name="Path 29833" d="M176.83,67.065a1.558,1.558,0,1,1,.466,1.112,1.572,1.572,0,0,1-.466-1.112Z" transform="translate(-127.888 -42.148)" fill="#fff"/>
        <path id="Path_29834" data-name="Path 29834" d="M315.337,70.7H302.6V64.81h12.737Zm-12.073-.637h11.422V65.46H303.264Z" transform="translate(-83.244 -42.385)" fill="#fff"/>
        <rect id="Rectangle_8414" data-name="Rectangle 8414" width="8.211" height="3.889" transform="translate(220.413 23.427)" fill="#fff"/>
        <rect id="Rectangle_8415" data-name="Rectangle 8415" width="1.138" height="3.157" transform="translate(232.092 23.807)" fill="#fff"/>
        <path id="Path_29835" data-name="Path 29835" d="M168.638,98.382l-6.978-6.531,6.978-6.531,1.07,1.152-5.732,5.379,5.732,5.379Z" transform="translate(-133.272 -35.105)" fill="#fff"/>
        <path id="Path_29836" data-name="Path 29836" d="M309.47,85.32l6.978,6.531-6.978,6.531L308.4,97.23l5.732-5.379L308.4,86.472Z" transform="translate(-81.185 -35.105)" fill="#fff"/>
        <path id="Path_29837" data-name="Path 29837" d="M254.033,63.582H229.251a1.545,1.545,0,0,1-1.531-1.531h0a1.545,1.545,0,0,1,1.531-1.531h24.782a1.531,1.531,0,0,1,1.531,1.531h0A1.531,1.531,0,0,1,254.033,63.582Z" transform="translate(-109.824 -43.908)" fill="#fff"/>
        <rect id="Rectangle_8416" data-name="Rectangle 8416" width="203.922" height="51.258" transform="translate(29.864 95.782)" fill="#ebebeb"/>
        <path id="Path_29838" data-name="Path 29838" d="M189.412,160.482a17.94,17.94,0,1,1,12.707-5.235A17.926,17.926,0,0,1,189.412,160.482Zm0-33.346a15.433,15.433,0,1,0,15.419,15.419A15.433,15.433,0,0,0,189.412,127.137Z" transform="translate(-129.765 -21.152)" fill="#dbdbdb"/>
        <rect id="Rectangle_8417" data-name="Rectangle 8417" width="2.764" height="21.801" transform="translate(50.961 114.662) rotate(-45)" fill="#dbdbdb"/>
        <rect id="Rectangle_8418" data-name="Rectangle 8418" width="2.764" height="21.801" transform="translate(52.918 130.09) rotate(-135)" fill="#dbdbdb"/>
        <rect id="Rectangle_8419" data-name="Rectangle 8419" width="131.174" height="2.48" transform="translate(90.743 107.746)" fill="#dbdbdb"/>
        <rect id="Rectangle_8420" data-name="Rectangle 8420" width="131.174" height="2.48" transform="translate(90.743 117.651)" fill="#dbdbdb"/>
        <rect id="Rectangle_8421" data-name="Rectangle 8421" width="107.083" height="2.48" transform="translate(90.743 122.624)" fill="#dbdbdb"/>
        <rect id="Rectangle_8422" data-name="Rectangle 8422" width="71.068" height="2.48" transform="translate(90.743 127.61)" fill="#dbdbdb"/>
        <rect id="Rectangle_8423" data-name="Rectangle 8423" width="107.083" height="2.48" transform="translate(90.743 132.596)" fill="#dbdbdb"/>
        <rect id="Rectangle_8424" data-name="Rectangle 8424" width="203.922" height="51.258" transform="translate(29.864 227.254)" fill="#ebebeb"/>
        <path id="Path_29839" data-name="Path 29839" d="M189.4,257.5a17.926,17.926,0,1,1,12.706-5.227A17.913,17.913,0,0,1,189.4,257.5Zm0-33.346a15.433,15.433,0,1,0,15.419,15.433A15.433,15.433,0,0,0,189.4,224.15Z" transform="translate(-129.758 13.294)" fill="#dbdbdb"/>
        <rect id="Rectangle_8425" data-name="Rectangle 8425" width="2.764" height="21.801" transform="translate(50.963 246.135) rotate(-45)" fill="#dbdbdb"/>
        <rect id="Rectangle_8426" data-name="Rectangle 8426" width="2.764" height="21.801" transform="translate(52.919 261.56) rotate(-135)" fill="#dbdbdb"/>
        <rect id="Rectangle_8427" data-name="Rectangle 8427" width="131.174" height="2.48" transform="translate(90.743 239.205)" fill="#dbdbdb"/>
        <rect id="Rectangle_8428" data-name="Rectangle 8428" width="131.174" height="2.48" transform="translate(90.743 249.11)" fill="#dbdbdb"/>
        <rect id="Rectangle_8429" data-name="Rectangle 8429" width="107.083" height="2.48" transform="translate(90.743 254.096)" fill="#dbdbdb"/>
        <rect id="Rectangle_8430" data-name="Rectangle 8430" width="71.068" height="2.48" transform="translate(90.743 259.082)" fill="#dbdbdb"/>
        <rect id="Rectangle_8431" data-name="Rectangle 8431" width="107.083" height="2.48" transform="translate(90.743 264.068)" fill="#dbdbdb"/>
        <rect id="Rectangle_8432" data-name="Rectangle 8432" width="203.922" height="51.258" transform="translate(29.864 293.837)" fill="#ebebeb"/>
        <path id="Path_29840" data-name="Path 29840" d="M189.4,306.645A17.926,17.926,0,1,1,202.13,301.4,17.913,17.913,0,0,1,189.4,306.645Zm0-33.346a15.433,15.433,0,1,0,15.419,15.379A15.433,15.433,0,0,0,189.4,273.3Z" transform="translate(-129.758 30.74)" fill="#dbdbdb"/>
        <rect id="Rectangle_8433" data-name="Rectangle 8433" width="2.764" height="21.801" transform="translate(50.959 312.728) rotate(-45)" fill="#dbdbdb"/>
        <rect id="Rectangle_8434" data-name="Rectangle 8434" width="2.764" height="21.801" transform="translate(52.902 328.147) rotate(-135)" fill="#dbdbdb"/>
        <rect id="Rectangle_8435" data-name="Rectangle 8435" width="131.174" height="2.48" transform="translate(90.743 305.801)" fill="#dbdbdb"/>
        <rect id="Rectangle_8436" data-name="Rectangle 8436" width="131.174" height="2.48" transform="translate(90.743 315.706)" fill="#dbdbdb"/>
        <rect id="Rectangle_8437" data-name="Rectangle 8437" width="107.083" height="2.48" transform="translate(90.743 320.692)" fill="#dbdbdb"/>
        <rect id="Rectangle_8438" data-name="Rectangle 8438" width="71.068" height="2.48" transform="translate(90.743 325.665)" fill="#dbdbdb"/>
        <rect id="Rectangle_8439" data-name="Rectangle 8439" width="107.083" height="2.48" transform="translate(90.743 330.651)" fill="#dbdbdb"/>
        <rect id="Rectangle_8440" data-name="Rectangle 8440" width="203.922" height="51.258" transform="translate(29.864 360.42)" fill="#ebebeb"/>
        <path id="Path_29841" data-name="Path 29841" d="M189.4,355.785a17.926,17.926,0,1,1,12.706-5.227,17.912,17.912,0,0,1-12.706,5.227Zm0-33.346a15.433,15.433,0,1,0,15.419,15.433A15.433,15.433,0,0,0,189.4,322.44Z" transform="translate(-129.758 48.183)" fill="#dbdbdb"/>
        <rect id="Rectangle_8441" data-name="Rectangle 8441" width="2.764" height="21.801" transform="translate(50.969 379.294) rotate(-45)" fill="#dbdbdb"/>
        <rect id="Rectangle_8442" data-name="Rectangle 8442" width="2.764" height="21.801" transform="translate(52.925 394.746) rotate(-135)" fill="#dbdbdb"/>
        <rect id="Rectangle_8443" data-name="Rectangle 8443" width="131.174" height="2.48" transform="translate(90.743 372.384)" fill="#dbdbdb"/>
        <rect id="Rectangle_8444" data-name="Rectangle 8444" width="131.174" height="2.48" transform="translate(90.743 382.289)" fill="#dbdbdb"/>
        <rect id="Rectangle_8445" data-name="Rectangle 8445" width="107.083" height="2.48" transform="translate(90.743 387.275)" fill="#dbdbdb"/>
        <rect id="Rectangle_8446" data-name="Rectangle 8446" width="71.068" height="2.48" transform="translate(90.743 392.261)" fill="#dbdbdb"/>
        <rect id="Rectangle_8447" data-name="Rectangle 8447" width="107.083" height="2.48" transform="translate(90.743 397.234)" fill="#dbdbdb"/>
        <rect id="Rectangle_8448" data-name="Rectangle 8448" width="217.295" height="54.618" transform="translate(23.171 159.669)" fill="#00a0ae"/>
        <path id="Path_29842" data-name="Path 29842" d="M381.1,227.011H154.31V162.42H381.1Zm-225.438-1.355H379.748V163.775H155.665Z" transform="translate(-135.881 -7.738)" fill="#00a0ae"/>
        <path id="Path_29843" data-name="Path 29843" d="M181.229,198.712l-7.439-7.52,2.507-2.48,4.336,4.4,9.024-14.146,2.954,1.9Z" transform="translate(-128.967 -1.863)" fill="#fff"/>
        <path id="Path_29844" data-name="Path 29844" d="M186.231,210.343a19.091,19.091,0,1,1,19.091-19.091,19.091,19.091,0,0,1-19.091,19.091Zm0-35.527a16.449,16.449,0,1,0,16.449,16.436,16.449,16.449,0,0,0-16.449-16.436Z" transform="translate(-131.327 -4.28)" fill="#fff"/>
        <rect id="Rectangle_8449" data-name="Rectangle 8449" width="139.791" height="2.642" transform="translate(88.046 172.405)" fill="#fff"/>
        <rect id="Rectangle_8450" data-name="Rectangle 8450" width="139.791" height="2.642" transform="translate(88.046 182.96)" fill="#fff"/>
        <rect id="Rectangle_8451" data-name="Rectangle 8451" width="114.115" height="2.642" transform="translate(88.046 188.272)" fill="#fff"/>
        <rect id="Rectangle_8452" data-name="Rectangle 8452" width="75.729" height="2.642" transform="translate(88.046 193.583)" fill="#fff"/>
        <rect id="Rectangle_8453" data-name="Rectangle 8453" width="114.115" height="2.642" transform="translate(88.046 198.895)" fill="#fff"/>
        <path id="Path_29845" data-name="Path 29845" d="M228.341,391.577a3.36,3.36,0,1,1-3.347-3.347,3.36,3.36,0,0,1,3.347,3.347Z" transform="translate(-111.989 72.416)" fill="#dbdbdb"/>
        <circle id="Ellipse_732" data-name="Ellipse 732" cx="5.501" cy="5.501" r="5.501" transform="translate(126.324 458.492)" fill="#dbdbdb"/>
        <path id="Path_29846" data-name="Path 29846" d="M256.131,391.577a3.36,3.36,0,1,1-3.36-3.347,3.36,3.36,0,0,1,3.36,3.347Z" transform="translate(-102.125 72.416)" fill="#dbdbdb"/>
      </g>
      <g id="freepik--Character--inject-77" transform="translate(325.2 131.502)">
        <path id="Path_29847" data-name="Path 29847" d="M340.452,129.437l-.542.135a.325.325,0,0,1,.095-.163h0Z" transform="translate(-218.077 -102.541)" fill="#263238"/>
        <path id="Path_29848" data-name="Path 29848" d="M371.34,178h0" transform="translate(-206.92 -85.293)" fill="none" stroke="#ff98b9" stroke-linecap="round" stroke-linejoin="round"/>
        <path id="Path_29849" data-name="Path 29849" d="M371.34,178h0" transform="translate(-206.92 -85.293)" fill="none" stroke="#ff98b9" stroke-linecap="round" stroke-linejoin="round"/>
        <path id="Path_29850" data-name="Path 29850" d="M351.884,418.376h-.244V418.2Z" transform="translate(-213.913 -0.031)" fill="#f7a9a0"/>
        <path id="Path_29851" data-name="Path 29851" d="M368.587,168.406c7.059,35,30.216,91.3,32.519,99.264,1.938,6.775,42.668-5.908,39.863-9.837-3.591-5.027-39.5-68.249-56.746-91.04C369.969,147.987,365.267,151.957,368.587,168.406Z" transform="translate(-208.259 -93.707)" fill="#f7a9a0"/>
        <path id="Path_29852" data-name="Path 29852" d="M428.716,228.58c4.241,5.582,10.84,21.517,12.4,26.842s4.783,20.948.826,22.533-5.271-2.927-5.271-2.927.325,6.775-3.794,8.035-5.962-5.84-5.962-5.84-.163,7.032-4.363,7.954S417.7,278.7,417.7,278.7s.149,6.423-3.645,5.732c-4.553-.827-3.482-12.723-5.6-18.468-.488-1.355-11.639-25.744-11.639-25.744Z" transform="translate(-197.876 -67.339)" fill="#f7a9a0"/>
        <path id="Path_29853" data-name="Path 29853" d="M413.928,271.1c.772-8.74-.406-12.7-4.363-20.324-.081-.149.122-.3.217-.149,4.566,7.168,6.775,11.924,4.566,20.6C414.226,271.587,413.887,271.479,413.928,271.1Z" transform="translate(-193.358 -59.536)" fill="#263238"/>
        <path id="Path_29854" data-name="Path 29854" d="M420.733,270.431c0-9.146-1.233-13.455-4.783-21.8,0-.122.149-.217.2-.095,4.173,7.9,6.246,12.682,5.04,21.828C421.139,270.783,420.733,270.865,420.733,270.431Z" transform="translate(-191.085 -60.276)" fill="#263238"/>
        <path id="Path_29855" data-name="Path 29855" d="M428.245,267.888c-.637-8.861-1.789-13.645-6.287-21.3a.165.165,0,1,1,.271-.19c5.339,7.371,6.775,13.319,6.273,21.436C428.475,268.389,428.285,268.444,428.245,267.888Z" transform="translate(-188.963 -61.039)" fill="#263238"/>
        <path id="Path_29856" data-name="Path 29856" d="M392.11,235.672s.5,10.989,1.789,15.758,12.615,20.826,16.26,18.577c4.661-2.913,0-13.455-3.049-18.333,0,0,10.84-6.775,9.024-15.013S392.11,235.672,392.11,235.672Z" transform="translate(-199.548 -65.868)" fill="#f7a9a0"/>
        <path id="Path_29857" data-name="Path 29857" d="M407.357,267.731c2.331-5.718-2.005-11.842-4.539-16.788a.5.5,0,0,1,.352-.745c4.322-3.116,9.485-8.78,9.485-14.4a.135.135,0,0,1,.257,0c.921,6.016-3.74,11.991-8.7,15.108,2.71,5.013,6.775,11.368,3.252,16.883Z" transform="translate(-195.771 -64.811)" fill="#263238"/>
        <path id="Path_29858" data-name="Path 29858" d="M437.545,245.241S396.164,263.764,395.2,264.6c0,0-26.666-84.008-28.861-98.221s2.967-18.075,12.1-8.13C393.455,174.54,437.545,245.241,437.545,245.241Z" transform="translate(-208.873 -94.271)" fill="#dbdbdb"/>
        <path id="Path_29859" data-name="Path 29859" d="M370.862,172.713a1.436,1.436,0,1,1-1.436-1.436A1.436,1.436,0,0,1,370.862,172.713Zm16.111-1.436a1.436,1.436,0,1,0,1.436,1.436A1.436,1.436,0,0,0,386.973,171.276ZM378.22,158.77a1.488,1.488,0,1,1-.041,0Zm8.753,37.627a1.436,1.436,0,1,0,1.355,1.436A1.436,1.436,0,0,0,386.973,196.4Zm17.506,0a1.562,1.562,0,1,1-.041,0ZM378.22,183.891a1.488,1.488,0,1,1-.041,0Zm17.506,0a1.488,1.488,0,1,1-.041,0Zm-8.753,37.627a1.436,1.436,0,1,0,1.436,1.436A1.436,1.436,0,0,0,386.973,221.518Zm17.506,0a1.485,1.485,0,1,1-.041,0Zm17.506,0a1.485,1.485,0,1,1-.041,0ZM378.22,209.012h-.271c.271.908.542,1.829.826,2.71a1.436,1.436,0,0,0-.555-2.71Zm17.506,0a1.488,1.488,0,1,1-.041,0Zm17.506,0a1.488,1.488,0,1,1-.041,0Zm-8.753,37.627a1.436,1.436,0,1,0,1.436,1.436A1.436,1.436,0,0,0,404.479,246.639Zm17.506,0a1.436,1.436,0,1,0,1.436,1.436A1.436,1.436,0,0,0,421.985,246.639Zm-26.259-12.506a1.436,1.436,0,1,0,1.436,1.436,1.436,1.436,0,0,0-1.436-1.436Zm17.506,0a1.436,1.436,0,1,0,1.436,1.436,1.436,1.436,0,0,0-1.436-1.436Zm17.506,0a1.505,1.505,0,1,1-.041,0Zm-35.012,25.121a1.45,1.45,0,0,0-1.436,1.436,1.355,1.355,0,0,0,.976,1.355l1.816-.881a1.354,1.354,0,0,0,.081-.474,1.436,1.436,0,0,0-1.477-1.436Z" transform="translate(-208.109 -92.119)" fill="#fff"/>
        <path id="Path_29860" data-name="Path 29860" d="M366.331,166.4c2.195,14.241,28.874,98.221,28.874,98.221.718-.623,21.842-10.2,34.768-15.975L373.96,154.237C367.7,150.037,364.529,154.712,366.331,166.4Z" transform="translate(-208.876 -94.266)" fill="#c7c7c7"/>
        <path id="Path_29861" data-name="Path 29861" d="M420.278,215c.108,0,.2.108.108.163-5.42,3.089-30.365,14.308-33.793,15.392-.108,0-.176-.135-.081-.176C398.029,224.593,409.465,219.065,420.278,215Z" transform="translate(-201.551 -72.16)" fill="#263238"/>
        <path id="Path_29862" data-name="Path 29862" d="M371.334,157.9c0,1.355-4.756,11.206-10.84,12.073-1.992.285-4.065-10.528-4.065-10.528l-.325-.772-4.634-10.7L363,137.047l1.68-1.477s1.084,3.008,2.385,6.775a2.2,2.2,0,0,0,.176.528l.23.61.583,1.707c.149.434.3.867.434,1.355s.285.908.434,1.355A74.735,74.735,0,0,1,371.334,157.9Z" transform="translate(-213.973 -100.354)" fill="#f7a9a0"/>
        <path id="Path_29863" data-name="Path 29863" d="M367.086,142.345a23.387,23.387,0,0,1-10.962,16.327l-4.634-10.7,11.531-10.921,1.68-1.477S365.731,138.578,367.086,142.345Z" transform="translate(-213.966 -100.354)" fill="#263238"/>
        <path id="Path_29864" data-name="Path 29864" d="M337.622,140.605c.786,20.46,13.075,22.506,17.533,22.127,4-.352,17.615-1.206,18.97-21.679S365.7,114.522,356.51,114.4,336.8,120.146,337.622,140.605Z" transform="translate(-218.905 -107.869)" fill="#f7a9a0"/>
        <path id="Path_29865" data-name="Path 29865" d="M338.472,131.082a11.119,11.119,0,0,0,1.355-.447,2.208,2.208,0,0,0,1.287-.7.718.718,0,0,0-.095-.881,1.788,1.788,0,0,0-1.816-.23,2.709,2.709,0,0,0-1.558,1.111.786.786,0,0,0,.827,1.152Z" transform="translate(-218.915 -102.803)" fill="#263238"/>
        <path id="Path_29866" data-name="Path 29866" d="M348.763,130.478a10.111,10.111,0,0,1-1.355-.149,2.249,2.249,0,0,1-1.355-.42.718.718,0,0,1-.095-.881,1.8,1.8,0,0,1,1.721-.61,2.71,2.71,0,0,1,1.761.759.772.772,0,0,1-.677,1.3Z" transform="translate(-215.968 -102.904)" fill="#263238"/>
        <path id="Path_29867" data-name="Path 29867" d="M346.178,133.86a.119.119,0,0,1,.122.122c.081,1.355.393,2.967,1.694,3.32v.081C346.435,137.3,346.028,135.188,346.178,133.86Z" transform="translate(-215.862 -100.961)" fill="#263238"/>
        <path id="Path_29868" data-name="Path 29868" d="M347.3,132.715c2.222-.352,2.778,4.065.718,4.444S345.444,133.027,347.3,132.715Z" transform="translate(-215.86 -101.375)" fill="#263238"/>
        <path id="Path_29869" data-name="Path 29869" d="M347.729,132.924c.42.2.854.6,1.355.583s.908-.528,1.206-1.016h.081c.122.854-.095,1.761-1,2.005s-1.518-.461-1.829-1.287C347.444,133.086,347.553,132.842,347.729,132.924Z" transform="translate(-215.381 -101.447)" fill="#263238"/>
        <path id="Path_29870" data-name="Path 29870" d="M340.89,134s-.108.081-.095.135c.23,1.355.257,2.981-.935,3.6v.081C341.4,137.374,341.323,135.233,340.89,134Z" transform="translate(-218.094 -100.911)" fill="#263238"/>
        <path id="Path_29871" data-name="Path 29871" d="M339.965,133c-2.249.136-1.829,4.607.244,4.5S341.9,133,339.965,133Z" transform="translate(-218.592 -101.266)" fill="#263238"/>
        <path id="Path_29872" data-name="Path 29872" d="M339.525,133.317c-.339.271-.65.745-1.07.813s-.894-.379-1.247-.813h-.068a1.658,1.658,0,0,0,1.26,1.816c.84.095,1.247-.7,1.355-1.585C339.8,133.439,339.66,133.209,339.525,133.317Z" transform="translate(-219.06 -101.164)" fill="#263238"/>
        <path id="Path_29873" data-name="Path 29873" d="M347.847,141.748c-.271.379-.528.881-1.016,1a3.658,3.658,0,0,1-1.531-.095s-.081,0,0,.081a1.843,1.843,0,0,0,1.87.447,1.477,1.477,0,0,0,.881-1.355C348,141.707,347.887,141.694,347.847,141.748Z" transform="translate(-216.176 -98.172)" fill="#263238"/>
        <path id="Path_29874" data-name="Path 29874" d="M343.081,142.072a29.628,29.628,0,0,0,0,3.076c0,.081.244.108.583.081h0a4.674,4.674,0,0,0,4.309-2.236.108.108,0,0,0-.163-.122,7.018,7.018,0,0,1-4.065,1.694c-.095-.257.217-3.591,0-3.591a9.081,9.081,0,0,0-2.154.745c0-4.377.664-8.712.583-13.075a.135.135,0,0,0-.257,0,70.46,70.46,0,0,0-1.111,14.064C340.791,143.237,342.715,142.275,343.081,142.072Z" transform="translate(-217.765 -102.845)" fill="#263238"/>
        <path id="Path_29875" data-name="Path 29875" d="M343,140.744a5.69,5.69,0,0,0,2.29,1.789,2.534,2.534,0,0,0,1.558.095c1.125-.3,1.165-1.355.949-2.222a6.2,6.2,0,0,0-.5-1.355A7.344,7.344,0,0,1,343,140.744Z" transform="translate(-216.98 -99.119)" fill="#263238"/>
        <path id="Path_29876" data-name="Path 29876" d="M344.64,142.177a2.534,2.534,0,0,0,1.558.095c1.125-.3,1.165-1.355.948-2.222a2.71,2.71,0,0,0-2.507,2.127Z" transform="translate(-216.398 -98.764)" fill="#ff9bbc"/>
        <path id="Path_29877" data-name="Path 29877" d="M466.1,403.919c1.531,2.994,3.022,5.962,4.444,8.848q1.355,2.71,2.561,5.244c5.311,10.921,9.065,19.444,8.455,20.514-1.9,3.306-76.366,42.939-79.428,43.467s-4.742-8.2-3.076-12.032c1.016-2.344,9.485-13.55,15.894-22.032h0c4.16-5.42,7.493-9.7,7.493-9.7l-4.864-8.631L395.34,390.3l49.89-26.381S456.2,384.353,466.1,403.919Z" transform="translate(-198.401 -19.299)" fill="#f7a9a0"/>
        <path id="Path_29878" data-name="Path 29878" d="M401.328,468.442c3.062-.515,77.544-40.175,79.428-43.481.623-1.057-3.144-9.58-8.455-20.514-.366-.772-.759-1.558-1.152-2.358-9.566,5.759-42.424,33.711-58.48,39.294-5.745,2.005-.393-4.58-.393-4.58-6.124,8.035-13.1,17.438-14.024,19.552C396.585,460.231,398.266,468.944,401.328,468.442Z" transform="translate(-197.601 -5.75)" fill="#263238"/>
        <path id="Path_29879" data-name="Path 29879" d="M426.194,481.484c-.6-.3-35.527-75-44.321-102.8-11.422-36.123-25-105.145-28.088-118.966A202.985,202.985,0,0,1,340.94,210.14h66.867s17.533,33.549,8.5,57.247c-.759,2.181,13.4,76.7,19.864,90.254,5.6,11.734,46.489,93.248,47.586,93.817Z" transform="translate(-217.711 -73.885)" fill="#37474f"/>
        <path id="Path_29880" data-name="Path 29880" d="M451.489,380.24c-6.653,2.71-32.37,15.718-38.779,18.969l-5.244,2.71a39.51,39.51,0,0,0-5.176,2.9c-.095.068,0,.23.108.2a33.382,33.382,0,0,0,4.756-1.883c1.653-.718,3.293-1.463,4.919-2.222,3.279-1.49,36.083-18.306,39.5-20.514a.108.108,0,0,0-.081-.163Z" transform="translate(-195.948 -13.506)" fill="#263238"/>
        <path id="Path_29881" data-name="Path 29881" d="M426.1,454.579c-5.637-12.655-32.628-78.588-37.37-93.126s-8.658-29.091-12.384-43.792c-3.794-14.9-7.357-29.945-11-44.93-3.686-15.2-7.3-30.46-10.054-45.852-.352-1.951-.691-3.9-1.03-5.853,0-.136-.257-.108-.23,0,2.2,15.541,5.2,30.961,8.631,46.272s7.127,30.31,10.907,45.4c3.686,14.8,7.6,29.538,12.195,44.09s38.169,96.2,40.148,97.882C426.02,454.8,426.169,454.714,426.1,454.579Z" transform="translate(-213.065 -70.054)" fill="#263238"/>
        <path id="Path_29882" data-name="Path 29882" d="M340.93,210.146a203.584,203.584,0,0,0,12.859,49.592c2.331,10.447,10.677,52.478,19.539,87.978L407.8,210.132S340.93,210.105,340.93,210.146Z" transform="translate(-217.715 -73.891)" fill="#263238"/>
        <path id="Path_29883" data-name="Path 29883" d="M387.713,433.68c0,3.374-.122,6.694-.2,9.9,0,2.005-.122,3.957-.19,5.84-.406,12.127-1.07,21.422-2.114,22.086-3.211,2.032-87.585,2.276-90.539,1.355s-.352-9.485,2.913-12.086c1.978-1.585,14.688-7.588,24.389-12.046h0c6.206-2.845,11.151-5.081,11.151-5.081l-.271-9.9L332.16,388.6h55.73S388.106,411.81,387.713,433.68Z" transform="translate(-234.594 -10.538)" fill="#f7a9a0"/>
        <path id="Path_29884" data-name="Path 29884" d="M388.442,269.962s-5.718,54.2-8.387,81.542c-.677,6.775-1.138,11.937-1.355,14.146,0,.867-.108,15.04-.135,33.576,0,16.26,4.065,91.514,4.065,91.514H319.38s2.71-117.028,3.658-130.239c.122-1.531.217-3.116.325-4.729,2.493-37.4,3.862-91.839,22.208-145.631h69.984s1.721,31.164-12.655,54.009C402.873,264.149,392.616,267.617,388.442,269.962Z" transform="translate(-225.364 -73.885)" fill="#37474f"/>
        <path id="Path_29885" data-name="Path 29885" d="M377.01,407.191c-7.181-.447-35.974,0-43.169.095l-5.894.135a39.429,39.429,0,0,0-5.935.339c-.122,0-.108.217,0,.23a33.529,33.529,0,0,0,5.095.393q2.71.108,5.42.163c3.591.081,40.446-.664,44.483-1.152C377.146,407.367,377.146,407.191,377.01,407.191Z" transform="translate(-224.46 -4.008)" fill="#263238"/>
        <path id="Path_29886" data-name="Path 29886" d="M351.375,215.793a461.8,461.8,0,0,0-11.6,48.142c-2.981,16.138-5.312,32.4-7.087,48.711-1.8,16.544-3.049,33.142-3.889,49.754s-1.206,33.169-1.233,49.768-.23,57.654-.108,59.727a.109.109,0,0,0,.217,0c.095-16.5,1.26-36.76,1.287-53.263s.339-33.2,1.016-49.781,1.734-32.926,3.347-49.321,3.794-33.02,6.653-49.388,6.219-32.289,10.135-48.237c.5-2.019,1.016-4.065,1.545-6.043a.149.149,0,0,0-.285-.068Z" transform="translate(-222.51 -71.909)" fill="#263238"/>
        <path id="Path_29887" data-name="Path 29887" d="M397.793,247.718a13.821,13.821,0,0,1-6.626,3.442c-2.629.678-5.325,1.084-7.981,1.585a117,117,0,0,1-17.9,2.317,36.761,36.761,0,0,1-10.189-.8.108.108,0,0,0,0,.2,44.35,44.35,0,0,0,9.01,1.856,45.369,45.369,0,0,0,9.3-.257c3.13-.379,6.246-.989,9.336-1.639a68.944,68.944,0,0,0,8.252-2.141,15.148,15.148,0,0,0,6.978-4.431C398.01,247.759,397.875,247.624,397.793,247.718Z" transform="translate(-212.71 -60.557)" fill="#263238"/>
        <path id="Path_29888" data-name="Path 29888" d="M294.677,458.3c2.967.962,87.314.718,90.538-1.355,1.043-.65,1.707-9.945,2.114-22.072,0-1.734.122-3.509.163-5.339-10.379,1.247-55.039,11.016-74.171,11.016-4.648,0,2.71-3.171,1.829-3.252-8.008,3.767-16.016,7.656-17.614,8.889C294.325,448.825,291.737,457.266,294.677,458.3Z" transform="translate(-234.589 3.99)" fill="#263238"/>
        <path id="Path_29889" data-name="Path 29889" d="M340.669,211.664l-5.8,31.164s68.818.962,84.983-.176c0,0-16.9-65.824-34.28-84.7-8.685-9.485-18.969-8.74-25.406-2.141-1.64,1.68-21.286,27.628-23.346,37.546C335.046,202.044,340.669,211.664,340.669,211.664Z" transform="translate(-219.866 -94.934)" fill="#dbdbdb"/>
        <path id="Path_29890" data-name="Path 29890" d="M347.308,172.713a1.45,1.45,0,0,1-1.436,1.436,1.355,1.355,0,0,1-.921-.352c.5-.8,1.016-1.585,1.531-2.385A1.436,1.436,0,0,1,347.308,172.713Zm16.07-1.436a1.423,1.423,0,1,0,1.02.417A1.436,1.436,0,0,0,363.378,171.276Zm17.506,0a1.436,1.436,0,1,0,1.436,1.436,1.436,1.436,0,0,0-1.436-1.436Zm-25.649-12.371-1.667,2.276a1.436,1.436,0,1,0,1.667-2.276Zm16.9-.136a1.423,1.423,0,1,0,1.02.417,1.436,1.436,0,0,0-1.02-.417Zm16.463.461a1.355,1.355,0,0,0-.393.976,1.45,1.45,0,0,0,1.436,1.436,1.355,1.355,0,0,0,.515-.095C389.637,160.748,389.109,159.962,388.594,159.231ZM345.872,196.4a1.436,1.436,0,1,0,1.436,1.436A1.436,1.436,0,0,0,345.872,196.4Zm17.506,0a1.423,1.423,0,1,0,1.02.417,1.436,1.436,0,0,0-1.02-.417Zm17.506,0a1.436,1.436,0,1,0,1.436,1.436,1.436,1.436,0,0,0-1.436-1.436Zm17.506,0a1.378,1.378,0,1,0,.041,0Zm-59.862-11.355c-.244.515-.474,1.03-.678,1.518a1.463,1.463,0,0,0,.7-1.233,1.852,1.852,0,0,0-.027-.284Zm16.1-1.152a1.436,1.436,0,1,0,1.436,1.436A1.436,1.436,0,0,0,354.625,183.891Zm17.506,0a1.423,1.423,0,1,0,1.02.417,1.436,1.436,0,0,0-1.02-.417Zm17.506,0a1.436,1.436,0,1,0,1.436,1.436,1.436,1.436,0,0,0-1.436-1.436Zm-43.765,37.627a1.423,1.423,0,1,0,1.02.417,1.436,1.436,0,0,0-1.02-.417Zm17.506,0a1.423,1.423,0,1,0,1.02.417,1.436,1.436,0,0,0-1.02-.417Zm17.506,0a1.436,1.436,0,1,0,1.436,1.436,1.436,1.436,0,0,0-1.436-1.436Zm17.506,0a1.418,1.418,0,1,0,.04,0Zm16.26.786a1.407,1.407,0,0,0,.556,1.883Zm-60-13.292a1.477,1.477,0,1,1-.027,0Zm17.506,0a1.477,1.477,0,1,1-.027,0Zm17.506,0a1.466,1.466,0,1,1-.027,0Zm17.506,0a1.466,1.466,0,1,1-.027,0Zm-70.024,25.121a1.463,1.463,0,1,1-.027,0Zm17.506,0a1.466,1.466,0,1,1-.027,0Zm17.506,0a1.463,1.463,0,1,1-.027,0Zm17.506,0a1.436,1.436,0,1,0,1.436,1.436,1.436,1.436,0,0,0-1.436-1.436Zm17.506,0a1.436,1.436,0,1,0,1.436,1.436,1.436,1.436,0,0,0-1.436-1.436Z" transform="translate(-219.567 -92.119)" fill="#fff"/>
        <path id="Path_29891" data-name="Path 29891" d="M381.774,171.523c1.653,3.631,3.225,7.276,4.756,10.962-.244-1.111-.515-2.222-.827-3.306,0-.163.2-.217.257,0a22.879,22.879,0,0,1,1.233,5,326.079,326.079,0,0,1,12.479,36.584c.65,2.344,1.355,4.7,1.843,7.073s1.355,4.919,1.626,7.425a.108.108,0,1,1-.217,0c-.8-2.073-1.355-4.3-1.951-6.436s-1.206-4.065-1.829-6.179c-1.26-4.2-2.52-8.4-3.835-12.588-2.6-8.279-5.42-16.449-8.387-24.62-1.667-4.675-3.509-9.281-5.312-13.9C381.571,171.5,381.734,171.428,381.774,171.523Z" transform="translate(-203.276 -87.609)" fill="#263238"/>
        <path id="Path_29892" data-name="Path 29892" d="M383.423,167.171c-4.228,9.363-26.5,47.017-38.63,51.082-18.969,6.382-42.288,2.317-54.578,1.192-6.856-.637-.081-41.882,7.249-39.443,10.04,3.333,34.457,6.49,38.074,6.382s21.11-17.8,34.511-28.278C382.474,148.4,390.415,151.67,383.423,167.171Z" transform="translate(-236.726 -94.301)" fill="#f7a9a0"/>
        <path id="Path_29893" data-name="Path 29893" d="M250,172.125c-.5,6,20.487,6.843,20.487,6.843a8.293,8.293,0,0,0-3.862,4.133c-1.206,3.211,3.306,6.5,3.306,6.5a10.311,10.311,0,0,0-3.374,5.013c-.84,3.2,3.238,7.154,3.238,7.154a9.051,9.051,0,0,0-.19,6.287c2.06,5.42,10.731,7.1,16.26,8.225s21.828-.23,25.893-1.057l7.642-37.058a102.015,102.015,0,0,0-30.46-10.46C283.429,166.8,250.639,165.337,250,172.125Z" transform="translate(-249.993 -89.228)" fill="#f7a9a0"/>
        <path id="Path_29894" data-name="Path 29894" d="M265.46,175.568c6.043-1.057,12.086-.271,18.143.176a.108.108,0,1,1,0,.2c-6.03-.5-12.073.19-18.116-.095A.144.144,0,0,1,265.46,175.568Z" transform="translate(-244.544 -86.343)" fill="#263238"/>
        <path id="Path_29895" data-name="Path 29895" d="M264.949,183.353a15.514,15.514,0,0,1,4.187.23c1.463.176,2.94.379,4.4.61,2.927.474,5.853.989,8.753,1.612.136,0,.122.23,0,.2-2.927-.447-5.853-.867-8.794-1.192-1.477-.163-2.94-.325-4.417-.461a19.373,19.373,0,0,1-4.146-.6.217.217,0,0,1,.014-.406Z" transform="translate(-244.738 -83.411)" fill="#263238"/>
        <path id="Path_29896" data-name="Path 29896" d="M264.74,192.667a10.7,10.7,0,0,1,3.753.407l4.065.691c2.71.447,5.339.881,8.021,1.233.122,0,.108.23,0,.217-2.71-.352-5.42-.65-8.13-1.016l-4.065-.569a10.161,10.161,0,0,1-3.591-.84Z" transform="translate(-244.759 -80.096)" fill="#263238"/>
        <path id="Path_29897" data-name="Path 29897" d="M302.8,181.35l-3.293,45.093s38.345-2.6,44.416-6.992c7.236-5.23,31.869-39.524,37.6-53.372s-1.911-18.509-13.888-9.485-33.278,26.788-34.944,27.628S302.8,181.35,302.8,181.35Z" transform="translate(-232.417 -94.538)" fill="#dbdbdb"/>
        <path id="Path_29898" data-name="Path 29898" d="M358.784,172.713a1.436,1.436,0,1,1-1.436-1.436A1.436,1.436,0,0,1,358.784,172.713Zm16.07-1.436a1.436,1.436,0,0,0-.176,2.859l1.355-2.29A1.355,1.355,0,0,0,374.854,171.276ZM366.1,158.77a1.436,1.436,0,1,0,1.436,1.436,1.436,1.436,0,0,0-1.436-1.436ZM304.83,196.4a1.436,1.436,0,1,0,1.436,1.436,1.436,1.436,0,0,0-1.436-1.436Zm17.506,0a1.436,1.436,0,1,0,1.436,1.436,1.436,1.436,0,0,0-1.436-1.436Zm17.506,0a1.436,1.436,0,1,0,1.436,1.436,1.436,1.436,0,0,0-1.436-1.436Zm17.506,0a1.436,1.436,0,1,0,1.436,1.436,1.436,1.436,0,0,0-1.436-1.436Zm-43.765-12.506a1.436,1.436,0,1,0,1.436,1.436A1.436,1.436,0,0,0,313.583,183.891Zm17.506,0a1.436,1.436,0,1,0,1.436,1.436A1.436,1.436,0,0,0,331.089,183.891Zm17.506,0a1.436,1.436,0,1,0,1.436,1.436A1.436,1.436,0,0,0,348.6,183.891Zm17.506,0a1.436,1.436,0,1,0,1.436,1.436A1.436,1.436,0,0,0,366.1,183.891ZM304.83,221.518a1.436,1.436,0,0,0-1.45,1.436,1.356,1.356,0,0,0,.163.65l2.71-.217a1.532,1.532,0,0,0,.068-.434,1.436,1.436,0,0,0-1.491-1.436Zm17.506,0a1.355,1.355,0,0,0-.772.23l1.219-.149a1.193,1.193,0,0,0-.447-.081Zm-8.753-12.506a1.423,1.423,0,1,0,1.02.417,1.436,1.436,0,0,0-1.02-.417Zm17.506,0a1.423,1.423,0,1,0,1.02.417,1.436,1.436,0,0,0-1.02-.417Zm17.506,0a1.436,1.436,0,0,0-.691,2.71c.583-.664,1.192-1.355,1.829-2.127a1.355,1.355,0,0,0-1.138-.583Z" transform="translate(-231.043 -92.119)" fill="#fff"/>
        <path id="Path_29899" data-name="Path 29899" d="M338.716,203.889c.406-.6,16.26-22.262,20.013-28.359,1.192-1.978,2.439-4.065,3.645-5.908a.123.123,0,0,1,.2.136c-.556,1.219-1.016,2.263-1.612,3.333-.3.515-.583,1.03-.881,1.531.677-.7,1.355-1.355,2.114-2.019a.082.082,0,0,1,.122.108c-.65.8-1.287,1.6-2.005,2.344q-.488.515-1.016.976h0l-.081.163a214.687,214.687,0,0,1-20.324,27.777C338.784,204.105,338.635,204.024,338.716,203.889Z" transform="translate(-218.509 -88.283)" fill="#263238"/>
        <path id="Path_29900" data-name="Path 29900" d="M309.415,176.924a.1.1,0,0,1,.19,0c.163,6.233-1.707,33.522-2.371,37.058,0,.108-.2.095-.2,0C307.4,201.124,307.979,188.428,309.415,176.924Z" transform="translate(-229.748 -85.708)" fill="#263238"/>
        <path id="Path_29901" data-name="Path 29901" d="M349.408,113.781c-1.355.772-10.84,1.639-12.439,9.3-1.219,5.813,2.629,8.943,8.062,9.39,6,.488,12.588-3.333,12.588-3.333,1.355,5.921,2.994,13.55,5.23,14.4,1.816.718,3.929-1.856,3.929-1.856,2.236,4.62,2.994,15.067,2.452,17.316-1.26,5.3-5.42,13.089,1.436,18.712,1.5,1.233,7.33,3.265,13.021.434s6-7.6,8.049-9.552,8.807-2.71,10.392-6.775.434-8.4,1.1-10.393,3.374-2.8,3.564-6.883-3.916-4.986-5.555-7.8c-1.152-1.965,0-4.62-2.629-7.29-3.55-3.672-8.536-.6-12.384-4.282-3.008-2.886-11.178-14.227-21.9-15.46a21.137,21.137,0,0,0-14.918,4.078Z" transform="translate(-219.201 -109.58)" fill="#263238"/>
        <path id="Path_29902" data-name="Path 29902" d="M364.25,112.7a75.31,75.31,0,0,1,7.3,6.612c1.206,1.1,2.358,2.249,3.645,3.238a9.728,9.728,0,0,0,1.978,1.26,1.639,1.639,0,0,0,.5.19,2.072,2.072,0,0,0,.542.081h1.247a48.128,48.128,0,0,1,5.217.081,8.129,8.129,0,0,1,4.851,1.87,4.891,4.891,0,0,1,1.355,2.209,6.773,6.773,0,0,1,.108,2.6,10.841,10.841,0,0,0,.081,4.973,9.891,9.891,0,0,1-.623-4.959,6.194,6.194,0,0,0-.23-2.371,4.187,4.187,0,0,0-1.355-1.8,8.13,8.13,0,0,0-4.431-1.545c-1.653-.136-3.374,0-5.122,0h-1.355a3.441,3.441,0,0,1-1.355-.379,10.122,10.122,0,0,1-2.154-1.436,37.376,37.376,0,0,1-3.6-3.414l-3.306-3.631A38.05,38.05,0,0,0,364.25,112.7Z" transform="translate(-209.437 -108.472)" fill="#263238"/>
        <path id="Path_29903" data-name="Path 29903" d="M390.006,139.24a8.575,8.575,0,0,0,.23,3.414c.19,1.152.393,2.3.528,3.469a16.557,16.557,0,0,1,.108,3.577,7.641,7.641,0,0,1-1.084,3.523,9.742,9.742,0,0,1-6.3,3.415c-1.165.23-2.317.393-3.428.65a7.073,7.073,0,0,0-3.171,1.274,6.882,6.882,0,0,1,3.035-1.775c1.125-.352,2.263-.61,3.374-.921,2.168-.61,4.417-1.463,5.623-3.211a6.977,6.977,0,0,0,.976-3.062,21.81,21.81,0,0,0,.081-3.4c0-1.152-.149-2.3-.244-3.469v-1.761A3.265,3.265,0,0,1,390.006,139.24Z" transform="translate(-204.95 -99.051)" fill="#263238"/>
        <path id="Path_29904" data-name="Path 29904" d="M357.645,122.84a18.307,18.307,0,0,1-3.753,2.9,17.9,17.9,0,0,1-4.282,1.856,18.451,18.451,0,0,1-2.276.515l-1.165.163-1.179.068a23.031,23.031,0,0,1-2.371,0c-.786,0-1.585-.136-2.4-.163.772.244,1.558.461,2.344.637A16.253,16.253,0,0,0,345,129.1a14.9,14.9,0,0,0,4.878-.583,14.621,14.621,0,0,0,4.431-2.154,12.194,12.194,0,0,0,3.333-3.523Z" transform="translate(-217.967 -104.873)" fill="#263238"/>
        <path id="Path_29905" data-name="Path 29905" d="M352.769,122a25.283,25.283,0,0,0-.42,9.485,13.683,13.683,0,0,0,1.463,4.593,5.961,5.961,0,0,0,3.591,3.076,6.883,6.883,0,0,1-2.913-3.415,17.476,17.476,0,0,1-1.179-4.4,66.265,66.265,0,0,1-.542-9.336Z" transform="translate(-213.755 -105.171)" fill="#263238"/>
        <path id="Path_29906" data-name="Path 29906" d="M357.68,136.078s3.672-6.87,6.775-5.65.854,10.84-2.371,12.506a3.455,3.455,0,0,1-4.824-1.355Z" transform="translate(-211.918 -102.231)" fill="#f7a9a0"/>
        <path id="Path_29907" data-name="Path 29907" d="M363.234,132.41s.081.068,0,.095c-2.263,1.247-3.238,3.591-3.835,5.975a1.924,1.924,0,0,1,2.71-.867c.068,0,0,.149,0,.135a2.141,2.141,0,0,0-2.236,1.03,10.725,10.725,0,0,0-.881,2.019c-.081.217-.488.149-.434-.095v-.068C358.234,137.627,360.064,133.115,363.234,132.41Z" transform="translate(-211.47 -101.476)" fill="#263238"/>
      </g>
      <g id="freepik--Cursor--inject-77" transform="translate(300.251 229.629)">
        <path id="Path_29908" data-name="Path 29908" d="M262.262,224.494l5.3,12.8-5.3,2.2-5.325-12.9-8.767,6.8V197.3l25.27,25.527Z" transform="translate(-225.691 -176.569)" fill="#263238"/>
        <path id="Path_29909" data-name="Path 29909" d="M250.178,193.219a21.572,21.572,0,0,1-.677-5.623,20.565,20.565,0,0,1,.677-5.6,20.568,20.568,0,0,1,.677,5.637A21.573,21.573,0,0,1,250.178,193.219Z" transform="translate(-225.22 -182)" fill="#263238"/>
        <path id="Path_29910" data-name="Path 29910" d="M244.934,195.324a20.921,20.921,0,0,1-4.458-3.5,20.5,20.5,0,0,1-3.5-4.458,23.916,23.916,0,0,1,7.954,7.954Z" transform="translate(-229.663 -180.094)" fill="#263238"/>
        <path id="Path_29911" data-name="Path 29911" d="M242.826,200.568a23.671,23.671,0,0,1-11.246,0A23.67,23.67,0,0,1,242.826,200.568Z" transform="translate(-231.58 -175.65)" fill="#263238"/>
        <path id="Path_29912" data-name="Path 29912" d="M244.934,207.55a23.915,23.915,0,0,1-7.954,7.954,20.5,20.5,0,0,1,3.5-4.458A20.919,20.919,0,0,1,244.934,207.55Z" transform="translate(-229.663 -172.931)" fill="#263238"/>
        <path id="Path_29913" data-name="Path 29913" d="M260.12,200.567a23.672,23.672,0,0,1,11.246,0A23.671,23.671,0,0,1,260.12,200.567Z" transform="translate(-221.449 -175.65)" fill="#263238"/>
        <path id="Path_29914" data-name="Path 29914" d="M257.15,195.324a20.975,20.975,0,0,1,3.509-4.458,20.591,20.591,0,0,1,4.458-3.5,23.793,23.793,0,0,1-7.967,7.954Z" transform="translate(-222.504 -180.094)" fill="#263238"/>
      </g>
      <g id="freepik--Plant--inject-77" transform="translate(46.026 367.952)">
        <path id="Path_29915" data-name="Path 29915" d="M92.33,360.236c8.6-17.682,23.658-26.76,40.649-21.747s19.606,28.671,6.937,34.646-25.338-11.463-32.018-15.054S92.33,360.236,92.33,360.236Z" transform="translate(-26.783 -265.262)" fill="#00a0ae"/>
        <path id="Path_29916" data-name="Path 29916" d="M86.206,406.176c0-2.127.122-4.268.19-6.4.163-4.255.3-8.509.461-12.764.285-7.791,1.125-15.433,4.349-22.6a35,35,0,0,1,13.712-15.731,28.452,28.452,0,0,1,7.181-3.1,16.842,16.842,0,0,1,8.374-4.593,34.212,34.212,0,0,1,11.924-.3c.149,0,.149.244,0,.217a28.591,28.591,0,0,0-11.287.813,24.723,24.723,0,0,0-4.553,1.761,21.121,21.121,0,0,0-2.629,1.68,24.388,24.388,0,0,1,10.365.095,22.912,22.912,0,0,1,3.6,1.193,9.968,9.968,0,0,1,2.818-.244,16.775,16.775,0,0,1,3.672.515,27.845,27.845,0,0,1,6.978,3.049.122.122,0,0,1-.108.2,26.07,26.07,0,0,0-6.775-2.574,23.392,23.392,0,0,0-3.5-.515,18.744,18.744,0,0,0-1.951,0,22.6,22.6,0,0,1,10.975,10.935c0,.135-.149.244-.2.108a20.636,20.636,0,0,0-13.983-11.205c-.366-.095-.759-.149-1.138-.217a14.9,14.9,0,0,1,.19,1.707c.108.867.257,1.721.434,2.574a42.857,42.857,0,0,0,1.355,5.176,40.109,40.109,0,0,0,2.046,5.013,24.1,24.1,0,0,0,2.873,4.837.111.111,0,1,1-.176.135c-1.016-1.6-2.209-3.062-3.144-4.729a36.284,36.284,0,0,1-2.3-4.932,34.647,34.647,0,0,1-1.5-5.3c-.19-.962-.339-1.91-.447-2.886a6.3,6.3,0,0,1-.108-1.748,23.031,23.031,0,0,0-6.03-.122c.759,4.214,1.572,8.618,3.929,12.276.081.122-.122.23-.19.108a50.466,50.466,0,0,1-2.927-6.03,23.306,23.306,0,0,1-1.45-6.287,27.926,27.926,0,0,0-9.959,3.333,32.979,32.979,0,0,0-13.265,14.512,54.849,54.849,0,0,0-4.919,20.8c-.556,9.038-.677,18.129-1.585,27.1,0,.6-.989.786-1.1.122A31.057,31.057,0,0,1,86.206,406.176Z" transform="translate(-28.979 -264.131)" fill="#263238"/>
        <path id="Path_29917" data-name="Path 29917" d="M100.867,346.942a9.894,9.894,0,0,1,1.951-1.8c.7-.583,1.436-1.152,2.181-1.667a16.409,16.409,0,0,1,4.891-2.263c.135,0,.2.19,0,.217a13.061,13.061,0,0,0-4.824,2.371c-.718.528-1.355,1.1-2.087,1.68a12.2,12.2,0,0,1-1.924,1.68A.149.149,0,0,1,100.867,346.942Z" transform="translate(-23.763 -263.81)" fill="#263238"/>
        <path id="Path_29918" data-name="Path 29918" d="M121.178,350.18a51.4,51.4,0,0,1,3.9,5.189,31.165,31.165,0,0,1,2.927,5.813s0,.095-.095,0a68.979,68.979,0,0,0-6.951-10.921C120.934,350.221,121.1,350.072,121.178,350.18Z" transform="translate(-16.622 -260.64)" fill="#263238"/>
        <path id="Path_29919" data-name="Path 29919" d="M107.511,348.9a13.036,13.036,0,0,0,.976,3.2,21.687,21.687,0,0,0,1.639,2.832c0,.068,0,.122-.095.081a11.544,11.544,0,0,1-2.71-6.057C107.281,348.821,107.5,348.753,107.511,348.9Z" transform="translate(-21.464 -261.11)" fill="#263238"/>
        <path id="Path_29920" data-name="Path 29920" d="M102.374,357.393s-12.195-15.311-35.69-9.878c-22.343,5.149-32.668,46.136-10.081,51.028S75.18,365.537,83.432,359.1C89.475,354.372,98.215,355.361,102.374,357.393Z" transform="translate(-43.955 -261.986)" fill="#00a0ae"/>
        <path id="Path_29921" data-name="Path 29921" d="M47.341,369.048a45.779,45.779,0,0,1,4.837-3.686,21.679,21.679,0,0,1,5.162-2.574,31.794,31.794,0,0,1,3.1-3.97,29.972,29.972,0,0,1,7.073-5.65h-.7a34.461,34.461,0,0,0-3.74,0,20.975,20.975,0,0,0-7.249,1.8c-.135,0-.23-.149-.095-.2a32.88,32.88,0,0,1,7.249-2.182,19.473,19.473,0,0,1,3.672-.312,19.068,19.068,0,0,1,1.965.108h.379a32.521,32.521,0,0,1,6.775-2.493l-.65-.176a33.855,33.855,0,0,0-3.482-.569,27.77,27.77,0,0,0-7.032.108c-.149,0-.19-.2,0-.217a42.881,42.881,0,0,1,7.1-.285,29.414,29.414,0,0,1,5.921.759,30,30,0,0,1,4.282-.488c8.13-.352,17.14,2.71,22.181,9.485s6.043,15.745,6.937,23.874a182.354,182.354,0,0,1,.908,34.159c0,.678-1,.556-1.016-.081-.312-9.661-.65-19.335-1.572-28.956-.434-4.458-.908-8.943-1.653-13.36a38.875,38.875,0,0,0-3.238-10.989,20.094,20.094,0,0,0-7.927-8.536,26.776,26.776,0,0,0-11.246-3.455,29.985,29.985,0,0,0-10.542.989,7.086,7.086,0,0,1,0,2.073,11.124,11.124,0,0,1-.515,2.574,13.547,13.547,0,0,1-.989,2.276c-.434.813-.976,1.531-1.463,2.3a.113.113,0,0,1-.19-.122,10.677,10.677,0,0,0,1.829-4.647,17.619,17.619,0,0,0,.285-2.385V352.4a31.258,31.258,0,0,0-10.257,5.42c-.583.461-1.125.948-1.667,1.45a11.315,11.315,0,0,1,1.992,2.439,25.151,25.151,0,0,1,2.1,3.726,31.638,31.638,0,0,1,2.181,8.13.109.109,0,1,1-.217,0,23.97,23.97,0,0,0-2.71-7.75,29.426,29.426,0,0,0-2.087-3.442c-.393-.569-.8-1.125-1.233-1.667-.23-.3-.474-.6-.7-.908a32.52,32.52,0,0,0-6.666,9.39h0a15.908,15.908,0,0,1,2.71,3.957,37.083,37.083,0,0,1,2.2,4.7,77.9,77.9,0,0,1,2.818,9.593.115.115,0,1,1-.23,0,40.16,40.16,0,0,0-3.333-9.485c-.7-1.477-1.436-2.927-2.222-4.363a39.908,39.908,0,0,1-2.209-4.065,30.025,30.025,0,0,0-2.71,10.84.122.122,0,0,1-.23,0A37.939,37.939,0,0,1,56.5,363.655c-1.436.61-2.886,1.192-4.268,1.938a24.677,24.677,0,0,0-4.891,3.442C47.368,369.319,47.233,369.143,47.341,369.048Z" transform="translate(-42.768 -261.147)" fill="#263238"/>
        <path id="Path_29922" data-name="Path 29922" d="M60.107,364.382c.7,2.331,1.6,4.58,2.236,6.924a26.489,26.489,0,0,1,1.03,6.91h-.108a67.747,67.747,0,0,0-3.36-13.78C59.836,364.3,60.039,364.233,60.107,364.382Z" transform="translate(-38.298 -255.615)" fill="#263238"/>
        <path id="Path_29923" data-name="Path 29923" d="M49.063,361.026a13.317,13.317,0,0,1,3.116-2.222,22.315,22.315,0,0,1,3.6-1.274c.135,0,.176.19,0,.217a14.416,14.416,0,0,0-3.469,1.436,24.081,24.081,0,0,0-3.2,1.965.081.081,0,0,1-.054-.122Z" transform="translate(-42.146 -258.017)" fill="#263238"/>
        <path id="Path_29924" data-name="Path 29924" d="M89.747,349.393s-2.249-27.506-22.7-36.421c-17.086-7.493-26.8,11.747-14.783,23.495C62.038,345.965,77.688,341.669,89.747,349.393Z" transform="translate(-42.899 -274.432)" fill="#00a0ae"/>
        <path id="Path_29925" data-name="Path 29925" d="M53.7,317.027a87.036,87.036,0,0,1,9.092,4.309,70.072,70.072,0,0,1,7.059,4.688c-.339-.691-.637-1.423-.976-2.1-.528-1.07-1.111-2.1-1.734-3.116a29.145,29.145,0,0,0-4.512-5.759c-.095-.095,0-.257.163-.149a44.715,44.715,0,0,1,4.742,5.515,32.365,32.365,0,0,1,1.951,3.116,12.194,12.194,0,0,1,1.355,3.171l.23.163a67.13,67.13,0,0,1,9.769,9.553,3.03,3.03,0,0,0-.19-.786c-.379-1.355-.8-2.71-1.233-4.065a34.2,34.2,0,0,0-3.7-8.021c-.081-.122.122-.23.19-.108a62.554,62.554,0,0,1,4.282,7.818,30.732,30.732,0,0,1,1.355,4.065,18.739,18.739,0,0,1,.664,2.71c.881,1.125,1.761,2.276,2.588,3.442,8.78,12.506,13.184,27.614,14.241,42.736a132.984,132.984,0,0,1,.23,13.55,83.1,83.1,0,0,1-1.206,13.55c0,.285-.5.2-.488-.081.108-3.97.515-7.927.6-11.91a116.988,116.988,0,0,0-.393-11.937,110.849,110.849,0,0,0-4.322-23.17A83.723,83.723,0,0,0,83,342.148c-.867-.176-1.721-.406-2.561-.623s-2.046-.528-3.062-.813a30.611,30.611,0,0,1-5.7-2.087.113.113,0,0,1,.122-.19,18.483,18.483,0,0,0,5.772,1.992c1.612.325,3.265.529,4.878.894-1.49-2.154-3.062-4.255-4.756-6.246a35.8,35.8,0,0,1-11.639-.867,47.994,47.994,0,0,1-5.948-1.856c-2.06-.786-4.065-1.8-6.016-2.642-.149-.068,0-.3.095-.2a34.076,34.076,0,0,0,11.788,3.848A73.4,73.4,0,0,0,77,334.275c-1.45-1.667-2.94-3.293-4.553-4.824-5.42-5.108-11.748-9.81-18.82-12.262C53.494,317.2,53.562,316.973,53.7,317.027Z" transform="translate(-40.547 -273.162)" fill="#263238"/>
        <path id="Path_29926" data-name="Path 29926" d="M65.99,316.529A31.932,31.932,0,0,1,68.5,320.2a19.4,19.4,0,0,1,1.8,4.268h-.081c-.677-1.355-1.26-2.71-1.951-4.065a20.4,20.4,0,0,0-2.439-3.713C65.733,316.584,65.9,316.421,65.99,316.529Z" transform="translate(-36.201 -272.583)" fill="#263238"/>
        <path id="Path_29927" data-name="Path 29927" d="M51.955,323.284a20.569,20.569,0,0,0,4.187,1.748,36.816,36.816,0,0,0,4.268,1.152v.122a20.413,20.413,0,0,1-4.417-.976,33.384,33.384,0,0,1-4.146-1.856C51.711,323.419,51.819,323.216,51.955,323.284Z" transform="translate(-41.176 -270.178)" fill="#263238"/>
        <path id="Path_29928" data-name="Path 29928" d="M90.437,354.1c.122,1.179,3.089-9.986,20.324-19.9,15.7-9.011,34.443-32.451,19.051-47.247C117.441,275,84.665,301.042,90.437,354.1Z" transform="translate(-27.695 -284.087)" fill="#00a0ae"/>
        <path id="Path_29929" data-name="Path 29929" d="M81.487,415.716a304.589,304.589,0,0,1,2.71-34.768,156.278,156.278,0,0,1,7.3-31.164c1.355-3.631,2.71-7.208,4.349-10.731a25.853,25.853,0,0,1,.068-4.065c.095-1.762.244-3.523.407-5.284s.339-3.509.556-5.257.583-3.5.65-5.244a.108.108,0,0,1,.217,0,38.062,38.062,0,0,0-.637,5.732c-.122,1.694-.217,3.387-.271,5.081s0,3.414,0,5.108v1.924c1.64-3.442,3.374-6.775,5.257-10.108-1.165-7.168.352-14.661,1.816-21.679,0-.136.244-.068.217.068a61.2,61.2,0,0,0-1.138,11.111c0,2.94.068,5.894.081,8.834.42-.7.827-1.355,1.26-2.114,2.236-3.658,4.634-7.249,7.181-10.731a16.586,16.586,0,0,1,.163-5.108,41.506,41.506,0,0,1,1.247-5.582c.556-1.829,1.192-3.631,1.924-5.42s1.748-3.536,2.466-5.42c0-.149.285,0,.2.095a26.474,26.474,0,0,0-2.168,5.42,49.037,49.037,0,0,0-1.355,5.42c-.366,1.816-.664,3.645-.921,5.488-.176,1.22-.285,2.48-.488,3.7a131.752,131.752,0,0,1,12.1-14.078c.108-.108.257,0,.163.163A158.849,158.849,0,0,0,107.232,321l-.556.962c.948-.6,2.032-1.07,2.94-1.558,1.667-.935,3.347-1.856,5.04-2.778s3.265-1.775,4.891-2.71c.84-.474,1.667-.962,2.52-1.355A18.109,18.109,0,0,0,125,311.939c.136-.095.271.108.136.19-1.667.908-3.13,2.263-4.742,3.292s-3.252,2.032-4.932,2.967c-3.076,1.707-6.409,2.94-9.485,4.715-2.1,3.672-4.065,7.439-5.813,11.287,1.829-1.179,3.713-2.3,5.61-3.36,1.233-.691,2.452-1.355,3.7-2.019a18.438,18.438,0,0,0,3.482-2.1.122.122,0,0,1,.163.163,33.346,33.346,0,0,1-6.517,4.634c-2.222,1.287-4.458,2.547-6.775,3.672-1.843,4.065-3.523,8.13-5,12.384-7.33,20.528-10,42.437-11.26,64.157-.379,6.477-.569,12.953-.65,19.444s.257,12.94.244,19.417a.17.17,0,0,1-.339,0c-.786-5.745-.921-11.585-1.165-17.371S81.365,421.65,81.487,415.716Z" transform="translate(-30.656 -281.692)" fill="#263238"/>
        <path id="Path_29930" data-name="Path 29930" d="M104.677,316.888a83.04,83.04,0,0,0,9.187-4.756,94.758,94.758,0,0,0,8.726-5.542s.095,0,0,.081a73.152,73.152,0,0,1-8.374,5.867,85.658,85.658,0,0,1-9.485,4.539C104.65,317.145,104.541,316.942,104.677,316.888Z" transform="translate(-22.424 -276.099)" fill="#263238"/>
        <path id="Path_29931" data-name="Path 29931" d="M101.328,298.381c.257-1,.569-1.992.908-2.981a.1.1,0,0,1,0-.108c.217-.556.447-1.111.677-1.667l.081-.2.122-.312h0c-.081,0-.108.393-.176.583a1.355,1.355,0,0,1-.095.312,82.717,82.717,0,0,0-2.561,11.734.108.108,0,1,1-.2,0,39.863,39.863,0,0,1,1.247-7.357Z" transform="translate(-24.034 -280.884)" fill="#263238"/>
        <path id="Path_29932" data-name="Path 29932" d="M67.99,386.12l1.233,14.62L73,445.345h40.459l3.767-44.605,1.233-14.62Z" transform="translate(-35.423 -247.869)" fill="#455a64"/>
        <path id="Path_29933" data-name="Path 29933" d="M67.99,386.12l1.233,14.62h48.006l1.233-14.62Z" transform="translate(-35.423 -247.869)" fill="#263238"/>
        <rect id="Rectangle_8454" data-name="Rectangle 8454" width="58.412" height="14.024" transform="translate(87.023 146.408) rotate(180)" fill="#455a64"/>
      </g>
    </g>
  </g>
</svg>
