<svg id="shopping-cart-add" xmlns="http://www.w3.org/2000/svg" width="31" height="31" viewBox="0 0 31 31">
  <circle id="Ellipse_898" data-name="Ellipse 898" cx="2.5" cy="2.5" r="2.5" transform="translate(8 26)" fill="#e27e28"/>
  <circle id="Ellipse_899" data-name="Ellipse 899" cx="2.5" cy="2.5" r="2.5" transform="translate(21 26)" fill="#e27e28"/>
  <path id="Path_33311" data-name="Path 33311" d="M25.042,3.875H22.458V1.292a1.292,1.292,0,0,0-2.583,0V3.875H17.292a1.292,1.292,0,0,0,0,2.583h2.583V9.042a1.292,1.292,0,1,0,2.583,0V6.458h2.583a1.292,1.292,0,1,0,0-2.583Z" transform="translate(4.667)" fill="#e27e28"/>
  <path id="Path_33312" data-name="Path 33312" d="M28.121,12.563a1.284,1.284,0,0,0-1.5,1.041,3.875,3.875,0,0,1-3.813,3.188H7L5.784,6.458H16.792a1.292,1.292,0,0,0,0-2.583H5.479L5.425,3.42A3.875,3.875,0,0,0,1.578,0H1.292a1.292,1.292,0,0,0,0,2.583h.287a1.292,1.292,0,0,1,1.283,1.14L4.638,18.836a6.458,6.458,0,0,0,6.414,5.705H24.542a1.292,1.292,0,0,0,0-2.583H11.053A3.875,3.875,0,0,1,7.4,19.374H22.807a6.459,6.459,0,0,0,6.356-5.312,1.292,1.292,0,0,0-1.042-1.5Z" fill="#e27e28"/>
</svg>
