<svg xmlns="http://www.w3.org/2000/svg" xmlns:xlink="http://www.w3.org/1999/xlink" width="577.001" height="576" viewBox="0 0 577.001 576">
  <defs>
    <clipPath id="clip-path">
      <rect id="Rectangle_9835" data-name="Rectangle 9835" width="405" height="493" fill="#fff" stroke="#707070" stroke-width="1"/>
    </clipPath>
  </defs>
  <g id="short_duration_fund" transform="translate(-17796 -5582)">
    <path id="Rectangle_8718" data-name="Rectangle 8718" d="M1,1V575H575V1H1M0,0H576V576H0Z" transform="translate(17796 5582)" fill="#707070" opacity="0"/>
    <g id="conservative_illustration" transform="translate(10261 6119.999)">
      <rect id="Rectangle_8307" data-name="Rectangle 8307" width="574" height="574" transform="translate(7537 -536.999)" fill="none"/>
      <g id="Group_18952" data-name="Group 18952" transform="translate(-4760.999 14678.002)">
        <g id="freepik--Arrow--inject-29" transform="translate(12296.999 -15031.318)">
          <path id="Path_34921" data-name="Path 34921" d="M629.138,95.47,586.61,193.784l-24.873-35.1L499.8,205.228H331.1l-74.221,45.811H65.987L57.4,234.825v-22H243.454l74.23-45.811H484.161l53.2-39.518L516.316,99.161V82.947L633.4,69.4Z" transform="translate(-57.4 -69.4)" fill="#e27e2b"/>
          <g id="Group_18937" data-name="Group 18937" transform="translate(0 0)" opacity="0.1">
            <path id="Path_34922" data-name="Path 34922" d="M629.138,95.47,586.61,193.784l-24.873-35.1L499.8,205.228H331.1l-74.221,45.811H65.987L57.4,234.825v-22H243.454l74.23-45.811H484.161l53.2-39.518L516.316,99.161V82.947L633.4,69.4Z" transform="translate(-57.4 -69.4)" fill="#030402"/>
          </g>
          <path id="Path_34923" data-name="Path 34923" d="M633.4,69.4,586.61,177.562l-23.6-35.5-63.2,46.944H331.1l-74.221,45.82H57.4V205.681H243.454l74.23-45.82H484.161l59.168-40.551L516.316,82.947Z" transform="translate(-57.4 -69.4)" fill="#e27e2b"/>
        </g>
        <g id="Group_145" data-name="Group 145" transform="translate(12297 -15193)" clip-path="url(#clip-path)">
          <g id="Group_18949" data-name="Group 18949" transform="translate(4.069 34.128)">
            <path id="Path_35671" data-name="Path 35671" d="M393.223,641.962c-8.194.787-231.578-52.486-238.634-59.659-.846-.816,3.528-21.111,9.972-48.812l.146-.525c4.024-17.5,69.077-159.527,69.077-159.527l144.8,40.356L312.8,545.534s27.263,19.653,50.619,38.344h0c14.579,11.489,26.855,21.781,29.509,25.135C399.813,617.789,401.417,641.233,393.223,641.962Z" transform="translate(12.355 386.831)" fill="#ad6359"/>
            <path id="Path_35672" data-name="Path 35672" d="M393.227,575.05c-8.194.816-231.578-52.486-238.634-59.63-.875-.816,3.528-21.111,9.972-48.812l.146-.525c1.487-6.531,11.489-30.412,23.327-57.734,23.852,6.415,109.257,29.479,140.282,39.073l-15.571,31.229s27.234,19.682,50.59,38.344h0c14.4,11.488,26.884,21.781,29.509,25.105C399.817,550.907,401.421,574.379,393.227,575.05Z" transform="translate(12.35 453.714)" fill="#ebebeb"/>
            <path id="Path_35673" data-name="Path 35673" d="M394.194,555.227c-8.427.729-231.986-53.069-239.1-60.5-2.741-2.916,2.187-38.081,14.579-75.463l144.073,34.99s73.6,58.317,80.653,67.24S402.621,554.5,394.194,555.227Z" transform="translate(12.112 474.616)" fill="#00a0ad"/>
            <path id="Path_35674" data-name="Path 35674" d="M384.914,497.716c-37.265-9.943-188.423-46.508-226.009-53.506-.321,0-.35.146,0,.233,36.711,10.643,188.19,46.012,225.921,53.885C385.555,498.5,385.7,497.92,384.914,497.716Z" transform="translate(20.343 522.416)" fill="#263238"/>
            <path id="Path_35675" data-name="Path 35675" d="M257.169,451.042a30.937,30.937,0,0,0-24.61,3.732,30.033,30.033,0,0,0-13.209,17.991.234.234,0,0,0,.467,0,35.749,35.749,0,0,1,37.236-21.373.233.233,0,0,0,.117-.35Z" transform="translate(136.629 533.459)" fill="#263238"/>
            <path id="Path_35676" data-name="Path 35676" d="M242.92,434.815c-14.929-3.82-33.591-2.712-45.867,7.29-.5.408,0,1.079.583.933a213.465,213.465,0,0,1,45.108-6.328.962.962,0,0,0,.175-1.9Z" transform="translate(93.522 500.524)" fill="#263238"/>
            <path id="Path_35677" data-name="Path 35677" d="M246.52,437.334c-14.929-3.82-33.62-2.712-45.867,7.319-.5.379,0,1.05.583.933a213.5,213.5,0,0,1,45.108-6.357.962.962,0,0,0,.175-1.9Z" transform="translate(100.419 505.353)" fill="#263238"/>
            <path id="Path_35678" data-name="Path 35678" d="M250.131,439.814c-14.958-3.82-33.62-2.712-45.9,7.319-.467.379,0,1.05.583.933a212.131,212.131,0,0,1,45.138-6.328.991.991,0,0,0,.175-1.924Z" transform="translate(107.306 510.105)" fill="#263238"/>
            <path id="Path_35679" data-name="Path 35679" d="M253.731,442.335c-14.958-3.82-33.62-2.712-45.9,7.29-.467.408,0,1.079.583.962a214.025,214.025,0,0,1,45.108-6.357.962.962,0,0,0,.2-1.9Z" transform="translate(114.203 514.932)" fill="#263238"/>
            <path id="Path_35680" data-name="Path 35680" d="M175.624,433.062c-16.825-3.995-23.094,22.161-6.211,26.243S192.361,437.057,175.624,433.062Z" transform="translate(21.877 500.265)" fill="#263238"/>
            <path id="Path_35681" data-name="Path 35681" d="M251.879,424.165c-6.094-8.135-17.145-4.286-23.327,1.137a80.768,80.768,0,0,0-22.86,34.99.408.408,0,0,0,.35.525,1.876,1.876,0,0,0,2.42,1.866c12.451-4.811,26.243-8.427,36.973-16.912C251.587,440.9,257.623,431.834,251.879,424.165ZM225.636,451.6c-6.065,2.508-12.217,4.724-18.2,7.465a244.245,244.245,0,0,1,13.821-20.178,83.9,83.9,0,0,1,7.9-8.748c4.461-4.17,22.19-13.151,19.77,3.528-1.225,9.127-15.921,14.929-23.152,17.933Z" transform="translate(110.427 475.046)" fill="#263238"/>
            <path id="Path_35682" data-name="Path 35682" d="M201.04,449.934c12.567,5.132,26.943,4.665,40.239,5.832a1.9,1.9,0,0,0,1.808-2.478c.2,0,.379-.35.175-.612a80.74,80.74,0,0,0-31.783-27.234c-7.523-3.441-19.216-3.995-22.744,5.511C185.236,439.933,193.692,446.931,201.04,449.934Zm-7-10.73C186.986,423.9,206.551,427.54,212,430.252a84.777,84.777,0,0,1,10.06,6.211,235.454,235.454,0,0,1,18.953,15.454c-6.5-.933-13.034-1.312-19.565-2.012-7.785-.962-23.531-2.245-27.467-10.7Z" transform="translate(76.414 482.081)" fill="#263238"/>
            <path id="Path_35683" data-name="Path 35683" d="M380.408,767.939,226.684,726.767s135.092-280.186,124.07-295.61c-5.453-7.7-149.555-14.2-194.226-54.468-58.055-52.281-15.8-128.3-15.8-128.3H301.855s-2.916,33.62,3.178,38.868c4.053,3.5,195.363,25.368,214.52,90.713C543.2,458.128,380.408,767.939,380.408,767.939Z" transform="translate(-42.45 147.252)" fill="#263238"/>
            <path id="Path_35684" data-name="Path 35684" d="M304.947,445.243a92.878,92.878,0,0,0-12.626-4.782c-4.461-1.545-8.922-3.091-13.413-4.578-8.748-2.916-17.7-5.657-26.651-8.223-17.962-5.19-35.982-10.264-54.089-14.988-9.447-2.449-29.684-7.785-30.937-7.61-.612,0-.758,1.108-.2,1.312,17.5,6.357,35.253,11.809,53.04,17.349s35.486,10.934,53.477,15.6c4.986,1.283,10,2.42,15.017,3.645a113.081,113.081,0,0,0,15.921,3.5C305.005,446.5,305.5,445.535,304.947,445.243Z" transform="translate(35.723 447.407)" fill="#455a64"/>
            <path id="Path_35685" data-name="Path 35685" d="M365.691,411.242c-3.149-2.916-8.019-3.324-12.043-4.141L284.28,393.339c-21.636-4.286-43.388-8.194-64.907-13-17.845-3.995-35.923-9.214-51.144-19.391a75,75,0,0,1-30.412-42.338c-4.9-17.233-4.753-35.6-2.508-53.244.525-4.315,1.458-8.6,2.391-12.859a.262.262,0,0,0-.525,0c-6.852,32.833-8.543,71.147,15.425,98.177,11.663,13.209,27.992,21.227,44.759,26.622,18.895,6.065,38.723,9.272,58.317,13.121l69.368,13.7c11.139,2.187,22.452,3.995,33.474,6.648a11.372,11.372,0,0,1,5.832,2.916,8.748,8.748,0,0,1,.729,8.106c-1.283,5.423-2.916,10.818-4.636,16.125-14.055,42.717-112,246.216-114.652,251a.443.443,0,0,0,.787.408c22.452-37.381,95.524-194.488,110.8-235.077a262.415,262.415,0,0,0,10.089-31.637C368.4,418.648,369.015,414.275,365.691,411.242Z" transform="translate(-29.336 154.628)" fill="#455a64"/>
            <path id="Path_35686" data-name="Path 35686" d="M614.107,610.086c-7.669,3.062-237,14.783-245.778,9.8-1.079-.525-2.566-21.257-4.141-49.57l-1.166-26.768c-.379-9.039-118.442-140.632-118.442-140.632L409.093,393,509.778,540.222s31.666,11.226,59.338,22.6h0c17.087,6.94,31.929,13.355,35.4,15.8C613.641,585.039,621.747,607.112,614.107,610.086Z" transform="translate(184.966 424.305)" fill="#ad6359"/>
            <path id="Path_35687" data-name="Path 35687" d="M274.89,435.236c17.116,20.411,29.917,36.536,30.063,39.51l1.166,26.768c1.575,28.371,3.091,49.1,4.141,49.57,8.748,4.986,238.109-6.736,245.778-9.768s-.467-25.076-9.506-31.521c-3.441-2.449-18.282-8.748-35.34-15.833h0c-27.672-11.343-59.338-22.569-59.338-22.569L422.7,428.88Z" transform="translate(243.036 493.046)" fill="#ebebeb"/>
            <path id="Path_35688" data-name="Path 35688" d="M538.624,516.584c-7.9,3.091-237.555,14.229-246.565,9.127-3.441-1.924-8.6-37.148-7.377-76.454l148.068-7.027s86.98,35.224,96.224,41.9S546.526,513.523,538.624,516.584Z" transform="translate(261.441 518.623)" fill="#00a0ad"/>
            <path id="Path_35689" data-name="Path 35689" d="M522.928,464.641c-38.548.9-193.934,8.281-231.957,12.13-.321,0-.292.233,0,.233,38.227,0,193.555-8.748,231.986-11.663C523.773,465.195,523.744,464.611,522.928,464.641Z" transform="translate(273.405 561.557)" fill="#263238"/>
            <path id="Path_35690" data-name="Path 35690" d="M383,454a30.821,30.821,0,0,0-22.569,10.526,29.975,29.975,0,0,0-7.61,20.965c0,.233.437.2.467,0a35.778,35.778,0,0,1,29.742-31A.248.248,0,0,0,383,454Z" transform="translate(392.309 541.172)" fill="#263238"/>
            <path id="Path_35691" data-name="Path 35691" d="M367.2,443.361c-15.425.554-33.037,6.852-41.988,19.915-.35.5.379.991.816.729a213.618,213.618,0,0,1,41.522-18.749.964.964,0,1,0-.35-1.9Z" transform="translate(339.267 520.758)" fill="#263238"/>
            <path id="Path_35692" data-name="Path 35692" d="M371.359,444.74c-15.425.554-33.037,6.852-41.988,19.915-.35.525.379.991.816.729a213.605,213.605,0,0,1,41.522-18.749.991.991,0,0,0-.35-1.9Z" transform="translate(347.237 523.432)" fill="#263238"/>
            <path id="Path_35693" data-name="Path 35693" d="M375.509,446.143c-15.425.525-33.008,6.823-41.988,19.886-.35.525.379.991.846.758a213.464,213.464,0,0,1,41.551-18.778.962.962,0,0,0-.408-1.866Z" transform="translate(355.188 526.111)" fill="#263238"/>
            <path id="Path_35694" data-name="Path 35694" d="M379.649,447.53c-15.425.525-33.037,6.823-41.988,19.915-.35.5.379.991.816.729A213.732,213.732,0,0,1,380,449.4a.962.962,0,0,0-.35-1.866Z" transform="translate(363.119 528.777)" fill="#263238"/>
            <path id="Path_35695" data-name="Path 35695" d="M301.644,456.115c-17.262.875-15.921,27.759,1.4,26.855S318.965,455.211,301.644,456.115Z" transform="translate(270.75 545.181)" fill="#263238"/>
            <path id="Path_35696" data-name="Path 35696" d="M367.043,430.545c-8.106-6.065-17.5.729-22.1,7.669a81.176,81.176,0,0,0-12.1,40.093c0,.321.262.437.525.408a1.866,1.866,0,0,0,2.916,1.108c10.585-8.135,22.948-15.483,30.733-26.622C371.475,446.611,374.741,436.376,367.043,430.545Zm-17.291,33.678c-5.132,4.111-10.41,7.96-15.367,12.276a243.145,243.145,0,0,1,7.552-23.327,89.337,89.337,0,0,1,5.132-10.643c3.091-5.278,17.5-18.866,19.944-2.187,1.283,9.185-11.168,18.866-17.262,23.793Z" transform="translate(354.06 491.731)" fill="#263238"/>
            <path id="Path_35697" data-name="Path 35697" d="M331.222,465.539c13.53,1.429,27.176-3.062,40.239-5.832a1.866,1.866,0,0,0,1.021-2.916c.2-.175.292-.437,0-.641A80.917,80.917,0,0,0,334.284,439c-8.194-1.166-19.565,1.574-20.411,11.663C313.348,460.378,323.32,464.723,331.222,465.539Zm-9.739-8.31c-11.051-12.713,8.748-14.579,14.579-13.646a92.069,92.069,0,0,1,11.43,3.12A241.947,241.947,0,0,1,370,456.237c-6.5.933-12.859,2.391-19.332,3.557C343.09,461.194,327.607,464.227,321.483,457.229Z" transform="translate(317.684 511.964)" fill="#263238"/>
            <path id="Path_35698" data-name="Path 35698" d="M769.98,786.454,586.106,808.935S404.068,591.382,389.4,576.8c-45.575-44.9-208.863-122.466-257.587-194.488-43.738-64.761.583-133.955.583-133.955h179.53a371.245,371.245,0,0,1-18.282,56.014s149.117,112.29,228.633,192.447C573.509,548.694,769.98,786.454,769.98,786.454Z" transform="translate(-68.034 147.194)" fill="#263238"/>
            <path id="Path_35699" data-name="Path 35699" d="M224.8,263.693a87.816,87.816,0,0,0-15.337,4.432c-5.219,1.808-10.351,3.907-15.367,6.152A295.922,295.922,0,0,0,165.23,289.5c-.292.175,0,.583.262.437,9.856-4.753,20-8.981,30.179-13l14.579-5.832a159.743,159.743,0,0,0,14.842-6.036A.716.716,0,0,0,224.8,263.693Z" transform="translate(32.709 176.561)" fill="#455a64"/>
            <path id="Path_35700" data-name="Path 35700" d="M199.366,248.84c-2.274,8.135-4.345,16.329-6.911,24.377-1.2,3.674-2.362,7.435-3.878,11.022-1.283,2.916-3.178,6.444-6.736,7-4.082.671-5.132-2.916-4.695-6.182a113.082,113.082,0,0,1,2.391-11.139c.962-4.228,5.832-24.756,5.832-24.872a.985.985,0,0,0-.175-.612.321.321,0,0,0-.379,0,179.357,179.357,0,0,0-6.852,20.09l-3.295,11.664a18.515,18.515,0,0,0-1.05,9.068,6.94,6.94,0,0,0,6.269,5.424c0,.262-.321.5-.467.787-.379.787-.671,1.633-.991,2.449s-.642,1.691-.9,2.537a6.3,6.3,0,0,0-.292,1.283q0,.7,0,1.4a.7.7,0,0,0,1.283.5,13.292,13.292,0,0,1,.787-1.137,5.6,5.6,0,0,0,.612-1.341c.321-.816.583-1.633.816-2.449s.5-1.662.671-2.479a13.486,13.486,0,0,0,.2-1.516,9.359,9.359,0,0,0,4.782-1.662,15.8,15.8,0,0,0,5.1-7.319c1.341-3.382,2.42-6.881,3.47-10.351a155.212,155.212,0,0,0,6.007-26.243.815.815,0,0,0-1.6-.291Z" transform="translate(48.697 146.831)" fill="#455a64"/>
            <path id="Path_35701" data-name="Path 35701" d="M185.546,254.383c-.846,4.024-1.458,8.135-2.508,12.13s-2.216,7.815-3.616,11.663a42.747,42.747,0,0,1-5.307,10.41,39.6,39.6,0,0,1-8.194,7.873,67.849,67.849,0,0,1-19.565,10.118,85.875,85.875,0,0,1-10.76,2.916,54.464,54.464,0,0,1-5.832.816,12.535,12.535,0,0,0-4.636.933.933.933,0,0,0,0,1.6,16.8,16.8,0,0,0,8.514.525,60.445,60.445,0,0,0,9.127-1.341,65.26,65.26,0,0,0,17.5-6.707,54.791,54.791,0,0,0,14.725-11.343,40.444,40.444,0,0,0,8.164-16.591,82.578,82.578,0,0,0,3.178-22.773.411.411,0,1,0-.787-.233Z" transform="translate(-44.758 158.171)" fill="#455a64"/>
            <path id="Path_35702" data-name="Path 35702" d="M427.678,423.645a115.056,115.056,0,0,0-14.871.583c-5.19.35-10.41.671-15.6,1.108q-15.337,1.225-30.617,2.916c-20.411,2.333-41.026,4.782-61.5,7.581-10.672,1.487-33.562,4.549-34.757,5.219a.7.7,0,0,0,.321,1.283c20.411-1.05,40.822-2.916,61.379-4.986s40.822-3.937,61.233-6.765c5.628-.787,11.226-1.72,16.825-2.566a134.926,134.926,0,0,0,17.728-3.062C428.262,424.753,428.378,423.674,427.678,423.645Z" transform="translate(233.708 482.944)" fill="#455a64"/>
            <path id="Path_35703" data-name="Path 35703" d="M189.132,346.773c9.535,6.123,18.749,12.713,27.992,19.245a266.726,266.726,0,0,1,25.4,18.778,139.6,139.6,0,0,1,11.2,11.926l10.964,12.684q10.993,12.626,21.782,25.485,6.123,7.232,12.188,14.579c4.2,5.045,8.077,10.351,12.3,15.4.262.321-.175.758-.437.437-7.494-8.427-15.4-16.5-22.86-24.96s-14.9-16.824-22.336-25.572S251.356,397.946,243.8,390.1a176.488,176.488,0,0,0-25.135-19.711c-10.235-7.29-20.411-14.579-30.413-22.19C187.411,347.706,188.2,346.161,189.132,346.773Z" transform="translate(76.368 335.469)" fill="#455a64"/>
            <path id="Path_35704" data-name="Path 35704" d="M176.208,268.129c30.646,21.519,62.4,45.575,91.208,69.456S324.8,385.872,352.7,410.919q11.664,10.5,23.327,21.286c7.756,7.26,15.337,16.3,23.094,23.531.437.379-.2.991-.641.612-14-12.567-28.517-26.243-42.717-38.606s-28.284-24.493-42.484-36.652q-42.8-36.652-86.689-72.051c-16.212-13.151-35.136-26.447-51.028-40.006A.554.554,0,0,1,176.208,268.129Z" transform="translate(52.289 184.867)" fill="#455a64"/>
            <path id="Path_35706" data-name="Path 35706" d="M163.189,194.531c29.509,27.059,144.16,105.642,176.672,95.145,24.172-7.785,27.73-36.069,14.054-58.142-11.926-19.186-127.89-51.494-160.373-60.213C162.49,163.011,134.206,167.939,163.189,194.531Z" transform="translate(5.853 -7.461)" fill="#ad6359"/>
            <path id="Path_35707" data-name="Path 35707" d="M240.963,260.281l67.5-57.617s-85.931-29.6-123.837-35.253c-39.539-5.832-51.086,7.348-9.477,40.064C216.149,239.695,240.963,260.281,240.963,260.281Z" transform="translate(1.763 -10.461)" fill="#00a0ad"/>
            <path id="Path_35708" data-name="Path 35708" d="M214.189,192.972a4.636,4.636,0,0,1-2.041,1.021,4.053,4.053,0,0,1-3.849-1.166,5.365,5.365,0,0,0-5.832-1.021,5.249,5.249,0,0,0-2.187,1.924c-.5.758-1.05,1.429-1.487,2.245.787-.467,1.487-.991,2.216-1.487a5.074,5.074,0,0,1,2.041-1.108A4.053,4.053,0,0,1,206.9,194.4a5.453,5.453,0,0,0,5.832,1.225,5.248,5.248,0,0,0,2.274-1.9c.5-.758,1.05-1.429,1.487-2.245C215.647,191.951,215.064,192.476,214.189,192.972Zm42.892-5.365h0a5.511,5.511,0,0,0-3.382,3.062,5.162,5.162,0,0,0-.262,2.916c.175.875.292,1.75.525,2.624.233-.875.35-1.75.525-2.624a5.4,5.4,0,0,1,.729-2.187,4.2,4.2,0,0,1,3.557-1.866,4.753,4.753,0,0,0,2.449-.671Zm-36.973,55.4c-.2-.875-.292-1.779-.554-2.654-.233.875-.35,1.779-.525,2.654a5.074,5.074,0,0,1-.671,2.216,4.257,4.257,0,0,1-.962,1.079l1.545,1.225a4.519,4.519,0,0,0,.962-1.6,5.628,5.628,0,0,0,.2-3.062Zm-67.531-76.629a1.251,1.251,0,0,0,0,.321v-.35Zm115.089,61.233a5.394,5.394,0,0,0-3.47-4.928,5.307,5.307,0,0,0-2.916-.175c-.875.175-1.75.262-2.624.525.875.233,1.75.35,2.624.525a5.365,5.365,0,0,1,2.216.671,4.14,4.14,0,0,1,2.012,3.441,5.365,5.365,0,0,0,1.72,3.995l1.458-1.254a4.053,4.053,0,0,1-1.137-3.032Z" transform="translate(8.68 -9.926)" fill="#fff"/>
            <path id="Path_35709" data-name="Path 35709" d="M178.7,221.836c1.429-1.545,3.12-2.916,4.695-4.315l4.869-4.374q4.942-4.374,9.972-8.748c6.706-5.832,13.384-11.663,20.178-17.174,1.866-1.545,3.732-3.091,5.657-4.578s4.111-2.916,6.123-4.607c0,0,.233,0,0,.2-1.633,1.458-3.12,3.091-4.724,4.578l-4.986,4.49q-4.986,4.374-10.06,8.748c-6.619,5.628-13.238,11.284-20,16.737l-5.657,4.578c-1.983,1.6-3.907,3.324-6.036,4.753C178.755,222.07,178.58,221.924,178.7,221.836Z" transform="translate(58.665 12.471)" fill="#263238"/>
            <path id="Path_35710" data-name="Path 35710" d="M175.145,204.218C216.113,236.293,240.957,257,240.957,257l21.577-18.4L150.623,167.77C145.4,174.01,152.168,186.14,175.145,204.218Z" transform="translate(1.77 -7.205)" fill="#263238"/>
            <path id="Path_35711" data-name="Path 35711" d="M259.722,317.095c-16.416,25.076-45.9,1.924-50.3-18.545C199.072,250.5,200.092,194.8,202.979,159.9c1.2-14.259,89.138-17.5,87.855-2.245C288.152,189.555,288.152,273.678,259.722,317.095Z" transform="translate(101.505 -45.815)" fill="#ad6359"/>
            <path id="Path_35712" data-name="Path 35712" d="M201.17,179.7c.641,3.732,1.137,7.465,1.633,11.2s.9,7.465,1.341,11.2l1.225,11.2c.175,1.9.408,3.761.641,5.628s.437,3.7.7,5.6a80.693,80.693,0,0,1-2.508-11.051c-.671-3.7-1.137-7.465-1.575-11.2s-.787-7.494-1.021-11.255S201.17,183.491,201.17,179.7Z" transform="translate(101.798 15.651)" fill="#263238"/>
            <path id="Path_35713" data-name="Path 35713" d="M203.219,187.62a51.737,51.737,0,0,1-.262,6.415,28.728,28.728,0,0,1-.292,3.149,24.734,24.734,0,0,1-.583,3.207,16.852,16.852,0,0,1-.642-6.473,17.041,17.041,0,0,1,.525-3.237A10.758,10.758,0,0,1,203.219,187.62Z" transform="translate(102.169 30.825)" fill="#263238"/>
            <path id="Path_35714" data-name="Path 35714" d="M295.343,149.9c5.832,17.758,3.528,58.726-.846,68.377s-74.121,8.077-80.565-.671S192.5,147.628,199.353,129.7,289.336,131.62,295.343,149.9Z" transform="translate(94.955 -93.638)" fill="#ad6359"/>
            <path id="Path_35715" data-name="Path 35715" d="M200.883,178.417c7.494,6.444,10.818-6.094,10.818-6.094s-.408,19.186,9.885,22.86S235,183.519,235.261,182.295c0,1.021,0,18.661,10.818,21.286s12.013-13.238,12.043-14.259c.292.962,4.345,13.617,12.946,13.734,14.783.233,5.365-32.454,11.663-42.688,0,0,18.545,8.573,19.128,8.748,0,0-8.31-31.287-22.6-38.9a10.322,10.322,0,0,0-12.742,2.187s-1.574-10.38-9.972-12.713c-4.315-1.166-10.031,4.665-10.031,4.665A12.946,12.946,0,0,0,237.3,114.5c-6.036-1.283-10.847,4.782-10.847,4.782s-5.219-7.231-11.838-6.532C201.2,114.063,184.817,164.566,200.883,178.417Z" transform="translate(88.497 -112.705)" fill="#ad6359"/>
            <path id="Path_35716" data-name="Path 35716" d="M214.3,115.357c0-.175,0-.292-.233,0a92.17,92.17,0,0,0-13.821,53.01.555.555,0,0,0,1.108,0,188.683,188.683,0,0,1,12.946-53.01Z" transform="translate(99.836 -107.962)" fill="#263238"/>
            <path id="Path_35717" data-name="Path 35717" d="M220.729,116.739c0-.2-.233-.35-.35,0-9.651,15.8-15.454,38.169-11.459,58.784,0,.7.962,1.2.875.379C208.19,161.847,214.051,132.484,220.729,116.739Z" transform="translate(114.198 -105.379)" fill="#263238"/>
            <path id="Path_35718" data-name="Path 35718" d="M219.079,177.491c-2.916-19.915.583-38.81,7.086-57.647,0-.262-.262-.35-.379-.175-5.832,8.369-8.748,20.819-10.06,30.7a52.981,52.981,0,0,0,2.654,27.2C218.5,177.929,219.137,177.9,219.079,177.491Z" transform="translate(128.327 -99.533)" fill="#263238"/>
            <path id="Path_35719" data-name="Path 35719" d="M200.248,140.909a59.1,59.1,0,0,0,1.779,10.905,20.411,20.411,0,0,0,4.87,9.418,6.648,6.648,0,0,0,4.374,1.9,9.884,9.884,0,0,0,4.782-1.108A11.838,11.838,0,0,0,221.388,154l1.691-7.96,1.2,8.048a33.21,33.21,0,0,0,3.149,10.293,11.839,11.839,0,0,0,7.144,6.561,6.736,6.736,0,0,0,7.96-2.916,20.12,20.12,0,0,0,2.537-9.972l.292-9.593,2.916,9.127a31.845,31.845,0,0,0,3.324,7.231,12.743,12.743,0,0,0,5.394,5.1,6.153,6.153,0,0,0,6.386-.846,13.529,13.529,0,0,0,3.3-6.794,110.805,110.805,0,0,0,1.749-16.591c.175-2.916.35-5.628.641-8.427a20.413,20.413,0,0,1,2.216-8.164,21.929,21.929,0,0,0-1.429,8.223v8.4a93.073,93.073,0,0,1-.9,17.029,15.862,15.862,0,0,1-3.7,8.281,8.747,8.747,0,0,1-9.389,1.633A16.008,16.008,0,0,1,249,166.511a34.989,34.989,0,0,1-3.82-8.019l3.149-.467a23.735,23.735,0,0,1-2.916,11.809,9.856,9.856,0,0,1-5.1,4.257,11.051,11.051,0,0,1-6.59.146,14.959,14.959,0,0,1-9.039-8.31,36.361,36.361,0,0,1-3.295-11.372H224.3a14.171,14.171,0,0,1-7.2,9.535,11.9,11.9,0,0,1-6.007,1.05,8.456,8.456,0,0,1-5.482-2.653,20.644,20.644,0,0,1-4.549-10.351A49.565,49.565,0,0,1,200.248,140.909Z" transform="translate(99.951 -81.292)" fill="#263238"/>
            <path id="Path_35720" data-name="Path 35720" d="M221.484,197.8s-52.34-59.542-19.041-68.581c9.885-2.712,53.739-1.954,53.739,6.852,0,11.372-18.312,14.579-30.15,14.579,0,0,20.644,17.728,12.6,35.807A19.711,19.711,0,0,1,221.484,197.8Z" transform="translate(83.001 -83.717)" fill="#ad6359"/>
            <path id="Path_35721" data-name="Path 35721" d="M194.23,130.955a40.561,40.561,0,0,1,11.663-2.916,92.933,92.933,0,0,1,12.1-.612,141.415,141.415,0,0,1,24.2,2.158,22.92,22.92,0,0,1,6.123,2.041,8.281,8.281,0,0,1,2.916,2.333,5.132,5.132,0,0,1,.962,1.779,6.851,6.851,0,0,1,.321,1.983,10.234,10.234,0,0,1-2.566,6.59,19.244,19.244,0,0,1-5.219,4.053,37.38,37.38,0,0,1-11.984,3.616,86.348,86.348,0,0,1-12.218.846l.846-2.478a47.7,47.7,0,0,1,6.211,6.911,44.643,44.643,0,0,1,4.753,7.931,31.11,31.11,0,0,1,2.6,8.748,24.32,24.32,0,0,1-.5,9.068,26.738,26.738,0,0,0-.466-8.893,33.478,33.478,0,0,0-3.208-8.223,42.986,42.986,0,0,0-4.986-7.29,44.233,44.233,0,0,0-6.182-6.182l-2.916-2.274,3.674-.2a87.177,87.177,0,0,0,11.663-1.2,35.8,35.8,0,0,0,10.905-3.411c3.178-1.72,6.065-4.549,6.036-7.64s-3.936-4.257-7.61-5.074a116.418,116.418,0,0,0-11.663-1.954c-3.936-.5-7.9-.962-11.9-1.225a76.542,76.542,0,0,0-23.56,1.516Z" transform="translate(88.502 -84.517)" fill="#263238"/>
            <path id="Path_35722" data-name="Path 35722" d="M345.259,441.811c-3.995,5.628-233.269,27.059-234.581,25.834-3.47-3.266,11.2-208.6,82.082-291.732,12.509-14.579,37.906-14.229,50.444-9.156,6.211,2.537,29.683,28.692,38.752,52.894S347.738,438.225,345.259,441.811Z" transform="translate(-72.47 -15.232)" fill="#00a0ad"/>
            <path id="Path_35723" data-name="Path 35723" d="M245.54,231.9a4.519,4.519,0,0,1-2.158-.729,4.082,4.082,0,0,1-1.9-3.528,5.278,5.278,0,0,0-6.386-5.132c-.875.175-1.779.292-2.653.525.875.262,1.779.35,2.653.525a5.365,5.365,0,0,1,2.216.671,4.082,4.082,0,0,1,1.983,3.441,5.424,5.424,0,0,0,3.295,5.015,4.986,4.986,0,0,0,2.916.292c.875-.175,1.75-.292,2.653-.525C247.29,232.189,246.415,232.1,245.54,231.9Zm40.472,169.12a4.869,4.869,0,0,1-2.158-.758,4.083,4.083,0,0,1-1.9-3.528,5.278,5.278,0,0,0-6.386-5.132c-.875.175-1.749.292-2.653.525.9.262,1.779.35,2.653.554a4.637,4.637,0,0,1,2.216.671,4.082,4.082,0,0,1,2.012,3.411,5.336,5.336,0,0,0,3.295,5.015,4.869,4.869,0,0,0,2.916.292c.9-.175,1.779-.292,2.654-.525a26.68,26.68,0,0,0-2.654-.554Zm-117.6-101.18a5.4,5.4,0,0,1-2.187-.729,4.2,4.2,0,0,1-1.72-3.645,5.394,5.394,0,0,0-3.47-4.928,5.832,5.832,0,0,0-2.916-.2c-.875.2-1.75.292-2.624.554.875.233,1.75.35,2.624.525a5.22,5.22,0,0,1,2.245.671,4.024,4.024,0,0,1,1.983,3.441,5.453,5.453,0,0,0,3.295,5.015,5.16,5.16,0,0,0,2.916.263c.875-.175,1.75-.262,2.624-.525-1.021-.175-1.9-.292-2.77-.466Zm96.223,150.2a5.192,5.192,0,0,0-2.916-.2c-.875.175-1.749.292-2.624.525.875.233,1.75.35,2.624.525a5.364,5.364,0,0,1,2.216.671,2.567,2.567,0,0,1,.7.554l2.42-.292A5.132,5.132,0,0,0,264.785,450ZM220.9,373.579a4.871,4.871,0,0,1-2.158-.729,4.111,4.111,0,0,1-1.9-3.557,5.394,5.394,0,0,0-3.47-4.928,5.307,5.307,0,0,0-2.916-.175c-.875.175-1.75.262-2.624.525.875.233,1.75.35,2.624.525a5.365,5.365,0,0,1,2.216.671,4.14,4.14,0,0,1,2.012,3.441,5.423,5.423,0,0,0,3.295,5.015,5.073,5.073,0,0,0,2.916.263,26.681,26.681,0,0,0,2.653-.525,16.53,16.53,0,0,0-2.42-.554Zm-94.3,15.542a5.394,5.394,0,0,1-2.187-.729,4.141,4.141,0,0,1-1.9-3.557,5.278,5.278,0,0,0-6.386-5.132c-.875.175-1.75.292-2.624.525.875.262,1.75.379,2.624.554a4.637,4.637,0,0,1,2.216.671,4.082,4.082,0,0,1,2.012,3.411,5.453,5.453,0,0,0,3.295,5.044,5.161,5.161,0,0,0,2.916.262c.875-.175,1.75-.292,2.624-.525C128.293,389.383,127.419,389.3,126.6,389.121Zm138.154-87.214a5.247,5.247,0,0,1-2.158-.729,4.14,4.14,0,0,1-1.9-3.557,5.394,5.394,0,0,0-3.47-4.928,5.628,5.628,0,0,0-2.916-.2c-.875.2-1.779.292-2.653.554.875.233,1.779.35,2.653.525a4.957,4.957,0,0,1,2.216.671,4.024,4.024,0,0,1,1.983,3.441,5.453,5.453,0,0,0,3.295,5.015,5.219,5.219,0,0,0,2.916.262c.875-.175,1.779-.292,2.653-.525-.816-.233-1.808-.35-2.683-.525Zm-80.128-111.94a5.451,5.451,0,0,1-2.041,1.108,4.17,4.17,0,0,1-3.849-1.021,5.161,5.161,0,0,0-2.449-1.4c-.437.612-.875,1.2-1.254,1.808a3.762,3.762,0,0,1,2.187,1.166,5.307,5.307,0,0,0,8.164-.9c.5-.758,1.021-1.458,1.487-2.245C186.057,188.946,185.386,189.471,184.628,189.967Zm43.738-26.1a5.571,5.571,0,0,0-1.312,1.866,5.162,5.162,0,0,0-.262,2.916c.175.875.292,1.75.525,2.624.262-.875.35-1.75.525-2.624a5.4,5.4,0,0,1,.729-2.187,4.141,4.141,0,0,1,3.237-1.866c-.962-.35-2.1-.35-3.149-.729ZM216.44,312.958c-.175-.875-.262-1.75-.525-2.654-.233.9-.35,1.779-.525,2.654a5.365,5.365,0,0,1-.671,2.216,4.141,4.141,0,0,1-3.441,2.012,5.365,5.365,0,0,0-5.015,3.295A5.074,5.074,0,0,0,206,323.4c.175.875.262,1.779.525,2.653.233-.875.35-1.779.525-2.653a4.87,4.87,0,0,1,.729-2.158,4.111,4.111,0,0,1,3.557-1.9,5.424,5.424,0,0,0,4.928-3.47,5.308,5.308,0,0,0,.175-2.916ZM325.406,427.989a26.774,26.774,0,0,0-.554-2.653c-.233.875-.35,1.75-.525,2.653a4.724,4.724,0,0,1-.671,2.216,4.024,4.024,0,0,1-3.412,1.983,5.511,5.511,0,0,0-5.044,3.295,5.22,5.22,0,0,0-.262,2.916c.175.875.292,1.75.525,2.653.262-.9.35-1.779.525-2.653a5.248,5.248,0,0,1,.729-2.158,4.14,4.14,0,0,1,3.557-1.9,5.394,5.394,0,0,0,4.928-3.47,5.629,5.629,0,0,0,.2-3.033ZM131.238,318.5c-.175-.9-.292-1.779-.525-2.653-.262.875-.35,1.75-.554,2.653a4.84,4.84,0,0,1-.671,2.216,4,4,0,0,1-3.412,1.983,5.54,5.54,0,0,0-2.6.671c-.262,1.05-.5,2.1-.729,3.149a4.082,4.082,0,0,1,3.353-1.633,5.278,5.278,0,0,0,5.132-6.386Zm49.949-86.018c-.175-.875-.262-1.75-.525-2.624-.233.875-.35,1.75-.525,2.624a5.657,5.657,0,0,1-.671,2.245,4.024,4.024,0,0,1-3.441,1.983,5.278,5.278,0,0,0-5.307,6.24c.2.875.292,1.75.554,2.624.233-.875.35-1.75.525-2.624a4.986,4.986,0,0,1,.729-2.187,4.14,4.14,0,0,1,3.557-1.866,5.248,5.248,0,0,0,5.1-6.415Zm105.292,20.586a4.928,4.928,0,0,0-1.75,2.187,5.22,5.22,0,0,0-.262,2.916c.175.875.292,1.75.525,2.653.233-.9.35-1.779.525-2.653a5.247,5.247,0,0,1,.729-2.158,4.287,4.287,0,0,1,.846-.933Zm-104.3,151.217c-.175-.875-.262-1.75-.525-2.624-.233.875-.35,1.75-.525,2.624a4.958,4.958,0,0,1-.671,2.216,4.053,4.053,0,0,1-3.441,2.012A5.453,5.453,0,0,0,172,411.806a5.161,5.161,0,0,0-.262,2.916c.175.875.262,1.75.525,2.624.233-.875.35-1.75.525-2.624a4.985,4.985,0,0,1,.729-2.187,4.082,4.082,0,0,1,3.557-1.866,5.249,5.249,0,0,0,5.1-6.415Zm35.69-141.944a4.665,4.665,0,0,1-2.07.991,4.024,4.024,0,0,1-3.82-1.166,5.307,5.307,0,0,0-8.164.9c-.5.758-1.021,1.458-1.487,2.245.816-.437,1.487-.991,2.245-1.487a5.453,5.453,0,0,1,2.041-1.108,4.17,4.17,0,0,1,3.849,1.021,5.453,5.453,0,0,0,5.832,1.225,5.248,5.248,0,0,0,2.274-1.9c.5-.729,1.021-1.429,1.487-2.216a12.629,12.629,0,0,0-2.187,1.341Zm-48.2,94.941a5.074,5.074,0,0,1-2.07,1.021,4.111,4.111,0,0,1-3.82-1.2,5.423,5.423,0,0,0-5.832-1.02,5.54,5.54,0,0,0-2.216,1.924c-.5.758-1.021,1.458-1.487,2.245.816-.437,1.487-.991,2.245-1.487a5.452,5.452,0,0,1,2.041-1.108,4.169,4.169,0,0,1,3.849,1.021,5.365,5.365,0,0,0,5.832,1.225,5.482,5.482,0,0,0,2.3-1.866c.467-.758,1.021-1.458,1.487-2.245a24.945,24.945,0,0,0-2.333,1.341Zm20.819,98.556a4.635,4.635,0,0,1-2.041,1.021,4.17,4.17,0,0,1-3.849-1.166,5.336,5.336,0,0,0-5.832-1.05,5.423,5.423,0,0,0-2.216,1.954c-.5.729-1.05,1.429-1.487,2.216.787-.437,1.487-.991,2.245-1.487a4.988,4.988,0,0,1,2.041-1.079,3.937,3.937,0,0,1,3.82,1.021,5.453,5.453,0,0,0,5.832,1.2,5.014,5.014,0,0,0,2.274-1.866c.5-.758,1.05-1.458,1.487-2.245A13.82,13.82,0,0,0,190.489,455.835ZM283.8,347.424a4.987,4.987,0,0,1-2.041,1.021,4.228,4.228,0,0,1-3.849-1.166,5.394,5.394,0,0,0-5.832-1.05,5.511,5.511,0,0,0-2.187,1.954c-.5.729-1.05,1.429-1.487,2.216.787-.437,1.487-.991,2.216-1.487a5.074,5.074,0,0,1,2.07-1.079,4,4,0,0,1,3.82.991,5.424,5.424,0,0,0,5.832,1.225,5.015,5.015,0,0,0,2.274-1.866c.5-.758,1.05-1.458,1.487-2.245a15.577,15.577,0,0,0-2.333,1.429ZM240.059,416.53a4.344,4.344,0,0,1-2.041,1.021,4.082,4.082,0,0,1-3.849-1.166,5.336,5.336,0,0,0-5.832-1.021,5.162,5.162,0,0,0-2.216,1.924c-.5.758-1.05,1.458-1.487,2.245.787-.467,1.487-.991,2.245-1.487a5.453,5.453,0,0,1,2.041-1.108,4.17,4.17,0,0,1,3.849,1.021,5.423,5.423,0,0,0,5.832,1.225,5.249,5.249,0,0,0,2.274-1.9,24.944,24.944,0,0,0,1.487-2.245,18.494,18.494,0,0,0-2.391,1.429Zm-99.373,13.588a4.345,4.345,0,0,1-2.041,1.021,4.053,4.053,0,0,1-3.849-1.166,5.365,5.365,0,0,0-5.832-1.021,5.248,5.248,0,0,0-2.187,1.925c-.5.758-1.05,1.458-1.487,2.245.787-.437,1.487-.991,2.216-1.487a5.453,5.453,0,0,1,2.041-1.108,4.111,4.111,0,0,1,3.849,1.02,5.453,5.453,0,0,0,5.832,1.225,5.248,5.248,0,0,0,2.274-1.9,24.958,24.958,0,0,0,1.487-2.245,18.492,18.492,0,0,0-2.391,1.429Z" transform="translate(-66.146 -14.677)" fill="#fff"/>
            <path id="Path_35724" data-name="Path 35724" d="M183.76,196.778c-30.587,39.306-105.9,158.186-81.819,185.449s179.938,35.34,222.276,19.274c12.6-4.782-27.263-84.123-41.347-87.068-11.663-2.42-89.9-2.3-90.392-4.782-.787-4.345,17.728-55.4,29.159-105.963C234.2,149.366,204.376,170.331,183.76,196.778Z" transform="translate(-97.266 -3.468)" fill="#ad6359"/>
            <path id="Path_35725" data-name="Path 35725" d="M184.77,220.255c29.8,1.6,37.206,6.59,63.07-5.424,16.97-7.873,29.159-.408,17.5,15.046-19.332,25.31-58.317,31.287-72.284,29.508Z" transform="translate(70.378 76.889)" fill="#ad6359"/>
            <path id="Path_35726" data-name="Path 35726" d="M156.48,227.747s36.1-11.663,68.027-13.18c22.1-.991,70.36,2.216,106.371,57.472,8.543,13.121,11.43,37.906-10.293,21.519-15.425-11.663-21.723-23.648-31.929-28.75,0,0,0,31.9-13.53,39.947a293.007,293.007,0,0,1-36.682,18.516,63.019,63.019,0,0,1-4.082-6.561s-13.3,6.327-34.757,0Z" transform="translate(16.178 82.197)" fill="#ad6359"/>
            <path id="Path_35727" data-name="Path 35727" d="M202.894,215.35c9.068,7.2,27.992,22.831,39.043,41,12.276,20.207,30.471,62.37,15.483,71.293-10.993,6.532-19.361-8.981-19.361-8.981s3.849,19.041-7.377,22.744c-10.206,3.412-15.95-8.981-15.95-8.981s.35,11.955-10.147,13.325c-12.6,1.662-11.255-23.648-25.485-33.008C175.923,310.553,202.894,215.35,202.894,215.35Z" transform="translate(59.018 83.952)" fill="#ad6359"/>
            <path id="Path_35728" data-name="Path 35728" d="M192.564,232.654c7.406,8.194,19.449,31.112,19.857,52.486,0,.467-.35.729-.467.292a232.623,232.623,0,0,0-19.595-52.66S192.477,232.567,192.564,232.654Z" transform="translate(84.919 117.063)" fill="#263238"/>
            <path id="Path_35729" data-name="Path 35729" d="M185.675,237.1c5.686,7.727,17.029,31.9,16.708,53.564,0,.5-.408.729-.467.292A249.889,249.889,0,0,0,185.5,237.221S185.617,237.017,185.675,237.1Z" transform="translate(71.777 125.588)" fill="#263238"/>
            <path id="Path_35730" data-name="Path 35730" d="M201.995,231.691c8.748,4.636,14.142,10.468,21.053,17.5a129.205,129.205,0,0,0,10.672,10.089c3.441,2.916,8.514,7.086,13.238,4.636a7.9,7.9,0,0,0,3.266-7.377,37.906,37.906,0,0,0-3.12-11.663c0-.146.2-.262.263,0a56.135,56.135,0,0,1,3.82,10.672,13.063,13.063,0,0,1-.583,7.552c-2.42,4.957-8.748,4.432-12.771,2.158a43.74,43.74,0,0,1-6.736-5.044c-2.041-1.779-3.995-3.645-5.832-5.54-3.907-3.907-7.581-8.048-11.43-11.984a120.886,120.886,0,0,0-11.984-10.526C201.616,231.866,201.82,231.6,201.995,231.691Z" transform="translate(102.898 115.226)" fill="#263238"/>
            <path id="Path_35731" data-name="Path 35731" d="M220.318,268.8a293.8,293.8,0,0,0-13.559-36.915c0-.175,0-.292.233-.146,6.036,8.4,14.259,29.159,15.862,35.748s3.266,14.579,1.983,21.082c-1.924,9.885-8.748,10.468-11.372,10.5a13.034,13.034,0,0,1-8.135-2.916,26.242,26.242,0,0,1-6.211-8.748c0-.175,0-.321.233,0,2.654,4.549,7.581,9.506,13.092,9.826a9.156,9.156,0,0,0,6.765-2.1,11.9,11.9,0,0,0,3.12-7.64,54.645,54.645,0,0,0-2.012-18.691Z" transform="translate(97.871 115.233)" fill="#263238"/>
            <path id="Path_35732" data-name="Path 35732" d="M191.322,292.958,103,284.968s53.01-73.8,80.682-100.335c28.838-27.672,45.925-23.531,30.908,27.205C199.69,261.816,191.322,292.958,191.322,292.958Z" transform="translate(-86.282 -7.448)" fill="#00a0ad"/>
            <path id="Path_35733" data-name="Path 35733" d="M134.4,205.448h0l-.875,1.079h.642c.875-.175,1.75-.292,2.624-.554A18.567,18.567,0,0,0,134.4,205.448Zm31.579,78.2a5.394,5.394,0,0,1-2.187-.729,4.2,4.2,0,0,1-1.72-3.616,5.394,5.394,0,0,0-3.47-4.928,5.832,5.832,0,0,0-2.916-.2c-.875.2-1.75.292-2.624.554.875.233,1.75.35,2.624.525a5.22,5.22,0,0,1,2.245.671,4.024,4.024,0,0,1,1.983,3.441,5.482,5.482,0,0,0,1.691,3.936l5.832.525Zm16.212-109.841a5.452,5.452,0,0,1-2.041,1.108A4.17,4.17,0,0,1,176.3,173.9a5.453,5.453,0,0,0-5.832-1.225,5.249,5.249,0,0,0-2.274,1.9c-.5.729-1.021,1.429-1.487,2.245.816-.467,1.516-.991,2.245-1.487a4.431,4.431,0,0,1,2.07-1.021,4.024,4.024,0,0,1,3.82,1.166,5.307,5.307,0,0,0,8.164-.9c.5-.758,1.021-1.458,1.487-2.245-.875.467-1.545.991-2.3,1.487Zm-3.441,42.367c-.175-.875-.262-1.75-.525-2.624-.233.875-.35,1.75-.525,2.624a5.657,5.657,0,0,1-.671,2.245,4.024,4.024,0,0,1-3.441,1.983,5.278,5.278,0,0,0-5.307,6.24c.2.875.292,1.75.554,2.624.233-.875.35-1.75.525-2.624a4.986,4.986,0,0,1,.729-2.187,4.14,4.14,0,0,1,3.557-1.866,5.249,5.249,0,0,0,5.1-6.415ZM130.2,248.253a4.636,4.636,0,0,1-2.041,1.021,4.082,4.082,0,0,1-3.849-1.166,5.336,5.336,0,0,0-5.832-1.021,5.161,5.161,0,0,0-2.216,1.924,24.95,24.95,0,0,0-1.487,2.245c.787-.467,1.487-1.021,2.245-1.487a4.724,4.724,0,0,1,2.041-1.108,3.936,3.936,0,0,1,3.82,1.021,5.54,5.54,0,0,0,5.832,1.225,5.248,5.248,0,0,0,2.274-1.9c.5-.758,1.05-1.429,1.487-2.245-.816.467-1.516.991-2.274,1.487Z" transform="translate(-63.713 1.479)" fill="#fff"/>
            <path id="Path_35734" data-name="Path 35734" d="M176.019,209.148c-2.07-.437-4.228-.583-6.327-.816l-6.5-.758c-4.374-.5-8.748-.933-13.18-1.341-8.748-.816-17.5-1.691-26.389-2.362l-7.26-.5c-2.566,0-5.132,0-7.669-.2-.146,0-.146.233,0,.262,2.158.262,4.315.7,6.5.991s4.461.554,6.677.758c4.4.467,8.748.875,13.209,1.254,8.748.758,17.32,1.545,25.98,2.1l7.29.437c2.537.175,5.1.467,7.64.408Z" transform="translate(-75.587 60.616)" fill="#263238"/>
            <path id="Path_35735" data-name="Path 35735" d="M131.86,255.875h4.782l-.35.262c1.225-5.832,2.712-11.663,4.082-17.5s2.916-11.663,4.636-17.5c3.266-11.663,6.707-23.094,10.789-34.407-2.333,11.838-5.278,23.327-8.4,34.99q-2.362,8.748-4.957,17.349c-1.808,5.832-3.5,11.489-5.511,17.145v.292h-.262A48.526,48.526,0,0,1,131.86,255.875Z" transform="translate(-30.99 29.139)" fill="#263238"/>
            <path id="Path_35736" data-name="Path 35736" d="M137.46,207.818a42.956,42.956,0,0,1,3.732-9.068,41.459,41.459,0,0,1,5.511-7.99,40.819,40.819,0,0,1-3.732,9.068,42.8,42.8,0,0,1-5.511,7.99Z" transform="translate(-20.261 36.84)" fill="#263238"/>
            <path id="Path_35737" data-name="Path 35737" d="M180.958,233.683c-12.334,2.158-32.074-17.5-39.481-33.212-.5-1.05,6.211-42.134,6.706-50.415,0-1.691,51.173,15.658,51.173,15.658a132.237,132.237,0,0,0-6.881,31.491C192.388,198.43,192.855,231.584,180.958,233.683Z" transform="translate(-12.615 -41.365)" fill="#ad6359"/>
            <path id="Path_35738" data-name="Path 35738" d="M193.812,165.6a132.231,132.231,0,0,0-6.881,31.491v3.966a26.772,26.772,0,0,1-5.074,0c-28.2-2.3-35.661-37.556-37.527-51.057l1.545.35,1.691.437,1.021.262,3.557,1.021,1.545.467c2.274.671,4.782,1.458,7.377,2.274l1.108.35,7.115,2.274.962.321,2.158.7,2.216.729,6.823,2.245.933.321,3.441,1.137.787.262,3.616,1.225.612.2,1.9.641h.35l.671.2Z" transform="translate(-7.099 -41.25)" fill="#263238"/>
            <path id="Path_35739" data-name="Path 35739" d="M151.478,141.122c-9.535,16.766-11.663,70.856-1.6,85.347,14.754,20.965,44.759,29.421,64.149,10.351,18.691-18.487,20.411-89.05,8.456-102.784C204.839,113.772,165.591,116.4,151.478,141.122Z" transform="translate(-9.145 -97.746)" fill="#ad6359"/>
            <path id="Path_35740" data-name="Path 35740" d="M164.214,142.408c0-.146-.292,0-.292.292,0,3.674-.729,7.844-4.082,8.893v.2C163.922,151.418,164.739,145.877,164.214,142.408Z" transform="translate(22.616 -55.906)" fill="#263238"/>
            <path id="Path_35741" data-name="Path 35741" d="M163.547,141.02c-5.832-.7-6.823,11.022-1.429,11.663S168.563,141.661,163.547,141.02Z" transform="translate(20.191 -58.513)" fill="#263238"/>
            <path id="Path_35742" data-name="Path 35742" d="M168.551,143.14s.262.2.233.35c-.408,3.616-.292,7.844,2.916,9.331v.2C167.677,152.121,167.56,146.522,168.551,143.14Z" transform="translate(38.31 -54.393)" fill="#263238"/>
            <path id="Path_35743" data-name="Path 35743" d="M171.96,141.94c5.832,0,5.336,11.809,0,11.663S167.032,141.882,171.96,141.94Z" transform="translate(38.459 -56.692)" fill="#263238"/>
            <path id="Path_35744" data-name="Path 35744" d="M160.79,144.118a44.424,44.424,0,0,0,4.695-1.225,7.785,7.785,0,0,0,4.549-2.129,2.537,2.537,0,0,0-.146-2.916,6.24,6.24,0,0,0-6.152-1.166,9.185,9.185,0,0,0-5.54,3.47,2.653,2.653,0,0,0,2.6,3.965Z" transform="translate(18.779 -67.443)" fill="#263238"/>
            <path id="Path_35745" data-name="Path 35745" d="M177.2,145.394a36.619,36.619,0,0,1-4.549-1.6,7.9,7.9,0,0,1-4.345-2.508,2.508,2.508,0,0,1,.408-2.916,6.152,6.152,0,0,1,6.211-.612,9.039,9.039,0,0,1,5.219,3.907,2.624,2.624,0,0,1-2.945,3.732Z" transform="translate(38.267 -65.803)" fill="#263238"/>
            <path id="Path_35746" data-name="Path 35746" d="M159.091,153.829c.787.933,1.575,2.187,2.916,2.391a8.747,8.747,0,0,0,3.966-.583s.233,0,.146.2a4.84,4.84,0,0,1-4.782,1.575,3.82,3.82,0,0,1-2.566-3.441C158.683,153.771,158.975,153.712,159.091,153.829Z" transform="translate(20.536 -34.028)" fill="#263238"/>
            <path id="Path_35747" data-name="Path 35747" d="M160.543,175.106a12.393,12.393,0,0,0,7.785,6.211,15.19,15.19,0,0,0,4.432.583,2.712,2.712,0,0,0,.846,0h.816a.962.962,0,0,0,.816-.758h0v-.379h0v-.321c.321-2.916.408-7.056.408-7.056.991.583,6.007,3.382,6.036,1.924a185.24,185.24,0,0,0-1.6-37.906.35.35,0,0,0-.671,0c-.758,11.663.554,23.327,0,35.136a22.047,22.047,0,0,0-5.832-2.274c-.408,0,0,8.281-.292,9.506a.523.523,0,0,1,0,.146,17.116,17.116,0,0,1-12.451-5.074C160.66,174.611,160.339,174.815,160.543,175.106Z" transform="translate(23.837 -65.861)" fill="#263238"/>
            <path id="Path_35748" data-name="Path 35748" d="M172.545,155.391a14.93,14.93,0,0,1-6.269,4.053,6.648,6.648,0,0,1-4.053,0c-2.916-1.021-2.683-3.674-1.954-5.832a17.09,17.09,0,0,1,1.6-3.382A19.04,19.04,0,0,0,172.545,155.391Z" transform="translate(22.536 -40.81)" fill="#263238"/>
            <path id="Path_35749" data-name="Path 35749" d="M166.256,157.192a6.648,6.648,0,0,1-4.053,0c-2.916-1.021-2.683-3.674-1.954-5.832A6.852,6.852,0,0,1,166.256,157.192Z" transform="translate(22.498 -38.645)" fill="#ff98b9"/>
            <path id="Path_35750" data-name="Path 35750" d="M154.748,195.332c9.885.583,11.663-23.531,11.663-23.531s15.308-.933,25.076-20.615c0,0,17.845,14.4,34.378,13.384,25.893-1.6,29.159-34.611,20.411-42.426-12.334-11.109-37.906,0-37.906,0s-34.99-14.4-48.753,8.748a18.72,18.72,0,0,0-19.478,16.5C137.049,165.124,147.371,194.953,154.748,195.332Z" transform="translate(-16.205 -104.078)" fill="#263238"/>
            <path id="Path_35751" data-name="Path 35751" d="M147.711,156.361a33.532,33.532,0,0,0,20.178-8.077,25.164,25.164,0,0,0,8.4-21.49.35.35,0,0,1,.671,0c.787,8.748-.729,17.145-6.882,23.56a23.327,23.327,0,0,1-22.394,6.823C147.3,157.032,147.273,156.39,147.711,156.361Z" transform="translate(-1.237 -86.188)" fill="#263238"/>
            <path id="Path_35752" data-name="Path 35752" d="M143.376,127.4c5.832-5.832,13.471-5.832,20.965-4.665a.35.35,0,0,1,0,.671c-7.319-1.72-15.367,2.333-19.945,7.931s-4.52,13.092-3.761,19.828A52.952,52.952,0,0,0,157.9,185.013a.175.175,0,1,1-.2.262A52.952,52.952,0,0,1,138.1,148.157C137.6,141.1,138.1,132.674,143.376,127.4Z" transform="translate(-19.325 -94.663)" fill="#263238"/>
            <path id="Path_35753" data-name="Path 35753" d="M162.886,125.375a24.872,24.872,0,0,1,15.192-9.01A29.858,29.858,0,0,1,198.838,121a16.854,16.854,0,0,1,7.086,15.279,29.771,29.771,0,0,1-8.748,17.9c0,.146-.35,0-.233-.175a29.683,29.683,0,0,0,7.2-16.387,15.425,15.425,0,0,0-7.435-14.579c-9.856-5.832-25.135-6.911-33.212,2.916C163.119,126.133,162.594,125.7,162.886,125.375Z" transform="translate(28.288 -106.288)" fill="#263238"/>
            <path id="Path_35754" data-name="Path 35754" d="M166.136,168.194A15.629,15.629,0,1,1,185,152.332h0a15.629,15.629,0,0,1-15.017,16.183A15.278,15.278,0,0,1,166.136,168.194Zm6.094-28.488a12.829,12.829,0,0,0-3.353-.292,13.53,13.53,0,1,0,3.353.292Z" transform="translate(10.954 -65.626)" fill="#00a0ad"/>
            <path id="Path_35755" data-name="Path 35755" d="M176.228,169.352c-5.832-1.254-9.856-8.369-9.1-16.475a18.749,18.749,0,0,1,4.315-10.555,9.739,9.739,0,0,1,16.591,1.545,18.72,18.72,0,0,1,2.245,11.168c-.816,8.573-6.648,15.046-13.034,14.579Zm4.549-28.75h-.787a8.281,8.281,0,0,0-6.969,3.207,16.417,16.417,0,0,0-3.791,9.36c-.7,7.435,2.916,13.879,8.223,14.375s10.06-5.161,10.76-12.567a16.708,16.708,0,0,0-1.983-9.943,8.747,8.747,0,0,0-5.453-4.52Z" transform="translate(36.407 -63.518)" fill="#00a0ad"/>
            <path id="Path_35756" data-name="Path 35756" d="M164.975,145.51l-1.2-1.72c2.537-1.75,8.252-3.907,11.663.5l-1.662,1.283C170.749,141.719,165.209,145.51,164.975,145.51Z" transform="translate(30.164 -57.171)" fill="#00a0ad"/>
            <path id="Path_35757" data-name="Path 35757" d="M141.46,148.387l-1.75-1.108c.525-.816,5.278-8.019,9.972-8.339s32.074,4.957,33.183,5.161l-.379,2.07c-7.931-1.516-29.159-5.365-32.658-5.132S142.742,146.433,141.46,148.387Z" transform="translate(-15.951 -62.468)" fill="#00a0ad"/>
            <path id="Path_35758" data-name="Path 35758" d="M160.831,154.1s-8.339-19.3-16.854-16.65-4.665,28.9,3.645,34.086a9.3,9.3,0,0,0,13.238-2.391Z" transform="translate(-16.952 -65.765)" fill="#ad6359"/>
            <path id="Path_35759" data-name="Path 35759" d="M141.357,139.83c-.146,0-.2,0,0,.233,5.832,3.849,7.9,10.38,8.981,16.912a5.161,5.161,0,0,0-7.261-2.916c-.2,0,0,.379,0,.379a5.832,5.832,0,0,1,5.832,3.237,27.027,27.027,0,0,1,1.924,5.6c.175.641,1.254.554,1.166-.146v-.175C153.778,154.9,149.813,142.4,141.357,139.83Z" transform="translate(-13.049 -60.735)" fill="#263238"/>
            <path id="Path_35760" data-name="Path 35760" d="M139.985,168.368c1.487,2.683,2.741,5.453,4.374,8.077a88.307,88.307,0,0,0,5.394,7.669,83.626,83.626,0,0,0,12.626,13.063,30.208,30.208,0,0,0,17.145,8.164,16.387,16.387,0,0,0,14.9-7.873c4.257-6.5,4.2-14.579,4.141-22.306a.233.233,0,1,1,.437,0c.233,8.077.292,14.579-2.683,21.577a17.5,17.5,0,0,1-12.83,10.73c-13.792,2.362-25.135-9.8-32.687-19.682a86.406,86.406,0,0,1-6.094-9.068,67.06,67.06,0,0,1-5.161-10.206C139.461,168.28,139.869,168.134,139.985,168.368Z" transform="translate(-16.285 -6.287)" fill="#263238"/>
          </g>
        </g>
        <rect id="Rectangle_9837" data-name="Rectangle 9837" width="576" height="37.177" transform="translate(12873 -14662.486) rotate(180)" fill="#37474f"/>
        <g id="freepik--Device--inject-852" transform="translate(12490.965 -14850.299)">
          <rect id="Rectangle_9830" data-name="Rectangle 9830" width="227.583" height="10.206" transform="translate(0 140.428)" fill="#c7c7c7"/>
          <rect id="Rectangle_9831" data-name="Rectangle 9831" width="114.564" height="10.206" transform="translate(113.048 140.428)" fill="#a6a6a6"/>
          <path id="Path_35608" data-name="Path 35608" d="M226.25,359.164H448.06L477.044,208.53H255.234Z" transform="translate(-100.868 -208.53)" fill="#c7c7c7"/>
          <path id="Path_35609" data-name="Path 35609" d="M264.681,243.232a12.13,12.13,0,0,0,12.3,13.5,15.046,15.046,0,0,0,14.579-13.5,12.188,12.188,0,0,0-12.334-13.5,14.987,14.987,0,0,0-14.55,13.5Z" transform="translate(-27.388 -167.915)" fill="#a6a6a6"/>
        </g>
      </g>
    </g>
  </g>
</svg>
