<svg xmlns="http://www.w3.org/2000/svg" width="48" height="48" viewBox="0 0 48 48">
  <g id="Sound_management" data-name="Sound management" transform="translate(19254 -9078)">
    <g id="Rectangle_9631" data-name="Rectangle 9631" transform="translate(-19254 9078)" fill="#fff" stroke="#707070" stroke-width="1" opacity="0">
      <rect width="48" height="48" stroke="none"/>
      <rect x="0.5" y="0.5" width="47" height="47" fill="none"/>
    </g>
    <g id="equalizer" transform="translate(-19254 9078)">
      <path id="Path_34669" data-name="Path 34669" d="M8.986,2.5a6.486,6.486,0,1,0,6.357,7.784H49.2a1.3,1.3,0,1,0,0-2.595H15.343A6.489,6.489,0,0,0,8.986,2.5ZM5.095,8.986a3.892,3.892,0,1,1,3.892,3.892A3.892,3.892,0,0,1,5.095,8.986Z" transform="translate(-2.5 -2.5)" fill="#e27e28" fill-rule="evenodd"/>
      <path id="Path_34670" data-name="Path 34670" d="M49.2,21.689H15.343a6.486,6.486,0,1,0,0,2.595H49.2a1.3,1.3,0,1,0,0-2.595Zm-36.324,1.3a3.892,3.892,0,1,0-3.892,3.892A3.892,3.892,0,0,0,12.878,22.986Z" transform="translate(-2.5 18.527)" fill="#e27e28" fill-rule="evenodd"/>
      <path id="Path_34671" data-name="Path 34671" d="M3,15.986a1.3,1.3,0,0,1,1.3-1.3H23.757q.065,0,.128.006A6.488,6.488,0,0,1,36.6,14.689H48.405a1.3,1.3,0,1,1,0,2.595H36.6a6.488,6.488,0,0,1-12.715-.006q-.063.006-.128.006H4.3a1.3,1.3,0,0,1-1.3-1.3Zm27.243-3.892a3.892,3.892,0,1,0,3.892,3.892A3.892,3.892,0,0,0,30.243,12.095Z" transform="translate(-1.703 8.013)" fill="#e27e28" fill-rule="evenodd"/>
    </g>
  </g>
</svg>
