<svg xmlns="http://www.w3.org/2000/svg" width="13" height="13" viewBox="0 0 13 13">
  <g id="star_rate_black_24dp" transform="translate(0.171)">
    <rect id="Rectangle_9086" data-name="Rectangle 9086" width="13" height="13" transform="translate(-0.171)" fill="none"/>
    <path id="Path_33399" data-name="Path 33399" d="M11.159,8.238l-1-3.3a.68.68,0,0,0-1.3,0l-1.01,3.3H4.8a.682.682,0,0,0-.4,1.236l2.485,1.775L5.916,14.4a.682.682,0,0,0,1.065.744L9.5,13.229l2.519,1.918a.682.682,0,0,0,1.065-.744l-.976-3.147,2.485-1.775a.681.681,0,0,0-.4-1.236H11.159Z" transform="translate(-2.89 -3.448)" fill="#ebae20"/>
  </g>
</svg>
