<svg xmlns="http://www.w3.org/2000/svg" width="60.184" height="63.913" viewBox="0 0 60.184 63.913">
  <g id="Group_17242" data-name="Group 17242" transform="translate(-7006.753 -4622.9)">
    <g id="Group_16799" data-name="Group 16799" transform="translate(7006.853 4623)">
      <path id="Path_29574" data-name="Path 29574" d="M19.917,48.834A19.917,19.917,0,1,1,39.834,28.917,19.938,19.938,0,0,1,19.917,48.834Zm0-37.179A17.262,17.262,0,1,0,37.179,28.917,17.281,17.281,0,0,0,19.917,11.656Z" transform="translate(0 14.879)" fill="#e37e28" stroke="#e27e28" stroke-width="0.2"/>
      <path id="Path_29578" data-name="Path 29578" d="M19.609,63.721H15.328a1.329,1.329,0,0,1-.42-2.589,10.31,10.31,0,0,0,7.059-9.794V15.92H15.328A1.329,1.329,0,0,1,14.34,13.7L26.29.425a1.38,1.38,0,0,1,1.976,0L40.216,13.7a1.329,1.329,0,0,1-.988,2.217H32.59v34.82A12.993,12.993,0,0,1,19.609,63.721Zm-1.3-50.457h4.985a1.328,1.328,0,0,1,1.328,1.328V51.341a12.947,12.947,0,0,1-4.358,9.7,10.336,10.336,0,0,0,9.669-10.3V14.592a1.328,1.328,0,0,1,1.328-1.328h4.985L27.278,3.3Z" transform="translate(19.408 -0.008)" fill="#e37e28" stroke="#e27e28" stroke-width="0.2"/>
      <path id="Path_29565" data-name="Path 29565" d="M23.465,7.967A.967.967,0,0,0,22.5,7H8.967a.967.967,0,0,0,0,1.933H13.8A3.87,3.87,0,0,1,17.666,12.8h-8.7a.967.967,0,0,0,0,1.933h8.162A3.854,3.854,0,0,1,13.8,16.666H8.967a.968.968,0,0,0-.605,1.722l9.666,7.733a.977.977,0,0,0,.605.211.967.967,0,0,0,.605-1.722L11.723,18.6H13.8a5.792,5.792,0,0,0,5.444-3.866H22.5a.967.967,0,1,0,0-1.933H19.6a5.762,5.762,0,0,0-1.508-3.866H22.5a.967.967,0,0,0,.967-.967Z" transform="translate(3.233 28.569)" fill="#e27e28" stroke="#e27e28" stroke-width="0.2"/>
    </g>
  </g>
</svg>
