<svg xmlns="http://www.w3.org/2000/svg" width="48.205" height="48.201" viewBox="0 0 48.205 48.201">
  <g id="Moderate_stability_and_credibility" data-name="Moderate stability and credibility" transform="translate(19343.102 -8781.898)">
    <g id="Rectangle_9632" data-name="Rectangle 9632" transform="translate(-19343 8782)" fill="#fff" stroke="#707070" stroke-width="1" opacity="0">
      <rect width="48" height="48" stroke="none"/>
      <rect x="0.5" y="0.5" width="47" height="47" fill="none"/>
    </g>
    <g id="hike" transform="translate(-19343 8782)">
      <g id="Group_18823" data-name="Group 18823" transform="translate(0 8)">
        <path id="Path_34672" data-name="Path 34672" d="M1.236,36c-.158,0-.248,0-.266,0A1,1,0,0,1,1,34c.03,0,.054,0,.266,0,3.058,0,34.4-.722,41.764-29.251a1,1,0,0,1,1.936.5C37.233,35.217,4.534,36,1.236,36Z" transform="translate(0 -4)" fill="#e27e28" stroke="#e27e28" stroke-width="0.2"/>
      </g>
      <g id="Group_18824" data-name="Group 18824" transform="translate(37.802 8.002)">
        <path id="Path_34673" data-name="Path 34673" d="M28.1,11.195a1,1,0,0,1-.866-.5l-2.5-4.33-4.33,2.5a1,1,0,0,1-1-1.732l5.2-3a1.023,1.023,0,0,1,.758-.1.992.992,0,0,1,.608.466l3,5.2a1,1,0,0,1-.866,1.5Z" transform="translate(-18.901 -4.001)" fill="#e27e28" stroke="#e27e28" stroke-width="0.2"/>
      </g>
      <g id="Group_18825" data-name="Group 18825" transform="translate(41.999 20.001)">
        <path id="Path_34674" data-name="Path 34674" d="M22,38a1,1,0,0,1-1-1V11a1,1,0,0,1,2,0V37A1,1,0,0,1,22,38Z" transform="translate(-21 -10)" fill="#e27e28" stroke="#e27e28" stroke-width="0.2"/>
      </g>
      <g id="Group_18826" data-name="Group 18826" transform="translate(29.999 34)">
        <path id="Path_34675" data-name="Path 34675" d="M16,31a1,1,0,0,1-1-1V18a1,1,0,0,1,2,0V30A1,1,0,0,1,16,31Z" transform="translate(-15 -17)" fill="#e27e28" stroke="#e27e28" stroke-width="0.2"/>
      </g>
      <g id="Group_18827" data-name="Group 18827" transform="translate(18 40)">
        <path id="Path_34676" data-name="Path 34676" d="M10,28a1,1,0,0,1-1-1V21a1,1,0,0,1,2,0v6A1,1,0,0,1,10,28Z" transform="translate(-9 -20)" fill="#e27e28" stroke="#e27e28" stroke-width="0.2"/>
      </g>
      <g id="Group_18828" data-name="Group 18828" transform="translate(6 42)">
        <path id="Path_34677" data-name="Path 34677" d="M4,27a1,1,0,0,1-1-1V22a1,1,0,0,1,2,0v4A1,1,0,0,1,4,27Z" transform="translate(-3 -21)" fill="#e27e28" stroke="#e27e28" stroke-width="0.2"/>
      </g>
      <g id="Group_18829" data-name="Group 18829" transform="translate(0 0)">
        <path id="Path_34678" data-name="Path 34678" d="M12,28a.97.97,0,0,1-.388-.08C11.136,27.721,0,22.907,0,13.072V4.714a1,1,0,0,1,.68-.948l11-3.714a1,1,0,0,1,.64,0l11,3.714a1,1,0,0,1,.68.948v8.358c0,9.836-11.136,14.649-11.612,14.849A1,1,0,0,1,12,28ZM2,5.432v7.64c0,7.57,8.11,11.916,10,12.828,1.888-.914,10-5.276,10-12.828V5.432L12,2.056Z" transform="translate(0 0)" fill="#e27e28" stroke="#e27e28" stroke-width="0.2"/>
      </g>
      <g id="Group_18830" data-name="Group 18830" transform="translate(5.999 9.002)">
        <path id="Path_34679" data-name="Path 34679" d="M8,13.5a.469.469,0,0,1-.054,0,1.009,1.009,0,0,1-.728-.372l-4-5A1,1,0,1,1,4.78,6.875L8.08,11l6.21-6.21A1,1,0,1,1,15.7,6.207l-7,7A.986.986,0,0,1,8,13.5Z" transform="translate(-2.999 -4.501)" fill="#e27e28" stroke="#e27e28" stroke-width="0.2"/>
      </g>
    </g>
  </g>
</svg>
