<svg xmlns="http://www.w3.org/2000/svg" width="576" height="576" viewBox="0 0 576 576">
  <g id="Group_18560" data-name="Group 18560" transform="translate(5450 -10093)">
    <g id="Rectangle_8522" data-name="Rectangle 8522" transform="translate(-5450 10093)" fill="#fff" stroke="#707070" stroke-width="1" opacity="0">
      <rect width="576" height="576" stroke="none"/>
      <rect x="0.5" y="0.5" width="575" height="575" fill="none"/>
    </g>
    <g id="Call_center-cuate" data-name="Call center-cuate" transform="translate(-5439.592 10117.585)">
      <g id="freepik--Desk--inject-5" transform="translate(0 510.405)">
        <path id="Path_34346" data-name="Path 34346" d="M30.76,437.89l69.4-.3,69.4-.114,138.8-.2,138.8.2,69.4.114,69.4.3-69.4.317-69.4.114-138.8.2-138.8-.2-69.4-.114Z" transform="translate(-30.76 -437.27)" fill="#263238"/>
      </g>
      <g id="freepik--character-2--inject-5" transform="translate(261.531 47.555)">
        <path id="Path_34347" data-name="Path 34347" d="M380.542,81.743c7-8.217,18.992-10.193,30.59-7.85s25.488,8.192,26.754,27.59c1.038,15.751-3.8,31.109-3.8,48.684s19.891,60.383-11.94,81.275c-28.6,18.764-86.554,1.532-88.34-37.1-1.405-30.616,34.908-58.927,38.732-71.044S372.869,90.733,380.542,81.743Z" transform="translate(-211.643 -71.38)" fill="#263238"/>
        <path id="Path_34348" data-name="Path 34348" d="M375.343,93.55c-.215,8.762-1.481,17.625-5.065,25.893a24.89,24.89,0,0,1-3.608,5.812c-1.406,1.773-2.9,3.444-4.394,5.065-3.013,3.279-5.989,6.533-8.863,9.914a90.366,90.366,0,0,0-14,22.018,69.233,69.233,0,0,0-5.558,25.323,59.776,59.776,0,0,1,.393-13.193,65.068,65.068,0,0,1,3.381-12.864,80.158,80.158,0,0,1,13.826-22.854c2.874-3.431,5.926-6.711,8.964-9.952s6.116-6.331,8-10.129a55.707,55.707,0,0,0,4.394-12.206A104.513,104.513,0,0,0,375.343,93.55Z" transform="translate(-211.673 -65.903)" fill="#263238"/>
        <path id="Path_34349" data-name="Path 34349" d="M415.956,105.94c-.215,8.939-.785,17.865-.544,26.741a109.264,109.264,0,0,0,1.114,13.206c.658,4.3,1.95,8.61,3.026,12.965s2.039,8.774,2.748,13.231a76.856,76.856,0,0,1,.861,13.535,48.01,48.01,0,0,1-2.532,13.358A33.946,33.946,0,0,1,413.17,210.3a35.793,35.793,0,0,0,6.331-11.7,47.649,47.649,0,0,0,1.747-13.016,114.536,114.536,0,0,0-4.128-26.171c-1.013-4.343-2.3-8.648-2.925-13.219a86.277,86.277,0,0,1-.684-13.51,219.365,219.365,0,0,1,2.444-26.741Z" transform="translate(-190.51 -62.606)" fill="#263238"/>
        <path id="Path_34350" data-name="Path 34350" d="M410.495,175.766c-29.122,32.059-52.887,47.456-76.311,47.456-22.272,0-69.854-54.078-73.348-61.206-3.013-6.154,36.047-39.821,42.049-35.63,10.129,7.014,42.619,47.62,46.063,47.81S365.077,166,395.63,151.7C414.192,143.023,430.753,153.545,410.495,175.766Z" transform="translate(-231.099 -57.26)" fill="#eb9481"/>
        <path id="Path_34351" data-name="Path 34351" d="M271.584,176.533c-4.28-4.634-22.246-27.767-25.8-35.313s-12.18-30.008-6.673-33.313,8.547,3.064,8.547,3.064-2.14-10.053,3.71-12.877,10.256,7.242,10.256,7.242-1.443-10.484,4.583-12.889,8.787,8.483,8.787,8.483-1.773-9.534,4.026-9.42c6.977.139,8.255,18.081,12.8,26.121,1.026,1.823,23.538,35.452,23.538,35.452Z" transform="translate(-237.315 -66.447)" fill="#eb9481"/>
        <path id="Path_34352" data-name="Path 34352" d="M267.059,98.32c.975,13.181,3.684,18.79,11.4,29.261.152.2-.114.468-.291.279-8.521-9.572-12.927-16.106-11.775-29.527C266.477,97.675,267.008,97.687,267.059,98.32Z" transform="translate(-229.625 -64.761)" fill="#263238"/>
        <path id="Path_34353" data-name="Path 34353" d="M256.621,101.69c2.2,13.611,5.065,19.714,12.4,31.274.1.165-.165.355-.279.2-8.116-10.75-12.37-17.372-12.788-31.261C255.925,101.272,256.52,101.057,256.621,101.69Z" transform="translate(-232.355 -63.838)" fill="#263238"/>
        <path id="Path_34354" data-name="Path 34354" d="M245.883,107.457c3.089,13.029,5.964,19.853,14.5,30.16.2.253-.139.57-.355.342-9.724-9.673-13.371-18.169-14.523-30.388C245.427,106.761,245.693,106.634,245.883,107.457Z" transform="translate(-235.139 -62.351)" fill="#263238"/>
        <path id="Path_34355" data-name="Path 34355" d="M314.515,153.774s-.291-16.574-2.026-23.829-18.081-31.894-23.664-28.653c-7.128,4.178-.469,20.259,3.8,27.729,0,0-16.46,9.673-14.219,22.259S314.515,153.774,314.515,153.774Z" transform="translate(-226.435 -63.921)" fill="#eb9481"/>
        <path id="Path_34356" data-name="Path 34356" d="M287.387,102.656c-3.8,8.509,2.532,17.941,6.141,25.475a.772.772,0,0,1-.557,1.127c-6.66,4.52-14.725,12.814-14.827,21.3a.19.19,0,0,1-.38,0c-1.127-9.116,6.128-17.929,13.725-22.4-3.8-7.686-9.711-17.41-4.178-25.576Z" transform="translate(-226.58 -63.5)" fill="#263238"/>
        <path id="Path_34357" data-name="Path 34357" d="M339.34,160.417l23.4,43.657s31.73-30.806,36.794-43.657-.392-22.183-22.968-15.308a197.606,197.606,0,0,0-37.225,15.308Z" transform="translate(-210.16 -52.8)" fill="#00a0ad"/>
        <path id="Path_34358" data-name="Path 34358" d="M366.22,191.51c-1.152-2.368-2.165-4.811-3.368-7.166s-2.406-4.685-3.659-6.989c-2.532-4.659-5.065-9.332-7.7-13.928-1.494-2.532-3.064-5.141-4.7-7.6-.063-.114-.279,0-.215.089,4.292,9.61,9.5,18.815,14.687,27.957,1.507,2.646,3.216,5.166,4.786,7.774C366.107,191.713,366.284,191.6,366.22,191.51Z" transform="translate(-208.236 -49.34)" fill="#263238"/>
        <path id="Path_34359" data-name="Path 34359" d="M397.928,159.75c-5.065,12.852-36.794,43.657-36.794,43.657L345.37,174.044l52-28.754C400.359,148.4,400.321,153.685,397.928,159.75Z" transform="translate(-208.556 -52.133)" fill="#263238"/>
        <path id="Path_34360" data-name="Path 34360" d="M345.5,234.294s-12.864,30.793-8.319,54.217H479.019c-4.609-63.675-36.351-118.4-55.1-136.112-15.118-14.282-31.034-13-42.112-5.7-2.608,1.735-31.388,41.5-34.5,47.8C334.943,219.328,345.5,234.294,345.5,234.294Z" transform="translate(-210.993 -53.176)" fill="#00a0ad"/>
        <path id="Path_34361" data-name="Path 34361" d="M374.12,150.783s-8.863,25.488-3.722,26.817c12.788,3.292,29.945-17.587,30.97-19.714.253-.544,1.393-14.814,2.241-25.918.544-7.141.962-12.978.962-12.978l-31.553,10.826,1.013,19.562Z" transform="translate(-202.321 -59.132)" fill="#eb9481"/>
        <path id="Path_34362" data-name="Path 34362" d="M372.09,129.816l1.013,19.562c6.419-.9,20.537-4.381,29.577-17.41.544-7.141.962-12.978.962-12.978l-3.95,1.266Z" transform="translate(-201.444 -59.132)" fill="#263238"/>
        <path id="Path_34363" data-name="Path 34363" d="M353.547,114.853c-.38,9.939.608,17.979,3.026,23.323a27.108,27.108,0,0,0,23.538,15.878c3.8.139,14.738-.861,22.652-6.888,6.154-4.685,9.863-13.13,11.965-27.982C419.539,85.225,404,73.8,388.7,72.436S354.813,80.59,353.547,114.853Z" transform="translate(-206.4 -71.556)" fill="#eb9481"/>
        <path id="Path_34364" data-name="Path 34364" d="M360.771,100.729c.8-.114,1.532-.342,2.3-.519a3.963,3.963,0,0,0,2.266-.975,1.266,1.266,0,0,0,0-1.494,3.039,3.039,0,0,0-2.988-.671,4.457,4.457,0,0,0-2.773,1.608,1.266,1.266,0,0,0,1.19,2.051Z" transform="translate(-204.85 -65.005)" fill="#263238"/>
        <path id="Path_34365" data-name="Path 34365" d="M379.139,101.4a22.6,22.6,0,0,1-2.3-.532,3.8,3.8,0,0,1-2.254-.988,1.266,1.266,0,0,1,0-1.494,3.026,3.026,0,0,1,3-.646,4.444,4.444,0,0,1,2.786,1.633,1.266,1.266,0,0,1-1.228,2.026Z" transform="translate(-200.846 -64.829)" fill="#263238"/>
        <path id="Path_34366" data-name="Path 34366" d="M373.762,107.365c0-.089.177.114.177.215-.19,2.317,0,5.065,2.064,5.9v.127C373.42,113.126,373.217,109.53,373.762,107.365Z" transform="translate(-201.064 -62.232)" fill="#263238"/>
        <path id="Path_34367" data-name="Path 34367" d="M375.949,105.51c3.8-.1,3.7,7.432.2,7.534S372.847,105.6,375.949,105.51Z" transform="translate(-201.048 -62.72)" fill="#263238"/>
        <path id="Path_34368" data-name="Path 34368" d="M376.715,105.884c.646.43,1.266,1.19,2.077,1.266s1.621-.684,2.228-1.443c.063-.076.127,0,.127.089,0,1.443-.557,2.925-2.115,3.127s-2.406-1.114-2.76-2.532C376.209,106.086,376.449,105.707,376.715,105.884Z" transform="translate(-200.333 -62.676)" fill="#263238"/>
        <path id="Path_34369" data-name="Path 34369" d="M364.4,106.585c0-.089-.177.114-.177.2,0,2.342-.241,5.065-2.355,5.8-.063,0-.063.139,0,.127C364.466,112.358,364.845,108.788,364.4,106.585Z" transform="translate(-204.177 -62.44)" fill="#263238"/>
        <path id="Path_34370" data-name="Path 34370" d="M362.857,104.652c-3.8-.291-4.064,7.242-.582,7.508S366,104.9,362.857,104.652Z" transform="translate(-204.708 -62.951)" fill="#263238"/>
        <path id="Path_34371" data-name="Path 34371" d="M361.836,105.117c-.608.38-1.266,1.076-1.937,1.1s-1.405-.823-1.9-1.621c0-.089-.114,0-.127.076-.089,1.443.316,2.95,1.7,3.292s2.228-.9,2.621-2.317C362.215,105.37,362.025,104.965,361.836,105.117Z" transform="translate(-205.231 -62.973)" fill="#263238"/>
        <path id="Path_34372" data-name="Path 34372" d="M374.491,121.692c-.544.57-1.076,1.342-1.912,1.443a6.5,6.5,0,0,1-2.532-.494.076.076,0,0,0-.1.114,3.165,3.165,0,0,0,3.014,1.165,2.532,2.532,0,0,0,1.76-2.127.127.127,0,0,0-.228-.1Z" transform="translate(-202.021 -58.428)" fill="#263238"/>
        <path id="Path_34373" data-name="Path 34373" d="M366.847,119.623s-.557,3.482-.582,5.128c0,.152.393.228.95.279h.063a7.812,7.812,0,0,0,7.6-2.76c.114-.152-.089-.329-.241-.228a11.851,11.851,0,0,1-7.179,1.9c-.1-.468,1.152-5.926.886-5.951a14.029,14.029,0,0,0-3.8.772c.95-7.28,3.052-14.346,3.875-21.6,0-.253-.342-.342-.418-.114-2.735,7.242-4,15.6-5.179,23.082C362.719,121.079,366.138,119.9,366.847,119.623Z" transform="translate(-203.912 -65.007)" fill="#263238"/>
        <path id="Path_34374" data-name="Path 34374" d="M367.12,118.874a8.635,8.635,0,0,0,3.241,2.937,3.925,3.925,0,0,0,2.33.329c1.735-.317,1.9-1.874,1.7-3.229a9.814,9.814,0,0,0-.608-2.1A11.168,11.168,0,0,1,367.12,118.874Z" transform="translate(-202.767 -59.713)" fill="#263238"/>
        <path id="Path_34375" data-name="Path 34375" d="M369.68,121.37a3.925,3.925,0,0,0,2.33.329c1.735-.317,1.9-1.874,1.7-3.229A4,4,0,0,0,369.68,121.37Z" transform="translate(-202.085 -59.272)" fill="#ff98b9"/>
        <path id="Path_34376" data-name="Path 34376" d="M413.862,116.29c-3.735.114-14.333-9.2-16.257-27.108,0,0,2.849,15.954,4.267,18.195s-5.926-5.255-7.686-19.663c0,0-7.47,6.508-14.13,9.04s-10.826,2.861-11.4,2.406,9.218-4.533,11.649-7.9c0,0-17.384,10.129-25.69,11.5-.962.152.658-14.8,12.826-24.424s28.894-7.217,34.9-2.406c0,0,6.559.342,14.46,9.268S417.876,116.163,413.862,116.29Z" transform="translate(-206.156 -71.715)" fill="#263238"/>
        <path id="Path_34377" data-name="Path 34377" d="M397.773,113.126s6.951-11.054,11.927-8.623.127,18.195-5.457,20.588a5.786,5.786,0,0,1-7.913-2.722Z" transform="translate(-194.992 -63.081)" fill="#eb9481"/>
        <path id="Path_34378" data-name="Path 34378" d="M407.531,108c.1,0,.114.114,0,.152-3.912,1.811-5.824,5.622-7.116,9.534,1.127-1.545,2.7-2.431,4.748-1.114.1.063,0,.241-.1.215a3.583,3.583,0,0,0-3.8,1.443,18.155,18.155,0,0,0-1.722,3.254c-.165.367-.823.215-.7-.2a.3.3,0,0,1,0-.1C398.491,116.065,402.1,108.747,407.531,108Z" transform="translate(-194.329 -62.058)" fill="#263238"/>
        <path id="Path_34379" data-name="Path 34379" d="M418.7,157.185c14.029,16.194,53.356,74.817,44.24,90.657-8.749,15.194-28.59,19.473-40.01-.937-8.217-14.6-22.031-58.155-25.462-79.046C394.686,150.943,405.739,142.206,418.7,157.185Z" transform="translate(-194.804 -51.011)" fill="#eb9481"/>
        <path id="Path_34380" data-name="Path 34380" d="M406.057,209.711l46.493-17.08s-26.1-35.718-38.111-42.518-22.018-2.7-18.347,20.613A196.161,196.161,0,0,0,406.057,209.711Z" transform="translate(-195.261 -51.638)" fill="#00a0ad"/>
        <path id="Path_34381" data-name="Path 34381" d="M442.025,177.831c-2.532.823-5.065,1.481-7.6,2.342s-4.963,1.735-7.42,2.659c-4.976,1.849-9.939,3.7-14.865,5.685-2.76,1.114-5.52,2.317-8.217,3.583-.127,0-.076.266,0,.228,10.129-2.912,19.955-6.787,29.729-10.648,2.836-1.127,5.558-2.532,8.357-3.659C442.2,177.97,442.114,177.793,442.025,177.831Z" transform="translate(-192.991 -43.473)" fill="#263238"/>
        <path id="Path_34382" data-name="Path 34382" d="M408.458,203.227a17.013,17.013,0,0,0-2.7.836c-1.266-2.748-4.267-14.827-4.963-17.929-1.393-6.179-2.532-12.421-3.988-18.6,0-.177-.342-.127-.317,0,.43,3.431.962,6.85,1.557,10.243-.633-1.621-1.266-3.254-1.76-4.913a.076.076,0,1,0-.139,0,50.334,50.334,0,0,0,2.115,6.052c.494,6.331,6.255,26.45,6.419,26.374a38.079,38.079,0,0,0,3.8-1.988C408.623,203.341,408.623,203.214,408.458,203.227Z" transform="translate(-195.041 -46.243)" fill="#263238"/>
        <path id="Path_34383" data-name="Path 34383" d="M390.529,102.214,377.3,158.7c-.57,1.659.279,2.988,1.9,2.963l25.26,5.141a4.685,4.685,0,0,0,3.976-3.064l13.231-56.483c.57-1.659-.279-2.988-1.9-2.95L394.5,99.15a4.685,4.685,0,0,0-3.976,3.064Z" transform="translate(-200.105 -64.413)" fill="#a6a6a6"/>
        <path id="Path_34384" data-name="Path 34384" d="M392.231,102.464l-13.193,56.483c-.57,1.659.279,2.988,1.9,2.963l25.26,5.141A4.685,4.685,0,0,0,410.172,164l13.181-56.483c.57-1.671-.279-2.988-1.9-2.963L396.206,99.4A4.723,4.723,0,0,0,392.231,102.464Z" transform="translate(-199.642 -64.346)" fill="#dbdbdb"/>
        <path id="Path_34385" data-name="Path 34385" d="M396.8,104.259a2.532,2.532,0,1,1-2.456-2.469A2.469,2.469,0,0,1,396.8,104.259Z" transform="translate(-196.214 -63.711)" fill="#263238"/>
        <path id="Path_34386" data-name="Path 34386" d="M427.148,250.971c8.217,15.194,29.97,6.533,33.262-4.178,7.724-25.133,2.937-66.916-1.671-90.252-1.482-7.508-52.482,0-52.178,8.116C406.915,174.469,411.042,221.089,427.148,250.971Z" transform="translate(-192.27 -49.962)" fill="#eb9481"/>
        <path id="Path_34387" data-name="Path 34387" d="M460.176,182.4a79.186,79.186,0,0,0,.456-33.705c-2.684-12.142-11.459-37.9-46.734-49.38-8.369-2.735-22.234-.7-10.129,8.724,8.559,6.7,16,8.357,20.259,13.168,0,0-17.321,4.685-19.727,13.168a163.61,163.61,0,0,0-4.723,22.639,34.656,34.656,0,0,0,4.153,1.266,33.668,33.668,0,0,0,4.888,21.12Z" transform="translate(-194.277 -64.667)" fill="#eb9481"/>
        <path id="Path_34388" data-name="Path 34388" d="M459.443,133.285c-5.242-3.8-16.46-11.877-27.969-15.194-12.763-3.8-38.327-7.47-40.985,1.963-1.95,6.926,7.686,9.218,7.686,9.218s-10.889.684-11.281,7.318c-.354,6.052,7.2,7.382,7.2,7.382s-6.533,1.545-5.761,7.445c.937,7.078,14.5,2.672,21.651,9.028C411.6,161.837,459.443,133.285,459.443,133.285Z" transform="translate(-197.507 -60.437)" fill="#eb9481"/>
        <path id="Path_34389" data-name="Path 34389" d="M427.414,129.28c-5.52-2.836-19.727-6.04-31.4-3.14-.266,0-.355.291-.1.291a131.147,131.147,0,0,1,31.477,2.963C427.452,129.419,427.477,129.305,427.414,129.28Z" transform="translate(-195.144 -57.533)" fill="#263238"/>
        <path id="Path_34390" data-name="Path 34390" d="M424.181,139.061c-5.065-1.95-19.815-4.609-31.54-1.266-.266.076-.342.317-.089.3a139.1,139.1,0,0,1,31.654,1.089.065.065,0,1,0-.025-.127Z" transform="translate(-196.039 -54.551)" fill="#263238"/>
        <path id="Path_34391" data-name="Path 34391" d="M423.558,241.088c-.38-1.266-.747-2.532-1.152-3.685-.836-2.532-1.557-5.065-2.292-7.6-1.494-5.065-2.925-10.205-4.178-15.371a272.134,272.134,0,0,1-5.685-31.249c-.354-2.912-.658-5.824-.975-8.737s-.418-5.938-.975-8.863c0-.152-1.481-2.38-2.064-3.482a29.629,29.629,0,0,1-1.583-3.545,32.793,32.793,0,0,1-1.912-7.7.089.089,0,0,0-.165,0,24.969,24.969,0,0,0,1.114,8.863,15.663,15.663,0,0,0,3.925,6.331c0,.38.089,5.065.241,7.686s.393,5.242.684,7.85c.6,5.242,1.329,10.471,2.254,15.675a238.184,238.184,0,0,0,7.521,31.109,1.883,1.883,0,0,0,.165.494v1.14a22.941,22.941,0,0,0,.228,2.8,26.414,26.414,0,0,0,1.355,5.406.1.1,0,1,0,.19,0,35.988,35.988,0,0,1-.912-5.571l-.228-1.925c.7,2.051,1.431,4.1,2.152,6.141.506,1.418,1.026,2.8,1.608,4.178s1.038,2.722,1.722,4c0,.1.2,0,.177-.076C424.457,243.608,423.951,242.367,423.558,241.088Z" transform="translate(-193.339 -50.664)" fill="#263238"/>
      </g>
      <g id="freepik--character-1--inject-5" transform="translate(17.464 219.327)">
        <path id="Path_34393" data-name="Path 34393" d="M137.809,319.395c11.142,48.481,34.186,106.6,44.024,116.031,12.446,11.927,94.785,33.806,98.887,34.25,10.129,1.026,30.552-72.171,19.714-73.754-16.46-2.38-76.425-5.634-80.008-9.319s-29.033-35.769-55.04-71.816C147.432,289.881,130.883,289.311,137.809,319.395Z" transform="translate(-20.161 -183.674)" fill="#ad6359"/>
        <path id="Path_34394" data-name="Path 34394" d="M243.9,445.056c1.2.608,18.41,9.268,29.046,12.345,7.939,2.3,30.958,8.319,34.364-.177,2.33-5.774-10.8-10.9-19.993-14.738-4.849-2.026-10.826-7.091-9.395-10.205,2.532-5.444,14.979,0,23.183,4.786,15.865,9.218,37,25.817,46.683,17.726,3.659-3.039-.6-8.585-6.812-14.016,10.129,6.331,20.866,11.522,25.057,8.306,2.418-1.836,2.532-4.356,1.19-7.217,3.115,1.013,5.862.81,7.787-1.266,3.279-3.444,1.684-8.509-1.912-13.712a3.9,3.9,0,0,0,2.988-1.95c6.951-10.6-27.855-41.023-39.871-43.872-35.389-8.42-72.69-6.85-72.69-6.85C249.623,385.369,243.862,445.031,243.9,445.056Z" transform="translate(8.505 -163.006)" fill="#ad6359"/>
        <path id="Path_34395" data-name="Path 34395" d="M285.016,404.411a60.092,60.092,0,0,1,23.614,9.078c8.977,5.926,14.928,12.864,22.449,19.841a.215.215,0,0,1-.279.317c-3.583-3.317-18.448-15.8-22.284-18.638a57.305,57.305,0,0,0-23.5-10.458C284.9,404.537,284.927,404.385,285.016,404.411Z" transform="translate(19.428 -154.939)" fill="#263238"/>
        <path id="Path_34396" data-name="Path 34396" d="M290.232,392.541c9.306,2.532,18.84,5.065,27.476,9.521,9.445,4.811,16.84,12.662,24.057,20.259q6.559,6.8,12.8,13.928c.165.2-.1.519-.279.316q-11.066-11.7-22.791-22.791a75.741,75.741,0,0,0-25.07-15.8c-5.318-2.039-10.788-3.647-16.257-5.267C290.092,392.68,290.13,392.515,290.232,392.541Z" transform="translate(20.809 -158.098)" fill="#263238"/>
        <path id="Path_34397" data-name="Path 34397" d="M298.068,382.17c9.04,1.861,16.929,3.444,24.931,8.281,10.6,6.419,20.828,17.22,24.411,21.056,3.963,4.229,7.787,8.585,11.535,13,.152.177-.152.456-.317.279a300.092,300.092,0,0,0-27.564-27.311,60.042,60.042,0,0,0-15.422-10.028,107.131,107.131,0,0,0-17.587-5.217S297.992,382.158,298.068,382.17Z" transform="translate(22.912 -160.858)" fill="#263238"/>
        <path id="Path_34398" data-name="Path 34398" d="M286.5,392.2l-25.323,80.224s-68.562-19.575-81.034-33.085-35.655-83.275-42.454-117.094,10.294-32.92,26.007-11.661,54.837,72.994,56.977,74.121S286.5,392.2,286.5,392.2Z" transform="translate(-20.171 -183.908)" fill="#00a0ad"/>
        <path id="Path_34399" data-name="Path 34399" d="M286.5,392.2l-25.323,80.224s-68.562-19.575-81.034-33.085-35.655-83.275-42.454-117.094,10.294-32.92,26.007-11.661,54.837,72.994,56.977,74.121S286.5,392.2,286.5,392.2Z" transform="translate(-20.171 -183.908)" opacity="0.1"/>
        <path id="Path_34400" data-name="Path 34400" d="M231.835,416.563c3.077-9.458,6.217-18.891,8.926-28.463,1.545-5.432,3.115-10.876,4.609-16.321.063-.215-.279-.329-.355-.127-3.457,9.37-6.9,18.777-9.927,28.3s-6.1,18.992-8.99,28.451c-1.633,5.419-3.115,10.864-4.419,16.371,0,.1.152.165.19.063C225.643,435.581,228.745,426.084,231.835,416.563Z" transform="translate(2.591 -163.685)" fill="#263238"/>
        <path id="Path_34401" data-name="Path 34401" d="M226.591,461.4l-3.039-1.064c-5.71-2.039-11.535-4.229-17.017-6.47-.709-.279-1.405-.57-2.089-.861-1.1-.456-2.2-.924-3.267-1.393l-1.6-.7-.57-.253-1.646-.76c-2.178-1-4.242-2-6.166-3.013l-1.266-.709a47.693,47.693,0,0,1-8.458-5.558c-.241-.215-.481-.431-.7-.646s-.443-.431-.633-.633c-12.535-13.51-35.655-83.275-42.454-117.094l-.228-1.165v-.253c-.456-2.532-.861-5.748-1.19-9.192h0c-.95-16.827,7.014-19.575,16.853-12.18C177.654,352.088,215.221,439.06,226.591,461.4Z" transform="translate(-20.161 -183.903)" fill="#263238"/>
        <path id="Path_34402" data-name="Path 34402" d="M210.906,475.749,61.5,476.534c.127-3.216,21.4-97.292,38.314-132.01,21.689-44.518,32.92-48.114,39.542-50.494,8.547-3.064,23.766-1.545,27.374.165,4.1,1.912,17.144,24.677,21.816,41.378C197.89,369.164,213.008,473.7,210.906,475.749Z" transform="translate(-40.042 -184.785)" fill="#ebebeb"/>
        <path id="Path_34403" data-name="Path 34403" d="M132.348,296.44s18.992,70.335,19.942,75.007c1.431,6.787,10.9,103.622,10.9,103.622l-104.141.354S81.778,385.78,98.693,346.529C117.154,303.48,132.348,296.44,132.348,296.44Z" transform="translate(-40.694 -183.675)" fill="#00a0ad"/>
        <g id="Group_18559" data-name="Group 18559" transform="translate(18.356 112.765)" opacity="0.1">
          <path id="Path_34404" data-name="Path 34404" d="M132.348,296.44s18.992,70.335,19.942,75.007c1.431,6.787,10.9,103.622,10.9,103.622l-104.141.354S81.778,385.78,98.693,346.529C117.154,303.48,132.348,296.44,132.348,296.44Z" transform="translate(-59.05 -296.44)"/>
        </g>
        <path id="Path_34405" data-name="Path 34405" d="M145.69,294.65c.557,2.241,18.068,59.383,19.284,73.627,1.355,15.8,13.333,107.623,13.333,107.623H193.5s-21.993-131.921-28.033-145.861C153.11,301.589,145.69,294.65,145.69,294.65Z" transform="translate(-17.635 -184.151)" fill="#00a0ad"/>
        <path id="Path_34406" data-name="Path 34406" d="M145.69,294.65c.557,2.241,18.068,59.383,19.284,73.627,1.355,15.8,13.333,107.623,13.333,107.623H193.5s-21.993-131.921-28.033-145.861C153.11,301.589,145.69,294.65,145.69,294.65Z" transform="translate(-17.635 -184.151)" opacity="0.1"/>
        <path id="Path_34407" data-name="Path 34407" d="M116.181,311.967c-25.019,26.8-85.845,128.5-66.549,147.051s126.426-6.419,156.51-20.765c8.952-4.254-25.057-60.066-35.579-61.371-8.762-1.076-53.533,19.4-54.837,16.827-1.456-2.912,5.66-24.4,16.46-63.308C144.581,285.555,127.247,300.116,116.181,311.967Z" transform="translate(-44.191 -182.755)" fill="#ad6359"/>
        <path id="Path_34408" data-name="Path 34408" d="M179.48,350.065c21.753-3.039,27.855-.468,44.809-12.776,11.155-8.078,21.107-4.419,14.738,8.407-10.408,20.993-37.656,30.793-48.114,31.477Z" transform="translate(-8.641 -173.942)" fill="#ad6359"/>
        <path id="Path_34409" data-name="Path 34409" d="M133.84,367.549s24.449-13.573,47.316-19.094c15.8-3.8,51.127-8.293,84.934,26.589,8.015,8.268,13.573,25.741-4.419,16.992-12.788-6.217-18.992-14.016-27.108-16.283,0,0,4.432,23.057-4.166,30.768A212.557,212.557,0,0,1,206.5,425.058a43.649,43.649,0,0,1-3.874-4.153s-8.711,6.445-25.1,4.875Z" transform="translate(-20.789 -170.509)" fill="#ad6359"/>
        <path id="Path_34410" data-name="Path 34410" d="M184.454,347c7.6,3.938,23.437,12.56,33.971,24.133,11.712,12.864,30.793,40.77,21.208,49.38-7.014,6.268-15.194-3.8-15.194-3.8s5.457,13.206-2.127,17.473c-6.9,3.9-12.8-4.229-12.8-4.229s1.937,8.572-5.444,11.041c-8.863,2.963-11.471-15.5-23.057-20.259C178.364,419.6,184.454,347,184.454,347Z" transform="translate(-8.411 -170.218)" fill="#ad6359"/>
        <path id="Path_34411" data-name="Path 34411" d="M198.1,374c6.5,4.875,18.423,19.727,21.715,35.111.076.355-.139.6-.279.291a170.767,170.767,0,0,0-21.525-35.288C197.908,374,198.009,374,198.1,374Z" transform="translate(-3.721 -163.032)" fill="#263238"/>
        <path id="Path_34412" data-name="Path 34412" d="M188.12,383.635c5.179,4.786,16.789,20.638,19.587,36.351.063.354-.177.582-.291.266a183.044,183.044,0,0,0-19.41-36.516C187.93,383.66,188.006,383.571,188.12,383.635Z" transform="translate(-6.38 -160.473)" fill="#263238"/>
        <path id="Path_34413" data-name="Path 34413" d="M213.418,369.36c7.09,2.089,11.7,5.571,17.726,9.724a97.43,97.43,0,0,0,9.129,5.786c2.887,1.557,7.154,3.912,10.218,1.469,1.722-1.355,1.7-3.8,1.266-5.786a28.451,28.451,0,0,0-3.9-8.065c0-.1.089-.215.165-.127a41.164,41.164,0,0,1,4.254,7.192,9.446,9.446,0,0,1,.646,5.533c-1.051,3.9-5.66,4.419-8.863,3.343a31.409,31.409,0,0,1-5.571-2.7c-1.722-.988-3.393-2.051-5.065-3.165-3.368-2.279-6.6-4.748-9.939-7.065a91.973,91.973,0,0,0-10.129-5.9.127.127,0,0,1,.063-.241Z" transform="translate(0.356 -164.267)" fill="#263238"/>
        <path id="Path_34414" data-name="Path 34414" d="M228.274,394.3c-1.836-4.039-11.775-20.879-14.991-24.779a.1.1,0,0,1,.139-.139c5.533,5.242,14.409,19.157,16.46,23.614s4.406,10.041,4.406,14.941c0,7.407-4.913,8.863-6.723,9.18a9.572,9.572,0,0,1-6.331-1.038,19.272,19.272,0,0,1-5.723-5.369c-.076-.1.063-.241.152-.139,2.532,2.925,6.837,5.8,10.851,5.267a6.686,6.686,0,0,0,4.583-2.469,8.75,8.75,0,0,0,1.19-5.964A40.948,40.948,0,0,0,228.274,394.3Z" transform="translate(0.352 -164.265)" fill="#263238"/>
        <path id="Path_34415" data-name="Path 34415" d="M157.6,380.069l34.288,72.171S57.781,482.349,46.208,459s40.517-114.714,63.979-141.328c27.21-30.844,30.679-20.347,24.69,6.989-6.331,28.615-18.4,69.993-18.4,69.993Z" transform="translate(-44.553 -183.029)" fill="#00a0ad"/>
        <path id="Path_34416" data-name="Path 34416" d="M157.6,380.069l34.288,72.171S57.781,482.349,46.208,459s40.517-114.714,63.979-141.328c27.21-30.844,30.679-20.347,24.69,6.989-6.331,28.615-18.4,69.993-18.4,69.993Z" transform="translate(-44.553 -183.029)" opacity="0.1"/>
        <path id="Path_34417" data-name="Path 34417" d="M69.177,394.633a151.293,151.293,0,0,1,40.3-19.866c4.064-1.266,8.167-2.469,12.269-3.647.127,0,.177.165,0,.2a193.264,193.264,0,0,0-21.006,8.179Q90.5,384.06,80.483,388.985c-3.8,1.861-7.5,3.9-11.218,5.888a.152.152,0,0,1-.089-.24Z" transform="translate(-38.007 -163.798)" fill="#263238"/>
        <path id="Path_34418" data-name="Path 34418" d="M142.178,368.845c-.671.177-37.352,12.294-38.554,12.852.152-.557,6.736-20.056,7.724-22.917.089-.279.177-.57.279-.848.658-1.266,1.342-2.532,1.963-3.8.785-1.659,1.57-3.343,2.342-5.065h-.076l-2.532,4.9c-.393.747-.76,1.519-1.127,2.292.646-2.013,1.266-4.039,1.887-6.078.988-3.229,1.874-6.5,2.748-9.762,0-.114-.127-.139-.165,0-1.95,5.685-4.077,11.307-6.04,16.992S101.117,384,101.18,384s40.39-14.257,41.175-14.573a.3.3,0,1,0-.177-.582Z" transform="translate(-29.481 -171.995)" fill="#263238"/>
        <path id="Path_34419" data-name="Path 34419" d="M139.47,407.9c-3.8-8.04-7.483-16.131-11.547-24.057-2.317-4.495-4.609-9-6.964-13.472-.089-.165-.393,0-.317.139,3.469,8.23,6.964,16.46,10.813,24.551s7.6,16.08,11.509,24.057q3.343,6.8,7.1,13.383c0,.089.2,0,.165,0C147.042,424.123,143.281,416.032,139.47,407.9Z" transform="translate(-24.304 -164.015)" fill="#263238"/>
        <path id="Path_34420" data-name="Path 34420" d="M190.764,422.555c-1.342-2.228-3.039-5.419-4.47-7.6-.38-.57-.823-.456-.519.139,1.026,2.026,1.874,4.292,2.874,6.331-1.874.38-3.8.709-5.647,1.1-2.178.456-4.343.924-6.521,1.367l-12.814,2.532q-12.991,2.418-26.083,4.254a511.4,511.4,0,0,1-52.748,4.951c-4.938.177-9.889.266-14.827.2a142.864,142.864,0,0,1-14.586-.709.12.12,0,0,0,0,.241,80.926,80.926,0,0,0,12.662,1.646c4.47.215,8.952.317,13.434.266,8.863-.1,17.815-.684,26.691-1.494,17.6-1.621,35.149-4,52.546-7.078q7.318-1.266,14.6-2.748c2.456-.494,4.9-.988,7.344-1.532S190.991,422.935,190.764,422.555Z" transform="translate(-41.69 -152.23)" fill="#263238"/>
        <path id="Path_34421" data-name="Path 34421" d="M152.3,327.782c-8.863,2.444-24.728-10.661-31.211-21.525-.443-.747.43-8.8,1.026-18.638.342-5.964.57-12.662.342-18.714,0-1.266,38.529,7.875,38.529,7.875s-3.292,12.89-2.836,23.5a13.931,13.931,0,0,0,.355,2.532,2.9,2.9,0,0,1,.076.405C159.526,307.916,160.868,325.414,152.3,327.782Z" transform="translate(-24.215 -191.036)" fill="#ad6359"/>
        <path id="Path_34422" data-name="Path 34422" d="M124,269c2.152,10.231,9.471,34.857,29.856,34.566a24.248,24.248,0,0,0,3.9-.355,1.822,1.822,0,0,0,0-.418,16.463,16.463,0,0,1-.367-2.532c-.443-10.623,2.836-23.525,2.836-23.525S132.344,270.152,124,269Z" transform="translate(-23.408 -190.978)" fill="#263238"/>
        <path id="Path_34423" data-name="Path 34423" d="M156.2,257.868c-.43,9.344,5.875,17.22,14.08,17.6s15.194-6.913,15.612-16.257-5.888-17.22-14.08-17.587S156.622,248.523,156.2,257.868Z" transform="translate(-14.842 -198.269)" fill="#455a64"/>
        <ellipse id="Ellipse_986" data-name="Ellipse 986" cx="18.84" cy="16.536" rx="18.84" ry="16.536" transform="translate(135.66 78.784) rotate(-87.41)" fill="#c7c7c7"/>
        <path id="Path_34424" data-name="Path 34424" d="M127.169,233.959c-6.635,12.51-7.053,52.28.747,62.687,11.307,15.067,33.528,20.6,47.228,6.2,13.333-14,12.953-65.84,3.9-75.678C165.737,212.65,136.97,215.486,127.169,233.959Z" transform="translate(-23.905 -204.571)" fill="#ad6359"/>
        <path id="Path_34425" data-name="Path 34425" d="M152.816,254.875c0-.1-.215.139-.2.253.139,2.672-.139,5.761-2.532,6.7-.076,0-.063.165,0,.152C153.044,261.5,153.373,257.395,152.816,254.875Z" transform="translate(-16.48 -194.744)" fill="#263238"/>
        <path id="Path_34426" data-name="Path 34426" d="M150.995,252.711c-4.318-.228-4.457,8.42-.469,8.622S154.616,252.9,150.995,252.711Z" transform="translate(-17.115 -195.315)" fill="#263238"/>
        <path id="Path_34427" data-name="Path 34427" d="M164.116,255.135c0-.1.2.139.2.241-.127,2.684.177,5.774,2.532,6.7.076,0,0,.165,0,.152C163.926,261.757,163.559,257.655,164.116,255.135Z" transform="translate(-12.789 -194.675)" fill="#263238"/>
        <path id="Path_34428" data-name="Path 34428" d="M166.549,253c4.3-.266,4.508,8.382.506,8.623S162.927,253.153,166.549,253Z" transform="translate(-12.778 -195.238)" fill="#263238"/>
        <path id="Path_34429" data-name="Path 34429" d="M147.654,248.387a34.627,34.627,0,0,0,3.52-.506,5.723,5.723,0,0,0,3.482-1.266,1.823,1.823,0,0,0,.127-2.228,4.52,4.52,0,0,0-4.394-1.266,6.609,6.609,0,0,0-4.318,2.089,1.95,1.95,0,0,0,1.583,3.178Z" transform="translate(-17.649 -197.904)" fill="#263238"/>
        <path id="Path_34430" data-name="Path 34430" d="M170.689,249.225a32.621,32.621,0,0,1-3.419-.95,5.71,5.71,0,0,1-3.3-1.583,1.823,1.823,0,0,1,.139-2.228,4.558,4.558,0,0,1,4.533-.772,6.673,6.673,0,0,1,4.026,2.608,1.95,1.95,0,0,1-1.975,2.925Z" transform="translate(-12.854 -197.792)" fill="#263238"/>
        <path id="Path_34431" data-name="Path 34431" d="M148.427,274.49c.633.633,1.266,1.507,2.228,1.608a7.191,7.191,0,0,0,2.887-.633.1.1,0,0,1,.114.139,3.583,3.583,0,0,1-3.419,1.405,2.874,2.874,0,0,1-2.077-2.406C148.123,274.452,148.326,274.389,148.427,274.49Z" transform="translate(-16.978 -189.53)" fill="#263238"/>
        <path id="Path_34432" data-name="Path 34432" d="M150.712,274.242a9.1,9.1,0,0,0,6.014,4.153,11.4,11.4,0,0,0,3.279.215,5.085,5.085,0,0,0,.633-.063l.582-.089a.671.671,0,0,0,.557-.582h0a2.051,2.051,0,0,0,0-.279h0v-.241c.089-2.064,0-5.2,0-5.2.747.393,4.571,2.19,4.52,1.114-.38-8.939-.81-18.866-3.077-27.666a.253.253,0,0,0-.494,0c0,8.6,1.57,17.131,1.735,25.766a16.281,16.281,0,0,0-4.28-1.38c-.291.089.393,6.065.279,6.989a.567.567,0,0,1,0,.1c-3.482.38-6.078-.709-9.395-3.089C150.763,273.849,150.547,274.014,150.712,274.242Z" transform="translate(-16.313 -197.258)" fill="#263238"/>
        <path id="Path_34433" data-name="Path 34433" d="M159.043,271.483a10.75,10.75,0,0,1-4.381,3.292,4.9,4.9,0,0,1-2.963.139c-2.127-.608-2.152-2.532-1.735-4.242a11.662,11.662,0,0,1,1-2.532,14.029,14.029,0,0,0,8.078,3.343Z" transform="translate(-16.553 -191.207)" fill="#263238"/>
        <path id="Path_34434" data-name="Path 34434" d="M154.662,274.242a4.9,4.9,0,0,1-2.963.139c-2.127-.608-2.152-2.532-1.735-4.242C152.256,270.419,154.5,272.014,154.662,274.242Z" transform="translate(-16.553 -190.675)" fill="#ff98b9"/>
        <path id="Path_34435" data-name="Path 34435" d="M122.18,261.04c2.608-.418,8.863-9.243,11.509-12.75s4.178-22.31,4.419-26.589a28.172,28.172,0,0,0-10.965,11.218C124.181,238.54,122.471,249.593,122.18,261.04Z" transform="translate(-23.892 -203.568)" fill="#263238" opacity="0.2"/>
        <path id="Path_34436" data-name="Path 34436" d="M165.134,234.931A13.472,13.472,0,0,1,152.7,239.1a13.725,13.725,0,0,1-10.307-8.521c0-.139-.253-.063-.2.063a13.573,13.573,0,0,0,10.294,9.534,13.852,13.852,0,0,0,12.9-5.065.165.165,0,0,0-.253-.177Z" transform="translate(-18.568 -201.225)" fill="#263238"/>
        <path id="Path_34437" data-name="Path 34437" d="M154.373,207.38c-7.812-.076-15.105,4.014-18.131,9.23a15.118,15.118,0,0,0-1.773,9.8c0,.139.291.114.279,0a16.574,16.574,0,0,1,8.293-14.725,21.385,21.385,0,0,1,18.992-1.671,13.421,13.421,0,0,1,7.065,6.052c.152.291.734.127.62-.165C167.744,210.938,161.425,207.444,154.373,207.38Z" transform="translate(-20.67 -207.379)" fill="#263238"/>
        <path id="Path_34438" data-name="Path 34438" d="M190.262,224.429a17.258,17.258,0,0,0-7.04-9.484c-4.7-3.115-10.129-2.849-15.5-2.469a.114.114,0,0,0,0,.228c4.583-.3,9.256-.355,13.383,1.937a16.891,16.891,0,0,1,7.6,8.471,16.46,16.46,0,0,1-7.47,20.258,16.764,16.764,0,0,1-13.244.924c-.177-.063-.3.177-.139.253a16.853,16.853,0,0,0,22.436-20.119Z" transform="translate(-11.8 -206.082)" fill="#263238"/>
        <path id="Path_34439" data-name="Path 34439" d="M124.554,243.842s-6.913-14.219-.43-22.069c3.672-4.444,15.3-3.431,15.3-3.431s3.988-6.546,13.712-8.407,21.2,4.229,21.2,4.229,9.446-4.951,17.929.317c11.839,7.344,9.661,25.69-2.722,31.16-8.686,3.8-20.005-4.128-20.005-4.128-1.127.114-12.8,6.571-21.056-3.925,0,0-7.242,5.976-13.383,1.38A10.129,10.129,0,0,1,124.554,243.842Z" transform="translate(-24.113 -206.793)" fill="#263238"/>
        <path id="Path_34440" data-name="Path 34440" d="M131.18,259.106s-6.571-13.928-12.763-11.851-2.76,21.347,3.444,24.969a6.862,6.862,0,0,0,9.686-2.064Z" transform="translate(-25.763 -196.822)" fill="#ad6359"/>
        <path id="Path_34441" data-name="Path 34441" d="M118.63,251.54c-.1,0-.152.127,0,.177,4.33,2.684,6.04,7.432,6.977,12.206-1.076-1.963-2.811-3.229-5.394-1.988a.152.152,0,0,0,.076.279,4.242,4.242,0,0,1,4.33,2.241,20.8,20.8,0,0,1,1.545,4.077c.152.456.937.355.861-.152a.367.367,0,0,0,0-.114C128.088,262.353,124.91,253.249,118.63,251.54Z" transform="translate(-24.862 -195.625)" fill="#263238"/>
        <path id="Path_34442" data-name="Path 34442" d="M143.85,282.8l-12.472-5.381L121.35,264.937l1.925-1.557,9.648,12.016,11.915,5.141Z" transform="translate(-24.113 -192.474)" fill="#c7c7c7"/>
        <path id="Path_34443" data-name="Path 34443" d="M138.094,277.577c1.266-3.634,11.4-2.292,9.559,3.2S136.866,281.186,138.094,277.577Z" transform="translate(-19.687 -189.236)" fill="#37474f"/>
        <path id="Path_34444" data-name="Path 34444" d="M117.608,257.128s-1.355-20.423,4.621-31.654c6.66-12.548,34.262-24.487,53.179-11,0,0-30.73-5.5-45.05,11.9-6.027,7.318-5.875,31.325-5.875,31.325Z" transform="translate(-25.144 -207.075)" fill="#c7c7c7"/>
        <ellipse id="Ellipse_987" data-name="Ellipse 987" cx="16.536" cy="18.84" rx="16.536" ry="18.84" transform="matrix(1, -0.01, 0.01, 1, 78.341, 41.87)" fill="#c7c7c7"/>
        <path id="Path_34445" data-name="Path 34445" d="M135.127,258.169c.089,9.357-6.483,17-14.687,17.081s-14.941-7.432-15.029-16.789,6.483-17,14.687-17.08S135.038,248.812,135.127,258.169Z" transform="translate(-28.356 -198.33)" fill="#455a64"/>
        <path id="Path_34446" data-name="Path 34446" d="M159.985,296.7l-8.926,22.538L122.975,290.9l-7.875,9.167s27.539,45.088,27.7,43.049l9.18-19.435,13.447,13.434-1.266-33.857Z" transform="translate(-25.776 -185.15)" fill="#ebebeb"/>
        <path id="Path_34447" data-name="Path 34447" d="M165.892,318.413c-.393-5.584-.62-11.218-1.266-16.777a.19.19,0,0,0-.38,0c-1.089,5.406.519,26.741.519,31.869H164.7c-.557-.582-12.459-11.813-12.573-11.636-1.988,3.089-8.736,17.232-9.192,18.524-4.356-7.166-22.791-35.389-27.982-42.163a.19.19,0,1,0-.329.19c3.8,7.6,27.729,44.835,28.058,44.733a221.085,221.085,0,0,0,9.61-20.537c2.013,2.444,14.016,15.131,14.054,14.295a174.729,174.729,0,0,0-.456-18.5Z" transform="translate(-25.909 -183.224)" fill="#263238"/>
      </g>
      <g id="freepik--call-button--inject-5" transform="translate(404.968 242.98)">
        <path id="Path_34448" data-name="Path 34448" d="M404.082,254.7H364.92a14.333,14.333,0,0,1-14.32-14.32h0a14.32,14.32,0,0,1,14.32-14.32h39.162a14.32,14.32,0,0,1,14.32,14.32h0a14.32,14.32,0,0,1-14.32,14.32Z" transform="translate(-350.6 -226.06)" fill="#455a64"/>
        <g id="freepik--IaQ7Yo--inject-5" transform="translate(22.869 8.885)">
          <path id="Path_34449" data-name="Path 34449" d="M368.67,238.259a2.532,2.532,0,0,1,.431-1.266l.354-.519.747-.747.874-.633a10.839,10.839,0,0,1,3.95-1.532,25.1,25.1,0,0,1,9.813,0,10.559,10.559,0,0,1,3.9,1.507c.3.2.608.43.9.646l.734.734a9.813,9.813,0,0,1,.532.861,6.757,6.757,0,0,1,.3.937h-6.419a.228.228,0,0,1-.241-.139,2.178,2.178,0,0,0-1.836-1.178,43.638,43.638,0,0,0-5.609,0,2.152,2.152,0,0,0-1.823,1.165c0,.089-.089.152-.215.152H368.67Z" transform="translate(-368.659 -233.078)" fill="#fff"/>
          <path id="Path_34450" data-name="Path 34450" d="M368.672,240.492V238.15H375v2.342a.709.709,0,0,1-.81.81H369.47a.7.7,0,0,1-.8-.81Z" transform="translate(-368.661 -231.727)" fill="#fff"/>
          <path id="Path_34451" data-name="Path 34451" d="M381.441,240.56v-2.38h6.268v2.355a.709.709,0,0,1-.785.785H382.15a.684.684,0,0,1-.709-.76Z" transform="translate(-365.261 -231.719)" fill="#fff"/>
        </g>
      </g>
      <g id="freepik--Device--inject-5" transform="translate(195.213 367.621)">
        <rect id="Rectangle_9505" data-name="Rectangle 9505" width="8.686" height="5.672" transform="translate(93.876 144.975)" fill="#455a64"/>
        <rect id="Rectangle_9506" data-name="Rectangle 9506" width="8.686" height="5.672" transform="translate(105.132 144.595)" fill="#455a64"/>
        <rect id="Rectangle_9507" data-name="Rectangle 9507" width="8.686" height="5.672" transform="translate(116.401 144.215)" fill="#455a64"/>
        <rect id="Rectangle_9508" data-name="Rectangle 9508" width="8.686" height="5.672" transform="translate(127.67 143.848)" fill="#455a64"/>
        <rect id="Rectangle_9509" data-name="Rectangle 9509" width="8.686" height="5.672" transform="translate(138.939 143.468)" fill="#455a64"/>
        <rect id="Rectangle_9510" data-name="Rectangle 9510" width="8.686" height="5.672" transform="translate(150.207 143.101)" fill="#455a64"/>
        <rect id="Rectangle_9511" data-name="Rectangle 9511" width="8.686" height="5.672" transform="translate(161.476 142.721)" fill="#455a64"/>
        <rect id="Rectangle_9512" data-name="Rectangle 9512" width="8.686" height="5.672" transform="translate(172.745 142.341)" fill="#455a64"/>
        <rect id="Rectangle_9513" data-name="Rectangle 9513" width="8.686" height="5.672" transform="translate(184.001 141.974)" fill="#455a64"/>
        <path id="Path_34452" data-name="Path 34452" d="M360.48,448.1H257.39v-6.9l103.09-2.874Z" transform="translate(-165.654 -294.203)" fill="#37474f"/>
        <path id="Path_34453" data-name="Path 34453" d="M454.042,451.192H283.87L310.928,324.5H481.1Z" transform="translate(-158.606 -324.5)" fill="#455a64"/>
        <path id="Path_34454" data-name="Path 34454" d="M459.011,451.192H288.84L315.9,324.5H486.069Z" transform="translate(-157.283 -324.5)" fill="#37474f"/>
        <ellipse id="Ellipse_988" data-name="Ellipse 988" cx="11.383" cy="9.724" rx="11.383" ry="9.724" transform="matrix(0.734, -0.679, 0.679, 0.734, 219.398, 56.562)" fill="#263238"/>
        <path id="Path_34455" data-name="Path 34455" d="M402.823,452.625H319.13v-6.508l83.693-2.7Z" transform="translate(-149.221 -292.849)" fill="#455a64"/>
        <path id="Path_34456" data-name="Path 34456" d="M418.336,465.6H373.4L346.33,394.61h44.936Z" transform="translate(-141.982 -305.84)" fill="#455a64"/>
        <path id="Path_34457" data-name="Path 34457" d="M424.174,465.6H379.238L352.18,394.61h44.936Z" transform="translate(-140.425 -305.84)" fill="#263238"/>
        <path id="Path_34458" data-name="Path 34458" d="M273.5,458.439H187.207c-7.356,0,3.292-20.968,30.173-29.008S281.979,450.577,273.5,458.439Z" transform="translate(-184.938 -296.941)" fill="#37474f"/>
        <path id="Path_34459" data-name="Path 34459" d="M228.14,456.878a26.181,26.181,0,0,1,1.177-7.04,29.5,29.5,0,0,1,2.9-6.572,23.907,23.907,0,0,1,4.583-5.558,20.26,20.26,0,0,1,6.065-3.8c-.924.76-1.975,1.266-2.824,2.115l-1.266,1.127-1.266,1.266a30.055,30.055,0,0,0-4.178,5.508,41.339,41.339,0,0,0-3.064,6.242A52.262,52.262,0,0,0,228.14,456.878Z" transform="translate(-173.439 -295.38)" fill="#263238"/>
        <path id="Path_34460" data-name="Path 34460" d="M236.21,436.29a55.445,55.445,0,0,1,14.4,7.23,31.045,31.045,0,0,1,6.014,5.444,18.476,18.476,0,0,1,2.216,3.431,9.952,9.952,0,0,1,1.013,3.912,11.255,11.255,0,0,0-1.557-3.621,18.155,18.155,0,0,0-2.406-3.077,42.731,42.731,0,0,0-6.014-5.065c-2.14-1.545-4.406-2.925-6.673-4.292-1.14-.684-2.3-1.342-3.469-1.975S237.388,436.936,236.21,436.29Z" transform="translate(-171.291 -294.746)" fill="#263238"/>
      </g>
      <g id="freepik--speech-bubbles--inject-5" transform="translate(205.421 0)">
        <path id="Path_34461" data-name="Path 34461" d="M277.262,233.788a38.327,38.327,0,0,1-64.055,24.2L194,260.846l9.6-16.574a38.337,38.337,0,1,1,73.628-10.484Z" transform="translate(-192.734 7.711)" fill="#fff"/>
        <path id="Path_34462" data-name="Path 34462" d="M277.529,233.863a38.529,38.529,0,0,1-7.736,19.435,43.4,43.4,0,0,1-3.469,4,45.188,45.188,0,0,1-4.052,3.419,37.39,37.39,0,0,1-9.243,5.153,38.112,38.112,0,0,1-10.319,2.456,35.7,35.7,0,0,1-5.331.1,33.8,33.8,0,0,1-5.305-.544,38.745,38.745,0,0,1-18.992-9.37l.456.139L194.38,261.6l-1.38.253.7-1.266,9.547-16.625v.658a38.719,38.719,0,1,1,74.323-10.762Zm0,0a37.992,37.992,0,0,0-59.307-35.237,39.7,39.7,0,0,0-11.471,12.51,37.986,37.986,0,0,0-4.887,16.232,38.441,38.441,0,0,0,2.722,16.764l.139.342-.19.3-9.648,16.549-.684-1.013,19.195-2.684h.266l.19.177a37.8,37.8,0,0,0,18.359,9.458,33.973,33.973,0,0,0,5.2.633,38.122,38.122,0,0,0,5.242,0,37.477,37.477,0,0,0,10.243-2.254,35.832,35.832,0,0,0,9.243-4.976,46.973,46.973,0,0,0,4.052-3.381,43.055,43.055,0,0,0,3.482-3.963,38.479,38.479,0,0,0,7.85-19.461Z" transform="translate(-193 7.636)" fill="#263238"/>
        <path id="Path_34463" data-name="Path 34463" d="M248.484,223.634a4.634,4.634,0,1,1-1.362-3.281,4.647,4.647,0,0,1,1.362,3.281Z" transform="translate(-180.706 15.041)" fill="#263238"/>
        <path id="Path_34464" data-name="Path 34464" d="M235.344,223.634A4.647,4.647,0,1,1,230.709,219,4.647,4.647,0,0,1,235.344,223.634Z" transform="translate(-184.204 15.041)" fill="#263238"/>
        <path id="Path_34465" data-name="Path 34465" d="M222.214,223.634A4.647,4.647,0,1,1,217.567,219a4.647,4.647,0,0,1,4.647,4.634Z" transform="translate(-187.698 15.041)" fill="#263238"/>
        <path id="Path_34466" data-name="Path 34466" d="M272.634,76.771a38.339,38.339,0,0,0,64.055,24.222l19.17,2.811-9.585-16.574a38.339,38.339,0,1,0-73.64-10.484Z" transform="translate(-171.86 -34.084)" fill="#fff"/>
        <path id="Path_34467" data-name="Path 34467" d="M284.11,45.177a38.263,38.263,0,0,1,32.1-10.661,38.709,38.709,0,0,1,30.73,53.09v-.658l9.521,16.65.7,1.266-1.38-.215-19.17-2.937.456-.139a38.744,38.744,0,0,1-18.992,9.37,33.8,33.8,0,0,1-5.305.544,37.283,37.283,0,0,1-5.318-.1,38.643,38.643,0,0,1-19.575-7.6,45.2,45.2,0,0,1-4.052-3.419,45.121,45.121,0,0,1-3.469-4,38.58,38.58,0,0,1,3.735-51.1ZM280.489,96.19a42.936,42.936,0,0,0,3.482,3.95,42.779,42.779,0,0,0,4.052,3.381,35.364,35.364,0,0,0,9.256,4.989,37.858,37.858,0,0,0,10.231,2.254,38.3,38.3,0,0,0,5.255,0,34,34,0,0,0,5.191-.633,37.8,37.8,0,0,0,18.359-9.458l.19-.177h.266l19.2,2.684-.684,1.013-9.648-16.549-.19-.317.139-.342a37.82,37.82,0,0,0-2.165-32.92,39.555,39.555,0,0,0-11.471-12.51,37.939,37.939,0,0,0-51.457,54.584Z" transform="translate(-171.866 -34.156)" fill="#263238"/>
        <path id="Path_34468" data-name="Path 34468" d="M309.081,74.84v4.786a3.532,3.532,0,0,1-3.609,3.609,3.621,3.621,0,0,1-3.609-3.609v-7.6c0-.076.076-.076.076-.152s-.076-.076-.076-.139a3.71,3.71,0,0,1,3.609-3.609,8.255,8.255,0,1,0,0-16.46,8.129,8.129,0,0,0-7.065,4.052,3.659,3.659,0,0,1-5.065,1.266,3.6,3.6,0,0,1-1.266-4.938A15.472,15.472,0,1,1,309,74.84Zm0,16.118v1.266a3.52,3.52,0,0,1-3.609,3.609,3.609,3.609,0,0,1-3.609-3.609V90.958a3.659,3.659,0,0,1,3.609-3.609,3.571,3.571,0,0,1,3.609,3.609Z" transform="translate(-166.765 -31.456)" fill="#00a0ad"/>
      </g>
    </g>
  </g>
</svg>
